<?xml version="1.0" encoding="UTF-8" standalone="no"?>
<!DOCTYPE svg PUBLIC "-//W3C//DTD SVG 1.1//EN"
 "http://www.w3.org/Graphics/SVG/1.1/DTD/svg11.dtd">
<!-- Generated by graphviz version 2.40.1 (20161225.0304)
 -->
<!-- Title: dependencies Pages: 1 -->
<svg width="575pt" height="284pt"
 viewBox="0.00 0.00 575.00 284.00" xmlns="http://www.w3.org/2000/svg" xmlns:xlink="http://www.w3.org/1999/xlink">
<g id="graph0" class="graph" transform="scale(1 1) rotate(0) translate(4 280)">
<title>dependencies</title>
<polygon fill="#ffffff" stroke="transparent" points="-4,4 -4,-280 571,-280 571,4 -4,4"/>
<text text-anchor="start" x="262.5091" y="-42.4" font-family="sans-serif" font-weight="bold" font-size="14.00" fill="#000000">Legend</text>
<polygon fill="#ffffb3" stroke="transparent" points="49.5,-10 49.5,-30 69.5,-30 69.5,-10 49.5,-10"/>
<text text-anchor="start" x="73.129" y="-15.4" font-family="sans-serif" font-size="14.00" fill="#000000"> &#160;Declarations</text>
<polygon fill="#8dd3c7" stroke="transparent" points="162.5,-10 162.5,-30 182.5,-30 182.5,-10 162.5,-10"/>
<text text-anchor="start" x="186.2251" y="-15.4" font-family="sans-serif" font-size="14.00" fill="#000000"> &#160;Module</text>
<polygon fill="#80b1d3" stroke="transparent" points="248.5,-10 248.5,-30 268.5,-30 268.5,-10 248.5,-10"/>
<text text-anchor="start" x="272.2812" y="-15.4" font-family="sans-serif" font-size="14.00" fill="#000000"> &#160;Bootstrap</text>
<polygon fill="#fdb462" stroke="transparent" points="345.5,-10 345.5,-30 365.5,-30 365.5,-10 345.5,-10"/>
<text text-anchor="start" x="369.1732" y="-15.4" font-family="sans-serif" font-size="14.00" fill="#000000"> &#160;Providers</text>
<polygon fill="#fb8072" stroke="transparent" points="441.5,-10 441.5,-30 461.5,-30 461.5,-10 441.5,-10"/>
<text text-anchor="start" x="465.2258" y="-15.4" font-family="sans-serif" font-size="14.00" fill="#000000"> &#160;Exports</text>
<g id="clust1" class="cluster">
<title>cluster_TsConfirmationModule</title>
<polygon fill="none" stroke="#000000" stroke-dasharray="1,5" points="8,-70 8,-268 559,-268 559,-70 8,-70"/>
</g>
<g id="clust2" class="cluster">
<title>cluster_TsConfirmationModule_declarations</title>
<polygon fill="none" stroke="#000000" points="152,-78 152,-130 551,-130 551,-78 152,-78"/>
</g>
<g id="clust5" class="cluster">
<title>cluster_TsConfirmationModule_imports</title>
<polygon fill="none" stroke="#000000" points="16,-78 16,-130 144,-130 144,-78 16,-78"/>
</g>
<g id="clust6" class="cluster">
<title>cluster_TsConfirmationModule_exports</title>
<polygon fill="none" stroke="#000000" points="175,-208 175,-260 353,-260 353,-208 175,-208"/>
</g>
<!-- TsConfirmationDirective -->
<g id="node1" class="node">
<title>TsConfirmationDirective</title>
<polygon fill="#ffffb3" stroke="#000000" points="542.5155,-122 385.4845,-122 385.4845,-86 542.5155,-86 542.5155,-122"/>
<text text-anchor="middle" x="464" y="-99.8" font-family="Times,serif" font-size="14.00" fill="#000000">TsConfirmationDirective</text>
</g>
<!-- TsConfirmationModule -->
<g id="node3" class="node">
<title>TsConfirmationModule</title>
<polygon fill="#8dd3c7" stroke="#000000" points="338.4818,-187 335.4818,-191 314.4818,-191 311.4818,-187 189.5182,-187 189.5182,-151 338.4818,-151 338.4818,-187"/>
<text text-anchor="middle" x="264" y="-164.8" font-family="Times,serif" font-size="14.00" fill="#000000">TsConfirmationModule</text>
</g>
<!-- TsConfirmationDirective&#45;&gt;TsConfirmationModule -->
<g id="edge1" class="edge">
<title>TsConfirmationDirective&#45;&gt;TsConfirmationModule</title>
<path fill="none" stroke="#000000" d="M464,-122.1061C464,-141.3391 464,-169 464,-169 464,-169 348.757,-169 348.757,-169"/>
<polygon fill="#000000" stroke="#000000" points="348.7571,-165.5001 338.757,-169 348.757,-172.5001 348.7571,-165.5001"/>
</g>
<!-- TsConfirmationModalComponent -->
<g id="node2" class="node">
<title>TsConfirmationModalComponent</title>
<polygon fill="#ffffb3" stroke="#000000" points="367.8144,-122 160.1856,-122 160.1856,-86 367.8144,-86 367.8144,-122"/>
<text text-anchor="middle" x="264" y="-99.8" font-family="Times,serif" font-size="14.00" fill="#000000">TsConfirmationModalComponent</text>
</g>
<!-- TsConfirmationModalComponent&#45;&gt;TsConfirmationModule -->
<g id="edge2" class="edge">
<title>TsConfirmationModalComponent&#45;&gt;TsConfirmationModule</title>
<path fill="none" stroke="#000000" d="M264,-122.1061C264,-122.1061 264,-140.991 264,-140.991"/>
<polygon fill="#000000" stroke="#000000" points="260.5001,-140.9909 264,-150.991 267.5001,-140.991 260.5001,-140.9909"/>
</g>
<!-- TsConfirmationDirective  -->
<g id="node5" class="node">
<title>TsConfirmationDirective </title>
<polygon fill="#fb8072" stroke="#000000" points="344.5148,-252 183.4852,-252 183.4852,-216 344.5148,-216 344.5148,-252"/>
<text text-anchor="middle" x="264" y="-229.8" font-family="Times,serif" font-size="14.00" fill="#000000">TsConfirmationDirective </text>
</g>
<!-- TsConfirmationModule&#45;&gt;TsConfirmationDirective  -->
<g id="edge4" class="edge">
<title>TsConfirmationModule&#45;&gt;TsConfirmationDirective </title>
<path fill="none" stroke="#000000" stroke-dasharray="5,2" d="M264,-187.1061C264,-187.1061 264,-205.991 264,-205.991"/>
<polygon fill="#000000" stroke="#000000" points="260.5001,-205.9909 264,-215.991 267.5001,-205.991 260.5001,-205.9909"/>
</g>
<!-- TsButtonModule -->
<g id="node4" class="node">
<title>TsButtonModule</title>
<polygon fill="#8dd3c7" stroke="#000000" points="135.6653,-122 132.6653,-126 111.6653,-126 108.6653,-122 24.3347,-122 24.3347,-86 135.6653,-86 135.6653,-122"/>
<text text-anchor="middle" x="80" y="-99.8" font-family="Times,serif" font-size="14.00" fill="#000000">TsButtonModule</text>
</g>
<!-- TsButtonModule&#45;&gt;TsConfirmationModule -->
<g id="edge3" class="edge">
<title>TsButtonModule&#45;&gt;TsConfirmationModule</title>
<path fill="none" stroke="#000000" d="M80,-122.1061C80,-141.3391 80,-169 80,-169 80,-169 179.4254,-169 179.4254,-169"/>
<polygon fill="#000000" stroke="#000000" points="179.4254,-172.5001 189.4254,-169 179.4254,-165.5001 179.4254,-172.5001"/>
</g>
</g>
</svg>
