<?xml version="1.0" encoding="UTF-8" standalone="no"?>
<!DOCTYPE svg PUBLIC "-//W3C//DTD SVG 1.1//EN"
 "http://www.w3.org/Graphics/SVG/1.1/DTD/svg11.dtd">
<!-- Generated by graphviz version 2.40.1 (20161225.0304)
 -->
<!-- Title: dependencies Pages: 1 -->
<svg width="692pt" height="284pt"
 viewBox="0.00 0.00 692.00 284.00" xmlns="http://www.w3.org/2000/svg" xmlns:xlink="http://www.w3.org/1999/xlink">
<g id="graph0" class="graph" transform="scale(1 1) rotate(0) translate(4 280)">
<title>dependencies</title>
<polygon fill="#ffffff" stroke="transparent" points="-4,4 -4,-280 688,-280 688,4 -4,4"/>
<text text-anchor="start" x="321.0091" y="-42.4" font-family="sans-serif" font-weight="bold" font-size="14.00" fill="#000000">Legend</text>
<polygon fill="#ffffb3" stroke="transparent" points="108,-10 108,-30 128,-30 128,-10 108,-10"/>
<text text-anchor="start" x="131.629" y="-15.4" font-family="sans-serif" font-size="14.00" fill="#000000"> &#160;Declarations</text>
<polygon fill="#8dd3c7" stroke="transparent" points="221,-10 221,-30 241,-30 241,-10 221,-10"/>
<text text-anchor="start" x="244.7251" y="-15.4" font-family="sans-serif" font-size="14.00" fill="#000000"> &#160;Module</text>
<polygon fill="#80b1d3" stroke="transparent" points="307,-10 307,-30 327,-30 327,-10 307,-10"/>
<text text-anchor="start" x="330.7812" y="-15.4" font-family="sans-serif" font-size="14.00" fill="#000000"> &#160;Bootstrap</text>
<polygon fill="#fdb462" stroke="transparent" points="404,-10 404,-30 424,-30 424,-10 404,-10"/>
<text text-anchor="start" x="427.6732" y="-15.4" font-family="sans-serif" font-size="14.00" fill="#000000"> &#160;Providers</text>
<polygon fill="#fb8072" stroke="transparent" points="500,-10 500,-30 520,-30 520,-10 500,-10"/>
<text text-anchor="start" x="523.7258" y="-15.4" font-family="sans-serif" font-size="14.00" fill="#000000"> &#160;Exports</text>
<g id="clust1" class="cluster">
<title>cluster_TsCopyModule</title>
<polygon fill="none" stroke="#000000" stroke-dasharray="1,5" points="8,-70 8,-268 676,-268 676,-70 8,-70"/>
</g>
<g id="clust2" class="cluster">
<title>cluster_TsCopyModule_declarations</title>
<polygon fill="none" stroke="#000000" points="526,-78 526,-130 668,-130 668,-78 526,-78"/>
</g>
<g id="clust4" class="cluster">
<title>cluster_TsCopyModule_imports</title>
<polygon fill="none" stroke="#000000" points="404,-78 404,-130 518,-130 518,-78 404,-78"/>
</g>
<g id="clust5" class="cluster">
<title>cluster_TsCopyModule_exports</title>
<polygon fill="none" stroke="#000000" points="310,-208 310,-260 456,-260 456,-208 310,-208"/>
</g>
<g id="clust7" class="cluster">
<title>cluster_TsCopyModule_providers</title>
<polygon fill="none" stroke="#000000" points="16,-78 16,-130 396,-130 396,-78 16,-78"/>
</g>
<!-- TsCopyComponent -->
<g id="node1" class="node">
<title>TsCopyComponent</title>
<polygon fill="#ffffb3" stroke="#000000" points="659.6666,-122 534.3334,-122 534.3334,-86 659.6666,-86 659.6666,-122"/>
<text text-anchor="middle" x="597" y="-99.8" font-family="Times,serif" font-size="14.00" fill="#000000">TsCopyComponent</text>
</g>
<!-- TsCopyModule -->
<g id="node2" class="node">
<title>TsCopyModule</title>
<polygon fill="#8dd3c7" stroke="#000000" points="434.8837,-187 431.8837,-191 410.8837,-191 407.8837,-187 331.1163,-187 331.1163,-151 434.8837,-151 434.8837,-187"/>
<text text-anchor="middle" x="383" y="-164.8" font-family="Times,serif" font-size="14.00" fill="#000000">TsCopyModule</text>
</g>
<!-- TsCopyComponent&#45;&gt;TsCopyModule -->
<g id="edge1" class="edge">
<title>TsCopyComponent&#45;&gt;TsCopyModule</title>
<path fill="none" stroke="#000000" d="M597,-122.1061C597,-141.3391 597,-169 597,-169 597,-169 445.0766,-169 445.0766,-169"/>
<polygon fill="#000000" stroke="#000000" points="445.0767,-165.5001 435.0766,-169 445.0766,-172.5001 445.0767,-165.5001"/>
</g>
<!-- TsCopyComponent  -->
<g id="node4" class="node">
<title>TsCopyComponent </title>
<polygon fill="#fb8072" stroke="#000000" points="447.6663,-252 318.3337,-252 318.3337,-216 447.6663,-216 447.6663,-252"/>
<text text-anchor="middle" x="383" y="-229.8" font-family="Times,serif" font-size="14.00" fill="#000000">TsCopyComponent </text>
</g>
<!-- TsCopyModule&#45;&gt;TsCopyComponent  -->
<g id="edge3" class="edge">
<title>TsCopyModule&#45;&gt;TsCopyComponent </title>
<path fill="none" stroke="#000000" stroke-dasharray="5,2" d="M383,-187.1061C383,-187.1061 383,-205.991 383,-205.991"/>
<polygon fill="#000000" stroke="#000000" points="379.5001,-205.9909 383,-215.991 386.5001,-205.991 379.5001,-205.9909"/>
</g>
<!-- TsIconModule -->
<g id="node3" class="node">
<title>TsIconModule</title>
<polygon fill="#8dd3c7" stroke="#000000" points="510.4231,-122 507.4231,-126 486.4231,-126 483.4231,-122 411.5769,-122 411.5769,-86 510.4231,-86 510.4231,-122"/>
<text text-anchor="middle" x="461" y="-99.8" font-family="Times,serif" font-size="14.00" fill="#000000">TsIconModule</text>
</g>
<!-- TsIconModule&#45;&gt;TsCopyModule -->
<g id="edge2" class="edge">
<title>TsIconModule&#45;&gt;TsCopyModule</title>
<path fill="none" stroke="#000000" d="M423.3654,-122.1061C423.3654,-122.1061 423.3654,-140.991 423.3654,-140.991"/>
<polygon fill="#000000" stroke="#000000" points="419.8654,-140.9909 423.3654,-150.991 426.8654,-140.991 419.8654,-140.9909"/>
</g>
<!-- TsWindowService -->
<g id="node5" class="node">
<title>TsWindowService</title>
<ellipse fill="#fdb462" stroke="#000000" cx="305" cy="-104" rx="82.8052" ry="18"/>
<text text-anchor="middle" x="305" y="-99.8" font-family="Times,serif" font-size="14.00" fill="#000000">TsWindowService</text>
</g>
<!-- TsWindowService&#45;&gt;TsCopyModule -->
<g id="edge4" class="edge">
<title>TsWindowService&#45;&gt;TsCopyModule</title>
<path fill="none" stroke="#000000" d="M359.4804,-117.7848C359.4804,-117.7848 359.4804,-140.5475 359.4804,-140.5475"/>
<polygon fill="#000000" stroke="#000000" points="355.9805,-140.5474 359.4804,-150.5475 362.9805,-140.5475 355.9805,-140.5474"/>
</g>
<!-- TsDocumentService -->
<g id="node6" class="node">
<title>TsDocumentService</title>
<ellipse fill="#fdb462" stroke="#000000" cx="114" cy="-104" rx="89.746" ry="18"/>
<text text-anchor="middle" x="114" y="-99.8" font-family="Times,serif" font-size="14.00" fill="#000000">TsDocumentService</text>
</g>
<!-- TsDocumentService&#45;&gt;TsCopyModule -->
<g id="edge5" class="edge">
<title>TsDocumentService&#45;&gt;TsCopyModule</title>
<path fill="none" stroke="#000000" d="M114,-122.1061C114,-141.3391 114,-169 114,-169 114,-169 320.8151,-169 320.8151,-169"/>
<polygon fill="#000000" stroke="#000000" points="320.8152,-172.5001 330.8151,-169 320.8151,-165.5001 320.8152,-172.5001"/>
</g>
</g>
</svg>
