<?xml version="1.0" encoding="UTF-8" standalone="no"?>
<!DOCTYPE svg PUBLIC "-//W3C//DTD SVG 1.1//EN"
 "http://www.w3.org/Graphics/SVG/1.1/DTD/svg11.dtd">
<!-- Generated by graphviz version 2.40.1 (20161225.0304)
 -->
<!-- Title: dependencies Pages: 1 -->
<svg width="504pt" height="284pt"
 viewBox="0.00 0.00 504.00 284.00" xmlns="http://www.w3.org/2000/svg" xmlns:xlink="http://www.w3.org/1999/xlink">
<g id="graph0" class="graph" transform="scale(1 1) rotate(0) translate(4 280)">
<title>dependencies</title>
<polygon fill="#ffffff" stroke="transparent" points="-4,4 -4,-280 500,-280 500,4 -4,4"/>
<text text-anchor="start" x="227.0091" y="-42.4" font-family="sans-serif" font-weight="bold" font-size="14.00" fill="#000000">Legend</text>
<polygon fill="#ffffb3" stroke="transparent" points="14,-10 14,-30 34,-30 34,-10 14,-10"/>
<text text-anchor="start" x="37.629" y="-15.4" font-family="sans-serif" font-size="14.00" fill="#000000"> &#160;Declarations</text>
<polygon fill="#8dd3c7" stroke="transparent" points="127,-10 127,-30 147,-30 147,-10 127,-10"/>
<text text-anchor="start" x="150.7251" y="-15.4" font-family="sans-serif" font-size="14.00" fill="#000000"> &#160;Module</text>
<polygon fill="#80b1d3" stroke="transparent" points="213,-10 213,-30 233,-30 233,-10 213,-10"/>
<text text-anchor="start" x="236.7812" y="-15.4" font-family="sans-serif" font-size="14.00" fill="#000000"> &#160;Bootstrap</text>
<polygon fill="#fdb462" stroke="transparent" points="310,-10 310,-30 330,-30 330,-10 310,-10"/>
<text text-anchor="start" x="333.6732" y="-15.4" font-family="sans-serif" font-size="14.00" fill="#000000"> &#160;Providers</text>
<polygon fill="#fb8072" stroke="transparent" points="406,-10 406,-30 426,-30 426,-10 406,-10"/>
<text text-anchor="start" x="429.7258" y="-15.4" font-family="sans-serif" font-size="14.00" fill="#000000"> &#160;Exports</text>
<g id="clust1" class="cluster">
<title>cluster_TsCopyModule</title>
<polygon fill="none" stroke="#000000" stroke-dasharray="1,5" points="41.5,-70 41.5,-268 454.5,-268 454.5,-70 41.5,-70"/>
</g>
<g id="clust2" class="cluster">
<title>cluster_TsCopyModule_declarations</title>
<polygon fill="none" stroke="#000000" points="304.5,-78 304.5,-130 446.5,-130 446.5,-78 304.5,-78"/>
</g>
<g id="clust4" class="cluster">
<title>cluster_TsCopyModule_imports</title>
<polygon fill="none" stroke="#000000" points="49.5,-78 49.5,-130 296.5,-130 296.5,-78 49.5,-78"/>
</g>
<g id="clust5" class="cluster">
<title>cluster_TsCopyModule_exports</title>
<polygon fill="none" stroke="#000000" points="166.5,-208 166.5,-260 312.5,-260 312.5,-208 166.5,-208"/>
</g>
<!-- TsCopyComponent -->
<g id="node1" class="node">
<title>TsCopyComponent</title>
<polygon fill="#ffffb3" stroke="#000000" points="438.1666,-122 312.8334,-122 312.8334,-86 438.1666,-86 438.1666,-122"/>
<text text-anchor="middle" x="375.5" y="-99.8" font-family="Times,serif" font-size="14.00" fill="#000000">TsCopyComponent</text>
</g>
<!-- TsCopyModule -->
<g id="node2" class="node">
<title>TsCopyModule</title>
<polygon fill="#8dd3c7" stroke="#000000" points="291.3837,-187 288.3837,-191 267.3837,-191 264.3837,-187 187.6163,-187 187.6163,-151 291.3837,-151 291.3837,-187"/>
<text text-anchor="middle" x="239.5" y="-164.8" font-family="Times,serif" font-size="14.00" fill="#000000">TsCopyModule</text>
</g>
<!-- TsCopyComponent&#45;&gt;TsCopyModule -->
<g id="edge1" class="edge">
<title>TsCopyComponent&#45;&gt;TsCopyModule</title>
<path fill="none" stroke="#000000" d="M375.5,-122.1061C375.5,-141.3391 375.5,-169 375.5,-169 375.5,-169 301.6922,-169 301.6922,-169"/>
<polygon fill="#000000" stroke="#000000" points="301.6922,-165.5001 291.6922,-169 301.6922,-172.5001 301.6922,-165.5001"/>
</g>
<!-- TsCopyComponent  -->
<g id="node5" class="node">
<title>TsCopyComponent </title>
<polygon fill="#fb8072" stroke="#000000" points="304.1663,-252 174.8337,-252 174.8337,-216 304.1663,-216 304.1663,-252"/>
<text text-anchor="middle" x="239.5" y="-229.8" font-family="Times,serif" font-size="14.00" fill="#000000">TsCopyComponent </text>
</g>
<!-- TsCopyModule&#45;&gt;TsCopyComponent  -->
<g id="edge4" class="edge">
<title>TsCopyModule&#45;&gt;TsCopyComponent </title>
<path fill="none" stroke="#000000" stroke-dasharray="5,2" d="M239.5,-187.1061C239.5,-187.1061 239.5,-205.991 239.5,-205.991"/>
<polygon fill="#000000" stroke="#000000" points="236.0001,-205.9909 239.5,-215.991 243.0001,-205.991 236.0001,-205.9909"/>
</g>
<!-- TsIconModule -->
<g id="node3" class="node">
<title>TsIconModule</title>
<polygon fill="#8dd3c7" stroke="#000000" points="288.9231,-122 285.9231,-126 264.9231,-126 261.9231,-122 190.0769,-122 190.0769,-86 288.9231,-86 288.9231,-122"/>
<text text-anchor="middle" x="239.5" y="-99.8" font-family="Times,serif" font-size="14.00" fill="#000000">TsIconModule</text>
</g>
<!-- TsIconModule&#45;&gt;TsCopyModule -->
<g id="edge2" class="edge">
<title>TsIconModule&#45;&gt;TsCopyModule</title>
<path fill="none" stroke="#000000" d="M239.5,-122.1061C239.5,-122.1061 239.5,-140.991 239.5,-140.991"/>
<polygon fill="#000000" stroke="#000000" points="236.0001,-140.9909 239.5,-150.991 243.0001,-140.991 236.0001,-140.9909"/>
</g>
<!-- TsTooltipModule -->
<g id="node4" class="node">
<title>TsTooltipModule</title>
<polygon fill="#8dd3c7" stroke="#000000" points="171.7716,-122 168.7716,-126 147.7716,-126 144.7716,-122 57.2284,-122 57.2284,-86 171.7716,-86 171.7716,-122"/>
<text text-anchor="middle" x="114.5" y="-99.8" font-family="Times,serif" font-size="14.00" fill="#000000">TsTooltipModule</text>
</g>
<!-- TsTooltipModule&#45;&gt;TsCopyModule -->
<g id="edge3" class="edge">
<title>TsTooltipModule&#45;&gt;TsCopyModule</title>
<path fill="none" stroke="#000000" d="M114.5,-122.1061C114.5,-141.3391 114.5,-169 114.5,-169 114.5,-169 177.5747,-169 177.5747,-169"/>
<polygon fill="#000000" stroke="#000000" points="177.5747,-172.5001 187.5747,-169 177.5747,-165.5001 177.5747,-172.5001"/>
</g>
</g>
</svg>
