<?xml version="1.0" encoding="UTF-8" standalone="no"?>
<!DOCTYPE svg PUBLIC "-//W3C//DTD SVG 1.1//EN"
 "http://www.w3.org/Graphics/SVG/1.1/DTD/svg11.dtd">
<!-- Generated by graphviz version 2.40.1 (20161225.0304)
 -->
<!-- Title: dependencies Pages: 1 -->
<svg width="886pt" height="284pt"
 viewBox="0.00 0.00 886.00 284.00" xmlns="http://www.w3.org/2000/svg" xmlns:xlink="http://www.w3.org/1999/xlink">
<g id="graph0" class="graph" transform="scale(1 1) rotate(0) translate(4 280)">
<title>dependencies</title>
<polygon fill="#ffffff" stroke="transparent" points="-4,4 -4,-280 882,-280 882,4 -4,4"/>
<text text-anchor="start" x="418.0091" y="-42.4" font-family="sans-serif" font-weight="bold" font-size="14.00" fill="#000000">Legend</text>
<polygon fill="#ffffb3" stroke="transparent" points="205,-10 205,-30 225,-30 225,-10 205,-10"/>
<text text-anchor="start" x="228.629" y="-15.4" font-family="sans-serif" font-size="14.00" fill="#000000"> &#160;Declarations</text>
<polygon fill="#8dd3c7" stroke="transparent" points="318,-10 318,-30 338,-30 338,-10 318,-10"/>
<text text-anchor="start" x="341.7251" y="-15.4" font-family="sans-serif" font-size="14.00" fill="#000000"> &#160;Module</text>
<polygon fill="#80b1d3" stroke="transparent" points="404,-10 404,-30 424,-30 424,-10 404,-10"/>
<text text-anchor="start" x="427.7812" y="-15.4" font-family="sans-serif" font-size="14.00" fill="#000000"> &#160;Bootstrap</text>
<polygon fill="#fdb462" stroke="transparent" points="501,-10 501,-30 521,-30 521,-10 501,-10"/>
<text text-anchor="start" x="524.6732" y="-15.4" font-family="sans-serif" font-size="14.00" fill="#000000"> &#160;Providers</text>
<polygon fill="#fb8072" stroke="transparent" points="597,-10 597,-30 617,-30 617,-10 597,-10"/>
<text text-anchor="start" x="620.7258" y="-15.4" font-family="sans-serif" font-size="14.00" fill="#000000"> &#160;Exports</text>
<g id="clust1" class="cluster">
<title>cluster_TsCopyModule</title>
<polygon fill="none" stroke="#000000" stroke-dasharray="1,5" points="8,-70 8,-268 870,-268 870,-70 8,-70"/>
</g>
<g id="clust2" class="cluster">
<title>cluster_TsCopyModule_declarations</title>
<polygon fill="none" stroke="#000000" points="720,-78 720,-130 862,-130 862,-78 720,-78"/>
</g>
<g id="clust4" class="cluster">
<title>cluster_TsCopyModule_imports</title>
<polygon fill="none" stroke="#000000" points="186,-78 186,-130 712,-130 712,-78 186,-78"/>
</g>
<g id="clust5" class="cluster">
<title>cluster_TsCopyModule_exports</title>
<polygon fill="none" stroke="#000000" points="373,-208 373,-260 519,-260 519,-208 373,-208"/>
</g>
<g id="clust7" class="cluster">
<title>cluster_TsCopyModule_providers</title>
<polygon fill="none" stroke="#000000" points="16,-78 16,-130 178,-130 178,-78 16,-78"/>
</g>
<!-- TsCopyComponent -->
<g id="node1" class="node">
<title>TsCopyComponent</title>
<polygon fill="#ffffb3" stroke="#000000" points="853.6666,-122 728.3334,-122 728.3334,-86 853.6666,-86 853.6666,-122"/>
<text text-anchor="middle" x="791" y="-99.8" font-family="Times,serif" font-size="14.00" fill="#000000">TsCopyComponent</text>
</g>
<!-- TsCopyModule -->
<g id="node2" class="node">
<title>TsCopyModule</title>
<polygon fill="#8dd3c7" stroke="#000000" points="497.8837,-187 494.8837,-191 473.8837,-191 470.8837,-187 394.1163,-187 394.1163,-151 497.8837,-151 497.8837,-187"/>
<text text-anchor="middle" x="446" y="-164.8" font-family="Times,serif" font-size="14.00" fill="#000000">TsCopyModule</text>
</g>
<!-- TsCopyComponent&#45;&gt;TsCopyModule -->
<g id="edge1" class="edge">
<title>TsCopyComponent&#45;&gt;TsCopyModule</title>
<path fill="none" stroke="#000000" d="M791,-122.2843C791,-143.3211 791,-175 791,-175 791,-175 508.0235,-175 508.0235,-175"/>
<polygon fill="#000000" stroke="#000000" points="508.0236,-171.5001 498.0235,-175 508.0235,-178.5001 508.0236,-171.5001"/>
</g>
<!-- TsCopyComponent  -->
<g id="node7" class="node">
<title>TsCopyComponent </title>
<polygon fill="#fb8072" stroke="#000000" points="510.6663,-252 381.3337,-252 381.3337,-216 510.6663,-216 510.6663,-252"/>
<text text-anchor="middle" x="446" y="-229.8" font-family="Times,serif" font-size="14.00" fill="#000000">TsCopyComponent </text>
</g>
<!-- TsCopyModule&#45;&gt;TsCopyComponent  -->
<g id="edge6" class="edge">
<title>TsCopyModule&#45;&gt;TsCopyComponent </title>
<path fill="none" stroke="#000000" stroke-dasharray="5,2" d="M446,-187.1061C446,-187.1061 446,-205.991 446,-205.991"/>
<polygon fill="#000000" stroke="#000000" points="442.5001,-205.9909 446,-215.991 449.5001,-205.991 442.5001,-205.9909"/>
</g>
<!-- CommonModule -->
<g id="node3" class="node">
<title>CommonModule</title>
<polygon fill="#8dd3c7" stroke="#000000" points="703.6681,-122 700.6681,-126 679.6681,-126 676.6681,-122 592.3319,-122 592.3319,-86 703.6681,-86 703.6681,-122"/>
<text text-anchor="middle" x="648" y="-99.8" font-family="Times,serif" font-size="14.00" fill="#000000">CommonModule</text>
</g>
<!-- CommonModule&#45;&gt;TsCopyModule -->
<g id="edge2" class="edge">
<title>CommonModule&#45;&gt;TsCopyModule</title>
<path fill="none" stroke="#000000" d="M648,-122.0225C648,-139.3734 648,-163 648,-163 648,-163 508.02,-163 508.02,-163"/>
<polygon fill="#000000" stroke="#000000" points="508.0201,-159.5001 498.02,-163 508.02,-166.5001 508.0201,-159.5001"/>
</g>
<!-- FlexLayoutModule -->
<g id="node4" class="node">
<title>FlexLayoutModule</title>
<polygon fill="#8dd3c7" stroke="#000000" points="574.0954,-122 571.0954,-126 550.0954,-126 547.0954,-122 449.9046,-122 449.9046,-86 574.0954,-86 574.0954,-122"/>
<text text-anchor="middle" x="512" y="-99.8" font-family="Times,serif" font-size="14.00" fill="#000000">FlexLayoutModule</text>
</g>
<!-- FlexLayoutModule&#45;&gt;TsCopyModule -->
<g id="edge3" class="edge">
<title>FlexLayoutModule&#45;&gt;TsCopyModule</title>
<path fill="none" stroke="#000000" d="M473.9471,-122.1061C473.9471,-122.1061 473.9471,-140.991 473.9471,-140.991"/>
<polygon fill="#000000" stroke="#000000" points="470.4471,-140.9909 473.9471,-150.991 477.4471,-140.991 470.4471,-140.9909"/>
</g>
<!-- MdIconModule -->
<g id="node5" class="node">
<title>MdIconModule</title>
<polygon fill="#8dd3c7" stroke="#000000" points="431.8697,-122 428.8697,-126 407.8697,-126 404.8697,-122 328.1303,-122 328.1303,-86 431.8697,-86 431.8697,-122"/>
<text text-anchor="middle" x="380" y="-99.8" font-family="Times,serif" font-size="14.00" fill="#000000">MdIconModule</text>
</g>
<!-- MdIconModule&#45;&gt;TsCopyModule -->
<g id="edge4" class="edge">
<title>MdIconModule&#45;&gt;TsCopyModule</title>
<path fill="none" stroke="#000000" d="M412.9965,-122.1061C412.9965,-122.1061 412.9965,-140.991 412.9965,-140.991"/>
<polygon fill="#000000" stroke="#000000" points="409.4966,-140.9909 412.9965,-150.991 416.4966,-140.991 409.4966,-140.9909"/>
</g>
<!-- MdRippleModule -->
<g id="node6" class="node">
<title>MdRippleModule</title>
<polygon fill="#8dd3c7" stroke="#000000" points="310.3273,-122 307.3273,-126 286.3273,-126 283.3273,-122 193.6727,-122 193.6727,-86 310.3273,-86 310.3273,-122"/>
<text text-anchor="middle" x="252" y="-99.8" font-family="Times,serif" font-size="14.00" fill="#000000">MdRippleModule</text>
</g>
<!-- MdRippleModule&#45;&gt;TsCopyModule -->
<g id="edge5" class="edge">
<title>MdRippleModule&#45;&gt;TsCopyModule</title>
<path fill="none" stroke="#000000" d="M252,-122.0225C252,-139.3734 252,-163 252,-163 252,-163 384.0116,-163 384.0116,-163"/>
<polygon fill="#000000" stroke="#000000" points="384.0116,-166.5001 394.0116,-163 384.0115,-159.5001 384.0116,-166.5001"/>
</g>
<!-- WindowService -->
<g id="node8" class="node">
<title>WindowService</title>
<ellipse fill="#fdb462" stroke="#000000" cx="97" cy="-104" rx="73.4959" ry="18"/>
<text text-anchor="middle" x="97" y="-99.8" font-family="Times,serif" font-size="14.00" fill="#000000">WindowService</text>
</g>
<!-- WindowService&#45;&gt;TsCopyModule -->
<g id="edge7" class="edge">
<title>WindowService&#45;&gt;TsCopyModule</title>
<path fill="none" stroke="#000000" d="M97,-122.2843C97,-143.3211 97,-175 97,-175 97,-175 383.7512,-175 383.7512,-175"/>
<polygon fill="#000000" stroke="#000000" points="383.7512,-178.5001 393.7512,-175 383.7511,-171.5001 383.7512,-178.5001"/>
</g>
</g>
</svg>
