<?xml version="1.0" encoding="UTF-8" standalone="no"?>
<!DOCTYPE svg PUBLIC "-//W3C//DTD SVG 1.1//EN"
 "http://www.w3.org/Graphics/SVG/1.1/DTD/svg11.dtd">
<!-- Generated by graphviz version 2.40.1 (20161225.0304)
 -->
<!-- Title: dependencies Pages: 1 -->
<svg width="722pt" height="284pt"
 viewBox="0.00 0.00 722.00 284.00" xmlns="http://www.w3.org/2000/svg" xmlns:xlink="http://www.w3.org/1999/xlink">
<g id="graph0" class="graph" transform="scale(1 1) rotate(0) translate(4 280)">
<title>dependencies</title>
<polygon fill="#ffffff" stroke="transparent" points="-4,4 -4,-280 718,-280 718,4 -4,4"/>
<text text-anchor="start" x="336.0091" y="-42.4" font-family="sans-serif" font-weight="bold" font-size="14.00" fill="#000000">Legend</text>
<polygon fill="#ffffb3" stroke="transparent" points="123,-10 123,-30 143,-30 143,-10 123,-10"/>
<text text-anchor="start" x="146.629" y="-15.4" font-family="sans-serif" font-size="14.00" fill="#000000"> &#160;Declarations</text>
<polygon fill="#8dd3c7" stroke="transparent" points="236,-10 236,-30 256,-30 256,-10 236,-10"/>
<text text-anchor="start" x="259.7251" y="-15.4" font-family="sans-serif" font-size="14.00" fill="#000000"> &#160;Module</text>
<polygon fill="#80b1d3" stroke="transparent" points="322,-10 322,-30 342,-30 342,-10 322,-10"/>
<text text-anchor="start" x="345.7812" y="-15.4" font-family="sans-serif" font-size="14.00" fill="#000000"> &#160;Bootstrap</text>
<polygon fill="#fdb462" stroke="transparent" points="419,-10 419,-30 439,-30 439,-10 419,-10"/>
<text text-anchor="start" x="442.6732" y="-15.4" font-family="sans-serif" font-size="14.00" fill="#000000"> &#160;Providers</text>
<polygon fill="#fb8072" stroke="transparent" points="515,-10 515,-30 535,-30 535,-10 515,-10"/>
<text text-anchor="start" x="538.7258" y="-15.4" font-family="sans-serif" font-size="14.00" fill="#000000"> &#160;Exports</text>
<g id="clust1" class="cluster">
<title>cluster_TsPaginatorModule</title>
<polygon fill="none" stroke="#000000" stroke-dasharray="1,5" points="8,-70 8,-268 706,-268 706,-70 8,-70"/>
</g>
<g id="clust2" class="cluster">
<title>cluster_TsPaginatorModule_declarations</title>
<polygon fill="none" stroke="#000000" points="534,-78 534,-130 698,-130 698,-78 534,-78"/>
</g>
<g id="clust4" class="cluster">
<title>cluster_TsPaginatorModule_imports</title>
<polygon fill="none" stroke="#000000" points="16,-78 16,-130 526,-130 526,-78 16,-78"/>
</g>
<g id="clust5" class="cluster">
<title>cluster_TsPaginatorModule_exports</title>
<polygon fill="none" stroke="#000000" points="251,-208 251,-260 419,-260 419,-208 251,-208"/>
</g>
<!-- TsPaginatorComponent -->
<g id="node1" class="node">
<title>TsPaginatorComponent</title>
<polygon fill="#ffffb3" stroke="#000000" points="690.4832,-122 541.5168,-122 541.5168,-86 690.4832,-86 690.4832,-122"/>
<text text-anchor="middle" x="616" y="-99.8" font-family="Times,serif" font-size="14.00" fill="#000000">TsPaginatorComponent</text>
</g>
<!-- TsPaginatorModule -->
<g id="node2" class="node">
<title>TsPaginatorModule</title>
<polygon fill="#8dd3c7" stroke="#000000" points="398.7008,-187 395.7008,-191 374.7008,-191 371.7008,-187 271.2992,-187 271.2992,-151 398.7008,-151 398.7008,-187"/>
<text text-anchor="middle" x="335" y="-164.8" font-family="Times,serif" font-size="14.00" fill="#000000">TsPaginatorModule</text>
</g>
<!-- TsPaginatorComponent&#45;&gt;TsPaginatorModule -->
<g id="edge1" class="edge">
<title>TsPaginatorComponent&#45;&gt;TsPaginatorModule</title>
<path fill="none" stroke="#000000" d="M616,-122.1061C616,-141.3391 616,-169 616,-169 616,-169 408.7632,-169 408.7632,-169"/>
<polygon fill="#000000" stroke="#000000" points="408.7633,-165.5001 398.7632,-169 408.7632,-172.5001 408.7633,-165.5001"/>
</g>
<!-- TsPaginatorComponent  -->
<g id="node7" class="node">
<title>TsPaginatorComponent </title>
<polygon fill="#fb8072" stroke="#000000" points="411.484,-252 258.516,-252 258.516,-216 411.484,-216 411.484,-252"/>
<text text-anchor="middle" x="335" y="-229.8" font-family="Times,serif" font-size="14.00" fill="#000000">TsPaginatorComponent </text>
</g>
<!-- TsPaginatorModule&#45;&gt;TsPaginatorComponent  -->
<g id="edge6" class="edge">
<title>TsPaginatorModule&#45;&gt;TsPaginatorComponent </title>
<path fill="none" stroke="#000000" stroke-dasharray="5,2" d="M335,-187.1061C335,-187.1061 335,-205.991 335,-205.991"/>
<polygon fill="#000000" stroke="#000000" points="331.5001,-205.9909 335,-215.991 338.5001,-205.991 331.5001,-205.9909"/>
</g>
<!-- TsButtonModule -->
<g id="node3" class="node">
<title>TsButtonModule</title>
<polygon fill="#8dd3c7" stroke="#000000" points="517.6653,-122 514.6653,-126 493.6653,-126 490.6653,-122 406.3347,-122 406.3347,-86 517.6653,-86 517.6653,-122"/>
<text text-anchor="middle" x="462" y="-99.8" font-family="Times,serif" font-size="14.00" fill="#000000">TsButtonModule</text>
</g>
<!-- TsButtonModule&#45;&gt;TsPaginatorModule -->
<g id="edge2" class="edge">
<title>TsButtonModule&#45;&gt;TsPaginatorModule</title>
<path fill="none" stroke="#000000" d="M406.2639,-104C398.6321,-104 393.3517,-104 393.3517,-104 393.3517,-104 393.3517,-140.8939 393.3517,-140.8939"/>
<polygon fill="#000000" stroke="#000000" points="389.8518,-140.8938 393.3517,-150.8939 396.8518,-140.8939 389.8518,-140.8938"/>
</g>
<!-- TsMenuModule -->
<g id="node4" class="node">
<title>TsMenuModule</title>
<polygon fill="#8dd3c7" stroke="#000000" points="388.2064,-122 385.2064,-126 364.2064,-126 361.2064,-122 281.7936,-122 281.7936,-86 388.2064,-86 388.2064,-122"/>
<text text-anchor="middle" x="335" y="-99.8" font-family="Times,serif" font-size="14.00" fill="#000000">TsMenuModule</text>
</g>
<!-- TsMenuModule&#45;&gt;TsPaginatorModule -->
<g id="edge3" class="edge">
<title>TsMenuModule&#45;&gt;TsPaginatorModule</title>
<path fill="none" stroke="#000000" d="M335,-122.1061C335,-122.1061 335,-140.991 335,-140.991"/>
<polygon fill="#000000" stroke="#000000" points="331.5001,-140.9909 335,-150.991 338.5001,-140.991 331.5001,-140.9909"/>
</g>
<!-- TsSelectModule -->
<g id="node5" class="node">
<title>TsSelectModule</title>
<polygon fill="#8dd3c7" stroke="#000000" points="263.7549,-122 260.7549,-126 239.7549,-126 236.7549,-122 156.2451,-122 156.2451,-86 263.7549,-86 263.7549,-122"/>
<text text-anchor="middle" x="210" y="-99.8" font-family="Times,serif" font-size="14.00" fill="#000000">TsSelectModule</text>
</g>
<!-- TsSelectModule&#45;&gt;TsPaginatorModule -->
<g id="edge4" class="edge">
<title>TsSelectModule&#45;&gt;TsPaginatorModule</title>
<path fill="none" stroke="#000000" d="M263.7978,-104C271.3763,-104 276.6483,-104 276.6483,-104 276.6483,-104 276.6483,-140.8939 276.6483,-140.8939"/>
<polygon fill="#000000" stroke="#000000" points="273.1484,-140.8938 276.6483,-150.8939 280.1484,-140.8939 273.1484,-140.8938"/>
</g>
<!-- TsTooltipModule -->
<g id="node6" class="node">
<title>TsTooltipModule</title>
<polygon fill="#8dd3c7" stroke="#000000" points="138.2716,-122 135.2716,-126 114.2716,-126 111.2716,-122 23.7284,-122 23.7284,-86 138.2716,-86 138.2716,-122"/>
<text text-anchor="middle" x="81" y="-99.8" font-family="Times,serif" font-size="14.00" fill="#000000">TsTooltipModule</text>
</g>
<!-- TsTooltipModule&#45;&gt;TsPaginatorModule -->
<g id="edge5" class="edge">
<title>TsTooltipModule&#45;&gt;TsPaginatorModule</title>
<path fill="none" stroke="#000000" d="M81,-122.1061C81,-141.3391 81,-169 81,-169 81,-169 261.2329,-169 261.2329,-169"/>
<polygon fill="#000000" stroke="#000000" points="261.233,-172.5001 271.2329,-169 261.2329,-165.5001 261.233,-172.5001"/>
</g>
</g>
</svg>
