<?xml version="1.0" encoding="UTF-8" standalone="no"?>
<!DOCTYPE svg PUBLIC "-//W3C//DTD SVG 1.1//EN"
 "http://www.w3.org/Graphics/SVG/1.1/DTD/svg11.dtd">
<!-- Generated by graphviz version 2.40.1 (20161225.0304)
 -->
<!-- Title: dependencies Pages: 1 -->
<svg width="696pt" height="284pt"
 viewBox="0.00 0.00 696.00 284.00" xmlns="http://www.w3.org/2000/svg" xmlns:xlink="http://www.w3.org/1999/xlink">
<g id="graph0" class="graph" transform="scale(1 1) rotate(0) translate(4 280)">
<title>dependencies</title>
<polygon fill="#ffffff" stroke="transparent" points="-4,4 -4,-280 692,-280 692,4 -4,4"/>
<text text-anchor="start" x="323.0091" y="-42.4" font-family="sans-serif" font-weight="bold" font-size="14.00" fill="#000000">Legend</text>
<polygon fill="#ffffb3" stroke="transparent" points="110,-10 110,-30 130,-30 130,-10 110,-10"/>
<text text-anchor="start" x="133.629" y="-15.4" font-family="sans-serif" font-size="14.00" fill="#000000"> &#160;Declarations</text>
<polygon fill="#8dd3c7" stroke="transparent" points="223,-10 223,-30 243,-30 243,-10 223,-10"/>
<text text-anchor="start" x="246.7251" y="-15.4" font-family="sans-serif" font-size="14.00" fill="#000000"> &#160;Module</text>
<polygon fill="#80b1d3" stroke="transparent" points="309,-10 309,-30 329,-30 329,-10 309,-10"/>
<text text-anchor="start" x="332.7812" y="-15.4" font-family="sans-serif" font-size="14.00" fill="#000000"> &#160;Bootstrap</text>
<polygon fill="#fdb462" stroke="transparent" points="406,-10 406,-30 426,-30 426,-10 406,-10"/>
<text text-anchor="start" x="429.6732" y="-15.4" font-family="sans-serif" font-size="14.00" fill="#000000"> &#160;Providers</text>
<polygon fill="#fb8072" stroke="transparent" points="502,-10 502,-30 522,-30 522,-10 502,-10"/>
<text text-anchor="start" x="525.7258" y="-15.4" font-family="sans-serif" font-size="14.00" fill="#000000"> &#160;Exports</text>
<g id="clust1" class="cluster">
<title>cluster_TsChartModule</title>
<polygon fill="none" stroke="#000000" stroke-dasharray="1,5" points="8,-70 8,-268 680,-268 680,-70 8,-70"/>
</g>
<g id="clust2" class="cluster">
<title>cluster_TsChartModule_declarations</title>
<polygon fill="none" stroke="#000000" points="204,-78 204,-130 672,-130 672,-78 204,-78"/>
</g>
<g id="clust7" class="cluster">
<title>cluster_TsChartModule_exports</title>
<polygon fill="none" stroke="#000000" points="114,-208 114,-260 593,-260 593,-208 114,-208"/>
</g>
<g id="clust9" class="cluster">
<title>cluster_TsChartModule_providers</title>
<polygon fill="none" stroke="#000000" points="16,-78 16,-130 196,-130 196,-78 16,-78"/>
</g>
<!-- TsChartComponent -->
<g id="node1" class="node">
<title>TsChartComponent</title>
<polygon fill="#ffffb3" stroke="#000000" points="664.4327,-122 537.5673,-122 537.5673,-86 664.4327,-86 664.4327,-122"/>
<text text-anchor="middle" x="601" y="-99.8" font-family="Times,serif" font-size="14.00" fill="#000000">TsChartComponent</text>
</g>
<!-- TsChartModule -->
<g id="node4" class="node">
<title>TsChartModule</title>
<polygon fill="#8dd3c7" stroke="#000000" points="414.15,-187 411.15,-191 390.15,-191 387.15,-187 309.85,-187 309.85,-151 414.15,-151 414.15,-187"/>
<text text-anchor="middle" x="362" y="-164.8" font-family="Times,serif" font-size="14.00" fill="#000000">TsChartModule</text>
</g>
<!-- TsChartComponent&#45;&gt;TsChartModule -->
<g id="edge1" class="edge">
<title>TsChartComponent&#45;&gt;TsChartModule</title>
<path fill="none" stroke="#000000" d="M561.375,-122.0225C561.375,-139.3734 561.375,-163 561.375,-163 561.375,-163 424.3834,-163 424.3834,-163"/>
<polygon fill="#000000" stroke="#000000" points="424.3835,-159.5001 414.3834,-163 424.3834,-166.5001 424.3835,-159.5001"/>
</g>
<!-- TsChartSeriesDirective -->
<g id="node2" class="node">
<title>TsChartSeriesDirective</title>
<polygon fill="#ffffb3" stroke="#000000" points="519.8905,-122 372.1095,-122 372.1095,-86 519.8905,-86 519.8905,-122"/>
<text text-anchor="middle" x="446" y="-99.8" font-family="Times,serif" font-size="14.00" fill="#000000">TsChartSeriesDirective</text>
</g>
<!-- TsChartSeriesDirective&#45;&gt;TsChartModule -->
<g id="edge2" class="edge">
<title>TsChartSeriesDirective&#45;&gt;TsChartModule</title>
<path fill="none" stroke="#000000" d="M393.3149,-122.1061C393.3149,-122.1061 393.3149,-140.991 393.3149,-140.991"/>
<polygon fill="#000000" stroke="#000000" points="389.8149,-140.9909 393.3149,-150.991 396.8149,-140.991 389.8149,-140.9909"/>
</g>
<!-- TsChartPointDirective -->
<g id="node3" class="node">
<title>TsChartPointDirective</title>
<polygon fill="#ffffb3" stroke="#000000" points="354.2464,-122 211.7536,-122 211.7536,-86 354.2464,-86 354.2464,-122"/>
<text text-anchor="middle" x="283" y="-99.8" font-family="Times,serif" font-size="14.00" fill="#000000">TsChartPointDirective</text>
</g>
<!-- TsChartPointDirective&#45;&gt;TsChartModule -->
<g id="edge3" class="edge">
<title>TsChartPointDirective&#45;&gt;TsChartModule</title>
<path fill="none" stroke="#000000" d="M332.0242,-122.1061C332.0242,-122.1061 332.0242,-140.991 332.0242,-140.991"/>
<polygon fill="#000000" stroke="#000000" points="328.5243,-140.9909 332.0242,-150.991 335.5243,-140.991 328.5243,-140.9909"/>
</g>
<!-- TsChartComponent  -->
<g id="node5" class="node">
<title>TsChartComponent </title>
<polygon fill="#fb8072" stroke="#000000" points="584.932,-252 455.068,-252 455.068,-216 584.932,-216 584.932,-252"/>
<text text-anchor="middle" x="520" y="-229.8" font-family="Times,serif" font-size="14.00" fill="#000000">TsChartComponent </text>
</g>
<!-- TsChartModule&#45;&gt;TsChartComponent  -->
<g id="edge4" class="edge">
<title>TsChartModule&#45;&gt;TsChartComponent </title>
<path fill="none" stroke="#000000" stroke-dasharray="5,2" d="M414.4395,-175C448.7926,-175 487.3645,-175 487.3645,-175 487.3645,-175 487.3645,-205.9775 487.3645,-205.9775"/>
<polygon fill="#000000" stroke="#000000" points="483.8646,-205.9774 487.3645,-215.9775 490.8646,-205.9775 483.8646,-205.9774"/>
</g>
<!-- TsChartSeriesDirective  -->
<g id="node6" class="node">
<title>TsChartSeriesDirective </title>
<polygon fill="#fb8072" stroke="#000000" points="437.39,-252 286.61,-252 286.61,-216 437.39,-216 437.39,-252"/>
<text text-anchor="middle" x="362" y="-229.8" font-family="Times,serif" font-size="14.00" fill="#000000">TsChartSeriesDirective </text>
</g>
<!-- TsChartModule&#45;&gt;TsChartSeriesDirective  -->
<g id="edge5" class="edge">
<title>TsChartModule&#45;&gt;TsChartSeriesDirective </title>
<path fill="none" stroke="#000000" stroke-dasharray="5,2" d="M362,-187.1061C362,-187.1061 362,-205.991 362,-205.991"/>
<polygon fill="#000000" stroke="#000000" points="358.5001,-205.9909 362,-215.991 365.5001,-205.991 358.5001,-205.9909"/>
</g>
<!-- TsChartPointDirective  -->
<g id="node7" class="node">
<title>TsChartPointDirective </title>
<polygon fill="#fb8072" stroke="#000000" points="268.2464,-252 121.7536,-252 121.7536,-216 268.2464,-216 268.2464,-252"/>
<text text-anchor="middle" x="195" y="-229.8" font-family="Times,serif" font-size="14.00" fill="#000000">TsChartPointDirective </text>
</g>
<!-- TsChartModule&#45;&gt;TsChartPointDirective  -->
<g id="edge6" class="edge">
<title>TsChartModule&#45;&gt;TsChartPointDirective </title>
<path fill="none" stroke="#000000" stroke-dasharray="5,2" d="M309.4993,-175C276.3992,-175 239.875,-175 239.875,-175 239.875,-175 239.875,-205.9775 239.875,-205.9775"/>
<polygon fill="#000000" stroke="#000000" points="236.3751,-205.9774 239.875,-215.9775 243.3751,-205.9775 236.3751,-205.9774"/>
</g>
<!-- HighchartsService -->
<g id="node8" class="node">
<title>HighchartsService</title>
<ellipse fill="#fdb462" stroke="#000000" cx="106" cy="-104" rx="82.2198" ry="18"/>
<text text-anchor="middle" x="106" y="-99.8" font-family="Times,serif" font-size="14.00" fill="#000000">HighchartsService</text>
</g>
<!-- HighchartsService&#45;&gt;TsChartModule -->
<g id="edge7" class="edge">
<title>HighchartsService&#45;&gt;TsChartModule</title>
<path fill="none" stroke="#000000" d="M155.1184,-118.5843C155.1184,-136.0559 155.1184,-163 155.1184,-163 155.1184,-163 299.795,-163 299.795,-163"/>
<polygon fill="#000000" stroke="#000000" points="299.7951,-166.5001 309.795,-163 299.795,-159.5001 299.7951,-166.5001"/>
</g>
</g>
</svg>
