<?xml version="1.0" encoding="UTF-8" standalone="no"?>
<!DOCTYPE svg PUBLIC "-//W3C//DTD SVG 1.1//EN"
 "http://www.w3.org/Graphics/SVG/1.1/DTD/svg11.dtd">
<!-- Generated by graphviz version 2.40.1 (20161225.0304)
 -->
<!-- Title: dependencies Pages: 1 -->
<svg width="697pt" height="284pt"
 viewBox="0.00 0.00 697.00 284.00" xmlns="http://www.w3.org/2000/svg" xmlns:xlink="http://www.w3.org/1999/xlink">
<g id="graph0" class="graph" transform="scale(1 1) rotate(0) translate(4 280)">
<title>dependencies</title>
<polygon fill="#ffffff" stroke="transparent" points="-4,4 -4,-280 693,-280 693,4 -4,4"/>
<text text-anchor="start" x="323.5091" y="-42.4" font-family="sans-serif" font-weight="bold" font-size="14.00" fill="#000000">Legend</text>
<polygon fill="#ffffb3" stroke="transparent" points="110.5,-10 110.5,-30 130.5,-30 130.5,-10 110.5,-10"/>
<text text-anchor="start" x="134.129" y="-15.4" font-family="sans-serif" font-size="14.00" fill="#000000"> &#160;Declarations</text>
<polygon fill="#8dd3c7" stroke="transparent" points="223.5,-10 223.5,-30 243.5,-30 243.5,-10 223.5,-10"/>
<text text-anchor="start" x="247.2251" y="-15.4" font-family="sans-serif" font-size="14.00" fill="#000000"> &#160;Module</text>
<polygon fill="#80b1d3" stroke="transparent" points="309.5,-10 309.5,-30 329.5,-30 329.5,-10 309.5,-10"/>
<text text-anchor="start" x="333.2812" y="-15.4" font-family="sans-serif" font-size="14.00" fill="#000000"> &#160;Bootstrap</text>
<polygon fill="#fdb462" stroke="transparent" points="406.5,-10 406.5,-30 426.5,-30 426.5,-10 406.5,-10"/>
<text text-anchor="start" x="430.1732" y="-15.4" font-family="sans-serif" font-size="14.00" fill="#000000"> &#160;Providers</text>
<polygon fill="#fb8072" stroke="transparent" points="502.5,-10 502.5,-30 522.5,-30 522.5,-10 502.5,-10"/>
<text text-anchor="start" x="526.2258" y="-15.4" font-family="sans-serif" font-size="14.00" fill="#000000"> &#160;Exports</text>
<g id="clust1" class="cluster">
<title>cluster_TsChartModule</title>
<polygon fill="none" stroke="#000000" stroke-dasharray="1,5" points="8,-70 8,-268 681,-268 681,-70 8,-70"/>
</g>
<g id="clust2" class="cluster">
<title>cluster_TsChartModule_declarations</title>
<polygon fill="none" stroke="#000000" points="204,-78 204,-130 673,-130 673,-78 204,-78"/>
</g>
<g id="clust7" class="cluster">
<title>cluster_TsChartModule_exports</title>
<polygon fill="none" stroke="#000000" points="115,-208 115,-260 594,-260 594,-208 115,-208"/>
</g>
<g id="clust9" class="cluster">
<title>cluster_TsChartModule_providers</title>
<polygon fill="none" stroke="#000000" points="16,-78 16,-130 196,-130 196,-78 16,-78"/>
</g>
<!-- TsChartComponent -->
<g id="node1" class="node">
<title>TsChartComponent</title>
<polygon fill="#ffffb3" stroke="#000000" points="665.4327,-122 538.5673,-122 538.5673,-86 665.4327,-86 665.4327,-122"/>
<text text-anchor="middle" x="602" y="-99.8" font-family="Times,serif" font-size="14.00" fill="#000000">TsChartComponent</text>
</g>
<!-- TsChartModule -->
<g id="node4" class="node">
<title>TsChartModule</title>
<polygon fill="#8dd3c7" stroke="#000000" points="417.15,-187 414.15,-191 393.15,-191 390.15,-187 312.85,-187 312.85,-151 417.15,-151 417.15,-187"/>
<text text-anchor="middle" x="365" y="-164.8" font-family="Times,serif" font-size="14.00" fill="#000000">TsChartModule</text>
</g>
<!-- TsChartComponent&#45;&gt;TsChartModule -->
<g id="edge1" class="edge">
<title>TsChartComponent&#45;&gt;TsChartModule</title>
<path fill="none" stroke="#000000" d="M562.375,-122.0225C562.375,-139.3734 562.375,-163 562.375,-163 562.375,-163 427.3747,-163 427.3747,-163"/>
<polygon fill="#000000" stroke="#000000" points="427.3747,-159.5001 417.3747,-163 427.3747,-166.5001 427.3747,-159.5001"/>
</g>
<!-- TsChartPointDirective -->
<g id="node2" class="node">
<title>TsChartPointDirective</title>
<polygon fill="#ffffb3" stroke="#000000" points="520.2464,-122 377.7536,-122 377.7536,-86 520.2464,-86 520.2464,-122"/>
<text text-anchor="middle" x="449" y="-99.8" font-family="Times,serif" font-size="14.00" fill="#000000">TsChartPointDirective</text>
</g>
<!-- TsChartPointDirective&#45;&gt;TsChartModule -->
<g id="edge2" class="edge">
<title>TsChartPointDirective&#45;&gt;TsChartModule</title>
<path fill="none" stroke="#000000" d="M397.4758,-122.1061C397.4758,-122.1061 397.4758,-140.991 397.4758,-140.991"/>
<polygon fill="#000000" stroke="#000000" points="393.9759,-140.9909 397.4758,-150.991 400.9759,-140.991 393.9759,-140.9909"/>
</g>
<!-- TsChartSeriesDirective -->
<g id="node3" class="node">
<title>TsChartSeriesDirective</title>
<polygon fill="#ffffb3" stroke="#000000" points="359.8905,-122 212.1095,-122 212.1095,-86 359.8905,-86 359.8905,-122"/>
<text text-anchor="middle" x="286" y="-99.8" font-family="Times,serif" font-size="14.00" fill="#000000">TsChartSeriesDirective</text>
</g>
<!-- TsChartSeriesDirective&#45;&gt;TsChartModule -->
<g id="edge3" class="edge">
<title>TsChartSeriesDirective&#45;&gt;TsChartModule</title>
<path fill="none" stroke="#000000" d="M336.1852,-122.1061C336.1852,-122.1061 336.1852,-140.991 336.1852,-140.991"/>
<polygon fill="#000000" stroke="#000000" points="332.6852,-140.9909 336.1852,-150.991 339.6852,-140.991 332.6852,-140.9909"/>
</g>
<!-- TsChartComponent  -->
<g id="node5" class="node">
<title>TsChartComponent </title>
<polygon fill="#fb8072" stroke="#000000" points="585.932,-252 456.068,-252 456.068,-216 585.932,-216 585.932,-252"/>
<text text-anchor="middle" x="521" y="-229.8" font-family="Times,serif" font-size="14.00" fill="#000000">TsChartComponent </text>
</g>
<!-- TsChartModule&#45;&gt;TsChartComponent  -->
<g id="edge4" class="edge">
<title>TsChartModule&#45;&gt;TsChartComponent </title>
<path fill="none" stroke="#000000" stroke-dasharray="5,2" d="M417.2494,-175C450.8285,-175 488.2036,-175 488.2036,-175 488.2036,-175 488.2036,-205.9775 488.2036,-205.9775"/>
<polygon fill="#000000" stroke="#000000" points="484.7036,-205.9774 488.2036,-215.9775 491.7036,-205.9775 484.7036,-205.9774"/>
</g>
<!-- TsChartPointDirective  -->
<g id="node6" class="node">
<title>TsChartPointDirective </title>
<polygon fill="#fb8072" stroke="#000000" points="438.2464,-252 291.7536,-252 291.7536,-216 438.2464,-216 438.2464,-252"/>
<text text-anchor="middle" x="365" y="-229.8" font-family="Times,serif" font-size="14.00" fill="#000000">TsChartPointDirective </text>
</g>
<!-- TsChartModule&#45;&gt;TsChartPointDirective  -->
<g id="edge5" class="edge">
<title>TsChartModule&#45;&gt;TsChartPointDirective </title>
<path fill="none" stroke="#000000" stroke-dasharray="5,2" d="M365,-187.1061C365,-187.1061 365,-205.991 365,-205.991"/>
<polygon fill="#000000" stroke="#000000" points="361.5001,-205.9909 365,-215.991 368.5001,-205.991 361.5001,-205.9909"/>
</g>
<!-- TsChartSeriesDirective  -->
<g id="node7" class="node">
<title>TsChartSeriesDirective </title>
<polygon fill="#fb8072" stroke="#000000" points="273.39,-252 122.61,-252 122.61,-216 273.39,-216 273.39,-252"/>
<text text-anchor="middle" x="198" y="-229.8" font-family="Times,serif" font-size="14.00" fill="#000000">TsChartSeriesDirective </text>
</g>
<!-- TsChartModule&#45;&gt;TsChartSeriesDirective  -->
<g id="edge6" class="edge">
<title>TsChartModule&#45;&gt;TsChartSeriesDirective </title>
<path fill="none" stroke="#000000" stroke-dasharray="5,2" d="M312.4993,-175C279.3992,-175 242.875,-175 242.875,-175 242.875,-175 242.875,-205.9775 242.875,-205.9775"/>
<polygon fill="#000000" stroke="#000000" points="239.3751,-205.9774 242.875,-215.9775 246.3751,-205.9775 239.3751,-205.9774"/>
</g>
<!-- HighchartsService -->
<g id="node8" class="node">
<title>HighchartsService</title>
<ellipse fill="#fdb462" stroke="#000000" cx="106" cy="-104" rx="82.2198" ry="18"/>
<text text-anchor="middle" x="106" y="-99.8" font-family="Times,serif" font-size="14.00" fill="#000000">HighchartsService</text>
</g>
<!-- HighchartsService&#45;&gt;TsChartModule -->
<g id="edge7" class="edge">
<title>HighchartsService&#45;&gt;TsChartModule</title>
<path fill="none" stroke="#000000" d="M155.4574,-118.5843C155.4574,-136.0559 155.4574,-163 155.4574,-163 155.4574,-163 302.6641,-163 302.6641,-163"/>
<polygon fill="#000000" stroke="#000000" points="302.6641,-166.5001 312.6641,-163 302.664,-159.5001 302.6641,-166.5001"/>
</g>
</g>
</svg>
