<?xml version="1.0" encoding="UTF-8" standalone="no"?>
<!DOCTYPE svg PUBLIC "-//W3C//DTD SVG 1.1//EN"
 "http://www.w3.org/Graphics/SVG/1.1/DTD/svg11.dtd">
<!-- Generated by graphviz version 2.40.1 (20161225.0304)
 -->
<!-- Title: dependencies Pages: 1 -->
<svg width="504pt" height="284pt"
 viewBox="0.00 0.00 504.00 284.00" xmlns="http://www.w3.org/2000/svg" xmlns:xlink="http://www.w3.org/1999/xlink">
<g id="graph0" class="graph" transform="scale(1 1) rotate(0) translate(4 280)">
<title>dependencies</title>
<polygon fill="#ffffff" stroke="transparent" points="-4,4 -4,-280 500,-280 500,4 -4,4"/>
<text text-anchor="start" x="227.0091" y="-42.4" font-family="sans-serif" font-weight="bold" font-size="14.00" fill="#000000">Legend</text>
<polygon fill="#ffffb3" stroke="transparent" points="14,-10 14,-30 34,-30 34,-10 14,-10"/>
<text text-anchor="start" x="37.629" y="-15.4" font-family="sans-serif" font-size="14.00" fill="#000000"> &#160;Declarations</text>
<polygon fill="#8dd3c7" stroke="transparent" points="127,-10 127,-30 147,-30 147,-10 127,-10"/>
<text text-anchor="start" x="150.7251" y="-15.4" font-family="sans-serif" font-size="14.00" fill="#000000"> &#160;Module</text>
<polygon fill="#80b1d3" stroke="transparent" points="213,-10 213,-30 233,-30 233,-10 213,-10"/>
<text text-anchor="start" x="236.7812" y="-15.4" font-family="sans-serif" font-size="14.00" fill="#000000"> &#160;Bootstrap</text>
<polygon fill="#fdb462" stroke="transparent" points="310,-10 310,-30 330,-30 330,-10 310,-10"/>
<text text-anchor="start" x="333.6732" y="-15.4" font-family="sans-serif" font-size="14.00" fill="#000000"> &#160;Providers</text>
<polygon fill="#fb8072" stroke="transparent" points="406,-10 406,-30 426,-30 426,-10 406,-10"/>
<text text-anchor="start" x="429.7258" y="-15.4" font-family="sans-serif" font-size="14.00" fill="#000000"> &#160;Exports</text>
<g id="clust1" class="cluster">
<title>cluster_TsChartModule</title>
<polygon fill="none" stroke="#000000" stroke-dasharray="1,5" points="68,-70 68,-268 428,-268 428,-70 68,-70"/>
</g>
<g id="clust2" class="cluster">
<title>cluster_TsChartModule_declarations</title>
<polygon fill="none" stroke="#000000" points="278,-78 278,-130 420,-130 420,-78 278,-78"/>
</g>
<g id="clust5" class="cluster">
<title>cluster_TsChartModule_exports</title>
<polygon fill="none" stroke="#000000" points="187,-208 187,-260 333,-260 333,-208 187,-208"/>
</g>
<g id="clust7" class="cluster">
<title>cluster_TsChartModule_providers</title>
<polygon fill="none" stroke="#000000" points="76,-78 76,-130 270,-130 270,-78 76,-78"/>
</g>
<!-- TsChartComponent -->
<g id="node1" class="node">
<title>TsChartComponent</title>
<polygon fill="#ffffb3" stroke="#000000" points="412.4327,-122 285.5673,-122 285.5673,-86 412.4327,-86 412.4327,-122"/>
<text text-anchor="middle" x="349" y="-99.8" font-family="Times,serif" font-size="14.00" fill="#000000">TsChartComponent</text>
</g>
<!-- TsChartModule -->
<g id="node2" class="node">
<title>TsChartModule</title>
<polygon fill="#8dd3c7" stroke="#000000" points="312.15,-187 309.15,-191 288.15,-191 285.15,-187 207.85,-187 207.85,-151 312.15,-151 312.15,-187"/>
<text text-anchor="middle" x="260" y="-164.8" font-family="Times,serif" font-size="14.00" fill="#000000">TsChartModule</text>
</g>
<!-- TsChartComponent&#45;&gt;TsChartModule -->
<g id="edge1" class="edge">
<title>TsChartComponent&#45;&gt;TsChartModule</title>
<path fill="none" stroke="#000000" d="M299.0544,-122.1061C299.0544,-122.1061 299.0544,-140.991 299.0544,-140.991"/>
<polygon fill="#000000" stroke="#000000" points="295.5544,-140.9909 299.0544,-150.991 302.5544,-140.991 295.5544,-140.9909"/>
</g>
<!-- TsChartComponent  -->
<g id="node3" class="node">
<title>TsChartComponent </title>
<polygon fill="#fb8072" stroke="#000000" points="324.932,-252 195.068,-252 195.068,-216 324.932,-216 324.932,-252"/>
<text text-anchor="middle" x="260" y="-229.8" font-family="Times,serif" font-size="14.00" fill="#000000">TsChartComponent </text>
</g>
<!-- TsChartModule&#45;&gt;TsChartComponent  -->
<g id="edge2" class="edge">
<title>TsChartModule&#45;&gt;TsChartComponent </title>
<path fill="none" stroke="#000000" stroke-dasharray="5,2" d="M260,-187.1061C260,-187.1061 260,-205.991 260,-205.991"/>
<polygon fill="#000000" stroke="#000000" points="256.5001,-205.9909 260,-215.991 263.5001,-205.991 256.5001,-205.9909"/>
</g>
<!-- TsAmChartsService -->
<g id="node4" class="node">
<title>TsAmChartsService</title>
<ellipse fill="#fdb462" stroke="#000000" cx="173" cy="-104" rx="89.18" ry="18"/>
<text text-anchor="middle" x="173" y="-99.8" font-family="Times,serif" font-size="14.00" fill="#000000">TsAmChartsService</text>
</g>
<!-- TsAmChartsService&#45;&gt;TsChartModule -->
<g id="edge3" class="edge">
<title>TsAmChartsService&#45;&gt;TsChartModule</title>
<path fill="none" stroke="#000000" d="M235.0076,-117.1537C235.0076,-117.1537 235.0076,-140.6938 235.0076,-140.6938"/>
<polygon fill="#000000" stroke="#000000" points="231.5077,-140.6938 235.0076,-150.6938 238.5077,-140.6939 231.5077,-140.6938"/>
</g>
</g>
</svg>
