<?xml version="1.0" encoding="UTF-8" standalone="no"?>
<!DOCTYPE svg PUBLIC "-//W3C//DTD SVG 1.1//EN"
 "http://www.w3.org/Graphics/SVG/1.1/DTD/svg11.dtd">
<!-- Generated by graphviz version 2.40.1 (20161225.0304)
 -->
<!-- Title: dependencies Pages: 1 -->
<svg width="504pt" height="284pt"
 viewBox="0.00 0.00 504.00 284.00" xmlns="http://www.w3.org/2000/svg" xmlns:xlink="http://www.w3.org/1999/xlink">
<g id="graph0" class="graph" transform="scale(1 1) rotate(0) translate(4 280)">
<title>dependencies</title>
<polygon fill="#ffffff" stroke="transparent" points="-4,4 -4,-280 500,-280 500,4 -4,4"/>
<text text-anchor="start" x="227.0091" y="-42.4" font-family="sans-serif" font-weight="bold" font-size="14.00" fill="#000000">Legend</text>
<polygon fill="#ffffb3" stroke="transparent" points="14,-10 14,-30 34,-30 34,-10 14,-10"/>
<text text-anchor="start" x="37.629" y="-15.4" font-family="sans-serif" font-size="14.00" fill="#000000"> &#160;Declarations</text>
<polygon fill="#8dd3c7" stroke="transparent" points="127,-10 127,-30 147,-30 147,-10 127,-10"/>
<text text-anchor="start" x="150.7251" y="-15.4" font-family="sans-serif" font-size="14.00" fill="#000000"> &#160;Module</text>
<polygon fill="#80b1d3" stroke="transparent" points="213,-10 213,-30 233,-30 233,-10 213,-10"/>
<text text-anchor="start" x="236.7812" y="-15.4" font-family="sans-serif" font-size="14.00" fill="#000000"> &#160;Bootstrap</text>
<polygon fill="#fdb462" stroke="transparent" points="310,-10 310,-30 330,-30 330,-10 310,-10"/>
<text text-anchor="start" x="333.6732" y="-15.4" font-family="sans-serif" font-size="14.00" fill="#000000"> &#160;Providers</text>
<polygon fill="#fb8072" stroke="transparent" points="406,-10 406,-30 426,-30 426,-10 406,-10"/>
<text text-anchor="start" x="429.7258" y="-15.4" font-family="sans-serif" font-size="14.00" fill="#000000"> &#160;Exports</text>
<g id="clust1" class="cluster">
<title>cluster_TsMenuModule</title>
<polygon fill="none" stroke="#000000" stroke-dasharray="1,5" points="100,-70 100,-268 396,-268 396,-70 100,-70"/>
</g>
<g id="clust2" class="cluster">
<title>cluster_TsMenuModule_declarations</title>
<polygon fill="none" stroke="#000000" points="244,-78 244,-130 388,-130 388,-78 244,-78"/>
</g>
<g id="clust4" class="cluster">
<title>cluster_TsMenuModule_imports</title>
<polygon fill="none" stroke="#000000" points="108,-78 108,-130 236,-130 236,-78 108,-78"/>
</g>
<g id="clust5" class="cluster">
<title>cluster_TsMenuModule_exports</title>
<polygon fill="none" stroke="#000000" points="174,-208 174,-260 322,-260 322,-208 174,-208"/>
</g>
<!-- TsMenuComponent -->
<g id="node1" class="node">
<title>TsMenuComponent</title>
<polygon fill="#ffffb3" stroke="#000000" points="379.9888,-122 252.0112,-122 252.0112,-86 379.9888,-86 379.9888,-122"/>
<text text-anchor="middle" x="316" y="-99.8" font-family="Times,serif" font-size="14.00" fill="#000000">TsMenuComponent</text>
</g>
<!-- TsMenuModule -->
<g id="node2" class="node">
<title>TsMenuModule</title>
<polygon fill="#8dd3c7" stroke="#000000" points="301.2064,-187 298.2064,-191 277.2064,-191 274.2064,-187 194.7936,-187 194.7936,-151 301.2064,-151 301.2064,-187"/>
<text text-anchor="middle" x="248" y="-164.8" font-family="Times,serif" font-size="14.00" fill="#000000">TsMenuModule</text>
</g>
<!-- TsMenuComponent&#45;&gt;TsMenuModule -->
<g id="edge1" class="edge">
<title>TsMenuComponent&#45;&gt;TsMenuModule</title>
<path fill="none" stroke="#000000" d="M276.5544,-122.1061C276.5544,-122.1061 276.5544,-140.991 276.5544,-140.991"/>
<polygon fill="#000000" stroke="#000000" points="273.0544,-140.9909 276.5544,-150.991 280.0544,-140.991 273.0544,-140.9909"/>
</g>
<!-- TsMenuComponent  -->
<g id="node4" class="node">
<title>TsMenuComponent </title>
<polygon fill="#fb8072" stroke="#000000" points="313.9897,-252 182.0103,-252 182.0103,-216 313.9897,-216 313.9897,-252"/>
<text text-anchor="middle" x="248" y="-229.8" font-family="Times,serif" font-size="14.00" fill="#000000">TsMenuComponent </text>
</g>
<!-- TsMenuModule&#45;&gt;TsMenuComponent  -->
<g id="edge3" class="edge">
<title>TsMenuModule&#45;&gt;TsMenuComponent </title>
<path fill="none" stroke="#000000" stroke-dasharray="5,2" d="M248,-187.1061C248,-187.1061 248,-205.991 248,-205.991"/>
<polygon fill="#000000" stroke="#000000" points="244.5001,-205.9909 248,-215.991 251.5001,-205.991 244.5001,-205.9909"/>
</g>
<!-- TsButtonModule -->
<g id="node3" class="node">
<title>TsButtonModule</title>
<polygon fill="#8dd3c7" stroke="#000000" points="227.6653,-122 224.6653,-126 203.6653,-126 200.6653,-122 116.3347,-122 116.3347,-86 227.6653,-86 227.6653,-122"/>
<text text-anchor="middle" x="172" y="-99.8" font-family="Times,serif" font-size="14.00" fill="#000000">TsButtonModule</text>
</g>
<!-- TsButtonModule&#45;&gt;TsMenuModule -->
<g id="edge2" class="edge">
<title>TsButtonModule&#45;&gt;TsMenuModule</title>
<path fill="none" stroke="#000000" d="M211.3647,-122.1061C211.3647,-122.1061 211.3647,-140.991 211.3647,-140.991"/>
<polygon fill="#000000" stroke="#000000" points="207.8647,-140.9909 211.3647,-150.991 214.8647,-140.991 207.8647,-140.9909"/>
</g>
</g>
</svg>
