<?xml version="1.0" encoding="UTF-8" standalone="no"?>
<!DOCTYPE svg PUBLIC "-//W3C//DTD SVG 1.1//EN"
 "http://www.w3.org/Graphics/SVG/1.1/DTD/svg11.dtd">
<!-- Generated by graphviz version 2.40.1 (20161225.0304)
 -->
<!-- Title: dependencies Pages: 1 -->
<svg width="702pt" height="284pt"
 viewBox="0.00 0.00 702.00 284.00" xmlns="http://www.w3.org/2000/svg" xmlns:xlink="http://www.w3.org/1999/xlink">
<g id="graph0" class="graph" transform="scale(1 1) rotate(0) translate(4 280)">
<title>dependencies</title>
<polygon fill="#ffffff" stroke="transparent" points="-4,4 -4,-280 698,-280 698,4 -4,4"/>
<text text-anchor="start" x="326.0091" y="-42.4" font-family="sans-serif" font-weight="bold" font-size="14.00" fill="#000000">Legend</text>
<polygon fill="#ffffb3" stroke="transparent" points="113,-10 113,-30 133,-30 133,-10 113,-10"/>
<text text-anchor="start" x="136.629" y="-15.4" font-family="sans-serif" font-size="14.00" fill="#000000"> &#160;Declarations</text>
<polygon fill="#8dd3c7" stroke="transparent" points="226,-10 226,-30 246,-30 246,-10 226,-10"/>
<text text-anchor="start" x="249.7251" y="-15.4" font-family="sans-serif" font-size="14.00" fill="#000000"> &#160;Module</text>
<polygon fill="#80b1d3" stroke="transparent" points="312,-10 312,-30 332,-30 332,-10 312,-10"/>
<text text-anchor="start" x="335.7812" y="-15.4" font-family="sans-serif" font-size="14.00" fill="#000000"> &#160;Bootstrap</text>
<polygon fill="#fdb462" stroke="transparent" points="409,-10 409,-30 429,-30 429,-10 409,-10"/>
<text text-anchor="start" x="432.6732" y="-15.4" font-family="sans-serif" font-size="14.00" fill="#000000"> &#160;Providers</text>
<polygon fill="#fb8072" stroke="transparent" points="505,-10 505,-30 525,-30 525,-10 505,-10"/>
<text text-anchor="start" x="528.7258" y="-15.4" font-family="sans-serif" font-size="14.00" fill="#000000"> &#160;Exports</text>
<g id="clust1" class="cluster">
<title>cluster_TsMenuModule</title>
<polygon fill="none" stroke="#000000" stroke-dasharray="1,5" points="8,-70 8,-268 686,-268 686,-70 8,-70"/>
</g>
<g id="clust2" class="cluster">
<title>cluster_TsMenuModule_declarations</title>
<polygon fill="none" stroke="#000000" points="534,-78 534,-130 678,-130 678,-78 534,-78"/>
</g>
<g id="clust4" class="cluster">
<title>cluster_TsMenuModule_imports</title>
<polygon fill="none" stroke="#000000" points="16,-78 16,-130 526,-130 526,-78 16,-78"/>
</g>
<g id="clust5" class="cluster">
<title>cluster_TsMenuModule_exports</title>
<polygon fill="none" stroke="#000000" points="258,-208 258,-260 406,-260 406,-208 258,-208"/>
</g>
<!-- TsMenuComponent -->
<g id="node1" class="node">
<title>TsMenuComponent</title>
<polygon fill="#ffffb3" stroke="#000000" points="669.9888,-122 542.0112,-122 542.0112,-86 669.9888,-86 669.9888,-122"/>
<text text-anchor="middle" x="606" y="-99.8" font-family="Times,serif" font-size="14.00" fill="#000000">TsMenuComponent</text>
</g>
<!-- TsMenuModule -->
<g id="node2" class="node">
<title>TsMenuModule</title>
<polygon fill="#8dd3c7" stroke="#000000" points="385.2064,-187 382.2064,-191 361.2064,-191 358.2064,-187 278.7936,-187 278.7936,-151 385.2064,-151 385.2064,-187"/>
<text text-anchor="middle" x="332" y="-164.8" font-family="Times,serif" font-size="14.00" fill="#000000">TsMenuModule</text>
</g>
<!-- TsMenuComponent&#45;&gt;TsMenuModule -->
<g id="edge1" class="edge">
<title>TsMenuComponent&#45;&gt;TsMenuModule</title>
<path fill="none" stroke="#000000" d="M606,-122.2843C606,-143.3211 606,-175 606,-175 606,-175 395.1548,-175 395.1548,-175"/>
<polygon fill="#000000" stroke="#000000" points="395.1549,-171.5001 385.1548,-175 395.1548,-178.5001 395.1549,-171.5001"/>
</g>
<!-- TsMenuComponent  -->
<g id="node7" class="node">
<title>TsMenuComponent </title>
<polygon fill="#fb8072" stroke="#000000" points="397.9897,-252 266.0103,-252 266.0103,-216 397.9897,-216 397.9897,-252"/>
<text text-anchor="middle" x="332" y="-229.8" font-family="Times,serif" font-size="14.00" fill="#000000">TsMenuComponent </text>
</g>
<!-- TsMenuModule&#45;&gt;TsMenuComponent  -->
<g id="edge6" class="edge">
<title>TsMenuModule&#45;&gt;TsMenuComponent </title>
<path fill="none" stroke="#000000" stroke-dasharray="5,2" d="M332,-187.1061C332,-187.1061 332,-205.991 332,-205.991"/>
<polygon fill="#000000" stroke="#000000" points="328.5001,-205.9909 332,-215.991 335.5001,-205.991 328.5001,-205.9909"/>
</g>
<!-- CommonModule -->
<g id="node3" class="node">
<title>CommonModule</title>
<polygon fill="#8dd3c7" stroke="#000000" points="517.6681,-122 514.6681,-126 493.6681,-126 490.6681,-122 406.3319,-122 406.3319,-86 517.6681,-86 517.6681,-122"/>
<text text-anchor="middle" x="462" y="-99.8" font-family="Times,serif" font-size="14.00" fill="#000000">CommonModule</text>
</g>
<!-- CommonModule&#45;&gt;TsMenuModule -->
<g id="edge2" class="edge">
<title>CommonModule&#45;&gt;TsMenuModule</title>
<path fill="none" stroke="#000000" d="M462,-122.0225C462,-139.3734 462,-163 462,-163 462,-163 395.2511,-163 395.2511,-163"/>
<polygon fill="#000000" stroke="#000000" points="395.2511,-159.5001 385.2511,-163 395.251,-166.5001 395.2511,-159.5001"/>
</g>
<!-- MdMenuModule -->
<g id="node4" class="node">
<title>MdMenuModule</title>
<polygon fill="#8dd3c7" stroke="#000000" points="387.6541,-122 384.6541,-126 363.6541,-126 360.6541,-122 276.3459,-122 276.3459,-86 387.6541,-86 387.6541,-122"/>
<text text-anchor="middle" x="332" y="-99.8" font-family="Times,serif" font-size="14.00" fill="#000000">MdMenuModule</text>
</g>
<!-- MdMenuModule&#45;&gt;TsMenuModule -->
<g id="edge3" class="edge">
<title>MdMenuModule&#45;&gt;TsMenuModule</title>
<path fill="none" stroke="#000000" d="M332,-122.1061C332,-122.1061 332,-140.991 332,-140.991"/>
<polygon fill="#000000" stroke="#000000" points="328.5001,-140.9909 332,-150.991 335.5001,-140.991 328.5001,-140.9909"/>
</g>
<!-- MdIconModule -->
<g id="node5" class="node">
<title>MdIconModule</title>
<polygon fill="#8dd3c7" stroke="#000000" points="257.8697,-122 254.8697,-126 233.8697,-126 230.8697,-122 154.1303,-122 154.1303,-86 257.8697,-86 257.8697,-122"/>
<text text-anchor="middle" x="206" y="-99.8" font-family="Times,serif" font-size="14.00" fill="#000000">MdIconModule</text>
</g>
<!-- MdIconModule&#45;&gt;TsMenuModule -->
<g id="edge4" class="edge">
<title>MdIconModule&#45;&gt;TsMenuModule</title>
<path fill="none" stroke="#000000" d="M206,-122.0225C206,-139.3734 206,-163 206,-163 206,-163 268.5647,-163 268.5647,-163"/>
<polygon fill="#000000" stroke="#000000" points="268.5647,-166.5001 278.5647,-163 268.5646,-159.5001 268.5647,-166.5001"/>
</g>
<!-- TsButtonModule -->
<g id="node6" class="node">
<title>TsButtonModule</title>
<polygon fill="#8dd3c7" stroke="#000000" points="135.6653,-122 132.6653,-126 111.6653,-126 108.6653,-122 24.3347,-122 24.3347,-86 135.6653,-86 135.6653,-122"/>
<text text-anchor="middle" x="80" y="-99.8" font-family="Times,serif" font-size="14.00" fill="#000000">TsButtonModule</text>
</g>
<!-- TsButtonModule&#45;&gt;TsMenuModule -->
<g id="edge5" class="edge">
<title>TsButtonModule&#45;&gt;TsMenuModule</title>
<path fill="none" stroke="#000000" d="M80,-122.2843C80,-143.3211 80,-175 80,-175 80,-175 268.8652,-175 268.8652,-175"/>
<polygon fill="#000000" stroke="#000000" points="268.8652,-178.5001 278.8652,-175 268.8652,-171.5001 268.8652,-178.5001"/>
</g>
</g>
</svg>
