<?xml version="1.0" encoding="UTF-8" standalone="no"?>
<!DOCTYPE svg PUBLIC "-//W3C//DTD SVG 1.1//EN"
 "http://www.w3.org/Graphics/SVG/1.1/DTD/svg11.dtd">
<!-- Generated by graphviz version 2.40.1 (20161225.0304)
 -->
<!-- Title: dependencies Pages: 1 -->
<svg width="504pt" height="284pt"
 viewBox="0.00 0.00 504.00 284.00" xmlns="http://www.w3.org/2000/svg" xmlns:xlink="http://www.w3.org/1999/xlink">
<g id="graph0" class="graph" transform="scale(1 1) rotate(0) translate(4 280)">
<title>dependencies</title>
<polygon fill="#ffffff" stroke="transparent" points="-4,4 -4,-280 500,-280 500,4 -4,4"/>
<text text-anchor="start" x="227.0091" y="-42.4" font-family="sans-serif" font-weight="bold" font-size="14.00" fill="#000000">Legend</text>
<polygon fill="#ffffb3" stroke="transparent" points="14,-10 14,-30 34,-30 34,-10 14,-10"/>
<text text-anchor="start" x="37.629" y="-15.4" font-family="sans-serif" font-size="14.00" fill="#000000"> &#160;Declarations</text>
<polygon fill="#8dd3c7" stroke="transparent" points="127,-10 127,-30 147,-30 147,-10 127,-10"/>
<text text-anchor="start" x="150.7251" y="-15.4" font-family="sans-serif" font-size="14.00" fill="#000000"> &#160;Module</text>
<polygon fill="#80b1d3" stroke="transparent" points="213,-10 213,-30 233,-30 233,-10 213,-10"/>
<text text-anchor="start" x="236.7812" y="-15.4" font-family="sans-serif" font-size="14.00" fill="#000000"> &#160;Bootstrap</text>
<polygon fill="#fdb462" stroke="transparent" points="310,-10 310,-30 330,-30 330,-10 310,-10"/>
<text text-anchor="start" x="333.6732" y="-15.4" font-family="sans-serif" font-size="14.00" fill="#000000"> &#160;Providers</text>
<polygon fill="#fb8072" stroke="transparent" points="406,-10 406,-30 426,-30 426,-10 406,-10"/>
<text text-anchor="start" x="429.7258" y="-15.4" font-family="sans-serif" font-size="14.00" fill="#000000"> &#160;Exports</text>
<g id="clust1" class="cluster">
<title>cluster_TsMenuModule</title>
<polygon fill="none" stroke="#000000" stroke-dasharray="1,5" points="42,-70 42,-268 454,-268 454,-70 42,-70"/>
</g>
<g id="clust2" class="cluster">
<title>cluster_TsMenuModule_declarations</title>
<polygon fill="none" stroke="#000000" points="302,-78 302,-130 446,-130 446,-78 302,-78"/>
</g>
<g id="clust4" class="cluster">
<title>cluster_TsMenuModule_imports</title>
<polygon fill="none" stroke="#000000" points="50,-78 50,-130 294,-130 294,-78 50,-78"/>
</g>
<g id="clust5" class="cluster">
<title>cluster_TsMenuModule_exports</title>
<polygon fill="none" stroke="#000000" points="156,-208 156,-260 304,-260 304,-208 156,-208"/>
</g>
<!-- TsMenuComponent -->
<g id="node1" class="node">
<title>TsMenuComponent</title>
<polygon fill="#ffffb3" stroke="#000000" points="437.9888,-122 310.0112,-122 310.0112,-86 437.9888,-86 437.9888,-122"/>
<text text-anchor="middle" x="374" y="-99.8" font-family="Times,serif" font-size="14.00" fill="#000000">TsMenuComponent</text>
</g>
<!-- TsMenuModule -->
<g id="node2" class="node">
<title>TsMenuModule</title>
<polygon fill="#8dd3c7" stroke="#000000" points="283.2064,-187 280.2064,-191 259.2064,-191 256.2064,-187 176.7936,-187 176.7936,-151 283.2064,-151 283.2064,-187"/>
<text text-anchor="middle" x="230" y="-164.8" font-family="Times,serif" font-size="14.00" fill="#000000">TsMenuModule</text>
</g>
<!-- TsMenuComponent&#45;&gt;TsMenuModule -->
<g id="edge1" class="edge">
<title>TsMenuComponent&#45;&gt;TsMenuModule</title>
<path fill="none" stroke="#000000" d="M374,-122.1061C374,-141.3391 374,-169 374,-169 374,-169 293.2112,-169 293.2112,-169"/>
<polygon fill="#000000" stroke="#000000" points="293.2112,-165.5001 283.2112,-169 293.2111,-172.5001 293.2112,-165.5001"/>
</g>
<!-- TsMenuComponent  -->
<g id="node5" class="node">
<title>TsMenuComponent </title>
<polygon fill="#fb8072" stroke="#000000" points="295.9897,-252 164.0103,-252 164.0103,-216 295.9897,-216 295.9897,-252"/>
<text text-anchor="middle" x="230" y="-229.8" font-family="Times,serif" font-size="14.00" fill="#000000">TsMenuComponent </text>
</g>
<!-- TsMenuModule&#45;&gt;TsMenuComponent  -->
<g id="edge4" class="edge">
<title>TsMenuModule&#45;&gt;TsMenuComponent </title>
<path fill="none" stroke="#000000" stroke-dasharray="5,2" d="M230,-187.1061C230,-187.1061 230,-205.991 230,-205.991"/>
<polygon fill="#000000" stroke="#000000" points="226.5001,-205.9909 230,-215.991 233.5001,-205.991 226.5001,-205.9909"/>
</g>
<!-- TsButtonModule -->
<g id="node3" class="node">
<title>TsButtonModule</title>
<polygon fill="#8dd3c7" stroke="#000000" points="285.6653,-122 282.6653,-126 261.6653,-126 258.6653,-122 174.3347,-122 174.3347,-86 285.6653,-86 285.6653,-122"/>
<text text-anchor="middle" x="230" y="-99.8" font-family="Times,serif" font-size="14.00" fill="#000000">TsButtonModule</text>
</g>
<!-- TsButtonModule&#45;&gt;TsMenuModule -->
<g id="edge2" class="edge">
<title>TsButtonModule&#45;&gt;TsMenuModule</title>
<path fill="none" stroke="#000000" d="M230,-122.1061C230,-122.1061 230,-140.991 230,-140.991"/>
<polygon fill="#000000" stroke="#000000" points="226.5001,-140.9909 230,-150.991 233.5001,-140.991 226.5001,-140.9909"/>
</g>
<!-- TsIconModule -->
<g id="node4" class="node">
<title>TsIconModule</title>
<polygon fill="#8dd3c7" stroke="#000000" points="156.4231,-122 153.4231,-126 132.4231,-126 129.4231,-122 57.5769,-122 57.5769,-86 156.4231,-86 156.4231,-122"/>
<text text-anchor="middle" x="107" y="-99.8" font-family="Times,serif" font-size="14.00" fill="#000000">TsIconModule</text>
</g>
<!-- TsIconModule&#45;&gt;TsMenuModule -->
<g id="edge3" class="edge">
<title>TsIconModule&#45;&gt;TsMenuModule</title>
<path fill="none" stroke="#000000" d="M107,-122.1061C107,-141.3391 107,-169 107,-169 107,-169 166.7658,-169 166.7658,-169"/>
<polygon fill="#000000" stroke="#000000" points="166.7658,-172.5001 176.7658,-169 166.7658,-165.5001 166.7658,-172.5001"/>
</g>
</g>
</svg>
