<?xml version="1.0" encoding="UTF-8" standalone="no"?>
<!DOCTYPE svg PUBLIC "-//W3C//DTD SVG 1.1//EN"
 "http://www.w3.org/Graphics/SVG/1.1/DTD/svg11.dtd">
<!-- Generated by graphviz version 2.40.1 (20161225.0304)
 -->
<!-- Title: dependencies Pages: 1 -->
<svg width="504pt" height="284pt"
 viewBox="0.00 0.00 504.00 284.00" xmlns="http://www.w3.org/2000/svg" xmlns:xlink="http://www.w3.org/1999/xlink">
<g id="graph0" class="graph" transform="scale(1 1) rotate(0) translate(4 280)">
<title>dependencies</title>
<polygon fill="#ffffff" stroke="transparent" points="-4,4 -4,-280 500,-280 500,4 -4,4"/>
<text text-anchor="start" x="227.0091" y="-42.4" font-family="sans-serif" font-weight="bold" font-size="14.00" fill="#000000">Legend</text>
<polygon fill="#ffffb3" stroke="transparent" points="14,-10 14,-30 34,-30 34,-10 14,-10"/>
<text text-anchor="start" x="37.629" y="-15.4" font-family="sans-serif" font-size="14.00" fill="#000000"> &#160;Declarations</text>
<polygon fill="#8dd3c7" stroke="transparent" points="127,-10 127,-30 147,-30 147,-10 127,-10"/>
<text text-anchor="start" x="150.7251" y="-15.4" font-family="sans-serif" font-size="14.00" fill="#000000"> &#160;Module</text>
<polygon fill="#80b1d3" stroke="transparent" points="213,-10 213,-30 233,-30 233,-10 213,-10"/>
<text text-anchor="start" x="236.7812" y="-15.4" font-family="sans-serif" font-size="14.00" fill="#000000"> &#160;Bootstrap</text>
<polygon fill="#fdb462" stroke="transparent" points="310,-10 310,-30 330,-30 330,-10 310,-10"/>
<text text-anchor="start" x="333.6732" y="-15.4" font-family="sans-serif" font-size="14.00" fill="#000000"> &#160;Providers</text>
<polygon fill="#fb8072" stroke="transparent" points="406,-10 406,-30 426,-30 426,-10 406,-10"/>
<text text-anchor="start" x="429.7258" y="-15.4" font-family="sans-serif" font-size="14.00" fill="#000000"> &#160;Exports</text>
<g id="clust1" class="cluster">
<title>cluster_TsIconButtonModule</title>
<polygon fill="none" stroke="#000000" stroke-dasharray="1,5" points="92,-70 92,-268 404,-268 404,-70 92,-70"/>
</g>
<g id="clust2" class="cluster">
<title>cluster_TsIconButtonModule_declarations</title>
<polygon fill="none" stroke="#000000" points="222,-78 222,-130 396,-130 396,-78 222,-78"/>
</g>
<g id="clust4" class="cluster">
<title>cluster_TsIconButtonModule_imports</title>
<polygon fill="none" stroke="#000000" points="100,-78 100,-130 214,-130 214,-78 100,-78"/>
</g>
<g id="clust5" class="cluster">
<title>cluster_TsIconButtonModule_exports</title>
<polygon fill="none" stroke="#000000" points="159,-208 159,-260 337,-260 337,-208 159,-208"/>
</g>
<!-- TsIconButtonComponent -->
<g id="node1" class="node">
<title>TsIconButtonComponent</title>
<polygon fill="#ffffb3" stroke="#000000" points="388.3229,-122 229.6771,-122 229.6771,-86 388.3229,-86 388.3229,-122"/>
<text text-anchor="middle" x="309" y="-99.8" font-family="Times,serif" font-size="14.00" fill="#000000">TsIconButtonComponent</text>
</g>
<!-- TsIconButtonModule -->
<g id="node2" class="node">
<title>TsIconButtonModule</title>
<polygon fill="#8dd3c7" stroke="#000000" points="316.0408,-187 313.0408,-191 292.0408,-191 289.0408,-187 179.9592,-187 179.9592,-151 316.0408,-151 316.0408,-187"/>
<text text-anchor="middle" x="248" y="-164.8" font-family="Times,serif" font-size="14.00" fill="#000000">TsIconButtonModule</text>
</g>
<!-- TsIconButtonComponent&#45;&gt;TsIconButtonModule -->
<g id="edge1" class="edge">
<title>TsIconButtonComponent&#45;&gt;TsIconButtonModule</title>
<path fill="none" stroke="#000000" d="M273.0544,-122.1061C273.0544,-122.1061 273.0544,-140.991 273.0544,-140.991"/>
<polygon fill="#000000" stroke="#000000" points="269.5544,-140.9909 273.0544,-150.991 276.5544,-140.991 269.5544,-140.9909"/>
</g>
<!-- TsIconButtonComponent  -->
<g id="node4" class="node">
<title>TsIconButtonComponent </title>
<polygon fill="#fb8072" stroke="#000000" points="328.8227,-252 167.1773,-252 167.1773,-216 328.8227,-216 328.8227,-252"/>
<text text-anchor="middle" x="248" y="-229.8" font-family="Times,serif" font-size="14.00" fill="#000000">TsIconButtonComponent </text>
</g>
<!-- TsIconButtonModule&#45;&gt;TsIconButtonComponent  -->
<g id="edge3" class="edge">
<title>TsIconButtonModule&#45;&gt;TsIconButtonComponent </title>
<path fill="none" stroke="#000000" stroke-dasharray="5,2" d="M248,-187.1061C248,-187.1061 248,-205.991 248,-205.991"/>
<polygon fill="#000000" stroke="#000000" points="244.5001,-205.9909 248,-215.991 251.5001,-205.991 244.5001,-205.9909"/>
</g>
<!-- TsIconModule -->
<g id="node3" class="node">
<title>TsIconModule</title>
<polygon fill="#8dd3c7" stroke="#000000" points="206.4231,-122 203.4231,-126 182.4231,-126 179.4231,-122 107.5769,-122 107.5769,-86 206.4231,-86 206.4231,-122"/>
<text text-anchor="middle" x="157" y="-99.8" font-family="Times,serif" font-size="14.00" fill="#000000">TsIconModule</text>
</g>
<!-- TsIconModule&#45;&gt;TsIconButtonModule -->
<g id="edge2" class="edge">
<title>TsIconModule&#45;&gt;TsIconButtonModule</title>
<path fill="none" stroke="#000000" d="M192.9706,-122.1061C192.9706,-122.1061 192.9706,-140.991 192.9706,-140.991"/>
<polygon fill="#000000" stroke="#000000" points="189.4706,-140.9909 192.9706,-150.991 196.4706,-140.991 189.4706,-140.9909"/>
</g>
</g>
</svg>
