<?xml version="1.0" encoding="UTF-8" standalone="no"?>
<!DOCTYPE svg PUBLIC "-//W3C//DTD SVG 1.1//EN"
 "http://www.w3.org/Graphics/SVG/1.1/DTD/svg11.dtd">
<!-- Generated by graphviz version 2.40.1 (20161225.0304)
 -->
<!-- Title: dependencies Pages: 1 -->
<svg width="504pt" height="284pt"
 viewBox="0.00 0.00 504.00 284.00" xmlns="http://www.w3.org/2000/svg" xmlns:xlink="http://www.w3.org/1999/xlink">
<g id="graph0" class="graph" transform="scale(1 1) rotate(0) translate(4 280)">
<title>dependencies</title>
<polygon fill="#ffffff" stroke="transparent" points="-4,4 -4,-280 500,-280 500,4 -4,4"/>
<text text-anchor="start" x="227.0091" y="-42.4" font-family="sans-serif" font-weight="bold" font-size="14.00" fill="#000000">Legend</text>
<polygon fill="#ffffb3" stroke="transparent" points="14,-10 14,-30 34,-30 34,-10 14,-10"/>
<text text-anchor="start" x="37.629" y="-15.4" font-family="sans-serif" font-size="14.00" fill="#000000"> &#160;Declarations</text>
<polygon fill="#8dd3c7" stroke="transparent" points="127,-10 127,-30 147,-30 147,-10 127,-10"/>
<text text-anchor="start" x="150.7251" y="-15.4" font-family="sans-serif" font-size="14.00" fill="#000000"> &#160;Module</text>
<polygon fill="#80b1d3" stroke="transparent" points="213,-10 213,-30 233,-30 233,-10 213,-10"/>
<text text-anchor="start" x="236.7812" y="-15.4" font-family="sans-serif" font-size="14.00" fill="#000000"> &#160;Bootstrap</text>
<polygon fill="#fdb462" stroke="transparent" points="310,-10 310,-30 330,-30 330,-10 310,-10"/>
<text text-anchor="start" x="333.6732" y="-15.4" font-family="sans-serif" font-size="14.00" fill="#000000"> &#160;Providers</text>
<polygon fill="#fb8072" stroke="transparent" points="406,-10 406,-30 426,-30 426,-10 406,-10"/>
<text text-anchor="start" x="429.7258" y="-15.4" font-family="sans-serif" font-size="14.00" fill="#000000"> &#160;Exports</text>
<g id="clust1" class="cluster">
<title>cluster_TsLinkModule</title>
<polygon fill="none" stroke="#000000" stroke-dasharray="1,5" points="110,-70 110,-268 386,-268 386,-70 110,-70"/>
</g>
<g id="clust2" class="cluster">
<title>cluster_TsLinkModule_declarations</title>
<polygon fill="none" stroke="#000000" points="240,-78 240,-130 378,-130 378,-78 240,-78"/>
</g>
<g id="clust4" class="cluster">
<title>cluster_TsLinkModule_imports</title>
<polygon fill="none" stroke="#000000" points="118,-78 118,-130 232,-130 232,-78 118,-78"/>
</g>
<g id="clust5" class="cluster">
<title>cluster_TsLinkModule_exports</title>
<polygon fill="none" stroke="#000000" points="177,-208 177,-260 319,-260 319,-208 177,-208"/>
</g>
<!-- TsLinkComponent -->
<g id="node1" class="node">
<title>TsLinkComponent</title>
<polygon fill="#ffffb3" stroke="#000000" points="369.773,-122 248.227,-122 248.227,-86 369.773,-86 369.773,-122"/>
<text text-anchor="middle" x="309" y="-99.8" font-family="Times,serif" font-size="14.00" fill="#000000">TsLinkComponent</text>
</g>
<!-- TsLinkModule -->
<g id="node2" class="node">
<title>TsLinkModule</title>
<polygon fill="#8dd3c7" stroke="#000000" points="297.9902,-187 294.9902,-191 273.9902,-191 270.9902,-187 198.0098,-187 198.0098,-151 297.9902,-151 297.9902,-187"/>
<text text-anchor="middle" x="248" y="-164.8" font-family="Times,serif" font-size="14.00" fill="#000000">TsLinkModule</text>
</g>
<!-- TsLinkComponent&#45;&gt;TsLinkModule -->
<g id="edge1" class="edge">
<title>TsLinkComponent&#45;&gt;TsLinkModule</title>
<path fill="none" stroke="#000000" d="M273.0544,-122.1061C273.0544,-122.1061 273.0544,-140.991 273.0544,-140.991"/>
<polygon fill="#000000" stroke="#000000" points="269.5544,-140.9909 273.0544,-150.991 276.5544,-140.991 269.5544,-140.9909"/>
</g>
<!-- TsLinkComponent  -->
<g id="node4" class="node">
<title>TsLinkComponent </title>
<polygon fill="#fb8072" stroke="#000000" points="310.7731,-252 185.2269,-252 185.2269,-216 310.7731,-216 310.7731,-252"/>
<text text-anchor="middle" x="248" y="-229.8" font-family="Times,serif" font-size="14.00" fill="#000000">TsLinkComponent </text>
</g>
<!-- TsLinkModule&#45;&gt;TsLinkComponent  -->
<g id="edge3" class="edge">
<title>TsLinkModule&#45;&gt;TsLinkComponent </title>
<path fill="none" stroke="#000000" stroke-dasharray="5,2" d="M248,-187.1061C248,-187.1061 248,-205.991 248,-205.991"/>
<polygon fill="#000000" stroke="#000000" points="244.5001,-205.9909 248,-215.991 251.5001,-205.991 244.5001,-205.9909"/>
</g>
<!-- TsIconModule -->
<g id="node3" class="node">
<title>TsIconModule</title>
<polygon fill="#8dd3c7" stroke="#000000" points="224.4231,-122 221.4231,-126 200.4231,-126 197.4231,-122 125.5769,-122 125.5769,-86 224.4231,-86 224.4231,-122"/>
<text text-anchor="middle" x="175" y="-99.8" font-family="Times,serif" font-size="14.00" fill="#000000">TsIconModule</text>
</g>
<!-- TsIconModule&#45;&gt;TsLinkModule -->
<g id="edge2" class="edge">
<title>TsIconModule&#45;&gt;TsLinkModule</title>
<path fill="none" stroke="#000000" d="M211.108,-122.1061C211.108,-122.1061 211.108,-140.991 211.108,-140.991"/>
<polygon fill="#000000" stroke="#000000" points="207.6081,-140.9909 211.108,-150.991 214.6081,-140.991 207.6081,-140.9909"/>
</g>
</g>
</svg>
