<?xml version="1.0" encoding="UTF-8" standalone="no"?>
<!DOCTYPE svg PUBLIC "-//W3C//DTD SVG 1.1//EN"
 "http://www.w3.org/Graphics/SVG/1.1/DTD/svg11.dtd">
<!-- Generated by graphviz version 2.40.1 (20161225.0304)
 -->
<!-- Title: dependencies Pages: 1 -->
<svg width="679pt" height="284pt"
 viewBox="0.00 0.00 679.00 284.00" xmlns="http://www.w3.org/2000/svg" xmlns:xlink="http://www.w3.org/1999/xlink">
<g id="graph0" class="graph" transform="scale(1 1) rotate(0) translate(4 280)">
<title>dependencies</title>
<polygon fill="#ffffff" stroke="transparent" points="-4,4 -4,-280 675,-280 675,4 -4,4"/>
<text text-anchor="start" x="314.5091" y="-42.4" font-family="sans-serif" font-weight="bold" font-size="14.00" fill="#000000">Legend</text>
<polygon fill="#ffffb3" stroke="transparent" points="101.5,-10 101.5,-30 121.5,-30 121.5,-10 101.5,-10"/>
<text text-anchor="start" x="125.129" y="-15.4" font-family="sans-serif" font-size="14.00" fill="#000000"> &#160;Declarations</text>
<polygon fill="#8dd3c7" stroke="transparent" points="214.5,-10 214.5,-30 234.5,-30 234.5,-10 214.5,-10"/>
<text text-anchor="start" x="238.2251" y="-15.4" font-family="sans-serif" font-size="14.00" fill="#000000"> &#160;Module</text>
<polygon fill="#80b1d3" stroke="transparent" points="300.5,-10 300.5,-30 320.5,-30 320.5,-10 300.5,-10"/>
<text text-anchor="start" x="324.2812" y="-15.4" font-family="sans-serif" font-size="14.00" fill="#000000"> &#160;Bootstrap</text>
<polygon fill="#fdb462" stroke="transparent" points="397.5,-10 397.5,-30 417.5,-30 417.5,-10 397.5,-10"/>
<text text-anchor="start" x="421.1732" y="-15.4" font-family="sans-serif" font-size="14.00" fill="#000000"> &#160;Providers</text>
<polygon fill="#fb8072" stroke="transparent" points="493.5,-10 493.5,-30 513.5,-30 513.5,-10 493.5,-10"/>
<text text-anchor="start" x="517.2258" y="-15.4" font-family="sans-serif" font-size="14.00" fill="#000000"> &#160;Exports</text>
<g id="clust1" class="cluster">
<title>cluster_TsAutocompleteModule</title>
<polygon fill="none" stroke="#000000" stroke-dasharray="1,5" points="8,-70 8,-268 663,-268 663,-70 8,-70"/>
</g>
<g id="clust2" class="cluster">
<title>cluster_TsAutocompleteModule_declarations</title>
<polygon fill="none" stroke="#000000" points="465,-78 465,-130 655,-130 655,-78 465,-78"/>
</g>
<g id="clust4" class="cluster">
<title>cluster_TsAutocompleteModule_imports</title>
<polygon fill="none" stroke="#000000" points="16,-78 16,-130 457,-130 457,-78 16,-78"/>
</g>
<g id="clust5" class="cluster">
<title>cluster_TsAutocompleteModule_exports</title>
<polygon fill="none" stroke="#000000" points="222,-208 222,-260 416,-260 416,-208 222,-208"/>
</g>
<!-- TsAutocompleteComponent -->
<g id="node1" class="node">
<title>TsAutocompleteComponent</title>
<polygon fill="#ffffb3" stroke="#000000" points="647.1428,-122 472.8572,-122 472.8572,-86 647.1428,-86 647.1428,-122"/>
<text text-anchor="middle" x="560" y="-99.8" font-family="Times,serif" font-size="14.00" fill="#000000">TsAutocompleteComponent</text>
</g>
<!-- TsAutocompleteModule -->
<g id="node2" class="node">
<title>TsAutocompleteModule</title>
<polygon fill="#8dd3c7" stroke="#000000" points="395.3599,-187 392.3599,-191 371.3599,-191 368.3599,-187 242.6401,-187 242.6401,-151 395.3599,-151 395.3599,-187"/>
<text text-anchor="middle" x="319" y="-164.8" font-family="Times,serif" font-size="14.00" fill="#000000">TsAutocompleteModule</text>
</g>
<!-- TsAutocompleteComponent&#45;&gt;TsAutocompleteModule -->
<g id="edge1" class="edge">
<title>TsAutocompleteComponent&#45;&gt;TsAutocompleteModule</title>
<path fill="none" stroke="#000000" d="M560,-122.1061C560,-141.3391 560,-169 560,-169 560,-169 405.585,-169 405.585,-169"/>
<polygon fill="#000000" stroke="#000000" points="405.5851,-165.5001 395.585,-169 405.585,-172.5001 405.5851,-165.5001"/>
</g>
<!-- TsAutocompleteComponent  -->
<g id="node6" class="node">
<title>TsAutocompleteComponent </title>
<polygon fill="#fb8072" stroke="#000000" points="408.1425,-252 229.8575,-252 229.8575,-216 408.1425,-216 408.1425,-252"/>
<text text-anchor="middle" x="319" y="-229.8" font-family="Times,serif" font-size="14.00" fill="#000000">TsAutocompleteComponent </text>
</g>
<!-- TsAutocompleteModule&#45;&gt;TsAutocompleteComponent  -->
<g id="edge5" class="edge">
<title>TsAutocompleteModule&#45;&gt;TsAutocompleteComponent </title>
<path fill="none" stroke="#000000" stroke-dasharray="5,2" d="M319,-187.1061C319,-187.1061 319,-205.991 319,-205.991"/>
<polygon fill="#000000" stroke="#000000" points="315.5001,-205.9909 319,-215.991 322.5001,-205.991 315.5001,-205.9909"/>
</g>
<!-- TsIconModule -->
<g id="node3" class="node">
<title>TsIconModule</title>
<polygon fill="#8dd3c7" stroke="#000000" points="449.4231,-122 446.4231,-126 425.4231,-126 422.4231,-122 350.5769,-122 350.5769,-86 449.4231,-86 449.4231,-122"/>
<text text-anchor="middle" x="400" y="-99.8" font-family="Times,serif" font-size="14.00" fill="#000000">TsIconModule</text>
</g>
<!-- TsIconModule&#45;&gt;TsAutocompleteModule -->
<g id="edge2" class="edge">
<title>TsIconModule&#45;&gt;TsAutocompleteModule</title>
<path fill="none" stroke="#000000" d="M373.1094,-122.1061C373.1094,-122.1061 373.1094,-140.991 373.1094,-140.991"/>
<polygon fill="#000000" stroke="#000000" points="369.6095,-140.9909 373.1094,-150.991 376.6095,-140.991 369.6095,-140.9909"/>
</g>
<!-- TsValidationMessagesModule -->
<g id="node4" class="node">
<title>TsValidationMessagesModule</title>
<polygon fill="#8dd3c7" stroke="#000000" points="332.5674,-122 329.5674,-126 308.5674,-126 305.5674,-122 145.4326,-122 145.4326,-86 332.5674,-86 332.5674,-122"/>
<text text-anchor="middle" x="239" y="-99.8" font-family="Times,serif" font-size="14.00" fill="#000000">TsValidationMessagesModule</text>
</g>
<!-- TsValidationMessagesModule&#45;&gt;TsAutocompleteModule -->
<g id="edge3" class="edge">
<title>TsValidationMessagesModule&#45;&gt;TsAutocompleteModule</title>
<path fill="none" stroke="#000000" d="M287.5519,-122.1061C287.5519,-122.1061 287.5519,-140.991 287.5519,-140.991"/>
<polygon fill="#000000" stroke="#000000" points="284.052,-140.9909 287.5519,-150.991 291.052,-140.991 284.052,-140.9909"/>
</g>
<!-- TsInputModule -->
<g id="node5" class="node">
<title>TsInputModule</title>
<polygon fill="#8dd3c7" stroke="#000000" points="127.5982,-122 124.5982,-126 103.5982,-126 100.5982,-122 24.4018,-122 24.4018,-86 127.5982,-86 127.5982,-122"/>
<text text-anchor="middle" x="76" y="-99.8" font-family="Times,serif" font-size="14.00" fill="#000000">TsInputModule</text>
</g>
<!-- TsInputModule&#45;&gt;TsAutocompleteModule -->
<g id="edge4" class="edge">
<title>TsInputModule&#45;&gt;TsAutocompleteModule</title>
<path fill="none" stroke="#000000" d="M76,-122.1061C76,-141.3391 76,-169 76,-169 76,-169 232.4468,-169 232.4468,-169"/>
<polygon fill="#000000" stroke="#000000" points="232.4469,-172.5001 242.4468,-169 232.4468,-165.5001 232.4469,-172.5001"/>
</g>
</g>
</svg>
