<?xml version="1.0" encoding="UTF-8" standalone="no"?>
<!DOCTYPE svg PUBLIC "-//W3C//DTD SVG 1.1//EN"
 "http://www.w3.org/Graphics/SVG/1.1/DTD/svg11.dtd">
<!-- Generated by graphviz version 2.40.1 (20161225.0304)
 -->
<!-- Title: dependencies Pages: 1 -->
<svg width="679pt" height="284pt"
 viewBox="0.00 0.00 679.00 284.00" xmlns="http://www.w3.org/2000/svg" xmlns:xlink="http://www.w3.org/1999/xlink">
<g id="graph0" class="graph" transform="scale(1 1) rotate(0) translate(4 280)">
<title>dependencies</title>
<polygon fill="#ffffff" stroke="transparent" points="-4,4 -4,-280 675,-280 675,4 -4,4"/>
<text text-anchor="start" x="314.5091" y="-42.4" font-family="sans-serif" font-weight="bold" font-size="14.00" fill="#000000">Legend</text>
<polygon fill="#ffffb3" stroke="transparent" points="101.5,-10 101.5,-30 121.5,-30 121.5,-10 101.5,-10"/>
<text text-anchor="start" x="125.129" y="-15.4" font-family="sans-serif" font-size="14.00" fill="#000000"> &#160;Declarations</text>
<polygon fill="#8dd3c7" stroke="transparent" points="214.5,-10 214.5,-30 234.5,-30 234.5,-10 214.5,-10"/>
<text text-anchor="start" x="238.2251" y="-15.4" font-family="sans-serif" font-size="14.00" fill="#000000"> &#160;Module</text>
<polygon fill="#80b1d3" stroke="transparent" points="300.5,-10 300.5,-30 320.5,-30 320.5,-10 300.5,-10"/>
<text text-anchor="start" x="324.2812" y="-15.4" font-family="sans-serif" font-size="14.00" fill="#000000"> &#160;Bootstrap</text>
<polygon fill="#fdb462" stroke="transparent" points="397.5,-10 397.5,-30 417.5,-30 417.5,-10 397.5,-10"/>
<text text-anchor="start" x="421.1732" y="-15.4" font-family="sans-serif" font-size="14.00" fill="#000000"> &#160;Providers</text>
<polygon fill="#fb8072" stroke="transparent" points="493.5,-10 493.5,-30 513.5,-30 513.5,-10 493.5,-10"/>
<text text-anchor="start" x="517.2258" y="-15.4" font-family="sans-serif" font-size="14.00" fill="#000000"> &#160;Exports</text>
<g id="clust1" class="cluster">
<title>cluster_TsAutocompleteModule</title>
<polygon fill="none" stroke="#000000" stroke-dasharray="1,5" points="8,-70 8,-268 663,-268 663,-70 8,-70"/>
</g>
<g id="clust2" class="cluster">
<title>cluster_TsAutocompleteModule_declarations</title>
<polygon fill="none" stroke="#000000" points="465,-78 465,-130 655,-130 655,-78 465,-78"/>
</g>
<g id="clust4" class="cluster">
<title>cluster_TsAutocompleteModule_imports</title>
<polygon fill="none" stroke="#000000" points="16,-78 16,-130 457,-130 457,-78 16,-78"/>
</g>
<g id="clust5" class="cluster">
<title>cluster_TsAutocompleteModule_exports</title>
<polygon fill="none" stroke="#000000" points="243,-208 243,-260 437,-260 437,-208 243,-208"/>
</g>
<!-- TsAutocompleteComponent -->
<g id="node1" class="node">
<title>TsAutocompleteComponent</title>
<polygon fill="#ffffb3" stroke="#000000" points="647.1428,-122 472.8572,-122 472.8572,-86 647.1428,-86 647.1428,-122"/>
<text text-anchor="middle" x="560" y="-99.8" font-family="Times,serif" font-size="14.00" fill="#000000">TsAutocompleteComponent</text>
</g>
<!-- TsAutocompleteModule -->
<g id="node2" class="node">
<title>TsAutocompleteModule</title>
<polygon fill="#8dd3c7" stroke="#000000" points="416.3599,-187 413.3599,-191 392.3599,-191 389.3599,-187 263.6401,-187 263.6401,-151 416.3599,-151 416.3599,-187"/>
<text text-anchor="middle" x="340" y="-164.8" font-family="Times,serif" font-size="14.00" fill="#000000">TsAutocompleteModule</text>
</g>
<!-- TsAutocompleteComponent&#45;&gt;TsAutocompleteModule -->
<g id="edge1" class="edge">
<title>TsAutocompleteComponent&#45;&gt;TsAutocompleteModule</title>
<path fill="none" stroke="#000000" d="M560,-122.1061C560,-141.3391 560,-169 560,-169 560,-169 426.6365,-169 426.6365,-169"/>
<polygon fill="#000000" stroke="#000000" points="426.6365,-165.5001 416.6365,-169 426.6364,-172.5001 426.6365,-165.5001"/>
</g>
<!-- TsAutocompleteComponent  -->
<g id="node6" class="node">
<title>TsAutocompleteComponent </title>
<polygon fill="#fb8072" stroke="#000000" points="429.1425,-252 250.8575,-252 250.8575,-216 429.1425,-216 429.1425,-252"/>
<text text-anchor="middle" x="340" y="-229.8" font-family="Times,serif" font-size="14.00" fill="#000000">TsAutocompleteComponent </text>
</g>
<!-- TsAutocompleteModule&#45;&gt;TsAutocompleteComponent  -->
<g id="edge5" class="edge">
<title>TsAutocompleteModule&#45;&gt;TsAutocompleteComponent </title>
<path fill="none" stroke="#000000" stroke-dasharray="5,2" d="M340,-187.1061C340,-187.1061 340,-205.991 340,-205.991"/>
<polygon fill="#000000" stroke="#000000" points="336.5001,-205.9909 340,-215.991 343.5001,-205.991 336.5001,-205.9909"/>
</g>
<!-- TsIconModule -->
<g id="node3" class="node">
<title>TsIconModule</title>
<polygon fill="#8dd3c7" stroke="#000000" points="449.4231,-122 446.4231,-126 425.4231,-126 422.4231,-122 350.5769,-122 350.5769,-86 449.4231,-86 449.4231,-122"/>
<text text-anchor="middle" x="400" y="-99.8" font-family="Times,serif" font-size="14.00" fill="#000000">TsIconModule</text>
</g>
<!-- TsIconModule&#45;&gt;TsAutocompleteModule -->
<g id="edge2" class="edge">
<title>TsIconModule&#45;&gt;TsAutocompleteModule</title>
<path fill="none" stroke="#000000" d="M383.6094,-122.1061C383.6094,-122.1061 383.6094,-140.991 383.6094,-140.991"/>
<polygon fill="#000000" stroke="#000000" points="380.1095,-140.9909 383.6094,-150.991 387.1095,-140.991 380.1095,-140.9909"/>
</g>
<!-- TsInputModule -->
<g id="node4" class="node">
<title>TsInputModule</title>
<polygon fill="#8dd3c7" stroke="#000000" points="332.5982,-122 329.5982,-126 308.5982,-126 305.5982,-122 229.4018,-122 229.4018,-86 332.5982,-86 332.5982,-122"/>
<text text-anchor="middle" x="281" y="-99.8" font-family="Times,serif" font-size="14.00" fill="#000000">TsInputModule</text>
</g>
<!-- TsInputModule&#45;&gt;TsAutocompleteModule -->
<g id="edge3" class="edge">
<title>TsInputModule&#45;&gt;TsAutocompleteModule</title>
<path fill="none" stroke="#000000" d="M298.0596,-122.1061C298.0596,-122.1061 298.0596,-140.991 298.0596,-140.991"/>
<polygon fill="#000000" stroke="#000000" points="294.5597,-140.9909 298.0596,-150.991 301.5597,-140.991 294.5597,-140.9909"/>
</g>
<!-- TsValidationMessagesModule -->
<g id="node5" class="node">
<title>TsValidationMessagesModule</title>
<polygon fill="#8dd3c7" stroke="#000000" points="211.5674,-122 208.5674,-126 187.5674,-126 184.5674,-122 24.4326,-122 24.4326,-86 211.5674,-86 211.5674,-122"/>
<text text-anchor="middle" x="118" y="-99.8" font-family="Times,serif" font-size="14.00" fill="#000000">TsValidationMessagesModule</text>
</g>
<!-- TsValidationMessagesModule&#45;&gt;TsAutocompleteModule -->
<g id="edge4" class="edge">
<title>TsValidationMessagesModule&#45;&gt;TsAutocompleteModule</title>
<path fill="none" stroke="#000000" d="M118,-122.1061C118,-141.3391 118,-169 118,-169 118,-169 253.6002,-169 253.6002,-169"/>
<polygon fill="#000000" stroke="#000000" points="253.6002,-172.5001 263.6002,-169 253.6002,-165.5001 253.6002,-172.5001"/>
</g>
</g>
</svg>
