<?xml version="1.0" encoding="UTF-8" standalone="no"?>
<!DOCTYPE svg PUBLIC "-//W3C//DTD SVG 1.1//EN"
 "http://www.w3.org/Graphics/SVG/1.1/DTD/svg11.dtd">
<!-- Generated by graphviz version 2.40.1 (20161225.0304)
 -->
<!-- Title: dependencies Pages: 1 -->
<svg width="504pt" height="284pt"
 viewBox="0.00 0.00 504.00 284.00" xmlns="http://www.w3.org/2000/svg" xmlns:xlink="http://www.w3.org/1999/xlink">
<g id="graph0" class="graph" transform="scale(1 1) rotate(0) translate(4 280)">
<title>dependencies</title>
<polygon fill="#ffffff" stroke="transparent" points="-4,4 -4,-280 500,-280 500,4 -4,4"/>
<text text-anchor="start" x="227.0091" y="-42.4" font-family="sans-serif" font-weight="bold" font-size="14.00" fill="#000000">Legend</text>
<polygon fill="#ffffb3" stroke="transparent" points="14,-10 14,-30 34,-30 34,-10 14,-10"/>
<text text-anchor="start" x="37.629" y="-15.4" font-family="sans-serif" font-size="14.00" fill="#000000"> &#160;Declarations</text>
<polygon fill="#8dd3c7" stroke="transparent" points="127,-10 127,-30 147,-30 147,-10 127,-10"/>
<text text-anchor="start" x="150.7251" y="-15.4" font-family="sans-serif" font-size="14.00" fill="#000000"> &#160;Module</text>
<polygon fill="#80b1d3" stroke="transparent" points="213,-10 213,-30 233,-30 233,-10 213,-10"/>
<text text-anchor="start" x="236.7812" y="-15.4" font-family="sans-serif" font-size="14.00" fill="#000000"> &#160;Bootstrap</text>
<polygon fill="#fdb462" stroke="transparent" points="310,-10 310,-30 330,-30 330,-10 310,-10"/>
<text text-anchor="start" x="333.6732" y="-15.4" font-family="sans-serif" font-size="14.00" fill="#000000"> &#160;Providers</text>
<polygon fill="#fb8072" stroke="transparent" points="406,-10 406,-30 426,-30 426,-10 406,-10"/>
<text text-anchor="start" x="429.7258" y="-15.4" font-family="sans-serif" font-size="14.00" fill="#000000"> &#160;Exports</text>
<g id="clust1" class="cluster">
<title>cluster_TsDateRangeModule</title>
<polygon fill="none" stroke="#000000" stroke-dasharray="1,5" points="74,-70 74,-268 422,-268 422,-70 74,-70"/>
</g>
<g id="clust2" class="cluster">
<title>cluster_TsDateRangeModule_declarations</title>
<polygon fill="none" stroke="#000000" points="240,-78 240,-130 414,-130 414,-78 240,-78"/>
</g>
<g id="clust4" class="cluster">
<title>cluster_TsDateRangeModule_imports</title>
<polygon fill="none" stroke="#000000" points="82,-78 82,-130 232,-130 232,-78 82,-78"/>
</g>
<g id="clust5" class="cluster">
<title>cluster_TsDateRangeModule_exports</title>
<polygon fill="none" stroke="#000000" points="159,-208 159,-260 337,-260 337,-208 159,-208"/>
</g>
<!-- TsDateRangeComponent -->
<g id="node1" class="node">
<title>TsDateRangeComponent</title>
<polygon fill="#ffffb3" stroke="#000000" points="405.5225,-122 248.4775,-122 248.4775,-86 405.5225,-86 405.5225,-122"/>
<text text-anchor="middle" x="327" y="-99.8" font-family="Times,serif" font-size="14.00" fill="#000000">TsDateRangeComponent</text>
</g>
<!-- TsDateRangeModule -->
<g id="node2" class="node">
<title>TsDateRangeModule</title>
<polygon fill="#8dd3c7" stroke="#000000" points="315.7395,-187 312.7395,-191 291.7395,-191 288.7395,-187 180.2605,-187 180.2605,-151 315.7395,-151 315.7395,-187"/>
<text text-anchor="middle" x="248" y="-164.8" font-family="Times,serif" font-size="14.00" fill="#000000">TsDateRangeModule</text>
</g>
<!-- TsDateRangeComponent&#45;&gt;TsDateRangeModule -->
<g id="edge1" class="edge">
<title>TsDateRangeComponent&#45;&gt;TsDateRangeModule</title>
<path fill="none" stroke="#000000" d="M282.0544,-122.1061C282.0544,-122.1061 282.0544,-140.991 282.0544,-140.991"/>
<polygon fill="#000000" stroke="#000000" points="278.5544,-140.9909 282.0544,-150.991 285.5544,-140.991 278.5544,-140.9909"/>
</g>
<!-- TsDateRangeComponent  -->
<g id="node4" class="node">
<title>TsDateRangeComponent </title>
<polygon fill="#fb8072" stroke="#000000" points="328.5218,-252 167.4782,-252 167.4782,-216 328.5218,-216 328.5218,-252"/>
<text text-anchor="middle" x="248" y="-229.8" font-family="Times,serif" font-size="14.00" fill="#000000">TsDateRangeComponent </text>
</g>
<!-- TsDateRangeModule&#45;&gt;TsDateRangeComponent  -->
<g id="edge3" class="edge">
<title>TsDateRangeModule&#45;&gt;TsDateRangeComponent </title>
<path fill="none" stroke="#000000" stroke-dasharray="5,2" d="M248,-187.1061C248,-187.1061 248,-205.991 248,-205.991"/>
<polygon fill="#000000" stroke="#000000" points="244.5001,-205.9909 248,-215.991 251.5001,-205.991 244.5001,-205.9909"/>
</g>
<!-- TsDatepickerModule -->
<g id="node3" class="node">
<title>TsDatepickerModule</title>
<polygon fill="#8dd3c7" stroke="#000000" points="224.4538,-122 221.4538,-126 200.4538,-126 197.4538,-122 89.5462,-122 89.5462,-86 224.4538,-86 224.4538,-122"/>
<text text-anchor="middle" x="157" y="-99.8" font-family="Times,serif" font-size="14.00" fill="#000000">TsDatepickerModule</text>
</g>
<!-- TsDatepickerModule&#45;&gt;TsDateRangeModule -->
<g id="edge2" class="edge">
<title>TsDatepickerModule&#45;&gt;TsDateRangeModule</title>
<path fill="none" stroke="#000000" d="M202.3037,-122.1061C202.3037,-122.1061 202.3037,-140.991 202.3037,-140.991"/>
<polygon fill="#000000" stroke="#000000" points="198.8037,-140.9909 202.3037,-150.991 205.8037,-140.991 198.8037,-140.9909"/>
</g>
</g>
</svg>
