<?xml version="1.0" encoding="UTF-8" standalone="no"?>
<!DOCTYPE svg PUBLIC "-//W3C//DTD SVG 1.1//EN"
 "http://www.w3.org/Graphics/SVG/1.1/DTD/svg11.dtd">
<!-- Generated by graphviz version 2.40.1 (20161225.0304)
 -->
<!-- Title: dependencies Pages: 1 -->
<svg width="722pt" height="284pt"
 viewBox="0.00 0.00 722.00 284.00" xmlns="http://www.w3.org/2000/svg" xmlns:xlink="http://www.w3.org/1999/xlink">
<g id="graph0" class="graph" transform="scale(1 1) rotate(0) translate(4 280)">
<title>dependencies</title>
<polygon fill="#ffffff" stroke="transparent" points="-4,4 -4,-280 718,-280 718,4 -4,4"/>
<text text-anchor="start" x="336.0091" y="-42.4" font-family="sans-serif" font-weight="bold" font-size="14.00" fill="#000000">Legend</text>
<polygon fill="#ffffb3" stroke="transparent" points="123,-10 123,-30 143,-30 143,-10 123,-10"/>
<text text-anchor="start" x="146.629" y="-15.4" font-family="sans-serif" font-size="14.00" fill="#000000"> &#160;Declarations</text>
<polygon fill="#8dd3c7" stroke="transparent" points="236,-10 236,-30 256,-30 256,-10 236,-10"/>
<text text-anchor="start" x="259.7251" y="-15.4" font-family="sans-serif" font-size="14.00" fill="#000000"> &#160;Module</text>
<polygon fill="#80b1d3" stroke="transparent" points="322,-10 322,-30 342,-30 342,-10 322,-10"/>
<text text-anchor="start" x="345.7812" y="-15.4" font-family="sans-serif" font-size="14.00" fill="#000000"> &#160;Bootstrap</text>
<polygon fill="#fdb462" stroke="transparent" points="419,-10 419,-30 439,-30 439,-10 419,-10"/>
<text text-anchor="start" x="442.6732" y="-15.4" font-family="sans-serif" font-size="14.00" fill="#000000"> &#160;Providers</text>
<polygon fill="#fb8072" stroke="transparent" points="515,-10 515,-30 535,-30 535,-10 515,-10"/>
<text text-anchor="start" x="538.7258" y="-15.4" font-family="sans-serif" font-size="14.00" fill="#000000"> &#160;Exports</text>
<g id="clust1" class="cluster">
<title>cluster_TsPaginatorModule</title>
<polygon fill="none" stroke="#000000" stroke-dasharray="1,5" points="8,-70 8,-268 706,-268 706,-70 8,-70"/>
</g>
<g id="clust2" class="cluster">
<title>cluster_TsPaginatorModule_declarations</title>
<polygon fill="none" stroke="#000000" points="534,-78 534,-130 698,-130 698,-78 534,-78"/>
</g>
<g id="clust4" class="cluster">
<title>cluster_TsPaginatorModule_imports</title>
<polygon fill="none" stroke="#000000" points="16,-78 16,-130 526,-130 526,-78 16,-78"/>
</g>
<g id="clust5" class="cluster">
<title>cluster_TsPaginatorModule_exports</title>
<polygon fill="none" stroke="#000000" points="250,-208 250,-260 418,-260 418,-208 250,-208"/>
</g>
<!-- TsPaginatorComponent -->
<g id="node1" class="node">
<title>TsPaginatorComponent</title>
<polygon fill="#ffffb3" stroke="#000000" points="690.4832,-122 541.5168,-122 541.5168,-86 690.4832,-86 690.4832,-122"/>
<text text-anchor="middle" x="616" y="-99.8" font-family="Times,serif" font-size="14.00" fill="#000000">TsPaginatorComponent</text>
</g>
<!-- TsPaginatorModule -->
<g id="node2" class="node">
<title>TsPaginatorModule</title>
<polygon fill="#8dd3c7" stroke="#000000" points="397.7008,-187 394.7008,-191 373.7008,-191 370.7008,-187 270.2992,-187 270.2992,-151 397.7008,-151 397.7008,-187"/>
<text text-anchor="middle" x="334" y="-164.8" font-family="Times,serif" font-size="14.00" fill="#000000">TsPaginatorModule</text>
</g>
<!-- TsPaginatorComponent&#45;&gt;TsPaginatorModule -->
<g id="edge1" class="edge">
<title>TsPaginatorComponent&#45;&gt;TsPaginatorModule</title>
<path fill="none" stroke="#000000" d="M616,-122.1061C616,-141.3391 616,-169 616,-169 616,-169 407.6379,-169 407.6379,-169"/>
<polygon fill="#000000" stroke="#000000" points="407.638,-165.5001 397.6379,-169 407.6379,-172.5001 407.638,-165.5001"/>
</g>
<!-- TsPaginatorComponent  -->
<g id="node7" class="node">
<title>TsPaginatorComponent </title>
<polygon fill="#fb8072" stroke="#000000" points="410.484,-252 257.516,-252 257.516,-216 410.484,-216 410.484,-252"/>
<text text-anchor="middle" x="334" y="-229.8" font-family="Times,serif" font-size="14.00" fill="#000000">TsPaginatorComponent </text>
</g>
<!-- TsPaginatorModule&#45;&gt;TsPaginatorComponent  -->
<g id="edge6" class="edge">
<title>TsPaginatorModule&#45;&gt;TsPaginatorComponent </title>
<path fill="none" stroke="#000000" stroke-dasharray="5,2" d="M334,-187.1061C334,-187.1061 334,-205.991 334,-205.991"/>
<polygon fill="#000000" stroke="#000000" points="330.5001,-205.9909 334,-215.991 337.5001,-205.991 330.5001,-205.9909"/>
</g>
<!-- TsButtonModule -->
<g id="node3" class="node">
<title>TsButtonModule</title>
<polygon fill="#8dd3c7" stroke="#000000" points="517.6653,-122 514.6653,-126 493.6653,-126 490.6653,-122 406.3347,-122 406.3347,-86 517.6653,-86 517.6653,-122"/>
<text text-anchor="middle" x="462" y="-99.8" font-family="Times,serif" font-size="14.00" fill="#000000">TsButtonModule</text>
</g>
<!-- TsButtonModule&#45;&gt;TsPaginatorModule -->
<g id="edge2" class="edge">
<title>TsButtonModule&#45;&gt;TsPaginatorModule</title>
<path fill="none" stroke="#000000" d="M406.0931,-104C398.2175,-104 392.7388,-104 392.7388,-104 392.7388,-104 392.7388,-140.8939 392.7388,-140.8939"/>
<polygon fill="#000000" stroke="#000000" points="389.2389,-140.8938 392.7388,-150.8939 396.2389,-140.8939 389.2389,-140.8938"/>
</g>
<!-- TsSelectModule -->
<g id="node4" class="node">
<title>TsSelectModule</title>
<polygon fill="#8dd3c7" stroke="#000000" points="387.7549,-122 384.7549,-126 363.7549,-126 360.7549,-122 280.2451,-122 280.2451,-86 387.7549,-86 387.7549,-122"/>
<text text-anchor="middle" x="334" y="-99.8" font-family="Times,serif" font-size="14.00" fill="#000000">TsSelectModule</text>
</g>
<!-- TsSelectModule&#45;&gt;TsPaginatorModule -->
<g id="edge3" class="edge">
<title>TsSelectModule&#45;&gt;TsPaginatorModule</title>
<path fill="none" stroke="#000000" d="M334,-122.1061C334,-122.1061 334,-140.991 334,-140.991"/>
<polygon fill="#000000" stroke="#000000" points="330.5001,-140.9909 334,-150.991 337.5001,-140.991 330.5001,-140.9909"/>
</g>
<!-- TsMenuModule -->
<g id="node5" class="node">
<title>TsMenuModule</title>
<polygon fill="#8dd3c7" stroke="#000000" points="262.2064,-122 259.2064,-126 238.2064,-126 235.2064,-122 155.7936,-122 155.7936,-86 262.2064,-86 262.2064,-122"/>
<text text-anchor="middle" x="209" y="-99.8" font-family="Times,serif" font-size="14.00" fill="#000000">TsMenuModule</text>
</g>
<!-- TsMenuModule&#45;&gt;TsPaginatorModule -->
<g id="edge4" class="edge">
<title>TsMenuModule&#45;&gt;TsPaginatorModule</title>
<path fill="none" stroke="#000000" d="M262.1701,-104C269.8732,-104 275.2612,-104 275.2612,-104 275.2612,-104 275.2612,-140.8939 275.2612,-140.8939"/>
<polygon fill="#000000" stroke="#000000" points="271.7613,-140.8938 275.2612,-150.8939 278.7613,-140.8939 271.7613,-140.8938"/>
</g>
<!-- TsTooltipModule -->
<g id="node6" class="node">
<title>TsTooltipModule</title>
<polygon fill="#8dd3c7" stroke="#000000" points="138.2716,-122 135.2716,-126 114.2716,-126 111.2716,-122 23.7284,-122 23.7284,-86 138.2716,-86 138.2716,-122"/>
<text text-anchor="middle" x="81" y="-99.8" font-family="Times,serif" font-size="14.00" fill="#000000">TsTooltipModule</text>
</g>
<!-- TsTooltipModule&#45;&gt;TsPaginatorModule -->
<g id="edge5" class="edge">
<title>TsTooltipModule&#45;&gt;TsPaginatorModule</title>
<path fill="none" stroke="#000000" d="M81,-122.1061C81,-141.3391 81,-169 81,-169 81,-169 260.1574,-169 260.1574,-169"/>
<polygon fill="#000000" stroke="#000000" points="260.1575,-172.5001 270.1574,-169 260.1574,-165.5001 260.1575,-172.5001"/>
</g>
</g>
</svg>
