<?xml version="1.0" encoding="UTF-8" standalone="no"?>
<!DOCTYPE svg PUBLIC "-//W3C//DTD SVG 1.1//EN"
 "http://www.w3.org/Graphics/SVG/1.1/DTD/svg11.dtd">
<!-- Generated by graphviz version 2.40.1 (20161225.0304)
 -->
<!-- Title: dependencies Pages: 1 -->
<svg width="504pt" height="284pt"
 viewBox="0.00 0.00 504.00 284.00" xmlns="http://www.w3.org/2000/svg" xmlns:xlink="http://www.w3.org/1999/xlink">
<g id="graph0" class="graph" transform="scale(1 1) rotate(0) translate(4 280)">
<title>dependencies</title>
<polygon fill="#ffffff" stroke="transparent" points="-4,4 -4,-280 500,-280 500,4 -4,4"/>
<text text-anchor="start" x="227.0091" y="-42.4" font-family="sans-serif" font-weight="bold" font-size="14.00" fill="#000000">Legend</text>
<polygon fill="#ffffb3" stroke="transparent" points="14,-10 14,-30 34,-30 34,-10 14,-10"/>
<text text-anchor="start" x="37.629" y="-15.4" font-family="sans-serif" font-size="14.00" fill="#000000"> &#160;Declarations</text>
<polygon fill="#8dd3c7" stroke="transparent" points="127,-10 127,-30 147,-30 147,-10 127,-10"/>
<text text-anchor="start" x="150.7251" y="-15.4" font-family="sans-serif" font-size="14.00" fill="#000000"> &#160;Module</text>
<polygon fill="#80b1d3" stroke="transparent" points="213,-10 213,-30 233,-30 233,-10 213,-10"/>
<text text-anchor="start" x="236.7812" y="-15.4" font-family="sans-serif" font-size="14.00" fill="#000000"> &#160;Bootstrap</text>
<polygon fill="#fdb462" stroke="transparent" points="310,-10 310,-30 330,-30 330,-10 310,-10"/>
<text text-anchor="start" x="333.6732" y="-15.4" font-family="sans-serif" font-size="14.00" fill="#000000"> &#160;Providers</text>
<polygon fill="#fb8072" stroke="transparent" points="406,-10 406,-30 426,-30 426,-10 406,-10"/>
<text text-anchor="start" x="429.7258" y="-15.4" font-family="sans-serif" font-size="14.00" fill="#000000"> &#160;Exports</text>
<g id="clust1" class="cluster">
<title>cluster_TsDatepickerModule</title>
<polygon fill="none" stroke="#000000" stroke-dasharray="1,5" points="48,-70 48,-268 448,-268 448,-70 48,-70"/>
</g>
<g id="clust2" class="cluster">
<title>cluster_TsDatepickerModule_declarations</title>
<polygon fill="none" stroke="#000000" points="268,-78 268,-130 440,-130 440,-78 268,-78"/>
</g>
<g id="clust4" class="cluster">
<title>cluster_TsDatepickerModule_imports</title>
<polygon fill="none" stroke="#000000" points="56,-78 56,-130 260,-130 260,-78 56,-78"/>
</g>
<g id="clust5" class="cluster">
<title>cluster_TsDatepickerModule_exports</title>
<polygon fill="none" stroke="#000000" points="167,-208 167,-260 343,-260 343,-208 167,-208"/>
</g>
<!-- TsDatepickerComponent -->
<g id="node1" class="node">
<title>TsDatepickerComponent</title>
<polygon fill="#ffffb3" stroke="#000000" points="432.2366,-122 275.7634,-122 275.7634,-86 432.2366,-86 432.2366,-122"/>
<text text-anchor="middle" x="354" y="-99.8" font-family="Times,serif" font-size="14.00" fill="#000000">TsDatepickerComponent</text>
</g>
<!-- TsDatepickerModule -->
<g id="node2" class="node">
<title>TsDatepickerModule</title>
<polygon fill="#8dd3c7" stroke="#000000" points="322.4538,-187 319.4538,-191 298.4538,-191 295.4538,-187 187.5462,-187 187.5462,-151 322.4538,-151 322.4538,-187"/>
<text text-anchor="middle" x="255" y="-164.8" font-family="Times,serif" font-size="14.00" fill="#000000">TsDatepickerModule</text>
</g>
<!-- TsDatepickerComponent&#45;&gt;TsDatepickerModule -->
<g id="edge1" class="edge">
<title>TsDatepickerComponent&#45;&gt;TsDatepickerModule</title>
<path fill="none" stroke="#000000" d="M299.0544,-122.1061C299.0544,-122.1061 299.0544,-140.991 299.0544,-140.991"/>
<polygon fill="#000000" stroke="#000000" points="295.5544,-140.9909 299.0544,-150.991 302.5544,-140.991 295.5544,-140.9909"/>
</g>
<!-- TsDatepickerComponent  -->
<g id="node4" class="node">
<title>TsDatepickerComponent </title>
<polygon fill="#fb8072" stroke="#000000" points="335.2366,-252 174.7634,-252 174.7634,-216 335.2366,-216 335.2366,-252"/>
<text text-anchor="middle" x="255" y="-229.8" font-family="Times,serif" font-size="14.00" fill="#000000">TsDatepickerComponent </text>
</g>
<!-- TsDatepickerModule&#45;&gt;TsDatepickerComponent  -->
<g id="edge3" class="edge">
<title>TsDatepickerModule&#45;&gt;TsDatepickerComponent </title>
<path fill="none" stroke="#000000" stroke-dasharray="5,2" d="M255,-187.1061C255,-187.1061 255,-205.991 255,-205.991"/>
<polygon fill="#000000" stroke="#000000" points="251.5001,-205.9909 255,-215.991 258.5001,-205.991 251.5001,-205.9909"/>
</g>
<!-- TsValidationMessagesModule -->
<g id="node3" class="node">
<title>TsValidationMessagesModule</title>
<polygon fill="#8dd3c7" stroke="#000000" points="251.5674,-122 248.5674,-126 227.5674,-126 224.5674,-122 64.4326,-122 64.4326,-86 251.5674,-86 251.5674,-122"/>
<text text-anchor="middle" x="158" y="-99.8" font-family="Times,serif" font-size="14.00" fill="#000000">TsValidationMessagesModule</text>
</g>
<!-- TsValidationMessagesModule&#45;&gt;TsDatepickerModule -->
<g id="edge2" class="edge">
<title>TsValidationMessagesModule&#45;&gt;TsDatepickerModule</title>
<path fill="none" stroke="#000000" d="M219.5284,-122.1061C219.5284,-122.1061 219.5284,-140.991 219.5284,-140.991"/>
<polygon fill="#000000" stroke="#000000" points="216.0285,-140.9909 219.5284,-150.991 223.0285,-140.991 216.0285,-140.9909"/>
</g>
</g>
</svg>
