<?xml version="1.0" encoding="UTF-8" standalone="no"?>
<!DOCTYPE svg PUBLIC "-//W3C//DTD SVG 1.1//EN"
 "http://www.w3.org/Graphics/SVG/1.1/DTD/svg11.dtd">
<!-- Generated by graphviz version 2.40.1 (20161225.0304)
 -->
<!-- Title: dependencies Pages: 1 -->
<svg width="915pt" height="284pt"
 viewBox="0.00 0.00 915.00 284.00" xmlns="http://www.w3.org/2000/svg" xmlns:xlink="http://www.w3.org/1999/xlink">
<g id="graph0" class="graph" transform="scale(1 1) rotate(0) translate(4 280)">
<title>dependencies</title>
<polygon fill="#ffffff" stroke="transparent" points="-4,4 -4,-280 911,-280 911,4 -4,4"/>
<text text-anchor="start" x="432.5091" y="-42.4" font-family="sans-serif" font-weight="bold" font-size="14.00" fill="#000000">Legend</text>
<polygon fill="#ffffb3" stroke="transparent" points="219.5,-10 219.5,-30 239.5,-30 239.5,-10 219.5,-10"/>
<text text-anchor="start" x="243.129" y="-15.4" font-family="sans-serif" font-size="14.00" fill="#000000"> &#160;Declarations</text>
<polygon fill="#8dd3c7" stroke="transparent" points="332.5,-10 332.5,-30 352.5,-30 352.5,-10 332.5,-10"/>
<text text-anchor="start" x="356.2251" y="-15.4" font-family="sans-serif" font-size="14.00" fill="#000000"> &#160;Module</text>
<polygon fill="#80b1d3" stroke="transparent" points="418.5,-10 418.5,-30 438.5,-30 438.5,-10 418.5,-10"/>
<text text-anchor="start" x="442.2812" y="-15.4" font-family="sans-serif" font-size="14.00" fill="#000000"> &#160;Bootstrap</text>
<polygon fill="#fdb462" stroke="transparent" points="515.5,-10 515.5,-30 535.5,-30 535.5,-10 515.5,-10"/>
<text text-anchor="start" x="539.1732" y="-15.4" font-family="sans-serif" font-size="14.00" fill="#000000"> &#160;Providers</text>
<polygon fill="#fb8072" stroke="transparent" points="611.5,-10 611.5,-30 631.5,-30 631.5,-10 611.5,-10"/>
<text text-anchor="start" x="635.2258" y="-15.4" font-family="sans-serif" font-size="14.00" fill="#000000"> &#160;Exports</text>
<g id="clust1" class="cluster">
<title>cluster_TsDatepickerModule</title>
<polygon fill="none" stroke="#000000" stroke-dasharray="1,5" points="8,-70 8,-268 899,-268 899,-70 8,-70"/>
</g>
<g id="clust2" class="cluster">
<title>cluster_TsDatepickerModule_declarations</title>
<polygon fill="none" stroke="#000000" points="719,-78 719,-130 891,-130 891,-78 719,-78"/>
</g>
<g id="clust4" class="cluster">
<title>cluster_TsDatepickerModule_imports</title>
<polygon fill="none" stroke="#000000" points="16,-78 16,-130 711,-130 711,-78 16,-78"/>
</g>
<g id="clust5" class="cluster">
<title>cluster_TsDatepickerModule_exports</title>
<polygon fill="none" stroke="#000000" points="334,-208 334,-260 510,-260 510,-208 334,-208"/>
</g>
<!-- TsDatepickerComponent -->
<g id="node1" class="node">
<title>TsDatepickerComponent</title>
<polygon fill="#ffffb3" stroke="#000000" points="883.2366,-122 726.7634,-122 726.7634,-86 883.2366,-86 883.2366,-122"/>
<text text-anchor="middle" x="805" y="-99.8" font-family="Times,serif" font-size="14.00" fill="#000000">TsDatepickerComponent</text>
</g>
<!-- TsDatepickerModule -->
<g id="node2" class="node">
<title>TsDatepickerModule</title>
<polygon fill="#8dd3c7" stroke="#000000" points="489.4538,-187 486.4538,-191 465.4538,-191 462.4538,-187 354.5462,-187 354.5462,-151 489.4538,-151 489.4538,-187"/>
<text text-anchor="middle" x="422" y="-164.8" font-family="Times,serif" font-size="14.00" fill="#000000">TsDatepickerModule</text>
</g>
<!-- TsDatepickerComponent&#45;&gt;TsDatepickerModule -->
<g id="edge1" class="edge">
<title>TsDatepickerComponent&#45;&gt;TsDatepickerModule</title>
<path fill="none" stroke="#000000" d="M805,-122.2843C805,-143.3211 805,-175 805,-175 805,-175 499.5911,-175 499.5911,-175"/>
<polygon fill="#000000" stroke="#000000" points="499.5911,-171.5001 489.5911,-175 499.591,-178.5001 499.5911,-171.5001"/>
</g>
<!-- TsDatepickerComponent  -->
<g id="node8" class="node">
<title>TsDatepickerComponent </title>
<polygon fill="#fb8072" stroke="#000000" points="502.2366,-252 341.7634,-252 341.7634,-216 502.2366,-216 502.2366,-252"/>
<text text-anchor="middle" x="422" y="-229.8" font-family="Times,serif" font-size="14.00" fill="#000000">TsDatepickerComponent </text>
</g>
<!-- TsDatepickerModule&#45;&gt;TsDatepickerComponent  -->
<g id="edge7" class="edge">
<title>TsDatepickerModule&#45;&gt;TsDatepickerComponent </title>
<path fill="none" stroke="#000000" stroke-dasharray="5,2" d="M422,-187.1061C422,-187.1061 422,-205.991 422,-205.991"/>
<polygon fill="#000000" stroke="#000000" points="418.5001,-205.9909 422,-215.991 425.5001,-205.991 418.5001,-205.9909"/>
</g>
<!-- CommonModule -->
<g id="node3" class="node">
<title>CommonModule</title>
<polygon fill="#8dd3c7" stroke="#000000" points="702.6681,-122 699.6681,-126 678.6681,-126 675.6681,-122 591.3319,-122 591.3319,-86 702.6681,-86 702.6681,-122"/>
<text text-anchor="middle" x="647" y="-99.8" font-family="Times,serif" font-size="14.00" fill="#000000">CommonModule</text>
</g>
<!-- CommonModule&#45;&gt;TsDatepickerModule -->
<g id="edge2" class="edge">
<title>CommonModule&#45;&gt;TsDatepickerModule</title>
<path fill="none" stroke="#000000" d="M647,-122.0225C647,-139.3734 647,-163 647,-163 647,-163 499.5074,-163 499.5074,-163"/>
<polygon fill="#000000" stroke="#000000" points="499.5075,-159.5001 489.5074,-163 499.5074,-166.5001 499.5075,-159.5001"/>
</g>
<!-- MdNativeDateModule -->
<g id="node4" class="node">
<title>MdNativeDateModule</title>
<polygon fill="#8dd3c7" stroke="#000000" points="573.238,-122 570.238,-126 549.238,-126 546.238,-122 430.762,-122 430.762,-86 573.238,-86 573.238,-122"/>
<text text-anchor="middle" x="502" y="-99.8" font-family="Times,serif" font-size="14.00" fill="#000000">MdNativeDateModule</text>
</g>
<!-- MdNativeDateModule&#45;&gt;TsDatepickerModule -->
<g id="edge3" class="edge">
<title>MdNativeDateModule&#45;&gt;TsDatepickerModule</title>
<path fill="none" stroke="#000000" d="M460.054,-122.1061C460.054,-122.1061 460.054,-140.991 460.054,-140.991"/>
<polygon fill="#000000" stroke="#000000" points="456.5541,-140.9909 460.054,-150.991 463.5541,-140.991 456.5541,-140.9909"/>
</g>
<!-- MdDatepickerModule -->
<g id="node5" class="node">
<title>MdDatepickerModule</title>
<polygon fill="#8dd3c7" stroke="#000000" points="412.4018,-122 409.4018,-126 388.4018,-126 385.4018,-122 271.5982,-122 271.5982,-86 412.4018,-86 412.4018,-122"/>
<text text-anchor="middle" x="342" y="-99.8" font-family="Times,serif" font-size="14.00" fill="#000000">MdDatepickerModule</text>
</g>
<!-- MdDatepickerModule&#45;&gt;TsDatepickerModule -->
<g id="edge4" class="edge">
<title>MdDatepickerModule&#45;&gt;TsDatepickerModule</title>
<path fill="none" stroke="#000000" d="M383.3619,-122.1061C383.3619,-122.1061 383.3619,-140.991 383.3619,-140.991"/>
<polygon fill="#000000" stroke="#000000" points="379.8619,-140.9909 383.3619,-150.991 386.8619,-140.991 379.8619,-140.9909"/>
</g>
<!-- MdIconModule -->
<g id="node6" class="node">
<title>MdIconModule</title>
<polygon fill="#8dd3c7" stroke="#000000" points="253.8697,-122 250.8697,-126 229.8697,-126 226.8697,-122 150.1303,-122 150.1303,-86 253.8697,-86 253.8697,-122"/>
<text text-anchor="middle" x="202" y="-99.8" font-family="Times,serif" font-size="14.00" fill="#000000">MdIconModule</text>
</g>
<!-- MdIconModule&#45;&gt;TsDatepickerModule -->
<g id="edge5" class="edge">
<title>MdIconModule&#45;&gt;TsDatepickerModule</title>
<path fill="none" stroke="#000000" d="M202,-122.0225C202,-139.3734 202,-163 202,-163 202,-163 344.4976,-163 344.4976,-163"/>
<polygon fill="#000000" stroke="#000000" points="344.4977,-166.5001 354.4976,-163 344.4976,-159.5001 344.4977,-166.5001"/>
</g>
<!-- MdInputModule -->
<g id="node7" class="node">
<title>MdInputModule</title>
<polygon fill="#8dd3c7" stroke="#000000" points="132.0465,-122 129.0465,-126 108.0465,-126 105.0465,-122 23.9535,-122 23.9535,-86 132.0465,-86 132.0465,-122"/>
<text text-anchor="middle" x="78" y="-99.8" font-family="Times,serif" font-size="14.00" fill="#000000">MdInputModule</text>
</g>
<!-- MdInputModule&#45;&gt;TsDatepickerModule -->
<g id="edge6" class="edge">
<title>MdInputModule&#45;&gt;TsDatepickerModule</title>
<path fill="none" stroke="#000000" d="M78,-122.2843C78,-143.3211 78,-175 78,-175 78,-175 344.4471,-175 344.4471,-175"/>
<polygon fill="#000000" stroke="#000000" points="344.4472,-178.5001 354.4471,-175 344.4471,-171.5001 344.4472,-178.5001"/>
</g>
</g>
</svg>
