<?xml version="1.0" encoding="UTF-8" standalone="no"?>
<!DOCTYPE svg PUBLIC "-//W3C//DTD SVG 1.1//EN"
 "http://www.w3.org/Graphics/SVG/1.1/DTD/svg11.dtd">
<!-- Generated by graphviz version 2.40.1 (20161225.0304)
 -->
<!-- Title: dependencies Pages: 1 -->
<svg width="1028pt" height="284pt"
 viewBox="0.00 0.00 1028.00 284.00" xmlns="http://www.w3.org/2000/svg" xmlns:xlink="http://www.w3.org/1999/xlink">
<g id="graph0" class="graph" transform="scale(1 1) rotate(0) translate(4 280)">
<title>dependencies</title>
<polygon fill="#ffffff" stroke="transparent" points="-4,4 -4,-280 1024,-280 1024,4 -4,4"/>
<text text-anchor="start" x="489.0091" y="-42.4" font-family="sans-serif" font-weight="bold" font-size="14.00" fill="#000000">Legend</text>
<polygon fill="#ffffb3" stroke="transparent" points="276,-10 276,-30 296,-30 296,-10 276,-10"/>
<text text-anchor="start" x="299.629" y="-15.4" font-family="sans-serif" font-size="14.00" fill="#000000"> &#160;Declarations</text>
<polygon fill="#8dd3c7" stroke="transparent" points="389,-10 389,-30 409,-30 409,-10 389,-10"/>
<text text-anchor="start" x="412.7251" y="-15.4" font-family="sans-serif" font-size="14.00" fill="#000000"> &#160;Module</text>
<polygon fill="#80b1d3" stroke="transparent" points="475,-10 475,-30 495,-30 495,-10 475,-10"/>
<text text-anchor="start" x="498.7812" y="-15.4" font-family="sans-serif" font-size="14.00" fill="#000000"> &#160;Bootstrap</text>
<polygon fill="#fdb462" stroke="transparent" points="572,-10 572,-30 592,-30 592,-10 572,-10"/>
<text text-anchor="start" x="595.6732" y="-15.4" font-family="sans-serif" font-size="14.00" fill="#000000"> &#160;Providers</text>
<polygon fill="#fb8072" stroke="transparent" points="668,-10 668,-30 688,-30 688,-10 668,-10"/>
<text text-anchor="start" x="691.7258" y="-15.4" font-family="sans-serif" font-size="14.00" fill="#000000"> &#160;Exports</text>
<g id="clust1" class="cluster">
<title>cluster_TsDatepickerModule</title>
<polygon fill="none" stroke="#000000" stroke-dasharray="1,5" points="8,-70 8,-268 1012,-268 1012,-70 8,-70"/>
</g>
<g id="clust2" class="cluster">
<title>cluster_TsDatepickerModule_declarations</title>
<polygon fill="none" stroke="#000000" points="832,-78 832,-130 1004,-130 1004,-78 832,-78"/>
</g>
<g id="clust4" class="cluster">
<title>cluster_TsDatepickerModule_imports</title>
<polygon fill="none" stroke="#000000" points="16,-78 16,-130 824,-130 824,-78 16,-78"/>
</g>
<g id="clust5" class="cluster">
<title>cluster_TsDatepickerModule_exports</title>
<polygon fill="none" stroke="#000000" points="414,-208 414,-260 590,-260 590,-208 414,-208"/>
</g>
<!-- TsDatepickerComponent -->
<g id="node1" class="node">
<title>TsDatepickerComponent</title>
<polygon fill="#ffffb3" stroke="#000000" points="996.2366,-122 839.7634,-122 839.7634,-86 996.2366,-86 996.2366,-122"/>
<text text-anchor="middle" x="918" y="-99.8" font-family="Times,serif" font-size="14.00" fill="#000000">TsDatepickerComponent</text>
</g>
<!-- TsDatepickerModule -->
<g id="node2" class="node">
<title>TsDatepickerModule</title>
<polygon fill="#8dd3c7" stroke="#000000" points="569.4538,-187 566.4538,-191 545.4538,-191 542.4538,-187 434.5462,-187 434.5462,-151 569.4538,-151 569.4538,-187"/>
<text text-anchor="middle" x="502" y="-164.8" font-family="Times,serif" font-size="14.00" fill="#000000">TsDatepickerModule</text>
</g>
<!-- TsDatepickerComponent&#45;&gt;TsDatepickerModule -->
<g id="edge1" class="edge">
<title>TsDatepickerComponent&#45;&gt;TsDatepickerModule</title>
<path fill="none" stroke="#000000" d="M918,-122.2921C918,-144.2057 918,-178 918,-178 918,-178 579.7634,-178 579.7634,-178"/>
<polygon fill="#000000" stroke="#000000" points="579.7635,-174.5001 569.7634,-178 579.7634,-181.5001 579.7635,-174.5001"/>
</g>
<!-- TsDatepickerComponent  -->
<g id="node9" class="node">
<title>TsDatepickerComponent </title>
<polygon fill="#fb8072" stroke="#000000" points="582.2366,-252 421.7634,-252 421.7634,-216 582.2366,-216 582.2366,-252"/>
<text text-anchor="middle" x="502" y="-229.8" font-family="Times,serif" font-size="14.00" fill="#000000">TsDatepickerComponent </text>
</g>
<!-- TsDatepickerModule&#45;&gt;TsDatepickerComponent  -->
<g id="edge8" class="edge">
<title>TsDatepickerModule&#45;&gt;TsDatepickerComponent </title>
<path fill="none" stroke="#000000" stroke-dasharray="5,2" d="M502,-187.1061C502,-187.1061 502,-205.991 502,-205.991"/>
<polygon fill="#000000" stroke="#000000" points="498.5001,-205.9909 502,-215.991 505.5001,-205.991 498.5001,-205.9909"/>
</g>
<!-- CommonModule -->
<g id="node3" class="node">
<title>CommonModule</title>
<polygon fill="#8dd3c7" stroke="#000000" points="815.6681,-122 812.6681,-126 791.6681,-126 788.6681,-122 704.3319,-122 704.3319,-86 815.6681,-86 815.6681,-122"/>
<text text-anchor="middle" x="760" y="-99.8" font-family="Times,serif" font-size="14.00" fill="#000000">CommonModule</text>
</g>
<!-- CommonModule&#45;&gt;TsDatepickerModule -->
<g id="edge2" class="edge">
<title>CommonModule&#45;&gt;TsDatepickerModule</title>
<path fill="none" stroke="#000000" d="M760,-122.1061C760,-141.3391 760,-169 760,-169 760,-169 579.7865,-169 579.7865,-169"/>
<polygon fill="#000000" stroke="#000000" points="579.7865,-165.5001 569.7865,-169 579.7864,-172.5001 579.7865,-165.5001"/>
</g>
<!-- FormsModule -->
<g id="node4" class="node">
<title>FormsModule</title>
<polygon fill="#8dd3c7" stroke="#000000" points="686.8288,-122 683.8288,-126 662.8288,-126 659.8288,-122 591.1712,-122 591.1712,-86 686.8288,-86 686.8288,-122"/>
<text text-anchor="middle" x="639" y="-99.8" font-family="Times,serif" font-size="14.00" fill="#000000">FormsModule</text>
</g>
<!-- FormsModule&#45;&gt;TsDatepickerModule -->
<g id="edge3" class="edge">
<title>FormsModule&#45;&gt;TsDatepickerModule</title>
<path fill="none" stroke="#000000" d="M639,-122.027C639,-138.3976 639,-160 639,-160 639,-160 579.6973,-160 579.6973,-160"/>
<polygon fill="#000000" stroke="#000000" points="579.6973,-156.5001 569.6973,-160 579.6972,-163.5001 579.6973,-156.5001"/>
</g>
<!-- MdNativeDateModule -->
<g id="node5" class="node">
<title>MdNativeDateModule</title>
<polygon fill="#8dd3c7" stroke="#000000" points="573.238,-122 570.238,-126 549.238,-126 546.238,-122 430.762,-122 430.762,-86 573.238,-86 573.238,-122"/>
<text text-anchor="middle" x="502" y="-99.8" font-family="Times,serif" font-size="14.00" fill="#000000">MdNativeDateModule</text>
</g>
<!-- MdNativeDateModule&#45;&gt;TsDatepickerModule -->
<g id="edge4" class="edge">
<title>MdNativeDateModule&#45;&gt;TsDatepickerModule</title>
<path fill="none" stroke="#000000" d="M502,-122.1061C502,-122.1061 502,-140.991 502,-140.991"/>
<polygon fill="#000000" stroke="#000000" points="498.5001,-140.9909 502,-150.991 505.5001,-140.991 498.5001,-140.9909"/>
</g>
<!-- MdDatepickerModule -->
<g id="node6" class="node">
<title>MdDatepickerModule</title>
<polygon fill="#8dd3c7" stroke="#000000" points="412.4018,-122 409.4018,-126 388.4018,-126 385.4018,-122 271.5982,-122 271.5982,-86 412.4018,-86 412.4018,-122"/>
<text text-anchor="middle" x="342" y="-99.8" font-family="Times,serif" font-size="14.00" fill="#000000">MdDatepickerModule</text>
</g>
<!-- MdDatepickerModule&#45;&gt;TsDatepickerModule -->
<g id="edge5" class="edge">
<title>MdDatepickerModule&#45;&gt;TsDatepickerModule</title>
<path fill="none" stroke="#000000" d="M342,-122.027C342,-138.3976 342,-160 342,-160 342,-160 424.1456,-160 424.1456,-160"/>
<polygon fill="#000000" stroke="#000000" points="424.1456,-163.5001 434.1456,-160 424.1456,-156.5001 424.1456,-163.5001"/>
</g>
<!-- MdIconModule -->
<g id="node7" class="node">
<title>MdIconModule</title>
<polygon fill="#8dd3c7" stroke="#000000" points="253.8697,-122 250.8697,-126 229.8697,-126 226.8697,-122 150.1303,-122 150.1303,-86 253.8697,-86 253.8697,-122"/>
<text text-anchor="middle" x="202" y="-99.8" font-family="Times,serif" font-size="14.00" fill="#000000">MdIconModule</text>
</g>
<!-- MdIconModule&#45;&gt;TsDatepickerModule -->
<g id="edge6" class="edge">
<title>MdIconModule&#45;&gt;TsDatepickerModule</title>
<path fill="none" stroke="#000000" d="M202,-122.1061C202,-141.3391 202,-169 202,-169 202,-169 424.3001,-169 424.3001,-169"/>
<polygon fill="#000000" stroke="#000000" points="424.3001,-172.5001 434.3001,-169 424.3,-165.5001 424.3001,-172.5001"/>
</g>
<!-- MdInputModule -->
<g id="node8" class="node">
<title>MdInputModule</title>
<polygon fill="#8dd3c7" stroke="#000000" points="132.0465,-122 129.0465,-126 108.0465,-126 105.0465,-122 23.9535,-122 23.9535,-86 132.0465,-86 132.0465,-122"/>
<text text-anchor="middle" x="78" y="-99.8" font-family="Times,serif" font-size="14.00" fill="#000000">MdInputModule</text>
</g>
<!-- MdInputModule&#45;&gt;TsDatepickerModule -->
<g id="edge7" class="edge">
<title>MdInputModule&#45;&gt;TsDatepickerModule</title>
<path fill="none" stroke="#000000" d="M78,-122.2921C78,-144.2057 78,-178 78,-178 78,-178 424.3471,-178 424.3471,-178"/>
<polygon fill="#000000" stroke="#000000" points="424.3471,-181.5001 434.3471,-178 424.3471,-174.5001 424.3471,-181.5001"/>
</g>
</g>
</svg>
