<?xml version="1.0" encoding="UTF-8" standalone="no"?>
<!DOCTYPE svg PUBLIC "-//W3C//DTD SVG 1.1//EN"
 "http://www.w3.org/Graphics/SVG/1.1/DTD/svg11.dtd">
<!-- Generated by graphviz version 2.40.1 (20161225.0304)
 -->
<!-- Title: dependencies Pages: 1 -->
<svg width="574pt" height="349pt"
 viewBox="0.00 0.00 574.00 349.00" xmlns="http://www.w3.org/2000/svg" xmlns:xlink="http://www.w3.org/1999/xlink">
<g id="graph0" class="graph" transform="scale(1 1) rotate(0) translate(4 345)">
<title>dependencies</title>
<polygon fill="#ffffff" stroke="transparent" points="-4,4 -4,-345 570,-345 570,4 -4,4"/>
<text text-anchor="start" x="262.0091" y="-42.4" font-family="sans-serif" font-weight="bold" font-size="14.00" fill="#000000">Legend</text>
<polygon fill="#ffffb3" stroke="transparent" points="49,-10 49,-30 69,-30 69,-10 49,-10"/>
<text text-anchor="start" x="72.629" y="-15.4" font-family="sans-serif" font-size="14.00" fill="#000000"> &#160;Declarations</text>
<polygon fill="#8dd3c7" stroke="transparent" points="162,-10 162,-30 182,-30 182,-10 162,-10"/>
<text text-anchor="start" x="185.7251" y="-15.4" font-family="sans-serif" font-size="14.00" fill="#000000"> &#160;Module</text>
<polygon fill="#80b1d3" stroke="transparent" points="248,-10 248,-30 268,-30 268,-10 248,-10"/>
<text text-anchor="start" x="271.7812" y="-15.4" font-family="sans-serif" font-size="14.00" fill="#000000"> &#160;Bootstrap</text>
<polygon fill="#fdb462" stroke="transparent" points="345,-10 345,-30 365,-30 365,-10 345,-10"/>
<text text-anchor="start" x="368.6732" y="-15.4" font-family="sans-serif" font-size="14.00" fill="#000000"> &#160;Providers</text>
<polygon fill="#fb8072" stroke="transparent" points="441,-10 441,-30 461,-30 461,-10 441,-10"/>
<text text-anchor="start" x="464.7258" y="-15.4" font-family="sans-serif" font-size="14.00" fill="#000000"> &#160;Exports</text>
<g id="clust1" class="cluster">
<title>cluster_TsDatepickerModule</title>
<polygon fill="none" stroke="#000000" stroke-dasharray="1,5" points="8,-70 8,-333 558,-333 558,-70 8,-70"/>
</g>
<g id="clust2" class="cluster">
<title>cluster_TsDatepickerModule_declarations</title>
<polygon fill="none" stroke="#000000" points="228,-143 228,-195 400,-195 400,-143 228,-143"/>
</g>
<g id="clust3" class="cluster">
<title>cluster_TsDatepickerModule_TsDatepickerComponent_providers</title>
<polygon fill="none" stroke="#000000" points="16,-78 16,-130 550,-130 550,-78 16,-78"/>
</g>
<g id="clust4" class="cluster">
<title>cluster_TsDatepickerModule_imports</title>
<polygon fill="none" stroke="#000000" points="16,-143 16,-195 220,-195 220,-143 16,-143"/>
</g>
<g id="clust5" class="cluster">
<title>cluster_TsDatepickerModule_exports</title>
<polygon fill="none" stroke="#000000" points="128,-273 128,-325 304,-325 304,-273 128,-273"/>
</g>
<!-- TsDatepickerComponent -->
<g id="node1" class="node">
<title>TsDatepickerComponent</title>
<polygon fill="#ffffb3" stroke="#000000" points="392.2366,-187 235.7634,-187 235.7634,-151 392.2366,-151 392.2366,-187"/>
<text text-anchor="middle" x="314" y="-164.8" font-family="Times,serif" font-size="14.00" fill="#000000">TsDatepickerComponent</text>
</g>
<!-- TsDatepickerModule -->
<g id="node2" class="node">
<title>TsDatepickerModule</title>
<polygon fill="#8dd3c7" stroke="#000000" points="283.4538,-252 280.4538,-256 259.4538,-256 256.4538,-252 148.5462,-252 148.5462,-216 283.4538,-216 283.4538,-252"/>
<text text-anchor="middle" x="216" y="-229.8" font-family="Times,serif" font-size="14.00" fill="#000000">TsDatepickerModule</text>
</g>
<!-- TsDatepickerComponent&#45;&gt;TsDatepickerModule -->
<g id="edge1" class="edge">
<title>TsDatepickerComponent&#45;&gt;TsDatepickerModule</title>
<path fill="none" stroke="#000000" d="M259.5544,-187.1061C259.5544,-187.1061 259.5544,-205.991 259.5544,-205.991"/>
<polygon fill="#000000" stroke="#000000" points="256.0544,-205.9909 259.5544,-215.991 263.0544,-205.991 256.0544,-205.9909"/>
</g>
<!-- TsDatepickerComponent  -->
<g id="node5" class="node">
<title>TsDatepickerComponent </title>
<polygon fill="#fb8072" stroke="#000000" points="296.2366,-317 135.7634,-317 135.7634,-281 296.2366,-281 296.2366,-317"/>
<text text-anchor="middle" x="216" y="-294.8" font-family="Times,serif" font-size="14.00" fill="#000000">TsDatepickerComponent </text>
</g>
<!-- TsDatepickerModule&#45;&gt;TsDatepickerComponent  -->
<g id="edge4" class="edge">
<title>TsDatepickerModule&#45;&gt;TsDatepickerComponent </title>
<path fill="none" stroke="#000000" stroke-dasharray="5,2" d="M216,-252.1061C216,-252.1061 216,-270.991 216,-270.991"/>
<polygon fill="#000000" stroke="#000000" points="212.5001,-270.9909 216,-280.991 219.5001,-270.991 212.5001,-270.9909"/>
</g>
<!-- CUSTOM_DATEPICKER_CONTROL_VALUE_ACCESSOR -->
<g id="node3" class="node">
<title>CUSTOM_DATEPICKER_CONTROL_VALUE_ACCESSOR</title>
<ellipse fill="#fdb462" stroke="#000000" cx="283" cy="-104" rx="258.7331" ry="18"/>
<text text-anchor="middle" x="283" y="-99.8" font-family="Times,serif" font-size="14.00" fill="#000000">CUSTOM_DATEPICKER_CONTROL_VALUE_ACCESSOR</text>
</g>
<!-- CUSTOM_DATEPICKER_CONTROL_VALUE_ACCESSOR&#45;&gt;TsDatepickerComponent -->
<g id="edge2" class="edge">
<title>CUSTOM_DATEPICKER_CONTROL_VALUE_ACCESSOR&#45;&gt;TsDatepickerComponent</title>
<path fill="none" stroke="#000000" d="M314,-122.1061C314,-122.1061 314,-140.991 314,-140.991"/>
<polygon fill="#000000" stroke="#000000" points="310.5001,-140.9909 314,-150.991 317.5001,-140.991 310.5001,-140.9909"/>
</g>
<!-- TsValidationMessagesModule -->
<g id="node4" class="node">
<title>TsValidationMessagesModule</title>
<polygon fill="#8dd3c7" stroke="#000000" points="211.5674,-187 208.5674,-191 187.5674,-191 184.5674,-187 24.4326,-187 24.4326,-151 211.5674,-151 211.5674,-187"/>
<text text-anchor="middle" x="118" y="-164.8" font-family="Times,serif" font-size="14.00" fill="#000000">TsValidationMessagesModule</text>
</g>
<!-- TsValidationMessagesModule&#45;&gt;TsDatepickerModule -->
<g id="edge3" class="edge">
<title>TsValidationMessagesModule&#45;&gt;TsDatepickerModule</title>
<path fill="none" stroke="#000000" d="M180.0284,-187.1061C180.0284,-187.1061 180.0284,-205.991 180.0284,-205.991"/>
<polygon fill="#000000" stroke="#000000" points="176.5285,-205.9909 180.0284,-215.991 183.5285,-205.991 176.5285,-205.9909"/>
</g>
</g>
</svg>
