<?xml version="1.0" encoding="UTF-8" standalone="no"?>
<!DOCTYPE svg PUBLIC "-//W3C//DTD SVG 1.1//EN"
 "http://www.w3.org/Graphics/SVG/1.1/DTD/svg11.dtd">
<!-- Generated by graphviz version 2.40.1 (20161225.0304)
 -->
<!-- Title: dependencies Pages: 1 -->
<svg width="504pt" height="284pt"
 viewBox="0.00 0.00 504.00 284.00" xmlns="http://www.w3.org/2000/svg" xmlns:xlink="http://www.w3.org/1999/xlink">
<g id="graph0" class="graph" transform="scale(1 1) rotate(0) translate(4 280)">
<title>dependencies</title>
<polygon fill="#ffffff" stroke="transparent" points="-4,4 -4,-280 500,-280 500,4 -4,4"/>
<text text-anchor="start" x="227.0091" y="-42.4" font-family="sans-serif" font-weight="bold" font-size="14.00" fill="#000000">Legend</text>
<polygon fill="#ffffb3" stroke="transparent" points="14,-10 14,-30 34,-30 34,-10 14,-10"/>
<text text-anchor="start" x="37.629" y="-15.4" font-family="sans-serif" font-size="14.00" fill="#000000"> &#160;Declarations</text>
<polygon fill="#8dd3c7" stroke="transparent" points="127,-10 127,-30 147,-30 147,-10 127,-10"/>
<text text-anchor="start" x="150.7251" y="-15.4" font-family="sans-serif" font-size="14.00" fill="#000000"> &#160;Module</text>
<polygon fill="#80b1d3" stroke="transparent" points="213,-10 213,-30 233,-30 233,-10 213,-10"/>
<text text-anchor="start" x="236.7812" y="-15.4" font-family="sans-serif" font-size="14.00" fill="#000000"> &#160;Bootstrap</text>
<polygon fill="#fdb462" stroke="transparent" points="310,-10 310,-30 330,-30 330,-10 310,-10"/>
<text text-anchor="start" x="333.6732" y="-15.4" font-family="sans-serif" font-size="14.00" fill="#000000"> &#160;Providers</text>
<polygon fill="#fb8072" stroke="transparent" points="406,-10 406,-30 426,-30 426,-10 406,-10"/>
<text text-anchor="start" x="429.7258" y="-15.4" font-family="sans-serif" font-size="14.00" fill="#000000"> &#160;Exports</text>
<g id="clust1" class="cluster">
<title>cluster_TsChart2Module</title>
<polygon fill="none" stroke="#000000" stroke-dasharray="1,5" points="64,-70 64,-268 432,-268 432,-70 64,-70"/>
</g>
<g id="clust2" class="cluster">
<title>cluster_TsChart2Module_declarations</title>
<polygon fill="none" stroke="#000000" points="274,-78 274,-130 424,-130 424,-78 274,-78"/>
</g>
<g id="clust5" class="cluster">
<title>cluster_TsChart2Module_exports</title>
<polygon fill="none" stroke="#000000" points="182,-208 182,-260 334,-260 334,-208 182,-208"/>
</g>
<g id="clust7" class="cluster">
<title>cluster_TsChart2Module_providers</title>
<polygon fill="none" stroke="#000000" points="72,-78 72,-130 266,-130 266,-78 72,-78"/>
</g>
<!-- TsChart2Component -->
<g id="node1" class="node">
<title>TsChart2Component</title>
<polygon fill="#ffffb3" stroke="#000000" points="415.9327,-122 282.0673,-122 282.0673,-86 415.9327,-86 415.9327,-122"/>
<text text-anchor="middle" x="349" y="-99.8" font-family="Times,serif" font-size="14.00" fill="#000000">TsChart2Component</text>
</g>
<!-- TsChart2Module -->
<g id="node2" class="node">
<title>TsChart2Module</title>
<polygon fill="#8dd3c7" stroke="#000000" points="313.6499,-187 310.6499,-191 289.6499,-191 286.6499,-187 202.3501,-187 202.3501,-151 313.6499,-151 313.6499,-187"/>
<text text-anchor="middle" x="258" y="-164.8" font-family="Times,serif" font-size="14.00" fill="#000000">TsChart2Module</text>
</g>
<!-- TsChart2Component&#45;&gt;TsChart2Module -->
<g id="edge1" class="edge">
<title>TsChart2Component&#45;&gt;TsChart2Module</title>
<path fill="none" stroke="#000000" d="M298.0544,-122.1061C298.0544,-122.1061 298.0544,-140.991 298.0544,-140.991"/>
<polygon fill="#000000" stroke="#000000" points="294.5544,-140.9909 298.0544,-150.991 301.5544,-140.991 294.5544,-140.9909"/>
</g>
<!-- TsChart2Component  -->
<g id="node3" class="node">
<title>TsChart2Component </title>
<polygon fill="#fb8072" stroke="#000000" points="326.432,-252 189.568,-252 189.568,-216 326.432,-216 326.432,-252"/>
<text text-anchor="middle" x="258" y="-229.8" font-family="Times,serif" font-size="14.00" fill="#000000">TsChart2Component </text>
</g>
<!-- TsChart2Module&#45;&gt;TsChart2Component  -->
<g id="edge2" class="edge">
<title>TsChart2Module&#45;&gt;TsChart2Component </title>
<path fill="none" stroke="#000000" stroke-dasharray="5,2" d="M258,-187.1061C258,-187.1061 258,-205.991 258,-205.991"/>
<polygon fill="#000000" stroke="#000000" points="254.5001,-205.9909 258,-215.991 261.5001,-205.991 254.5001,-205.9909"/>
</g>
<!-- TsAmChartsService -->
<g id="node4" class="node">
<title>TsAmChartsService</title>
<ellipse fill="#fdb462" stroke="#000000" cx="169" cy="-104" rx="89.18" ry="18"/>
<text text-anchor="middle" x="169" y="-99.8" font-family="Times,serif" font-size="14.00" fill="#000000">TsAmChartsService</text>
</g>
<!-- TsAmChartsService&#45;&gt;TsChart2Module -->
<g id="edge3" class="edge">
<title>TsAmChartsService&#45;&gt;TsChart2Module</title>
<path fill="none" stroke="#000000" d="M230.2576,-117.1537C230.2576,-117.1537 230.2576,-140.6938 230.2576,-140.6938"/>
<polygon fill="#000000" stroke="#000000" points="226.7577,-140.6938 230.2576,-150.6938 233.7577,-140.6939 226.7577,-140.6938"/>
</g>
</g>
</svg>
