<?xml version="1.0" encoding="UTF-8" standalone="no"?>
<!DOCTYPE svg PUBLIC "-//W3C//DTD SVG 1.1//EN"
 "http://www.w3.org/Graphics/SVG/1.1/DTD/svg11.dtd">
<!-- Generated by graphviz version 2.40.1 (20161225.0304)
 -->
<!-- Title: dependencies Pages: 1 -->
<svg width="504pt" height="284pt"
 viewBox="0.00 0.00 504.00 284.00" xmlns="http://www.w3.org/2000/svg" xmlns:xlink="http://www.w3.org/1999/xlink">
<g id="graph0" class="graph" transform="scale(1 1) rotate(0) translate(4 280)">
<title>dependencies</title>
<polygon fill="#ffffff" stroke="transparent" points="-4,4 -4,-280 500,-280 500,4 -4,4"/>
<text text-anchor="start" x="227.0091" y="-42.4" font-family="sans-serif" font-weight="bold" font-size="14.00" fill="#000000">Legend</text>
<polygon fill="#ffffb3" stroke="transparent" points="14,-10 14,-30 34,-30 34,-10 14,-10"/>
<text text-anchor="start" x="37.629" y="-15.4" font-family="sans-serif" font-size="14.00" fill="#000000"> &#160;Declarations</text>
<polygon fill="#8dd3c7" stroke="transparent" points="127,-10 127,-30 147,-30 147,-10 127,-10"/>
<text text-anchor="start" x="150.7251" y="-15.4" font-family="sans-serif" font-size="14.00" fill="#000000"> &#160;Module</text>
<polygon fill="#80b1d3" stroke="transparent" points="213,-10 213,-30 233,-30 233,-10 213,-10"/>
<text text-anchor="start" x="236.7812" y="-15.4" font-family="sans-serif" font-size="14.00" fill="#000000"> &#160;Bootstrap</text>
<polygon fill="#fdb462" stroke="transparent" points="310,-10 310,-30 330,-30 330,-10 310,-10"/>
<text text-anchor="start" x="333.6732" y="-15.4" font-family="sans-serif" font-size="14.00" fill="#000000"> &#160;Providers</text>
<polygon fill="#fb8072" stroke="transparent" points="406,-10 406,-30 426,-30 426,-10 406,-10"/>
<text text-anchor="start" x="429.7258" y="-15.4" font-family="sans-serif" font-size="14.00" fill="#000000"> &#160;Exports</text>
<g id="clust1" class="cluster">
<title>cluster_TsCopyModule</title>
<polygon fill="none" stroke="#000000" stroke-dasharray="1,5" points="74,-70 74,-268 422,-268 422,-70 74,-70"/>
</g>
<g id="clust2" class="cluster">
<title>cluster_TsCopyModule_declarations</title>
<polygon fill="none" stroke="#000000" points="272,-78 272,-130 414,-130 414,-78 272,-78"/>
</g>
<g id="clust5" class="cluster">
<title>cluster_TsCopyModule_exports</title>
<polygon fill="none" stroke="#000000" points="184,-208 184,-260 330,-260 330,-208 184,-208"/>
</g>
<g id="clust7" class="cluster">
<title>cluster_TsCopyModule_providers</title>
<polygon fill="none" stroke="#000000" points="82,-78 82,-130 264,-130 264,-78 82,-78"/>
</g>
<!-- TsCopyComponent -->
<g id="node1" class="node">
<title>TsCopyComponent</title>
<polygon fill="#ffffb3" stroke="#000000" points="405.6666,-122 280.3334,-122 280.3334,-86 405.6666,-86 405.6666,-122"/>
<text text-anchor="middle" x="343" y="-99.8" font-family="Times,serif" font-size="14.00" fill="#000000">TsCopyComponent</text>
</g>
<!-- TsCopyModule -->
<g id="node2" class="node">
<title>TsCopyModule</title>
<polygon fill="#8dd3c7" stroke="#000000" points="308.8837,-187 305.8837,-191 284.8837,-191 281.8837,-187 205.1163,-187 205.1163,-151 308.8837,-151 308.8837,-187"/>
<text text-anchor="middle" x="257" y="-164.8" font-family="Times,serif" font-size="14.00" fill="#000000">TsCopyModule</text>
</g>
<!-- TsCopyComponent&#45;&gt;TsCopyModule -->
<g id="edge1" class="edge">
<title>TsCopyComponent&#45;&gt;TsCopyModule</title>
<path fill="none" stroke="#000000" d="M294.5544,-122.1061C294.5544,-122.1061 294.5544,-140.991 294.5544,-140.991"/>
<polygon fill="#000000" stroke="#000000" points="291.0544,-140.9909 294.5544,-150.991 298.0544,-140.991 291.0544,-140.9909"/>
</g>
<!-- TsCopyComponent  -->
<g id="node3" class="node">
<title>TsCopyComponent </title>
<polygon fill="#fb8072" stroke="#000000" points="321.6663,-252 192.3337,-252 192.3337,-216 321.6663,-216 321.6663,-252"/>
<text text-anchor="middle" x="257" y="-229.8" font-family="Times,serif" font-size="14.00" fill="#000000">TsCopyComponent </text>
</g>
<!-- TsCopyModule&#45;&gt;TsCopyComponent  -->
<g id="edge2" class="edge">
<title>TsCopyModule&#45;&gt;TsCopyComponent </title>
<path fill="none" stroke="#000000" stroke-dasharray="5,2" d="M257,-187.1061C257,-187.1061 257,-205.991 257,-205.991"/>
<polygon fill="#000000" stroke="#000000" points="253.5001,-205.9909 257,-215.991 260.5001,-205.991 253.5001,-205.9909"/>
</g>
<!-- TsWindowService -->
<g id="node4" class="node">
<title>TsWindowService</title>
<ellipse fill="#fdb462" stroke="#000000" cx="173" cy="-104" rx="82.8052" ry="18"/>
<text text-anchor="middle" x="173" y="-99.8" font-family="Times,serif" font-size="14.00" fill="#000000">TsWindowService</text>
</g>
<!-- TsWindowService&#45;&gt;TsCopyModule -->
<g id="edge3" class="edge">
<title>TsWindowService&#45;&gt;TsCopyModule</title>
<path fill="none" stroke="#000000" d="M230.4804,-117.1537C230.4804,-117.1537 230.4804,-140.6938 230.4804,-140.6938"/>
<polygon fill="#000000" stroke="#000000" points="226.9805,-140.6938 230.4804,-150.6938 233.9805,-140.6939 226.9805,-140.6938"/>
</g>
</g>
</svg>
