<?xml version="1.0" encoding="UTF-8" standalone="no"?>
<!DOCTYPE svg PUBLIC "-//W3C//DTD SVG 1.1//EN"
 "http://www.w3.org/Graphics/SVG/1.1/DTD/svg11.dtd">
<!-- Generated by graphviz version 2.40.1 (20161225.0304)
 -->
<!-- Title: dependencies Pages: 1 -->
<svg width="504pt" height="284pt"
 viewBox="0.00 0.00 504.00 284.00" xmlns="http://www.w3.org/2000/svg" xmlns:xlink="http://www.w3.org/1999/xlink">
<g id="graph0" class="graph" transform="scale(1 1) rotate(0) translate(4 280)">
<title>dependencies</title>
<polygon fill="#ffffff" stroke="transparent" points="-4,4 -4,-280 500,-280 500,4 -4,4"/>
<text text-anchor="start" x="227.0091" y="-42.4" font-family="sans-serif" font-weight="bold" font-size="14.00" fill="#000000">Legend</text>
<polygon fill="#ffffb3" stroke="transparent" points="14,-10 14,-30 34,-30 34,-10 14,-10"/>
<text text-anchor="start" x="37.629" y="-15.4" font-family="sans-serif" font-size="14.00" fill="#000000"> &#160;Declarations</text>
<polygon fill="#8dd3c7" stroke="transparent" points="127,-10 127,-30 147,-30 147,-10 127,-10"/>
<text text-anchor="start" x="150.7251" y="-15.4" font-family="sans-serif" font-size="14.00" fill="#000000"> &#160;Module</text>
<polygon fill="#80b1d3" stroke="transparent" points="213,-10 213,-30 233,-30 233,-10 213,-10"/>
<text text-anchor="start" x="236.7812" y="-15.4" font-family="sans-serif" font-size="14.00" fill="#000000"> &#160;Bootstrap</text>
<polygon fill="#fdb462" stroke="transparent" points="310,-10 310,-30 330,-30 330,-10 310,-10"/>
<text text-anchor="start" x="333.6732" y="-15.4" font-family="sans-serif" font-size="14.00" fill="#000000"> &#160;Providers</text>
<polygon fill="#fb8072" stroke="transparent" points="406,-10 406,-30 426,-30 426,-10 406,-10"/>
<text text-anchor="start" x="429.7258" y="-15.4" font-family="sans-serif" font-size="14.00" fill="#000000"> &#160;Exports</text>
<g id="clust1" class="cluster">
<title>cluster_TsCopyModule</title>
<polygon fill="none" stroke="#000000" stroke-dasharray="1,5" points="84,-70 84,-268 412,-268 412,-70 84,-70"/>
</g>
<g id="clust2" class="cluster">
<title>cluster_TsCopyModule_declarations</title>
<polygon fill="none" stroke="#000000" points="262,-78 262,-130 404,-130 404,-78 262,-78"/>
</g>
<g id="clust5" class="cluster">
<title>cluster_TsCopyModule_exports</title>
<polygon fill="none" stroke="#000000" points="179,-208 179,-260 325,-260 325,-208 179,-208"/>
</g>
<g id="clust7" class="cluster">
<title>cluster_TsCopyModule_providers</title>
<polygon fill="none" stroke="#000000" points="92,-78 92,-130 254,-130 254,-78 92,-78"/>
</g>
<!-- TsCopyComponent -->
<g id="node1" class="node">
<title>TsCopyComponent</title>
<polygon fill="#ffffb3" stroke="#000000" points="395.6666,-122 270.3334,-122 270.3334,-86 395.6666,-86 395.6666,-122"/>
<text text-anchor="middle" x="333" y="-99.8" font-family="Times,serif" font-size="14.00" fill="#000000">TsCopyComponent</text>
</g>
<!-- TsCopyModule -->
<g id="node2" class="node">
<title>TsCopyModule</title>
<polygon fill="#8dd3c7" stroke="#000000" points="303.8837,-187 300.8837,-191 279.8837,-191 276.8837,-187 200.1163,-187 200.1163,-151 303.8837,-151 303.8837,-187"/>
<text text-anchor="middle" x="252" y="-164.8" font-family="Times,serif" font-size="14.00" fill="#000000">TsCopyModule</text>
</g>
<!-- TsCopyComponent&#45;&gt;TsCopyModule -->
<g id="edge1" class="edge">
<title>TsCopyComponent&#45;&gt;TsCopyModule</title>
<path fill="none" stroke="#000000" d="M287.0544,-122.1061C287.0544,-122.1061 287.0544,-140.991 287.0544,-140.991"/>
<polygon fill="#000000" stroke="#000000" points="283.5544,-140.9909 287.0544,-150.991 290.5544,-140.991 283.5544,-140.9909"/>
</g>
<!-- TsCopyComponent  -->
<g id="node3" class="node">
<title>TsCopyComponent </title>
<polygon fill="#fb8072" stroke="#000000" points="316.6663,-252 187.3337,-252 187.3337,-216 316.6663,-216 316.6663,-252"/>
<text text-anchor="middle" x="252" y="-229.8" font-family="Times,serif" font-size="14.00" fill="#000000">TsCopyComponent </text>
</g>
<!-- TsCopyModule&#45;&gt;TsCopyComponent  -->
<g id="edge2" class="edge">
<title>TsCopyModule&#45;&gt;TsCopyComponent </title>
<path fill="none" stroke="#000000" stroke-dasharray="5,2" d="M252,-187.1061C252,-187.1061 252,-205.991 252,-205.991"/>
<polygon fill="#000000" stroke="#000000" points="248.5001,-205.9909 252,-215.991 255.5001,-205.991 248.5001,-205.9909"/>
</g>
<!-- WindowService -->
<g id="node4" class="node">
<title>WindowService</title>
<ellipse fill="#fdb462" stroke="#000000" cx="173" cy="-104" rx="73.4959" ry="18"/>
<text text-anchor="middle" x="173" y="-99.8" font-family="Times,serif" font-size="14.00" fill="#000000">WindowService</text>
</g>
<!-- WindowService&#45;&gt;TsCopyModule -->
<g id="edge3" class="edge">
<title>WindowService&#45;&gt;TsCopyModule</title>
<path fill="none" stroke="#000000" d="M223.1529,-117.1537C223.1529,-117.1537 223.1529,-140.6938 223.1529,-140.6938"/>
<polygon fill="#000000" stroke="#000000" points="219.653,-140.6938 223.1529,-150.6938 226.653,-140.6939 219.653,-140.6938"/>
</g>
</g>
</svg>
