<?xml version="1.0" encoding="UTF-8" standalone="no"?>
<!DOCTYPE svg PUBLIC "-//W3C//DTD SVG 1.1//EN"
 "http://www.w3.org/Graphics/SVG/1.1/DTD/svg11.dtd">
<!-- Generated by graphviz version 2.40.1 (20161225.0304)
 -->
<!-- Title: dependencies Pages: 1 -->
<svg width="598pt" height="284pt"
 viewBox="0.00 0.00 598.00 284.00" xmlns="http://www.w3.org/2000/svg" xmlns:xlink="http://www.w3.org/1999/xlink">
<g id="graph0" class="graph" transform="scale(1 1) rotate(0) translate(4 280)">
<title>dependencies</title>
<polygon fill="#ffffff" stroke="transparent" points="-4,4 -4,-280 594,-280 594,4 -4,4"/>
<text text-anchor="start" x="274.0091" y="-42.4" font-family="sans-serif" font-weight="bold" font-size="14.00" fill="#000000">Legend</text>
<polygon fill="#ffffb3" stroke="transparent" points="61,-10 61,-30 81,-30 81,-10 61,-10"/>
<text text-anchor="start" x="84.629" y="-15.4" font-family="sans-serif" font-size="14.00" fill="#000000"> &#160;Declarations</text>
<polygon fill="#8dd3c7" stroke="transparent" points="174,-10 174,-30 194,-30 194,-10 174,-10"/>
<text text-anchor="start" x="197.7251" y="-15.4" font-family="sans-serif" font-size="14.00" fill="#000000"> &#160;Module</text>
<polygon fill="#80b1d3" stroke="transparent" points="260,-10 260,-30 280,-30 280,-10 260,-10"/>
<text text-anchor="start" x="283.7812" y="-15.4" font-family="sans-serif" font-size="14.00" fill="#000000"> &#160;Bootstrap</text>
<polygon fill="#fdb462" stroke="transparent" points="357,-10 357,-30 377,-30 377,-10 357,-10"/>
<text text-anchor="start" x="380.6732" y="-15.4" font-family="sans-serif" font-size="14.00" fill="#000000"> &#160;Providers</text>
<polygon fill="#fb8072" stroke="transparent" points="453,-10 453,-30 473,-30 473,-10 453,-10"/>
<text text-anchor="start" x="476.7258" y="-15.4" font-family="sans-serif" font-size="14.00" fill="#000000"> &#160;Exports</text>
<g id="clust1" class="cluster">
<title>cluster_TsPaginationModule</title>
<polygon fill="none" stroke="#000000" stroke-dasharray="1,5" points="8,-70 8,-268 582,-268 582,-70 8,-70"/>
</g>
<g id="clust2" class="cluster">
<title>cluster_TsPaginationModule_declarations</title>
<polygon fill="none" stroke="#000000" points="402,-78 402,-130 574,-130 574,-78 402,-78"/>
</g>
<g id="clust4" class="cluster">
<title>cluster_TsPaginationModule_imports</title>
<polygon fill="none" stroke="#000000" points="16,-78 16,-130 394,-130 394,-78 16,-78"/>
</g>
<g id="clust5" class="cluster">
<title>cluster_TsPaginationModule_exports</title>
<polygon fill="none" stroke="#000000" points="179,-208 179,-260 353,-260 353,-208 179,-208"/>
</g>
<!-- TsPaginationComponent -->
<g id="node1" class="node">
<title>TsPaginationComponent</title>
<polygon fill="#ffffb3" stroke="#000000" points="565.7133,-122 410.2867,-122 410.2867,-86 565.7133,-86 565.7133,-122"/>
<text text-anchor="middle" x="488" y="-99.8" font-family="Times,serif" font-size="14.00" fill="#000000">TsPaginationComponent</text>
</g>
<!-- TsPaginationModule -->
<g id="node2" class="node">
<title>TsPaginationModule</title>
<polygon fill="#8dd3c7" stroke="#000000" points="332.9313,-187 329.9313,-191 308.9313,-191 305.9313,-187 199.0687,-187 199.0687,-151 332.9313,-151 332.9313,-187"/>
<text text-anchor="middle" x="266" y="-164.8" font-family="Times,serif" font-size="14.00" fill="#000000">TsPaginationModule</text>
</g>
<!-- TsPaginationComponent&#45;&gt;TsPaginationModule -->
<g id="edge1" class="edge">
<title>TsPaginationComponent&#45;&gt;TsPaginationModule</title>
<path fill="none" stroke="#000000" d="M488,-122.1061C488,-141.3391 488,-169 488,-169 488,-169 342.9084,-169 342.9084,-169"/>
<polygon fill="#000000" stroke="#000000" points="342.9084,-165.5001 332.9084,-169 342.9083,-172.5001 342.9084,-165.5001"/>
</g>
<!-- TsPaginationComponent  -->
<g id="node6" class="node">
<title>TsPaginationComponent </title>
<polygon fill="#fb8072" stroke="#000000" points="345.2135,-252 186.7865,-252 186.7865,-216 345.2135,-216 345.2135,-252"/>
<text text-anchor="middle" x="266" y="-229.8" font-family="Times,serif" font-size="14.00" fill="#000000">TsPaginationComponent </text>
</g>
<!-- TsPaginationModule&#45;&gt;TsPaginationComponent  -->
<g id="edge5" class="edge">
<title>TsPaginationModule&#45;&gt;TsPaginationComponent </title>
<path fill="none" stroke="#000000" stroke-dasharray="5,2" d="M266,-187.1061C266,-187.1061 266,-205.991 266,-205.991"/>
<polygon fill="#000000" stroke="#000000" points="262.5001,-205.9909 266,-215.991 269.5001,-205.991 262.5001,-205.9909"/>
</g>
<!-- TsButtonModule -->
<g id="node3" class="node">
<title>TsButtonModule</title>
<polygon fill="#8dd3c7" stroke="#000000" points="385.6653,-122 382.6653,-126 361.6653,-126 358.6653,-122 274.3347,-122 274.3347,-86 385.6653,-86 385.6653,-122"/>
<text text-anchor="middle" x="330" y="-99.8" font-family="Times,serif" font-size="14.00" fill="#000000">TsButtonModule</text>
</g>
<!-- TsButtonModule&#45;&gt;TsPaginationModule -->
<g id="edge2" class="edge">
<title>TsButtonModule&#45;&gt;TsPaginationModule</title>
<path fill="none" stroke="#000000" d="M303.4415,-122.1061C303.4415,-122.1061 303.4415,-140.991 303.4415,-140.991"/>
<polygon fill="#000000" stroke="#000000" points="299.9415,-140.9909 303.4415,-150.991 306.9415,-140.991 299.9415,-140.9909"/>
</g>
<!-- TsSelectModule -->
<g id="node4" class="node">
<title>TsSelectModule</title>
<polygon fill="#8dd3c7" stroke="#000000" points="255.7549,-122 252.7549,-126 231.7549,-126 228.7549,-122 148.2451,-122 148.2451,-86 255.7549,-86 255.7549,-122"/>
<text text-anchor="middle" x="202" y="-99.8" font-family="Times,serif" font-size="14.00" fill="#000000">TsSelectModule</text>
</g>
<!-- TsSelectModule&#45;&gt;TsPaginationModule -->
<g id="edge3" class="edge">
<title>TsSelectModule&#45;&gt;TsPaginationModule</title>
<path fill="none" stroke="#000000" d="M227.581,-122.1061C227.581,-122.1061 227.581,-140.991 227.581,-140.991"/>
<polygon fill="#000000" stroke="#000000" points="224.0811,-140.9909 227.581,-150.991 231.0811,-140.991 224.0811,-140.9909"/>
</g>
<!-- TsMenuModule -->
<g id="node5" class="node">
<title>TsMenuModule</title>
<polygon fill="#8dd3c7" stroke="#000000" points="130.2064,-122 127.2064,-126 106.2064,-126 103.2064,-122 23.7936,-122 23.7936,-86 130.2064,-86 130.2064,-122"/>
<text text-anchor="middle" x="77" y="-99.8" font-family="Times,serif" font-size="14.00" fill="#000000">TsMenuModule</text>
</g>
<!-- TsMenuModule&#45;&gt;TsPaginationModule -->
<g id="edge4" class="edge">
<title>TsMenuModule&#45;&gt;TsPaginationModule</title>
<path fill="none" stroke="#000000" d="M77,-122.1061C77,-141.3391 77,-169 77,-169 77,-169 189.0997,-169 189.0997,-169"/>
<polygon fill="#000000" stroke="#000000" points="189.0997,-172.5001 199.0997,-169 189.0997,-165.5001 189.0997,-172.5001"/>
</g>
</g>
</svg>
