<?xml version="1.0" encoding="UTF-8" standalone="no"?>
<!DOCTYPE svg PUBLIC "-//W3C//DTD SVG 1.1//EN"
 "http://www.w3.org/Graphics/SVG/1.1/DTD/svg11.dtd">
<!-- Generated by graphviz version 2.40.1 (20161225.0304)
 -->
<!-- Title: dependencies Pages: 1 -->
<svg width="730pt" height="284pt"
 viewBox="0.00 0.00 730.00 284.00" xmlns="http://www.w3.org/2000/svg" xmlns:xlink="http://www.w3.org/1999/xlink">
<g id="graph0" class="graph" transform="scale(1 1) rotate(0) translate(4 280)">
<title>dependencies</title>
<polygon fill="#ffffff" stroke="transparent" points="-4,4 -4,-280 726,-280 726,4 -4,4"/>
<text text-anchor="start" x="340.0091" y="-42.4" font-family="sans-serif" font-weight="bold" font-size="14.00" fill="#000000">Legend</text>
<polygon fill="#ffffb3" stroke="transparent" points="127,-10 127,-30 147,-30 147,-10 127,-10"/>
<text text-anchor="start" x="150.629" y="-15.4" font-family="sans-serif" font-size="14.00" fill="#000000"> &#160;Declarations</text>
<polygon fill="#8dd3c7" stroke="transparent" points="240,-10 240,-30 260,-30 260,-10 240,-10"/>
<text text-anchor="start" x="263.7251" y="-15.4" font-family="sans-serif" font-size="14.00" fill="#000000"> &#160;Module</text>
<polygon fill="#80b1d3" stroke="transparent" points="326,-10 326,-30 346,-30 346,-10 326,-10"/>
<text text-anchor="start" x="349.7812" y="-15.4" font-family="sans-serif" font-size="14.00" fill="#000000"> &#160;Bootstrap</text>
<polygon fill="#fdb462" stroke="transparent" points="423,-10 423,-30 443,-30 443,-10 423,-10"/>
<text text-anchor="start" x="446.6732" y="-15.4" font-family="sans-serif" font-size="14.00" fill="#000000"> &#160;Providers</text>
<polygon fill="#fb8072" stroke="transparent" points="519,-10 519,-30 539,-30 539,-10 519,-10"/>
<text text-anchor="start" x="542.7258" y="-15.4" font-family="sans-serif" font-size="14.00" fill="#000000"> &#160;Exports</text>
<g id="clust1" class="cluster">
<title>cluster_TsPaginationModule</title>
<polygon fill="none" stroke="#000000" stroke-dasharray="1,5" points="8,-70 8,-268 714,-268 714,-70 8,-70"/>
</g>
<g id="clust2" class="cluster">
<title>cluster_TsPaginationModule_declarations</title>
<polygon fill="none" stroke="#000000" points="534,-78 534,-130 706,-130 706,-78 534,-78"/>
</g>
<g id="clust4" class="cluster">
<title>cluster_TsPaginationModule_imports</title>
<polygon fill="none" stroke="#000000" points="16,-78 16,-130 526,-130 526,-78 16,-78"/>
</g>
<g id="clust5" class="cluster">
<title>cluster_TsPaginationModule_exports</title>
<polygon fill="none" stroke="#000000" points="247,-208 247,-260 421,-260 421,-208 247,-208"/>
</g>
<!-- TsPaginationComponent -->
<g id="node1" class="node">
<title>TsPaginationComponent</title>
<polygon fill="#ffffb3" stroke="#000000" points="697.7133,-122 542.2867,-122 542.2867,-86 697.7133,-86 697.7133,-122"/>
<text text-anchor="middle" x="620" y="-99.8" font-family="Times,serif" font-size="14.00" fill="#000000">TsPaginationComponent</text>
</g>
<!-- TsPaginationModule -->
<g id="node2" class="node">
<title>TsPaginationModule</title>
<polygon fill="#8dd3c7" stroke="#000000" points="400.9313,-187 397.9313,-191 376.9313,-191 373.9313,-187 267.0687,-187 267.0687,-151 400.9313,-151 400.9313,-187"/>
<text text-anchor="middle" x="334" y="-164.8" font-family="Times,serif" font-size="14.00" fill="#000000">TsPaginationModule</text>
</g>
<!-- TsPaginationComponent&#45;&gt;TsPaginationModule -->
<g id="edge1" class="edge">
<title>TsPaginationComponent&#45;&gt;TsPaginationModule</title>
<path fill="none" stroke="#000000" d="M620,-122.2843C620,-143.3211 620,-175 620,-175 620,-175 411.0543,-175 411.0543,-175"/>
<polygon fill="#000000" stroke="#000000" points="411.0543,-171.5001 401.0543,-175 411.0543,-178.5001 411.0543,-171.5001"/>
</g>
<!-- TsPaginationComponent  -->
<g id="node7" class="node">
<title>TsPaginationComponent </title>
<polygon fill="#fb8072" stroke="#000000" points="413.2135,-252 254.7865,-252 254.7865,-216 413.2135,-216 413.2135,-252"/>
<text text-anchor="middle" x="334" y="-229.8" font-family="Times,serif" font-size="14.00" fill="#000000">TsPaginationComponent </text>
</g>
<!-- TsPaginationModule&#45;&gt;TsPaginationComponent  -->
<g id="edge6" class="edge">
<title>TsPaginationModule&#45;&gt;TsPaginationComponent </title>
<path fill="none" stroke="#000000" stroke-dasharray="5,2" d="M334,-187.1061C334,-187.1061 334,-205.991 334,-205.991"/>
<polygon fill="#000000" stroke="#000000" points="330.5001,-205.9909 334,-215.991 337.5001,-205.991 330.5001,-205.9909"/>
</g>
<!-- TsButtonModule -->
<g id="node3" class="node">
<title>TsButtonModule</title>
<polygon fill="#8dd3c7" stroke="#000000" points="517.6653,-122 514.6653,-126 493.6653,-126 490.6653,-122 406.3347,-122 406.3347,-86 517.6653,-86 517.6653,-122"/>
<text text-anchor="middle" x="462" y="-99.8" font-family="Times,serif" font-size="14.00" fill="#000000">TsButtonModule</text>
</g>
<!-- TsButtonModule&#45;&gt;TsPaginationModule -->
<g id="edge2" class="edge">
<title>TsButtonModule&#45;&gt;TsPaginationModule</title>
<path fill="none" stroke="#000000" d="M409.7621,-122.0225C409.7621,-139.3734 409.7621,-163 409.7621,-163 409.7621,-163 408.8633,-163 408.8633,-163"/>
<polygon fill="#000000" stroke="#000000" points="410.7737,-159.5001 400.7737,-163 410.7736,-166.5001 410.7737,-159.5001"/>
</g>
<!-- TsSelectModule -->
<g id="node4" class="node">
<title>TsSelectModule</title>
<polygon fill="#8dd3c7" stroke="#000000" points="387.7549,-122 384.7549,-126 363.7549,-126 360.7549,-122 280.2451,-122 280.2451,-86 387.7549,-86 387.7549,-122"/>
<text text-anchor="middle" x="334" y="-99.8" font-family="Times,serif" font-size="14.00" fill="#000000">TsSelectModule</text>
</g>
<!-- TsSelectModule&#45;&gt;TsPaginationModule -->
<g id="edge3" class="edge">
<title>TsSelectModule&#45;&gt;TsPaginationModule</title>
<path fill="none" stroke="#000000" d="M334,-122.1061C334,-122.1061 334,-140.991 334,-140.991"/>
<polygon fill="#000000" stroke="#000000" points="330.5001,-140.9909 334,-150.991 337.5001,-140.991 330.5001,-140.9909"/>
</g>
<!-- TsMenuModule -->
<g id="node5" class="node">
<title>TsMenuModule</title>
<polygon fill="#8dd3c7" stroke="#000000" points="262.2064,-122 259.2064,-126 238.2064,-126 235.2064,-122 155.7936,-122 155.7936,-86 262.2064,-86 262.2064,-122"/>
<text text-anchor="middle" x="209" y="-99.8" font-family="Times,serif" font-size="14.00" fill="#000000">TsMenuModule</text>
</g>
<!-- TsMenuModule&#45;&gt;TsPaginationModule -->
<g id="edge4" class="edge">
<title>TsMenuModule&#45;&gt;TsPaginationModule</title>
<path fill="none" stroke="#000000" d="M258.3733,-122.0225C258.3733,-139.3734 258.3733,-163 258.3733,-163 258.3733,-163 259.2408,-163 259.2408,-163"/>
<polygon fill="#000000" stroke="#000000" points="257.0486,-166.5001 267.0486,-163 257.0486,-159.5001 257.0486,-166.5001"/>
</g>
<!-- TsTooltipModule -->
<g id="node6" class="node">
<title>TsTooltipModule</title>
<polygon fill="#8dd3c7" stroke="#000000" points="138.2716,-122 135.2716,-126 114.2716,-126 111.2716,-122 23.7284,-122 23.7284,-86 138.2716,-86 138.2716,-122"/>
<text text-anchor="middle" x="81" y="-99.8" font-family="Times,serif" font-size="14.00" fill="#000000">TsTooltipModule</text>
</g>
<!-- TsTooltipModule&#45;&gt;TsPaginationModule -->
<g id="edge5" class="edge">
<title>TsTooltipModule&#45;&gt;TsPaginationModule</title>
<path fill="none" stroke="#000000" d="M81,-122.2843C81,-143.3211 81,-175 81,-175 81,-175 257.1963,-175 257.1963,-175"/>
<polygon fill="#000000" stroke="#000000" points="257.1963,-178.5001 267.1963,-175 257.1963,-171.5001 257.1963,-178.5001"/>
</g>
</g>
</svg>
