<?xml version="1.0" encoding="UTF-8" standalone="no"?>
<!DOCTYPE svg PUBLIC "-//W3C//DTD SVG 1.1//EN"
 "http://www.w3.org/Graphics/SVG/1.1/DTD/svg11.dtd">
<!-- Generated by graphviz version 2.40.1 (20161225.0304)
 -->
<!-- Title: dependencies Pages: 1 -->
<svg width="1080pt" height="284pt"
 viewBox="0.00 0.00 1080.00 284.00" xmlns="http://www.w3.org/2000/svg" xmlns:xlink="http://www.w3.org/1999/xlink">
<g id="graph0" class="graph" transform="scale(1 1) rotate(0) translate(4 280)">
<title>dependencies</title>
<polygon fill="#ffffff" stroke="transparent" points="-4,4 -4,-280 1076,-280 1076,4 -4,4"/>
<text text-anchor="start" x="515.0091" y="-42.4" font-family="sans-serif" font-weight="bold" font-size="14.00" fill="#000000">Legend</text>
<polygon fill="#ffffb3" stroke="transparent" points="302,-10 302,-30 322,-30 322,-10 302,-10"/>
<text text-anchor="start" x="325.629" y="-15.4" font-family="sans-serif" font-size="14.00" fill="#000000"> &#160;Declarations</text>
<polygon fill="#8dd3c7" stroke="transparent" points="415,-10 415,-30 435,-30 435,-10 415,-10"/>
<text text-anchor="start" x="438.7251" y="-15.4" font-family="sans-serif" font-size="14.00" fill="#000000"> &#160;Module</text>
<polygon fill="#80b1d3" stroke="transparent" points="501,-10 501,-30 521,-30 521,-10 501,-10"/>
<text text-anchor="start" x="524.7812" y="-15.4" font-family="sans-serif" font-size="14.00" fill="#000000"> &#160;Bootstrap</text>
<polygon fill="#fdb462" stroke="transparent" points="598,-10 598,-30 618,-30 618,-10 598,-10"/>
<text text-anchor="start" x="621.6732" y="-15.4" font-family="sans-serif" font-size="14.00" fill="#000000"> &#160;Providers</text>
<polygon fill="#fb8072" stroke="transparent" points="694,-10 694,-30 714,-30 714,-10 694,-10"/>
<text text-anchor="start" x="717.7258" y="-15.4" font-family="sans-serif" font-size="14.00" fill="#000000"> &#160;Exports</text>
<g id="clust1" class="cluster">
<title>cluster_TsLoginFormModule</title>
<polygon fill="none" stroke="#000000" stroke-dasharray="1,5" points="8,-70 8,-268 1064,-268 1064,-70 8,-70"/>
</g>
<g id="clust2" class="cluster">
<title>cluster_TsLoginFormModule_declarations</title>
<polygon fill="none" stroke="#000000" points="880,-78 880,-130 1056,-130 1056,-78 880,-78"/>
</g>
<g id="clust4" class="cluster">
<title>cluster_TsLoginFormModule_imports</title>
<polygon fill="none" stroke="#000000" points="220,-78 220,-130 872,-130 872,-78 220,-78"/>
</g>
<g id="clust5" class="cluster">
<title>cluster_TsLoginFormModule_exports</title>
<polygon fill="none" stroke="#000000" points="446,-208 446,-260 624,-260 624,-208 446,-208"/>
</g>
<g id="clust7" class="cluster">
<title>cluster_TsLoginFormModule_providers</title>
<polygon fill="none" stroke="#000000" points="16,-78 16,-130 212,-130 212,-78 16,-78"/>
</g>
<!-- TsLoginFormComponent -->
<g id="node1" class="node">
<title>TsLoginFormComponent</title>
<polygon fill="#ffffb3" stroke="#000000" points="1047.6066,-122 888.3934,-122 888.3934,-86 1047.6066,-86 1047.6066,-122"/>
<text text-anchor="middle" x="968" y="-99.8" font-family="Times,serif" font-size="14.00" fill="#000000">TsLoginFormComponent</text>
</g>
<!-- TsLoginFormModule -->
<g id="node2" class="node">
<title>TsLoginFormModule</title>
<polygon fill="#8dd3c7" stroke="#000000" points="603.8244,-187 600.8244,-191 579.8244,-191 576.8244,-187 466.1756,-187 466.1756,-151 603.8244,-151 603.8244,-187"/>
<text text-anchor="middle" x="535" y="-164.8" font-family="Times,serif" font-size="14.00" fill="#000000">TsLoginFormModule</text>
</g>
<!-- TsLoginFormComponent&#45;&gt;TsLoginFormModule -->
<g id="edge1" class="edge">
<title>TsLoginFormComponent&#45;&gt;TsLoginFormModule</title>
<path fill="none" stroke="#000000" d="M968,-122.2843C968,-143.3211 968,-175 968,-175 968,-175 614.0889,-175 614.0889,-175"/>
<polygon fill="#000000" stroke="#000000" points="614.089,-171.5001 604.0889,-175 614.0889,-178.5001 614.089,-171.5001"/>
</g>
<!-- TsLoginFormComponent  -->
<g id="node8" class="node">
<title>TsLoginFormComponent </title>
<polygon fill="#fb8072" stroke="#000000" points="616.1071,-252 453.8929,-252 453.8929,-216 616.1071,-216 616.1071,-252"/>
<text text-anchor="middle" x="535" y="-229.8" font-family="Times,serif" font-size="14.00" fill="#000000">TsLoginFormComponent </text>
</g>
<!-- TsLoginFormModule&#45;&gt;TsLoginFormComponent  -->
<g id="edge7" class="edge">
<title>TsLoginFormModule&#45;&gt;TsLoginFormComponent </title>
<path fill="none" stroke="#000000" stroke-dasharray="5,2" d="M535,-187.1061C535,-187.1061 535,-205.991 535,-205.991"/>
<polygon fill="#000000" stroke="#000000" points="531.5001,-205.9909 535,-215.991 538.5001,-205.991 531.5001,-205.9909"/>
</g>
<!-- TsInputModule -->
<g id="node3" class="node">
<title>TsInputModule</title>
<polygon fill="#8dd3c7" stroke="#000000" points="863.5982,-122 860.5982,-126 839.5982,-126 836.5982,-122 760.4018,-122 760.4018,-86 863.5982,-86 863.5982,-122"/>
<text text-anchor="middle" x="812" y="-99.8" font-family="Times,serif" font-size="14.00" fill="#000000">TsInputModule</text>
</g>
<!-- TsInputModule&#45;&gt;TsLoginFormModule -->
<g id="edge2" class="edge">
<title>TsInputModule&#45;&gt;TsLoginFormModule</title>
<path fill="none" stroke="#000000" d="M812,-122.0225C812,-139.3734 812,-163 812,-163 812,-163 613.8278,-163 613.8278,-163"/>
<polygon fill="#000000" stroke="#000000" points="613.8279,-159.5001 603.8278,-163 613.8278,-166.5001 613.8279,-159.5001"/>
</g>
<!-- TsCheckboxModule -->
<g id="node4" class="node">
<title>TsCheckboxModule</title>
<polygon fill="#8dd3c7" stroke="#000000" points="742.3132,-122 739.3132,-126 718.3132,-126 715.3132,-122 611.6868,-122 611.6868,-86 742.3132,-86 742.3132,-122"/>
<text text-anchor="middle" x="677" y="-99.8" font-family="Times,serif" font-size="14.00" fill="#000000">TsCheckboxModule</text>
</g>
<!-- TsCheckboxModule&#45;&gt;TsLoginFormModule -->
<g id="edge3" class="edge">
<title>TsCheckboxModule&#45;&gt;TsLoginFormModule</title>
<path fill="none" stroke="#000000" d="M611.5265,-104C604.0223,-104 598.9934,-104 598.9934,-104 598.9934,-104 598.9934,-140.8939 598.9934,-140.8939"/>
<polygon fill="#000000" stroke="#000000" points="595.4934,-140.8938 598.9934,-150.8939 602.4934,-140.8939 595.4934,-140.8938"/>
</g>
<!-- TsSpacingModule -->
<g id="node5" class="node">
<title>TsSpacingModule</title>
<polygon fill="#8dd3c7" stroke="#000000" points="594.1499,-122 591.1499,-126 570.1499,-126 567.1499,-122 475.8501,-122 475.8501,-86 594.1499,-86 594.1499,-122"/>
<text text-anchor="middle" x="535" y="-99.8" font-family="Times,serif" font-size="14.00" fill="#000000">TsSpacingModule</text>
</g>
<!-- TsSpacingModule&#45;&gt;TsLoginFormModule -->
<g id="edge4" class="edge">
<title>TsSpacingModule&#45;&gt;TsLoginFormModule</title>
<path fill="none" stroke="#000000" d="M535,-122.1061C535,-122.1061 535,-140.991 535,-140.991"/>
<polygon fill="#000000" stroke="#000000" points="531.5001,-140.9909 535,-150.991 538.5001,-140.991 531.5001,-140.9909"/>
</g>
<!-- TsButtonModule -->
<g id="node6" class="node">
<title>TsButtonModule</title>
<polygon fill="#8dd3c7" stroke="#000000" points="457.6653,-122 454.6653,-126 433.6653,-126 430.6653,-122 346.3347,-122 346.3347,-86 457.6653,-86 457.6653,-122"/>
<text text-anchor="middle" x="402" y="-99.8" font-family="Times,serif" font-size="14.00" fill="#000000">TsButtonModule</text>
</g>
<!-- TsButtonModule&#45;&gt;TsLoginFormModule -->
<g id="edge5" class="edge">
<title>TsButtonModule&#45;&gt;TsLoginFormModule</title>
<path fill="none" stroke="#000000" d="M457.7015,-104C465.5481,-104 471.0067,-104 471.0067,-104 471.0067,-104 471.0067,-140.8939 471.0067,-140.8939"/>
<polygon fill="#000000" stroke="#000000" points="467.5067,-140.8938 471.0067,-150.8939 474.5067,-140.8939 467.5067,-140.8938"/>
</g>
<!-- TsLinkModule -->
<g id="node7" class="node">
<title>TsLinkModule</title>
<polygon fill="#8dd3c7" stroke="#000000" points="327.9902,-122 324.9902,-126 303.9902,-126 300.9902,-122 228.0098,-122 228.0098,-86 327.9902,-86 327.9902,-122"/>
<text text-anchor="middle" x="278" y="-99.8" font-family="Times,serif" font-size="14.00" fill="#000000">TsLinkModule</text>
</g>
<!-- TsLinkModule&#45;&gt;TsLoginFormModule -->
<g id="edge6" class="edge">
<title>TsLinkModule&#45;&gt;TsLoginFormModule</title>
<path fill="none" stroke="#000000" d="M278,-122.0225C278,-139.3734 278,-163 278,-163 278,-163 456.1287,-163 456.1287,-163"/>
<polygon fill="#000000" stroke="#000000" points="456.1288,-166.5001 466.1287,-163 456.1287,-159.5001 456.1288,-166.5001"/>
</g>
<!-- TsValidatorsService -->
<g id="node9" class="node">
<title>TsValidatorsService</title>
<ellipse fill="#fdb462" stroke="#000000" cx="114" cy="-104" rx="89.7402" ry="18"/>
<text text-anchor="middle" x="114" y="-99.8" font-family="Times,serif" font-size="14.00" fill="#000000">TsValidatorsService</text>
</g>
<!-- TsValidatorsService&#45;&gt;TsLoginFormModule -->
<g id="edge8" class="edge">
<title>TsValidatorsService&#45;&gt;TsLoginFormModule</title>
<path fill="none" stroke="#000000" d="M114,-122.2843C114,-143.3211 114,-175 114,-175 114,-175 455.9518,-175 455.9518,-175"/>
<polygon fill="#000000" stroke="#000000" points="455.9519,-178.5001 465.9518,-175 455.9518,-171.5001 455.9519,-178.5001"/>
</g>
</g>
</svg>
