<?xml version="1.0" encoding="UTF-8" standalone="no"?>
<!DOCTYPE svg PUBLIC "-//W3C//DTD SVG 1.1//EN"
 "http://www.w3.org/Graphics/SVG/1.1/DTD/svg11.dtd">
<!-- Generated by graphviz version 2.40.1 (20161225.0304)
 -->
<!-- Title: dependencies Pages: 1 -->
<svg width="1080pt" height="284pt"
 viewBox="0.00 0.00 1080.00 284.00" xmlns="http://www.w3.org/2000/svg" xmlns:xlink="http://www.w3.org/1999/xlink">
<g id="graph0" class="graph" transform="scale(1 1) rotate(0) translate(4 280)">
<title>dependencies</title>
<polygon fill="#ffffff" stroke="transparent" points="-4,4 -4,-280 1076,-280 1076,4 -4,4"/>
<text text-anchor="start" x="515.0091" y="-42.4" font-family="sans-serif" font-weight="bold" font-size="14.00" fill="#000000">Legend</text>
<polygon fill="#ffffb3" stroke="transparent" points="302,-10 302,-30 322,-30 322,-10 302,-10"/>
<text text-anchor="start" x="325.629" y="-15.4" font-family="sans-serif" font-size="14.00" fill="#000000"> &#160;Declarations</text>
<polygon fill="#8dd3c7" stroke="transparent" points="415,-10 415,-30 435,-30 435,-10 415,-10"/>
<text text-anchor="start" x="438.7251" y="-15.4" font-family="sans-serif" font-size="14.00" fill="#000000"> &#160;Module</text>
<polygon fill="#80b1d3" stroke="transparent" points="501,-10 501,-30 521,-30 521,-10 501,-10"/>
<text text-anchor="start" x="524.7812" y="-15.4" font-family="sans-serif" font-size="14.00" fill="#000000"> &#160;Bootstrap</text>
<polygon fill="#fdb462" stroke="transparent" points="598,-10 598,-30 618,-30 618,-10 598,-10"/>
<text text-anchor="start" x="621.6732" y="-15.4" font-family="sans-serif" font-size="14.00" fill="#000000"> &#160;Providers</text>
<polygon fill="#fb8072" stroke="transparent" points="694,-10 694,-30 714,-30 714,-10 694,-10"/>
<text text-anchor="start" x="717.7258" y="-15.4" font-family="sans-serif" font-size="14.00" fill="#000000"> &#160;Exports</text>
<g id="clust1" class="cluster">
<title>cluster_TsLoginFormModule</title>
<polygon fill="none" stroke="#000000" stroke-dasharray="1,5" points="8,-70 8,-268 1064,-268 1064,-70 8,-70"/>
</g>
<g id="clust2" class="cluster">
<title>cluster_TsLoginFormModule_declarations</title>
<polygon fill="none" stroke="#000000" points="880,-78 880,-130 1056,-130 1056,-78 880,-78"/>
</g>
<g id="clust4" class="cluster">
<title>cluster_TsLoginFormModule_imports</title>
<polygon fill="none" stroke="#000000" points="220,-78 220,-130 872,-130 872,-78 220,-78"/>
</g>
<g id="clust5" class="cluster">
<title>cluster_TsLoginFormModule_exports</title>
<polygon fill="none" stroke="#000000" points="445,-208 445,-260 623,-260 623,-208 445,-208"/>
</g>
<g id="clust7" class="cluster">
<title>cluster_TsLoginFormModule_providers</title>
<polygon fill="none" stroke="#000000" points="16,-78 16,-130 212,-130 212,-78 16,-78"/>
</g>
<!-- TsLoginFormComponent -->
<g id="node1" class="node">
<title>TsLoginFormComponent</title>
<polygon fill="#ffffb3" stroke="#000000" points="1047.6066,-122 888.3934,-122 888.3934,-86 1047.6066,-86 1047.6066,-122"/>
<text text-anchor="middle" x="968" y="-99.8" font-family="Times,serif" font-size="14.00" fill="#000000">TsLoginFormComponent</text>
</g>
<!-- TsLoginFormModule -->
<g id="node2" class="node">
<title>TsLoginFormModule</title>
<polygon fill="#8dd3c7" stroke="#000000" points="602.8244,-187 599.8244,-191 578.8244,-191 575.8244,-187 465.1756,-187 465.1756,-151 602.8244,-151 602.8244,-187"/>
<text text-anchor="middle" x="534" y="-164.8" font-family="Times,serif" font-size="14.00" fill="#000000">TsLoginFormModule</text>
</g>
<!-- TsLoginFormComponent&#45;&gt;TsLoginFormModule -->
<g id="edge1" class="edge">
<title>TsLoginFormComponent&#45;&gt;TsLoginFormModule</title>
<path fill="none" stroke="#000000" d="M968,-122.2921C968,-144.2057 968,-178 968,-178 968,-178 612.7686,-178 612.7686,-178"/>
<polygon fill="#000000" stroke="#000000" points="612.7686,-174.5001 602.7686,-178 612.7686,-181.5001 612.7686,-174.5001"/>
</g>
<!-- TsLoginFormComponent  -->
<g id="node8" class="node">
<title>TsLoginFormComponent </title>
<polygon fill="#fb8072" stroke="#000000" points="615.1071,-252 452.8929,-252 452.8929,-216 615.1071,-216 615.1071,-252"/>
<text text-anchor="middle" x="534" y="-229.8" font-family="Times,serif" font-size="14.00" fill="#000000">TsLoginFormComponent </text>
</g>
<!-- TsLoginFormModule&#45;&gt;TsLoginFormComponent  -->
<g id="edge7" class="edge">
<title>TsLoginFormModule&#45;&gt;TsLoginFormComponent </title>
<path fill="none" stroke="#000000" stroke-dasharray="5,2" d="M534,-187.1061C534,-187.1061 534,-205.991 534,-205.991"/>
<polygon fill="#000000" stroke="#000000" points="530.5001,-205.9909 534,-215.991 537.5001,-205.991 530.5001,-205.9909"/>
</g>
<!-- TsButtonModule -->
<g id="node3" class="node">
<title>TsButtonModule</title>
<polygon fill="#8dd3c7" stroke="#000000" points="863.6653,-122 860.6653,-126 839.6653,-126 836.6653,-122 752.3347,-122 752.3347,-86 863.6653,-86 863.6653,-122"/>
<text text-anchor="middle" x="808" y="-99.8" font-family="Times,serif" font-size="14.00" fill="#000000">TsButtonModule</text>
</g>
<!-- TsButtonModule&#45;&gt;TsLoginFormModule -->
<g id="edge2" class="edge">
<title>TsButtonModule&#45;&gt;TsLoginFormModule</title>
<path fill="none" stroke="#000000" d="M808,-122.1061C808,-141.3391 808,-169 808,-169 808,-169 612.7881,-169 612.7881,-169"/>
<polygon fill="#000000" stroke="#000000" points="612.7881,-165.5001 602.7881,-169 612.7881,-172.5001 612.7881,-165.5001"/>
</g>
<!-- TsCheckboxModule -->
<g id="node4" class="node">
<title>TsCheckboxModule</title>
<polygon fill="#8dd3c7" stroke="#000000" points="734.3132,-122 731.3132,-126 710.3132,-126 707.3132,-122 603.6868,-122 603.6868,-86 734.3132,-86 734.3132,-122"/>
<text text-anchor="middle" x="669" y="-99.8" font-family="Times,serif" font-size="14.00" fill="#000000">TsCheckboxModule</text>
</g>
<!-- TsCheckboxModule&#45;&gt;TsLoginFormModule -->
<g id="edge3" class="edge">
<title>TsCheckboxModule&#45;&gt;TsLoginFormModule</title>
<path fill="none" stroke="#000000" d="M609.5735,-122.027C609.5735,-138.3976 609.5735,-160 609.5735,-160 609.5735,-160 608.9028,-160 608.9028,-160"/>
<polygon fill="#000000" stroke="#000000" points="612.8669,-156.5002 602.8668,-160 612.8668,-163.5002 612.8669,-156.5002"/>
</g>
<!-- TsInputModule -->
<g id="node5" class="node">
<title>TsInputModule</title>
<polygon fill="#8dd3c7" stroke="#000000" points="585.5982,-122 582.5982,-126 561.5982,-126 558.5982,-122 482.4018,-122 482.4018,-86 585.5982,-86 585.5982,-122"/>
<text text-anchor="middle" x="534" y="-99.8" font-family="Times,serif" font-size="14.00" fill="#000000">TsInputModule</text>
</g>
<!-- TsInputModule&#45;&gt;TsLoginFormModule -->
<g id="edge4" class="edge">
<title>TsInputModule&#45;&gt;TsLoginFormModule</title>
<path fill="none" stroke="#000000" d="M534,-122.1061C534,-122.1061 534,-140.991 534,-140.991"/>
<polygon fill="#000000" stroke="#000000" points="530.5001,-140.9909 534,-150.991 537.5001,-140.991 530.5001,-140.9909"/>
</g>
<!-- TsLinkModule -->
<g id="node6" class="node">
<title>TsLinkModule</title>
<polygon fill="#8dd3c7" stroke="#000000" points="463.9902,-122 460.9902,-126 439.9902,-126 436.9902,-122 364.0098,-122 364.0098,-86 463.9902,-86 463.9902,-122"/>
<text text-anchor="middle" x="414" y="-99.8" font-family="Times,serif" font-size="14.00" fill="#000000">TsLinkModule</text>
</g>
<!-- TsLinkModule&#45;&gt;TsLoginFormModule -->
<g id="edge5" class="edge">
<title>TsLinkModule&#45;&gt;TsLoginFormModule</title>
<path fill="none" stroke="#000000" d="M458.3459,-122.027C458.3459,-138.3976 458.3459,-160 458.3459,-160 458.3459,-160 459.0441,-160 459.0441,-160"/>
<polygon fill="#000000" stroke="#000000" points="455.3277,-163.5002 465.3277,-160 455.3276,-156.5002 455.3277,-163.5002"/>
</g>
<!-- TsSpacingModule -->
<g id="node7" class="node">
<title>TsSpacingModule</title>
<polygon fill="#8dd3c7" stroke="#000000" points="346.1499,-122 343.1499,-126 322.1499,-126 319.1499,-122 227.8501,-122 227.8501,-86 346.1499,-86 346.1499,-122"/>
<text text-anchor="middle" x="287" y="-99.8" font-family="Times,serif" font-size="14.00" fill="#000000">TsSpacingModule</text>
</g>
<!-- TsSpacingModule&#45;&gt;TsLoginFormModule -->
<g id="edge6" class="edge">
<title>TsSpacingModule&#45;&gt;TsLoginFormModule</title>
<path fill="none" stroke="#000000" d="M287,-122.1061C287,-141.3391 287,-169 287,-169 287,-169 455.1967,-169 455.1967,-169"/>
<polygon fill="#000000" stroke="#000000" points="455.1968,-172.5001 465.1967,-169 455.1967,-165.5001 455.1968,-172.5001"/>
</g>
<!-- TsValidatorsService -->
<g id="node9" class="node">
<title>TsValidatorsService</title>
<ellipse fill="#fdb462" stroke="#000000" cx="114" cy="-104" rx="89.7402" ry="18"/>
<text text-anchor="middle" x="114" y="-99.8" font-family="Times,serif" font-size="14.00" fill="#000000">TsValidatorsService</text>
</g>
<!-- TsValidatorsService&#45;&gt;TsLoginFormModule -->
<g id="edge8" class="edge">
<title>TsValidatorsService&#45;&gt;TsLoginFormModule</title>
<path fill="none" stroke="#000000" d="M114,-122.2921C114,-144.2057 114,-178 114,-178 114,-178 455.1158,-178 455.1158,-178"/>
<polygon fill="#000000" stroke="#000000" points="455.1159,-181.5001 465.1158,-178 455.1158,-174.5001 455.1159,-181.5001"/>
</g>
</g>
</svg>
