<?xml version="1.0" encoding="UTF-8" standalone="no"?>
<!DOCTYPE svg PUBLIC "-//W3C//DTD SVG 1.1//EN"
 "http://www.w3.org/Graphics/SVG/1.1/DTD/svg11.dtd">
<!-- Generated by graphviz version 2.40.1 (20161225.0304)
 -->
<!-- Title: dependencies Pages: 1 -->
<svg width="504pt" height="284pt"
 viewBox="0.00 0.00 504.00 284.00" xmlns="http://www.w3.org/2000/svg" xmlns:xlink="http://www.w3.org/1999/xlink">
<g id="graph0" class="graph" transform="scale(1 1) rotate(0) translate(4 280)">
<title>dependencies</title>
<polygon fill="#ffffff" stroke="transparent" points="-4,4 -4,-280 500,-280 500,4 -4,4"/>
<text text-anchor="start" x="227.0091" y="-42.4" font-family="sans-serif" font-weight="bold" font-size="14.00" fill="#000000">Legend</text>
<polygon fill="#ffffb3" stroke="transparent" points="14,-10 14,-30 34,-30 34,-10 14,-10"/>
<text text-anchor="start" x="37.629" y="-15.4" font-family="sans-serif" font-size="14.00" fill="#000000"> &#160;Declarations</text>
<polygon fill="#8dd3c7" stroke="transparent" points="127,-10 127,-30 147,-30 147,-10 127,-10"/>
<text text-anchor="start" x="150.7251" y="-15.4" font-family="sans-serif" font-size="14.00" fill="#000000"> &#160;Module</text>
<polygon fill="#80b1d3" stroke="transparent" points="213,-10 213,-30 233,-30 233,-10 213,-10"/>
<text text-anchor="start" x="236.7812" y="-15.4" font-family="sans-serif" font-size="14.00" fill="#000000"> &#160;Bootstrap</text>
<polygon fill="#fdb462" stroke="transparent" points="310,-10 310,-30 330,-30 330,-10 310,-10"/>
<text text-anchor="start" x="333.6732" y="-15.4" font-family="sans-serif" font-size="14.00" fill="#000000"> &#160;Providers</text>
<polygon fill="#fb8072" stroke="transparent" points="406,-10 406,-30 426,-30 426,-10 406,-10"/>
<text text-anchor="start" x="429.7258" y="-15.4" font-family="sans-serif" font-size="14.00" fill="#000000"> &#160;Exports</text>
<g id="clust1" class="cluster">
<title>cluster_TsTooltipModule</title>
<polygon fill="none" stroke="#000000" stroke-dasharray="1,5" points="27,-70 27,-268 469,-268 469,-70 27,-70"/>
</g>
<g id="clust2" class="cluster">
<title>cluster_TsTooltipModule_declarations</title>
<polygon fill="none" stroke="#000000" points="309,-78 309,-130 461,-130 461,-78 309,-78"/>
</g>
<g id="clust4" class="cluster">
<title>cluster_TsTooltipModule_imports</title>
<polygon fill="none" stroke="#000000" points="35,-78 35,-130 301,-130 301,-78 35,-78"/>
</g>
<g id="clust5" class="cluster">
<title>cluster_TsTooltipModule_exports</title>
<polygon fill="none" stroke="#000000" points="159,-208 159,-260 315,-260 315,-208 159,-208"/>
</g>
<!-- TsTooltipComponent -->
<g id="node1" class="node">
<title>TsTooltipComponent</title>
<polygon fill="#ffffb3" stroke="#000000" points="453.0547,-122 316.9453,-122 316.9453,-86 453.0547,-86 453.0547,-122"/>
<text text-anchor="middle" x="385" y="-99.8" font-family="Times,serif" font-size="14.00" fill="#000000">TsTooltipComponent</text>
</g>
<!-- TsTooltipModule -->
<g id="node2" class="node">
<title>TsTooltipModule</title>
<polygon fill="#8dd3c7" stroke="#000000" points="294.2716,-187 291.2716,-191 270.2716,-191 267.2716,-187 179.7284,-187 179.7284,-151 294.2716,-151 294.2716,-187"/>
<text text-anchor="middle" x="237" y="-164.8" font-family="Times,serif" font-size="14.00" fill="#000000">TsTooltipModule</text>
</g>
<!-- TsTooltipComponent&#45;&gt;TsTooltipModule -->
<g id="edge1" class="edge">
<title>TsTooltipComponent&#45;&gt;TsTooltipModule</title>
<path fill="none" stroke="#000000" d="M385,-122.1061C385,-141.3391 385,-169 385,-169 385,-169 304.6445,-169 304.6445,-169"/>
<polygon fill="#000000" stroke="#000000" points="304.6445,-165.5001 294.6445,-169 304.6444,-172.5001 304.6445,-165.5001"/>
</g>
<!-- TsTooltipComponent  -->
<g id="node5" class="node">
<title>TsTooltipComponent </title>
<polygon fill="#fb8072" stroke="#000000" points="307.054,-252 166.946,-252 166.946,-216 307.054,-216 307.054,-252"/>
<text text-anchor="middle" x="237" y="-229.8" font-family="Times,serif" font-size="14.00" fill="#000000">TsTooltipComponent </text>
</g>
<!-- TsTooltipModule&#45;&gt;TsTooltipComponent  -->
<g id="edge4" class="edge">
<title>TsTooltipModule&#45;&gt;TsTooltipComponent </title>
<path fill="none" stroke="#000000" stroke-dasharray="5,2" d="M237,-187.1061C237,-187.1061 237,-205.991 237,-205.991"/>
<polygon fill="#000000" stroke="#000000" points="233.5001,-205.9909 237,-215.991 240.5001,-205.991 233.5001,-205.9909"/>
</g>
<!-- CommonModule -->
<g id="node3" class="node">
<title>CommonModule</title>
<polygon fill="#8dd3c7" stroke="#000000" points="292.6681,-122 289.6681,-126 268.6681,-126 265.6681,-122 181.3319,-122 181.3319,-86 292.6681,-86 292.6681,-122"/>
<text text-anchor="middle" x="237" y="-99.8" font-family="Times,serif" font-size="14.00" fill="#000000">CommonModule</text>
</g>
<!-- CommonModule&#45;&gt;TsTooltipModule -->
<g id="edge2" class="edge">
<title>CommonModule&#45;&gt;TsTooltipModule</title>
<path fill="none" stroke="#000000" d="M237,-122.1061C237,-122.1061 237,-140.991 237,-140.991"/>
<polygon fill="#000000" stroke="#000000" points="233.5001,-140.9909 237,-150.991 240.5001,-140.991 233.5001,-140.9909"/>
</g>
<!-- MdTooltipModule -->
<g id="node4" class="node">
<title>MdTooltipModule</title>
<polygon fill="#8dd3c7" stroke="#000000" points="163.219,-122 160.219,-126 139.219,-126 136.219,-122 42.781,-122 42.781,-86 163.219,-86 163.219,-122"/>
<text text-anchor="middle" x="103" y="-99.8" font-family="Times,serif" font-size="14.00" fill="#000000">MdTooltipModule</text>
</g>
<!-- MdTooltipModule&#45;&gt;TsTooltipModule -->
<g id="edge3" class="edge">
<title>MdTooltipModule&#45;&gt;TsTooltipModule</title>
<path fill="none" stroke="#000000" d="M103,-122.1061C103,-141.3391 103,-169 103,-169 103,-169 169.3943,-169 169.3943,-169"/>
<polygon fill="#000000" stroke="#000000" points="169.3943,-172.5001 179.3943,-169 169.3942,-165.5001 169.3943,-172.5001"/>
</g>
</g>
</svg>
