<?xml version="1.0" encoding="UTF-8" standalone="no"?>
<!DOCTYPE svg PUBLIC "-//W3C//DTD SVG 1.1//EN"
 "http://www.w3.org/Graphics/SVG/1.1/DTD/svg11.dtd">
<!-- Generated by graphviz version 2.40.1 (20161225.0304)
 -->
<!-- Title: dependencies Pages: 1 -->
<svg width="864pt" height="284pt"
 viewBox="0.00 0.00 864.00 284.00" xmlns="http://www.w3.org/2000/svg" xmlns:xlink="http://www.w3.org/1999/xlink">
<g id="graph0" class="graph" transform="scale(1 1) rotate(0) translate(4 280)">
<title>dependencies</title>
<polygon fill="#ffffff" stroke="transparent" points="-4,4 -4,-280 860,-280 860,4 -4,4"/>
<text text-anchor="start" x="407.0091" y="-42.4" font-family="sans-serif" font-weight="bold" font-size="14.00" fill="#000000">Legend</text>
<polygon fill="#ffffb3" stroke="transparent" points="194,-10 194,-30 214,-30 214,-10 194,-10"/>
<text text-anchor="start" x="217.629" y="-15.4" font-family="sans-serif" font-size="14.00" fill="#000000"> &#160;Declarations</text>
<polygon fill="#8dd3c7" stroke="transparent" points="307,-10 307,-30 327,-30 327,-10 307,-10"/>
<text text-anchor="start" x="330.7251" y="-15.4" font-family="sans-serif" font-size="14.00" fill="#000000"> &#160;Module</text>
<polygon fill="#80b1d3" stroke="transparent" points="393,-10 393,-30 413,-30 413,-10 393,-10"/>
<text text-anchor="start" x="416.7812" y="-15.4" font-family="sans-serif" font-size="14.00" fill="#000000"> &#160;Bootstrap</text>
<polygon fill="#fdb462" stroke="transparent" points="490,-10 490,-30 510,-30 510,-10 490,-10"/>
<text text-anchor="start" x="513.6732" y="-15.4" font-family="sans-serif" font-size="14.00" fill="#000000"> &#160;Providers</text>
<polygon fill="#fb8072" stroke="transparent" points="586,-10 586,-30 606,-30 606,-10 586,-10"/>
<text text-anchor="start" x="609.7258" y="-15.4" font-family="sans-serif" font-size="14.00" fill="#000000"> &#160;Exports</text>
<g id="clust1" class="cluster">
<title>cluster_TsSearchModule</title>
<polygon fill="none" stroke="#000000" stroke-dasharray="1,5" points="8,-70 8,-268 848,-268 848,-70 8,-70"/>
</g>
<g id="clust2" class="cluster">
<title>cluster_TsSearchModule_declarations</title>
<polygon fill="none" stroke="#000000" points="690,-78 690,-130 840,-130 840,-78 690,-78"/>
</g>
<g id="clust4" class="cluster">
<title>cluster_TsSearchModule_imports</title>
<polygon fill="none" stroke="#000000" points="16,-78 16,-130 682,-130 682,-78 16,-78"/>
</g>
<g id="clust5" class="cluster">
<title>cluster_TsSearchModule_exports</title>
<polygon fill="none" stroke="#000000" points="349,-208 349,-260 501,-260 501,-208 349,-208"/>
</g>
<!-- TsSearchComponent -->
<g id="node1" class="node">
<title>TsSearchComponent</title>
<polygon fill="#ffffb3" stroke="#000000" points="831.9173,-122 698.0827,-122 698.0827,-86 831.9173,-86 831.9173,-122"/>
<text text-anchor="middle" x="765" y="-99.8" font-family="Times,serif" font-size="14.00" fill="#000000">TsSearchComponent</text>
</g>
<!-- TsSearchModule -->
<g id="node2" class="node">
<title>TsSearchModule</title>
<polygon fill="#8dd3c7" stroke="#000000" points="480.6346,-187 477.6346,-191 456.6346,-191 453.6346,-187 369.3654,-187 369.3654,-151 480.6346,-151 480.6346,-187"/>
<text text-anchor="middle" x="425" y="-164.8" font-family="Times,serif" font-size="14.00" fill="#000000">TsSearchModule</text>
</g>
<!-- TsSearchComponent&#45;&gt;TsSearchModule -->
<g id="edge1" class="edge">
<title>TsSearchComponent&#45;&gt;TsSearchModule</title>
<path fill="none" stroke="#000000" d="M765,-122.2843C765,-143.3211 765,-175 765,-175 765,-175 490.7634,-175 490.7634,-175"/>
<polygon fill="#000000" stroke="#000000" points="490.7634,-171.5001 480.7634,-175 490.7633,-178.5001 490.7634,-171.5001"/>
</g>
<!-- TsSearchComponent  -->
<g id="node8" class="node">
<title>TsSearchComponent </title>
<polygon fill="#fb8072" stroke="#000000" points="493.4166,-252 356.5834,-252 356.5834,-216 493.4166,-216 493.4166,-252"/>
<text text-anchor="middle" x="425" y="-229.8" font-family="Times,serif" font-size="14.00" fill="#000000">TsSearchComponent </text>
</g>
<!-- TsSearchModule&#45;&gt;TsSearchComponent  -->
<g id="edge7" class="edge">
<title>TsSearchModule&#45;&gt;TsSearchComponent </title>
<path fill="none" stroke="#000000" stroke-dasharray="5,2" d="M425,-187.1061C425,-187.1061 425,-205.991 425,-205.991"/>
<polygon fill="#000000" stroke="#000000" points="421.5001,-205.9909 425,-215.991 428.5001,-205.991 421.5001,-205.9909"/>
</g>
<!-- CommonModule -->
<g id="node3" class="node">
<title>CommonModule</title>
<polygon fill="#8dd3c7" stroke="#000000" points="673.6681,-122 670.6681,-126 649.6681,-126 646.6681,-122 562.3319,-122 562.3319,-86 673.6681,-86 673.6681,-122"/>
<text text-anchor="middle" x="618" y="-99.8" font-family="Times,serif" font-size="14.00" fill="#000000">CommonModule</text>
</g>
<!-- CommonModule&#45;&gt;TsSearchModule -->
<g id="edge2" class="edge">
<title>CommonModule&#45;&gt;TsSearchModule</title>
<path fill="none" stroke="#000000" d="M618,-122.0225C618,-139.3734 618,-163 618,-163 618,-163 490.8236,-163 490.8236,-163"/>
<polygon fill="#000000" stroke="#000000" points="490.8236,-159.5001 480.8236,-163 490.8236,-166.5001 490.8236,-159.5001"/>
</g>
<!-- FormsModule -->
<g id="node4" class="node">
<title>FormsModule</title>
<polygon fill="#8dd3c7" stroke="#000000" points="544.8288,-122 541.8288,-126 520.8288,-126 517.8288,-122 449.1712,-122 449.1712,-86 544.8288,-86 544.8288,-122"/>
<text text-anchor="middle" x="497" y="-99.8" font-family="Times,serif" font-size="14.00" fill="#000000">FormsModule</text>
</g>
<!-- FormsModule&#45;&gt;TsSearchModule -->
<g id="edge3" class="edge">
<title>FormsModule&#45;&gt;TsSearchModule</title>
<path fill="none" stroke="#000000" d="M465.0765,-122.1061C465.0765,-122.1061 465.0765,-140.991 465.0765,-140.991"/>
<polygon fill="#000000" stroke="#000000" points="461.5765,-140.9909 465.0765,-150.991 468.5765,-140.991 461.5765,-140.9909"/>
</g>
<!-- TsInputMessagesModule -->
<g id="node5" class="node">
<title>TsInputMessagesModule</title>
<polygon fill="#8dd3c7" stroke="#000000" points="431.5211,-122 428.5211,-126 407.5211,-126 404.5211,-122 274.4789,-122 274.4789,-86 431.5211,-86 431.5211,-122"/>
<text text-anchor="middle" x="353" y="-99.8" font-family="Times,serif" font-size="14.00" fill="#000000">TsInputMessagesModule</text>
</g>
<!-- TsInputMessagesModule&#45;&gt;TsSearchModule -->
<g id="edge4" class="edge">
<title>TsInputMessagesModule&#45;&gt;TsSearchModule</title>
<path fill="none" stroke="#000000" d="M400.4716,-122.1061C400.4716,-122.1061 400.4716,-140.991 400.4716,-140.991"/>
<polygon fill="#000000" stroke="#000000" points="396.9717,-140.9909 400.4716,-150.991 403.9717,-140.991 396.9717,-140.9909"/>
</g>
<!-- TsInputModule -->
<g id="node6" class="node">
<title>TsInputModule</title>
<polygon fill="#8dd3c7" stroke="#000000" points="256.5982,-122 253.5982,-126 232.5982,-126 229.5982,-122 153.4018,-122 153.4018,-86 256.5982,-86 256.5982,-122"/>
<text text-anchor="middle" x="205" y="-99.8" font-family="Times,serif" font-size="14.00" fill="#000000">TsInputModule</text>
</g>
<!-- TsInputModule&#45;&gt;TsSearchModule -->
<g id="edge5" class="edge">
<title>TsInputModule&#45;&gt;TsSearchModule</title>
<path fill="none" stroke="#000000" d="M205,-122.0225C205,-139.3734 205,-163 205,-163 205,-163 359.2003,-163 359.2003,-163"/>
<polygon fill="#000000" stroke="#000000" points="359.2003,-166.5001 369.2003,-163 359.2003,-159.5001 359.2003,-166.5001"/>
</g>
<!-- TsButtonModule -->
<g id="node7" class="node">
<title>TsButtonModule</title>
<polygon fill="#8dd3c7" stroke="#000000" points="135.6653,-122 132.6653,-126 111.6653,-126 108.6653,-122 24.3347,-122 24.3347,-86 135.6653,-86 135.6653,-122"/>
<text text-anchor="middle" x="80" y="-99.8" font-family="Times,serif" font-size="14.00" fill="#000000">TsButtonModule</text>
</g>
<!-- TsButtonModule&#45;&gt;TsSearchModule -->
<g id="edge6" class="edge">
<title>TsButtonModule&#45;&gt;TsSearchModule</title>
<path fill="none" stroke="#000000" d="M80,-122.2843C80,-143.3211 80,-175 80,-175 80,-175 359.1864,-175 359.1864,-175"/>
<polygon fill="#000000" stroke="#000000" points="359.1864,-178.5001 369.1864,-175 359.1863,-171.5001 359.1864,-178.5001"/>
</g>
</g>
</svg>
