<?xml version="1.0" encoding="UTF-8" standalone="no"?>
<!DOCTYPE svg PUBLIC "-//W3C//DTD SVG 1.1//EN"
 "http://www.w3.org/Graphics/SVG/1.1/DTD/svg11.dtd">
<!-- Generated by graphviz version 2.40.1 (20161225.0304)
 -->
<!-- Title: dependencies Pages: 1 -->
<svg width="625pt" height="284pt"
 viewBox="0.00 0.00 625.00 284.00" xmlns="http://www.w3.org/2000/svg" xmlns:xlink="http://www.w3.org/1999/xlink">
<g id="graph0" class="graph" transform="scale(1 1) rotate(0) translate(4 280)">
<title>dependencies</title>
<polygon fill="#ffffff" stroke="transparent" points="-4,4 -4,-280 621,-280 621,4 -4,4"/>
<text text-anchor="start" x="287.5091" y="-42.4" font-family="sans-serif" font-weight="bold" font-size="14.00" fill="#000000">Legend</text>
<polygon fill="#ffffb3" stroke="transparent" points="74.5,-10 74.5,-30 94.5,-30 94.5,-10 74.5,-10"/>
<text text-anchor="start" x="98.129" y="-15.4" font-family="sans-serif" font-size="14.00" fill="#000000"> &#160;Declarations</text>
<polygon fill="#8dd3c7" stroke="transparent" points="187.5,-10 187.5,-30 207.5,-30 207.5,-10 187.5,-10"/>
<text text-anchor="start" x="211.2251" y="-15.4" font-family="sans-serif" font-size="14.00" fill="#000000"> &#160;Module</text>
<polygon fill="#80b1d3" stroke="transparent" points="273.5,-10 273.5,-30 293.5,-30 293.5,-10 273.5,-10"/>
<text text-anchor="start" x="297.2812" y="-15.4" font-family="sans-serif" font-size="14.00" fill="#000000"> &#160;Bootstrap</text>
<polygon fill="#fdb462" stroke="transparent" points="370.5,-10 370.5,-30 390.5,-30 390.5,-10 370.5,-10"/>
<text text-anchor="start" x="394.1732" y="-15.4" font-family="sans-serif" font-size="14.00" fill="#000000"> &#160;Providers</text>
<polygon fill="#fb8072" stroke="transparent" points="466.5,-10 466.5,-30 486.5,-30 486.5,-10 466.5,-10"/>
<text text-anchor="start" x="490.2258" y="-15.4" font-family="sans-serif" font-size="14.00" fill="#000000"> &#160;Exports</text>
<g id="clust1" class="cluster">
<title>cluster_TsLoadingOverlayModule</title>
<polygon fill="none" stroke="#000000" stroke-dasharray="1,5" points="8,-70 8,-268 609,-268 609,-70 8,-70"/>
</g>
<g id="clust2" class="cluster">
<title>cluster_TsLoadingOverlayModule_declarations</title>
<polygon fill="none" stroke="#000000" points="206,-78 206,-130 601,-130 601,-78 206,-78"/>
</g>
<g id="clust6" class="cluster">
<title>cluster_TsLoadingOverlayModule_exports</title>
<polygon fill="none" stroke="#000000" points="211,-208 211,-260 405,-260 405,-208 211,-208"/>
</g>
<g id="clust8" class="cluster">
<title>cluster_TsLoadingOverlayModule_providers</title>
<polygon fill="none" stroke="#000000" points="16,-78 16,-130 198,-130 198,-78 16,-78"/>
</g>
<!-- TsLoadingOverlayDirective -->
<g id="node1" class="node">
<title>TsLoadingOverlayDirective</title>
<polygon fill="#ffffb3" stroke="#000000" points="592.8249,-122 419.1751,-122 419.1751,-86 592.8249,-86 592.8249,-122"/>
<text text-anchor="middle" x="506" y="-99.8" font-family="Times,serif" font-size="14.00" fill="#000000">TsLoadingOverlayDirective</text>
</g>
<!-- TsLoadingOverlayModule -->
<g id="node3" class="node">
<title>TsLoadingOverlayModule</title>
<polygon fill="#8dd3c7" stroke="#000000" points="390.7921,-187 387.7921,-191 366.7921,-191 363.7921,-187 225.2079,-187 225.2079,-151 390.7921,-151 390.7921,-187"/>
<text text-anchor="middle" x="308" y="-164.8" font-family="Times,serif" font-size="14.00" fill="#000000">TsLoadingOverlayModule</text>
</g>
<!-- TsLoadingOverlayDirective&#45;&gt;TsLoadingOverlayModule -->
<g id="edge1" class="edge">
<title>TsLoadingOverlayDirective&#45;&gt;TsLoadingOverlayModule</title>
<path fill="none" stroke="#000000" d="M506,-122.1061C506,-141.3391 506,-169 506,-169 506,-169 400.8226,-169 400.8226,-169"/>
<polygon fill="#000000" stroke="#000000" points="400.8226,-165.5001 390.8226,-169 400.8225,-172.5001 400.8226,-165.5001"/>
</g>
<!-- TsLoadingOverlayComponent -->
<g id="node2" class="node">
<title>TsLoadingOverlayComponent</title>
<polygon fill="#ffffb3" stroke="#000000" points="401.5744,-122 214.4256,-122 214.4256,-86 401.5744,-86 401.5744,-122"/>
<text text-anchor="middle" x="308" y="-99.8" font-family="Times,serif" font-size="14.00" fill="#000000">TsLoadingOverlayComponent</text>
</g>
<!-- TsLoadingOverlayComponent&#45;&gt;TsLoadingOverlayModule -->
<g id="edge2" class="edge">
<title>TsLoadingOverlayComponent&#45;&gt;TsLoadingOverlayModule</title>
<path fill="none" stroke="#000000" d="M308,-122.1061C308,-122.1061 308,-140.991 308,-140.991"/>
<polygon fill="#000000" stroke="#000000" points="304.5001,-140.9909 308,-150.991 311.5001,-140.991 304.5001,-140.9909"/>
</g>
<!-- TsLoadingOverlayDirective  -->
<g id="node4" class="node">
<title>TsLoadingOverlayDirective </title>
<polygon fill="#fb8072" stroke="#000000" points="396.8251,-252 219.1749,-252 219.1749,-216 396.8251,-216 396.8251,-252"/>
<text text-anchor="middle" x="308" y="-229.8" font-family="Times,serif" font-size="14.00" fill="#000000">TsLoadingOverlayDirective </text>
</g>
<!-- TsLoadingOverlayModule&#45;&gt;TsLoadingOverlayDirective  -->
<g id="edge3" class="edge">
<title>TsLoadingOverlayModule&#45;&gt;TsLoadingOverlayDirective </title>
<path fill="none" stroke="#000000" stroke-dasharray="5,2" d="M308,-187.1061C308,-187.1061 308,-205.991 308,-205.991"/>
<polygon fill="#000000" stroke="#000000" points="304.5001,-205.9909 308,-215.991 311.5001,-205.991 304.5001,-205.9909"/>
</g>
<!-- TsWindowService -->
<g id="node5" class="node">
<title>TsWindowService</title>
<ellipse fill="#fdb462" stroke="#000000" cx="107" cy="-104" rx="82.8052" ry="18"/>
<text text-anchor="middle" x="107" y="-99.8" font-family="Times,serif" font-size="14.00" fill="#000000">TsWindowService</text>
</g>
<!-- TsWindowService&#45;&gt;TsLoadingOverlayModule -->
<g id="edge4" class="edge">
<title>TsWindowService&#45;&gt;TsLoadingOverlayModule</title>
<path fill="none" stroke="#000000" d="M107,-122.1061C107,-141.3391 107,-169 107,-169 107,-169 215.0851,-169 215.0851,-169"/>
<polygon fill="#000000" stroke="#000000" points="215.0852,-172.5001 225.0851,-169 215.0851,-165.5001 215.0852,-172.5001"/>
</g>
</g>
</svg>
