<?xml version="1.0" encoding="UTF-8" standalone="no"?>
<!DOCTYPE svg PUBLIC "-//W3C//DTD SVG 1.1//EN"
 "http://www.w3.org/Graphics/SVG/1.1/DTD/svg11.dtd">
<!-- Generated by graphviz version 2.40.1 (20161225.0304)
 -->
<!-- Title: dependencies Pages: 1 -->
<svg width="775pt" height="284pt"
 viewBox="0.00 0.00 775.00 284.00" xmlns="http://www.w3.org/2000/svg" xmlns:xlink="http://www.w3.org/1999/xlink">
<g id="graph0" class="graph" transform="scale(1 1) rotate(0) translate(4 280)">
<title>dependencies</title>
<polygon fill="#ffffff" stroke="transparent" points="-4,4 -4,-280 771,-280 771,4 -4,4"/>
<text text-anchor="start" x="362.5091" y="-42.4" font-family="sans-serif" font-weight="bold" font-size="14.00" fill="#000000">Legend</text>
<polygon fill="#ffffb3" stroke="transparent" points="149.5,-10 149.5,-30 169.5,-30 169.5,-10 149.5,-10"/>
<text text-anchor="start" x="173.129" y="-15.4" font-family="sans-serif" font-size="14.00" fill="#000000"> &#160;Declarations</text>
<polygon fill="#8dd3c7" stroke="transparent" points="262.5,-10 262.5,-30 282.5,-30 282.5,-10 262.5,-10"/>
<text text-anchor="start" x="286.2251" y="-15.4" font-family="sans-serif" font-size="14.00" fill="#000000"> &#160;Module</text>
<polygon fill="#80b1d3" stroke="transparent" points="348.5,-10 348.5,-30 368.5,-30 368.5,-10 348.5,-10"/>
<text text-anchor="start" x="372.2812" y="-15.4" font-family="sans-serif" font-size="14.00" fill="#000000"> &#160;Bootstrap</text>
<polygon fill="#fdb462" stroke="transparent" points="445.5,-10 445.5,-30 465.5,-30 465.5,-10 445.5,-10"/>
<text text-anchor="start" x="469.1732" y="-15.4" font-family="sans-serif" font-size="14.00" fill="#000000"> &#160;Providers</text>
<polygon fill="#fb8072" stroke="transparent" points="541.5,-10 541.5,-30 561.5,-30 561.5,-10 541.5,-10"/>
<text text-anchor="start" x="565.2258" y="-15.4" font-family="sans-serif" font-size="14.00" fill="#000000"> &#160;Exports</text>
<g id="clust1" class="cluster">
<title>cluster_TsButtonModule</title>
<polygon fill="none" stroke="#000000" stroke-dasharray="1,5" points="8,-70 8,-268 759,-268 759,-70 8,-70"/>
</g>
<g id="clust2" class="cluster">
<title>cluster_TsButtonModule_declarations</title>
<polygon fill="none" stroke="#000000" points="601,-78 601,-130 751,-130 751,-78 601,-78"/>
</g>
<g id="clust4" class="cluster">
<title>cluster_TsButtonModule_imports</title>
<polygon fill="none" stroke="#000000" points="16,-78 16,-130 593,-130 593,-78 16,-78"/>
</g>
<g id="clust5" class="cluster">
<title>cluster_TsButtonModule_exports</title>
<polygon fill="none" stroke="#000000" points="292,-208 292,-260 444,-260 444,-208 292,-208"/>
</g>
<!-- TsButtonComponent -->
<g id="node1" class="node">
<title>TsButtonComponent</title>
<polygon fill="#ffffb3" stroke="#000000" points="742.9482,-122 609.0518,-122 609.0518,-86 742.9482,-86 742.9482,-122"/>
<text text-anchor="middle" x="676" y="-99.8" font-family="Times,serif" font-size="14.00" fill="#000000">TsButtonComponent</text>
</g>
<!-- TsButtonModule -->
<g id="node2" class="node">
<title>TsButtonModule</title>
<polygon fill="#8dd3c7" stroke="#000000" points="423.6653,-187 420.6653,-191 399.6653,-191 396.6653,-187 312.3347,-187 312.3347,-151 423.6653,-151 423.6653,-187"/>
<text text-anchor="middle" x="368" y="-164.8" font-family="Times,serif" font-size="14.00" fill="#000000">TsButtonModule</text>
</g>
<!-- TsButtonComponent&#45;&gt;TsButtonModule -->
<g id="edge1" class="edge">
<title>TsButtonComponent&#45;&gt;TsButtonModule</title>
<path fill="none" stroke="#000000" d="M676,-122.2843C676,-143.3211 676,-175 676,-175 676,-175 433.7765,-175 433.7765,-175"/>
<polygon fill="#000000" stroke="#000000" points="433.7765,-171.5001 423.7765,-175 433.7764,-178.5001 433.7765,-171.5001"/>
</g>
<!-- TsButtonComponent  -->
<g id="node7" class="node">
<title>TsButtonComponent </title>
<polygon fill="#fb8072" stroke="#000000" points="436.4474,-252 299.5526,-252 299.5526,-216 436.4474,-216 436.4474,-252"/>
<text text-anchor="middle" x="368" y="-229.8" font-family="Times,serif" font-size="14.00" fill="#000000">TsButtonComponent </text>
</g>
<!-- TsButtonModule&#45;&gt;TsButtonComponent  -->
<g id="edge6" class="edge">
<title>TsButtonModule&#45;&gt;TsButtonComponent </title>
<path fill="none" stroke="#000000" stroke-dasharray="5,2" d="M368,-187.1061C368,-187.1061 368,-205.991 368,-205.991"/>
<polygon fill="#000000" stroke="#000000" points="364.5001,-205.9909 368,-215.991 371.5001,-205.991 364.5001,-205.9909"/>
</g>
<!-- CommonModule -->
<g id="node3" class="node">
<title>CommonModule</title>
<polygon fill="#8dd3c7" stroke="#000000" points="584.6681,-122 581.6681,-126 560.6681,-126 557.6681,-122 473.3319,-122 473.3319,-86 584.6681,-86 584.6681,-122"/>
<text text-anchor="middle" x="529" y="-99.8" font-family="Times,serif" font-size="14.00" fill="#000000">CommonModule</text>
</g>
<!-- CommonModule&#45;&gt;TsButtonModule -->
<g id="edge2" class="edge">
<title>CommonModule&#45;&gt;TsButtonModule</title>
<path fill="none" stroke="#000000" d="M529,-122.0225C529,-139.3734 529,-163 529,-163 529,-163 433.8581,-163 433.8581,-163"/>
<polygon fill="#000000" stroke="#000000" points="433.8582,-159.5001 423.8581,-163 433.8581,-166.5001 433.8582,-159.5001"/>
</g>
<!-- LaddaModule.forRoot(args) -->
<g id="node4" class="node">
<title>LaddaModule.forRoot(args)</title>
<polygon fill="#8dd3c7" stroke="#000000" points="455.2211,-122 452.2211,-126 431.2211,-126 428.2211,-122 280.7789,-122 280.7789,-86 455.2211,-86 455.2211,-122"/>
<text text-anchor="middle" x="368" y="-99.8" font-family="Times,serif" font-size="14.00" fill="#000000">LaddaModule.forRoot(args)</text>
</g>
<!-- LaddaModule.forRoot(args)&#45;&gt;TsButtonModule -->
<g id="edge3" class="edge">
<title>LaddaModule.forRoot(args)&#45;&gt;TsButtonModule</title>
<path fill="none" stroke="#000000" d="M368,-122.1061C368,-122.1061 368,-140.991 368,-140.991"/>
<polygon fill="#000000" stroke="#000000" points="364.5001,-140.9909 368,-150.991 371.5001,-140.991 364.5001,-140.9909"/>
</g>
<!-- MdButtonModule -->
<g id="node5" class="node">
<title>MdButtonModule</title>
<polygon fill="#8dd3c7" stroke="#000000" points="262.6123,-122 259.6123,-126 238.6123,-126 235.6123,-122 145.3877,-122 145.3877,-86 262.6123,-86 262.6123,-122"/>
<text text-anchor="middle" x="204" y="-99.8" font-family="Times,serif" font-size="14.00" fill="#000000">MdButtonModule</text>
</g>
<!-- MdButtonModule&#45;&gt;TsButtonModule -->
<g id="edge4" class="edge">
<title>MdButtonModule&#45;&gt;TsButtonModule</title>
<path fill="none" stroke="#000000" d="M204,-122.0225C204,-139.3734 204,-163 204,-163 204,-163 302.0192,-163 302.0192,-163"/>
<polygon fill="#000000" stroke="#000000" points="302.0192,-166.5001 312.0192,-163 302.0192,-159.5001 302.0192,-166.5001"/>
</g>
<!-- MdIconModule -->
<g id="node6" class="node">
<title>MdIconModule</title>
<polygon fill="#8dd3c7" stroke="#000000" points="127.8697,-122 124.8697,-126 103.8697,-126 100.8697,-122 24.1303,-122 24.1303,-86 127.8697,-86 127.8697,-122"/>
<text text-anchor="middle" x="76" y="-99.8" font-family="Times,serif" font-size="14.00" fill="#000000">MdIconModule</text>
</g>
<!-- MdIconModule&#45;&gt;TsButtonModule -->
<g id="edge5" class="edge">
<title>MdIconModule&#45;&gt;TsButtonModule</title>
<path fill="none" stroke="#000000" d="M76,-122.2843C76,-143.3211 76,-175 76,-175 76,-175 302.045,-175 302.045,-175"/>
<polygon fill="#000000" stroke="#000000" points="302.045,-178.5001 312.045,-175 302.0449,-171.5001 302.045,-178.5001"/>
</g>
</g>
</svg>
