<?xml version="1.0" encoding="UTF-8" standalone="no"?>
<!DOCTYPE svg PUBLIC "-//W3C//DTD SVG 1.1//EN"
 "http://www.w3.org/Graphics/SVG/1.1/DTD/svg11.dtd">
<!-- Generated by graphviz version 2.40.1 (20161225.0304)
 -->
<!-- Title: dependencies Pages: 1 -->
<svg width="560pt" height="349pt"
 viewBox="0.00 0.00 560.00 349.00" xmlns="http://www.w3.org/2000/svg" xmlns:xlink="http://www.w3.org/1999/xlink">
<g id="graph0" class="graph" transform="scale(1 1) rotate(0) translate(4 345)">
<title>dependencies</title>
<polygon fill="#ffffff" stroke="transparent" points="-4,4 -4,-345 556,-345 556,4 -4,4"/>
<text text-anchor="start" x="255.0091" y="-42.4" font-family="sans-serif" font-weight="bold" font-size="14.00" fill="#000000">Legend</text>
<polygon fill="#ffffb3" stroke="transparent" points="42,-10 42,-30 62,-30 62,-10 42,-10"/>
<text text-anchor="start" x="65.629" y="-15.4" font-family="sans-serif" font-size="14.00" fill="#000000"> &#160;Declarations</text>
<polygon fill="#8dd3c7" stroke="transparent" points="155,-10 155,-30 175,-30 175,-10 155,-10"/>
<text text-anchor="start" x="178.7251" y="-15.4" font-family="sans-serif" font-size="14.00" fill="#000000"> &#160;Module</text>
<polygon fill="#80b1d3" stroke="transparent" points="241,-10 241,-30 261,-30 261,-10 241,-10"/>
<text text-anchor="start" x="264.7812" y="-15.4" font-family="sans-serif" font-size="14.00" fill="#000000"> &#160;Bootstrap</text>
<polygon fill="#fdb462" stroke="transparent" points="338,-10 338,-30 358,-30 358,-10 338,-10"/>
<text text-anchor="start" x="361.6732" y="-15.4" font-family="sans-serif" font-size="14.00" fill="#000000"> &#160;Providers</text>
<polygon fill="#fb8072" stroke="transparent" points="434,-10 434,-30 454,-30 454,-10 434,-10"/>
<text text-anchor="start" x="457.7258" y="-15.4" font-family="sans-serif" font-size="14.00" fill="#000000"> &#160;Exports</text>
<g id="clust1" class="cluster">
<title>cluster_TsCheckboxModule</title>
<polygon fill="none" stroke="#000000" stroke-dasharray="1,5" points="8,-70 8,-333 544,-333 544,-70 8,-70"/>
</g>
<g id="clust2" class="cluster">
<title>cluster_TsCheckboxModule_declarations</title>
<polygon fill="none" stroke="#000000" points="192,-143 192,-195 360,-195 360,-143 192,-143"/>
</g>
<g id="clust3" class="cluster">
<title>cluster_TsCheckboxModule_TsCheckboxComponent_providers</title>
<polygon fill="none" stroke="#000000" points="16,-78 16,-130 536,-130 536,-78 16,-78"/>
</g>
<g id="clust5" class="cluster">
<title>cluster_TsCheckboxModule_exports</title>
<polygon fill="none" stroke="#000000" points="190,-273 190,-325 362,-325 362,-273 190,-273"/>
</g>
<!-- TsCheckboxComponent -->
<g id="node1" class="node">
<title>TsCheckboxComponent</title>
<polygon fill="#ffffb3" stroke="#000000" points="352.0954,-187 199.9046,-187 199.9046,-151 352.0954,-151 352.0954,-187"/>
<text text-anchor="middle" x="276" y="-164.8" font-family="Times,serif" font-size="14.00" fill="#000000">TsCheckboxComponent</text>
</g>
<!-- TsCheckboxModule -->
<g id="node2" class="node">
<title>TsCheckboxModule</title>
<polygon fill="#8dd3c7" stroke="#000000" points="341.3132,-252 338.3132,-256 317.3132,-256 314.3132,-252 210.6868,-252 210.6868,-216 341.3132,-216 341.3132,-252"/>
<text text-anchor="middle" x="276" y="-229.8" font-family="Times,serif" font-size="14.00" fill="#000000">TsCheckboxModule</text>
</g>
<!-- TsCheckboxComponent&#45;&gt;TsCheckboxModule -->
<g id="edge1" class="edge">
<title>TsCheckboxComponent&#45;&gt;TsCheckboxModule</title>
<path fill="none" stroke="#000000" d="M276,-187.1061C276,-187.1061 276,-205.991 276,-205.991"/>
<polygon fill="#000000" stroke="#000000" points="272.5001,-205.9909 276,-215.991 279.5001,-205.991 272.5001,-205.9909"/>
</g>
<!-- TsCheckboxComponent  -->
<g id="node4" class="node">
<title>TsCheckboxComponent </title>
<polygon fill="#fb8072" stroke="#000000" points="353.5959,-317 198.4041,-317 198.4041,-281 353.5959,-281 353.5959,-317"/>
<text text-anchor="middle" x="276" y="-294.8" font-family="Times,serif" font-size="14.00" fill="#000000">TsCheckboxComponent </text>
</g>
<!-- TsCheckboxModule&#45;&gt;TsCheckboxComponent  -->
<g id="edge3" class="edge">
<title>TsCheckboxModule&#45;&gt;TsCheckboxComponent </title>
<path fill="none" stroke="#000000" stroke-dasharray="5,2" d="M276,-252.1061C276,-252.1061 276,-270.991 276,-270.991"/>
<polygon fill="#000000" stroke="#000000" points="272.5001,-270.9909 276,-280.991 279.5001,-270.991 272.5001,-270.9909"/>
</g>
<!-- CUSTOM_CHECKBOX_CONTROL_VALUE_ACCESSOR -->
<g id="node3" class="node">
<title>CUSTOM_CHECKBOX_CONTROL_VALUE_ACCESSOR</title>
<ellipse fill="#fdb462" stroke="#000000" cx="276" cy="-104" rx="251.7924" ry="18"/>
<text text-anchor="middle" x="276" y="-99.8" font-family="Times,serif" font-size="14.00" fill="#000000">CUSTOM_CHECKBOX_CONTROL_VALUE_ACCESSOR</text>
</g>
<!-- CUSTOM_CHECKBOX_CONTROL_VALUE_ACCESSOR&#45;&gt;TsCheckboxComponent -->
<g id="edge2" class="edge">
<title>CUSTOM_CHECKBOX_CONTROL_VALUE_ACCESSOR&#45;&gt;TsCheckboxComponent</title>
<path fill="none" stroke="#000000" d="M276,-122.1061C276,-122.1061 276,-140.991 276,-140.991"/>
<polygon fill="#000000" stroke="#000000" points="272.5001,-140.9909 276,-150.991 279.5001,-140.991 272.5001,-140.9909"/>
</g>
</g>
</svg>
