<?xml version="1.0" encoding="UTF-8" standalone="no"?>
<!DOCTYPE svg PUBLIC "-//W3C//DTD SVG 1.1//EN"
 "http://www.w3.org/Graphics/SVG/1.1/DTD/svg11.dtd">
<!-- Generated by graphviz version 2.40.1 (20161225.0304)
 -->
<!-- Title: dependencies Pages: 1 -->
<svg width="530pt" height="349pt"
 viewBox="0.00 0.00 530.00 349.00" xmlns="http://www.w3.org/2000/svg" xmlns:xlink="http://www.w3.org/1999/xlink">
<g id="graph0" class="graph" transform="scale(1 1) rotate(0) translate(4 345)">
<title>dependencies</title>
<polygon fill="#ffffff" stroke="transparent" points="-4,4 -4,-345 526,-345 526,4 -4,4"/>
<text text-anchor="start" x="240.0091" y="-42.4" font-family="sans-serif" font-weight="bold" font-size="14.00" fill="#000000">Legend</text>
<polygon fill="#ffffb3" stroke="transparent" points="27,-10 27,-30 47,-30 47,-10 27,-10"/>
<text text-anchor="start" x="50.629" y="-15.4" font-family="sans-serif" font-size="14.00" fill="#000000"> &#160;Declarations</text>
<polygon fill="#8dd3c7" stroke="transparent" points="140,-10 140,-30 160,-30 160,-10 140,-10"/>
<text text-anchor="start" x="163.7251" y="-15.4" font-family="sans-serif" font-size="14.00" fill="#000000"> &#160;Module</text>
<polygon fill="#80b1d3" stroke="transparent" points="226,-10 226,-30 246,-30 246,-10 226,-10"/>
<text text-anchor="start" x="249.7812" y="-15.4" font-family="sans-serif" font-size="14.00" fill="#000000"> &#160;Bootstrap</text>
<polygon fill="#fdb462" stroke="transparent" points="323,-10 323,-30 343,-30 343,-10 323,-10"/>
<text text-anchor="start" x="346.6732" y="-15.4" font-family="sans-serif" font-size="14.00" fill="#000000"> &#160;Providers</text>
<polygon fill="#fb8072" stroke="transparent" points="419,-10 419,-30 439,-30 439,-10 419,-10"/>
<text text-anchor="start" x="442.7258" y="-15.4" font-family="sans-serif" font-size="14.00" fill="#000000"> &#160;Exports</text>
<g id="clust1" class="cluster">
<title>cluster_TsToggleModule</title>
<polygon fill="none" stroke="#000000" stroke-dasharray="1,5" points="8,-70 8,-333 514,-333 514,-70 8,-70"/>
</g>
<g id="clust2" class="cluster">
<title>cluster_TsToggleModule_declarations</title>
<polygon fill="none" stroke="#000000" points="186,-143 186,-195 336,-195 336,-143 186,-143"/>
</g>
<g id="clust3" class="cluster">
<title>cluster_TsToggleModule_TsToggleComponent_providers</title>
<polygon fill="none" stroke="#000000" points="16,-78 16,-130 506,-130 506,-78 16,-78"/>
</g>
<g id="clust5" class="cluster">
<title>cluster_TsToggleModule_exports</title>
<polygon fill="none" stroke="#000000" points="184,-273 184,-325 338,-325 338,-273 184,-273"/>
</g>
<!-- TsToggleComponent -->
<g id="node1" class="node">
<title>TsToggleComponent</title>
<polygon fill="#ffffb3" stroke="#000000" points="328.4874,-187 193.5126,-187 193.5126,-151 328.4874,-151 328.4874,-187"/>
<text text-anchor="middle" x="261" y="-164.8" font-family="Times,serif" font-size="14.00" fill="#000000">TsToggleComponent</text>
</g>
<!-- TsToggleModule -->
<g id="node2" class="node">
<title>TsToggleModule</title>
<polygon fill="#8dd3c7" stroke="#000000" points="317.705,-252 314.705,-256 293.705,-256 290.705,-252 204.295,-252 204.295,-216 317.705,-216 317.705,-252"/>
<text text-anchor="middle" x="261" y="-229.8" font-family="Times,serif" font-size="14.00" fill="#000000">TsToggleModule</text>
</g>
<!-- TsToggleComponent&#45;&gt;TsToggleModule -->
<g id="edge1" class="edge">
<title>TsToggleComponent&#45;&gt;TsToggleModule</title>
<path fill="none" stroke="#000000" d="M261,-187.1061C261,-187.1061 261,-205.991 261,-205.991"/>
<polygon fill="#000000" stroke="#000000" points="257.5001,-205.9909 261,-215.991 264.5001,-205.991 257.5001,-205.9909"/>
</g>
<!-- TsToggleComponent  -->
<g id="node4" class="node">
<title>TsToggleComponent </title>
<polygon fill="#fb8072" stroke="#000000" points="330.4883,-317 191.5117,-317 191.5117,-281 330.4883,-281 330.4883,-317"/>
<text text-anchor="middle" x="261" y="-294.8" font-family="Times,serif" font-size="14.00" fill="#000000">TsToggleComponent </text>
</g>
<!-- TsToggleModule&#45;&gt;TsToggleComponent  -->
<g id="edge3" class="edge">
<title>TsToggleModule&#45;&gt;TsToggleComponent </title>
<path fill="none" stroke="#000000" stroke-dasharray="5,2" d="M261,-252.1061C261,-252.1061 261,-270.991 261,-270.991"/>
<polygon fill="#000000" stroke="#000000" points="257.5001,-270.9909 261,-280.991 264.5001,-270.991 257.5001,-270.9909"/>
</g>
<!-- CUSTOM_TOGGLE_CONTROL_VALUE_ACCESSOR -->
<g id="node3" class="node">
<title>CUSTOM_TOGGLE_CONTROL_VALUE_ACCESSOR</title>
<ellipse fill="#fdb462" stroke="#000000" cx="261" cy="-104" rx="237.3061" ry="18"/>
<text text-anchor="middle" x="261" y="-99.8" font-family="Times,serif" font-size="14.00" fill="#000000">CUSTOM_TOGGLE_CONTROL_VALUE_ACCESSOR</text>
</g>
<!-- CUSTOM_TOGGLE_CONTROL_VALUE_ACCESSOR&#45;&gt;TsToggleComponent -->
<g id="edge2" class="edge">
<title>CUSTOM_TOGGLE_CONTROL_VALUE_ACCESSOR&#45;&gt;TsToggleComponent</title>
<path fill="none" stroke="#000000" d="M261,-122.1061C261,-122.1061 261,-140.991 261,-140.991"/>
<polygon fill="#000000" stroke="#000000" points="257.5001,-140.9909 261,-150.991 264.5001,-140.991 257.5001,-140.9909"/>
</g>
</g>
</svg>
