<?xml version="1.0" encoding="UTF-8" standalone="no"?>
<!DOCTYPE svg PUBLIC "-//W3C//DTD SVG 1.1//EN"
 "http://www.w3.org/Graphics/SVG/1.1/DTD/svg11.dtd">
<!-- Generated by graphviz version 2.40.1 (20161225.0304)
 -->
<!-- Title: dependencies Pages: 1 -->
<svg width="552pt" height="284pt"
 viewBox="0.00 0.00 552.00 284.00" xmlns="http://www.w3.org/2000/svg" xmlns:xlink="http://www.w3.org/1999/xlink">
<g id="graph0" class="graph" transform="scale(1 1) rotate(0) translate(4 280)">
<title>dependencies</title>
<polygon fill="#ffffff" stroke="transparent" points="-4,4 -4,-280 548,-280 548,4 -4,4"/>
<text text-anchor="start" x="251.0091" y="-42.4" font-family="sans-serif" font-weight="bold" font-size="14.00" fill="#000000">Legend</text>
<polygon fill="#ffffb3" stroke="transparent" points="38,-10 38,-30 58,-30 58,-10 38,-10"/>
<text text-anchor="start" x="61.629" y="-15.4" font-family="sans-serif" font-size="14.00" fill="#000000"> &#160;Declarations</text>
<polygon fill="#8dd3c7" stroke="transparent" points="151,-10 151,-30 171,-30 171,-10 151,-10"/>
<text text-anchor="start" x="174.7251" y="-15.4" font-family="sans-serif" font-size="14.00" fill="#000000"> &#160;Module</text>
<polygon fill="#80b1d3" stroke="transparent" points="237,-10 237,-30 257,-30 257,-10 237,-10"/>
<text text-anchor="start" x="260.7812" y="-15.4" font-family="sans-serif" font-size="14.00" fill="#000000"> &#160;Bootstrap</text>
<polygon fill="#fdb462" stroke="transparent" points="334,-10 334,-30 354,-30 354,-10 334,-10"/>
<text text-anchor="start" x="357.6732" y="-15.4" font-family="sans-serif" font-size="14.00" fill="#000000"> &#160;Providers</text>
<polygon fill="#fb8072" stroke="transparent" points="430,-10 430,-30 450,-30 450,-10 430,-10"/>
<text text-anchor="start" x="453.7258" y="-15.4" font-family="sans-serif" font-size="14.00" fill="#000000"> &#160;Exports</text>
<g id="clust1" class="cluster">
<title>cluster_TerminusUIModule</title>
<polygon fill="none" stroke="#000000" stroke-dasharray="1,5" points="8,-70 8,-268 536,-268 536,-70 8,-70"/>
</g>
<g id="clust3" class="cluster">
<title>cluster_TerminusUIModule_imports</title>
<polygon fill="none" stroke="#000000" points="16,-78 16,-130 528,-130 528,-78 16,-78"/>
</g>
<g id="clust4" class="cluster">
<title>cluster_TerminusUIModule_exports</title>
<polygon fill="none" stroke="#000000" points="193,-208 193,-260 413,-260 413,-208 193,-208"/>
</g>
<!-- CommonModule -->
<g id="node1" class="node">
<title>CommonModule</title>
<polygon fill="#8dd3c7" stroke="#000000" points="519.6681,-122 516.6681,-126 495.6681,-126 492.6681,-122 408.3319,-122 408.3319,-86 519.6681,-86 519.6681,-122"/>
<text text-anchor="middle" x="464" y="-99.8" font-family="Times,serif" font-size="14.00" fill="#000000">CommonModule</text>
</g>
<!-- TerminusUIModule -->
<g id="node4" class="node">
<title>TerminusUIModule</title>
<polygon fill="#8dd3c7" stroke="#000000" points="366.9706,-187 363.9706,-191 342.9706,-191 339.9706,-187 239.0294,-187 239.0294,-151 366.9706,-151 366.9706,-187"/>
<text text-anchor="middle" x="303" y="-164.8" font-family="Times,serif" font-size="14.00" fill="#000000">TerminusUIModule</text>
</g>
<!-- CommonModule&#45;&gt;TerminusUIModule -->
<g id="edge1" class="edge">
<title>CommonModule&#45;&gt;TerminusUIModule</title>
<path fill="none" stroke="#000000" d="M464,-122.1061C464,-141.3391 464,-169 464,-169 464,-169 377.0941,-169 377.0941,-169"/>
<polygon fill="#000000" stroke="#000000" points="377.0941,-165.5001 367.0941,-169 377.094,-172.5001 377.0941,-165.5001"/>
</g>
<!-- ...MATERIAL_MODULES -->
<g id="node2" class="node">
<title>...MATERIAL_MODULES</title>
<polygon fill="#8dd3c7" stroke="#000000" points="389.9656,-122 386.9656,-126 365.9656,-126 362.9656,-122 216.0344,-122 216.0344,-86 389.9656,-86 389.9656,-122"/>
<text text-anchor="middle" x="303" y="-99.8" font-family="Times,serif" font-size="14.00" fill="#000000">...MATERIAL_MODULES</text>
</g>
<!-- ...MATERIAL_MODULES&#45;&gt;TerminusUIModule -->
<g id="edge2" class="edge">
<title>...MATERIAL_MODULES&#45;&gt;TerminusUIModule</title>
<path fill="none" stroke="#000000" d="M303,-122.1061C303,-122.1061 303,-140.991 303,-140.991"/>
<polygon fill="#000000" stroke="#000000" points="299.5001,-140.9909 303,-150.991 306.5001,-140.991 299.5001,-140.9909"/>
</g>
<!-- LaddaModule.forRoot(args) -->
<g id="node3" class="node">
<title>LaddaModule.forRoot(args)</title>
<polygon fill="#8dd3c7" stroke="#000000" points="198.2211,-122 195.2211,-126 174.2211,-126 171.2211,-122 23.7789,-122 23.7789,-86 198.2211,-86 198.2211,-122"/>
<text text-anchor="middle" x="111" y="-99.8" font-family="Times,serif" font-size="14.00" fill="#000000">LaddaModule.forRoot(args)</text>
</g>
<!-- LaddaModule.forRoot(args)&#45;&gt;TerminusUIModule -->
<g id="edge3" class="edge">
<title>LaddaModule.forRoot(args)&#45;&gt;TerminusUIModule</title>
<path fill="none" stroke="#000000" d="M111,-122.1061C111,-141.3391 111,-169 111,-169 111,-169 228.7998,-169 228.7998,-169"/>
<polygon fill="#000000" stroke="#000000" points="228.7999,-172.5001 238.7998,-169 228.7998,-165.5001 228.7999,-172.5001"/>
</g>
<!-- ...TERMINUS_COMPONENTS  -->
<g id="node5" class="node">
<title>...TERMINUS_COMPONENTS </title>
<polygon fill="#fb8072" stroke="#000000" points="404.9212,-252 201.0788,-252 201.0788,-216 404.9212,-216 404.9212,-252"/>
<text text-anchor="middle" x="303" y="-229.8" font-family="Times,serif" font-size="14.00" fill="#000000">...TERMINUS_COMPONENTS </text>
</g>
<!-- TerminusUIModule&#45;&gt;...TERMINUS_COMPONENTS  -->
<g id="edge4" class="edge">
<title>TerminusUIModule&#45;&gt;...TERMINUS_COMPONENTS </title>
<path fill="none" stroke="#000000" stroke-dasharray="5,2" d="M303,-187.1061C303,-187.1061 303,-205.991 303,-205.991"/>
<polygon fill="#000000" stroke="#000000" points="299.5001,-205.9909 303,-215.991 306.5001,-205.991 299.5001,-205.9909"/>
</g>
</g>
</svg>
