<?xml version="1.0" encoding="UTF-8" standalone="no"?>
<!DOCTYPE svg PUBLIC "-//W3C//DTD SVG 1.1//EN"
 "http://www.w3.org/Graphics/SVG/1.1/DTD/svg11.dtd">
<!-- Generated by graphviz version 2.40.1 (20161225.0304)
 -->
<!-- Title: dependencies Pages: 1 -->
<svg width="1581pt" height="504pt"
 viewBox="0.00 0.00 1581.00 504.00" xmlns="http://www.w3.org/2000/svg" xmlns:xlink="http://www.w3.org/1999/xlink">
<g id="graph0" class="graph" transform="scale(1 1) rotate(0) translate(4 500)">
<title>dependencies</title>
<polygon fill="#ffffff" stroke="transparent" points="-4,4 -4,-500 1577,-500 1577,4 -4,4"/>
<text text-anchor="start" x="765.5091" y="-42.4" font-family="sans-serif" font-weight="bold" font-size="14.00" fill="#000000">Legend</text>
<polygon fill="#ffffb3" stroke="transparent" points="552.5,-10 552.5,-30 572.5,-30 572.5,-10 552.5,-10"/>
<text text-anchor="start" x="576.129" y="-15.4" font-family="sans-serif" font-size="14.00" fill="#000000"> &#160;Declarations</text>
<polygon fill="#8dd3c7" stroke="transparent" points="665.5,-10 665.5,-30 685.5,-30 685.5,-10 665.5,-10"/>
<text text-anchor="start" x="689.2251" y="-15.4" font-family="sans-serif" font-size="14.00" fill="#000000"> &#160;Module</text>
<polygon fill="#80b1d3" stroke="transparent" points="751.5,-10 751.5,-30 771.5,-30 771.5,-10 751.5,-10"/>
<text text-anchor="start" x="775.2812" y="-15.4" font-family="sans-serif" font-size="14.00" fill="#000000"> &#160;Bootstrap</text>
<polygon fill="#fdb462" stroke="transparent" points="848.5,-10 848.5,-30 868.5,-30 868.5,-10 848.5,-10"/>
<text text-anchor="start" x="872.1732" y="-15.4" font-family="sans-serif" font-size="14.00" fill="#000000"> &#160;Providers</text>
<polygon fill="#fb8072" stroke="transparent" points="944.5,-10 944.5,-30 964.5,-30 964.5,-10 944.5,-10"/>
<text text-anchor="start" x="968.2258" y="-15.4" font-family="sans-serif" font-size="14.00" fill="#000000"> &#160;Exports</text>
<g id="clust1" class="cluster">
<title>cluster_TerminusUIModule</title>
<polygon fill="none" stroke="#000000" stroke-dasharray="1,5" points="176,-146 176,-488 888,-488 888,-146 176,-146"/>
</g>
<g id="clust3" class="cluster">
<title>cluster_TerminusUIModule_imports</title>
<polygon fill="none" stroke="#000000" points="610,-154 610,-336 880,-336 880,-154 610,-154"/>
</g>
<g id="clust4" class="cluster">
<title>cluster_TerminusUIModule_exports</title>
<polygon fill="none" stroke="#000000" points="184,-428 184,-480 880,-480 880,-428 184,-428"/>
</g>
<g id="clust7" class="cluster">
<title>cluster_TsButtonModule</title>
<polygon fill="none" stroke="#000000" stroke-dasharray="1,5" points="812,-70 812,-138 1565,-138 1565,-70 812,-70"/>
</g>
<g id="clust9" class="cluster">
<title>cluster_TsButtonModule_imports</title>
<polygon fill="none" stroke="#000000" points="820,-78 820,-130 1397,-130 1397,-78 820,-78"/>
</g>
<g id="clust10" class="cluster">
<title>cluster_TsButtonModule_exports</title>
<polygon fill="none" stroke="#000000" points="1405,-78 1405,-130 1557,-130 1557,-78 1405,-78"/>
</g>
<g id="clust13" class="cluster">
<title>cluster_TsInputMessagesModule</title>
<polygon fill="none" stroke="#000000" stroke-dasharray="1,5" points="344,-70 344,-138 804,-138 804,-70 344,-70"/>
</g>
<g id="clust15" class="cluster">
<title>cluster_TsInputMessagesModule_imports</title>
<polygon fill="none" stroke="#000000" points="352,-78 352,-130 590,-130 590,-78 352,-78"/>
</g>
<g id="clust16" class="cluster">
<title>cluster_TsInputMessagesModule_exports</title>
<polygon fill="none" stroke="#000000" points="598,-78 598,-130 796,-130 796,-78 598,-78"/>
</g>
<g id="clust19" class="cluster">
<title>cluster_TsInputModule</title>
<polygon fill="none" stroke="#000000" stroke-dasharray="1,5" points="8,-276 8,-344 168,-344 168,-276 8,-276"/>
</g>
<g id="clust22" class="cluster">
<title>cluster_TsInputModule_exports</title>
<polygon fill="none" stroke="#000000" points="16,-284 16,-336 160,-336 160,-284 16,-284"/>
</g>
<g id="clust25" class="cluster">
<title>cluster_TsMenuModule</title>
<polygon fill="none" stroke="#000000" stroke-dasharray="1,5" points="896,-352 896,-420 1196,-420 1196,-352 896,-352"/>
</g>
<g id="clust27" class="cluster">
<title>cluster_TsMenuModule_imports</title>
<polygon fill="none" stroke="#000000" points="1060,-360 1060,-412 1188,-412 1188,-360 1060,-360"/>
</g>
<g id="clust28" class="cluster">
<title>cluster_TsMenuModule_exports</title>
<polygon fill="none" stroke="#000000" points="904,-360 904,-412 1052,-412 1052,-360 904,-360"/>
</g>
<g id="clust31" class="cluster">
<title>cluster_TsSearchModule</title>
<polygon fill="none" stroke="#000000" stroke-dasharray="1,5" points="1204,-352 1204,-420 1372,-420 1372,-352 1204,-352"/>
</g>
<g id="clust34" class="cluster">
<title>cluster_TsSearchModule_exports</title>
<polygon fill="none" stroke="#000000" points="1212,-360 1212,-412 1364,-412 1364,-360 1212,-360"/>
</g>
<!-- TsButtonModule -->
<g id="node1" class="node">
<title>TsButtonModule</title>
<polygon fill="#8dd3c7" stroke="#000000" points="871.6653,-263 868.6653,-267 847.6653,-267 844.6653,-263 760.3347,-263 760.3347,-227 871.6653,-227 871.6653,-263"/>
<text text-anchor="middle" x="816" y="-240.8" font-family="Times,serif" font-size="14.00" fill="#000000">TsButtonModule</text>
</g>
<!-- TsMenuModule -->
<g id="node4" class="node">
<title>TsMenuModule</title>
<polygon fill="#8dd3c7" stroke="#000000" points="872.2064,-328 869.2064,-332 848.2064,-332 845.2064,-328 765.7936,-328 765.7936,-292 872.2064,-292 872.2064,-328"/>
<text text-anchor="middle" x="819" y="-305.8" font-family="Times,serif" font-size="14.00" fill="#000000">TsMenuModule</text>
</g>
<!-- TsButtonModule&#45;&gt;TsMenuModule -->
<g id="edge30" class="edge">
<title>TsButtonModule&#45;&gt;TsMenuModule</title>
<path fill="none" stroke="#000000" d="M818.8647,-263.1061C818.8647,-263.1061 818.8647,-281.991 818.8647,-281.991"/>
<polygon fill="#000000" stroke="#000000" points="815.3647,-281.9909 818.8647,-291.991 822.3647,-281.991 815.3647,-281.9909"/>
</g>
<!-- TsSearchModule -->
<g id="node5" class="node">
<title>TsSearchModule</title>
<polygon fill="#8dd3c7" stroke="#000000" points="747.6346,-328 744.6346,-332 723.6346,-332 720.6346,-328 636.3654,-328 636.3654,-292 747.6346,-292 747.6346,-328"/>
<text text-anchor="middle" x="692" y="-305.8" font-family="Times,serif" font-size="14.00" fill="#000000">TsSearchModule</text>
</g>
<!-- TsButtonModule&#45;&gt;TsSearchModule -->
<g id="edge36" class="edge">
<title>TsButtonModule&#45;&gt;TsSearchModule</title>
<path fill="none" stroke="#000000" d="M760.1126,-239C749.2981,-239 741.25,-239 741.25,-239 741.25,-239 741.25,-281.7157 741.25,-281.7157"/>
<polygon fill="#000000" stroke="#000000" points="737.7501,-281.7157 741.25,-291.7157 744.7501,-281.7158 737.7501,-281.7157"/>
</g>
<!-- TerminusUIModule -->
<g id="node6" class="node">
<title>TerminusUIModule</title>
<polygon fill="#8dd3c7" stroke="#000000" points="670.9706,-404 667.9706,-408 646.9706,-408 643.9706,-404 543.0294,-404 543.0294,-368 670.9706,-368 670.9706,-404"/>
<text text-anchor="middle" x="607" y="-381.8" font-family="Times,serif" font-size="14.00" fill="#000000">TerminusUIModule</text>
</g>
<!-- TsButtonModule&#45;&gt;TerminusUIModule -->
<g id="edge1" class="edge">
<title>TsButtonModule&#45;&gt;TerminusUIModule</title>
<path fill="none" stroke="#000000" d="M760.2081,-251C755.2843,-251 752.1173,-251 752.1173,-251 752.1173,-251 752.1173,-377 752.1173,-377 752.1173,-377 681.073,-377 681.073,-377"/>
<polygon fill="#000000" stroke="#000000" points="681.073,-373.5001 671.073,-377 681.0729,-380.5001 681.073,-373.5001"/>
</g>
<!-- TsButtonComponent  -->
<g id="node16" class="node">
<title>TsButtonComponent </title>
<polygon fill="#fb8072" stroke="#000000" points="1549.4474,-122 1412.5526,-122 1412.5526,-86 1549.4474,-86 1549.4474,-122"/>
<text text-anchor="middle" x="1481" y="-99.8" font-family="Times,serif" font-size="14.00" fill="#000000">TsButtonComponent </text>
</g>
<!-- TsButtonModule&#45;&gt;TsButtonComponent  -->
<g id="edge15" class="edge">
<title>TsButtonModule&#45;&gt;TsButtonComponent </title>
<path fill="none" stroke="#000000" stroke-dasharray="5,2" d="M871.8388,-256C1031.9135,-256 1481,-256 1481,-256 1481,-256 1481,-132.0333 1481,-132.0333"/>
<polygon fill="#000000" stroke="#000000" points="1484.5001,-132.0333 1481,-122.0333 1477.5001,-132.0333 1484.5001,-132.0333"/>
</g>
<!-- TsInputModule -->
<g id="node2" class="node">
<title>TsInputModule</title>
<polygon fill="#8dd3c7" stroke="#000000" points="721.5982,-263 718.5982,-267 697.5982,-267 694.5982,-263 618.4018,-263 618.4018,-227 721.5982,-227 721.5982,-263"/>
<text text-anchor="middle" x="670" y="-240.8" font-family="Times,serif" font-size="14.00" fill="#000000">TsInputModule</text>
</g>
<!-- TsInputModule&#45;&gt;TsSearchModule -->
<g id="edge35" class="edge">
<title>TsInputModule&#45;&gt;TsSearchModule</title>
<path fill="none" stroke="#000000" d="M678.8661,-263.1061C678.8661,-263.1061 678.8661,-281.991 678.8661,-281.991"/>
<polygon fill="#000000" stroke="#000000" points="675.3661,-281.9909 678.8661,-291.991 682.3661,-281.991 675.3661,-281.9909"/>
</g>
<!-- TsInputModule&#45;&gt;TerminusUIModule -->
<g id="edge2" class="edge">
<title>TsInputModule&#45;&gt;TerminusUIModule</title>
<path fill="none" stroke="#000000" d="M630.2723,-263.1446C630.2723,-263.1446 630.2723,-357.925 630.2723,-357.925"/>
<polygon fill="#000000" stroke="#000000" points="626.7724,-357.925 630.2723,-367.925 633.7724,-357.925 626.7724,-357.925"/>
</g>
<!-- TsInputComponent  -->
<g id="node20" class="node">
<title>TsInputComponent </title>
<polygon fill="#fb8072" stroke="#000000" points="152.3814,-328 23.6186,-328 23.6186,-292 152.3814,-292 152.3814,-328"/>
<text text-anchor="middle" x="88" y="-305.8" font-family="Times,serif" font-size="14.00" fill="#000000">TsInputComponent </text>
</g>
<!-- TsInputModule&#45;&gt;TsInputComponent  -->
<g id="edge26" class="edge">
<title>TsInputModule&#45;&gt;TsInputComponent </title>
<path fill="none" stroke="#000000" stroke-dasharray="5,2" d="M624.3616,-263.2843C624.3616,-284.3211 624.3616,-316 624.3616,-316 624.3616,-316 162.4311,-316 162.4311,-316"/>
<polygon fill="#000000" stroke="#000000" points="162.4312,-312.5001 152.4311,-316 162.4311,-319.5001 162.4312,-312.5001"/>
</g>
<!-- TsInputMessagesModule -->
<g id="node3" class="node">
<title>TsInputMessagesModule</title>
<polygon fill="#8dd3c7" stroke="#000000" points="775.5211,-198 772.5211,-202 751.5211,-202 748.5211,-198 618.4789,-198 618.4789,-162 775.5211,-162 775.5211,-198"/>
<text text-anchor="middle" x="697" y="-175.8" font-family="Times,serif" font-size="14.00" fill="#000000">TsInputMessagesModule</text>
</g>
<!-- TsInputMessagesModule&#45;&gt;TsInputModule -->
<g id="edge25" class="edge">
<title>TsInputMessagesModule&#45;&gt;TsInputModule</title>
<path fill="none" stroke="#000000" d="M644.2255,-198.1061C644.2255,-198.1061 644.2255,-216.991 644.2255,-216.991"/>
<polygon fill="#000000" stroke="#000000" points="640.7255,-216.9909 644.2255,-226.991 647.7255,-216.991 640.7255,-216.9909"/>
</g>
<!-- TsInputMessagesModule&#45;&gt;TsSearchModule -->
<g id="edge34" class="edge">
<title>TsInputMessagesModule&#45;&gt;TsSearchModule</title>
<path fill="none" stroke="#000000" d="M728.1161,-198.0759C728.1161,-198.0759 728.1161,-281.6585 728.1161,-281.6585"/>
<polygon fill="#000000" stroke="#000000" points="724.6162,-281.6585 728.1161,-291.6585 731.6162,-281.6585 724.6162,-281.6585"/>
</g>
<!-- TsInputMessagesModule&#45;&gt;TerminusUIModule -->
<g id="edge3" class="edge">
<title>TsInputMessagesModule&#45;&gt;TerminusUIModule</title>
<path fill="none" stroke="#000000" d="M618.314,-189C614.3196,-189 611.9191,-189 611.9191,-189 611.9191,-189 611.9191,-357.8198 611.9191,-357.8198"/>
<polygon fill="#000000" stroke="#000000" points="608.4192,-357.8198 611.9191,-367.8198 615.4192,-357.8199 608.4192,-357.8198"/>
</g>
<!-- TsInputMessagesComponent  -->
<g id="node19" class="node">
<title>TsInputMessagesComponent </title>
<polygon fill="#fb8072" stroke="#000000" points="788.3031,-122 605.6969,-122 605.6969,-86 788.3031,-86 788.3031,-122"/>
<text text-anchor="middle" x="697" y="-99.8" font-family="Times,serif" font-size="14.00" fill="#000000">TsInputMessagesComponent </text>
</g>
<!-- TsInputMessagesModule&#45;&gt;TsInputMessagesComponent  -->
<g id="edge20" class="edge">
<title>TsInputMessagesModule&#45;&gt;TsInputMessagesComponent </title>
<path fill="none" stroke="#000000" stroke-dasharray="5,2" d="M697,-161.9891C697,-161.9891 697,-132.145 697,-132.145"/>
<polygon fill="#000000" stroke="#000000" points="700.5001,-132.145 697,-122.145 693.5001,-132.1451 700.5001,-132.145"/>
</g>
<!-- TsMenuModule&#45;&gt;TerminusUIModule -->
<g id="edge4" class="edge">
<title>TsMenuModule&#45;&gt;TerminusUIModule</title>
<path fill="none" stroke="#000000" d="M801.1254,-328.0109C801.1254,-350.4852 801.1254,-386 801.1254,-386 801.1254,-386 681.1019,-386 681.1019,-386"/>
<polygon fill="#000000" stroke="#000000" points="681.102,-382.5001 671.1019,-386 681.1019,-389.5001 681.102,-382.5001"/>
</g>
<!-- TsMenuComponent  -->
<g id="node22" class="node">
<title>TsMenuComponent </title>
<polygon fill="#fb8072" stroke="#000000" points="1043.9897,-404 912.0103,-404 912.0103,-368 1043.9897,-368 1043.9897,-404"/>
<text text-anchor="middle" x="978" y="-381.8" font-family="Times,serif" font-size="14.00" fill="#000000">TsMenuComponent </text>
</g>
<!-- TsMenuModule&#45;&gt;TsMenuComponent  -->
<g id="edge31" class="edge">
<title>TsMenuModule&#45;&gt;TsMenuComponent </title>
<path fill="none" stroke="#000000" stroke-dasharray="5,2" d="M872.3595,-321C897.5154,-321 922.0952,-321 922.0952,-321 922.0952,-321 922.0952,-357.8939 922.0952,-357.8939"/>
<polygon fill="#000000" stroke="#000000" points="918.5953,-357.8938 922.0952,-367.8939 925.5953,-357.8939 918.5953,-357.8938"/>
</g>
<!-- TsSearchModule&#45;&gt;TerminusUIModule -->
<g id="edge5" class="edge">
<title>TsSearchModule&#45;&gt;TerminusUIModule</title>
<path fill="none" stroke="#000000" d="M653.5842,-328.0109C653.5842,-328.0109 653.5842,-357.855 653.5842,-357.855"/>
<polygon fill="#000000" stroke="#000000" points="650.0842,-357.8549 653.5842,-367.855 657.0842,-357.855 650.0842,-357.8549"/>
</g>
<!-- TsSearchComponent  -->
<g id="node23" class="node">
<title>TsSearchComponent </title>
<polygon fill="#fb8072" stroke="#000000" points="1356.4166,-404 1219.5834,-404 1219.5834,-368 1356.4166,-368 1356.4166,-404"/>
<text text-anchor="middle" x="1288" y="-381.8" font-family="Times,serif" font-size="14.00" fill="#000000">TsSearchComponent </text>
</g>
<!-- TsSearchModule&#45;&gt;TsSearchComponent  -->
<g id="edge37" class="edge">
<title>TsSearchModule&#45;&gt;TsSearchComponent </title>
<path fill="none" stroke="#000000" stroke-dasharray="5,2" d="M743.0581,-328.1097C743.0581,-337.897 743.0581,-348 743.0581,-348 743.0581,-348 1265.1806,-348 1265.1806,-348 1265.1806,-348 1265.1806,-357.8903 1265.1806,-357.8903"/>
<polygon fill="#000000" stroke="#000000" points="1261.6807,-357.8903 1265.1806,-367.8903 1268.6807,-357.8904 1261.6807,-357.8903"/>
</g>
<!-- TsButtonModule  -->
<g id="node7" class="node">
<title>TsButtonModule </title>
<polygon fill="#fb8072" stroke="#000000" points="871.6649,-472 756.3351,-472 756.3351,-436 871.6649,-436 871.6649,-472"/>
<text text-anchor="middle" x="814" y="-449.8" font-family="Times,serif" font-size="14.00" fill="#000000">TsButtonModule </text>
</g>
<!-- TerminusUIModule&#45;&gt;TsButtonModule  -->
<g id="edge6" class="edge">
<title>TerminusUIModule&#45;&gt;TsButtonModule </title>
<path fill="none" stroke="#000000" stroke-dasharray="5,2" d="M671.1928,-395C739.0438,-395 836.3539,-395 836.3539,-395 836.3539,-395 836.3539,-425.9775 836.3539,-425.9775"/>
<polygon fill="#000000" stroke="#000000" points="832.854,-425.9774 836.3539,-435.9775 839.854,-425.9775 832.854,-425.9774"/>
</g>
<!-- TsInputModule  -->
<g id="node8" class="node">
<title>TsInputModule </title>
<polygon fill="#fb8072" stroke="#000000" points="738.099,-472 631.901,-472 631.901,-436 738.099,-436 738.099,-472"/>
<text text-anchor="middle" x="685" y="-449.8" font-family="Times,serif" font-size="14.00" fill="#000000">TsInputModule </text>
</g>
<!-- TerminusUIModule&#45;&gt;TsInputModule  -->
<g id="edge7" class="edge">
<title>TerminusUIModule&#45;&gt;TsInputModule </title>
<path fill="none" stroke="#000000" stroke-dasharray="5,2" d="M651.3431,-404.2228C651.3431,-404.2228 651.3431,-425.7269 651.3431,-425.7269"/>
<polygon fill="#000000" stroke="#000000" points="647.8432,-425.7269 651.3431,-435.7269 654.8432,-425.727 647.8432,-425.7269"/>
</g>
<!-- TsInputMessagesModule  -->
<g id="node9" class="node">
<title>TsInputMessagesModule </title>
<polygon fill="#fb8072" stroke="#000000" points="613.5204,-472 452.4796,-472 452.4796,-436 613.5204,-436 613.5204,-472"/>
<text text-anchor="middle" x="533" y="-449.8" font-family="Times,serif" font-size="14.00" fill="#000000">TsInputMessagesModule </text>
</g>
<!-- TerminusUIModule&#45;&gt;TsInputMessagesModule  -->
<g id="edge8" class="edge">
<title>TerminusUIModule&#45;&gt;TsInputMessagesModule </title>
<path fill="none" stroke="#000000" stroke-dasharray="5,2" d="M578.2624,-404.2228C578.2624,-404.2228 578.2624,-425.7269 578.2624,-425.7269"/>
<polygon fill="#000000" stroke="#000000" points="574.7625,-425.7269 578.2624,-435.7269 581.7625,-425.727 574.7625,-425.7269"/>
</g>
<!-- TsMenuModule  -->
<g id="node10" class="node">
<title>TsMenuModule </title>
<polygon fill="#fb8072" stroke="#000000" points="434.7066,-472 325.2934,-472 325.2934,-436 434.7066,-436 434.7066,-472"/>
<text text-anchor="middle" x="380" y="-449.8" font-family="Times,serif" font-size="14.00" fill="#000000">TsMenuModule </text>
</g>
<!-- TerminusUIModule&#45;&gt;TsMenuModule  -->
<g id="edge9" class="edge">
<title>TerminusUIModule&#45;&gt;TsMenuModule </title>
<path fill="none" stroke="#000000" stroke-dasharray="5,2" d="M542.7483,-392C481.1927,-392 397.5945,-392 397.5945,-392 397.5945,-392 397.5945,-425.7333 397.5945,-425.7333"/>
<polygon fill="#000000" stroke="#000000" points="394.0946,-425.7333 397.5945,-435.7333 401.0946,-425.7333 394.0946,-425.7333"/>
</g>
<!-- TsSearchModule  -->
<g id="node11" class="node">
<title>TsSearchModule </title>
<polygon fill="#fb8072" stroke="#000000" points="307.6341,-472 192.3659,-472 192.3659,-436 307.6341,-436 307.6341,-472"/>
<text text-anchor="middle" x="250" y="-449.8" font-family="Times,serif" font-size="14.00" fill="#000000">TsSearchModule </text>
</g>
<!-- TerminusUIModule&#45;&gt;TsSearchModule  -->
<g id="edge10" class="edge">
<title>TerminusUIModule&#45;&gt;TsSearchModule </title>
<path fill="none" stroke="#000000" stroke-dasharray="5,2" d="M542.7632,-380C439.9807,-380 250,-380 250,-380 250,-380 250,-425.7079 250,-425.7079"/>
<polygon fill="#000000" stroke="#000000" points="246.5001,-425.7078 250,-435.7079 253.5001,-425.7079 246.5001,-425.7078"/>
</g>
<!-- CommonModule -->
<g id="node12" class="node">
<title>CommonModule</title>
<polygon fill="#8dd3c7" stroke="#000000" points="1061.6681,-122 1058.6681,-126 1037.6681,-126 1034.6681,-122 950.3319,-122 950.3319,-86 1061.6681,-86 1061.6681,-122"/>
<text text-anchor="middle" x="1006" y="-99.8" font-family="Times,serif" font-size="14.00" fill="#000000">CommonModule</text>
</g>
<!-- CommonModule&#45;&gt;TsButtonModule -->
<g id="edge11" class="edge">
<title>CommonModule&#45;&gt;TsButtonModule</title>
<path fill="none" stroke="#000000" d="M1012.5517,-122.215C1012.5517,-158.2102 1012.5517,-235 1012.5517,-235 1012.5517,-235 881.7981,-235 881.7981,-235"/>
<polygon fill="#000000" stroke="#000000" points="881.7981,-231.5001 871.7981,-235 881.798,-238.5001 881.7981,-231.5001"/>
</g>
<!-- CommonModule&#45;&gt;TsInputModule -->
<g id="edge21" class="edge">
<title>CommonModule&#45;&gt;TsInputModule</title>
<path fill="none" stroke="#000000" d="M981.3589,-122.4904C981.3589,-153.5885 981.3589,-213 981.3589,-213 981.3589,-213 695.7746,-213 695.7746,-213 695.7746,-213 695.7746,-216.7566 695.7746,-216.7566"/>
<polygon fill="#000000" stroke="#000000" points="692.2746,-216.7566 695.7746,-226.7566 699.2746,-216.7566 692.2746,-216.7566"/>
</g>
<!-- CommonModule&#45;&gt;TsInputMessagesModule -->
<g id="edge16" class="edge">
<title>CommonModule&#45;&gt;TsInputMessagesModule</title>
<path fill="none" stroke="#000000" d="M965.7626,-122.1985C965.7626,-146.3563 965.7626,-186 965.7626,-186 965.7626,-186 785.8217,-186 785.8217,-186"/>
<polygon fill="#000000" stroke="#000000" points="785.8217,-182.5001 775.8217,-186 785.8216,-189.5001 785.8217,-182.5001"/>
</g>
<!-- CommonModule&#45;&gt;TsMenuModule -->
<g id="edge27" class="edge">
<title>CommonModule&#45;&gt;TsMenuModule</title>
<path fill="none" stroke="#000000" d="M1028.148,-122.0149C1028.148,-171.6966 1028.148,-307 1028.148,-307 1028.148,-307 882.318,-307 882.318,-307"/>
<polygon fill="#000000" stroke="#000000" points="882.3181,-303.5001 872.318,-307 882.318,-310.5001 882.3181,-303.5001"/>
</g>
<!-- CommonModule&#45;&gt;TsSearchModule -->
<g id="edge32" class="edge">
<title>CommonModule&#45;&gt;TsSearchModule</title>
<path fill="none" stroke="#000000" d="M996.9553,-122.125C996.9553,-154.75 996.9553,-220 996.9553,-220 996.9553,-220 734.6831,-220 734.6831,-220 734.6831,-220 734.6831,-281.7872 734.6831,-281.7872"/>
<polygon fill="#000000" stroke="#000000" points="731.1831,-281.7871 734.6831,-291.7872 738.1831,-281.7872 731.1831,-281.7871"/>
</g>
<!-- LaddaModule.forRoot(args) -->
<g id="node13" class="node">
<title>LaddaModule.forRoot(args)</title>
<polygon fill="#8dd3c7" stroke="#000000" points="1389.2211,-122 1386.2211,-126 1365.2211,-126 1362.2211,-122 1214.7789,-122 1214.7789,-86 1389.2211,-86 1389.2211,-122"/>
<text text-anchor="middle" x="1302" y="-99.8" font-family="Times,serif" font-size="14.00" fill="#000000">LaddaModule.forRoot(args)</text>
</g>
<!-- LaddaModule.forRoot(args)&#45;&gt;TsButtonModule -->
<g id="edge12" class="edge">
<title>LaddaModule.forRoot(args)&#45;&gt;TsButtonModule</title>
<path fill="none" stroke="#000000" d="M1310.8194,-122.0712C1310.8194,-160.941 1310.8194,-249 1310.8194,-249 1310.8194,-249 881.8002,-249 881.8002,-249"/>
<polygon fill="#000000" stroke="#000000" points="881.8003,-245.5001 871.8002,-249 881.8002,-252.5001 881.8003,-245.5001"/>
</g>
<!-- MdButtonModule -->
<g id="node14" class="node">
<title>MdButtonModule</title>
<polygon fill="#8dd3c7" stroke="#000000" points="1196.6123,-122 1193.6123,-126 1172.6123,-126 1169.6123,-122 1079.3877,-122 1079.3877,-86 1196.6123,-86 1196.6123,-122"/>
<text text-anchor="middle" x="1138" y="-99.8" font-family="Times,serif" font-size="14.00" fill="#000000">MdButtonModule</text>
</g>
<!-- MdButtonModule&#45;&gt;TsButtonModule -->
<g id="edge13" class="edge">
<title>MdButtonModule&#45;&gt;TsButtonModule</title>
<path fill="none" stroke="#000000" d="M1129.6354,-122.0411C1129.6354,-159.4476 1129.6354,-242 1129.6354,-242 1129.6354,-242 881.7103,-242 881.7103,-242"/>
<polygon fill="#000000" stroke="#000000" points="881.7103,-238.5001 871.7103,-242 881.7103,-245.5001 881.7103,-238.5001"/>
</g>
<!-- MdIconModule -->
<g id="node15" class="node">
<title>MdIconModule</title>
<polygon fill="#8dd3c7" stroke="#000000" points="931.8697,-122 928.8697,-126 907.8697,-126 904.8697,-122 828.1303,-122 828.1303,-86 931.8697,-86 931.8697,-122"/>
<text text-anchor="middle" x="880" y="-99.8" font-family="Times,serif" font-size="14.00" fill="#000000">MdIconModule</text>
</g>
<!-- MdIconModule&#45;&gt;TsButtonModule -->
<g id="edge14" class="edge">
<title>MdIconModule&#45;&gt;TsButtonModule</title>
<path fill="none" stroke="#000000" d="M860.8906,-122.1446C860.8906,-122.1446 860.8906,-216.925 860.8906,-216.925"/>
<polygon fill="#000000" stroke="#000000" points="857.3907,-216.925 860.8906,-226.925 864.3907,-216.925 857.3907,-216.925"/>
</g>
<!-- MdIconModule&#45;&gt;TsInputModule -->
<g id="edge24" class="edge">
<title>MdIconModule&#45;&gt;TsInputModule</title>
<path fill="none" stroke="#000000" d="M849.9488,-122.2356C849.9488,-151.5744 849.9488,-206 849.9488,-206 849.9488,-206 670,-206 670,-206 670,-206 670,-216.8701 670,-216.8701"/>
<polygon fill="#000000" stroke="#000000" points="666.5001,-216.8701 670,-226.8701 673.5001,-216.8701 666.5001,-216.8701"/>
</g>
<!-- MdIconModule&#45;&gt;TsInputMessagesModule -->
<g id="edge19" class="edge">
<title>MdIconModule&#45;&gt;TsInputMessagesModule</title>
<path fill="none" stroke="#000000" d="M839.007,-122.0267C839.007,-142.7672 839.007,-174 839.007,-174 839.007,-174 785.8937,-174 785.8937,-174"/>
<polygon fill="#000000" stroke="#000000" points="785.8937,-170.5001 775.8937,-174 785.8936,-177.5001 785.8937,-170.5001"/>
</g>
<!-- MdIconModule&#45;&gt;TsMenuModule -->
<g id="edge29" class="edge">
<title>MdIconModule&#45;&gt;TsMenuModule</title>
<path fill="none" stroke="#000000" d="M892.1794,-122.0879C892.1794,-170.6094 892.1794,-300 892.1794,-300 892.1794,-300 882.1828,-300 882.1828,-300"/>
<polygon fill="#000000" stroke="#000000" points="882.1828,-296.5001 872.1828,-300 882.1827,-303.5001 882.1828,-296.5001"/>
</g>
<!-- FormsModule -->
<g id="node17" class="node">
<title>FormsModule</title>
<polygon fill="#8dd3c7" stroke="#000000" points="455.8288,-122 452.8288,-126 431.8288,-126 428.8288,-122 360.1712,-122 360.1712,-86 455.8288,-86 455.8288,-122"/>
<text text-anchor="middle" x="408" y="-99.8" font-family="Times,serif" font-size="14.00" fill="#000000">FormsModule</text>
</g>
<!-- FormsModule&#45;&gt;TsInputModule -->
<g id="edge22" class="edge">
<title>FormsModule&#45;&gt;TsInputModule</title>
<path fill="none" stroke="#000000" d="M443.6715,-122.0251C443.6715,-161.2783 443.6715,-251 443.6715,-251 443.6715,-251 608.3594,-251 608.3594,-251"/>
<polygon fill="#000000" stroke="#000000" points="608.3594,-254.5001 618.3594,-251 608.3593,-247.5001 608.3594,-254.5001"/>
</g>
<!-- FormsModule&#45;&gt;TsInputMessagesModule -->
<g id="edge17" class="edge">
<title>FormsModule&#45;&gt;TsInputMessagesModule</title>
<path fill="none" stroke="#000000" d="M448.0806,-122.0109C448.0806,-144.4852 448.0806,-180 448.0806,-180 448.0806,-180 608.2404,-180 608.2404,-180"/>
<polygon fill="#000000" stroke="#000000" points="608.2404,-183.5001 618.2404,-180 608.2403,-176.5001 608.2404,-183.5001"/>
</g>
<!-- FormsModule&#45;&gt;TsSearchModule -->
<g id="edge33" class="edge">
<title>FormsModule&#45;&gt;TsSearchModule</title>
<path fill="none" stroke="#000000" d="M439.2623,-122.1014C439.2623,-171.3332 439.2623,-304 439.2623,-304 439.2623,-304 626.2228,-304 626.2228,-304"/>
<polygon fill="#000000" stroke="#000000" points="626.2228,-307.5001 636.2228,-304 626.2227,-300.5001 626.2228,-307.5001"/>
</g>
<!-- MdInputModule -->
<g id="node18" class="node">
<title>MdInputModule</title>
<polygon fill="#8dd3c7" stroke="#000000" points="582.0465,-122 579.0465,-126 558.0465,-126 555.0465,-122 473.9535,-122 473.9535,-86 582.0465,-86 582.0465,-122"/>
<text text-anchor="middle" x="528" y="-99.8" font-family="Times,serif" font-size="14.00" fill="#000000">MdInputModule</text>
</g>
<!-- MdInputModule&#45;&gt;TsInputModule -->
<g id="edge23" class="edge">
<title>MdInputModule&#45;&gt;TsInputModule</title>
<path fill="none" stroke="#000000" d="M556.1007,-122.2067C556.1007,-159.0559 556.1007,-239 556.1007,-239 556.1007,-239 608.3824,-239 608.3824,-239"/>
<polygon fill="#000000" stroke="#000000" points="608.3825,-242.5001 618.3824,-239 608.3824,-235.5001 608.3825,-242.5001"/>
</g>
<!-- MdInputModule&#45;&gt;TsInputMessagesModule -->
<g id="edge18" class="edge">
<title>MdInputModule&#45;&gt;TsInputMessagesModule</title>
<path fill="none" stroke="#000000" d="M569.1868,-122.308C569.1868,-142.1455 569.1868,-171 569.1868,-171 569.1868,-171 608.2372,-171 608.2372,-171"/>
<polygon fill="#000000" stroke="#000000" points="608.2372,-174.5001 618.2372,-171 608.2371,-167.5001 608.2372,-174.5001"/>
</g>
<!-- MdMenuModule -->
<g id="node21" class="node">
<title>MdMenuModule</title>
<polygon fill="#8dd3c7" stroke="#000000" points="1179.6541,-404 1176.6541,-408 1155.6541,-408 1152.6541,-404 1068.3459,-404 1068.3459,-368 1179.6541,-368 1179.6541,-404"/>
<text text-anchor="middle" x="1124" y="-381.8" font-family="Times,serif" font-size="14.00" fill="#000000">MdMenuModule</text>
</g>
<!-- MdMenuModule&#45;&gt;TsMenuModule -->
<g id="edge28" class="edge">
<title>MdMenuModule&#45;&gt;TsMenuModule</title>
<path fill="none" stroke="#000000" d="M1073.8086,-367.8314C1073.8086,-346.502 1073.8086,-314 1073.8086,-314 1073.8086,-314 882.1061,-314 882.1061,-314"/>
<polygon fill="#000000" stroke="#000000" points="882.1061,-310.5001 872.1061,-314 882.106,-317.5001 882.1061,-310.5001"/>
</g>
</g>
</svg>
