<?xml version="1.0" encoding="UTF-8" standalone="no"?>
<!DOCTYPE svg PUBLIC "-//W3C//DTD SVG 1.1//EN"
 "http://www.w3.org/Graphics/SVG/1.1/DTD/svg11.dtd">
<!-- Generated by graphviz version 2.40.1 (20161225.0304)
 -->
<!-- Title: dependencies Pages: 1 -->
<svg width="1661pt" height="515pt"
 viewBox="0.00 0.00 1661.00 515.00" xmlns="http://www.w3.org/2000/svg" xmlns:xlink="http://www.w3.org/1999/xlink">
<g id="graph0" class="graph" transform="scale(1 1) rotate(0) translate(4 511)">
<title>dependencies</title>
<polygon fill="#ffffff" stroke="transparent" points="-4,4 -4,-511 1657,-511 1657,4 -4,4"/>
<text text-anchor="start" x="805.5091" y="-42.4" font-family="sans-serif" font-weight="bold" font-size="14.00" fill="#000000">Legend</text>
<polygon fill="#ffffb3" stroke="transparent" points="592.5,-10 592.5,-30 612.5,-30 612.5,-10 592.5,-10"/>
<text text-anchor="start" x="616.129" y="-15.4" font-family="sans-serif" font-size="14.00" fill="#000000"> &#160;Declarations</text>
<polygon fill="#8dd3c7" stroke="transparent" points="705.5,-10 705.5,-30 725.5,-30 725.5,-10 705.5,-10"/>
<text text-anchor="start" x="729.2251" y="-15.4" font-family="sans-serif" font-size="14.00" fill="#000000"> &#160;Module</text>
<polygon fill="#80b1d3" stroke="transparent" points="791.5,-10 791.5,-30 811.5,-30 811.5,-10 791.5,-10"/>
<text text-anchor="start" x="815.2812" y="-15.4" font-family="sans-serif" font-size="14.00" fill="#000000"> &#160;Bootstrap</text>
<polygon fill="#fdb462" stroke="transparent" points="888.5,-10 888.5,-30 908.5,-30 908.5,-10 888.5,-10"/>
<text text-anchor="start" x="912.1732" y="-15.4" font-family="sans-serif" font-size="14.00" fill="#000000"> &#160;Providers</text>
<polygon fill="#fb8072" stroke="transparent" points="984.5,-10 984.5,-30 1004.5,-30 1004.5,-10 984.5,-10"/>
<text text-anchor="start" x="1008.2258" y="-15.4" font-family="sans-serif" font-size="14.00" fill="#000000"> &#160;Exports</text>
<g id="clust1" class="cluster">
<title>cluster_TerminusUIModule</title>
<polygon fill="none" stroke="#000000" stroke-dasharray="1,5" points="320,-146 320,-499 1161,-499 1161,-146 320,-146"/>
</g>
<g id="clust3" class="cluster">
<title>cluster_TerminusUIModule_imports</title>
<polygon fill="none" stroke="#000000" points="514,-154 514,-347 814,-347 814,-154 514,-154"/>
</g>
<g id="clust4" class="cluster">
<title>cluster_TerminusUIModule_exports</title>
<polygon fill="none" stroke="#000000" points="328,-439 328,-491 1153,-491 1153,-439 328,-439"/>
</g>
<g id="clust7" class="cluster">
<title>cluster_TsButtonModule</title>
<polygon fill="none" stroke="#000000" stroke-dasharray="1,5" points="697,-70 697,-138 1451,-138 1451,-70 697,-70"/>
</g>
<g id="clust9" class="cluster">
<title>cluster_TsButtonModule_imports</title>
<polygon fill="none" stroke="#000000" points="865,-78 865,-130 1443,-130 1443,-78 865,-78"/>
</g>
<g id="clust10" class="cluster">
<title>cluster_TsButtonModule_exports</title>
<polygon fill="none" stroke="#000000" points="705,-78 705,-130 857,-130 857,-78 705,-78"/>
</g>
<g id="clust13" class="cluster">
<title>cluster_TsInputMessagesModule</title>
<polygon fill="none" stroke="#000000" stroke-dasharray="1,5" points="229,-70 229,-138 689,-138 689,-70 229,-70"/>
</g>
<g id="clust15" class="cluster">
<title>cluster_TsInputMessagesModule_imports</title>
<polygon fill="none" stroke="#000000" points="237,-78 237,-130 475,-130 475,-78 237,-78"/>
</g>
<g id="clust16" class="cluster">
<title>cluster_TsInputMessagesModule_exports</title>
<polygon fill="none" stroke="#000000" points="483,-78 483,-130 681,-130 681,-78 483,-78"/>
</g>
<g id="clust19" class="cluster">
<title>cluster_TsInputModule</title>
<polygon fill="none" stroke="#000000" stroke-dasharray="1,5" points="152,-287 152,-355 312,-355 312,-287 152,-287"/>
</g>
<g id="clust22" class="cluster">
<title>cluster_TsInputModule_exports</title>
<polygon fill="none" stroke="#000000" points="160,-295 160,-347 304,-347 304,-295 160,-295"/>
</g>
<g id="clust25" class="cluster">
<title>cluster_TsMenuModule</title>
<polygon fill="none" stroke="#000000" stroke-dasharray="1,5" points="1169,-363 1169,-431 1469,-431 1469,-363 1169,-363"/>
</g>
<g id="clust27" class="cluster">
<title>cluster_TsMenuModule_imports</title>
<polygon fill="none" stroke="#000000" points="1333,-371 1333,-423 1461,-423 1461,-371 1333,-371"/>
</g>
<g id="clust28" class="cluster">
<title>cluster_TsMenuModule_exports</title>
<polygon fill="none" stroke="#000000" points="1177,-371 1177,-423 1325,-423 1325,-371 1177,-371"/>
</g>
<g id="clust31" class="cluster">
<title>cluster_TsSearchModule</title>
<polygon fill="none" stroke="#000000" stroke-dasharray="1,5" points="1477,-363 1477,-431 1645,-431 1645,-363 1477,-363"/>
</g>
<g id="clust34" class="cluster">
<title>cluster_TsSearchModule_exports</title>
<polygon fill="none" stroke="#000000" points="1485,-371 1485,-423 1637,-423 1637,-371 1485,-371"/>
</g>
<g id="clust37" class="cluster">
<title>cluster_TsSelectModule</title>
<polygon fill="none" stroke="#000000" stroke-dasharray="1,5" points="8,-211 8,-279 312,-279 312,-211 8,-211"/>
</g>
<g id="clust39" class="cluster">
<title>cluster_TsSelectModule_imports</title>
<polygon fill="none" stroke="#000000" points="174,-219 174,-271 304,-271 304,-219 174,-219"/>
</g>
<g id="clust40" class="cluster">
<title>cluster_TsSelectModule_exports</title>
<polygon fill="none" stroke="#000000" points="16,-219 16,-271 166,-271 166,-219 16,-219"/>
</g>
<!-- TsButtonModule -->
<g id="node1" class="node">
<title>TsButtonModule</title>
<polygon fill="#8dd3c7" stroke="#000000" points="805.6653,-263 802.6653,-267 781.6653,-267 778.6653,-263 694.3347,-263 694.3347,-227 805.6653,-227 805.6653,-263"/>
<text text-anchor="middle" x="750" y="-240.8" font-family="Times,serif" font-size="14.00" fill="#000000">TsButtonModule</text>
</g>
<!-- TsMenuModule -->
<g id="node4" class="node">
<title>TsMenuModule</title>
<polygon fill="#8dd3c7" stroke="#000000" points="806.2064,-339 803.2064,-343 782.2064,-343 779.2064,-339 699.7936,-339 699.7936,-303 806.2064,-303 806.2064,-339"/>
<text text-anchor="middle" x="753" y="-316.8" font-family="Times,serif" font-size="14.00" fill="#000000">TsMenuModule</text>
</g>
<!-- TsButtonModule&#45;&gt;TsMenuModule -->
<g id="edge32" class="edge">
<title>TsButtonModule&#45;&gt;TsMenuModule</title>
<path fill="none" stroke="#000000" d="M752.8647,-263.0109C752.8647,-263.0109 752.8647,-292.855 752.8647,-292.855"/>
<polygon fill="#000000" stroke="#000000" points="749.3647,-292.8549 752.8647,-302.855 756.3647,-292.855 749.3647,-292.8549"/>
</g>
<!-- TsSearchModule -->
<g id="node6" class="node">
<title>TsSearchModule</title>
<polygon fill="#8dd3c7" stroke="#000000" points="681.6346,-339 678.6346,-343 657.6346,-343 654.6346,-339 570.3654,-339 570.3654,-303 681.6346,-303 681.6346,-339"/>
<text text-anchor="middle" x="626" y="-316.8" font-family="Times,serif" font-size="14.00" fill="#000000">TsSearchModule</text>
</g>
<!-- TsButtonModule&#45;&gt;TsSearchModule -->
<g id="edge38" class="edge">
<title>TsButtonModule&#45;&gt;TsSearchModule</title>
<path fill="none" stroke="#000000" d="M694.2708,-251C678.2546,-251 665.0284,-251 665.0284,-251 665.0284,-251 665.0284,-292.9733 665.0284,-292.9733"/>
<polygon fill="#000000" stroke="#000000" points="661.5285,-292.9732 665.0284,-302.9733 668.5285,-292.9733 661.5285,-292.9732"/>
</g>
<!-- TerminusUIModule -->
<g id="node7" class="node">
<title>TerminusUIModule</title>
<polygon fill="#8dd3c7" stroke="#000000" points="652.9706,-415 649.9706,-419 628.9706,-419 625.9706,-415 525.0294,-415 525.0294,-379 652.9706,-379 652.9706,-415"/>
<text text-anchor="middle" x="589" y="-392.8" font-family="Times,serif" font-size="14.00" fill="#000000">TerminusUIModule</text>
</g>
<!-- TsButtonModule&#45;&gt;TerminusUIModule -->
<g id="edge1" class="edge">
<title>TsButtonModule&#45;&gt;TerminusUIModule</title>
<path fill="none" stroke="#000000" d="M693.9842,-239C691.5143,-239 690.0507,-239 690.0507,-239 690.0507,-239 690.0507,-393 690.0507,-393 690.0507,-393 662.997,-393 662.997,-393"/>
<polygon fill="#000000" stroke="#000000" points="662.997,-389.5001 652.997,-393 662.9969,-396.5001 662.997,-389.5001"/>
</g>
<!-- TsButtonComponent  -->
<g id="node18" class="node">
<title>TsButtonComponent </title>
<polygon fill="#fb8072" stroke="#000000" points="849.4474,-122 712.5526,-122 712.5526,-86 849.4474,-86 849.4474,-122"/>
<text text-anchor="middle" x="781" y="-99.8" font-family="Times,serif" font-size="14.00" fill="#000000">TsButtonComponent </text>
</g>
<!-- TsButtonModule&#45;&gt;TsButtonComponent  -->
<g id="edge17" class="edge">
<title>TsButtonModule&#45;&gt;TsButtonComponent </title>
<path fill="none" stroke="#000000" stroke-dasharray="5,2" d="M805.7054,-233C818.1741,-233 827.7884,-233 827.7884,-233 827.7884,-233 827.7884,-132.2089 827.7884,-132.2089"/>
<polygon fill="#000000" stroke="#000000" points="831.2885,-132.2089 827.7884,-122.2089 824.2885,-132.209 831.2885,-132.2089"/>
</g>
<!-- TsInputModule -->
<g id="node2" class="node">
<title>TsInputModule</title>
<polygon fill="#8dd3c7" stroke="#000000" points="639.5982,-263 636.5982,-267 615.5982,-267 612.5982,-263 536.4018,-263 536.4018,-227 639.5982,-227 639.5982,-263"/>
<text text-anchor="middle" x="588" y="-240.8" font-family="Times,serif" font-size="14.00" fill="#000000">TsInputModule</text>
</g>
<!-- TsInputModule&#45;&gt;TsSearchModule -->
<g id="edge37" class="edge">
<title>TsInputModule&#45;&gt;TsSearchModule</title>
<path fill="none" stroke="#000000" d="M604.8661,-263.0109C604.8661,-263.0109 604.8661,-292.855 604.8661,-292.855"/>
<polygon fill="#000000" stroke="#000000" points="601.3661,-292.8549 604.8661,-302.855 608.3661,-292.855 601.3661,-292.8549"/>
</g>
<!-- TsInputModule&#45;&gt;TerminusUIModule -->
<g id="edge2" class="edge">
<title>TsInputModule&#45;&gt;TerminusUIModule</title>
<path fill="none" stroke="#000000" d="M558.939,-263.0333C558.939,-263.0333 558.939,-368.9902 558.939,-368.9902"/>
<polygon fill="#000000" stroke="#000000" points="555.4391,-368.9901 558.939,-378.9902 562.4391,-368.9902 555.4391,-368.9901"/>
</g>
<!-- TsInputComponent  -->
<g id="node22" class="node">
<title>TsInputComponent </title>
<polygon fill="#fb8072" stroke="#000000" points="296.3814,-339 167.6186,-339 167.6186,-303 296.3814,-303 296.3814,-339"/>
<text text-anchor="middle" x="232" y="-316.8" font-family="Times,serif" font-size="14.00" fill="#000000">TsInputComponent </text>
</g>
<!-- TsInputModule&#45;&gt;TsInputComponent  -->
<g id="edge28" class="edge">
<title>TsInputModule&#45;&gt;TsInputComponent </title>
<path fill="none" stroke="#000000" stroke-dasharray="5,2" d="M547.6949,-263.1985C547.6949,-287.3563 547.6949,-327 547.6949,-327 547.6949,-327 306.2661,-327 306.2661,-327"/>
<polygon fill="#000000" stroke="#000000" points="306.2661,-323.5001 296.2661,-327 306.2661,-330.5001 306.2661,-323.5001"/>
</g>
<!-- TsInputMessagesModule -->
<g id="node3" class="node">
<title>TsInputMessagesModule</title>
<polygon fill="#8dd3c7" stroke="#000000" points="805.5211,-198 802.5211,-202 781.5211,-202 778.5211,-198 648.4789,-198 648.4789,-162 805.5211,-162 805.5211,-198"/>
<text text-anchor="middle" x="727" y="-175.8" font-family="Times,serif" font-size="14.00" fill="#000000">TsInputMessagesModule</text>
</g>
<!-- TsInputMessagesModule&#45;&gt;TsInputModule -->
<g id="edge27" class="edge">
<title>TsInputMessagesModule&#45;&gt;TsInputModule</title>
<path fill="none" stroke="#000000" d="M648.3304,-180C640.1263,-180 634.7132,-180 634.7132,-180 634.7132,-180 634.7132,-216.8939 634.7132,-216.8939"/>
<polygon fill="#000000" stroke="#000000" points="631.2133,-216.8938 634.7132,-226.8939 638.2133,-216.8939 631.2133,-216.8938"/>
</g>
<!-- TsInputMessagesModule&#45;&gt;TsSearchModule -->
<g id="edge36" class="edge">
<title>TsInputMessagesModule&#45;&gt;TsSearchModule</title>
<path fill="none" stroke="#000000" d="M656.6341,-198.1446C656.6341,-198.1446 656.6341,-292.925 656.6341,-292.925"/>
<polygon fill="#000000" stroke="#000000" points="653.1342,-292.925 656.6341,-302.925 660.1342,-292.925 653.1342,-292.925"/>
</g>
<!-- TsInputMessagesModule&#45;&gt;TerminusUIModule -->
<g id="edge3" class="edge">
<title>TsInputMessagesModule&#45;&gt;TerminusUIModule</title>
<path fill="none" stroke="#000000" d="M685.9339,-198.0948C685.9339,-248.6999 685.9339,-388 685.9339,-388 685.9339,-388 663.1165,-388 663.1165,-388"/>
<polygon fill="#000000" stroke="#000000" points="663.1165,-384.5001 653.1165,-388 663.1164,-391.5001 663.1165,-384.5001"/>
</g>
<!-- TsInputMessagesComponent  -->
<g id="node21" class="node">
<title>TsInputMessagesComponent </title>
<polygon fill="#fb8072" stroke="#000000" points="673.3031,-122 490.6969,-122 490.6969,-86 673.3031,-86 673.3031,-122"/>
<text text-anchor="middle" x="582" y="-99.8" font-family="Times,serif" font-size="14.00" fill="#000000">TsInputMessagesComponent </text>
</g>
<!-- TsInputMessagesModule&#45;&gt;TsInputMessagesComponent  -->
<g id="edge22" class="edge">
<title>TsInputMessagesModule&#45;&gt;TsInputMessagesComponent </title>
<path fill="none" stroke="#000000" stroke-dasharray="5,2" d="M667.1111,-161.9891C667.1111,-161.9891 667.1111,-132.145 667.1111,-132.145"/>
<polygon fill="#000000" stroke="#000000" points="670.6112,-132.145 667.1111,-122.145 663.6112,-132.1451 670.6112,-132.145"/>
</g>
<!-- TsMenuModule&#45;&gt;TerminusUIModule -->
<g id="edge4" class="edge">
<title>TsMenuModule&#45;&gt;TerminusUIModule</title>
<path fill="none" stroke="#000000" d="M703.875,-339.0109C703.875,-361.4852 703.875,-397 703.875,-397 703.875,-397 663.1548,-397 663.1548,-397"/>
<polygon fill="#000000" stroke="#000000" points="663.1548,-393.5001 653.1548,-397 663.1547,-400.5001 663.1548,-393.5001"/>
</g>
<!-- TsMenuComponent  -->
<g id="node24" class="node">
<title>TsMenuComponent </title>
<polygon fill="#fb8072" stroke="#000000" points="1316.9897,-415 1185.0103,-415 1185.0103,-379 1316.9897,-379 1316.9897,-415"/>
<text text-anchor="middle" x="1251" y="-392.8" font-family="Times,serif" font-size="14.00" fill="#000000">TsMenuComponent </text>
</g>
<!-- TsMenuModule&#45;&gt;TsMenuComponent  -->
<g id="edge33" class="edge">
<title>TsMenuModule&#45;&gt;TsMenuComponent </title>
<path fill="none" stroke="#000000" stroke-dasharray="5,2" d="M779.232,-339.2222C779.232,-357.8285 779.232,-384 779.232,-384 779.232,-384 1174.9059,-384 1174.9059,-384"/>
<polygon fill="#000000" stroke="#000000" points="1174.906,-387.5001 1184.9059,-384 1174.9059,-380.5001 1174.906,-387.5001"/>
</g>
<!-- TsSelectModule -->
<g id="node5" class="node">
<title>TsSelectModule</title>
<polygon fill="#8dd3c7" stroke="#000000" points="629.7549,-198 626.7549,-202 605.7549,-202 602.7549,-198 522.2451,-198 522.2451,-162 629.7549,-162 629.7549,-198"/>
<text text-anchor="middle" x="576" y="-175.8" font-family="Times,serif" font-size="14.00" fill="#000000">TsSelectModule</text>
</g>
<!-- TsSelectModule&#45;&gt;TerminusUIModule -->
<g id="edge5" class="edge">
<title>TsSelectModule&#45;&gt;TerminusUIModule</title>
<path fill="none" stroke="#000000" d="M532.6388,-198.1281C532.6388,-198.1281 532.6388,-368.7709 532.6388,-368.7709"/>
<polygon fill="#000000" stroke="#000000" points="529.1389,-368.7709 532.6388,-378.7709 536.1389,-368.771 529.1389,-368.7709"/>
</g>
<!-- TsSelectComponent  -->
<g id="node27" class="node">
<title>TsSelectComponent </title>
<polygon fill="#fb8072" stroke="#000000" points="157.5372,-263 24.4628,-263 24.4628,-227 157.5372,-227 157.5372,-263"/>
<text text-anchor="middle" x="91" y="-240.8" font-family="Times,serif" font-size="14.00" fill="#000000">TsSelectComponent </text>
</g>
<!-- TsSelectModule&#45;&gt;TsSelectComponent  -->
<g id="edge43" class="edge">
<title>TsSelectModule&#45;&gt;TsSelectComponent </title>
<path fill="none" stroke="#000000" stroke-dasharray="5,2" d="M522.2434,-186C395.9677,-186 91,-186 91,-186 91,-186 91,-216.9775 91,-216.9775"/>
<polygon fill="#000000" stroke="#000000" points="87.5001,-216.9774 91,-226.9775 94.5001,-216.9775 87.5001,-216.9774"/>
</g>
<!-- TsSearchModule&#45;&gt;TerminusUIModule -->
<g id="edge6" class="edge">
<title>TsSearchModule&#45;&gt;TerminusUIModule</title>
<path fill="none" stroke="#000000" d="M611.5842,-339.0109C611.5842,-339.0109 611.5842,-368.855 611.5842,-368.855"/>
<polygon fill="#000000" stroke="#000000" points="608.0842,-368.8549 611.5842,-378.855 615.0842,-368.855 608.0842,-368.8549"/>
</g>
<!-- TsSearchComponent  -->
<g id="node25" class="node">
<title>TsSearchComponent </title>
<polygon fill="#fb8072" stroke="#000000" points="1629.4166,-415 1492.5834,-415 1492.5834,-379 1629.4166,-379 1629.4166,-415"/>
<text text-anchor="middle" x="1561" y="-392.8" font-family="Times,serif" font-size="14.00" fill="#000000">TsSearchComponent </text>
</g>
<!-- TsSearchModule&#45;&gt;TsSearchComponent  -->
<g id="edge39" class="edge">
<title>TsSearchModule&#45;&gt;TsSearchComponent </title>
<path fill="none" stroke="#000000" stroke-dasharray="5,2" d="M667.4012,-339.1097C667.4012,-348.897 667.4012,-359 667.4012,-359 667.4012,-359 1561,-359 1561,-359 1561,-359 1561,-368.8903 1561,-368.8903"/>
<polygon fill="#000000" stroke="#000000" points="1557.5001,-368.8903 1561,-378.8903 1564.5001,-368.8904 1557.5001,-368.8903"/>
</g>
<!-- TsButtonModule  -->
<g id="node8" class="node">
<title>TsButtonModule </title>
<polygon fill="#fb8072" stroke="#000000" points="1144.6649,-483 1029.3351,-483 1029.3351,-447 1144.6649,-447 1144.6649,-483"/>
<text text-anchor="middle" x="1087" y="-460.8" font-family="Times,serif" font-size="14.00" fill="#000000">TsButtonModule </text>
</g>
<!-- TerminusUIModule&#45;&gt;TsButtonModule  -->
<g id="edge7" class="edge">
<title>TerminusUIModule&#45;&gt;TsButtonModule </title>
<path fill="none" stroke="#000000" stroke-dasharray="5,2" d="M653.1266,-402C783.6978,-402 1068.1762,-402 1068.1762,-402 1068.1762,-402 1068.1762,-436.7778 1068.1762,-436.7778"/>
<polygon fill="#000000" stroke="#000000" points="1064.6763,-436.7778 1068.1762,-446.7778 1071.6763,-436.7778 1064.6763,-436.7778"/>
</g>
<!-- TsInputModule  -->
<g id="node9" class="node">
<title>TsInputModule </title>
<polygon fill="#fb8072" stroke="#000000" points="1011.099,-483 904.901,-483 904.901,-447 1011.099,-447 1011.099,-483"/>
<text text-anchor="middle" x="958" y="-460.8" font-family="Times,serif" font-size="14.00" fill="#000000">TsInputModule </text>
</g>
<!-- TerminusUIModule&#45;&gt;TsInputModule  -->
<g id="edge8" class="edge">
<title>TerminusUIModule&#45;&gt;TsInputModule </title>
<path fill="none" stroke="#000000" stroke-dasharray="5,2" d="M653.015,-406C755.4426,-406 944.7674,-406 944.7674,-406 944.7674,-406 944.7674,-436.9775 944.7674,-436.9775"/>
<polygon fill="#000000" stroke="#000000" points="941.2674,-436.9774 944.7674,-446.9775 948.2674,-436.9775 941.2674,-436.9774"/>
</g>
<!-- TsInputMessagesModule  -->
<g id="node10" class="node">
<title>TsInputMessagesModule </title>
<polygon fill="#fb8072" stroke="#000000" points="886.5204,-483 725.4796,-483 725.4796,-447 886.5204,-447 886.5204,-483"/>
<text text-anchor="middle" x="806" y="-460.8" font-family="Times,serif" font-size="14.00" fill="#000000">TsInputMessagesModule </text>
</g>
<!-- TerminusUIModule&#45;&gt;TsInputMessagesModule  -->
<g id="edge9" class="edge">
<title>TerminusUIModule&#45;&gt;TsInputMessagesModule </title>
<path fill="none" stroke="#000000" stroke-dasharray="5,2" d="M653.0957,-411C698.8622,-411 752.3609,-411 752.3609,-411 752.3609,-411 752.3609,-436.7181 752.3609,-436.7181"/>
<polygon fill="#000000" stroke="#000000" points="748.861,-436.718 752.3609,-446.7181 755.861,-436.7181 748.861,-436.718"/>
</g>
<!-- TsMenuModule  -->
<g id="node11" class="node">
<title>TsMenuModule </title>
<polygon fill="#fb8072" stroke="#000000" points="707.7066,-483 598.2934,-483 598.2934,-447 707.7066,-447 707.7066,-483"/>
<text text-anchor="middle" x="653" y="-460.8" font-family="Times,serif" font-size="14.00" fill="#000000">TsMenuModule </text>
</g>
<!-- TerminusUIModule&#45;&gt;TsMenuModule  -->
<g id="edge10" class="edge">
<title>TerminusUIModule&#45;&gt;TsMenuModule </title>
<path fill="none" stroke="#000000" stroke-dasharray="5,2" d="M625.5661,-415.2228C625.5661,-415.2228 625.5661,-436.7269 625.5661,-436.7269"/>
<polygon fill="#000000" stroke="#000000" points="622.0662,-436.7269 625.5661,-446.7269 629.0662,-436.727 622.0662,-436.7269"/>
</g>
<!-- TsSelectModule  -->
<g id="node12" class="node">
<title>TsSelectModule </title>
<polygon fill="#fb8072" stroke="#000000" points="580.7549,-483 469.2451,-483 469.2451,-447 580.7549,-447 580.7549,-483"/>
<text text-anchor="middle" x="525" y="-460.8" font-family="Times,serif" font-size="14.00" fill="#000000">TsSelectModule </text>
</g>
<!-- TerminusUIModule&#45;&gt;TsSelectModule  -->
<g id="edge11" class="edge">
<title>TerminusUIModule&#45;&gt;TsSelectModule </title>
<path fill="none" stroke="#000000" stroke-dasharray="5,2" d="M552.821,-415.2228C552.821,-415.2228 552.821,-436.7269 552.821,-436.7269"/>
<polygon fill="#000000" stroke="#000000" points="549.3211,-436.7269 552.821,-446.7269 556.3211,-436.727 549.3211,-436.7269"/>
</g>
<!-- TsSearchModule  -->
<g id="node13" class="node">
<title>TsSearchModule </title>
<polygon fill="#fb8072" stroke="#000000" points="451.6341,-483 336.3659,-483 336.3659,-447 451.6341,-447 451.6341,-483"/>
<text text-anchor="middle" x="394" y="-460.8" font-family="Times,serif" font-size="14.00" fill="#000000">TsSearchModule </text>
</g>
<!-- TerminusUIModule&#45;&gt;TsSearchModule  -->
<g id="edge12" class="edge">
<title>TerminusUIModule&#45;&gt;TsSearchModule </title>
<path fill="none" stroke="#000000" stroke-dasharray="5,2" d="M524.9553,-397C471.8955,-397 405.1471,-397 405.1471,-397 405.1471,-397 405.1471,-436.7772 405.1471,-436.7772"/>
<polygon fill="#000000" stroke="#000000" points="401.6472,-436.7772 405.1471,-446.7772 408.6472,-436.7773 401.6472,-436.7772"/>
</g>
<!-- CommonModule -->
<g id="node14" class="node">
<title>CommonModule</title>
<polygon fill="#8dd3c7" stroke="#000000" points="984.6681,-122 981.6681,-126 960.6681,-126 957.6681,-122 873.3319,-122 873.3319,-86 984.6681,-86 984.6681,-122"/>
<text text-anchor="middle" x="929" y="-99.8" font-family="Times,serif" font-size="14.00" fill="#000000">CommonModule</text>
</g>
<!-- CommonModule&#45;&gt;TsButtonModule -->
<g id="edge13" class="edge">
<title>CommonModule&#45;&gt;TsButtonModule</title>
<path fill="none" stroke="#000000" d="M880.7913,-122.2067C880.7913,-159.0559 880.7913,-239 880.7913,-239 880.7913,-239 815.8467,-239 815.8467,-239"/>
<polygon fill="#000000" stroke="#000000" points="815.8467,-235.5001 805.8467,-239 815.8466,-242.5001 815.8467,-235.5001"/>
</g>
<!-- CommonModule&#45;&gt;TsInputModule -->
<g id="edge23" class="edge">
<title>CommonModule&#45;&gt;TsInputModule</title>
<path fill="none" stroke="#000000" d="M876.9788,-122.1944C876.9788,-130.2782 876.9788,-138 876.9788,-138 876.9788,-138 632.2953,-138 632.2953,-138 632.2953,-138 632.2953,-216.8489 632.2953,-216.8489"/>
<polygon fill="#000000" stroke="#000000" points="628.7953,-216.8489 632.2953,-226.8489 635.7953,-216.8489 628.7953,-216.8489"/>
</g>
<!-- CommonModule&#45;&gt;TsInputMessagesModule -->
<g id="edge18" class="edge">
<title>CommonModule&#45;&gt;TsInputMessagesModule</title>
<path fill="none" stroke="#000000" d="M878.8851,-122.0267C878.8851,-142.7672 878.8851,-174 878.8851,-174 878.8851,-174 815.6119,-174 815.6119,-174"/>
<polygon fill="#000000" stroke="#000000" points="815.6119,-170.5001 805.6119,-174 815.6119,-177.5001 815.6119,-170.5001"/>
</g>
<!-- CommonModule&#45;&gt;TsMenuModule -->
<g id="edge29" class="edge">
<title>CommonModule&#45;&gt;TsMenuModule</title>
<path fill="none" stroke="#000000" d="M884.6039,-122.0948C884.6039,-172.6999 884.6039,-312 884.6039,-312 884.6039,-312 816.149,-312 816.149,-312"/>
<polygon fill="#000000" stroke="#000000" points="816.149,-308.5001 806.149,-312 816.149,-315.5001 816.149,-308.5001"/>
</g>
<!-- CommonModule&#45;&gt;TsSelectModule -->
<g id="edge40" class="edge">
<title>CommonModule&#45;&gt;TsSelectModule</title>
<path fill="none" stroke="#000000" d="M875.0725,-122.0579C875.0725,-126.4945 875.0725,-130 875.0725,-130 875.0725,-130 576,-130 576,-130 576,-130 576,-151.9489 576,-151.9489"/>
<polygon fill="#000000" stroke="#000000" points="572.5001,-151.9488 576,-161.9489 579.5001,-151.9489 572.5001,-151.9488"/>
</g>
<!-- CommonModule&#45;&gt;TsSearchModule -->
<g id="edge34" class="edge">
<title>CommonModule&#45;&gt;TsSearchModule</title>
<path fill="none" stroke="#000000" d="M882.6976,-122.1485C882.6976,-167.6555 882.6976,-283 882.6976,-283 882.6976,-283 673.4227,-283 673.4227,-283 673.4227,-283 673.4227,-292.8903 673.4227,-292.8903"/>
<polygon fill="#000000" stroke="#000000" points="669.9228,-292.8903 673.4227,-302.8903 676.9228,-292.8904 669.9228,-292.8903"/>
</g>
<!-- LaddaModule.forRoot(args) -->
<g id="node15" class="node">
<title>LaddaModule.forRoot(args)</title>
<polygon fill="#8dd3c7" stroke="#000000" points="1299.2211,-122 1296.2211,-126 1275.2211,-126 1272.2211,-122 1124.7789,-122 1124.7789,-86 1299.2211,-86 1299.2211,-122"/>
<text text-anchor="middle" x="1212" y="-99.8" font-family="Times,serif" font-size="14.00" fill="#000000">LaddaModule.forRoot(args)</text>
</g>
<!-- LaddaModule.forRoot(args)&#45;&gt;TsButtonModule -->
<g id="edge14" class="edge">
<title>LaddaModule.forRoot(args)&#45;&gt;TsButtonModule</title>
<path fill="none" stroke="#000000" d="M1134.736,-122.0251C1134.736,-161.2783 1134.736,-251 1134.736,-251 1134.736,-251 815.9439,-251 815.9439,-251"/>
<polygon fill="#000000" stroke="#000000" points="815.9439,-247.5001 805.9439,-251 815.9439,-254.5001 815.9439,-247.5001"/>
</g>
<!-- MdButtonModule -->
<g id="node16" class="node">
<title>MdButtonModule</title>
<polygon fill="#8dd3c7" stroke="#000000" points="1434.6123,-122 1431.6123,-126 1410.6123,-126 1407.6123,-122 1317.3877,-122 1317.3877,-86 1434.6123,-86 1434.6123,-122"/>
<text text-anchor="middle" x="1376" y="-99.8" font-family="Times,serif" font-size="14.00" fill="#000000">MdButtonModule</text>
</g>
<!-- MdButtonModule&#45;&gt;TsButtonModule -->
<g id="edge15" class="edge">
<title>MdButtonModule&#45;&gt;TsButtonModule</title>
<path fill="none" stroke="#000000" d="M1329.3086,-122.1519C1329.3086,-162.68 1329.3086,-257 1329.3086,-257 1329.3086,-257 815.8095,-257 815.8095,-257"/>
<polygon fill="#000000" stroke="#000000" points="815.8095,-253.5001 805.8095,-257 815.8094,-260.5001 815.8095,-253.5001"/>
</g>
<!-- MdIconModule -->
<g id="node17" class="node">
<title>MdIconModule</title>
<polygon fill="#8dd3c7" stroke="#000000" points="1106.8697,-122 1103.8697,-126 1082.8697,-126 1079.8697,-122 1003.1303,-122 1003.1303,-86 1106.8697,-86 1106.8697,-122"/>
<text text-anchor="middle" x="1055" y="-99.8" font-family="Times,serif" font-size="14.00" fill="#000000">MdIconModule</text>
</g>
<!-- MdIconModule&#45;&gt;TsButtonModule -->
<g id="edge16" class="edge">
<title>MdIconModule&#45;&gt;TsButtonModule</title>
<path fill="none" stroke="#000000" d="M1007.1822,-122.1446C1007.1822,-160.2265 1007.1822,-245 1007.1822,-245 1007.1822,-245 815.8047,-245 815.8047,-245"/>
<polygon fill="#000000" stroke="#000000" points="815.8047,-241.5001 805.8047,-245 815.8047,-248.5001 815.8047,-241.5001"/>
</g>
<!-- MdIconModule&#45;&gt;TsInputModule -->
<g id="edge26" class="edge">
<title>MdIconModule&#45;&gt;TsInputModule</title>
<path fill="none" stroke="#000000" d="M1020.3584,-122.4904C1020.3584,-153.5885 1020.3584,-213 1020.3584,-213 1020.3584,-213 637.1311,-213 637.1311,-213 637.1311,-213 637.1311,-216.7566 637.1311,-216.7566"/>
<polygon fill="#000000" stroke="#000000" points="633.6312,-216.7566 637.1311,-226.7566 640.6312,-216.7566 633.6312,-216.7566"/>
</g>
<!-- MdIconModule&#45;&gt;TsInputMessagesModule -->
<g id="edge21" class="edge">
<title>MdIconModule&#45;&gt;TsInputMessagesModule</title>
<path fill="none" stroke="#000000" d="M1005.1237,-122.1985C1005.1237,-146.3563 1005.1237,-186 1005.1237,-186 1005.1237,-186 815.5839,-186 815.5839,-186"/>
<polygon fill="#000000" stroke="#000000" points="815.5839,-182.5001 805.5839,-186 815.5838,-189.5001 815.5839,-182.5001"/>
</g>
<!-- MdIconModule&#45;&gt;TsMenuModule -->
<g id="edge31" class="edge">
<title>MdIconModule&#45;&gt;TsMenuModule</title>
<path fill="none" stroke="#000000" d="M1009.2406,-122.1281C1009.2406,-174.2818 1009.2406,-321 1009.2406,-321 1009.2406,-321 816.4045,-321 816.4045,-321"/>
<polygon fill="#000000" stroke="#000000" points="816.4046,-317.5001 806.4045,-321 816.4045,-324.5001 816.4046,-317.5001"/>
</g>
<!-- FormsModule -->
<g id="node19" class="node">
<title>FormsModule</title>
<polygon fill="#8dd3c7" stroke="#000000" points="340.8288,-122 337.8288,-126 316.8288,-126 313.8288,-122 245.1712,-122 245.1712,-86 340.8288,-86 340.8288,-122"/>
<text text-anchor="middle" x="293" y="-99.8" font-family="Times,serif" font-size="14.00" fill="#000000">FormsModule</text>
</g>
<!-- FormsModule&#45;&gt;TsInputModule -->
<g id="edge24" class="edge">
<title>FormsModule&#45;&gt;TsInputModule</title>
<path fill="none" stroke="#000000" d="M320.336,-122.1446C320.336,-160.2265 320.336,-245 320.336,-245 320.336,-245 526.3917,-245 526.3917,-245"/>
<polygon fill="#000000" stroke="#000000" points="526.3917,-248.5001 536.3917,-245 526.3916,-241.5001 526.3917,-248.5001"/>
</g>
<!-- FormsModule&#45;&gt;TsInputMessagesModule -->
<g id="edge19" class="edge">
<title>FormsModule&#45;&gt;TsInputMessagesModule</title>
<path fill="none" stroke="#000000" d="M304.2389,-122.0511C304.2389,-136.373 304.2389,-154 304.2389,-154 304.2389,-154 654.5302,-154 654.5302,-154 654.5302,-154 654.5302,-154.7942 654.5302,-154.7942"/>
<polygon fill="#000000" stroke="#000000" points="651.0304,-151.9421 654.5302,-161.9421 658.0304,-151.9422 651.0304,-151.9421"/>
</g>
<!-- FormsModule&#45;&gt;TsSelectModule -->
<g id="edge41" class="edge">
<title>FormsModule&#45;&gt;TsSelectModule</title>
<path fill="none" stroke="#000000" d="M328.3845,-122.0267C328.3845,-142.7672 328.3845,-174 328.3845,-174 328.3845,-174 511.9657,-174 511.9657,-174"/>
<polygon fill="#000000" stroke="#000000" points="511.9657,-177.5001 521.9657,-174 511.9657,-170.5001 511.9657,-177.5001"/>
</g>
<!-- FormsModule&#45;&gt;TsSearchModule -->
<g id="edge35" class="edge">
<title>FormsModule&#45;&gt;TsSearchModule</title>
<path fill="none" stroke="#000000" d="M312.2874,-122.3558C312.2874,-173.6908 312.2874,-315 312.2874,-315 312.2874,-315 560.276,-315 560.276,-315"/>
<polygon fill="#000000" stroke="#000000" points="560.276,-318.5001 570.276,-315 560.2759,-311.5001 560.276,-318.5001"/>
</g>
<!-- MdInputModule -->
<g id="node20" class="node">
<title>MdInputModule</title>
<polygon fill="#8dd3c7" stroke="#000000" points="467.0465,-122 464.0465,-126 443.0465,-126 440.0465,-122 358.9535,-122 358.9535,-86 467.0465,-86 467.0465,-122"/>
<text text-anchor="middle" x="413" y="-99.8" font-family="Times,serif" font-size="14.00" fill="#000000">MdInputModule</text>
</g>
<!-- MdInputModule&#45;&gt;TsInputModule -->
<g id="edge25" class="edge">
<title>MdInputModule&#45;&gt;TsInputModule</title>
<path fill="none" stroke="#000000" d="M462.0375,-122.0773C462.0375,-158.2287 462.0375,-236 462.0375,-236 462.0375,-236 526.4028,-236 526.4028,-236"/>
<polygon fill="#000000" stroke="#000000" points="526.4028,-239.5001 536.4028,-236 526.4028,-232.5001 526.4028,-239.5001"/>
</g>
<!-- MdInputModule&#45;&gt;TsInputMessagesModule -->
<g id="edge20" class="edge">
<title>MdInputModule&#45;&gt;TsInputMessagesModule</title>
<path fill="none" stroke="#000000" d="M456.8023,-122.0555C456.8023,-133.439 456.8023,-146 456.8023,-146 456.8023,-146 660.8207,-146 660.8207,-146 660.8207,-146 660.8207,-151.8056 660.8207,-151.8056"/>
<polygon fill="#000000" stroke="#000000" points="657.3207,-151.8055 660.8207,-161.8056 664.3207,-151.8056 657.3207,-151.8055"/>
</g>
<!-- MdMenuModule -->
<g id="node23" class="node">
<title>MdMenuModule</title>
<polygon fill="#8dd3c7" stroke="#000000" points="1452.6541,-415 1449.6541,-419 1428.6541,-419 1425.6541,-415 1341.3459,-415 1341.3459,-379 1452.6541,-379 1452.6541,-415"/>
<text text-anchor="middle" x="1397" y="-392.8" font-family="Times,serif" font-size="14.00" fill="#000000">MdMenuModule</text>
</g>
<!-- MdMenuModule&#45;&gt;TsMenuModule -->
<g id="edge30" class="edge">
<title>MdMenuModule&#45;&gt;TsMenuModule</title>
<path fill="none" stroke="#000000" d="M1387.8647,-378.692C1387.8647,-358.8545 1387.8647,-330 1387.8647,-330 1387.8647,-330 816.3084,-330 816.3084,-330"/>
<polygon fill="#000000" stroke="#000000" points="816.3084,-326.5001 806.3084,-330 816.3083,-333.5001 816.3084,-326.5001"/>
</g>
<!-- MdSelectModule -->
<g id="node26" class="node">
<title>MdSelectModule</title>
<polygon fill="#8dd3c7" stroke="#000000" points="295.7022,-263 292.7022,-267 271.7022,-267 268.7022,-263 182.2978,-263 182.2978,-227 295.7022,-227 295.7022,-263"/>
<text text-anchor="middle" x="239" y="-240.8" font-family="Times,serif" font-size="14.00" fill="#000000">MdSelectModule</text>
</g>
<!-- MdSelectModule&#45;&gt;TsSelectModule -->
<g id="edge42" class="edge">
<title>MdSelectModule&#45;&gt;TsSelectModule</title>
<path fill="none" stroke="#000000" d="M295.9146,-254C380.3199,-254 528.8268,-254 528.8268,-254 528.8268,-254 528.8268,-208.2921 528.8268,-208.2921"/>
<polygon fill="#000000" stroke="#000000" points="532.3269,-208.2921 528.8268,-198.2921 525.3269,-208.2922 532.3269,-208.2921"/>
</g>
</g>
</svg>
