<?xml version="1.0" encoding="UTF-8" standalone="no"?>
<!DOCTYPE svg PUBLIC "-//W3C//DTD SVG 1.1//EN"
 "http://www.w3.org/Graphics/SVG/1.1/DTD/svg11.dtd">
<!-- Generated by graphviz version 2.40.1 (20161225.0304)
 -->
<!-- Title: dependencies Pages: 1 -->
<svg width="1319pt" height="420pt"
 viewBox="0.00 0.00 1319.00 420.00" xmlns="http://www.w3.org/2000/svg" xmlns:xlink="http://www.w3.org/1999/xlink">
<g id="graph0" class="graph" transform="scale(1 1) rotate(0) translate(4 416)">
<title>dependencies</title>
<polygon fill="#ffffff" stroke="transparent" points="-4,4 -4,-416 1315,-416 1315,4 -4,4"/>
<text text-anchor="start" x="634.5091" y="-42.4" font-family="sans-serif" font-weight="bold" font-size="14.00" fill="#000000">Legend</text>
<polygon fill="#ffffb3" stroke="transparent" points="421.5,-10 421.5,-30 441.5,-30 441.5,-10 421.5,-10"/>
<text text-anchor="start" x="445.129" y="-15.4" font-family="sans-serif" font-size="14.00" fill="#000000"> &#160;Declarations</text>
<polygon fill="#8dd3c7" stroke="transparent" points="534.5,-10 534.5,-30 554.5,-30 554.5,-10 534.5,-10"/>
<text text-anchor="start" x="558.2251" y="-15.4" font-family="sans-serif" font-size="14.00" fill="#000000"> &#160;Module</text>
<polygon fill="#80b1d3" stroke="transparent" points="620.5,-10 620.5,-30 640.5,-30 640.5,-10 620.5,-10"/>
<text text-anchor="start" x="644.2812" y="-15.4" font-family="sans-serif" font-size="14.00" fill="#000000"> &#160;Bootstrap</text>
<polygon fill="#fdb462" stroke="transparent" points="717.5,-10 717.5,-30 737.5,-30 737.5,-10 717.5,-10"/>
<text text-anchor="start" x="741.1732" y="-15.4" font-family="sans-serif" font-size="14.00" fill="#000000"> &#160;Providers</text>
<polygon fill="#fb8072" stroke="transparent" points="813.5,-10 813.5,-30 833.5,-30 833.5,-10 813.5,-10"/>
<text text-anchor="start" x="837.2258" y="-15.4" font-family="sans-serif" font-size="14.00" fill="#000000"> &#160;Exports</text>
<g id="clust1" class="cluster">
<title>cluster_TerminusUIModule</title>
<polygon fill="none" stroke="#000000" stroke-dasharray="1,5" points="8,-70 8,-268 206,-268 206,-70 8,-70"/>
</g>
<g id="clust3" class="cluster">
<title>cluster_TerminusUIModule_imports</title>
<polygon fill="none" stroke="#000000" points="18,-78 18,-130 196,-130 196,-78 18,-78"/>
</g>
<g id="clust4" class="cluster">
<title>cluster_TerminusUIModule_exports</title>
<polygon fill="none" stroke="#000000" points="16,-208 16,-260 198,-260 198,-208 16,-208"/>
</g>
<g id="clust7" class="cluster">
<title>cluster_TsButtonModule</title>
<polygon fill="none" stroke="#000000" stroke-dasharray="1,5" points="214,-70 214,-268 807,-268 807,-70 214,-70"/>
</g>
<g id="clust9" class="cluster">
<title>cluster_TsButtonModule_imports</title>
<polygon fill="none" stroke="#000000" points="222,-78 222,-130 799,-130 799,-78 222,-78"/>
</g>
<g id="clust10" class="cluster">
<title>cluster_TsButtonModule_exports</title>
<polygon fill="none" stroke="#000000" points="501,-208 501,-260 653,-260 653,-208 501,-208"/>
</g>
<g id="clust13" class="cluster">
<title>cluster_TsInputMessagesModule</title>
<polygon fill="none" stroke="#000000" stroke-dasharray="1,5" points="1049,-70 1049,-268 1303,-268 1303,-70 1049,-70"/>
</g>
<g id="clust15" class="cluster">
<title>cluster_TsInputMessagesModule_imports</title>
<polygon fill="none" stroke="#000000" points="1057,-78 1057,-130 1295,-130 1295,-78 1057,-78"/>
</g>
<g id="clust16" class="cluster">
<title>cluster_TsInputMessagesModule_exports</title>
<polygon fill="none" stroke="#000000" points="1057,-208 1057,-260 1255,-260 1255,-208 1057,-208"/>
</g>
<g id="clust19" class="cluster">
<title>cluster_TsInputModule</title>
<polygon fill="none" stroke="#000000" stroke-dasharray="1,5" points="881,-208 881,-336 1041,-336 1041,-208 881,-208"/>
</g>
<g id="clust22" class="cluster">
<title>cluster_TsInputModule_exports</title>
<polygon fill="none" stroke="#000000" points="889,-276 889,-328 1033,-328 1033,-276 889,-276"/>
</g>
<g id="clust25" class="cluster">
<title>cluster_TsSearchModule</title>
<polygon fill="none" stroke="#000000" stroke-dasharray="1,5" points="705,-276 705,-404 873,-404 873,-276 705,-276"/>
</g>
<g id="clust28" class="cluster">
<title>cluster_TsSearchModule_exports</title>
<polygon fill="none" stroke="#000000" points="713,-344 713,-396 865,-396 865,-344 713,-344"/>
</g>
<!-- TERMINUS_MODULES -->
<g id="node1" class="node">
<title>TERMINUS_MODULES</title>
<polygon fill="#8dd3c7" stroke="#000000" points="188.1951,-122 185.1951,-126 164.1951,-126 161.1951,-122 25.8049,-122 25.8049,-86 188.1951,-86 188.1951,-122"/>
<text text-anchor="middle" x="107" y="-99.8" font-family="Times,serif" font-size="14.00" fill="#000000">TERMINUS_MODULES</text>
</g>
<!-- TerminusUIModule -->
<g id="node2" class="node">
<title>TerminusUIModule</title>
<polygon fill="#8dd3c7" stroke="#000000" points="170.9706,-187 167.9706,-191 146.9706,-191 143.9706,-187 43.0294,-187 43.0294,-151 170.9706,-151 170.9706,-187"/>
<text text-anchor="middle" x="107" y="-164.8" font-family="Times,serif" font-size="14.00" fill="#000000">TerminusUIModule</text>
</g>
<!-- TERMINUS_MODULES&#45;&gt;TerminusUIModule -->
<g id="edge1" class="edge">
<title>TERMINUS_MODULES&#45;&gt;TerminusUIModule</title>
<path fill="none" stroke="#000000" d="M107,-122.1061C107,-122.1061 107,-140.991 107,-140.991"/>
<polygon fill="#000000" stroke="#000000" points="103.5001,-140.9909 107,-150.991 110.5001,-140.991 103.5001,-140.9909"/>
</g>
<!-- TERMINUS_MODULES  -->
<g id="node3" class="node">
<title>TERMINUS_MODULES </title>
<polygon fill="#fb8072" stroke="#000000" points="189.6953,-252 24.3047,-252 24.3047,-216 189.6953,-216 189.6953,-252"/>
<text text-anchor="middle" x="107" y="-229.8" font-family="Times,serif" font-size="14.00" fill="#000000">TERMINUS_MODULES </text>
</g>
<!-- TerminusUIModule&#45;&gt;TERMINUS_MODULES  -->
<g id="edge2" class="edge">
<title>TerminusUIModule&#45;&gt;TERMINUS_MODULES </title>
<path fill="none" stroke="#000000" stroke-dasharray="5,2" d="M107,-187.1061C107,-187.1061 107,-205.991 107,-205.991"/>
<polygon fill="#000000" stroke="#000000" points="103.5001,-205.9909 107,-215.991 110.5001,-205.991 103.5001,-205.9909"/>
</g>
<!-- CommonModule -->
<g id="node4" class="node">
<title>CommonModule</title>
<polygon fill="#8dd3c7" stroke="#000000" points="668.6681,-122 665.6681,-126 644.6681,-126 641.6681,-122 557.3319,-122 557.3319,-86 668.6681,-86 668.6681,-122"/>
<text text-anchor="middle" x="613" y="-99.8" font-family="Times,serif" font-size="14.00" fill="#000000">CommonModule</text>
</g>
<!-- TsButtonModule -->
<g id="node8" class="node">
<title>TsButtonModule</title>
<polygon fill="#8dd3c7" stroke="#000000" points="650.6653,-187 647.6653,-191 626.6653,-191 623.6653,-187 539.3347,-187 539.3347,-151 650.6653,-151 650.6653,-187"/>
<text text-anchor="middle" x="595" y="-164.8" font-family="Times,serif" font-size="14.00" fill="#000000">TsButtonModule</text>
</g>
<!-- CommonModule&#45;&gt;TsButtonModule -->
<g id="edge3" class="edge">
<title>CommonModule&#45;&gt;TsButtonModule</title>
<path fill="none" stroke="#000000" d="M603.9993,-122.1061C603.9993,-122.1061 603.9993,-140.991 603.9993,-140.991"/>
<polygon fill="#000000" stroke="#000000" points="600.4994,-140.9909 603.9993,-150.991 607.4994,-140.991 600.4994,-140.9909"/>
</g>
<!-- TsInputMessagesModule -->
<g id="node12" class="node">
<title>TsInputMessagesModule</title>
<polygon fill="#8dd3c7" stroke="#000000" points="1214.5211,-187 1211.5211,-191 1190.5211,-191 1187.5211,-187 1057.4789,-187 1057.4789,-151 1214.5211,-151 1214.5211,-187"/>
<text text-anchor="middle" x="1136" y="-164.8" font-family="Times,serif" font-size="14.00" fill="#000000">TsInputMessagesModule</text>
</g>
<!-- CommonModule&#45;&gt;TsInputMessagesModule -->
<g id="edge8" class="edge">
<title>CommonModule&#45;&gt;TsInputMessagesModule</title>
<path fill="none" stroke="#000000" d="M664.3335,-122.2667C664.3335,-140.5552 664.3335,-166 664.3335,-166 664.3335,-166 1047.3192,-166 1047.3192,-166"/>
<polygon fill="#000000" stroke="#000000" points="1047.3192,-169.5001 1057.3192,-166 1047.3191,-162.5001 1047.3192,-169.5001"/>
</g>
<!-- TsInputModule -->
<g id="node14" class="node">
<title>TsInputModule</title>
<polygon fill="#8dd3c7" stroke="#000000" points="1012.5982,-252 1009.5982,-256 988.5982,-256 985.5982,-252 909.4018,-252 909.4018,-216 1012.5982,-216 1012.5982,-252"/>
<text text-anchor="middle" x="961" y="-229.8" font-family="Times,serif" font-size="14.00" fill="#000000">TsInputModule</text>
</g>
<!-- CommonModule&#45;&gt;TsInputModule -->
<g id="edge13" class="edge">
<title>CommonModule&#45;&gt;TsInputModule</title>
<path fill="none" stroke="#000000" d="M659.8331,-122.0759C659.8331,-157.7964 659.8331,-234 659.8331,-234 659.8331,-234 899.2276,-234 899.2276,-234"/>
<polygon fill="#000000" stroke="#000000" points="899.2276,-237.5001 909.2276,-234 899.2275,-230.5001 899.2276,-237.5001"/>
</g>
<!-- TsSearchModule -->
<g id="node16" class="node">
<title>TsSearchModule</title>
<polygon fill="#8dd3c7" stroke="#000000" points="854.6346,-320 851.6346,-324 830.6346,-324 827.6346,-320 743.3654,-320 743.3654,-284 854.6346,-284 854.6346,-320"/>
<text text-anchor="middle" x="799" y="-297.8" font-family="Times,serif" font-size="14.00" fill="#000000">TsSearchModule</text>
</g>
<!-- CommonModule&#45;&gt;TsSearchModule -->
<g id="edge19" class="edge">
<title>CommonModule&#45;&gt;TsSearchModule</title>
<path fill="none" stroke="#000000" d="M655.3328,-122.2725C655.3328,-171.2891 655.3328,-302 655.3328,-302 655.3328,-302 733.0431,-302 733.0431,-302"/>
<polygon fill="#000000" stroke="#000000" points="733.0431,-305.5001 743.0431,-302 733.0431,-298.5001 733.0431,-305.5001"/>
</g>
<!-- LaddaModule.forRoot(args) -->
<g id="node5" class="node">
<title>LaddaModule.forRoot(args)</title>
<polygon fill="#8dd3c7" stroke="#000000" points="404.2211,-122 401.2211,-126 380.2211,-126 377.2211,-122 229.7789,-122 229.7789,-86 404.2211,-86 404.2211,-122"/>
<text text-anchor="middle" x="317" y="-99.8" font-family="Times,serif" font-size="14.00" fill="#000000">LaddaModule.forRoot(args)</text>
</g>
<!-- LaddaModule.forRoot(args)&#45;&gt;TsButtonModule -->
<g id="edge4" class="edge">
<title>LaddaModule.forRoot(args)&#45;&gt;TsButtonModule</title>
<path fill="none" stroke="#000000" d="M317,-122.1061C317,-141.3391 317,-169 317,-169 317,-169 529.077,-169 529.077,-169"/>
<polygon fill="#000000" stroke="#000000" points="529.077,-172.5001 539.077,-169 529.0769,-165.5001 529.077,-172.5001"/>
</g>
<!-- MdButtonModule -->
<g id="node6" class="node">
<title>MdButtonModule</title>
<polygon fill="#8dd3c7" stroke="#000000" points="539.6123,-122 536.6123,-126 515.6123,-126 512.6123,-122 422.3877,-122 422.3877,-86 539.6123,-86 539.6123,-122"/>
<text text-anchor="middle" x="481" y="-99.8" font-family="Times,serif" font-size="14.00" fill="#000000">MdButtonModule</text>
</g>
<!-- MdButtonModule&#45;&gt;TsButtonModule -->
<g id="edge5" class="edge">
<title>MdButtonModule&#45;&gt;TsButtonModule</title>
<path fill="none" stroke="#000000" d="M539.8298,-104C545.0217,-104 548.3611,-104 548.3611,-104 548.3611,-104 548.3611,-140.8939 548.3611,-140.8939"/>
<polygon fill="#000000" stroke="#000000" points="544.8612,-140.8938 548.3611,-150.8939 551.8612,-140.8939 544.8612,-140.8938"/>
</g>
<!-- MdIconModule -->
<g id="node7" class="node">
<title>MdIconModule</title>
<polygon fill="#8dd3c7" stroke="#000000" points="790.8697,-122 787.8697,-126 766.8697,-126 763.8697,-122 687.1303,-122 687.1303,-86 790.8697,-86 790.8697,-122"/>
<text text-anchor="middle" x="739" y="-99.8" font-family="Times,serif" font-size="14.00" fill="#000000">MdIconModule</text>
</g>
<!-- MdIconModule&#45;&gt;TsButtonModule -->
<g id="edge6" class="edge">
<title>MdIconModule&#45;&gt;TsButtonModule</title>
<path fill="none" stroke="#000000" d="M703.8035,-122.0091C703.8035,-138.0494 703.8035,-159 703.8035,-159 703.8035,-159 660.6767,-159 660.6767,-159"/>
<polygon fill="#000000" stroke="#000000" points="660.6767,-155.5001 650.6767,-159 660.6766,-162.5001 660.6767,-155.5001"/>
</g>
<!-- MdIconModule&#45;&gt;TsInputMessagesModule -->
<g id="edge11" class="edge">
<title>MdIconModule&#45;&gt;TsInputMessagesModule</title>
<path fill="none" stroke="#000000" d="M791.1393,-95C882.3538,-95 1061.2879,-95 1061.2879,-95 1061.2879,-95 1061.2879,-140.7079 1061.2879,-140.7079"/>
<polygon fill="#000000" stroke="#000000" points="1057.7879,-140.7078 1061.2879,-150.7079 1064.7879,-140.7079 1057.7879,-140.7078"/>
</g>
<!-- MdIconModule&#45;&gt;TsInputModule -->
<g id="edge16" class="edge">
<title>MdIconModule&#45;&gt;TsInputModule</title>
<path fill="none" stroke="#000000" d="M775.0175,-122.1149C775.0175,-155.8699 775.0175,-225 775.0175,-225 775.0175,-225 899.1935,-225 899.1935,-225"/>
<polygon fill="#000000" stroke="#000000" points="899.1935,-228.5001 909.1935,-225 899.1935,-221.5001 899.1935,-228.5001"/>
</g>
<!-- TsButtonComponent  -->
<g id="node9" class="node">
<title>TsButtonComponent </title>
<polygon fill="#fb8072" stroke="#000000" points="645.4474,-252 508.5526,-252 508.5526,-216 645.4474,-216 645.4474,-252"/>
<text text-anchor="middle" x="577" y="-229.8" font-family="Times,serif" font-size="14.00" fill="#000000">TsButtonComponent </text>
</g>
<!-- TsButtonModule&#45;&gt;TsButtonComponent  -->
<g id="edge7" class="edge">
<title>TsButtonModule&#45;&gt;TsButtonComponent </title>
<path fill="none" stroke="#000000" stroke-dasharray="5,2" d="M592.3207,-187.1061C592.3207,-187.1061 592.3207,-205.991 592.3207,-205.991"/>
<polygon fill="#000000" stroke="#000000" points="588.8207,-205.9909 592.3207,-215.991 595.8207,-205.991 588.8207,-205.9909"/>
</g>
<!-- TsButtonModule&#45;&gt;TsSearchModule -->
<g id="edge23" class="edge">
<title>TsButtonModule&#45;&gt;TsSearchModule</title>
<path fill="none" stroke="#000000" d="M651.015,-180C698.5536,-180 759.1003,-180 759.1003,-180 759.1003,-180 759.1003,-273.9985 759.1003,-273.9985"/>
<polygon fill="#000000" stroke="#000000" points="755.6004,-273.9984 759.1003,-283.9985 762.6004,-273.9985 755.6004,-273.9984"/>
</g>
<!-- FormsModule -->
<g id="node10" class="node">
<title>FormsModule</title>
<polygon fill="#8dd3c7" stroke="#000000" points="1160.8288,-122 1157.8288,-126 1136.8288,-126 1133.8288,-122 1065.1712,-122 1065.1712,-86 1160.8288,-86 1160.8288,-122"/>
<text text-anchor="middle" x="1113" y="-99.8" font-family="Times,serif" font-size="14.00" fill="#000000">FormsModule</text>
</g>
<!-- FormsModule&#45;&gt;TsInputMessagesModule -->
<g id="edge9" class="edge">
<title>FormsModule&#45;&gt;TsInputMessagesModule</title>
<path fill="none" stroke="#000000" d="M1113,-122.1061C1113,-122.1061 1113,-140.991 1113,-140.991"/>
<polygon fill="#000000" stroke="#000000" points="1109.5001,-140.9909 1113,-150.991 1116.5001,-140.991 1109.5001,-140.9909"/>
</g>
<!-- FormsModule&#45;&gt;TsInputModule -->
<g id="edge14" class="edge">
<title>FormsModule&#45;&gt;TsInputModule</title>
<path fill="none" stroke="#000000" d="M1064.9715,-113C1014.9536,-113 943.817,-113 943.817,-113 943.817,-113 943.817,-205.8851 943.817,-205.8851"/>
<polygon fill="#000000" stroke="#000000" points="940.3171,-205.885 943.817,-215.8851 947.3171,-205.8851 940.3171,-205.885"/>
</g>
<!-- FormsModule&#45;&gt;TsSearchModule -->
<g id="edge20" class="edge">
<title>FormsModule&#45;&gt;TsSearchModule</title>
<path fill="none" stroke="#000000" d="M1065.1727,-104C979.0836,-104 806.9054,-104 806.9054,-104 806.9054,-104 806.9054,-273.7275 806.9054,-273.7275"/>
<polygon fill="#000000" stroke="#000000" points="803.4054,-273.7275 806.9054,-283.7275 810.4054,-273.7276 803.4054,-273.7275"/>
</g>
<!-- MdInputModule -->
<g id="node11" class="node">
<title>MdInputModule</title>
<polygon fill="#8dd3c7" stroke="#000000" points="1287.0465,-122 1284.0465,-126 1263.0465,-126 1260.0465,-122 1178.9535,-122 1178.9535,-86 1287.0465,-86 1287.0465,-122"/>
<text text-anchor="middle" x="1233" y="-99.8" font-family="Times,serif" font-size="14.00" fill="#000000">MdInputModule</text>
</g>
<!-- MdInputModule&#45;&gt;TsInputMessagesModule -->
<g id="edge10" class="edge">
<title>MdInputModule&#45;&gt;TsInputMessagesModule</title>
<path fill="none" stroke="#000000" d="M1202.7492,-122.1061C1202.7492,-122.1061 1202.7492,-140.991 1202.7492,-140.991"/>
<polygon fill="#000000" stroke="#000000" points="1199.2493,-140.9909 1202.7492,-150.991 1206.2493,-140.991 1199.2493,-140.9909"/>
</g>
<!-- MdInputModule&#45;&gt;TsInputModule -->
<g id="edge15" class="edge">
<title>MdInputModule&#45;&gt;TsInputModule</title>
<path fill="none" stroke="#000000" d="M1190.7382,-122.0449C1190.7382,-129.749 1190.7382,-137 1190.7382,-137 1190.7382,-137 978.183,-137 978.183,-137 978.183,-137 978.183,-205.755 978.183,-205.755"/>
<polygon fill="#000000" stroke="#000000" points="974.6831,-205.755 978.183,-215.755 981.6831,-205.7551 974.6831,-205.755"/>
</g>
<!-- TsInputMessagesComponent  -->
<g id="node13" class="node">
<title>TsInputMessagesComponent </title>
<polygon fill="#fb8072" stroke="#000000" points="1247.3031,-252 1064.6969,-252 1064.6969,-216 1247.3031,-216 1247.3031,-252"/>
<text text-anchor="middle" x="1156" y="-229.8" font-family="Times,serif" font-size="14.00" fill="#000000">TsInputMessagesComponent </text>
</g>
<!-- TsInputMessagesModule&#45;&gt;TsInputMessagesComponent  -->
<g id="edge12" class="edge">
<title>TsInputMessagesModule&#45;&gt;TsInputMessagesComponent </title>
<path fill="none" stroke="#000000" stroke-dasharray="5,2" d="M1139.6793,-187.1061C1139.6793,-187.1061 1139.6793,-205.991 1139.6793,-205.991"/>
<polygon fill="#000000" stroke="#000000" points="1136.1794,-205.9909 1139.6793,-215.991 1143.1794,-205.991 1136.1794,-205.9909"/>
</g>
<!-- TsInputMessagesModule&#45;&gt;TsInputModule -->
<g id="edge17" class="edge">
<title>TsInputMessagesModule&#45;&gt;TsInputModule</title>
<path fill="none" stroke="#000000" d="M1060.9192,-187.1061C1060.9192,-206.3391 1060.9192,-234 1060.9192,-234 1060.9192,-234 1022.7156,-234 1022.7156,-234"/>
<polygon fill="#000000" stroke="#000000" points="1022.7157,-230.5001 1012.7156,-234 1022.7156,-237.5001 1022.7157,-230.5001"/>
</g>
<!-- TsInputMessagesModule&#45;&gt;TsSearchModule -->
<g id="edge21" class="edge">
<title>TsInputMessagesModule&#45;&gt;TsSearchModule</title>
<path fill="none" stroke="#000000" d="M1057.3897,-173C964.6363,-173 822.8759,-173 822.8759,-173 822.8759,-173 822.8759,-273.7911 822.8759,-273.7911"/>
<polygon fill="#000000" stroke="#000000" points="819.376,-273.791 822.8759,-283.7911 826.376,-273.7911 819.376,-273.791"/>
</g>
<!-- TsInputComponent  -->
<g id="node15" class="node">
<title>TsInputComponent </title>
<polygon fill="#fb8072" stroke="#000000" points="1025.3814,-320 896.6186,-320 896.6186,-284 1025.3814,-284 1025.3814,-320"/>
<text text-anchor="middle" x="961" y="-297.8" font-family="Times,serif" font-size="14.00" fill="#000000">TsInputComponent </text>
</g>
<!-- TsInputModule&#45;&gt;TsInputComponent  -->
<g id="edge18" class="edge">
<title>TsInputModule&#45;&gt;TsInputComponent </title>
<path fill="none" stroke="#000000" stroke-dasharray="5,2" d="M961,-252.2228C961,-252.2228 961,-273.7269 961,-273.7269"/>
<polygon fill="#000000" stroke="#000000" points="957.5001,-273.7269 961,-283.7269 964.5001,-273.727 957.5001,-273.7269"/>
</g>
<!-- TsInputModule&#45;&gt;TsSearchModule -->
<g id="edge22" class="edge">
<title>TsInputModule&#45;&gt;TsSearchModule</title>
<path fill="none" stroke="#000000" d="M909.1959,-243C875.9029,-243 838.8465,-243 838.8465,-243 838.8465,-243 838.8465,-273.9775 838.8465,-273.9775"/>
<polygon fill="#000000" stroke="#000000" points="835.3465,-273.9774 838.8465,-283.9775 842.3465,-273.9775 835.3465,-273.9774"/>
</g>
<!-- TsSearchComponent  -->
<g id="node17" class="node">
<title>TsSearchComponent </title>
<polygon fill="#fb8072" stroke="#000000" points="857.4166,-388 720.5834,-388 720.5834,-352 857.4166,-352 857.4166,-388"/>
<text text-anchor="middle" x="789" y="-365.8" font-family="Times,serif" font-size="14.00" fill="#000000">TsSearchComponent </text>
</g>
<!-- TsSearchModule&#45;&gt;TsSearchComponent  -->
<g id="edge24" class="edge">
<title>TsSearchModule&#45;&gt;TsSearchComponent </title>
<path fill="none" stroke="#000000" stroke-dasharray="5,2" d="M799,-320.2228C799,-320.2228 799,-341.7269 799,-341.7269"/>
<polygon fill="#000000" stroke="#000000" points="795.5001,-341.7269 799,-351.7269 802.5001,-341.727 795.5001,-341.7269"/>
</g>
</g>
</svg>
