<?xml version="1.0" encoding="UTF-8" standalone="no"?>
<!DOCTYPE svg PUBLIC "-//W3C//DTD SVG 1.1//EN"
 "http://www.w3.org/Graphics/SVG/1.1/DTD/svg11.dtd">
<!-- Generated by graphviz version 2.40.1 (20161225.0304)
 -->
<!-- Title: dependencies Pages: 1 -->
<svg width="1297pt" height="504pt"
 viewBox="0.00 0.00 1297.00 504.00" xmlns="http://www.w3.org/2000/svg" xmlns:xlink="http://www.w3.org/1999/xlink">
<g id="graph0" class="graph" transform="scale(1 1) rotate(0) translate(4 500)">
<title>dependencies</title>
<polygon fill="#ffffff" stroke="transparent" points="-4,4 -4,-500 1293,-500 1293,4 -4,4"/>
<text text-anchor="start" x="623.5091" y="-42.4" font-family="sans-serif" font-weight="bold" font-size="14.00" fill="#000000">Legend</text>
<polygon fill="#ffffb3" stroke="transparent" points="410.5,-10 410.5,-30 430.5,-30 430.5,-10 410.5,-10"/>
<text text-anchor="start" x="434.129" y="-15.4" font-family="sans-serif" font-size="14.00" fill="#000000"> &#160;Declarations</text>
<polygon fill="#8dd3c7" stroke="transparent" points="523.5,-10 523.5,-30 543.5,-30 543.5,-10 523.5,-10"/>
<text text-anchor="start" x="547.2251" y="-15.4" font-family="sans-serif" font-size="14.00" fill="#000000"> &#160;Module</text>
<polygon fill="#80b1d3" stroke="transparent" points="609.5,-10 609.5,-30 629.5,-30 629.5,-10 609.5,-10"/>
<text text-anchor="start" x="633.2812" y="-15.4" font-family="sans-serif" font-size="14.00" fill="#000000"> &#160;Bootstrap</text>
<polygon fill="#fdb462" stroke="transparent" points="706.5,-10 706.5,-30 726.5,-30 726.5,-10 706.5,-10"/>
<text text-anchor="start" x="730.1732" y="-15.4" font-family="sans-serif" font-size="14.00" fill="#000000"> &#160;Providers</text>
<polygon fill="#fb8072" stroke="transparent" points="802.5,-10 802.5,-30 822.5,-30 822.5,-10 802.5,-10"/>
<text text-anchor="start" x="826.2258" y="-15.4" font-family="sans-serif" font-size="14.00" fill="#000000"> &#160;Exports</text>
<g id="clust1" class="cluster">
<title>cluster_TerminusUIModule</title>
<polygon fill="none" stroke="#000000" stroke-dasharray="1,5" points="520,-146 520,-488 1105,-488 1105,-146 520,-146"/>
</g>
<g id="clust3" class="cluster">
<title>cluster_TerminusUIModule_imports</title>
<polygon fill="none" stroke="#000000" points="632,-154 632,-336 901,-336 901,-154 632,-154"/>
</g>
<g id="clust4" class="cluster">
<title>cluster_TerminusUIModule_exports</title>
<polygon fill="none" stroke="#000000" points="528,-428 528,-480 1097,-480 1097,-428 528,-428"/>
</g>
<g id="clust7" class="cluster">
<title>cluster_TsButtonModule</title>
<polygon fill="none" stroke="#000000" stroke-dasharray="1,5" points="8,-70 8,-138 762,-138 762,-70 8,-70"/>
</g>
<g id="clust9" class="cluster">
<title>cluster_TsButtonModule_imports</title>
<polygon fill="none" stroke="#000000" points="176,-78 176,-130 754,-130 754,-78 176,-78"/>
</g>
<g id="clust10" class="cluster">
<title>cluster_TsButtonModule_exports</title>
<polygon fill="none" stroke="#000000" points="16,-78 16,-130 168,-130 168,-78 16,-78"/>
</g>
<g id="clust13" class="cluster">
<title>cluster_TsInputMessagesModule</title>
<polygon fill="none" stroke="#000000" stroke-dasharray="1,5" points="770,-70 770,-138 1230,-138 1230,-70 770,-70"/>
</g>
<g id="clust15" class="cluster">
<title>cluster_TsInputMessagesModule_imports</title>
<polygon fill="none" stroke="#000000" points="984,-78 984,-130 1222,-130 1222,-78 984,-78"/>
</g>
<g id="clust16" class="cluster">
<title>cluster_TsInputMessagesModule_exports</title>
<polygon fill="none" stroke="#000000" points="778,-78 778,-130 976,-130 976,-78 778,-78"/>
</g>
<g id="clust19" class="cluster">
<title>cluster_TsInputModule</title>
<polygon fill="none" stroke="#000000" stroke-dasharray="1,5" points="352,-276 352,-344 512,-344 512,-276 352,-276"/>
</g>
<g id="clust22" class="cluster">
<title>cluster_TsInputModule_exports</title>
<polygon fill="none" stroke="#000000" points="360,-284 360,-336 504,-336 504,-284 360,-284"/>
</g>
<g id="clust25" class="cluster">
<title>cluster_TsSearchModule</title>
<polygon fill="none" stroke="#000000" stroke-dasharray="1,5" points="1113,-352 1113,-420 1281,-420 1281,-352 1113,-352"/>
</g>
<g id="clust28" class="cluster">
<title>cluster_TsSearchModule_exports</title>
<polygon fill="none" stroke="#000000" points="1121,-360 1121,-412 1273,-412 1273,-360 1121,-360"/>
</g>
<!-- TsButtonModule -->
<g id="node1" class="node">
<title>TsButtonModule</title>
<polygon fill="#8dd3c7" stroke="#000000" points="751.6653,-263 748.6653,-267 727.6653,-267 724.6653,-263 640.3347,-263 640.3347,-227 751.6653,-227 751.6653,-263"/>
<text text-anchor="middle" x="696" y="-240.8" font-family="Times,serif" font-size="14.00" fill="#000000">TsButtonModule</text>
</g>
<!-- TsSearchModule -->
<g id="node4" class="node">
<title>TsSearchModule</title>
<polygon fill="#8dd3c7" stroke="#000000" points="892.6346,-328 889.6346,-332 868.6346,-332 865.6346,-328 781.3654,-328 781.3654,-292 892.6346,-292 892.6346,-328"/>
<text text-anchor="middle" x="837" y="-305.8" font-family="Times,serif" font-size="14.00" fill="#000000">TsSearchModule</text>
</g>
<!-- TsButtonModule&#45;&gt;TsSearchModule -->
<g id="edge29" class="edge">
<title>TsButtonModule&#45;&gt;TsSearchModule</title>
<path fill="none" stroke="#000000" d="M746.5598,-263.027C746.5598,-279.3976 746.5598,-301 746.5598,-301 746.5598,-301 771.2677,-301 771.2677,-301"/>
<polygon fill="#000000" stroke="#000000" points="771.2677,-304.5001 781.2677,-301 771.2677,-297.5001 771.2677,-304.5001"/>
</g>
<!-- TerminusUIModule -->
<g id="node5" class="node">
<title>TerminusUIModule</title>
<polygon fill="#8dd3c7" stroke="#000000" points="863.9706,-404 860.9706,-408 839.9706,-408 836.9706,-404 736.0294,-404 736.0294,-368 863.9706,-368 863.9706,-404"/>
<text text-anchor="middle" x="800" y="-381.8" font-family="Times,serif" font-size="14.00" fill="#000000">TerminusUIModule</text>
</g>
<!-- TsButtonModule&#45;&gt;TerminusUIModule -->
<g id="edge1" class="edge">
<title>TsButtonModule&#45;&gt;TerminusUIModule</title>
<path fill="none" stroke="#000000" d="M741.2873,-263.1446C741.2873,-263.1446 741.2873,-357.925 741.2873,-357.925"/>
<polygon fill="#000000" stroke="#000000" points="737.7874,-357.925 741.2873,-367.925 744.7874,-357.925 737.7874,-357.925"/>
</g>
<!-- TsButtonComponent  -->
<g id="node14" class="node">
<title>TsButtonComponent </title>
<polygon fill="#fb8072" stroke="#000000" points="160.4474,-122 23.5526,-122 23.5526,-86 160.4474,-86 160.4474,-122"/>
<text text-anchor="middle" x="92" y="-99.8" font-family="Times,serif" font-size="14.00" fill="#000000">TsButtonComponent </text>
</g>
<!-- TsButtonModule&#45;&gt;TsButtonComponent  -->
<g id="edge13" class="edge">
<title>TsButtonModule&#45;&gt;TsButtonComponent </title>
<path fill="none" stroke="#000000" stroke-dasharray="5,2" d="M640.2598,-256C490.7344,-256 92,-256 92,-256 92,-256 92,-132.0333 92,-132.0333"/>
<polygon fill="#000000" stroke="#000000" points="95.5001,-132.0333 92,-122.0333 88.5001,-132.0333 95.5001,-132.0333"/>
</g>
<!-- TsInputModule -->
<g id="node2" class="node">
<title>TsInputModule</title>
<polygon fill="#8dd3c7" stroke="#000000" points="872.5982,-263 869.5982,-267 848.5982,-267 845.5982,-263 769.4018,-263 769.4018,-227 872.5982,-227 872.5982,-263"/>
<text text-anchor="middle" x="821" y="-240.8" font-family="Times,serif" font-size="14.00" fill="#000000">TsInputModule</text>
</g>
<!-- TsInputModule&#45;&gt;TsSearchModule -->
<g id="edge28" class="edge">
<title>TsInputModule&#45;&gt;TsSearchModule</title>
<path fill="none" stroke="#000000" d="M826.8661,-263.1061C826.8661,-263.1061 826.8661,-281.991 826.8661,-281.991"/>
<polygon fill="#000000" stroke="#000000" points="823.3661,-281.9909 826.8661,-291.991 830.3661,-281.991 823.3661,-281.9909"/>
</g>
<!-- TsInputModule&#45;&gt;TerminusUIModule -->
<g id="edge2" class="edge">
<title>TsInputModule&#45;&gt;TerminusUIModule</title>
<path fill="none" stroke="#000000" d="M777.2723,-263.1446C777.2723,-263.1446 777.2723,-357.925 777.2723,-357.925"/>
<polygon fill="#000000" stroke="#000000" points="773.7724,-357.925 777.2723,-367.925 780.7724,-357.925 773.7724,-357.925"/>
</g>
<!-- TsInputComponent  -->
<g id="node18" class="node">
<title>TsInputComponent </title>
<polygon fill="#fb8072" stroke="#000000" points="496.3814,-328 367.6186,-328 367.6186,-292 496.3814,-292 496.3814,-328"/>
<text text-anchor="middle" x="432" y="-305.8" font-family="Times,serif" font-size="14.00" fill="#000000">TsInputComponent </text>
</g>
<!-- TsInputModule&#45;&gt;TsInputComponent  -->
<g id="edge24" class="edge">
<title>TsInputModule&#45;&gt;TsInputComponent </title>
<path fill="none" stroke="#000000" stroke-dasharray="5,2" d="M773.3616,-263.2921C773.3616,-285.2057 773.3616,-319 773.3616,-319 773.3616,-319 506.2075,-319 506.2075,-319"/>
<polygon fill="#000000" stroke="#000000" points="506.2075,-315.5001 496.2075,-319 506.2075,-322.5001 506.2075,-315.5001"/>
</g>
<!-- TsInputMessagesModule -->
<g id="node3" class="node">
<title>TsInputMessagesModule</title>
<polygon fill="#8dd3c7" stroke="#000000" points="892.5211,-198 889.5211,-202 868.5211,-202 865.5211,-198 735.4789,-198 735.4789,-162 892.5211,-162 892.5211,-198"/>
<text text-anchor="middle" x="814" y="-175.8" font-family="Times,serif" font-size="14.00" fill="#000000">TsInputMessagesModule</text>
</g>
<!-- TsInputMessagesModule&#45;&gt;TsInputModule -->
<g id="edge23" class="edge">
<title>TsInputMessagesModule&#45;&gt;TsInputModule</title>
<path fill="none" stroke="#000000" d="M846.7746,-198.1061C846.7746,-198.1061 846.7746,-216.991 846.7746,-216.991"/>
<polygon fill="#000000" stroke="#000000" points="843.2746,-216.9909 846.7746,-226.991 850.2746,-216.991 843.2746,-216.9909"/>
</g>
<!-- TsInputMessagesModule&#45;&gt;TsSearchModule -->
<g id="edge27" class="edge">
<title>TsInputMessagesModule&#45;&gt;TsSearchModule</title>
<path fill="none" stroke="#000000" d="M882.6547,-198.0759C882.6547,-198.0759 882.6547,-281.6585 882.6547,-281.6585"/>
<polygon fill="#000000" stroke="#000000" points="879.1547,-281.6585 882.6547,-291.6585 886.1547,-281.6585 879.1547,-281.6585"/>
</g>
<!-- TsInputMessagesModule&#45;&gt;TerminusUIModule -->
<g id="edge3" class="edge">
<title>TsInputMessagesModule&#45;&gt;TerminusUIModule</title>
<path fill="none" stroke="#000000" d="M760.6417,-198.2811C760.6417,-198.2811 760.6417,-357.7598 760.6417,-357.7598"/>
<polygon fill="#000000" stroke="#000000" points="757.1417,-357.7598 760.6417,-367.7598 764.1417,-357.7599 757.1417,-357.7598"/>
</g>
<!-- TsInputMessagesComponent  -->
<g id="node17" class="node">
<title>TsInputMessagesComponent </title>
<polygon fill="#fb8072" stroke="#000000" points="968.3031,-122 785.6969,-122 785.6969,-86 968.3031,-86 968.3031,-122"/>
<text text-anchor="middle" x="877" y="-99.8" font-family="Times,serif" font-size="14.00" fill="#000000">TsInputMessagesComponent </text>
</g>
<!-- TsInputMessagesModule&#45;&gt;TsInputMessagesComponent  -->
<g id="edge18" class="edge">
<title>TsInputMessagesModule&#45;&gt;TsInputMessagesComponent </title>
<path fill="none" stroke="#000000" stroke-dasharray="5,2" d="M839.1794,-161.9891C839.1794,-161.9891 839.1794,-132.145 839.1794,-132.145"/>
<polygon fill="#000000" stroke="#000000" points="842.6794,-132.145 839.1794,-122.145 835.6794,-132.1451 842.6794,-132.145"/>
</g>
<!-- TsSearchModule&#45;&gt;TerminusUIModule -->
<g id="edge4" class="edge">
<title>TsSearchModule&#45;&gt;TerminusUIModule</title>
<path fill="none" stroke="#000000" d="M822.5842,-328.0109C822.5842,-328.0109 822.5842,-357.855 822.5842,-357.855"/>
<polygon fill="#000000" stroke="#000000" points="819.0842,-357.8549 822.5842,-367.855 826.0842,-357.855 819.0842,-357.8549"/>
</g>
<!-- TsSearchComponent  -->
<g id="node19" class="node">
<title>TsSearchComponent </title>
<polygon fill="#fb8072" stroke="#000000" points="1265.4166,-404 1128.5834,-404 1128.5834,-368 1265.4166,-368 1265.4166,-404"/>
<text text-anchor="middle" x="1197" y="-381.8" font-family="Times,serif" font-size="14.00" fill="#000000">TsSearchComponent </text>
</g>
<!-- TsSearchModule&#45;&gt;TsSearchComponent  -->
<g id="edge30" class="edge">
<title>TsSearchModule&#45;&gt;TsSearchComponent </title>
<path fill="none" stroke="#000000" stroke-dasharray="5,2" d="M878.4012,-328.0267C878.4012,-348.7672 878.4012,-380 878.4012,-380 878.4012,-380 1118.261,-380 1118.261,-380"/>
<polygon fill="#000000" stroke="#000000" points="1118.2611,-383.5001 1128.261,-380 1118.261,-376.5001 1118.2611,-383.5001"/>
</g>
<!-- TsButtonModule  -->
<g id="node6" class="node">
<title>TsButtonModule </title>
<polygon fill="#fb8072" stroke="#000000" points="1088.6649,-472 973.3351,-472 973.3351,-436 1088.6649,-436 1088.6649,-472"/>
<text text-anchor="middle" x="1031" y="-449.8" font-family="Times,serif" font-size="14.00" fill="#000000">TsButtonModule </text>
</g>
<!-- TerminusUIModule&#45;&gt;TsButtonModule  -->
<g id="edge5" class="edge">
<title>TerminusUIModule&#45;&gt;TsButtonModule </title>
<path fill="none" stroke="#000000" stroke-dasharray="5,2" d="M864.1115,-392C916.7179,-392 982.5724,-392 982.5724,-392 982.5724,-392 982.5724,-425.7333 982.5724,-425.7333"/>
<polygon fill="#000000" stroke="#000000" points="979.0725,-425.7333 982.5724,-435.7333 986.0725,-425.7333 979.0725,-425.7333"/>
</g>
<!-- TsInputModule  -->
<g id="node7" class="node">
<title>TsInputModule </title>
<polygon fill="#fb8072" stroke="#000000" points="955.099,-472 848.901,-472 848.901,-436 955.099,-436 955.099,-472"/>
<text text-anchor="middle" x="902" y="-449.8" font-family="Times,serif" font-size="14.00" fill="#000000">TsInputModule </text>
</g>
<!-- TerminusUIModule&#45;&gt;TsInputModule  -->
<g id="edge6" class="edge">
<title>TerminusUIModule&#45;&gt;TsInputModule </title>
<path fill="none" stroke="#000000" stroke-dasharray="5,2" d="M856.3431,-404.2228C856.3431,-404.2228 856.3431,-425.7269 856.3431,-425.7269"/>
<polygon fill="#000000" stroke="#000000" points="852.8432,-425.7269 856.3431,-435.7269 859.8432,-425.727 852.8432,-425.7269"/>
</g>
<!-- TsInputMessagesModule  -->
<g id="node8" class="node">
<title>TsInputMessagesModule </title>
<polygon fill="#fb8072" stroke="#000000" points="830.5204,-472 669.4796,-472 669.4796,-436 830.5204,-436 830.5204,-472"/>
<text text-anchor="middle" x="750" y="-449.8" font-family="Times,serif" font-size="14.00" fill="#000000">TsInputMessagesModule </text>
</g>
<!-- TerminusUIModule&#45;&gt;TsInputMessagesModule  -->
<g id="edge7" class="edge">
<title>TerminusUIModule&#45;&gt;TsInputMessagesModule </title>
<path fill="none" stroke="#000000" stroke-dasharray="5,2" d="M783.2624,-404.2228C783.2624,-404.2228 783.2624,-425.7269 783.2624,-425.7269"/>
<polygon fill="#000000" stroke="#000000" points="779.7625,-425.7269 783.2624,-435.7269 786.7625,-425.727 779.7625,-425.7269"/>
</g>
<!-- TsSearchModule  -->
<g id="node9" class="node">
<title>TsSearchModule </title>
<polygon fill="#fb8072" stroke="#000000" points="651.6341,-472 536.3659,-472 536.3659,-436 651.6341,-436 651.6341,-472"/>
<text text-anchor="middle" x="594" y="-449.8" font-family="Times,serif" font-size="14.00" fill="#000000">TsSearchModule </text>
</g>
<!-- TerminusUIModule&#45;&gt;TsSearchModule  -->
<g id="edge8" class="edge">
<title>TerminusUIModule&#45;&gt;TsSearchModule </title>
<path fill="none" stroke="#000000" stroke-dasharray="5,2" d="M735.9729,-386C693.6251,-386 645.8673,-386 645.8673,-386 645.8673,-386 645.8673,-425.7772 645.8673,-425.7772"/>
<polygon fill="#000000" stroke="#000000" points="642.3674,-425.7772 645.8673,-435.7772 649.3674,-425.7773 642.3674,-425.7772"/>
</g>
<!-- CommonModule -->
<g id="node10" class="node">
<title>CommonModule</title>
<polygon fill="#8dd3c7" stroke="#000000" points="623.6681,-122 620.6681,-126 599.6681,-126 596.6681,-122 512.3319,-122 512.3319,-86 623.6681,-86 623.6681,-122"/>
<text text-anchor="middle" x="568" y="-99.8" font-family="Times,serif" font-size="14.00" fill="#000000">CommonModule</text>
</g>
<!-- CommonModule&#45;&gt;TsButtonModule -->
<g id="edge9" class="edge">
<title>CommonModule&#45;&gt;TsButtonModule</title>
<path fill="none" stroke="#000000" d="M571.3933,-122.215C571.3933,-158.2102 571.3933,-235 571.3933,-235 571.3933,-235 630.2569,-235 630.2569,-235"/>
<polygon fill="#000000" stroke="#000000" points="630.2569,-238.5001 640.2569,-235 630.2569,-231.5001 630.2569,-238.5001"/>
</g>
<!-- CommonModule&#45;&gt;TsInputModule -->
<g id="edge19" class="edge">
<title>CommonModule&#45;&gt;TsInputModule</title>
<path fill="none" stroke="#000000" d="M588.8735,-122.0636C588.8735,-154.2085 588.8735,-218 588.8735,-218 588.8735,-218 795.2255,-218 795.2255,-218 795.2255,-218 795.2255,-218.8841 795.2255,-218.8841"/>
<polygon fill="#000000" stroke="#000000" points="791.7256,-216.8408 795.2255,-226.8408 798.7256,-216.8409 791.7256,-216.8408"/>
</g>
<!-- CommonModule&#45;&gt;TsInputMessagesModule -->
<g id="edge14" class="edge">
<title>CommonModule&#45;&gt;TsInputMessagesModule</title>
<path fill="none" stroke="#000000" d="M606.3536,-122.0109C606.3536,-144.4852 606.3536,-180 606.3536,-180 606.3536,-180 725.2017,-180 725.2017,-180"/>
<polygon fill="#000000" stroke="#000000" points="725.2018,-183.5001 735.2017,-180 725.2017,-176.5001 725.2018,-183.5001"/>
</g>
<!-- CommonModule&#45;&gt;TsSearchModule -->
<g id="edge25" class="edge">
<title>CommonModule&#45;&gt;TsSearchModule</title>
<path fill="none" stroke="#000000" d="M553.9132,-122.2811C553.9132,-172.6971 553.9132,-310 553.9132,-310 553.9132,-310 771.0711,-310 771.0711,-310"/>
<polygon fill="#000000" stroke="#000000" points="771.0712,-313.5001 781.0711,-310 771.0711,-306.5001 771.0712,-313.5001"/>
</g>
<!-- LaddaModule.forRoot(args) -->
<g id="node11" class="node">
<title>LaddaModule.forRoot(args)</title>
<polygon fill="#8dd3c7" stroke="#000000" points="494.2211,-122 491.2211,-126 470.2211,-126 467.2211,-122 319.7789,-122 319.7789,-86 494.2211,-86 494.2211,-122"/>
<text text-anchor="middle" x="407" y="-99.8" font-family="Times,serif" font-size="14.00" fill="#000000">LaddaModule.forRoot(args)</text>
</g>
<!-- LaddaModule.forRoot(args)&#45;&gt;TsButtonModule -->
<g id="edge10" class="edge">
<title>LaddaModule.forRoot(args)&#45;&gt;TsButtonModule</title>
<path fill="none" stroke="#000000" d="M430.9601,-122.0411C430.9601,-159.4476 430.9601,-242 430.9601,-242 430.9601,-242 630.1157,-242 630.1157,-242"/>
<polygon fill="#000000" stroke="#000000" points="630.1157,-245.5001 640.1157,-242 630.1157,-238.5001 630.1157,-245.5001"/>
</g>
<!-- MdButtonModule -->
<g id="node12" class="node">
<title>MdButtonModule</title>
<polygon fill="#8dd3c7" stroke="#000000" points="301.6123,-122 298.6123,-126 277.6123,-126 274.6123,-122 184.3877,-122 184.3877,-86 301.6123,-86 301.6123,-122"/>
<text text-anchor="middle" x="243" y="-99.8" font-family="Times,serif" font-size="14.00" fill="#000000">MdButtonModule</text>
</g>
<!-- MdButtonModule&#45;&gt;TsButtonModule -->
<g id="edge11" class="edge">
<title>MdButtonModule&#45;&gt;TsButtonModule</title>
<path fill="none" stroke="#000000" d="M243,-122.0712C243,-160.941 243,-249 243,-249 243,-249 629.999,-249 629.999,-249"/>
<polygon fill="#000000" stroke="#000000" points="629.999,-252.5001 639.999,-249 629.9989,-245.5001 629.999,-252.5001"/>
</g>
<!-- MdIconModule -->
<g id="node13" class="node">
<title>MdIconModule</title>
<polygon fill="#8dd3c7" stroke="#000000" points="745.8697,-122 742.8697,-126 721.8697,-126 718.8697,-122 642.1303,-122 642.1303,-86 745.8697,-86 745.8697,-122"/>
<text text-anchor="middle" x="694" y="-99.8" font-family="Times,serif" font-size="14.00" fill="#000000">MdIconModule</text>
</g>
<!-- MdIconModule&#45;&gt;TsButtonModule -->
<g id="edge12" class="edge">
<title>MdIconModule&#45;&gt;TsButtonModule</title>
<path fill="none" stroke="#000000" d="M673.1234,-122.1446C673.1234,-122.1446 673.1234,-216.925 673.1234,-216.925"/>
<polygon fill="#000000" stroke="#000000" points="669.6235,-216.925 673.1234,-226.925 676.6235,-216.925 669.6235,-216.925"/>
</g>
<!-- MdIconModule&#45;&gt;TsInputModule -->
<g id="edge22" class="edge">
<title>MdIconModule&#45;&gt;TsInputModule</title>
<path fill="none" stroke="#000000" d="M704.1816,-122.1154C704.1816,-151.9121 704.1816,-208 704.1816,-208 704.1816,-208 821,-208 821,-208 821,-208 821,-216.9336 821,-216.9336"/>
<polygon fill="#000000" stroke="#000000" points="817.5001,-216.9335 821,-226.9336 824.5001,-216.9336 817.5001,-216.9335"/>
</g>
<!-- MdIconModule&#45;&gt;TsInputMessagesModule -->
<g id="edge17" class="edge">
<title>MdIconModule&#45;&gt;TsInputMessagesModule</title>
<path fill="none" stroke="#000000" d="M740.5873,-122.0109C740.5873,-122.0109 740.5873,-151.855 740.5873,-151.855"/>
<polygon fill="#000000" stroke="#000000" points="737.0874,-151.8549 740.5873,-161.855 744.0874,-151.855 737.0874,-151.8549"/>
</g>
<!-- FormsModule -->
<g id="node15" class="node">
<title>FormsModule</title>
<polygon fill="#8dd3c7" stroke="#000000" points="1213.8288,-122 1210.8288,-126 1189.8288,-126 1186.8288,-122 1118.1712,-122 1118.1712,-86 1213.8288,-86 1213.8288,-122"/>
<text text-anchor="middle" x="1166" y="-99.8" font-family="Times,serif" font-size="14.00" fill="#000000">FormsModule</text>
</g>
<!-- FormsModule&#45;&gt;TsInputModule -->
<g id="edge20" class="edge">
<title>FormsModule&#45;&gt;TsInputModule</title>
<path fill="none" stroke="#000000" d="M1123.4388,-122.0251C1123.4388,-161.2783 1123.4388,-251 1123.4388,-251 1123.4388,-251 882.6474,-251 882.6474,-251"/>
<polygon fill="#000000" stroke="#000000" points="882.6475,-247.5001 872.6474,-251 882.6474,-254.5001 882.6475,-247.5001"/>
</g>
<!-- FormsModule&#45;&gt;TsInputMessagesModule -->
<g id="edge15" class="edge">
<title>FormsModule&#45;&gt;TsInputMessagesModule</title>
<path fill="none" stroke="#000000" d="M1120.8874,-122.1985C1120.8874,-146.3563 1120.8874,-186 1120.8874,-186 1120.8874,-186 902.6326,-186 902.6326,-186"/>
<polygon fill="#000000" stroke="#000000" points="902.6326,-182.5001 892.6326,-186 902.6326,-189.5001 902.6326,-182.5001"/>
</g>
<!-- FormsModule&#45;&gt;TsSearchModule -->
<g id="edge26" class="edge">
<title>FormsModule&#45;&gt;TsSearchModule</title>
<path fill="none" stroke="#000000" d="M1125.9903,-122.2811C1125.9903,-172.6971 1125.9903,-310 1125.9903,-310 1125.9903,-310 902.7202,-310 902.7202,-310"/>
<polygon fill="#000000" stroke="#000000" points="902.7203,-306.5001 892.7202,-310 902.7202,-313.5001 902.7203,-306.5001"/>
</g>
<!-- MdInputModule -->
<g id="node16" class="node">
<title>MdInputModule</title>
<polygon fill="#8dd3c7" stroke="#000000" points="1100.0465,-122 1097.0465,-126 1076.0465,-126 1073.0465,-122 991.9535,-122 991.9535,-86 1100.0465,-86 1100.0465,-122"/>
<text text-anchor="middle" x="1046" y="-99.8" font-family="Times,serif" font-size="14.00" fill="#000000">MdInputModule</text>
</g>
<!-- MdInputModule&#45;&gt;TsInputModule -->
<g id="edge21" class="edge">
<title>MdInputModule&#45;&gt;TsInputModule</title>
<path fill="none" stroke="#000000" d="M1056.2973,-122.2067C1056.2973,-159.0559 1056.2973,-239 1056.2973,-239 1056.2973,-239 882.637,-239 882.637,-239"/>
<polygon fill="#000000" stroke="#000000" points="882.637,-235.5001 872.637,-239 882.637,-242.5001 882.637,-235.5001"/>
</g>
<!-- MdInputModule&#45;&gt;TsInputMessagesModule -->
<g id="edge16" class="edge">
<title>MdInputModule&#45;&gt;TsInputMessagesModule</title>
<path fill="none" stroke="#000000" d="M1024.0123,-122.0267C1024.0123,-142.7672 1024.0123,-174 1024.0123,-174 1024.0123,-174 902.7983,-174 902.7983,-174"/>
<polygon fill="#000000" stroke="#000000" points="902.7984,-170.5001 892.7983,-174 902.7983,-177.5001 902.7984,-170.5001"/>
</g>
</g>
</svg>
