<?xml version="1.0" encoding="UTF-8" standalone="no"?>
<!DOCTYPE svg PUBLIC "-//W3C//DTD SVG 1.1//EN"
 "http://www.w3.org/Graphics/SVG/1.1/DTD/svg11.dtd">
<!-- Generated by graphviz version 2.40.1 (20161225.0304)
 -->
<!-- Title: dependencies Pages: 1 -->
<svg width="2508pt" height="591pt"
 viewBox="0.00 0.00 2508.00 591.00" xmlns="http://www.w3.org/2000/svg" xmlns:xlink="http://www.w3.org/1999/xlink">
<g id="graph0" class="graph" transform="scale(1 1) rotate(0) translate(4 587)">
<title>dependencies</title>
<polygon fill="#ffffff" stroke="transparent" points="-4,4 -4,-587 2504,-587 2504,4 -4,4"/>
<text text-anchor="start" x="1229.0091" y="-42.4" font-family="sans-serif" font-weight="bold" font-size="14.00" fill="#000000">Legend</text>
<polygon fill="#ffffb3" stroke="transparent" points="1016,-10 1016,-30 1036,-30 1036,-10 1016,-10"/>
<text text-anchor="start" x="1039.629" y="-15.4" font-family="sans-serif" font-size="14.00" fill="#000000"> &#160;Declarations</text>
<polygon fill="#8dd3c7" stroke="transparent" points="1129,-10 1129,-30 1149,-30 1149,-10 1129,-10"/>
<text text-anchor="start" x="1152.7251" y="-15.4" font-family="sans-serif" font-size="14.00" fill="#000000"> &#160;Module</text>
<polygon fill="#80b1d3" stroke="transparent" points="1215,-10 1215,-30 1235,-30 1235,-10 1215,-10"/>
<text text-anchor="start" x="1238.7812" y="-15.4" font-family="sans-serif" font-size="14.00" fill="#000000"> &#160;Bootstrap</text>
<polygon fill="#fdb462" stroke="transparent" points="1312,-10 1312,-30 1332,-30 1332,-10 1312,-10"/>
<text text-anchor="start" x="1335.6732" y="-15.4" font-family="sans-serif" font-size="14.00" fill="#000000"> &#160;Providers</text>
<polygon fill="#fb8072" stroke="transparent" points="1408,-10 1408,-30 1428,-30 1428,-10 1408,-10"/>
<text text-anchor="start" x="1431.7258" y="-15.4" font-family="sans-serif" font-size="14.00" fill="#000000"> &#160;Exports</text>
<g id="clust1" class="cluster">
<title>cluster_TerminusUIModule</title>
<polygon fill="none" stroke="#000000" stroke-dasharray="1,5" points="804,-146 804,-575 2060,-575 2060,-146 804,-146"/>
</g>
<g id="clust3" class="cluster">
<title>cluster_TerminusUIModule_imports</title>
<polygon fill="none" stroke="#000000" points="1476,-154 1476,-423 1903,-423 1903,-154 1476,-154"/>
</g>
<g id="clust4" class="cluster">
<title>cluster_TerminusUIModule_exports</title>
<polygon fill="none" stroke="#000000" points="812,-515 812,-567 2052,-567 2052,-515 812,-515"/>
</g>
<g id="clust7" class="cluster">
<title>cluster_TsButtonModule</title>
<polygon fill="none" stroke="#000000" stroke-dasharray="1,5" points="819,-70 819,-138 1572,-138 1572,-70 819,-70"/>
</g>
<g id="clust9" class="cluster">
<title>cluster_TsButtonModule_imports</title>
<polygon fill="none" stroke="#000000" points="827,-78 827,-130 1404,-130 1404,-78 827,-78"/>
</g>
<g id="clust10" class="cluster">
<title>cluster_TsButtonModule_exports</title>
<polygon fill="none" stroke="#000000" points="1412,-78 1412,-130 1564,-130 1564,-78 1412,-78"/>
</g>
<g id="clust13" class="cluster">
<title>cluster_TsCopyModule</title>
<polygon fill="none" stroke="#000000" stroke-dasharray="1,5" points="1580,-70 1580,-138 2024,-138 2024,-70 1580,-70"/>
</g>
<g id="clust15" class="cluster">
<title>cluster_TsCopyModule_imports</title>
<polygon fill="none" stroke="#000000" points="1742,-78 1742,-130 2016,-130 2016,-78 1742,-78"/>
</g>
<g id="clust16" class="cluster">
<title>cluster_TsCopyModule_exports</title>
<polygon fill="none" stroke="#000000" points="1588,-78 1588,-130 1734,-130 1734,-78 1588,-78"/>
</g>
<g id="clust19" class="cluster">
<title>cluster_TsInputMessagesModule</title>
<polygon fill="none" stroke="#000000" stroke-dasharray="1,5" points="2032,-70 2032,-138 2492,-138 2492,-70 2032,-70"/>
</g>
<g id="clust21" class="cluster">
<title>cluster_TsInputMessagesModule_imports</title>
<polygon fill="none" stroke="#000000" points="2246,-78 2246,-130 2484,-130 2484,-78 2246,-78"/>
</g>
<g id="clust22" class="cluster">
<title>cluster_TsInputMessagesModule_exports</title>
<polygon fill="none" stroke="#000000" points="2040,-78 2040,-130 2238,-130 2238,-78 2040,-78"/>
</g>
<g id="clust25" class="cluster">
<title>cluster_TsInputModule</title>
<polygon fill="none" stroke="#000000" stroke-dasharray="1,5" points="2068,-287 2068,-355 2228,-355 2228,-287 2068,-287"/>
</g>
<g id="clust28" class="cluster">
<title>cluster_TsInputModule_exports</title>
<polygon fill="none" stroke="#000000" points="2076,-295 2076,-347 2220,-347 2220,-295 2076,-295"/>
</g>
<g id="clust31" class="cluster">
<title>cluster_TsMenuModule</title>
<polygon fill="none" stroke="#000000" stroke-dasharray="1,5" points="8,-363 8,-431 308,-431 308,-363 8,-363"/>
</g>
<g id="clust33" class="cluster">
<title>cluster_TsMenuModule_imports</title>
<polygon fill="none" stroke="#000000" points="172,-371 172,-423 300,-423 300,-371 172,-371"/>
</g>
<g id="clust34" class="cluster">
<title>cluster_TsMenuModule_exports</title>
<polygon fill="none" stroke="#000000" points="16,-371 16,-423 164,-423 164,-371 16,-371"/>
</g>
<g id="clust37" class="cluster">
<title>cluster_TsPaginationModule</title>
<polygon fill="none" stroke="#000000" stroke-dasharray="1,5" points="2068,-439 2068,-507 2258,-507 2258,-439 2068,-439"/>
</g>
<g id="clust40" class="cluster">
<title>cluster_TsPaginationModule_exports</title>
<polygon fill="none" stroke="#000000" points="2076,-447 2076,-499 2250,-499 2250,-447 2076,-447"/>
</g>
<g id="clust43" class="cluster">
<title>cluster_TsSearchModule</title>
<polygon fill="none" stroke="#000000" stroke-dasharray="1,5" points="628,-363 628,-431 796,-431 796,-363 628,-363"/>
</g>
<g id="clust46" class="cluster">
<title>cluster_TsSearchModule_exports</title>
<polygon fill="none" stroke="#000000" points="636,-371 636,-423 788,-423 788,-371 636,-371"/>
</g>
<g id="clust49" class="cluster">
<title>cluster_TsSelectModule</title>
<polygon fill="none" stroke="#000000" stroke-dasharray="1,5" points="316,-363 316,-431 620,-431 620,-363 316,-363"/>
</g>
<g id="clust51" class="cluster">
<title>cluster_TsSelectModule_imports</title>
<polygon fill="none" stroke="#000000" points="482,-371 482,-423 612,-423 612,-371 482,-371"/>
</g>
<g id="clust52" class="cluster">
<title>cluster_TsSelectModule_exports</title>
<polygon fill="none" stroke="#000000" points="324,-371 324,-423 474,-423 474,-371 324,-371"/>
</g>
<g id="clust55" class="cluster">
<title>cluster_TsToggleModule</title>
<polygon fill="none" stroke="#000000" stroke-dasharray="1,5" points="2068,-211 2068,-279 2410,-279 2410,-211 2068,-211"/>
</g>
<g id="clust57" class="cluster">
<title>cluster_TsToggleModule_imports</title>
<polygon fill="none" stroke="#000000" points="2238,-219 2238,-271 2402,-271 2402,-219 2238,-219"/>
</g>
<g id="clust58" class="cluster">
<title>cluster_TsToggleModule_exports</title>
<polygon fill="none" stroke="#000000" points="2076,-219 2076,-271 2230,-271 2230,-219 2076,-219"/>
</g>
<!-- TsButtonModule -->
<g id="node1" class="node">
<title>TsButtonModule</title>
<polygon fill="#8dd3c7" stroke="#000000" points="1595.6653,-263 1592.6653,-267 1571.6653,-267 1568.6653,-263 1484.3347,-263 1484.3347,-227 1595.6653,-227 1595.6653,-263"/>
<text text-anchor="middle" x="1540" y="-240.8" font-family="Times,serif" font-size="14.00" fill="#000000">TsButtonModule</text>
</g>
<!-- TsMenuModule -->
<g id="node4" class="node">
<title>TsMenuModule</title>
<polygon fill="#8dd3c7" stroke="#000000" points="1590.2064,-339 1587.2064,-343 1566.2064,-343 1563.2064,-339 1483.7936,-339 1483.7936,-303 1590.2064,-303 1590.2064,-339"/>
<text text-anchor="middle" x="1537" y="-316.8" font-family="Times,serif" font-size="14.00" fill="#000000">TsMenuModule</text>
</g>
<!-- TsButtonModule&#45;&gt;TsMenuModule -->
<g id="edge43" class="edge">
<title>TsButtonModule&#45;&gt;TsMenuModule</title>
<path fill="none" stroke="#000000" d="M1537.1354,-263.0109C1537.1354,-263.0109 1537.1354,-292.855 1537.1354,-292.855"/>
<polygon fill="#000000" stroke="#000000" points="1533.6354,-292.8549 1537.1354,-302.855 1540.6354,-292.855 1533.6354,-292.8549"/>
</g>
<!-- TsSearchModule -->
<g id="node7" class="node">
<title>TsSearchModule</title>
<polygon fill="#8dd3c7" stroke="#000000" points="1845.6346,-339 1842.6346,-343 1821.6346,-343 1818.6346,-339 1734.3654,-339 1734.3654,-303 1845.6346,-303 1845.6346,-339"/>
<text text-anchor="middle" x="1790" y="-316.8" font-family="Times,serif" font-size="14.00" fill="#000000">TsSearchModule</text>
</g>
<!-- TsButtonModule&#45;&gt;TsSearchModule -->
<g id="edge55" class="edge">
<title>TsButtonModule&#45;&gt;TsSearchModule</title>
<path fill="none" stroke="#000000" d="M1595.8828,-235C1655.5386,-235 1741.5773,-235 1741.5773,-235 1741.5773,-235 1741.5773,-292.7616 1741.5773,-292.7616"/>
<polygon fill="#000000" stroke="#000000" points="1738.0774,-292.7616 1741.5773,-302.7616 1745.0774,-292.7616 1738.0774,-292.7616"/>
</g>
<!-- TsPaginationModule -->
<g id="node8" class="node">
<title>TsPaginationModule</title>
<polygon fill="#8dd3c7" stroke="#000000" points="1857.9313,-415 1854.9313,-419 1833.9313,-419 1830.9313,-415 1724.0687,-415 1724.0687,-379 1857.9313,-379 1857.9313,-415"/>
<text text-anchor="middle" x="1791" y="-392.8" font-family="Times,serif" font-size="14.00" fill="#000000">TsPaginationModule</text>
</g>
<!-- TsButtonModule&#45;&gt;TsPaginationModule -->
<g id="edge47" class="edge">
<title>TsButtonModule&#45;&gt;TsPaginationModule</title>
<path fill="none" stroke="#000000" d="M1595.7246,-242C1652.0665,-242 1730.8836,-242 1730.8836,-242 1730.8836,-242 1730.8836,-368.9162 1730.8836,-368.9162"/>
<polygon fill="#000000" stroke="#000000" points="1727.3837,-368.9161 1730.8836,-378.9162 1734.3837,-368.9162 1727.3837,-368.9161"/>
</g>
<!-- TerminusUIModule -->
<g id="node10" class="node">
<title>TerminusUIModule</title>
<polygon fill="#8dd3c7" stroke="#000000" points="1768.9706,-491 1765.9706,-495 1744.9706,-495 1741.9706,-491 1641.0294,-491 1641.0294,-455 1768.9706,-455 1768.9706,-491"/>
<text text-anchor="middle" x="1705" y="-468.8" font-family="Times,serif" font-size="14.00" fill="#000000">TerminusUIModule</text>
</g>
<!-- TsButtonModule&#45;&gt;TerminusUIModule -->
<g id="edge1" class="edge">
<title>TsButtonModule&#45;&gt;TerminusUIModule</title>
<path fill="none" stroke="#000000" d="M1595.6935,-249C1647.7657,-249 1717.5588,-249 1717.5588,-249 1717.5588,-249 1717.5588,-444.6691 1717.5588,-444.6691"/>
<polygon fill="#000000" stroke="#000000" points="1714.0589,-444.6691 1717.5588,-454.6691 1721.0589,-444.6692 1714.0589,-444.6691"/>
</g>
<!-- TsButtonComponent  -->
<g id="node24" class="node">
<title>TsButtonComponent </title>
<polygon fill="#fb8072" stroke="#000000" points="1556.4474,-122 1419.5526,-122 1419.5526,-86 1556.4474,-86 1556.4474,-122"/>
<text text-anchor="middle" x="1488" y="-99.8" font-family="Times,serif" font-size="14.00" fill="#000000">TsButtonComponent </text>
</g>
<!-- TsButtonModule&#45;&gt;TsButtonComponent  -->
<g id="edge23" class="edge">
<title>TsButtonModule&#45;&gt;TsButtonComponent </title>
<path fill="none" stroke="#000000" stroke-dasharray="5,2" d="M1591.8871,-226.8554C1591.8871,-188.7735 1591.8871,-104 1591.8871,-104 1591.8871,-104 1566.7157,-104 1566.7157,-104"/>
<polygon fill="#000000" stroke="#000000" points="1566.7157,-100.5001 1556.7157,-104 1566.7156,-107.5001 1566.7157,-100.5001"/>
</g>
<!-- TsInputModule -->
<g id="node2" class="node">
<title>TsInputModule</title>
<polygon fill="#8dd3c7" stroke="#000000" points="1867.5982,-263 1864.5982,-267 1843.5982,-267 1840.5982,-263 1764.4018,-263 1764.4018,-227 1867.5982,-227 1867.5982,-263"/>
<text text-anchor="middle" x="1816" y="-240.8" font-family="Times,serif" font-size="14.00" fill="#000000">TsInputModule</text>
</g>
<!-- TsInputModule&#45;&gt;TsSearchModule -->
<g id="edge54" class="edge">
<title>TsInputModule&#45;&gt;TsSearchModule</title>
<path fill="none" stroke="#000000" d="M1791.5729,-263.0109C1791.5729,-263.0109 1791.5729,-292.855 1791.5729,-292.855"/>
<polygon fill="#000000" stroke="#000000" points="1788.073,-292.8549 1791.5729,-302.855 1795.073,-292.855 1788.073,-292.8549"/>
</g>
<!-- TsInputModule&#45;&gt;TerminusUIModule -->
<g id="edge2" class="edge">
<title>TsInputModule&#45;&gt;TerminusUIModule</title>
<path fill="none" stroke="#000000" d="M1764.2874,-256C1741.9874,-256 1720.9217,-256 1720.9217,-256 1720.9217,-256 1720.9217,-444.8719 1720.9217,-444.8719"/>
<polygon fill="#000000" stroke="#000000" points="1717.4218,-444.8719 1720.9217,-454.8719 1724.4218,-444.872 1717.4218,-444.8719"/>
</g>
<!-- TsInputComponent  -->
<g id="node31" class="node">
<title>TsInputComponent </title>
<polygon fill="#fb8072" stroke="#000000" points="2212.3814,-339 2083.6186,-339 2083.6186,-303 2212.3814,-303 2212.3814,-339"/>
<text text-anchor="middle" x="2148" y="-316.8" font-family="Times,serif" font-size="14.00" fill="#000000">TsInputComponent </text>
</g>
<!-- TsInputModule&#45;&gt;TsInputComponent  -->
<g id="edge39" class="edge">
<title>TsInputModule&#45;&gt;TsInputComponent </title>
<path fill="none" stroke="#000000" stroke-dasharray="5,2" d="M1862.6322,-263.0109C1862.6322,-285.4852 1862.6322,-321 1862.6322,-321 1862.6322,-321 2073.6021,-321 2073.6021,-321"/>
<polygon fill="#000000" stroke="#000000" points="2073.6021,-324.5001 2083.6021,-321 2073.602,-317.5001 2073.6021,-324.5001"/>
</g>
<!-- TsInputMessagesModule -->
<g id="node3" class="node">
<title>TsInputMessagesModule</title>
<polygon fill="#8dd3c7" stroke="#000000" points="1763.5211,-198 1760.5211,-202 1739.5211,-202 1736.5211,-198 1606.4789,-198 1606.4789,-162 1763.5211,-162 1763.5211,-198"/>
<text text-anchor="middle" x="1685" y="-175.8" font-family="Times,serif" font-size="14.00" fill="#000000">TsInputMessagesModule</text>
</g>
<!-- TsInputMessagesModule&#45;&gt;TsInputModule -->
<g id="edge38" class="edge">
<title>TsInputMessagesModule&#45;&gt;TsInputModule</title>
<path fill="none" stroke="#000000" d="M1763.5623,-180C1771.7552,-180 1777.1609,-180 1777.1609,-180 1777.1609,-180 1777.1609,-216.8939 1777.1609,-216.8939"/>
<polygon fill="#000000" stroke="#000000" points="1773.661,-216.8938 1777.1609,-226.8939 1780.661,-216.8939 1773.661,-216.8938"/>
</g>
<!-- TsInputMessagesModule&#45;&gt;TsSearchModule -->
<g id="edge53" class="edge">
<title>TsInputMessagesModule&#45;&gt;TsSearchModule</title>
<path fill="none" stroke="#000000" d="M1756.3659,-198.1446C1756.3659,-198.1446 1756.3659,-292.925 1756.3659,-292.925"/>
<polygon fill="#000000" stroke="#000000" points="1752.866,-292.925 1756.3659,-302.925 1759.866,-292.925 1752.866,-292.925"/>
</g>
<!-- TsInputMessagesModule&#45;&gt;TerminusUIModule -->
<g id="edge3" class="edge">
<title>TsInputMessagesModule&#45;&gt;TerminusUIModule</title>
<path fill="none" stroke="#000000" d="M1719.2403,-198.3285C1719.2403,-198.3285 1719.2403,-444.6785 1719.2403,-444.6785"/>
<polygon fill="#000000" stroke="#000000" points="1715.7404,-444.6784 1719.2403,-454.6785 1722.7404,-444.6785 1715.7404,-444.6784"/>
</g>
<!-- TsInputMessagesComponent  -->
<g id="node30" class="node">
<title>TsInputMessagesComponent </title>
<polygon fill="#fb8072" stroke="#000000" points="2230.3031,-122 2047.6969,-122 2047.6969,-86 2230.3031,-86 2230.3031,-122"/>
<text text-anchor="middle" x="2139" y="-99.8" font-family="Times,serif" font-size="14.00" fill="#000000">TsInputMessagesComponent </text>
</g>
<!-- TsInputMessagesModule&#45;&gt;TsInputMessagesComponent  -->
<g id="edge33" class="edge">
<title>TsInputMessagesModule&#45;&gt;TsInputMessagesComponent </title>
<path fill="none" stroke="#000000" stroke-dasharray="5,2" d="M1760.9986,-161.9672C1760.9986,-155.1474 1760.9986,-149 1760.9986,-149 1760.9986,-149 2065.621,-149 2065.621,-149 2065.621,-149 2065.621,-132.0439 2065.621,-132.0439"/>
<polygon fill="#000000" stroke="#000000" points="2069.121,-132.0439 2065.621,-122.0439 2062.121,-132.044 2069.121,-132.0439"/>
</g>
<!-- TsMenuModule&#45;&gt;TsPaginationModule -->
<g id="edge49" class="edge">
<title>TsMenuModule&#45;&gt;TsPaginationModule</title>
<path fill="none" stroke="#000000" d="M1559.1177,-339.0267C1559.1177,-359.7672 1559.1177,-391 1559.1177,-391 1559.1177,-391 1714.2411,-391 1714.2411,-391"/>
<polygon fill="#000000" stroke="#000000" points="1714.2412,-394.5001 1724.2411,-391 1714.2411,-387.5001 1714.2412,-394.5001"/>
</g>
<!-- TsMenuModule&#45;&gt;TerminusUIModule -->
<g id="edge4" class="edge">
<title>TsMenuModule&#45;&gt;TerminusUIModule</title>
<path fill="none" stroke="#000000" d="M1528.1323,-339.2733C1528.1323,-377.6253 1528.1323,-463 1528.1323,-463 1528.1323,-463 1630.8966,-463 1630.8966,-463"/>
<polygon fill="#000000" stroke="#000000" points="1630.8967,-466.5001 1640.8966,-463 1630.8966,-459.5001 1630.8967,-466.5001"/>
</g>
<!-- TsMenuComponent  -->
<g id="node33" class="node">
<title>TsMenuComponent </title>
<polygon fill="#fb8072" stroke="#000000" points="155.9897,-415 24.0103,-415 24.0103,-379 155.9897,-379 155.9897,-415"/>
<text text-anchor="middle" x="90" y="-392.8" font-family="Times,serif" font-size="14.00" fill="#000000">TsMenuComponent </text>
</g>
<!-- TsMenuModule&#45;&gt;TsMenuComponent  -->
<g id="edge44" class="edge">
<title>TsMenuModule&#45;&gt;TsMenuComponent </title>
<path fill="none" stroke="#000000" stroke-dasharray="5,2" d="M1483.7844,-325C1222.7264,-325 90,-325 90,-325 90,-325 90,-368.8314 90,-368.8314"/>
<polygon fill="#000000" stroke="#000000" points="86.5001,-368.8313 90,-378.8314 93.5001,-368.8314 86.5001,-368.8313"/>
</g>
<!-- TsSelectModule -->
<g id="node5" class="node">
<title>TsSelectModule</title>
<polygon fill="#8dd3c7" stroke="#000000" points="1715.7549,-339 1712.7549,-343 1691.7549,-343 1688.7549,-339 1608.2451,-339 1608.2451,-303 1715.7549,-303 1715.7549,-339"/>
<text text-anchor="middle" x="1662" y="-316.8" font-family="Times,serif" font-size="14.00" fill="#000000">TsSelectModule</text>
</g>
<!-- TsSelectModule&#45;&gt;TsPaginationModule -->
<g id="edge48" class="edge">
<title>TsSelectModule&#45;&gt;TsPaginationModule</title>
<path fill="none" stroke="#000000" d="M1715.859,-327C1722.8196,-327 1727.5841,-327 1727.5841,-327 1727.5841,-327 1727.5841,-368.9733 1727.5841,-368.9733"/>
<polygon fill="#000000" stroke="#000000" points="1724.0842,-368.9732 1727.5841,-378.9733 1731.0842,-368.9733 1724.0842,-368.9732"/>
</g>
<!-- TsSelectModule&#45;&gt;TerminusUIModule -->
<g id="edge5" class="edge">
<title>TsSelectModule&#45;&gt;TerminusUIModule</title>
<path fill="none" stroke="#000000" d="M1678.446,-339.0333C1678.446,-339.0333 1678.446,-444.9902 1678.446,-444.9902"/>
<polygon fill="#000000" stroke="#000000" points="1674.9461,-444.9901 1678.446,-454.9902 1681.9461,-444.9902 1674.9461,-444.9901"/>
</g>
<!-- TsSelectComponent  -->
<g id="node37" class="node">
<title>TsSelectComponent </title>
<polygon fill="#fb8072" stroke="#000000" points="465.5372,-415 332.4628,-415 332.4628,-379 465.5372,-379 465.5372,-415"/>
<text text-anchor="middle" x="399" y="-392.8" font-family="Times,serif" font-size="14.00" fill="#000000">TsSelectComponent </text>
</g>
<!-- TsSelectModule&#45;&gt;TsSelectComponent  -->
<g id="edge60" class="edge">
<title>TsSelectModule&#45;&gt;TsSelectComponent </title>
<path fill="none" stroke="#000000" stroke-dasharray="5,2" d="M1613.5784,-339.207C1613.5784,-344.5549 1613.5784,-349 1613.5784,-349 1613.5784,-349 399,-349 399,-349 399,-349 399,-368.8533 399,-368.8533"/>
<polygon fill="#000000" stroke="#000000" points="395.5001,-368.8532 399,-378.8533 402.5001,-368.8533 395.5001,-368.8532"/>
</g>
<!-- TsToggleModule -->
<g id="node6" class="node">
<title>TsToggleModule</title>
<polygon fill="#8dd3c7" stroke="#000000" points="1894.705,-198 1891.705,-202 1870.705,-202 1867.705,-198 1781.295,-198 1781.295,-162 1894.705,-162 1894.705,-198"/>
<text text-anchor="middle" x="1838" y="-175.8" font-family="Times,serif" font-size="14.00" fill="#000000">TsToggleModule</text>
</g>
<!-- TsToggleModule&#45;&gt;TerminusUIModule -->
<g id="edge6" class="edge">
<title>TsToggleModule&#45;&gt;TerminusUIModule</title>
<path fill="none" stroke="#000000" d="M1876.5669,-198.1408C1876.5669,-261.6289 1876.5669,-470 1876.5669,-470 1876.5669,-470 1779.3733,-470 1779.3733,-470"/>
<polygon fill="#000000" stroke="#000000" points="1779.3733,-466.5001 1769.3733,-470 1779.3733,-473.5001 1779.3733,-466.5001"/>
</g>
<!-- TsToggleComponent  -->
<g id="node39" class="node">
<title>TsToggleComponent </title>
<polygon fill="#fb8072" stroke="#000000" points="2222.4883,-263 2083.5117,-263 2083.5117,-227 2222.4883,-227 2222.4883,-263"/>
<text text-anchor="middle" x="2153" y="-240.8" font-family="Times,serif" font-size="14.00" fill="#000000">TsToggleComponent </text>
</g>
<!-- TsToggleModule&#45;&gt;TsToggleComponent  -->
<g id="edge64" class="edge">
<title>TsToggleModule&#45;&gt;TsToggleComponent </title>
<path fill="none" stroke="#000000" stroke-dasharray="5,2" d="M1885.5846,-198.1061C1885.5846,-217.3391 1885.5846,-245 1885.5846,-245 1885.5846,-245 2073.4378,-245 2073.4378,-245"/>
<polygon fill="#000000" stroke="#000000" points="2073.4379,-248.5001 2083.4378,-245 2073.4378,-241.5001 2073.4379,-248.5001"/>
</g>
<!-- TsSearchModule&#45;&gt;TerminusUIModule -->
<g id="edge7" class="edge">
<title>TsSearchModule&#45;&gt;TerminusUIModule</title>
<path fill="none" stroke="#000000" d="M1734.3428,-315C1727.3585,-315 1722.6032,-315 1722.6032,-315 1722.6032,-315 1722.6032,-444.8754 1722.6032,-444.8754"/>
<polygon fill="#000000" stroke="#000000" points="1719.1033,-444.8754 1722.6032,-454.8754 1726.1033,-444.8754 1719.1033,-444.8754"/>
</g>
<!-- TsSearchComponent  -->
<g id="node35" class="node">
<title>TsSearchComponent </title>
<polygon fill="#fb8072" stroke="#000000" points="780.4166,-415 643.5834,-415 643.5834,-379 780.4166,-379 780.4166,-415"/>
<text text-anchor="middle" x="712" y="-392.8" font-family="Times,serif" font-size="14.00" fill="#000000">TsSearchComponent </text>
</g>
<!-- TsSearchModule&#45;&gt;TsSearchComponent  -->
<g id="edge56" class="edge">
<title>TsSearchModule&#45;&gt;TsSearchComponent </title>
<path fill="none" stroke="#000000" stroke-dasharray="5,2" d="M1790,-339.1467C1790,-352.7395 1790,-369 1790,-369 1790,-369 712,-369 712,-369 712,-369 712,-369.9793 712,-369.9793"/>
<polygon fill="#000000" stroke="#000000" points="708.5001,-368.793 712,-378.793 715.5001,-368.7931 708.5001,-368.793"/>
</g>
<!-- TsPaginationModule&#45;&gt;TerminusUIModule -->
<g id="edge8" class="edge">
<title>TsPaginationModule&#45;&gt;TerminusUIModule</title>
<path fill="none" stroke="#000000" d="M1746.635,-415.0109C1746.635,-415.0109 1746.635,-444.855 1746.635,-444.855"/>
<polygon fill="#000000" stroke="#000000" points="1743.1351,-444.8549 1746.635,-454.855 1750.1351,-444.855 1743.1351,-444.8549"/>
</g>
<!-- TsPaginationComponent  -->
<g id="node34" class="node">
<title>TsPaginationComponent </title>
<polygon fill="#fb8072" stroke="#000000" points="2242.2135,-491 2083.7865,-491 2083.7865,-455 2242.2135,-455 2242.2135,-491"/>
<text text-anchor="middle" x="2163" y="-468.8" font-family="Times,serif" font-size="14.00" fill="#000000">TsPaginationComponent </text>
</g>
<!-- TsPaginationModule&#45;&gt;TsPaginationComponent  -->
<g id="edge50" class="edge">
<title>TsPaginationModule&#45;&gt;TsPaginationComponent </title>
<path fill="none" stroke="#000000" stroke-dasharray="5,2" d="M1839.7105,-415.0348C1839.7105,-434.5762 1839.7105,-463 1839.7105,-463 1839.7105,-463 2073.5004,-463 2073.5004,-463"/>
<polygon fill="#000000" stroke="#000000" points="2073.5005,-466.5001 2083.5004,-463 2073.5004,-459.5001 2073.5005,-466.5001"/>
</g>
<!-- TsCopyModule -->
<g id="node9" class="node">
<title>TsCopyModule</title>
<polygon fill="#8dd3c7" stroke="#000000" points="1587.8837,-198 1584.8837,-202 1563.8837,-202 1560.8837,-198 1484.1163,-198 1484.1163,-162 1587.8837,-162 1587.8837,-198"/>
<text text-anchor="middle" x="1536" y="-175.8" font-family="Times,serif" font-size="14.00" fill="#000000">TsCopyModule</text>
</g>
<!-- TsCopyModule&#45;&gt;TerminusUIModule -->
<g id="edge9" class="edge">
<title>TsCopyModule&#45;&gt;TerminusUIModule</title>
<path fill="none" stroke="#000000" d="M1587.921,-186C1594.4365,-186 1598.8726,-186 1598.8726,-186 1598.8726,-186 1598.8726,-459 1598.8726,-459 1598.8726,-459 1630.817,-459 1630.817,-459"/>
<polygon fill="#000000" stroke="#000000" points="1630.817,-462.5001 1640.817,-459 1630.8169,-455.5001 1630.817,-462.5001"/>
</g>
<!-- TsCopyComponent  -->
<g id="node27" class="node">
<title>TsCopyComponent </title>
<polygon fill="#fb8072" stroke="#000000" points="1725.6663,-122 1596.3337,-122 1596.3337,-86 1725.6663,-86 1725.6663,-122"/>
<text text-anchor="middle" x="1661" y="-99.8" font-family="Times,serif" font-size="14.00" fill="#000000">TsCopyComponent </text>
</g>
<!-- TsCopyModule&#45;&gt;TsCopyComponent  -->
<g id="edge28" class="edge">
<title>TsCopyModule&#45;&gt;TsCopyComponent </title>
<path fill="none" stroke="#000000" stroke-dasharray="5,2" d="M1588.0627,-174C1597.1645,-174 1603.7841,-174 1603.7841,-174 1603.7841,-174 1603.7841,-132.0267 1603.7841,-132.0267"/>
<polygon fill="#000000" stroke="#000000" points="1607.2842,-132.0267 1603.7841,-122.0267 1600.2842,-132.0268 1607.2842,-132.0267"/>
</g>
<!-- TsButtonModule  -->
<g id="node11" class="node">
<title>TsButtonModule </title>
<polygon fill="#fb8072" stroke="#000000" points="2043.6649,-559 1928.3351,-559 1928.3351,-523 2043.6649,-523 2043.6649,-559"/>
<text text-anchor="middle" x="1986" y="-536.8" font-family="Times,serif" font-size="14.00" fill="#000000">TsButtonModule </text>
</g>
<!-- TerminusUIModule&#45;&gt;TsButtonModule  -->
<g id="edge10" class="edge">
<title>TerminusUIModule&#45;&gt;TsButtonModule </title>
<path fill="none" stroke="#000000" stroke-dasharray="5,2" d="M1769.0714,-477C1847.0061,-477 1968.2905,-477 1968.2905,-477 1968.2905,-477 1968.2905,-512.8314 1968.2905,-512.8314"/>
<polygon fill="#000000" stroke="#000000" points="1964.7906,-512.8313 1968.2905,-522.8314 1971.7906,-512.8314 1964.7906,-512.8313"/>
</g>
<!-- TsInputModule  -->
<g id="node12" class="node">
<title>TsInputModule </title>
<polygon fill="#fb8072" stroke="#000000" points="1910.099,-559 1803.901,-559 1803.901,-523 1910.099,-523 1910.099,-559"/>
<text text-anchor="middle" x="1857" y="-536.8" font-family="Times,serif" font-size="14.00" fill="#000000">TsInputModule </text>
</g>
<!-- TerminusUIModule&#45;&gt;TsInputModule  -->
<g id="edge11" class="edge">
<title>TerminusUIModule&#45;&gt;TsInputModule </title>
<path fill="none" stroke="#000000" stroke-dasharray="5,2" d="M1769.1568,-484C1796.2756,-484 1821.7057,-484 1821.7057,-484 1821.7057,-484 1821.7057,-512.9648 1821.7057,-512.9648"/>
<polygon fill="#000000" stroke="#000000" points="1818.2058,-512.9648 1821.7057,-522.9648 1825.2058,-512.9649 1818.2058,-512.9648"/>
</g>
<!-- TsInputMessagesModule  -->
<g id="node13" class="node">
<title>TsInputMessagesModule </title>
<polygon fill="#fb8072" stroke="#000000" points="1785.5204,-559 1624.4796,-559 1624.4796,-523 1785.5204,-523 1785.5204,-559"/>
<text text-anchor="middle" x="1705" y="-536.8" font-family="Times,serif" font-size="14.00" fill="#000000">TsInputMessagesModule </text>
</g>
<!-- TerminusUIModule&#45;&gt;TsInputMessagesModule  -->
<g id="edge12" class="edge">
<title>TerminusUIModule&#45;&gt;TsInputMessagesModule </title>
<path fill="none" stroke="#000000" stroke-dasharray="5,2" d="M1705,-491.2228C1705,-491.2228 1705,-512.7269 1705,-512.7269"/>
<polygon fill="#000000" stroke="#000000" points="1701.5001,-512.7269 1705,-522.7269 1708.5001,-512.727 1701.5001,-512.7269"/>
</g>
<!-- TsMenuModule  -->
<g id="node14" class="node">
<title>TsMenuModule </title>
<polygon fill="#fb8072" stroke="#000000" points="1606.7066,-559 1497.2934,-559 1497.2934,-523 1606.7066,-523 1606.7066,-559"/>
<text text-anchor="middle" x="1552" y="-536.8" font-family="Times,serif" font-size="14.00" fill="#000000">TsMenuModule </text>
</g>
<!-- TerminusUIModule&#45;&gt;TsMenuModule  -->
<g id="edge13" class="edge">
<title>TerminusUIModule&#45;&gt;TsMenuModule </title>
<path fill="none" stroke="#000000" stroke-dasharray="5,2" d="M1640.8179,-487C1619.6092,-487 1601.3284,-487 1601.3284,-487 1601.3284,-487 1601.3284,-512.7181 1601.3284,-512.7181"/>
<polygon fill="#000000" stroke="#000000" points="1597.8284,-512.718 1601.3284,-522.7181 1604.8284,-512.7181 1597.8284,-512.718"/>
</g>
<!-- TsSelectModule  -->
<g id="node15" class="node">
<title>TsSelectModule </title>
<polygon fill="#fb8072" stroke="#000000" points="1479.7549,-559 1368.2451,-559 1368.2451,-523 1479.7549,-523 1479.7549,-559"/>
<text text-anchor="middle" x="1424" y="-536.8" font-family="Times,serif" font-size="14.00" fill="#000000">TsSelectModule </text>
</g>
<!-- TerminusUIModule&#45;&gt;TsSelectModule  -->
<g id="edge14" class="edge">
<title>TerminusUIModule&#45;&gt;TsSelectModule </title>
<path fill="none" stroke="#000000" stroke-dasharray="5,2" d="M1640.8756,-483C1565.2143,-483 1449.5768,-483 1449.5768,-483 1449.5768,-483 1449.5768,-512.9664 1449.5768,-512.9664"/>
<polygon fill="#000000" stroke="#000000" points="1446.0769,-512.9663 1449.5768,-522.9664 1453.0769,-512.9664 1446.0769,-512.9663"/>
</g>
<!-- TsToggleModule  -->
<g id="node16" class="node">
<title>TsToggleModule </title>
<polygon fill="#fb8072" stroke="#000000" points="1350.2052,-559 1233.7948,-559 1233.7948,-523 1350.2052,-523 1350.2052,-559"/>
<text text-anchor="middle" x="1292" y="-536.8" font-family="Times,serif" font-size="14.00" fill="#000000">TsToggleModule </text>
</g>
<!-- TerminusUIModule&#45;&gt;TsToggleModule  -->
<g id="edge15" class="edge">
<title>TerminusUIModule&#45;&gt;TsToggleModule </title>
<path fill="none" stroke="#000000" stroke-dasharray="5,2" d="M1640.762,-479C1531.506,-479 1321.2088,-479 1321.2088,-479 1321.2088,-479 1321.2088,-512.7333 1321.2088,-512.7333"/>
<polygon fill="#000000" stroke="#000000" points="1317.7089,-512.7333 1321.2088,-522.7333 1324.7089,-512.7333 1317.7089,-512.7333"/>
</g>
<!-- TsSearchModule  -->
<g id="node17" class="node">
<title>TsSearchModule </title>
<polygon fill="#fb8072" stroke="#000000" points="1215.6341,-559 1100.3659,-559 1100.3659,-523 1215.6341,-523 1215.6341,-559"/>
<text text-anchor="middle" x="1158" y="-536.8" font-family="Times,serif" font-size="14.00" fill="#000000">TsSearchModule </text>
</g>
<!-- TerminusUIModule&#45;&gt;TsSearchModule  -->
<g id="edge16" class="edge">
<title>TerminusUIModule&#45;&gt;TsSearchModule </title>
<path fill="none" stroke="#000000" stroke-dasharray="5,2" d="M1640.9348,-475C1502.7092,-475 1188.8666,-475 1188.8666,-475 1188.8666,-475 1188.8666,-512.9652 1188.8666,-512.9652"/>
<polygon fill="#000000" stroke="#000000" points="1185.3667,-512.9652 1188.8666,-522.9652 1192.3667,-512.9652 1185.3667,-512.9652"/>
</g>
<!-- TsPaginationModule  -->
<g id="node18" class="node">
<title>TsPaginationModule </title>
<polygon fill="#fb8072" stroke="#000000" points="1082.4306,-559 945.5694,-559 945.5694,-523 1082.4306,-523 1082.4306,-559"/>
<text text-anchor="middle" x="1014" y="-536.8" font-family="Times,serif" font-size="14.00" fill="#000000">TsPaginationModule </text>
</g>
<!-- TerminusUIModule&#45;&gt;TsPaginationModule  -->
<g id="edge17" class="edge">
<title>TerminusUIModule&#45;&gt;TsPaginationModule </title>
<path fill="none" stroke="#000000" stroke-dasharray="5,2" d="M1640.8921,-471C1476.8955,-471 1054.9546,-471 1054.9546,-471 1054.9546,-471 1054.9546,-512.9733 1054.9546,-512.9733"/>
<polygon fill="#000000" stroke="#000000" points="1051.4547,-512.9732 1054.9546,-522.9733 1058.4547,-512.9733 1051.4547,-512.9732"/>
</g>
<!-- TsCopyModule  -->
<g id="node19" class="node">
<title>TsCopyModule </title>
<polygon fill="#fb8072" stroke="#000000" points="927.8843,-559 820.1157,-559 820.1157,-523 927.8843,-523 927.8843,-559"/>
<text text-anchor="middle" x="874" y="-536.8" font-family="Times,serif" font-size="14.00" fill="#000000">TsCopyModule </text>
</g>
<!-- TerminusUIModule&#45;&gt;TsCopyModule  -->
<g id="edge18" class="edge">
<title>TerminusUIModule&#45;&gt;TsCopyModule </title>
<path fill="none" stroke="#000000" stroke-dasharray="5,2" d="M1640.708,-467C1446.8495,-467 881.2907,-467 881.2907,-467 881.2907,-467 881.2907,-512.7079 881.2907,-512.7079"/>
<polygon fill="#000000" stroke="#000000" points="877.7907,-512.7078 881.2907,-522.7079 884.7907,-512.7079 877.7907,-512.7078"/>
</g>
<!-- CommonModule -->
<g id="node20" class="node">
<title>CommonModule</title>
<polygon fill="#8dd3c7" stroke="#000000" points="1273.6681,-122 1270.6681,-126 1249.6681,-126 1246.6681,-122 1162.3319,-122 1162.3319,-86 1273.6681,-86 1273.6681,-122"/>
<text text-anchor="middle" x="1218" y="-99.8" font-family="Times,serif" font-size="14.00" fill="#000000">CommonModule</text>
</g>
<!-- CommonModule&#45;&gt;TsButtonModule -->
<g id="edge19" class="edge">
<title>CommonModule&#45;&gt;TsButtonModule</title>
<path fill="none" stroke="#000000" d="M1241.6848,-122.0411C1241.6848,-159.4476 1241.6848,-242 1241.6848,-242 1241.6848,-242 1474.2391,-242 1474.2391,-242"/>
<polygon fill="#000000" stroke="#000000" points="1474.2392,-245.5001 1484.2391,-242 1474.2391,-238.5001 1474.2392,-245.5001"/>
</g>
<!-- CommonModule&#45;&gt;TsInputModule -->
<g id="edge34" class="edge">
<title>CommonModule&#45;&gt;TsInputModule</title>
<path fill="none" stroke="#000000" d="M1265.7966,-122.1554C1265.7966,-154.0979 1265.7966,-217 1265.7966,-217 1265.7966,-217 1768.6876,-217 1768.6876,-217 1768.6876,-217 1768.6876,-217.9793 1768.6876,-217.9793"/>
<polygon fill="#000000" stroke="#000000" points="1765.1877,-216.793 1768.6876,-226.793 1772.1877,-216.7931 1765.1877,-216.793"/>
</g>
<!-- CommonModule&#45;&gt;TsInputMessagesModule -->
<g id="edge29" class="edge">
<title>CommonModule&#45;&gt;TsInputMessagesModule</title>
<path fill="none" stroke="#000000" d="M1249.7221,-122.2434C1249.7221,-129.4297 1249.7221,-136 1249.7221,-136 1249.7221,-136 1646.0209,-136 1646.0209,-136 1646.0209,-136 1646.0209,-151.8495 1646.0209,-151.8495"/>
<polygon fill="#000000" stroke="#000000" points="1642.521,-151.8494 1646.0209,-161.8495 1649.521,-151.8495 1642.521,-151.8494"/>
</g>
<!-- CommonModule&#45;&gt;TsMenuModule -->
<g id="edge40" class="edge">
<title>CommonModule&#45;&gt;TsMenuModule</title>
<path fill="none" stroke="#000000" d="M1257.7593,-122.2455C1257.7593,-173.9967 1257.7593,-318 1257.7593,-318 1257.7593,-318 1473.8197,-318 1473.8197,-318"/>
<polygon fill="#000000" stroke="#000000" points="1473.8197,-321.5001 1483.8197,-318 1473.8197,-314.5001 1473.8197,-321.5001"/>
</g>
<!-- CommonModule&#45;&gt;TsSelectModule -->
<g id="edge57" class="edge">
<title>CommonModule&#45;&gt;TsSelectModule</title>
<path fill="none" stroke="#000000" d="M1245.7035,-122.2254C1245.7035,-155.795 1245.7035,-224 1245.7035,-224 1245.7035,-224 1644.0409,-224 1644.0409,-224 1644.0409,-224 1644.0409,-292.755 1644.0409,-292.755"/>
<polygon fill="#000000" stroke="#000000" points="1640.541,-292.755 1644.0409,-302.755 1647.541,-292.7551 1640.541,-292.755"/>
</g>
<!-- CommonModule&#45;&gt;TsToggleModule -->
<g id="edge61" class="edge">
<title>CommonModule&#45;&gt;TsToggleModule</title>
<path fill="none" stroke="#000000" d="M1253.7407,-122.1223C1253.7407,-124.9729 1253.7407,-127 1253.7407,-127 1253.7407,-127 1827.7227,-127 1827.7227,-127 1827.7227,-127 1827.7227,-151.7604 1827.7227,-151.7604"/>
<polygon fill="#000000" stroke="#000000" points="1824.2227,-151.7604 1827.7227,-161.7604 1831.2227,-151.7604 1824.2227,-151.7604"/>
</g>
<!-- CommonModule&#45;&gt;TsSearchModule -->
<g id="edge51" class="edge">
<title>CommonModule&#45;&gt;TsSearchModule</title>
<path fill="none" stroke="#000000" d="M1261.7779,-122.125C1261.7779,-154.75 1261.7779,-220 1261.7779,-220 1261.7779,-220 1748.9716,-220 1748.9716,-220 1748.9716,-220 1748.9716,-292.9432 1748.9716,-292.9432"/>
<polygon fill="#000000" stroke="#000000" points="1745.4717,-292.9432 1748.9716,-302.9432 1752.4717,-292.9433 1745.4717,-292.9432"/>
</g>
<!-- CommonModule&#45;&gt;TsPaginationModule -->
<g id="edge45" class="edge">
<title>CommonModule&#45;&gt;TsPaginationModule</title>
<path fill="none" stroke="#000000" d="M1237.6662,-122.2537C1237.6662,-187.171 1237.6662,-403 1237.6662,-403 1237.6662,-403 1714.255,-403 1714.255,-403"/>
<polygon fill="#000000" stroke="#000000" points="1714.2551,-406.5001 1724.255,-403 1714.255,-399.5001 1714.2551,-406.5001"/>
</g>
<!-- CommonModule&#45;&gt;TsCopyModule -->
<g id="edge24" class="edge">
<title>CommonModule&#45;&gt;TsCopyModule</title>
<path fill="none" stroke="#000000" d="M1269.8152,-122.1985C1269.8152,-146.3563 1269.8152,-186 1269.8152,-186 1269.8152,-186 1474.045,-186 1474.045,-186"/>
<polygon fill="#000000" stroke="#000000" points="1474.045,-189.5001 1484.045,-186 1474.045,-182.5001 1474.045,-189.5001"/>
</g>
<!-- LaddaModule.forRoot(args) -->
<g id="node21" class="node">
<title>LaddaModule.forRoot(args)</title>
<polygon fill="#8dd3c7" stroke="#000000" points="1009.2211,-122 1006.2211,-126 985.2211,-126 982.2211,-122 834.7789,-122 834.7789,-86 1009.2211,-86 1009.2211,-122"/>
<text text-anchor="middle" x="922" y="-99.8" font-family="Times,serif" font-size="14.00" fill="#000000">LaddaModule.forRoot(args)</text>
</g>
<!-- LaddaModule.forRoot(args)&#45;&gt;TsButtonModule -->
<g id="edge20" class="edge">
<title>LaddaModule.forRoot(args)&#45;&gt;TsButtonModule</title>
<path fill="none" stroke="#000000" d="M977.3226,-122.0333C977.3226,-162.2965 977.3226,-256 977.3226,-256 977.3226,-256 1474.2501,-256 1474.2501,-256"/>
<polygon fill="#000000" stroke="#000000" points="1474.2501,-259.5001 1484.2501,-256 1474.25,-252.5001 1474.2501,-259.5001"/>
</g>
<!-- MdButtonModule -->
<g id="node22" class="node">
<title>MdButtonModule</title>
<polygon fill="#8dd3c7" stroke="#000000" points="1144.6123,-122 1141.6123,-126 1120.6123,-126 1117.6123,-122 1027.3877,-122 1027.3877,-86 1144.6123,-86 1144.6123,-122"/>
<text text-anchor="middle" x="1086" y="-99.8" font-family="Times,serif" font-size="14.00" fill="#000000">MdButtonModule</text>
</g>
<!-- MdButtonModule&#45;&gt;TsButtonModule -->
<g id="edge21" class="edge">
<title>MdButtonModule&#45;&gt;TsButtonModule</title>
<path fill="none" stroke="#000000" d="M1122.4945,-122.0712C1122.4945,-160.941 1122.4945,-249 1122.4945,-249 1122.4945,-249 1474.1266,-249 1474.1266,-249"/>
<polygon fill="#000000" stroke="#000000" points="1474.1266,-252.5001 1484.1266,-249 1474.1265,-245.5001 1474.1266,-252.5001"/>
</g>
<!-- MdIconModule -->
<g id="node23" class="node">
<title>MdIconModule</title>
<polygon fill="#8dd3c7" stroke="#000000" points="1395.8697,-122 1392.8697,-126 1371.8697,-126 1368.8697,-122 1292.1303,-122 1292.1303,-86 1395.8697,-86 1395.8697,-122"/>
<text text-anchor="middle" x="1344" y="-99.8" font-family="Times,serif" font-size="14.00" fill="#000000">MdIconModule</text>
</g>
<!-- MdIconModule&#45;&gt;TsButtonModule -->
<g id="edge22" class="edge">
<title>MdIconModule&#45;&gt;TsButtonModule</title>
<path fill="none" stroke="#000000" d="M1372.9664,-122.215C1372.9664,-158.2102 1372.9664,-235 1372.9664,-235 1372.9664,-235 1473.9156,-235 1473.9156,-235"/>
<polygon fill="#000000" stroke="#000000" points="1473.9156,-238.5001 1483.9156,-235 1473.9155,-231.5001 1473.9156,-238.5001"/>
</g>
<!-- MdIconModule&#45;&gt;TsInputModule -->
<g id="edge37" class="edge">
<title>MdIconModule&#45;&gt;TsInputModule</title>
<path fill="none" stroke="#000000" d="M1377.5601,-122.4904C1377.5601,-153.5885 1377.5601,-213 1377.5601,-213 1377.5601,-213 1772.9243,-213 1772.9243,-213 1772.9243,-213 1772.9243,-216.7566 1772.9243,-216.7566"/>
<polygon fill="#000000" stroke="#000000" points="1769.4243,-216.7566 1772.9243,-226.7566 1776.4243,-216.7566 1769.4243,-216.7566"/>
</g>
<!-- MdIconModule&#45;&gt;TsInputMessagesModule -->
<g id="edge32" class="edge">
<title>MdIconModule&#45;&gt;TsInputMessagesModule</title>
<path fill="none" stroke="#000000" d="M1382.1538,-122.1592C1382.1538,-127.0433 1382.1538,-131 1382.1538,-131 1382.1538,-131 1685.802,-131 1685.802,-131 1685.802,-131 1685.802,-151.7542 1685.802,-151.7542"/>
<polygon fill="#000000" stroke="#000000" points="1682.3021,-151.7542 1685.802,-161.7542 1689.3021,-151.7542 1682.3021,-151.7542"/>
</g>
<!-- MdIconModule&#45;&gt;TsMenuModule -->
<g id="edge42" class="edge">
<title>MdIconModule&#45;&gt;TsMenuModule</title>
<path fill="none" stroke="#000000" d="M1386.7474,-122.0078C1386.7474,-172.3696 1386.7474,-311 1386.7474,-311 1386.7474,-311 1473.6035,-311 1473.6035,-311"/>
<polygon fill="#000000" stroke="#000000" points="1473.6035,-314.5001 1483.6035,-311 1473.6035,-307.5001 1473.6035,-314.5001"/>
</g>
<!-- MdIconModule&#45;&gt;TsCopyModule -->
<g id="edge26" class="edge">
<title>MdIconModule&#45;&gt;TsCopyModule</title>
<path fill="none" stroke="#000000" d="M1391.3411,-122.0267C1391.3411,-142.7672 1391.3411,-174 1391.3411,-174 1391.3411,-174 1473.7748,-174 1473.7748,-174"/>
<polygon fill="#000000" stroke="#000000" points="1473.7749,-177.5001 1483.7748,-174 1473.7748,-170.5001 1473.7749,-177.5001"/>
</g>
<!-- FlexLayoutModule -->
<g id="node25" class="node">
<title>FlexLayoutModule</title>
<polygon fill="#8dd3c7" stroke="#000000" points="1874.0954,-122 1871.0954,-126 1850.0954,-126 1847.0954,-122 1749.9046,-122 1749.9046,-86 1874.0954,-86 1874.0954,-122"/>
<text text-anchor="middle" x="1812" y="-99.8" font-family="Times,serif" font-size="14.00" fill="#000000">FlexLayoutModule</text>
</g>
<!-- FlexLayoutModule&#45;&gt;TsCopyModule -->
<g id="edge25" class="edge">
<title>FlexLayoutModule&#45;&gt;TsCopyModule</title>
<path fill="none" stroke="#000000" d="M1752.7139,-122.4218C1752.7139,-131.2791 1752.7139,-140 1752.7139,-140 1752.7139,-140 1566.9631,-140 1566.9631,-140 1566.9631,-140 1566.9631,-151.8726 1566.9631,-151.8726"/>
<polygon fill="#000000" stroke="#000000" points="1563.4632,-151.8725 1566.9631,-161.8726 1570.4632,-151.8726 1563.4632,-151.8725"/>
</g>
<!-- MdRippleModule -->
<g id="node26" class="node">
<title>MdRippleModule</title>
<polygon fill="#8dd3c7" stroke="#000000" points="2008.3273,-122 2005.3273,-126 1984.3273,-126 1981.3273,-122 1891.6727,-122 1891.6727,-86 2008.3273,-86 2008.3273,-122"/>
<text text-anchor="middle" x="1950" y="-99.8" font-family="Times,serif" font-size="14.00" fill="#000000">MdRippleModule</text>
</g>
<!-- MdRippleModule&#45;&gt;TsCopyModule -->
<g id="edge27" class="edge">
<title>MdRippleModule&#45;&gt;TsCopyModule</title>
<path fill="none" stroke="#000000" d="M1902.4508,-122.1025C1902.4508,-133.0859 1902.4508,-145 1902.4508,-145 1902.4508,-145 1577.4524,-145 1577.4524,-145 1577.4524,-145 1577.4524,-151.68 1577.4524,-151.68"/>
<polygon fill="#000000" stroke="#000000" points="1573.9525,-151.6799 1577.4524,-161.68 1580.9525,-151.68 1573.9525,-151.6799"/>
</g>
<!-- FormsModule -->
<g id="node28" class="node">
<title>FormsModule</title>
<polygon fill="#8dd3c7" stroke="#000000" points="2475.8288,-122 2472.8288,-126 2451.8288,-126 2448.8288,-122 2380.1712,-122 2380.1712,-86 2475.8288,-86 2475.8288,-122"/>
<text text-anchor="middle" x="2428" y="-99.8" font-family="Times,serif" font-size="14.00" fill="#000000">FormsModule</text>
</g>
<!-- FormsModule&#45;&gt;TsInputModule -->
<g id="edge35" class="edge">
<title>FormsModule&#45;&gt;TsInputModule</title>
<path fill="none" stroke="#000000" d="M2391.0394,-122.2896C2391.0394,-152.3728 2391.0394,-209 2391.0394,-209 2391.0394,-209 1838.8319,-209 1838.8319,-209 1838.8319,-209 1838.8319,-216.5782 1838.8319,-216.5782"/>
<polygon fill="#000000" stroke="#000000" points="1835.332,-216.5781 1838.8319,-226.5782 1842.332,-216.5782 1835.332,-216.5781"/>
</g>
<!-- FormsModule&#45;&gt;TsInputMessagesModule -->
<g id="edge30" class="edge">
<title>FormsModule&#45;&gt;TsInputMessagesModule</title>
<path fill="none" stroke="#000000" d="M2383.0118,-122.2819C2383.0118,-137.9478 2383.0118,-158 2383.0118,-158 2383.0118,-158 1758.237,-158 1758.237,-158 1758.237,-158 1758.237,-158.3832 1758.237,-158.3832"/>
<polygon fill="#000000" stroke="#000000" points="1754.7373,-151.832 1758.237,-161.8321 1761.7373,-151.8322 1754.7373,-151.832"/>
</g>
<!-- FormsModule&#45;&gt;TsSelectModule -->
<g id="edge58" class="edge">
<title>FormsModule&#45;&gt;TsSelectModule</title>
<path fill="none" stroke="#000000" d="M2388.3635,-122.4331C2388.3635,-150.8213 2388.3635,-202 2388.3635,-202 2388.3635,-202 1679.9591,-202 1679.9591,-202 1679.9591,-202 1679.9591,-292.9265 1679.9591,-292.9265"/>
<polygon fill="#000000" stroke="#000000" points="1676.4592,-292.9264 1679.9591,-302.9265 1683.4592,-292.9265 1676.4592,-292.9264"/>
</g>
<!-- FormsModule&#45;&gt;TsToggleModule -->
<g id="edge62" class="edge">
<title>FormsModule&#45;&gt;TsToggleModule</title>
<path fill="none" stroke="#000000" d="M2385.6877,-122.0267C2385.6877,-142.7672 2385.6877,-174 2385.6877,-174 2385.6877,-174 1904.8056,-174 1904.8056,-174"/>
<polygon fill="#000000" stroke="#000000" points="1904.8056,-170.5001 1894.8056,-174 1904.8055,-177.5001 1904.8056,-170.5001"/>
</g>
<!-- FormsModule&#45;&gt;TsSearchModule -->
<g id="edge52" class="edge">
<title>FormsModule&#45;&gt;TsSearchModule</title>
<path fill="none" stroke="#000000" d="M2421.0316,-122.1485C2421.0316,-167.6555 2421.0316,-283 2421.0316,-283 2421.0316,-283 1818.695,-283 1818.695,-283 1818.695,-283 1818.695,-292.8903 1818.695,-292.8903"/>
<polygon fill="#000000" stroke="#000000" points="1815.1951,-292.8903 1818.695,-302.8903 1822.1951,-292.8904 1815.1951,-292.8903"/>
</g>
<!-- FormsModule&#45;&gt;TsPaginationModule -->
<g id="edge46" class="edge">
<title>FormsModule&#45;&gt;TsPaginationModule</title>
<path fill="none" stroke="#000000" d="M2448.3478,-122.3285C2448.3478,-186.4733 2448.3478,-397 2448.3478,-397 2448.3478,-397 1867.9528,-397 1867.9528,-397"/>
<polygon fill="#000000" stroke="#000000" points="1867.9528,-393.5001 1857.9528,-397 1867.9527,-400.5001 1867.9528,-393.5001"/>
</g>
<!-- MdInputModule -->
<g id="node29" class="node">
<title>MdInputModule</title>
<polygon fill="#8dd3c7" stroke="#000000" points="2362.0465,-122 2359.0465,-126 2338.0465,-126 2335.0465,-122 2253.9535,-122 2253.9535,-86 2362.0465,-86 2362.0465,-122"/>
<text text-anchor="middle" x="2308" y="-99.8" font-family="Times,serif" font-size="14.00" fill="#000000">MdInputModule</text>
</g>
<!-- MdInputModule&#45;&gt;TsInputModule -->
<g id="edge36" class="edge">
<title>MdInputModule&#45;&gt;TsInputModule</title>
<path fill="none" stroke="#000000" d="M2326.0909,-122.2356C2326.0909,-151.5744 2326.0909,-206 2326.0909,-206 2326.0909,-206 1810.1148,-206 1810.1148,-206 1810.1148,-206 1810.1148,-216.8701 1810.1148,-216.8701"/>
<polygon fill="#000000" stroke="#000000" points="1806.6149,-216.8701 1810.1148,-226.8701 1813.6149,-216.8701 1806.6149,-216.8701"/>
</g>
<!-- MdInputModule&#45;&gt;TsInputMessagesModule -->
<g id="edge31" class="edge">
<title>MdInputModule&#45;&gt;TsInputMessagesModule</title>
<path fill="none" stroke="#000000" d="M2289.9091,-122.0511C2289.9091,-136.373 2289.9091,-154 2289.9091,-154 2289.9091,-154 1755.4755,-154 1755.4755,-154 1755.4755,-154 1755.4755,-154.7942 1755.4755,-154.7942"/>
<polygon fill="#000000" stroke="#000000" points="1751.9756,-151.9421 1755.4755,-161.9421 1758.9756,-151.9422 1751.9756,-151.9421"/>
</g>
<!-- MdMenuModule -->
<g id="node32" class="node">
<title>MdMenuModule</title>
<polygon fill="#8dd3c7" stroke="#000000" points="291.6541,-415 288.6541,-419 267.6541,-419 264.6541,-415 180.3459,-415 180.3459,-379 291.6541,-379 291.6541,-415"/>
<text text-anchor="middle" x="236" y="-392.8" font-family="Times,serif" font-size="14.00" fill="#000000">MdMenuModule</text>
</g>
<!-- MdMenuModule&#45;&gt;TsMenuModule -->
<g id="edge41" class="edge">
<title>MdMenuModule&#45;&gt;TsMenuModule</title>
<path fill="none" stroke="#000000" d="M236,-378.8939C236,-359.6609 236,-332 236,-332 236,-332 1473.5738,-332 1473.5738,-332"/>
<polygon fill="#000000" stroke="#000000" points="1473.5738,-335.5001 1483.5738,-332 1473.5737,-328.5001 1473.5738,-335.5001"/>
</g>
<!-- MdSelectModule -->
<g id="node36" class="node">
<title>MdSelectModule</title>
<polygon fill="#8dd3c7" stroke="#000000" points="603.7022,-415 600.7022,-419 579.7022,-419 576.7022,-415 490.2978,-415 490.2978,-379 603.7022,-379 603.7022,-415"/>
<text text-anchor="middle" x="547" y="-392.8" font-family="Times,serif" font-size="14.00" fill="#000000">MdSelectModule</text>
</g>
<!-- MdSelectModule&#45;&gt;TsSelectModule -->
<g id="edge59" class="edge">
<title>MdSelectModule&#45;&gt;TsSelectModule</title>
<path fill="none" stroke="#000000" d="M547,-378.8903C547,-369.103 547,-359 547,-359 547,-359 1619.0341,-359 1619.0341,-359 1619.0341,-359 1619.0341,-349.1097 1619.0341,-349.1097"/>
<polygon fill="#000000" stroke="#000000" points="1622.5342,-349.1096 1619.0341,-339.1097 1615.5342,-349.1097 1622.5342,-349.1096"/>
</g>
<!-- MdSlideToggleModule -->
<g id="node38" class="node">
<title>MdSlideToggleModule</title>
<polygon fill="#8dd3c7" stroke="#000000" points="2393.9312,-263 2390.9312,-267 2369.9312,-267 2366.9312,-263 2246.0688,-263 2246.0688,-227 2393.9312,-227 2393.9312,-263"/>
<text text-anchor="middle" x="2320" y="-240.8" font-family="Times,serif" font-size="14.00" fill="#000000">MdSlideToggleModule</text>
</g>
<!-- MdSlideToggleModule&#45;&gt;TsToggleModule -->
<g id="edge63" class="edge">
<title>MdSlideToggleModule&#45;&gt;TsToggleModule</title>
<path fill="none" stroke="#000000" d="M2250.0059,-226.9775C2250.0059,-209.6266 2250.0059,-186 2250.0059,-186 2250.0059,-186 1904.8551,-186 1904.8551,-186"/>
<polygon fill="#000000" stroke="#000000" points="1904.8551,-182.5001 1894.8551,-186 1904.8551,-189.5001 1904.8551,-182.5001"/>
</g>
</g>
</svg>
