<?xml version="1.0" encoding="UTF-8" standalone="no"?>
<!DOCTYPE svg PUBLIC "-//W3C//DTD SVG 1.1//EN"
 "http://www.w3.org/Graphics/SVG/1.1/DTD/svg11.dtd">
<!-- Generated by graphviz version 2.40.1 (20161225.0304)
 -->
<!-- Title: dependencies Pages: 1 -->
<svg width="524pt" height="349pt"
 viewBox="0.00 0.00 524.00 349.00" xmlns="http://www.w3.org/2000/svg" xmlns:xlink="http://www.w3.org/1999/xlink">
<g id="graph0" class="graph" transform="scale(1 1) rotate(0) translate(4 345)">
<title>dependencies</title>
<polygon fill="#ffffff" stroke="transparent" points="-4,4 -4,-345 520,-345 520,4 -4,4"/>
<text text-anchor="start" x="237.0091" y="-42.4" font-family="sans-serif" font-weight="bold" font-size="14.00" fill="#000000">Legend</text>
<polygon fill="#ffffb3" stroke="transparent" points="24,-10 24,-30 44,-30 44,-10 24,-10"/>
<text text-anchor="start" x="47.629" y="-15.4" font-family="sans-serif" font-size="14.00" fill="#000000"> &#160;Declarations</text>
<polygon fill="#8dd3c7" stroke="transparent" points="137,-10 137,-30 157,-30 157,-10 137,-10"/>
<text text-anchor="start" x="160.7251" y="-15.4" font-family="sans-serif" font-size="14.00" fill="#000000"> &#160;Module</text>
<polygon fill="#80b1d3" stroke="transparent" points="223,-10 223,-30 243,-30 243,-10 223,-10"/>
<text text-anchor="start" x="246.7812" y="-15.4" font-family="sans-serif" font-size="14.00" fill="#000000"> &#160;Bootstrap</text>
<polygon fill="#fdb462" stroke="transparent" points="320,-10 320,-30 340,-30 340,-10 320,-10"/>
<text text-anchor="start" x="343.6732" y="-15.4" font-family="sans-serif" font-size="14.00" fill="#000000"> &#160;Providers</text>
<polygon fill="#fb8072" stroke="transparent" points="416,-10 416,-30 436,-30 436,-10 416,-10"/>
<text text-anchor="start" x="439.7258" y="-15.4" font-family="sans-serif" font-size="14.00" fill="#000000"> &#160;Exports</text>
<g id="clust1" class="cluster">
<title>cluster_TsSelectModule</title>
<polygon fill="none" stroke="#000000" stroke-dasharray="1,5" points="8,-70 8,-333 508,-333 508,-70 8,-70"/>
</g>
<g id="clust2" class="cluster">
<title>cluster_TsSelectModule_declarations</title>
<polygon fill="none" stroke="#000000" points="185,-143 185,-195 331,-195 331,-143 185,-143"/>
</g>
<g id="clust3" class="cluster">
<title>cluster_TsSelectModule_TsSelectComponent_providers</title>
<polygon fill="none" stroke="#000000" points="16,-78 16,-130 500,-130 500,-78 16,-78"/>
</g>
<g id="clust5" class="cluster">
<title>cluster_TsSelectModule_exports</title>
<polygon fill="none" stroke="#000000" points="183,-273 183,-325 333,-325 333,-273 183,-273"/>
</g>
<!-- TsSelectComponent -->
<g id="node1" class="node">
<title>TsSelectComponent</title>
<polygon fill="#ffffb3" stroke="#000000" points="322.538,-187 193.462,-187 193.462,-151 322.538,-151 322.538,-187"/>
<text text-anchor="middle" x="258" y="-164.8" font-family="Times,serif" font-size="14.00" fill="#000000">TsSelectComponent</text>
</g>
<!-- TsSelectModule -->
<g id="node2" class="node">
<title>TsSelectModule</title>
<polygon fill="#8dd3c7" stroke="#000000" points="311.7549,-252 308.7549,-256 287.7549,-256 284.7549,-252 204.2451,-252 204.2451,-216 311.7549,-216 311.7549,-252"/>
<text text-anchor="middle" x="258" y="-229.8" font-family="Times,serif" font-size="14.00" fill="#000000">TsSelectModule</text>
</g>
<!-- TsSelectComponent&#45;&gt;TsSelectModule -->
<g id="edge1" class="edge">
<title>TsSelectComponent&#45;&gt;TsSelectModule</title>
<path fill="none" stroke="#000000" d="M258,-187.1061C258,-187.1061 258,-205.991 258,-205.991"/>
<polygon fill="#000000" stroke="#000000" points="254.5001,-205.9909 258,-215.991 261.5001,-205.991 254.5001,-205.9909"/>
</g>
<!-- TsSelectComponent  -->
<g id="node4" class="node">
<title>TsSelectComponent </title>
<polygon fill="#fb8072" stroke="#000000" points="324.5372,-317 191.4628,-317 191.4628,-281 324.5372,-281 324.5372,-317"/>
<text text-anchor="middle" x="258" y="-294.8" font-family="Times,serif" font-size="14.00" fill="#000000">TsSelectComponent </text>
</g>
<!-- TsSelectModule&#45;&gt;TsSelectComponent  -->
<g id="edge3" class="edge">
<title>TsSelectModule&#45;&gt;TsSelectComponent </title>
<path fill="none" stroke="#000000" stroke-dasharray="5,2" d="M258,-252.1061C258,-252.1061 258,-270.991 258,-270.991"/>
<polygon fill="#000000" stroke="#000000" points="254.5001,-270.9909 258,-280.991 261.5001,-270.991 254.5001,-270.9909"/>
</g>
<!-- CUSTOM_SELECT_CONTROL_VALUE_ACCESSOR -->
<g id="node3" class="node">
<title>CUSTOM_SELECT_CONTROL_VALUE_ACCESSOR</title>
<ellipse fill="#fdb462" stroke="#000000" cx="258" cy="-104" rx="234.394" ry="18"/>
<text text-anchor="middle" x="258" y="-99.8" font-family="Times,serif" font-size="14.00" fill="#000000">CUSTOM_SELECT_CONTROL_VALUE_ACCESSOR</text>
</g>
<!-- CUSTOM_SELECT_CONTROL_VALUE_ACCESSOR&#45;&gt;TsSelectComponent -->
<g id="edge2" class="edge">
<title>CUSTOM_SELECT_CONTROL_VALUE_ACCESSOR&#45;&gt;TsSelectComponent</title>
<path fill="none" stroke="#000000" d="M258,-122.1061C258,-122.1061 258,-140.991 258,-140.991"/>
<polygon fill="#000000" stroke="#000000" points="254.5001,-140.9909 258,-150.991 261.5001,-140.991 254.5001,-140.9909"/>
</g>
</g>
</svg>
