<?xml version="1.0" encoding="UTF-8" standalone="no"?>
<!DOCTYPE svg PUBLIC "-//W3C//DTD SVG 1.1//EN"
 "http://www.w3.org/Graphics/SVG/1.1/DTD/svg11.dtd">
<!-- Generated by graphviz version 2.40.1 (20161225.0304)
 -->
<!-- Title: dependencies Pages: 1 -->
<svg width="1201pt" height="284pt"
 viewBox="0.00 0.00 1201.00 284.00" xmlns="http://www.w3.org/2000/svg" xmlns:xlink="http://www.w3.org/1999/xlink">
<g id="graph0" class="graph" transform="scale(1 1) rotate(0) translate(4 280)">
<title>dependencies</title>
<polygon fill="#ffffff" stroke="transparent" points="-4,4 -4,-280 1197,-280 1197,4 -4,4"/>
<text text-anchor="start" x="575.5091" y="-42.4" font-family="sans-serif" font-weight="bold" font-size="14.00" fill="#000000">Legend</text>
<polygon fill="#ffffb3" stroke="transparent" points="362.5,-10 362.5,-30 382.5,-30 382.5,-10 362.5,-10"/>
<text text-anchor="start" x="386.129" y="-15.4" font-family="sans-serif" font-size="14.00" fill="#000000"> &#160;Declarations</text>
<polygon fill="#8dd3c7" stroke="transparent" points="475.5,-10 475.5,-30 495.5,-30 495.5,-10 475.5,-10"/>
<text text-anchor="start" x="499.2251" y="-15.4" font-family="sans-serif" font-size="14.00" fill="#000000"> &#160;Module</text>
<polygon fill="#80b1d3" stroke="transparent" points="561.5,-10 561.5,-30 581.5,-30 581.5,-10 561.5,-10"/>
<text text-anchor="start" x="585.2812" y="-15.4" font-family="sans-serif" font-size="14.00" fill="#000000"> &#160;Bootstrap</text>
<polygon fill="#fdb462" stroke="transparent" points="658.5,-10 658.5,-30 678.5,-30 678.5,-10 658.5,-10"/>
<text text-anchor="start" x="682.1732" y="-15.4" font-family="sans-serif" font-size="14.00" fill="#000000"> &#160;Providers</text>
<polygon fill="#fb8072" stroke="transparent" points="754.5,-10 754.5,-30 774.5,-30 774.5,-10 754.5,-10"/>
<text text-anchor="start" x="778.2258" y="-15.4" font-family="sans-serif" font-size="14.00" fill="#000000"> &#160;Exports</text>
<g id="clust1" class="cluster">
<title>cluster_TsFileUploadModule</title>
<polygon fill="none" stroke="#000000" stroke-dasharray="1,5" points="8,-70 8,-268 1185,-268 1185,-70 8,-70"/>
</g>
<g id="clust2" class="cluster">
<title>cluster_TsFileUploadModule_declarations</title>
<polygon fill="none" stroke="#000000" points="1003,-78 1003,-130 1177,-130 1177,-78 1003,-78"/>
</g>
<g id="clust4" class="cluster">
<title>cluster_TsFileUploadModule_imports</title>
<polygon fill="none" stroke="#000000" points="258,-78 258,-130 995,-130 995,-78 258,-78"/>
</g>
<g id="clust5" class="cluster">
<title>cluster_TsFileUploadModule_exports</title>
<polygon fill="none" stroke="#000000" points="565,-208 565,-260 743,-260 743,-208 565,-208"/>
</g>
<g id="clust7" class="cluster">
<title>cluster_TsFileUploadModule_providers</title>
<polygon fill="none" stroke="#000000" points="16,-78 16,-130 250,-130 250,-78 16,-78"/>
</g>
<!-- TsFileUploadComponent -->
<g id="node1" class="node">
<title>TsFileUploadComponent</title>
<polygon fill="#ffffb3" stroke="#000000" points="1169.3201,-122 1010.6799,-122 1010.6799,-86 1169.3201,-86 1169.3201,-122"/>
<text text-anchor="middle" x="1090" y="-99.8" font-family="Times,serif" font-size="14.00" fill="#000000">TsFileUploadComponent</text>
</g>
<!-- TsFileUploadModule -->
<g id="node2" class="node">
<title>TsFileUploadModule</title>
<polygon fill="#8dd3c7" stroke="#000000" points="722.038,-187 719.038,-191 698.038,-191 695.038,-187 585.962,-187 585.962,-151 722.038,-151 722.038,-187"/>
<text text-anchor="middle" x="654" y="-164.8" font-family="Times,serif" font-size="14.00" fill="#000000">TsFileUploadModule</text>
</g>
<!-- TsFileUploadComponent&#45;&gt;TsFileUploadModule -->
<g id="edge1" class="edge">
<title>TsFileUploadComponent&#45;&gt;TsFileUploadModule</title>
<path fill="none" stroke="#000000" d="M1090,-122.2921C1090,-144.2057 1090,-178 1090,-178 1090,-178 732.125,-178 732.125,-178"/>
<polygon fill="#000000" stroke="#000000" points="732.125,-174.5001 722.125,-178 732.125,-181.5001 732.125,-174.5001"/>
</g>
<!-- TsFileUploadComponent  -->
<g id="node8" class="node">
<title>TsFileUploadComponent </title>
<polygon fill="#fb8072" stroke="#000000" points="734.8199,-252 573.1801,-252 573.1801,-216 734.8199,-216 734.8199,-252"/>
<text text-anchor="middle" x="654" y="-229.8" font-family="Times,serif" font-size="14.00" fill="#000000">TsFileUploadComponent </text>
</g>
<!-- TsFileUploadModule&#45;&gt;TsFileUploadComponent  -->
<g id="edge7" class="edge">
<title>TsFileUploadModule&#45;&gt;TsFileUploadComponent </title>
<path fill="none" stroke="#000000" stroke-dasharray="5,2" d="M654,-187.1061C654,-187.1061 654,-205.991 654,-205.991"/>
<polygon fill="#000000" stroke="#000000" points="650.5001,-205.9909 654,-215.991 657.5001,-205.991 650.5001,-205.9909"/>
</g>
<!-- TsButtonModule -->
<g id="node3" class="node">
<title>TsButtonModule</title>
<polygon fill="#8dd3c7" stroke="#000000" points="986.6653,-122 983.6653,-126 962.6653,-126 959.6653,-122 875.3347,-122 875.3347,-86 986.6653,-86 986.6653,-122"/>
<text text-anchor="middle" x="931" y="-99.8" font-family="Times,serif" font-size="14.00" fill="#000000">TsButtonModule</text>
</g>
<!-- TsButtonModule&#45;&gt;TsFileUploadModule -->
<g id="edge2" class="edge">
<title>TsButtonModule&#45;&gt;TsFileUploadModule</title>
<path fill="none" stroke="#000000" d="M931,-122.1061C931,-141.3391 931,-169 931,-169 931,-169 732.1166,-169 732.1166,-169"/>
<polygon fill="#000000" stroke="#000000" points="732.1166,-165.5001 722.1166,-169 732.1166,-172.5001 732.1166,-165.5001"/>
</g>
<!-- TsIconButtonModule -->
<g id="node4" class="node">
<title>TsIconButtonModule</title>
<polygon fill="#8dd3c7" stroke="#000000" points="857.0408,-122 854.0408,-126 833.0408,-126 830.0408,-122 720.9592,-122 720.9592,-86 857.0408,-86 857.0408,-122"/>
<text text-anchor="middle" x="789" y="-99.8" font-family="Times,serif" font-size="14.00" fill="#000000">TsIconButtonModule</text>
</g>
<!-- TsIconButtonModule&#45;&gt;TsFileUploadModule -->
<g id="edge3" class="edge">
<title>TsIconButtonModule&#45;&gt;TsFileUploadModule</title>
<path fill="none" stroke="#000000" d="M728.5893,-122.027C728.5893,-138.3976 728.5893,-160 728.5893,-160 728.5893,-160 727.9533,-160 727.9533,-160"/>
<polygon fill="#000000" stroke="#000000" points="732.2299,-156.5002 722.2298,-160 732.2298,-163.5002 732.2299,-156.5002"/>
</g>
<!-- TsIconModule -->
<g id="node5" class="node">
<title>TsIconModule</title>
<polygon fill="#8dd3c7" stroke="#000000" points="703.4231,-122 700.4231,-126 679.4231,-126 676.4231,-122 604.5769,-122 604.5769,-86 703.4231,-86 703.4231,-122"/>
<text text-anchor="middle" x="654" y="-99.8" font-family="Times,serif" font-size="14.00" fill="#000000">TsIconModule</text>
</g>
<!-- TsIconModule&#45;&gt;TsFileUploadModule -->
<g id="edge4" class="edge">
<title>TsIconModule&#45;&gt;TsFileUploadModule</title>
<path fill="none" stroke="#000000" d="M654,-122.1061C654,-122.1061 654,-140.991 654,-140.991"/>
<polygon fill="#000000" stroke="#000000" points="650.5001,-140.9909 654,-150.991 657.5001,-140.991 650.5001,-140.9909"/>
</g>
<!-- TsTooltipModule -->
<g id="node6" class="node">
<title>TsTooltipModule</title>
<polygon fill="#8dd3c7" stroke="#000000" points="586.2716,-122 583.2716,-126 562.2716,-126 559.2716,-122 471.7284,-122 471.7284,-86 586.2716,-86 586.2716,-122"/>
<text text-anchor="middle" x="529" y="-99.8" font-family="Times,serif" font-size="14.00" fill="#000000">TsTooltipModule</text>
</g>
<!-- TsTooltipModule&#45;&gt;TsFileUploadModule -->
<g id="edge5" class="edge">
<title>TsTooltipModule&#45;&gt;TsFileUploadModule</title>
<path fill="none" stroke="#000000" d="M579.4108,-122.2921C579.4108,-144.2057 579.4108,-178 579.4108,-178 579.4108,-178 580.0467,-178 580.0467,-178"/>
<polygon fill="#000000" stroke="#000000" points="575.7702,-181.5002 585.7702,-178 575.7701,-174.5002 575.7702,-181.5002"/>
</g>
<!-- TsValidationMessagesModule -->
<g id="node7" class="node">
<title>TsValidationMessagesModule</title>
<polygon fill="#8dd3c7" stroke="#000000" points="453.5674,-122 450.5674,-126 429.5674,-126 426.5674,-122 266.4326,-122 266.4326,-86 453.5674,-86 453.5674,-122"/>
<text text-anchor="middle" x="360" y="-99.8" font-family="Times,serif" font-size="14.00" fill="#000000">TsValidationMessagesModule</text>
</g>
<!-- TsValidationMessagesModule&#45;&gt;TsFileUploadModule -->
<g id="edge6" class="edge">
<title>TsValidationMessagesModule&#45;&gt;TsFileUploadModule</title>
<path fill="none" stroke="#000000" d="M360,-122.027C360,-138.3976 360,-160 360,-160 360,-160 575.8115,-160 575.8115,-160"/>
<polygon fill="#000000" stroke="#000000" points="575.8116,-163.5001 585.8115,-160 575.8115,-156.5001 575.8116,-163.5001"/>
</g>
<!-- TsDropProtectionService -->
<g id="node9" class="node">
<title>TsDropProtectionService</title>
<ellipse fill="#fdb462" stroke="#000000" cx="133" cy="-104" rx="109.3662" ry="18"/>
<text text-anchor="middle" x="133" y="-99.8" font-family="Times,serif" font-size="14.00" fill="#000000">TsDropProtectionService</text>
</g>
<!-- TsDropProtectionService&#45;&gt;TsFileUploadModule -->
<g id="edge8" class="edge">
<title>TsDropProtectionService&#45;&gt;TsFileUploadModule</title>
<path fill="none" stroke="#000000" d="M133,-122.1061C133,-141.3391 133,-169 133,-169 133,-169 575.8883,-169 575.8883,-169"/>
<polygon fill="#000000" stroke="#000000" points="575.8884,-172.5001 585.8883,-169 575.8883,-165.5001 575.8884,-172.5001"/>
</g>
</g>
</svg>
