<?xml version="1.0" encoding="UTF-8" standalone="no"?>
<!DOCTYPE svg PUBLIC "-//W3C//DTD SVG 1.1//EN"
 "http://www.w3.org/Graphics/SVG/1.1/DTD/svg11.dtd">
<!-- Generated by graphviz version 2.40.1 (20161225.0304)
 -->
<!-- Title: dependencies Pages: 1 -->
<svg width="1201pt" height="349pt"
 viewBox="0.00 0.00 1201.00 349.00" xmlns="http://www.w3.org/2000/svg" xmlns:xlink="http://www.w3.org/1999/xlink">
<g id="graph0" class="graph" transform="scale(1 1) rotate(0) translate(4 345)">
<title>dependencies</title>
<polygon fill="#ffffff" stroke="transparent" points="-4,4 -4,-345 1197,-345 1197,4 -4,4"/>
<text text-anchor="start" x="575.5091" y="-42.4" font-family="sans-serif" font-weight="bold" font-size="14.00" fill="#000000">Legend</text>
<polygon fill="#ffffb3" stroke="transparent" points="362.5,-10 362.5,-30 382.5,-30 382.5,-10 362.5,-10"/>
<text text-anchor="start" x="386.129" y="-15.4" font-family="sans-serif" font-size="14.00" fill="#000000"> &#160;Declarations</text>
<polygon fill="#8dd3c7" stroke="transparent" points="475.5,-10 475.5,-30 495.5,-30 495.5,-10 475.5,-10"/>
<text text-anchor="start" x="499.2251" y="-15.4" font-family="sans-serif" font-size="14.00" fill="#000000"> &#160;Module</text>
<polygon fill="#80b1d3" stroke="transparent" points="561.5,-10 561.5,-30 581.5,-30 581.5,-10 561.5,-10"/>
<text text-anchor="start" x="585.2812" y="-15.4" font-family="sans-serif" font-size="14.00" fill="#000000"> &#160;Bootstrap</text>
<polygon fill="#fdb462" stroke="transparent" points="658.5,-10 658.5,-30 678.5,-30 678.5,-10 658.5,-10"/>
<text text-anchor="start" x="682.1732" y="-15.4" font-family="sans-serif" font-size="14.00" fill="#000000"> &#160;Providers</text>
<polygon fill="#fb8072" stroke="transparent" points="754.5,-10 754.5,-30 774.5,-30 774.5,-10 754.5,-10"/>
<text text-anchor="start" x="778.2258" y="-15.4" font-family="sans-serif" font-size="14.00" fill="#000000"> &#160;Exports</text>
<g id="clust1" class="cluster">
<title>cluster_TsFileUploadModule</title>
<polygon fill="none" stroke="#000000" stroke-dasharray="1,5" points="8,-70 8,-333 1185,-333 1185,-70 8,-70"/>
</g>
<g id="clust2" class="cluster">
<title>cluster_TsFileUploadModule_declarations</title>
<polygon fill="none" stroke="#000000" points="1003,-143 1003,-195 1177,-195 1177,-143 1003,-143"/>
</g>
<g id="clust3" class="cluster">
<title>cluster_TsFileUploadModule_TsFileUploadComponent_providers</title>
<polygon fill="none" stroke="#000000" points="569,-78 569,-130 1177,-130 1177,-78 569,-78"/>
</g>
<g id="clust4" class="cluster">
<title>cluster_TsFileUploadModule_imports</title>
<polygon fill="none" stroke="#000000" points="258,-143 258,-195 995,-195 995,-143 258,-143"/>
</g>
<g id="clust5" class="cluster">
<title>cluster_TsFileUploadModule_exports</title>
<polygon fill="none" stroke="#000000" points="565,-273 565,-325 743,-325 743,-273 565,-273"/>
</g>
<g id="clust7" class="cluster">
<title>cluster_TsFileUploadModule_providers</title>
<polygon fill="none" stroke="#000000" points="16,-143 16,-195 250,-195 250,-143 16,-143"/>
</g>
<!-- TsFileUploadComponent -->
<g id="node1" class="node">
<title>TsFileUploadComponent</title>
<polygon fill="#ffffb3" stroke="#000000" points="1169.3201,-187 1010.6799,-187 1010.6799,-151 1169.3201,-151 1169.3201,-187"/>
<text text-anchor="middle" x="1090" y="-164.8" font-family="Times,serif" font-size="14.00" fill="#000000">TsFileUploadComponent</text>
</g>
<!-- TsFileUploadModule -->
<g id="node2" class="node">
<title>TsFileUploadModule</title>
<polygon fill="#8dd3c7" stroke="#000000" points="722.038,-252 719.038,-256 698.038,-256 695.038,-252 585.962,-252 585.962,-216 722.038,-216 722.038,-252"/>
<text text-anchor="middle" x="654" y="-229.8" font-family="Times,serif" font-size="14.00" fill="#000000">TsFileUploadModule</text>
</g>
<!-- TsFileUploadComponent&#45;&gt;TsFileUploadModule -->
<g id="edge1" class="edge">
<title>TsFileUploadComponent&#45;&gt;TsFileUploadModule</title>
<path fill="none" stroke="#000000" d="M1090,-187.2921C1090,-209.2057 1090,-243 1090,-243 1090,-243 732.125,-243 732.125,-243"/>
<polygon fill="#000000" stroke="#000000" points="732.125,-239.5001 722.125,-243 732.125,-246.5001 732.125,-239.5001"/>
</g>
<!-- TsFileUploadComponent  -->
<g id="node9" class="node">
<title>TsFileUploadComponent </title>
<polygon fill="#fb8072" stroke="#000000" points="734.8199,-317 573.1801,-317 573.1801,-281 734.8199,-281 734.8199,-317"/>
<text text-anchor="middle" x="654" y="-294.8" font-family="Times,serif" font-size="14.00" fill="#000000">TsFileUploadComponent </text>
</g>
<!-- TsFileUploadModule&#45;&gt;TsFileUploadComponent  -->
<g id="edge8" class="edge">
<title>TsFileUploadModule&#45;&gt;TsFileUploadComponent </title>
<path fill="none" stroke="#000000" stroke-dasharray="5,2" d="M654,-252.1061C654,-252.1061 654,-270.991 654,-270.991"/>
<polygon fill="#000000" stroke="#000000" points="650.5001,-270.9909 654,-280.991 657.5001,-270.991 650.5001,-270.9909"/>
</g>
<!-- CUSTOM_FILE_UPLOAD_INPUT_CONTROL_VALUE_ACCESSOR -->
<g id="node3" class="node">
<title>CUSTOM_FILE_UPLOAD_INPUT_CONTROL_VALUE_ACCESSOR</title>
<ellipse fill="#fdb462" stroke="#000000" cx="873" cy="-104" rx="296.3159" ry="18"/>
<text text-anchor="middle" x="873" y="-99.8" font-family="Times,serif" font-size="14.00" fill="#000000">CUSTOM_FILE_UPLOAD_INPUT_CONTROL_VALUE_ACCESSOR</text>
</g>
<!-- CUSTOM_FILE_UPLOAD_INPUT_CONTROL_VALUE_ACCESSOR&#45;&gt;TsFileUploadComponent -->
<g id="edge2" class="edge">
<title>CUSTOM_FILE_UPLOAD_INPUT_CONTROL_VALUE_ACCESSOR&#45;&gt;TsFileUploadComponent</title>
<path fill="none" stroke="#000000" d="M1090,-116.5327C1090,-116.5327 1090,-140.8507 1090,-140.8507"/>
<polygon fill="#000000" stroke="#000000" points="1086.5001,-140.8506 1090,-150.8507 1093.5001,-140.8507 1086.5001,-140.8506"/>
</g>
<!-- TsButtonModule -->
<g id="node4" class="node">
<title>TsButtonModule</title>
<polygon fill="#8dd3c7" stroke="#000000" points="986.6653,-187 983.6653,-191 962.6653,-191 959.6653,-187 875.3347,-187 875.3347,-151 986.6653,-151 986.6653,-187"/>
<text text-anchor="middle" x="931" y="-164.8" font-family="Times,serif" font-size="14.00" fill="#000000">TsButtonModule</text>
</g>
<!-- TsButtonModule&#45;&gt;TsFileUploadModule -->
<g id="edge3" class="edge">
<title>TsButtonModule&#45;&gt;TsFileUploadModule</title>
<path fill="none" stroke="#000000" d="M931,-187.1061C931,-206.3391 931,-234 931,-234 931,-234 732.1166,-234 732.1166,-234"/>
<polygon fill="#000000" stroke="#000000" points="732.1166,-230.5001 722.1166,-234 732.1166,-237.5001 732.1166,-230.5001"/>
</g>
<!-- TsIconButtonModule -->
<g id="node5" class="node">
<title>TsIconButtonModule</title>
<polygon fill="#8dd3c7" stroke="#000000" points="857.0408,-187 854.0408,-191 833.0408,-191 830.0408,-187 720.9592,-187 720.9592,-151 857.0408,-151 857.0408,-187"/>
<text text-anchor="middle" x="789" y="-164.8" font-family="Times,serif" font-size="14.00" fill="#000000">TsIconButtonModule</text>
</g>
<!-- TsIconButtonModule&#45;&gt;TsFileUploadModule -->
<g id="edge4" class="edge">
<title>TsIconButtonModule&#45;&gt;TsFileUploadModule</title>
<path fill="none" stroke="#000000" d="M728.5893,-187.027C728.5893,-203.3976 728.5893,-225 728.5893,-225 728.5893,-225 727.9533,-225 727.9533,-225"/>
<polygon fill="#000000" stroke="#000000" points="732.2299,-221.5002 722.2298,-225 732.2298,-228.5002 732.2299,-221.5002"/>
</g>
<!-- TsIconModule -->
<g id="node6" class="node">
<title>TsIconModule</title>
<polygon fill="#8dd3c7" stroke="#000000" points="703.4231,-187 700.4231,-191 679.4231,-191 676.4231,-187 604.5769,-187 604.5769,-151 703.4231,-151 703.4231,-187"/>
<text text-anchor="middle" x="654" y="-164.8" font-family="Times,serif" font-size="14.00" fill="#000000">TsIconModule</text>
</g>
<!-- TsIconModule&#45;&gt;TsFileUploadModule -->
<g id="edge5" class="edge">
<title>TsIconModule&#45;&gt;TsFileUploadModule</title>
<path fill="none" stroke="#000000" d="M654,-187.1061C654,-187.1061 654,-205.991 654,-205.991"/>
<polygon fill="#000000" stroke="#000000" points="650.5001,-205.9909 654,-215.991 657.5001,-205.991 650.5001,-205.9909"/>
</g>
<!-- TsTooltipModule -->
<g id="node7" class="node">
<title>TsTooltipModule</title>
<polygon fill="#8dd3c7" stroke="#000000" points="586.2716,-187 583.2716,-191 562.2716,-191 559.2716,-187 471.7284,-187 471.7284,-151 586.2716,-151 586.2716,-187"/>
<text text-anchor="middle" x="529" y="-164.8" font-family="Times,serif" font-size="14.00" fill="#000000">TsTooltipModule</text>
</g>
<!-- TsTooltipModule&#45;&gt;TsFileUploadModule -->
<g id="edge6" class="edge">
<title>TsTooltipModule&#45;&gt;TsFileUploadModule</title>
<path fill="none" stroke="#000000" d="M579.4108,-187.2921C579.4108,-209.2057 579.4108,-243 579.4108,-243 579.4108,-243 580.0467,-243 580.0467,-243"/>
<polygon fill="#000000" stroke="#000000" points="575.7702,-246.5002 585.7702,-243 575.7701,-239.5002 575.7702,-246.5002"/>
</g>
<!-- TsValidationMessagesModule -->
<g id="node8" class="node">
<title>TsValidationMessagesModule</title>
<polygon fill="#8dd3c7" stroke="#000000" points="453.5674,-187 450.5674,-191 429.5674,-191 426.5674,-187 266.4326,-187 266.4326,-151 453.5674,-151 453.5674,-187"/>
<text text-anchor="middle" x="360" y="-164.8" font-family="Times,serif" font-size="14.00" fill="#000000">TsValidationMessagesModule</text>
</g>
<!-- TsValidationMessagesModule&#45;&gt;TsFileUploadModule -->
<g id="edge7" class="edge">
<title>TsValidationMessagesModule&#45;&gt;TsFileUploadModule</title>
<path fill="none" stroke="#000000" d="M360,-187.027C360,-203.3976 360,-225 360,-225 360,-225 575.8115,-225 575.8115,-225"/>
<polygon fill="#000000" stroke="#000000" points="575.8116,-228.5001 585.8115,-225 575.8115,-221.5001 575.8116,-228.5001"/>
</g>
<!-- TsDropProtectionService -->
<g id="node10" class="node">
<title>TsDropProtectionService</title>
<ellipse fill="#fdb462" stroke="#000000" cx="133" cy="-169" rx="109.3662" ry="18"/>
<text text-anchor="middle" x="133" y="-164.8" font-family="Times,serif" font-size="14.00" fill="#000000">TsDropProtectionService</text>
</g>
<!-- TsDropProtectionService&#45;&gt;TsFileUploadModule -->
<g id="edge9" class="edge">
<title>TsDropProtectionService&#45;&gt;TsFileUploadModule</title>
<path fill="none" stroke="#000000" d="M133,-187.1061C133,-206.3391 133,-234 133,-234 133,-234 575.8883,-234 575.8883,-234"/>
<polygon fill="#000000" stroke="#000000" points="575.8884,-237.5001 585.8883,-234 575.8883,-230.5001 575.8884,-237.5001"/>
</g>
</g>
</svg>
