<?xml version="1.0" encoding="UTF-8" standalone="no"?>
<!DOCTYPE svg PUBLIC "-//W3C//DTD SVG 1.1//EN"
 "http://www.w3.org/Graphics/SVG/1.1/DTD/svg11.dtd">
<!-- Generated by graphviz version 2.40.1 (20161225.0304)
 -->
<!-- Title: dependencies Pages: 1 -->
<svg width="722pt" height="349pt"
 viewBox="0.00 0.00 722.00 349.00" xmlns="http://www.w3.org/2000/svg" xmlns:xlink="http://www.w3.org/1999/xlink">
<g id="graph0" class="graph" transform="scale(1 1) rotate(0) translate(4 345)">
<title>dependencies</title>
<polygon fill="#ffffff" stroke="transparent" points="-4,4 -4,-345 718,-345 718,4 -4,4"/>
<text text-anchor="start" x="336.0091" y="-42.4" font-family="sans-serif" font-weight="bold" font-size="14.00" fill="#000000">Legend</text>
<polygon fill="#ffffb3" stroke="transparent" points="123,-10 123,-30 143,-30 143,-10 123,-10"/>
<text text-anchor="start" x="146.629" y="-15.4" font-family="sans-serif" font-size="14.00" fill="#000000"> &#160;Declarations</text>
<polygon fill="#8dd3c7" stroke="transparent" points="236,-10 236,-30 256,-30 256,-10 236,-10"/>
<text text-anchor="start" x="259.7251" y="-15.4" font-family="sans-serif" font-size="14.00" fill="#000000"> &#160;Module</text>
<polygon fill="#80b1d3" stroke="transparent" points="322,-10 322,-30 342,-30 342,-10 322,-10"/>
<text text-anchor="start" x="345.7812" y="-15.4" font-family="sans-serif" font-size="14.00" fill="#000000"> &#160;Bootstrap</text>
<polygon fill="#fdb462" stroke="transparent" points="419,-10 419,-30 439,-30 439,-10 419,-10"/>
<text text-anchor="start" x="442.6732" y="-15.4" font-family="sans-serif" font-size="14.00" fill="#000000"> &#160;Providers</text>
<polygon fill="#fb8072" stroke="transparent" points="515,-10 515,-30 535,-30 535,-10 515,-10"/>
<text text-anchor="start" x="538.7258" y="-15.4" font-family="sans-serif" font-size="14.00" fill="#000000"> &#160;Exports</text>
<g id="clust1" class="cluster">
<title>cluster_TsToggleModule</title>
<polygon fill="none" stroke="#000000" stroke-dasharray="1,5" points="8,-70 8,-333 706,-333 706,-70 8,-70"/>
</g>
<g id="clust2" class="cluster">
<title>cluster_TsToggleModule_declarations</title>
<polygon fill="none" stroke="#000000" points="430,-143 430,-195 580,-195 580,-143 430,-143"/>
</g>
<g id="clust3" class="cluster">
<title>cluster_TsToggleModule_TsToggleComponent_providers</title>
<polygon fill="none" stroke="#000000" points="16,-78 16,-130 698,-130 698,-78 16,-78"/>
</g>
<g id="clust4" class="cluster">
<title>cluster_TsToggleModule_imports</title>
<polygon fill="none" stroke="#000000" points="16,-143 16,-195 422,-195 422,-143 16,-143"/>
</g>
<g id="clust5" class="cluster">
<title>cluster_TsToggleModule_exports</title>
<polygon fill="none" stroke="#000000" points="220,-273 220,-325 374,-325 374,-273 220,-273"/>
</g>
<!-- TsToggleComponent -->
<g id="node1" class="node">
<title>TsToggleComponent</title>
<polygon fill="#ffffb3" stroke="#000000" points="572.4874,-187 437.5126,-187 437.5126,-151 572.4874,-151 572.4874,-187"/>
<text text-anchor="middle" x="505" y="-164.8" font-family="Times,serif" font-size="14.00" fill="#000000">TsToggleComponent</text>
</g>
<!-- TsToggleModule -->
<g id="node2" class="node">
<title>TsToggleModule</title>
<polygon fill="#8dd3c7" stroke="#000000" points="353.705,-252 350.705,-256 329.705,-256 326.705,-252 240.295,-252 240.295,-216 353.705,-216 353.705,-252"/>
<text text-anchor="middle" x="297" y="-229.8" font-family="Times,serif" font-size="14.00" fill="#000000">TsToggleModule</text>
</g>
<!-- TsToggleComponent&#45;&gt;TsToggleModule -->
<g id="edge1" class="edge">
<title>TsToggleComponent&#45;&gt;TsToggleModule</title>
<path fill="none" stroke="#000000" d="M505,-187.1061C505,-206.3391 505,-234 505,-234 505,-234 363.8369,-234 363.8369,-234"/>
<polygon fill="#000000" stroke="#000000" points="363.8369,-230.5001 353.8369,-234 363.8369,-237.5001 363.8369,-230.5001"/>
</g>
<!-- TsToggleComponent  -->
<g id="node7" class="node">
<title>TsToggleComponent </title>
<polygon fill="#fb8072" stroke="#000000" points="366.4883,-317 227.5117,-317 227.5117,-281 366.4883,-281 366.4883,-317"/>
<text text-anchor="middle" x="297" y="-294.8" font-family="Times,serif" font-size="14.00" fill="#000000">TsToggleComponent </text>
</g>
<!-- TsToggleModule&#45;&gt;TsToggleComponent  -->
<g id="edge6" class="edge">
<title>TsToggleModule&#45;&gt;TsToggleComponent </title>
<path fill="none" stroke="#000000" stroke-dasharray="5,2" d="M297,-252.1061C297,-252.1061 297,-270.991 297,-270.991"/>
<polygon fill="#000000" stroke="#000000" points="293.5001,-270.9909 297,-280.991 300.5001,-270.991 293.5001,-270.9909"/>
</g>
<!-- { provide: NG_VALUE_ACCESSOR, useExisting: TsToggleComponent, multi: &#160;} -->
<g id="node3" class="node">
<title>{ provide: NG_VALUE_ACCESSOR, useExisting: TsToggleComponent, multi: &#160;}</title>
<ellipse fill="#fdb462" stroke="#000000" cx="357" cy="-104" rx="333.1491" ry="18"/>
<text text-anchor="middle" x="357" y="-99.8" font-family="Times,serif" font-size="14.00" fill="#000000">{ provide: NG_VALUE_ACCESSOR, useExisting: TsToggleComponent, multi: &#160;}</text>
</g>
<!-- { provide: NG_VALUE_ACCESSOR, useExisting: TsToggleComponent, multi: &#160;}&#45;&gt;TsToggleComponent -->
<g id="edge2" class="edge">
<title>{ provide: NG_VALUE_ACCESSOR, useExisting: TsToggleComponent, multi: &#160;}&#45;&gt;TsToggleComponent</title>
<path fill="none" stroke="#000000" d="M505,-120.4022C505,-120.4022 505,-140.5366 505,-140.5366"/>
<polygon fill="#000000" stroke="#000000" points="501.5001,-140.5366 505,-150.5366 508.5001,-140.5367 501.5001,-140.5366"/>
</g>
<!-- CommonModule -->
<g id="node4" class="node">
<title>CommonModule</title>
<polygon fill="#8dd3c7" stroke="#000000" points="413.6681,-187 410.6681,-191 389.6681,-191 386.6681,-187 302.3319,-187 302.3319,-151 413.6681,-151 413.6681,-187"/>
<text text-anchor="middle" x="358" y="-164.8" font-family="Times,serif" font-size="14.00" fill="#000000">CommonModule</text>
</g>
<!-- CommonModule&#45;&gt;TsToggleModule -->
<g id="edge3" class="edge">
<title>CommonModule&#45;&gt;TsToggleModule</title>
<path fill="none" stroke="#000000" d="M327.8843,-187.1061C327.8843,-187.1061 327.8843,-205.991 327.8843,-205.991"/>
<polygon fill="#000000" stroke="#000000" points="324.3844,-205.9909 327.8843,-215.991 331.3844,-205.991 324.3844,-205.9909"/>
</g>
<!-- FormsModule -->
<g id="node5" class="node">
<title>FormsModule</title>
<polygon fill="#8dd3c7" stroke="#000000" points="284.8288,-187 281.8288,-191 260.8288,-191 257.8288,-187 189.1712,-187 189.1712,-151 284.8288,-151 284.8288,-187"/>
<text text-anchor="middle" x="237" y="-164.8" font-family="Times,serif" font-size="14.00" fill="#000000">FormsModule</text>
</g>
<!-- FormsModule&#45;&gt;TsToggleModule -->
<g id="edge4" class="edge">
<title>FormsModule&#45;&gt;TsToggleModule</title>
<path fill="none" stroke="#000000" d="M262.5309,-187.1061C262.5309,-187.1061 262.5309,-205.991 262.5309,-205.991"/>
<polygon fill="#000000" stroke="#000000" points="259.0309,-205.9909 262.5309,-215.991 266.0309,-205.991 259.0309,-205.9909"/>
</g>
<!-- MdSlideToggleModule -->
<g id="node6" class="node">
<title>MdSlideToggleModule</title>
<polygon fill="#8dd3c7" stroke="#000000" points="171.9312,-187 168.9312,-191 147.9312,-191 144.9312,-187 24.0688,-187 24.0688,-151 171.9312,-151 171.9312,-187"/>
<text text-anchor="middle" x="98" y="-164.8" font-family="Times,serif" font-size="14.00" fill="#000000">MdSlideToggleModule</text>
</g>
<!-- MdSlideToggleModule&#45;&gt;TsToggleModule -->
<g id="edge5" class="edge">
<title>MdSlideToggleModule&#45;&gt;TsToggleModule</title>
<path fill="none" stroke="#000000" d="M98,-187.1061C98,-206.3391 98,-234 98,-234 98,-234 230.2409,-234 230.2409,-234"/>
<polygon fill="#000000" stroke="#000000" points="230.2409,-237.5001 240.2409,-234 230.2409,-230.5001 230.2409,-237.5001"/>
</g>
</g>
</svg>
