<?xml version="1.0" encoding="UTF-8" standalone="no"?>
<!DOCTYPE svg PUBLIC "-//W3C//DTD SVG 1.1//EN"
 "http://www.w3.org/Graphics/SVG/1.1/DTD/svg11.dtd">
<!-- Generated by graphviz version 2.40.1 (20161225.0304)
 -->
<!-- Title: dependencies Pages: 1 -->
<svg width="749pt" height="284pt"
 viewBox="0.00 0.00 749.00 284.00" xmlns="http://www.w3.org/2000/svg" xmlns:xlink="http://www.w3.org/1999/xlink">
<g id="graph0" class="graph" transform="scale(1 1) rotate(0) translate(4 280)">
<title>dependencies</title>
<polygon fill="#ffffff" stroke="transparent" points="-4,4 -4,-280 745,-280 745,4 -4,4"/>
<text text-anchor="start" x="349.5091" y="-42.4" font-family="sans-serif" font-weight="bold" font-size="14.00" fill="#000000">Legend</text>
<polygon fill="#ffffb3" stroke="transparent" points="136.5,-10 136.5,-30 156.5,-30 156.5,-10 136.5,-10"/>
<text text-anchor="start" x="160.129" y="-15.4" font-family="sans-serif" font-size="14.00" fill="#000000"> &#160;Declarations</text>
<polygon fill="#8dd3c7" stroke="transparent" points="249.5,-10 249.5,-30 269.5,-30 269.5,-10 249.5,-10"/>
<text text-anchor="start" x="273.2251" y="-15.4" font-family="sans-serif" font-size="14.00" fill="#000000"> &#160;Module</text>
<polygon fill="#80b1d3" stroke="transparent" points="335.5,-10 335.5,-30 355.5,-30 355.5,-10 335.5,-10"/>
<text text-anchor="start" x="359.2812" y="-15.4" font-family="sans-serif" font-size="14.00" fill="#000000"> &#160;Bootstrap</text>
<polygon fill="#fdb462" stroke="transparent" points="432.5,-10 432.5,-30 452.5,-30 452.5,-10 432.5,-10"/>
<text text-anchor="start" x="456.1732" y="-15.4" font-family="sans-serif" font-size="14.00" fill="#000000"> &#160;Providers</text>
<polygon fill="#fb8072" stroke="transparent" points="528.5,-10 528.5,-30 548.5,-30 548.5,-10 528.5,-10"/>
<text text-anchor="start" x="552.2258" y="-15.4" font-family="sans-serif" font-size="14.00" fill="#000000"> &#160;Exports</text>
<g id="clust1" class="cluster">
<title>cluster_TsCSVEntryModule</title>
<polygon fill="none" stroke="#000000" stroke-dasharray="1,5" points="8,-70 8,-268 733,-268 733,-70 8,-70"/>
</g>
<g id="clust2" class="cluster">
<title>cluster_TsCSVEntryModule_declarations</title>
<polygon fill="none" stroke="#000000" points="555,-78 555,-130 725,-130 725,-78 555,-78"/>
</g>
<g id="clust4" class="cluster">
<title>cluster_TsCSVEntryModule_imports</title>
<polygon fill="none" stroke="#000000" points="16,-78 16,-130 547,-130 547,-78 16,-78"/>
</g>
<g id="clust5" class="cluster">
<title>cluster_TsCSVEntryModule_exports</title>
<polygon fill="none" stroke="#000000" points="254,-208 254,-260 428,-260 428,-208 254,-208"/>
</g>
<!-- TsCSVEntryComponent -->
<g id="node1" class="node">
<title>TsCSVEntryComponent</title>
<polygon fill="#ffffb3" stroke="#000000" points="716.6596,-122 563.3404,-122 563.3404,-86 716.6596,-86 716.6596,-122"/>
<text text-anchor="middle" x="640" y="-99.8" font-family="Times,serif" font-size="14.00" fill="#000000">TsCSVEntryComponent</text>
</g>
<!-- TsCSVEntryModule -->
<g id="node2" class="node">
<title>TsCSVEntryModule</title>
<polygon fill="#8dd3c7" stroke="#000000" points="406.8767,-187 403.8767,-191 382.8767,-191 379.8767,-187 275.1233,-187 275.1233,-151 406.8767,-151 406.8767,-187"/>
<text text-anchor="middle" x="341" y="-164.8" font-family="Times,serif" font-size="14.00" fill="#000000">TsCSVEntryModule</text>
</g>
<!-- TsCSVEntryComponent&#45;&gt;TsCSVEntryModule -->
<g id="edge1" class="edge">
<title>TsCSVEntryComponent&#45;&gt;TsCSVEntryModule</title>
<path fill="none" stroke="#000000" d="M640,-122.2843C640,-143.3211 640,-175 640,-175 640,-175 416.987,-175 416.987,-175"/>
<polygon fill="#000000" stroke="#000000" points="416.987,-171.5001 406.987,-175 416.9869,-178.5001 416.987,-171.5001"/>
</g>
<!-- TsCSVEntryComponent  -->
<g id="node7" class="node">
<title>TsCSVEntryComponent </title>
<polygon fill="#fb8072" stroke="#000000" points="419.6593,-252 262.3407,-252 262.3407,-216 419.6593,-216 419.6593,-252"/>
<text text-anchor="middle" x="341" y="-229.8" font-family="Times,serif" font-size="14.00" fill="#000000">TsCSVEntryComponent </text>
</g>
<!-- TsCSVEntryModule&#45;&gt;TsCSVEntryComponent  -->
<g id="edge6" class="edge">
<title>TsCSVEntryModule&#45;&gt;TsCSVEntryComponent </title>
<path fill="none" stroke="#000000" stroke-dasharray="5,2" d="M341,-187.1061C341,-187.1061 341,-205.991 341,-205.991"/>
<polygon fill="#000000" stroke="#000000" points="337.5001,-205.9909 341,-215.991 344.5001,-205.991 337.5001,-205.9909"/>
</g>
<!-- TsButtonModule -->
<g id="node3" class="node">
<title>TsButtonModule</title>
<polygon fill="#8dd3c7" stroke="#000000" points="538.6653,-122 535.6653,-126 514.6653,-126 511.6653,-122 427.3347,-122 427.3347,-86 538.6653,-86 538.6653,-122"/>
<text text-anchor="middle" x="483" y="-99.8" font-family="Times,serif" font-size="14.00" fill="#000000">TsButtonModule</text>
</g>
<!-- TsButtonModule&#45;&gt;TsCSVEntryModule -->
<g id="edge2" class="edge">
<title>TsButtonModule&#45;&gt;TsCSVEntryModule</title>
<path fill="none" stroke="#000000" d="M483,-122.0225C483,-139.3734 483,-163 483,-163 483,-163 417.0115,-163 417.0115,-163"/>
<polygon fill="#000000" stroke="#000000" points="417.0115,-159.5001 407.0115,-163 417.0114,-166.5001 417.0115,-159.5001"/>
</g>
<!-- TsIconButtonModule -->
<g id="node4" class="node">
<title>TsIconButtonModule</title>
<polygon fill="#8dd3c7" stroke="#000000" points="409.0408,-122 406.0408,-126 385.0408,-126 382.0408,-122 272.9592,-122 272.9592,-86 409.0408,-86 409.0408,-122"/>
<text text-anchor="middle" x="341" y="-99.8" font-family="Times,serif" font-size="14.00" fill="#000000">TsIconButtonModule</text>
</g>
<!-- TsIconButtonModule&#45;&gt;TsCSVEntryModule -->
<g id="edge3" class="edge">
<title>TsIconButtonModule&#45;&gt;TsCSVEntryModule</title>
<path fill="none" stroke="#000000" d="M341,-122.1061C341,-122.1061 341,-140.991 341,-140.991"/>
<polygon fill="#000000" stroke="#000000" points="337.5001,-140.9909 341,-150.991 344.5001,-140.991 337.5001,-140.9909"/>
</g>
<!-- TsIconModule -->
<g id="node5" class="node">
<title>TsIconModule</title>
<polygon fill="#8dd3c7" stroke="#000000" points="255.4231,-122 252.4231,-126 231.4231,-126 228.4231,-122 156.5769,-122 156.5769,-86 255.4231,-86 255.4231,-122"/>
<text text-anchor="middle" x="206" y="-99.8" font-family="Times,serif" font-size="14.00" fill="#000000">TsIconModule</text>
</g>
<!-- TsIconModule&#45;&gt;TsCSVEntryModule -->
<g id="edge4" class="edge">
<title>TsIconModule&#45;&gt;TsCSVEntryModule</title>
<path fill="none" stroke="#000000" d="M206,-122.0225C206,-139.3734 206,-163 206,-163 206,-163 265.0819,-163 265.0819,-163"/>
<polygon fill="#000000" stroke="#000000" points="265.0819,-166.5001 275.0819,-163 265.0819,-159.5001 265.0819,-166.5001"/>
</g>
<!-- TsTooltipModule -->
<g id="node6" class="node">
<title>TsTooltipModule</title>
<polygon fill="#8dd3c7" stroke="#000000" points="138.2716,-122 135.2716,-126 114.2716,-126 111.2716,-122 23.7284,-122 23.7284,-86 138.2716,-86 138.2716,-122"/>
<text text-anchor="middle" x="81" y="-99.8" font-family="Times,serif" font-size="14.00" fill="#000000">TsTooltipModule</text>
</g>
<!-- TsTooltipModule&#45;&gt;TsCSVEntryModule -->
<g id="edge5" class="edge">
<title>TsTooltipModule&#45;&gt;TsCSVEntryModule</title>
<path fill="none" stroke="#000000" d="M81,-122.2843C81,-143.3211 81,-175 81,-175 81,-175 265.0549,-175 265.0549,-175"/>
<polygon fill="#000000" stroke="#000000" points="265.0549,-178.5001 275.0549,-175 265.0549,-171.5001 265.0549,-178.5001"/>
</g>
</g>
</svg>
