<?xml version="1.0" encoding="UTF-8" standalone="no"?>
<!DOCTYPE svg PUBLIC "-//W3C//DTD SVG 1.1//EN"
 "http://www.w3.org/Graphics/SVG/1.1/DTD/svg11.dtd">
<!-- Generated by graphviz version 2.40.1 (20161225.0304)
 -->
<!-- Title: dependencies Pages: 1 -->
<svg width="714pt" height="284pt"
 viewBox="0.00 0.00 714.00 284.00" xmlns="http://www.w3.org/2000/svg" xmlns:xlink="http://www.w3.org/1999/xlink">
<g id="graph0" class="graph" transform="scale(1 1) rotate(0) translate(4 280)">
<title>dependencies</title>
<polygon fill="#ffffff" stroke="transparent" points="-4,4 -4,-280 710,-280 710,4 -4,4"/>
<text text-anchor="start" x="332.0091" y="-42.4" font-family="sans-serif" font-weight="bold" font-size="14.00" fill="#000000">Legend</text>
<polygon fill="#ffffb3" stroke="transparent" points="119,-10 119,-30 139,-30 139,-10 119,-10"/>
<text text-anchor="start" x="142.629" y="-15.4" font-family="sans-serif" font-size="14.00" fill="#000000"> &#160;Declarations</text>
<polygon fill="#8dd3c7" stroke="transparent" points="232,-10 232,-30 252,-30 252,-10 232,-10"/>
<text text-anchor="start" x="255.7251" y="-15.4" font-family="sans-serif" font-size="14.00" fill="#000000"> &#160;Module</text>
<polygon fill="#80b1d3" stroke="transparent" points="318,-10 318,-30 338,-30 338,-10 318,-10"/>
<text text-anchor="start" x="341.7812" y="-15.4" font-family="sans-serif" font-size="14.00" fill="#000000"> &#160;Bootstrap</text>
<polygon fill="#fdb462" stroke="transparent" points="415,-10 415,-30 435,-30 435,-10 415,-10"/>
<text text-anchor="start" x="438.6732" y="-15.4" font-family="sans-serif" font-size="14.00" fill="#000000"> &#160;Providers</text>
<polygon fill="#fb8072" stroke="transparent" points="511,-10 511,-30 531,-30 531,-10 511,-10"/>
<text text-anchor="start" x="534.7258" y="-15.4" font-family="sans-serif" font-size="14.00" fill="#000000"> &#160;Exports</text>
<g id="clust1" class="cluster">
<title>cluster_TsPipesModule</title>
<polygon fill="none" stroke="#000000" stroke-dasharray="1,5" points="8,-70 8,-268 698,-268 698,-70 8,-70"/>
</g>
<g id="clust2" class="cluster">
<title>cluster_TsPipesModule_declarations</title>
<polygon fill="none" stroke="#000000" points="24,-78 24,-130 682,-130 682,-78 24,-78"/>
</g>
<g id="clust9" class="cluster">
<title>cluster_TsPipesModule_exports</title>
<polygon fill="none" stroke="#000000" points="16,-208 16,-260 690,-260 690,-208 16,-208"/>
</g>
<!-- TsDatePipe -->
<g id="node1" class="node">
<title>TsDatePipe</title>
<polygon fill="#ffffb3" stroke="#000000" points="673.812,-122 592.188,-122 592.188,-86 673.812,-86 673.812,-122"/>
<text text-anchor="middle" x="633" y="-99.8" font-family="Times,serif" font-size="14.00" fill="#000000">TsDatePipe</text>
</g>
<!-- TsPipesModule -->
<g id="node6" class="node">
<title>TsPipesModule</title>
<polygon fill="#8dd3c7" stroke="#000000" points="403.8795,-187 400.8795,-191 379.8795,-191 376.8795,-187 300.1205,-187 300.1205,-151 403.8795,-151 403.8795,-187"/>
<text text-anchor="middle" x="352" y="-164.8" font-family="Times,serif" font-size="14.00" fill="#000000">TsPipesModule</text>
</g>
<!-- TsDatePipe&#45;&gt;TsPipesModule -->
<g id="edge1" class="edge">
<title>TsDatePipe&#45;&gt;TsPipesModule</title>
<path fill="none" stroke="#000000" d="M648.3019,-122.2667C648.3019,-140.5552 648.3019,-166 648.3019,-166 648.3019,-166 413.9509,-166 413.9509,-166"/>
<polygon fill="#000000" stroke="#000000" points="413.951,-162.5001 403.9509,-166 413.9509,-169.5001 413.951,-162.5001"/>
</g>
<!-- TsRoundNumberPipe -->
<g id="node2" class="node">
<title>TsRoundNumberPipe</title>
<polygon fill="#ffffb3" stroke="#000000" points="574.094,-122 435.906,-122 435.906,-86 574.094,-86 574.094,-122"/>
<text text-anchor="middle" x="505" y="-99.8" font-family="Times,serif" font-size="14.00" fill="#000000">TsRoundNumberPipe</text>
</g>
<!-- TsRoundNumberPipe&#45;&gt;TsPipesModule -->
<g id="edge2" class="edge">
<title>TsRoundNumberPipe&#45;&gt;TsPipesModule</title>
<path fill="none" stroke="#000000" d="M528.7657,-122.0091C528.7657,-138.0494 528.7657,-159 528.7657,-159 528.7657,-159 414.0795,-159 414.0795,-159"/>
<polygon fill="#000000" stroke="#000000" points="414.0795,-155.5001 404.0795,-159 414.0794,-162.5001 414.0795,-155.5001"/>
</g>
<!-- TsSentenceCasePipe -->
<g id="node3" class="node">
<title>TsSentenceCasePipe</title>
<polygon fill="#ffffb3" stroke="#000000" points="418.1275,-122 285.8725,-122 285.8725,-86 418.1275,-86 418.1275,-122"/>
<text text-anchor="middle" x="352" y="-99.8" font-family="Times,serif" font-size="14.00" fill="#000000">TsSentenceCasePipe</text>
</g>
<!-- TsSentenceCasePipe&#45;&gt;TsPipesModule -->
<g id="edge3" class="edge">
<title>TsSentenceCasePipe&#45;&gt;TsPipesModule</title>
<path fill="none" stroke="#000000" d="M352,-122.1061C352,-122.1061 352,-140.991 352,-140.991"/>
<polygon fill="#000000" stroke="#000000" points="348.5001,-140.9909 352,-150.991 355.5001,-140.991 348.5001,-140.9909"/>
</g>
<!-- TsTimeAgoPipe -->
<g id="node4" class="node">
<title>TsTimeAgoPipe</title>
<polygon fill="#ffffb3" stroke="#000000" points="267.041,-122 158.959,-122 158.959,-86 267.041,-86 267.041,-122"/>
<text text-anchor="middle" x="213" y="-99.8" font-family="Times,serif" font-size="14.00" fill="#000000">TsTimeAgoPipe</text>
</g>
<!-- TsTimeAgoPipe&#45;&gt;TsPipesModule -->
<g id="edge4" class="edge">
<title>TsTimeAgoPipe&#45;&gt;TsPipesModule</title>
<path fill="none" stroke="#000000" d="M230.2567,-122.0091C230.2567,-138.0494 230.2567,-159 230.2567,-159 230.2567,-159 290.0167,-159 290.0167,-159"/>
<polygon fill="#000000" stroke="#000000" points="290.0168,-162.5001 300.0167,-159 290.0167,-155.5001 290.0168,-162.5001"/>
</g>
<!-- TsTitleCasePipe -->
<g id="node5" class="node">
<title>TsTitleCasePipe</title>
<polygon fill="#ffffb3" stroke="#000000" points="140.0354,-122 31.9646,-122 31.9646,-86 140.0354,-86 140.0354,-122"/>
<text text-anchor="middle" x="86" y="-99.8" font-family="Times,serif" font-size="14.00" fill="#000000">TsTitleCasePipe</text>
</g>
<!-- TsTitleCasePipe&#45;&gt;TsPipesModule -->
<g id="edge5" class="edge">
<title>TsTitleCasePipe&#45;&gt;TsPipesModule</title>
<path fill="none" stroke="#000000" d="M101.2557,-122.2667C101.2557,-140.5552 101.2557,-166 101.2557,-166 101.2557,-166 290.0456,-166 290.0456,-166"/>
<polygon fill="#000000" stroke="#000000" points="290.0457,-169.5001 300.0456,-166 290.0456,-162.5001 290.0457,-169.5001"/>
</g>
<!-- TsDatePipe  -->
<g id="node7" class="node">
<title>TsDatePipe </title>
<polygon fill="#fb8072" stroke="#000000" points="682.3116,-252 597.6884,-252 597.6884,-216 682.3116,-216 682.3116,-252"/>
<text text-anchor="middle" x="640" y="-229.8" font-family="Times,serif" font-size="14.00" fill="#000000">TsDatePipe </text>
</g>
<!-- TsPipesModule&#45;&gt;TsDatePipe  -->
<g id="edge6" class="edge">
<title>TsPipesModule&#45;&gt;TsDatePipe </title>
<path fill="none" stroke="#000000" stroke-dasharray="5,2" d="M403.9209,-173C482.5953,-173 622.9481,-173 622.9481,-173 622.9481,-173 622.9481,-205.698 622.9481,-205.698"/>
<polygon fill="#000000" stroke="#000000" points="619.4482,-205.698 622.9481,-215.698 626.4482,-205.698 619.4482,-205.698"/>
</g>
<!-- TsRoundNumberPipe  -->
<g id="node8" class="node">
<title>TsRoundNumberPipe </title>
<polygon fill="#fb8072" stroke="#000000" points="579.5946,-252 438.4054,-252 438.4054,-216 579.5946,-216 579.5946,-252"/>
<text text-anchor="middle" x="509" y="-229.8" font-family="Times,serif" font-size="14.00" fill="#000000">TsRoundNumberPipe </text>
</g>
<!-- TsPipesModule&#45;&gt;TsRoundNumberPipe  -->
<g id="edge7" class="edge">
<title>TsPipesModule&#45;&gt;TsRoundNumberPipe </title>
<path fill="none" stroke="#000000" stroke-dasharray="5,2" d="M403.9661,-180C440.7182,-180 483.4843,-180 483.4843,-180 483.4843,-180 483.4843,-205.7181 483.4843,-205.7181"/>
<polygon fill="#000000" stroke="#000000" points="479.9844,-205.718 483.4843,-215.7181 486.9844,-205.7181 479.9844,-205.718"/>
</g>
<!-- TsSentenceCasePipe  -->
<g id="node9" class="node">
<title>TsSentenceCasePipe </title>
<polygon fill="#fb8072" stroke="#000000" points="420.1271,-252 283.8729,-252 283.8729,-216 420.1271,-216 420.1271,-252"/>
<text text-anchor="middle" x="352" y="-229.8" font-family="Times,serif" font-size="14.00" fill="#000000">TsSentenceCasePipe </text>
</g>
<!-- TsPipesModule&#45;&gt;TsSentenceCasePipe  -->
<g id="edge8" class="edge">
<title>TsPipesModule&#45;&gt;TsSentenceCasePipe </title>
<path fill="none" stroke="#000000" stroke-dasharray="5,2" d="M352,-187.1061C352,-187.1061 352,-205.991 352,-205.991"/>
<polygon fill="#000000" stroke="#000000" points="348.5001,-205.9909 352,-215.991 355.5001,-205.991 348.5001,-205.9909"/>
</g>
<!-- TsTimeAgoPipe  -->
<g id="node10" class="node">
<title>TsTimeAgoPipe </title>
<polygon fill="#fb8072" stroke="#000000" points="266.04,-252 153.96,-252 153.96,-216 266.04,-216 266.04,-252"/>
<text text-anchor="middle" x="210" y="-229.8" font-family="Times,serif" font-size="14.00" fill="#000000">TsTimeAgoPipe </text>
</g>
<!-- TsPipesModule&#45;&gt;TsTimeAgoPipe  -->
<g id="edge9" class="edge">
<title>TsPipesModule&#45;&gt;TsTimeAgoPipe </title>
<path fill="none" stroke="#000000" stroke-dasharray="5,2" d="M299.9899,-180C254.1117,-180 194.4933,-180 194.4933,-180 194.4933,-180 194.4933,-205.7181 194.4933,-205.7181"/>
<polygon fill="#000000" stroke="#000000" points="190.9934,-205.718 194.4933,-215.7181 197.9934,-205.7181 190.9934,-205.718"/>
</g>
<!-- TsTitleCasePipe  -->
<g id="node11" class="node">
<title>TsTitleCasePipe </title>
<polygon fill="#fb8072" stroke="#000000" points="136.0344,-252 23.9656,-252 23.9656,-216 136.0344,-216 136.0344,-252"/>
<text text-anchor="middle" x="80" y="-229.8" font-family="Times,serif" font-size="14.00" fill="#000000">TsTitleCasePipe </text>
</g>
<!-- TsPipesModule&#45;&gt;TsTitleCasePipe  -->
<g id="edge10" class="edge">
<title>TsPipesModule&#45;&gt;TsTitleCasePipe </title>
<path fill="none" stroke="#000000" stroke-dasharray="5,2" d="M299.9658,-173C217.6162,-173 66.4943,-173 66.4943,-173 66.4943,-173 66.4943,-205.698 66.4943,-205.698"/>
<polygon fill="#000000" stroke="#000000" points="62.9942,-205.698 66.4943,-215.698 69.9942,-205.698 62.9942,-205.698"/>
</g>
</g>
</svg>
