<?xml version="1.0" encoding="UTF-8" standalone="no"?>
<!DOCTYPE svg PUBLIC "-//W3C//DTD SVG 1.1//EN"
 "http://www.w3.org/Graphics/SVG/1.1/DTD/svg11.dtd">
<!-- Generated by graphviz version 2.40.1 (20161225.0304)
 -->
<!-- Title: dependencies Pages: 1 -->
<svg width="504pt" height="284pt"
 viewBox="0.00 0.00 504.00 284.00" xmlns="http://www.w3.org/2000/svg" xmlns:xlink="http://www.w3.org/1999/xlink">
<g id="graph0" class="graph" transform="scale(1 1) rotate(0) translate(4 280)">
<title>dependencies</title>
<polygon fill="#ffffff" stroke="transparent" points="-4,4 -4,-280 500,-280 500,4 -4,4"/>
<text text-anchor="start" x="227.0091" y="-42.4" font-family="sans-serif" font-weight="bold" font-size="14.00" fill="#000000">Legend</text>
<polygon fill="#ffffb3" stroke="transparent" points="14,-10 14,-30 34,-30 34,-10 14,-10"/>
<text text-anchor="start" x="37.629" y="-15.4" font-family="sans-serif" font-size="14.00" fill="#000000"> &#160;Declarations</text>
<polygon fill="#8dd3c7" stroke="transparent" points="127,-10 127,-30 147,-30 147,-10 127,-10"/>
<text text-anchor="start" x="150.7251" y="-15.4" font-family="sans-serif" font-size="14.00" fill="#000000"> &#160;Module</text>
<polygon fill="#80b1d3" stroke="transparent" points="213,-10 213,-30 233,-30 233,-10 213,-10"/>
<text text-anchor="start" x="236.7812" y="-15.4" font-family="sans-serif" font-size="14.00" fill="#000000"> &#160;Bootstrap</text>
<polygon fill="#fdb462" stroke="transparent" points="310,-10 310,-30 330,-30 330,-10 310,-10"/>
<text text-anchor="start" x="333.6732" y="-15.4" font-family="sans-serif" font-size="14.00" fill="#000000"> &#160;Providers</text>
<polygon fill="#fb8072" stroke="transparent" points="406,-10 406,-30 426,-30 426,-10 406,-10"/>
<text text-anchor="start" x="429.7258" y="-15.4" font-family="sans-serif" font-size="14.00" fill="#000000"> &#160;Exports</text>
<g id="clust1" class="cluster">
<title>cluster_TsPipesModule</title>
<polygon fill="none" stroke="#000000" stroke-dasharray="1,5" points="125,-70 125,-268 371,-268 371,-70 125,-70"/>
</g>
<g id="clust2" class="cluster">
<title>cluster_TsPipesModule_declarations</title>
<polygon fill="none" stroke="#000000" points="136,-78 136,-130 360,-130 360,-78 136,-78"/>
</g>
<g id="clust6" class="cluster">
<title>cluster_TsPipesModule_exports</title>
<polygon fill="none" stroke="#000000" points="133,-208 133,-260 363,-260 363,-208 133,-208"/>
</g>
<!-- TsTimeAgoPipe -->
<g id="node1" class="node">
<title>TsTimeAgoPipe</title>
<polygon fill="#ffffb3" stroke="#000000" points="352.041,-122 243.959,-122 243.959,-86 352.041,-86 352.041,-122"/>
<text text-anchor="middle" x="298" y="-99.8" font-family="Times,serif" font-size="14.00" fill="#000000">TsTimeAgoPipe</text>
</g>
<!-- TsPipesModule -->
<g id="node3" class="node">
<title>TsPipesModule</title>
<polygon fill="#8dd3c7" stroke="#000000" points="291.8795,-187 288.8795,-191 267.8795,-191 264.8795,-187 188.1205,-187 188.1205,-151 291.8795,-151 291.8795,-187"/>
<text text-anchor="middle" x="240" y="-164.8" font-family="Times,serif" font-size="14.00" fill="#000000">TsPipesModule</text>
</g>
<!-- TsTimeAgoPipe&#45;&gt;TsPipesModule -->
<g id="edge1" class="edge">
<title>TsTimeAgoPipe&#45;&gt;TsPipesModule</title>
<path fill="none" stroke="#000000" d="M267.8348,-122.1061C267.8348,-122.1061 267.8348,-140.991 267.8348,-140.991"/>
<polygon fill="#000000" stroke="#000000" points="264.3349,-140.9909 267.8348,-150.991 271.3349,-140.991 264.3349,-140.9909"/>
</g>
<!-- TsDatePipe -->
<g id="node2" class="node">
<title>TsDatePipe</title>
<polygon fill="#ffffb3" stroke="#000000" points="225.812,-122 144.188,-122 144.188,-86 225.812,-86 225.812,-122"/>
<text text-anchor="middle" x="185" y="-99.8" font-family="Times,serif" font-size="14.00" fill="#000000">TsDatePipe</text>
</g>
<!-- TsDatePipe&#45;&gt;TsPipesModule -->
<g id="edge2" class="edge">
<title>TsDatePipe&#45;&gt;TsPipesModule</title>
<path fill="none" stroke="#000000" d="M206.858,-122.1061C206.858,-122.1061 206.858,-140.991 206.858,-140.991"/>
<polygon fill="#000000" stroke="#000000" points="203.3581,-140.9909 206.858,-150.991 210.3581,-140.991 203.3581,-140.9909"/>
</g>
<!-- TsTimeAgoPipe  -->
<g id="node4" class="node">
<title>TsTimeAgoPipe </title>
<polygon fill="#fb8072" stroke="#000000" points="355.04,-252 242.96,-252 242.96,-216 355.04,-216 355.04,-252"/>
<text text-anchor="middle" x="299" y="-229.8" font-family="Times,serif" font-size="14.00" fill="#000000">TsTimeAgoPipe </text>
</g>
<!-- TsPipesModule&#45;&gt;TsTimeAgoPipe  -->
<g id="edge3" class="edge">
<title>TsPipesModule&#45;&gt;TsTimeAgoPipe </title>
<path fill="none" stroke="#000000" stroke-dasharray="5,2" d="M267.4598,-187.1061C267.4598,-187.1061 267.4598,-205.991 267.4598,-205.991"/>
<polygon fill="#000000" stroke="#000000" points="263.9599,-205.9909 267.4598,-215.991 270.9599,-205.991 263.9599,-205.9909"/>
</g>
<!-- TsDatePipe  -->
<g id="node5" class="node">
<title>TsDatePipe </title>
<polygon fill="#fb8072" stroke="#000000" points="225.3116,-252 140.6884,-252 140.6884,-216 225.3116,-216 225.3116,-252"/>
<text text-anchor="middle" x="183" y="-229.8" font-family="Times,serif" font-size="14.00" fill="#000000">TsDatePipe </text>
</g>
<!-- TsPipesModule&#45;&gt;TsDatePipe  -->
<g id="edge4" class="edge">
<title>TsPipesModule&#45;&gt;TsDatePipe </title>
<path fill="none" stroke="#000000" stroke-dasharray="5,2" d="M206.733,-187.1061C206.733,-187.1061 206.733,-205.991 206.733,-205.991"/>
<polygon fill="#000000" stroke="#000000" points="203.2331,-205.9909 206.733,-215.991 210.2331,-205.991 203.2331,-205.9909"/>
</g>
</g>
</svg>
