<?xml version="1.0" encoding="UTF-8" standalone="no"?>
<!DOCTYPE svg PUBLIC "-//W3C//DTD SVG 1.1//EN"
 "http://www.w3.org/Graphics/SVG/1.1/DTD/svg11.dtd">
<!-- Generated by graphviz version 2.40.1 (20161225.0304)
 -->
<!-- Title: dependencies Pages: 1 -->
<svg width="584pt" height="284pt"
 viewBox="0.00 0.00 584.00 284.00" xmlns="http://www.w3.org/2000/svg" xmlns:xlink="http://www.w3.org/1999/xlink">
<g id="graph0" class="graph" transform="scale(1 1) rotate(0) translate(4 280)">
<title>dependencies</title>
<polygon fill="#ffffff" stroke="transparent" points="-4,4 -4,-280 580,-280 580,4 -4,4"/>
<text text-anchor="start" x="267.0091" y="-42.4" font-family="sans-serif" font-weight="bold" font-size="14.00" fill="#000000">Legend</text>
<polygon fill="#ffffb3" stroke="transparent" points="54,-10 54,-30 74,-30 74,-10 54,-10"/>
<text text-anchor="start" x="77.629" y="-15.4" font-family="sans-serif" font-size="14.00" fill="#000000"> &#160;Declarations</text>
<polygon fill="#8dd3c7" stroke="transparent" points="167,-10 167,-30 187,-30 187,-10 167,-10"/>
<text text-anchor="start" x="190.7251" y="-15.4" font-family="sans-serif" font-size="14.00" fill="#000000"> &#160;Module</text>
<polygon fill="#80b1d3" stroke="transparent" points="253,-10 253,-30 273,-30 273,-10 253,-10"/>
<text text-anchor="start" x="276.7812" y="-15.4" font-family="sans-serif" font-size="14.00" fill="#000000"> &#160;Bootstrap</text>
<polygon fill="#fdb462" stroke="transparent" points="350,-10 350,-30 370,-30 370,-10 350,-10"/>
<text text-anchor="start" x="373.6732" y="-15.4" font-family="sans-serif" font-size="14.00" fill="#000000"> &#160;Providers</text>
<polygon fill="#fb8072" stroke="transparent" points="446,-10 446,-30 466,-30 466,-10 446,-10"/>
<text text-anchor="start" x="469.7258" y="-15.4" font-family="sans-serif" font-size="14.00" fill="#000000"> &#160;Exports</text>
<g id="clust1" class="cluster">
<title>cluster_TsPipesModule</title>
<polygon fill="none" stroke="#000000" stroke-dasharray="1,5" points="8,-70 8,-268 568,-268 568,-70 8,-70"/>
</g>
<g id="clust2" class="cluster">
<title>cluster_TsPipesModule_declarations</title>
<polygon fill="none" stroke="#000000" points="24,-78 24,-130 555,-130 555,-78 24,-78"/>
</g>
<g id="clust8" class="cluster">
<title>cluster_TsPipesModule_exports</title>
<polygon fill="none" stroke="#000000" points="16,-208 16,-260 560,-260 560,-208 16,-208"/>
</g>
<!-- TsDatePipe -->
<g id="node1" class="node">
<title>TsDatePipe</title>
<polygon fill="#ffffb3" stroke="#000000" points="546.812,-122 465.188,-122 465.188,-86 546.812,-86 546.812,-122"/>
<text text-anchor="middle" x="506" y="-99.8" font-family="Times,serif" font-size="14.00" fill="#000000">TsDatePipe</text>
</g>
<!-- TsPipesModule -->
<g id="node5" class="node">
<title>TsPipesModule</title>
<polygon fill="#8dd3c7" stroke="#000000" points="278.8795,-187 275.8795,-191 254.8795,-191 251.8795,-187 175.1205,-187 175.1205,-151 278.8795,-151 278.8795,-187"/>
<text text-anchor="middle" x="227" y="-164.8" font-family="Times,serif" font-size="14.00" fill="#000000">TsPipesModule</text>
</g>
<!-- TsDatePipe&#45;&gt;TsPipesModule -->
<g id="edge1" class="edge">
<title>TsDatePipe&#45;&gt;TsPipesModule</title>
<path fill="none" stroke="#000000" d="M520.3019,-122.2667C520.3019,-140.5552 520.3019,-166 520.3019,-166 520.3019,-166 289.0985,-166 289.0985,-166"/>
<polygon fill="#000000" stroke="#000000" points="289.0986,-162.5001 279.0985,-166 289.0985,-169.5001 289.0986,-162.5001"/>
</g>
<!-- TsRoundNumberPipe -->
<g id="node2" class="node">
<title>TsRoundNumberPipe</title>
<polygon fill="#ffffb3" stroke="#000000" points="447.094,-122 308.906,-122 308.906,-86 447.094,-86 447.094,-122"/>
<text text-anchor="middle" x="378" y="-99.8" font-family="Times,serif" font-size="14.00" fill="#000000">TsRoundNumberPipe</text>
</g>
<!-- TsRoundNumberPipe&#45;&gt;TsPipesModule -->
<g id="edge2" class="edge">
<title>TsRoundNumberPipe&#45;&gt;TsPipesModule</title>
<path fill="none" stroke="#000000" d="M401.0157,-122.0091C401.0157,-138.0494 401.0157,-159 401.0157,-159 401.0157,-159 289.2104,-159 289.2104,-159"/>
<polygon fill="#000000" stroke="#000000" points="289.2105,-155.5001 279.2104,-159 289.2104,-162.5001 289.2105,-155.5001"/>
</g>
<!-- TsSentenceCasePipe -->
<g id="node3" class="node">
<title>TsSentenceCasePipe</title>
<polygon fill="#ffffb3" stroke="#000000" points="291.1275,-122 158.8725,-122 158.8725,-86 291.1275,-86 291.1275,-122"/>
<text text-anchor="middle" x="225" y="-99.8" font-family="Times,serif" font-size="14.00" fill="#000000">TsSentenceCasePipe</text>
</g>
<!-- TsSentenceCasePipe&#45;&gt;TsPipesModule -->
<g id="edge3" class="edge">
<title>TsSentenceCasePipe&#45;&gt;TsPipesModule</title>
<path fill="none" stroke="#000000" d="M227,-122.1061C227,-122.1061 227,-140.991 227,-140.991"/>
<polygon fill="#000000" stroke="#000000" points="223.5001,-140.9909 227,-150.991 230.5001,-140.991 223.5001,-140.9909"/>
</g>
<!-- TsTimeAgoPipe -->
<g id="node4" class="node">
<title>TsTimeAgoPipe</title>
<polygon fill="#ffffb3" stroke="#000000" points="140.041,-122 31.959,-122 31.959,-86 140.041,-86 140.041,-122"/>
<text text-anchor="middle" x="86" y="-99.8" font-family="Times,serif" font-size="14.00" fill="#000000">TsTimeAgoPipe</text>
</g>
<!-- TsTimeAgoPipe&#45;&gt;TsPipesModule -->
<g id="edge4" class="edge">
<title>TsTimeAgoPipe&#45;&gt;TsPipesModule</title>
<path fill="none" stroke="#000000" d="M101.2567,-122.0225C101.2567,-139.3734 101.2567,-163 101.2567,-163 101.2567,-163 164.7659,-163 164.7659,-163"/>
<polygon fill="#000000" stroke="#000000" points="164.7659,-166.5001 174.7659,-163 164.7659,-159.5001 164.7659,-166.5001"/>
</g>
<!-- TsDatePipe  -->
<g id="node6" class="node">
<title>TsDatePipe </title>
<polygon fill="#fb8072" stroke="#000000" points="552.3116,-252 467.6884,-252 467.6884,-216 552.3116,-216 552.3116,-252"/>
<text text-anchor="middle" x="510" y="-229.8" font-family="Times,serif" font-size="14.00" fill="#000000">TsDatePipe </text>
</g>
<!-- TsPipesModule&#45;&gt;TsDatePipe  -->
<g id="edge5" class="edge">
<title>TsPipesModule&#45;&gt;TsDatePipe </title>
<path fill="none" stroke="#000000" stroke-dasharray="5,2" d="M279.104,-173C356.7908,-173 493.9481,-173 493.9481,-173 493.9481,-173 493.9481,-205.698 493.9481,-205.698"/>
<polygon fill="#000000" stroke="#000000" points="490.4482,-205.698 493.9481,-215.698 497.4482,-205.698 490.4482,-205.698"/>
</g>
<!-- TsRoundNumberPipe  -->
<g id="node7" class="node">
<title>TsRoundNumberPipe </title>
<polygon fill="#fb8072" stroke="#000000" points="449.5946,-252 308.4054,-252 308.4054,-216 449.5946,-216 449.5946,-252"/>
<text text-anchor="middle" x="379" y="-229.8" font-family="Times,serif" font-size="14.00" fill="#000000">TsRoundNumberPipe </text>
</g>
<!-- TsPipesModule&#45;&gt;TsRoundNumberPipe  -->
<g id="edge6" class="edge">
<title>TsPipesModule&#45;&gt;TsRoundNumberPipe </title>
<path fill="none" stroke="#000000" stroke-dasharray="5,2" d="M279.0561,-180C314.4893,-180 354.9843,-180 354.9843,-180 354.9843,-180 354.9843,-205.7181 354.9843,-205.7181"/>
<polygon fill="#000000" stroke="#000000" points="351.4844,-205.718 354.9843,-215.7181 358.4844,-205.7181 351.4844,-205.718"/>
</g>
<!-- TsSentenceCasePipe  -->
<g id="node8" class="node">
<title>TsSentenceCasePipe </title>
<polygon fill="#fb8072" stroke="#000000" points="290.1271,-252 153.8729,-252 153.8729,-216 290.1271,-216 290.1271,-252"/>
<text text-anchor="middle" x="222" y="-229.8" font-family="Times,serif" font-size="14.00" fill="#000000">TsSentenceCasePipe </text>
</g>
<!-- TsPipesModule&#45;&gt;TsSentenceCasePipe  -->
<g id="edge7" class="edge">
<title>TsPipesModule&#45;&gt;TsSentenceCasePipe </title>
<path fill="none" stroke="#000000" stroke-dasharray="5,2" d="M227,-187.1061C227,-187.1061 227,-205.991 227,-205.991"/>
<polygon fill="#000000" stroke="#000000" points="223.5001,-205.9909 227,-215.991 230.5001,-205.991 223.5001,-205.9909"/>
</g>
<!-- TsTimeAgoPipe  -->
<g id="node9" class="node">
<title>TsTimeAgoPipe </title>
<polygon fill="#fb8072" stroke="#000000" points="136.04,-252 23.96,-252 23.96,-216 136.04,-216 136.04,-252"/>
<text text-anchor="middle" x="80" y="-229.8" font-family="Times,serif" font-size="14.00" fill="#000000">TsTimeAgoPipe </text>
</g>
<!-- TsPipesModule&#45;&gt;TsTimeAgoPipe  -->
<g id="edge8" class="edge">
<title>TsPipesModule&#45;&gt;TsTimeAgoPipe </title>
<path fill="none" stroke="#000000" stroke-dasharray="5,2" d="M174.8881,-175C128.0212,-175 66.4933,-175 66.4933,-175 66.4933,-175 66.4933,-205.9775 66.4933,-205.9775"/>
<polygon fill="#000000" stroke="#000000" points="62.9934,-205.9774 66.4933,-215.9775 69.9934,-205.9775 62.9934,-205.9774"/>
</g>
</g>
</svg>
