<?xml version="1.0" encoding="UTF-8" standalone="no"?>
<!DOCTYPE svg PUBLIC "-//W3C//DTD SVG 1.1//EN"
 "http://www.w3.org/Graphics/SVG/1.1/DTD/svg11.dtd">
<!-- Generated by graphviz version 2.40.1 (20161225.0304)
 -->
<!-- Title: dependencies Pages: 1 -->
<svg width="596pt" height="349pt"
 viewBox="0.00 0.00 596.00 349.00" xmlns="http://www.w3.org/2000/svg" xmlns:xlink="http://www.w3.org/1999/xlink">
<g id="graph0" class="graph" transform="scale(1 1) rotate(0) translate(4 345)">
<title>dependencies</title>
<polygon fill="#ffffff" stroke="transparent" points="-4,4 -4,-345 592,-345 592,4 -4,4"/>
<text text-anchor="start" x="273.0091" y="-42.4" font-family="sans-serif" font-weight="bold" font-size="14.00" fill="#000000">Legend</text>
<polygon fill="#ffffb3" stroke="transparent" points="60,-10 60,-30 80,-30 80,-10 60,-10"/>
<text text-anchor="start" x="83.629" y="-15.4" font-family="sans-serif" font-size="14.00" fill="#000000"> &#160;Declarations</text>
<polygon fill="#8dd3c7" stroke="transparent" points="173,-10 173,-30 193,-30 193,-10 173,-10"/>
<text text-anchor="start" x="196.7251" y="-15.4" font-family="sans-serif" font-size="14.00" fill="#000000"> &#160;Module</text>
<polygon fill="#80b1d3" stroke="transparent" points="259,-10 259,-30 279,-30 279,-10 259,-10"/>
<text text-anchor="start" x="282.7812" y="-15.4" font-family="sans-serif" font-size="14.00" fill="#000000"> &#160;Bootstrap</text>
<polygon fill="#fdb462" stroke="transparent" points="356,-10 356,-30 376,-30 376,-10 356,-10"/>
<text text-anchor="start" x="379.6732" y="-15.4" font-family="sans-serif" font-size="14.00" fill="#000000"> &#160;Providers</text>
<polygon fill="#fb8072" stroke="transparent" points="452,-10 452,-30 472,-30 472,-10 452,-10"/>
<text text-anchor="start" x="475.7258" y="-15.4" font-family="sans-serif" font-size="14.00" fill="#000000"> &#160;Exports</text>
<g id="clust1" class="cluster">
<title>cluster_TsInputModule</title>
<polygon fill="none" stroke="#000000" stroke-dasharray="1,5" points="8,-70 8,-333 580,-333 580,-70 8,-70"/>
</g>
<g id="clust2" class="cluster">
<title>cluster_TsInputModule_declarations</title>
<polygon fill="none" stroke="#000000" points="432,-143 432,-195 572,-195 572,-143 432,-143"/>
</g>
<g id="clust3" class="cluster">
<title>cluster_TsInputModule_TsInputComponent_providers</title>
<polygon fill="none" stroke="#000000" points="102,-78 102,-130 572,-130 572,-78 102,-78"/>
</g>
<g id="clust4" class="cluster">
<title>cluster_TsInputModule_imports</title>
<polygon fill="none" stroke="#000000" points="220,-143 220,-195 424,-195 424,-143 220,-143"/>
</g>
<g id="clust5" class="cluster">
<title>cluster_TsInputModule_exports</title>
<polygon fill="none" stroke="#000000" points="250,-273 250,-325 394,-325 394,-273 250,-273"/>
</g>
<g id="clust7" class="cluster">
<title>cluster_TsInputModule_providers</title>
<polygon fill="none" stroke="#000000" points="16,-143 16,-195 212,-195 212,-143 16,-143"/>
</g>
<!-- TsInputComponent -->
<g id="node1" class="node">
<title>TsInputComponent</title>
<polygon fill="#ffffb3" stroke="#000000" points="564.3809,-187 439.6191,-187 439.6191,-151 564.3809,-151 564.3809,-187"/>
<text text-anchor="middle" x="502" y="-164.8" font-family="Times,serif" font-size="14.00" fill="#000000">TsInputComponent</text>
</g>
<!-- TsInputModule -->
<g id="node2" class="node">
<title>TsInputModule</title>
<polygon fill="#8dd3c7" stroke="#000000" points="373.5982,-252 370.5982,-256 349.5982,-256 346.5982,-252 270.4018,-252 270.4018,-216 373.5982,-216 373.5982,-252"/>
<text text-anchor="middle" x="322" y="-229.8" font-family="Times,serif" font-size="14.00" fill="#000000">TsInputModule</text>
</g>
<!-- TsInputComponent&#45;&gt;TsInputModule -->
<g id="edge1" class="edge">
<title>TsInputComponent&#45;&gt;TsInputModule</title>
<path fill="none" stroke="#000000" d="M502,-187.1061C502,-206.3391 502,-234 502,-234 502,-234 383.5808,-234 383.5808,-234"/>
<polygon fill="#000000" stroke="#000000" points="383.5808,-230.5001 373.5808,-234 383.5807,-237.5001 383.5808,-230.5001"/>
</g>
<!-- TsInputComponent  -->
<g id="node5" class="node">
<title>TsInputComponent </title>
<polygon fill="#fb8072" stroke="#000000" points="386.3814,-317 257.6186,-317 257.6186,-281 386.3814,-281 386.3814,-317"/>
<text text-anchor="middle" x="322" y="-294.8" font-family="Times,serif" font-size="14.00" fill="#000000">TsInputComponent </text>
</g>
<!-- TsInputModule&#45;&gt;TsInputComponent  -->
<g id="edge4" class="edge">
<title>TsInputModule&#45;&gt;TsInputComponent </title>
<path fill="none" stroke="#000000" stroke-dasharray="5,2" d="M322,-252.1061C322,-252.1061 322,-270.991 322,-270.991"/>
<polygon fill="#000000" stroke="#000000" points="318.5001,-270.9909 322,-280.991 325.5001,-270.991 318.5001,-270.9909"/>
</g>
<!-- CUSTOM_INPUT_CONTROL_VALUE_ACCESSOR -->
<g id="node3" class="node">
<title>CUSTOM_INPUT_CONTROL_VALUE_ACCESSOR</title>
<ellipse fill="#fdb462" stroke="#000000" cx="337" cy="-104" rx="227.432" ry="18"/>
<text text-anchor="middle" x="337" y="-99.8" font-family="Times,serif" font-size="14.00" fill="#000000">CUSTOM_INPUT_CONTROL_VALUE_ACCESSOR</text>
</g>
<!-- CUSTOM_INPUT_CONTROL_VALUE_ACCESSOR&#45;&gt;TsInputComponent -->
<g id="edge2" class="edge">
<title>CUSTOM_INPUT_CONTROL_VALUE_ACCESSOR&#45;&gt;TsInputComponent</title>
<path fill="none" stroke="#000000" d="M501.8878,-116.5327C501.8878,-116.5327 501.8878,-140.8507 501.8878,-140.8507"/>
<polygon fill="#000000" stroke="#000000" points="498.3879,-140.8506 501.8878,-150.8507 505.3879,-140.8507 498.3879,-140.8506"/>
</g>
<!-- TsValidationMessagesModule -->
<g id="node4" class="node">
<title>TsValidationMessagesModule</title>
<polygon fill="#8dd3c7" stroke="#000000" points="415.5674,-187 412.5674,-191 391.5674,-191 388.5674,-187 228.4326,-187 228.4326,-151 415.5674,-151 415.5674,-187"/>
<text text-anchor="middle" x="322" y="-164.8" font-family="Times,serif" font-size="14.00" fill="#000000">TsValidationMessagesModule</text>
</g>
<!-- TsValidationMessagesModule&#45;&gt;TsInputModule -->
<g id="edge3" class="edge">
<title>TsValidationMessagesModule&#45;&gt;TsInputModule</title>
<path fill="none" stroke="#000000" d="M322,-187.1061C322,-187.1061 322,-205.991 322,-205.991"/>
<polygon fill="#000000" stroke="#000000" points="318.5001,-205.9909 322,-215.991 325.5001,-205.991 318.5001,-205.9909"/>
</g>
<!-- TsValidatorsService -->
<g id="node6" class="node">
<title>TsValidatorsService</title>
<ellipse fill="#fdb462" stroke="#000000" cx="114" cy="-169" rx="89.7402" ry="18"/>
<text text-anchor="middle" x="114" y="-164.8" font-family="Times,serif" font-size="14.00" fill="#000000">TsValidatorsService</text>
</g>
<!-- TsValidatorsService&#45;&gt;TsInputModule -->
<g id="edge5" class="edge">
<title>TsValidatorsService&#45;&gt;TsInputModule</title>
<path fill="none" stroke="#000000" d="M114,-187.1061C114,-206.3391 114,-234 114,-234 114,-234 260.317,-234 260.317,-234"/>
<polygon fill="#000000" stroke="#000000" points="260.3171,-237.5001 270.317,-234 260.317,-230.5001 260.3171,-237.5001"/>
</g>
</g>
</svg>
