<?xml version="1.0" encoding="UTF-8" standalone="no"?>
<!DOCTYPE svg PUBLIC "-//W3C//DTD SVG 1.1//EN"
 "http://www.w3.org/Graphics/SVG/1.1/DTD/svg11.dtd">
<!-- Generated by graphviz version 2.40.1 (20161225.0304)
 -->
<!-- Title: dependencies Pages: 1 -->
<svg width="504pt" height="284pt"
 viewBox="0.00 0.00 504.00 284.00" xmlns="http://www.w3.org/2000/svg" xmlns:xlink="http://www.w3.org/1999/xlink">
<g id="graph0" class="graph" transform="scale(1 1) rotate(0) translate(4 280)">
<title>dependencies</title>
<polygon fill="#ffffff" stroke="transparent" points="-4,4 -4,-280 500,-280 500,4 -4,4"/>
<text text-anchor="start" x="227.0091" y="-42.4" font-family="sans-serif" font-weight="bold" font-size="14.00" fill="#000000">Legend</text>
<polygon fill="#ffffb3" stroke="transparent" points="14,-10 14,-30 34,-30 34,-10 14,-10"/>
<text text-anchor="start" x="37.629" y="-15.4" font-family="sans-serif" font-size="14.00" fill="#000000"> &#160;Declarations</text>
<polygon fill="#8dd3c7" stroke="transparent" points="127,-10 127,-30 147,-30 147,-10 127,-10"/>
<text text-anchor="start" x="150.7251" y="-15.4" font-family="sans-serif" font-size="14.00" fill="#000000"> &#160;Module</text>
<polygon fill="#80b1d3" stroke="transparent" points="213,-10 213,-30 233,-30 233,-10 213,-10"/>
<text text-anchor="start" x="236.7812" y="-15.4" font-family="sans-serif" font-size="14.00" fill="#000000"> &#160;Bootstrap</text>
<polygon fill="#fdb462" stroke="transparent" points="310,-10 310,-30 330,-30 330,-10 310,-10"/>
<text text-anchor="start" x="333.6732" y="-15.4" font-family="sans-serif" font-size="14.00" fill="#000000"> &#160;Providers</text>
<polygon fill="#fb8072" stroke="transparent" points="406,-10 406,-30 426,-30 426,-10 406,-10"/>
<text text-anchor="start" x="429.7258" y="-15.4" font-family="sans-serif" font-size="14.00" fill="#000000"> &#160;Exports</text>
<g id="clust1" class="cluster">
<title>cluster_TsInputModule</title>
<polygon fill="none" stroke="#000000" stroke-dasharray="1,5" points="64,-70 64,-268 432,-268 432,-70 64,-70"/>
</g>
<g id="clust2" class="cluster">
<title>cluster_TsInputModule_declarations</title>
<polygon fill="none" stroke="#000000" points="284,-78 284,-130 424,-130 424,-78 284,-78"/>
</g>
<g id="clust4" class="cluster">
<title>cluster_TsInputModule_imports</title>
<polygon fill="none" stroke="#000000" points="72,-78 72,-130 276,-130 276,-78 72,-78"/>
</g>
<g id="clust5" class="cluster">
<title>cluster_TsInputModule_exports</title>
<polygon fill="none" stroke="#000000" points="191,-208 191,-260 335,-260 335,-208 191,-208"/>
</g>
<!-- TsInputComponent -->
<g id="node1" class="node">
<title>TsInputComponent</title>
<polygon fill="#ffffb3" stroke="#000000" points="416.3809,-122 291.6191,-122 291.6191,-86 416.3809,-86 416.3809,-122"/>
<text text-anchor="middle" x="354" y="-99.8" font-family="Times,serif" font-size="14.00" fill="#000000">TsInputComponent</text>
</g>
<!-- TsInputModule -->
<g id="node2" class="node">
<title>TsInputModule</title>
<polygon fill="#8dd3c7" stroke="#000000" points="314.5982,-187 311.5982,-191 290.5982,-191 287.5982,-187 211.4018,-187 211.4018,-151 314.5982,-151 314.5982,-187"/>
<text text-anchor="middle" x="263" y="-164.8" font-family="Times,serif" font-size="14.00" fill="#000000">TsInputModule</text>
</g>
<!-- TsInputComponent&#45;&gt;TsInputModule -->
<g id="edge1" class="edge">
<title>TsInputComponent&#45;&gt;TsInputModule</title>
<path fill="none" stroke="#000000" d="M303.0544,-122.1061C303.0544,-122.1061 303.0544,-140.991 303.0544,-140.991"/>
<polygon fill="#000000" stroke="#000000" points="299.5544,-140.9909 303.0544,-150.991 306.5544,-140.991 299.5544,-140.9909"/>
</g>
<!-- TsInputComponent  -->
<g id="node4" class="node">
<title>TsInputComponent </title>
<polygon fill="#fb8072" stroke="#000000" points="327.3814,-252 198.6186,-252 198.6186,-216 327.3814,-216 327.3814,-252"/>
<text text-anchor="middle" x="263" y="-229.8" font-family="Times,serif" font-size="14.00" fill="#000000">TsInputComponent </text>
</g>
<!-- TsInputModule&#45;&gt;TsInputComponent  -->
<g id="edge3" class="edge">
<title>TsInputModule&#45;&gt;TsInputComponent </title>
<path fill="none" stroke="#000000" stroke-dasharray="5,2" d="M263,-187.1061C263,-187.1061 263,-205.991 263,-205.991"/>
<polygon fill="#000000" stroke="#000000" points="259.5001,-205.9909 263,-215.991 266.5001,-205.991 259.5001,-205.9909"/>
</g>
<!-- TsValidationMessagesModule -->
<g id="node3" class="node">
<title>TsValidationMessagesModule</title>
<polygon fill="#8dd3c7" stroke="#000000" points="267.5674,-122 264.5674,-126 243.5674,-126 240.5674,-122 80.4326,-122 80.4326,-86 267.5674,-86 267.5674,-122"/>
<text text-anchor="middle" x="174" y="-99.8" font-family="Times,serif" font-size="14.00" fill="#000000">TsValidationMessagesModule</text>
</g>
<!-- TsValidationMessagesModule&#45;&gt;TsInputModule -->
<g id="edge2" class="edge">
<title>TsValidationMessagesModule&#45;&gt;TsInputModule</title>
<path fill="none" stroke="#000000" d="M239.4923,-122.1061C239.4923,-122.1061 239.4923,-140.991 239.4923,-140.991"/>
<polygon fill="#000000" stroke="#000000" points="235.9924,-140.9909 239.4923,-150.991 242.9924,-140.991 235.9924,-140.9909"/>
</g>
</g>
</svg>
