<?xml version="1.0" encoding="UTF-8" standalone="no"?>
<!DOCTYPE svg PUBLIC "-//W3C//DTD SVG 1.1//EN"
 "http://www.w3.org/Graphics/SVG/1.1/DTD/svg11.dtd">
<!-- Generated by graphviz version 2.40.1 (20161225.0304)
 -->
<!-- Title: dependencies Pages: 1 -->
<svg width="510pt" height="349pt"
 viewBox="0.00 0.00 510.00 349.00" xmlns="http://www.w3.org/2000/svg" xmlns:xlink="http://www.w3.org/1999/xlink">
<g id="graph0" class="graph" transform="scale(1 1) rotate(0) translate(4 345)">
<title>dependencies</title>
<polygon fill="#ffffff" stroke="transparent" points="-4,4 -4,-345 506,-345 506,4 -4,4"/>
<text text-anchor="start" x="230.0091" y="-42.4" font-family="sans-serif" font-weight="bold" font-size="14.00" fill="#000000">Legend</text>
<polygon fill="#ffffb3" stroke="transparent" points="17,-10 17,-30 37,-30 37,-10 17,-10"/>
<text text-anchor="start" x="40.629" y="-15.4" font-family="sans-serif" font-size="14.00" fill="#000000"> &#160;Declarations</text>
<polygon fill="#8dd3c7" stroke="transparent" points="130,-10 130,-30 150,-30 150,-10 130,-10"/>
<text text-anchor="start" x="153.7251" y="-15.4" font-family="sans-serif" font-size="14.00" fill="#000000"> &#160;Module</text>
<polygon fill="#80b1d3" stroke="transparent" points="216,-10 216,-30 236,-30 236,-10 216,-10"/>
<text text-anchor="start" x="239.7812" y="-15.4" font-family="sans-serif" font-size="14.00" fill="#000000"> &#160;Bootstrap</text>
<polygon fill="#fdb462" stroke="transparent" points="313,-10 313,-30 333,-30 333,-10 313,-10"/>
<text text-anchor="start" x="336.6732" y="-15.4" font-family="sans-serif" font-size="14.00" fill="#000000"> &#160;Providers</text>
<polygon fill="#fb8072" stroke="transparent" points="409,-10 409,-30 429,-30 429,-10 409,-10"/>
<text text-anchor="start" x="432.7258" y="-15.4" font-family="sans-serif" font-size="14.00" fill="#000000"> &#160;Exports</text>
<g id="clust1" class="cluster">
<title>cluster_TsInputModule</title>
<polygon fill="none" stroke="#000000" stroke-dasharray="1,5" points="8,-70 8,-333 494,-333 494,-70 8,-70"/>
</g>
<g id="clust2" class="cluster">
<title>cluster_TsInputModule_declarations</title>
<polygon fill="none" stroke="#000000" points="228,-143 228,-195 368,-195 368,-143 228,-143"/>
</g>
<g id="clust3" class="cluster">
<title>cluster_TsInputModule_TsInputComponent_providers</title>
<polygon fill="none" stroke="#000000" points="16,-78 16,-130 486,-130 486,-78 16,-78"/>
</g>
<g id="clust4" class="cluster">
<title>cluster_TsInputModule_imports</title>
<polygon fill="none" stroke="#000000" points="16,-143 16,-195 220,-195 220,-143 16,-143"/>
</g>
<g id="clust5" class="cluster">
<title>cluster_TsInputModule_exports</title>
<polygon fill="none" stroke="#000000" points="136,-273 136,-325 280,-325 280,-273 136,-273"/>
</g>
<!-- TsInputComponent -->
<g id="node1" class="node">
<title>TsInputComponent</title>
<polygon fill="#ffffb3" stroke="#000000" points="360.3809,-187 235.6191,-187 235.6191,-151 360.3809,-151 360.3809,-187"/>
<text text-anchor="middle" x="298" y="-164.8" font-family="Times,serif" font-size="14.00" fill="#000000">TsInputComponent</text>
</g>
<!-- TsInputModule -->
<g id="node2" class="node">
<title>TsInputModule</title>
<polygon fill="#8dd3c7" stroke="#000000" points="259.5982,-252 256.5982,-256 235.5982,-256 232.5982,-252 156.4018,-252 156.4018,-216 259.5982,-216 259.5982,-252"/>
<text text-anchor="middle" x="208" y="-229.8" font-family="Times,serif" font-size="14.00" fill="#000000">TsInputModule</text>
</g>
<!-- TsInputComponent&#45;&gt;TsInputModule -->
<g id="edge1" class="edge">
<title>TsInputComponent&#45;&gt;TsInputModule</title>
<path fill="none" stroke="#000000" d="M247.5544,-187.1061C247.5544,-187.1061 247.5544,-205.991 247.5544,-205.991"/>
<polygon fill="#000000" stroke="#000000" points="244.0544,-205.9909 247.5544,-215.991 251.0544,-205.991 244.0544,-205.9909"/>
</g>
<!-- TsInputComponent  -->
<g id="node5" class="node">
<title>TsInputComponent </title>
<polygon fill="#fb8072" stroke="#000000" points="272.3814,-317 143.6186,-317 143.6186,-281 272.3814,-281 272.3814,-317"/>
<text text-anchor="middle" x="208" y="-294.8" font-family="Times,serif" font-size="14.00" fill="#000000">TsInputComponent </text>
</g>
<!-- TsInputModule&#45;&gt;TsInputComponent  -->
<g id="edge4" class="edge">
<title>TsInputModule&#45;&gt;TsInputComponent </title>
<path fill="none" stroke="#000000" stroke-dasharray="5,2" d="M208,-252.1061C208,-252.1061 208,-270.991 208,-270.991"/>
<polygon fill="#000000" stroke="#000000" points="204.5001,-270.9909 208,-280.991 211.5001,-270.991 204.5001,-270.9909"/>
</g>
<!-- CUSTOM_INPUT_CONTROL_VALUE_ACCESSOR -->
<g id="node3" class="node">
<title>CUSTOM_INPUT_CONTROL_VALUE_ACCESSOR</title>
<ellipse fill="#fdb462" stroke="#000000" cx="251" cy="-104" rx="227.432" ry="18"/>
<text text-anchor="middle" x="251" y="-99.8" font-family="Times,serif" font-size="14.00" fill="#000000">CUSTOM_INPUT_CONTROL_VALUE_ACCESSOR</text>
</g>
<!-- CUSTOM_INPUT_CONTROL_VALUE_ACCESSOR&#45;&gt;TsInputComponent -->
<g id="edge2" class="edge">
<title>CUSTOM_INPUT_CONTROL_VALUE_ACCESSOR&#45;&gt;TsInputComponent</title>
<path fill="none" stroke="#000000" d="M298,-121.7615C298,-121.7615 298,-140.8074 298,-140.8074"/>
<polygon fill="#000000" stroke="#000000" points="294.5001,-140.8074 298,-150.8074 301.5001,-140.8075 294.5001,-140.8074"/>
</g>
<!-- TsValidationMessagesModule -->
<g id="node4" class="node">
<title>TsValidationMessagesModule</title>
<polygon fill="#8dd3c7" stroke="#000000" points="211.5674,-187 208.5674,-191 187.5674,-191 184.5674,-187 24.4326,-187 24.4326,-151 211.5674,-151 211.5674,-187"/>
<text text-anchor="middle" x="118" y="-164.8" font-family="Times,serif" font-size="14.00" fill="#000000">TsValidationMessagesModule</text>
</g>
<!-- TsValidationMessagesModule&#45;&gt;TsInputModule -->
<g id="edge3" class="edge">
<title>TsValidationMessagesModule&#45;&gt;TsInputModule</title>
<path fill="none" stroke="#000000" d="M183.9923,-187.1061C183.9923,-187.1061 183.9923,-205.991 183.9923,-205.991"/>
<polygon fill="#000000" stroke="#000000" points="180.4924,-205.9909 183.9923,-215.991 187.4924,-205.991 180.4924,-205.9909"/>
</g>
</g>
</svg>
