<?xml version="1.0" encoding="UTF-8" standalone="no"?>
<!DOCTYPE svg PUBLIC "-//W3C//DTD SVG 1.1//EN"
 "http://www.w3.org/Graphics/SVG/1.1/DTD/svg11.dtd">
<!-- Generated by graphviz version 2.40.1 (20161225.0304)
 -->
<!-- Title: dependencies Pages: 1 -->
<svg width="712pt" height="349pt"
 viewBox="0.00 0.00 712.00 349.00" xmlns="http://www.w3.org/2000/svg" xmlns:xlink="http://www.w3.org/1999/xlink">
<g id="graph0" class="graph" transform="scale(1 1) rotate(0) translate(4 345)">
<title>dependencies</title>
<polygon fill="#ffffff" stroke="transparent" points="-4,4 -4,-345 708,-345 708,4 -4,4"/>
<text text-anchor="start" x="331.0091" y="-42.4" font-family="sans-serif" font-weight="bold" font-size="14.00" fill="#000000">Legend</text>
<polygon fill="#ffffb3" stroke="transparent" points="118,-10 118,-30 138,-30 138,-10 118,-10"/>
<text text-anchor="start" x="141.629" y="-15.4" font-family="sans-serif" font-size="14.00" fill="#000000"> &#160;Declarations</text>
<polygon fill="#8dd3c7" stroke="transparent" points="231,-10 231,-30 251,-30 251,-10 231,-10"/>
<text text-anchor="start" x="254.7251" y="-15.4" font-family="sans-serif" font-size="14.00" fill="#000000"> &#160;Module</text>
<polygon fill="#80b1d3" stroke="transparent" points="317,-10 317,-30 337,-30 337,-10 317,-10"/>
<text text-anchor="start" x="340.7812" y="-15.4" font-family="sans-serif" font-size="14.00" fill="#000000"> &#160;Bootstrap</text>
<polygon fill="#fdb462" stroke="transparent" points="414,-10 414,-30 434,-30 434,-10 414,-10"/>
<text text-anchor="start" x="437.6732" y="-15.4" font-family="sans-serif" font-size="14.00" fill="#000000"> &#160;Providers</text>
<polygon fill="#fb8072" stroke="transparent" points="510,-10 510,-30 530,-30 530,-10 510,-10"/>
<text text-anchor="start" x="533.7258" y="-15.4" font-family="sans-serif" font-size="14.00" fill="#000000"> &#160;Exports</text>
<g id="clust1" class="cluster">
<title>cluster_TsInputModule</title>
<polygon fill="none" stroke="#000000" stroke-dasharray="1,5" points="8,-70 8,-333 696,-333 696,-70 8,-70"/>
</g>
<g id="clust2" class="cluster">
<title>cluster_TsInputModule_declarations</title>
<polygon fill="none" stroke="#000000" points="548,-143 548,-195 688,-195 688,-143 548,-143"/>
</g>
<g id="clust3" class="cluster">
<title>cluster_TsInputModule_TsInputComponent_providers</title>
<polygon fill="none" stroke="#000000" points="218,-78 218,-130 688,-130 688,-78 218,-78"/>
</g>
<g id="clust4" class="cluster">
<title>cluster_TsInputModule_imports</title>
<polygon fill="none" stroke="#000000" points="220,-143 220,-195 540,-195 540,-143 220,-143"/>
</g>
<g id="clust5" class="cluster">
<title>cluster_TsInputModule_exports</title>
<polygon fill="none" stroke="#000000" points="285,-273 285,-325 429,-325 429,-273 285,-273"/>
</g>
<g id="clust7" class="cluster">
<title>cluster_TsInputModule_providers</title>
<polygon fill="none" stroke="#000000" points="16,-143 16,-195 212,-195 212,-143 16,-143"/>
</g>
<!-- TsInputComponent -->
<g id="node1" class="node">
<title>TsInputComponent</title>
<polygon fill="#ffffb3" stroke="#000000" points="680.3809,-187 555.6191,-187 555.6191,-151 680.3809,-151 680.3809,-187"/>
<text text-anchor="middle" x="618" y="-164.8" font-family="Times,serif" font-size="14.00" fill="#000000">TsInputComponent</text>
</g>
<!-- TsInputModule -->
<g id="node2" class="node">
<title>TsInputModule</title>
<polygon fill="#8dd3c7" stroke="#000000" points="408.5982,-252 405.5982,-256 384.5982,-256 381.5982,-252 305.4018,-252 305.4018,-216 408.5982,-216 408.5982,-252"/>
<text text-anchor="middle" x="357" y="-229.8" font-family="Times,serif" font-size="14.00" fill="#000000">TsInputModule</text>
</g>
<!-- TsInputComponent&#45;&gt;TsInputModule -->
<g id="edge1" class="edge">
<title>TsInputComponent&#45;&gt;TsInputModule</title>
<path fill="none" stroke="#000000" d="M618,-187.1061C618,-206.3391 618,-234 618,-234 618,-234 418.5652,-234 418.5652,-234"/>
<polygon fill="#000000" stroke="#000000" points="418.5652,-230.5001 408.5652,-234 418.5652,-237.5001 418.5652,-230.5001"/>
</g>
<!-- TsInputComponent  -->
<g id="node6" class="node">
<title>TsInputComponent </title>
<polygon fill="#fb8072" stroke="#000000" points="421.3814,-317 292.6186,-317 292.6186,-281 421.3814,-281 421.3814,-317"/>
<text text-anchor="middle" x="357" y="-294.8" font-family="Times,serif" font-size="14.00" fill="#000000">TsInputComponent </text>
</g>
<!-- TsInputModule&#45;&gt;TsInputComponent  -->
<g id="edge5" class="edge">
<title>TsInputModule&#45;&gt;TsInputComponent </title>
<path fill="none" stroke="#000000" stroke-dasharray="5,2" d="M357,-252.1061C357,-252.1061 357,-270.991 357,-270.991"/>
<polygon fill="#000000" stroke="#000000" points="353.5001,-270.9909 357,-280.991 360.5001,-270.991 353.5001,-270.9909"/>
</g>
<!-- CUSTOM_INPUT_CONTROL_VALUE_ACCESSOR -->
<g id="node3" class="node">
<title>CUSTOM_INPUT_CONTROL_VALUE_ACCESSOR</title>
<ellipse fill="#fdb462" stroke="#000000" cx="453" cy="-104" rx="227.432" ry="18"/>
<text text-anchor="middle" x="453" y="-99.8" font-family="Times,serif" font-size="14.00" fill="#000000">CUSTOM_INPUT_CONTROL_VALUE_ACCESSOR</text>
</g>
<!-- CUSTOM_INPUT_CONTROL_VALUE_ACCESSOR&#45;&gt;TsInputComponent -->
<g id="edge2" class="edge">
<title>CUSTOM_INPUT_CONTROL_VALUE_ACCESSOR&#45;&gt;TsInputComponent</title>
<path fill="none" stroke="#000000" d="M617.8878,-116.5327C617.8878,-116.5327 617.8878,-140.8507 617.8878,-140.8507"/>
<polygon fill="#000000" stroke="#000000" points="614.3879,-140.8506 617.8878,-150.8507 621.3879,-140.8507 614.3879,-140.8506"/>
</g>
<!-- TsValidationMessagesModule -->
<g id="node4" class="node">
<title>TsValidationMessagesModule</title>
<polygon fill="#8dd3c7" stroke="#000000" points="531.5674,-187 528.5674,-191 507.5674,-191 504.5674,-187 344.4326,-187 344.4326,-151 531.5674,-151 531.5674,-187"/>
<text text-anchor="middle" x="438" y="-164.8" font-family="Times,serif" font-size="14.00" fill="#000000">TsValidationMessagesModule</text>
</g>
<!-- TsValidationMessagesModule&#45;&gt;TsInputModule -->
<g id="edge3" class="edge">
<title>TsValidationMessagesModule&#45;&gt;TsInputModule</title>
<path fill="none" stroke="#000000" d="M376.5077,-187.1061C376.5077,-187.1061 376.5077,-205.991 376.5077,-205.991"/>
<polygon fill="#000000" stroke="#000000" points="373.0078,-205.9909 376.5077,-215.991 380.0078,-205.991 373.0078,-205.9909"/>
</g>
<!-- TsIconModule -->
<g id="node5" class="node">
<title>TsIconModule</title>
<polygon fill="#8dd3c7" stroke="#000000" points="326.4231,-187 323.4231,-191 302.4231,-191 299.4231,-187 227.5769,-187 227.5769,-151 326.4231,-151 326.4231,-187"/>
<text text-anchor="middle" x="277" y="-164.8" font-family="Times,serif" font-size="14.00" fill="#000000">TsIconModule</text>
</g>
<!-- TsIconModule&#45;&gt;TsInputModule -->
<g id="edge4" class="edge">
<title>TsIconModule&#45;&gt;TsInputModule</title>
<path fill="none" stroke="#000000" d="M315.831,-187.1061C315.831,-187.1061 315.831,-205.991 315.831,-205.991"/>
<polygon fill="#000000" stroke="#000000" points="312.3311,-205.9909 315.831,-215.991 319.3311,-205.991 312.3311,-205.9909"/>
</g>
<!-- TsValidatorsService -->
<g id="node7" class="node">
<title>TsValidatorsService</title>
<ellipse fill="#fdb462" stroke="#000000" cx="114" cy="-169" rx="89.7402" ry="18"/>
<text text-anchor="middle" x="114" y="-164.8" font-family="Times,serif" font-size="14.00" fill="#000000">TsValidatorsService</text>
</g>
<!-- TsValidatorsService&#45;&gt;TsInputModule -->
<g id="edge6" class="edge">
<title>TsValidatorsService&#45;&gt;TsInputModule</title>
<path fill="none" stroke="#000000" d="M114,-187.1061C114,-206.3391 114,-234 114,-234 114,-234 295.1685,-234 295.1685,-234"/>
<polygon fill="#000000" stroke="#000000" points="295.1685,-237.5001 305.1685,-234 295.1684,-230.5001 295.1685,-237.5001"/>
</g>
</g>
</svg>
