<?xml version="1.0" encoding="UTF-8" standalone="no"?>
<!DOCTYPE svg PUBLIC "-//W3C//DTD SVG 1.1//EN"
 "http://www.w3.org/Graphics/SVG/1.1/DTD/svg11.dtd">
<!-- Generated by graphviz version 2.40.1 (20161225.0304)
 -->
<!-- Title: dependencies Pages: 1 -->
<svg width="504pt" height="284pt"
 viewBox="0.00 0.00 504.00 284.00" xmlns="http://www.w3.org/2000/svg" xmlns:xlink="http://www.w3.org/1999/xlink">
<g id="graph0" class="graph" transform="scale(1 1) rotate(0) translate(4 280)">
<title>dependencies</title>
<polygon fill="#ffffff" stroke="transparent" points="-4,4 -4,-280 500,-280 500,4 -4,4"/>
<text text-anchor="start" x="227.0091" y="-42.4" font-family="sans-serif" font-weight="bold" font-size="14.00" fill="#000000">Legend</text>
<polygon fill="#ffffb3" stroke="transparent" points="14,-10 14,-30 34,-30 34,-10 14,-10"/>
<text text-anchor="start" x="37.629" y="-15.4" font-family="sans-serif" font-size="14.00" fill="#000000"> &#160;Declarations</text>
<polygon fill="#8dd3c7" stroke="transparent" points="127,-10 127,-30 147,-30 147,-10 127,-10"/>
<text text-anchor="start" x="150.7251" y="-15.4" font-family="sans-serif" font-size="14.00" fill="#000000"> &#160;Module</text>
<polygon fill="#80b1d3" stroke="transparent" points="213,-10 213,-30 233,-30 233,-10 213,-10"/>
<text text-anchor="start" x="236.7812" y="-15.4" font-family="sans-serif" font-size="14.00" fill="#000000"> &#160;Bootstrap</text>
<polygon fill="#fdb462" stroke="transparent" points="310,-10 310,-30 330,-30 330,-10 310,-10"/>
<text text-anchor="start" x="333.6732" y="-15.4" font-family="sans-serif" font-size="14.00" fill="#000000"> &#160;Providers</text>
<polygon fill="#fb8072" stroke="transparent" points="406,-10 406,-30 426,-30 426,-10 406,-10"/>
<text text-anchor="start" x="429.7258" y="-15.4" font-family="sans-serif" font-size="14.00" fill="#000000"> &#160;Exports</text>
<g id="clust1" class="cluster">
<title>cluster_TsSelectModule</title>
<polygon fill="none" stroke="#000000" stroke-dasharray="1,5" points="61,-70 61,-268 435,-268 435,-70 61,-70"/>
</g>
<g id="clust2" class="cluster">
<title>cluster_TsSelectModule_declarations</title>
<polygon fill="none" stroke="#000000" points="281,-78 281,-130 427,-130 427,-78 281,-78"/>
</g>
<g id="clust4" class="cluster">
<title>cluster_TsSelectModule_imports</title>
<polygon fill="none" stroke="#000000" points="69,-78 69,-130 273,-130 273,-78 69,-78"/>
</g>
<g id="clust5" class="cluster">
<title>cluster_TsSelectModule_exports</title>
<polygon fill="none" stroke="#000000" points="186,-208 186,-260 336,-260 336,-208 186,-208"/>
</g>
<!-- TsSelectComponent -->
<g id="node1" class="node">
<title>TsSelectComponent</title>
<polygon fill="#ffffb3" stroke="#000000" points="418.538,-122 289.462,-122 289.462,-86 418.538,-86 418.538,-122"/>
<text text-anchor="middle" x="354" y="-99.8" font-family="Times,serif" font-size="14.00" fill="#000000">TsSelectComponent</text>
</g>
<!-- TsSelectModule -->
<g id="node2" class="node">
<title>TsSelectModule</title>
<polygon fill="#8dd3c7" stroke="#000000" points="314.7549,-187 311.7549,-191 290.7549,-191 287.7549,-187 207.2451,-187 207.2451,-151 314.7549,-151 314.7549,-187"/>
<text text-anchor="middle" x="261" y="-164.8" font-family="Times,serif" font-size="14.00" fill="#000000">TsSelectModule</text>
</g>
<!-- TsSelectComponent&#45;&gt;TsSelectModule -->
<g id="edge1" class="edge">
<title>TsSelectComponent&#45;&gt;TsSelectModule</title>
<path fill="none" stroke="#000000" d="M302.0544,-122.1061C302.0544,-122.1061 302.0544,-140.991 302.0544,-140.991"/>
<polygon fill="#000000" stroke="#000000" points="298.5544,-140.9909 302.0544,-150.991 305.5544,-140.991 298.5544,-140.9909"/>
</g>
<!-- TsSelectComponent  -->
<g id="node4" class="node">
<title>TsSelectComponent </title>
<polygon fill="#fb8072" stroke="#000000" points="327.5372,-252 194.4628,-252 194.4628,-216 327.5372,-216 327.5372,-252"/>
<text text-anchor="middle" x="261" y="-229.8" font-family="Times,serif" font-size="14.00" fill="#000000">TsSelectComponent </text>
</g>
<!-- TsSelectModule&#45;&gt;TsSelectComponent  -->
<g id="edge3" class="edge">
<title>TsSelectModule&#45;&gt;TsSelectComponent </title>
<path fill="none" stroke="#000000" stroke-dasharray="5,2" d="M261,-187.1061C261,-187.1061 261,-205.991 261,-205.991"/>
<polygon fill="#000000" stroke="#000000" points="257.5001,-205.9909 261,-215.991 264.5001,-205.991 257.5001,-205.9909"/>
</g>
<!-- TsValidationMessagesModule -->
<g id="node3" class="node">
<title>TsValidationMessagesModule</title>
<polygon fill="#8dd3c7" stroke="#000000" points="264.5674,-122 261.5674,-126 240.5674,-126 237.5674,-122 77.4326,-122 77.4326,-86 264.5674,-86 264.5674,-122"/>
<text text-anchor="middle" x="171" y="-99.8" font-family="Times,serif" font-size="14.00" fill="#000000">TsValidationMessagesModule</text>
</g>
<!-- TsValidationMessagesModule&#45;&gt;TsSelectModule -->
<g id="edge2" class="edge">
<title>TsValidationMessagesModule&#45;&gt;TsSelectModule</title>
<path fill="none" stroke="#000000" d="M235.8282,-122.1061C235.8282,-122.1061 235.8282,-140.991 235.8282,-140.991"/>
<polygon fill="#000000" stroke="#000000" points="232.3283,-140.9909 235.8282,-150.991 239.3283,-140.991 232.3283,-140.9909"/>
</g>
</g>
</svg>
