<?xml version="1.0" encoding="UTF-8" standalone="no"?>
<!DOCTYPE svg PUBLIC "-//W3C//DTD SVG 1.1//EN"
 "http://www.w3.org/Graphics/SVG/1.1/DTD/svg11.dtd">
<!-- Generated by graphviz version 2.40.1 (20161225.0304)
 -->
<!-- Title: dependencies Pages: 1 -->
<svg width="716pt" height="349pt"
 viewBox="0.00 0.00 716.00 349.00" xmlns="http://www.w3.org/2000/svg" xmlns:xlink="http://www.w3.org/1999/xlink">
<g id="graph0" class="graph" transform="scale(1 1) rotate(0) translate(4 345)">
<title>dependencies</title>
<polygon fill="#ffffff" stroke="transparent" points="-4,4 -4,-345 712,-345 712,4 -4,4"/>
<text text-anchor="start" x="333.0091" y="-42.4" font-family="sans-serif" font-weight="bold" font-size="14.00" fill="#000000">Legend</text>
<polygon fill="#ffffb3" stroke="transparent" points="120,-10 120,-30 140,-30 140,-10 120,-10"/>
<text text-anchor="start" x="143.629" y="-15.4" font-family="sans-serif" font-size="14.00" fill="#000000"> &#160;Declarations</text>
<polygon fill="#8dd3c7" stroke="transparent" points="233,-10 233,-30 253,-30 253,-10 233,-10"/>
<text text-anchor="start" x="256.7251" y="-15.4" font-family="sans-serif" font-size="14.00" fill="#000000"> &#160;Module</text>
<polygon fill="#80b1d3" stroke="transparent" points="319,-10 319,-30 339,-30 339,-10 319,-10"/>
<text text-anchor="start" x="342.7812" y="-15.4" font-family="sans-serif" font-size="14.00" fill="#000000"> &#160;Bootstrap</text>
<polygon fill="#fdb462" stroke="transparent" points="416,-10 416,-30 436,-30 436,-10 416,-10"/>
<text text-anchor="start" x="439.6732" y="-15.4" font-family="sans-serif" font-size="14.00" fill="#000000"> &#160;Providers</text>
<polygon fill="#fb8072" stroke="transparent" points="512,-10 512,-30 532,-30 532,-10 512,-10"/>
<text text-anchor="start" x="535.7258" y="-15.4" font-family="sans-serif" font-size="14.00" fill="#000000"> &#160;Exports</text>
<g id="clust1" class="cluster">
<title>cluster_TsSelectModule</title>
<polygon fill="none" stroke="#000000" stroke-dasharray="1,5" points="8,-70 8,-333 700,-333 700,-70 8,-70"/>
</g>
<g id="clust2" class="cluster">
<title>cluster_TsSelectModule_declarations</title>
<polygon fill="none" stroke="#000000" points="396,-143 396,-195 542,-195 542,-143 396,-143"/>
</g>
<g id="clust3" class="cluster">
<title>cluster_TsSelectModule_TsSelectComponent_providers</title>
<polygon fill="none" stroke="#000000" points="16,-78 16,-130 692,-130 692,-78 16,-78"/>
</g>
<g id="clust4" class="cluster">
<title>cluster_TsSelectModule_imports</title>
<polygon fill="none" stroke="#000000" points="16,-143 16,-195 388,-195 388,-143 16,-143"/>
</g>
<g id="clust5" class="cluster">
<title>cluster_TsSelectModule_exports</title>
<polygon fill="none" stroke="#000000" points="188,-273 188,-325 338,-325 338,-273 188,-273"/>
</g>
<!-- TsSelectComponent -->
<g id="node1" class="node">
<title>TsSelectComponent</title>
<polygon fill="#ffffb3" stroke="#000000" points="533.538,-187 404.462,-187 404.462,-151 533.538,-151 533.538,-187"/>
<text text-anchor="middle" x="469" y="-164.8" font-family="Times,serif" font-size="14.00" fill="#000000">TsSelectComponent</text>
</g>
<!-- TsSelectModule -->
<g id="node2" class="node">
<title>TsSelectModule</title>
<polygon fill="#8dd3c7" stroke="#000000" points="316.7549,-252 313.7549,-256 292.7549,-256 289.7549,-252 209.2451,-252 209.2451,-216 316.7549,-216 316.7549,-252"/>
<text text-anchor="middle" x="263" y="-229.8" font-family="Times,serif" font-size="14.00" fill="#000000">TsSelectModule</text>
</g>
<!-- TsSelectComponent&#45;&gt;TsSelectModule -->
<g id="edge1" class="edge">
<title>TsSelectComponent&#45;&gt;TsSelectModule</title>
<path fill="none" stroke="#000000" d="M469,-187.1061C469,-206.3391 469,-234 469,-234 469,-234 326.855,-234 326.855,-234"/>
<polygon fill="#000000" stroke="#000000" points="326.855,-230.5001 316.855,-234 326.855,-237.5001 326.855,-230.5001"/>
</g>
<!-- TsSelectComponent  -->
<g id="node7" class="node">
<title>TsSelectComponent </title>
<polygon fill="#fb8072" stroke="#000000" points="329.5372,-317 196.4628,-317 196.4628,-281 329.5372,-281 329.5372,-317"/>
<text text-anchor="middle" x="263" y="-294.8" font-family="Times,serif" font-size="14.00" fill="#000000">TsSelectComponent </text>
</g>
<!-- TsSelectModule&#45;&gt;TsSelectComponent  -->
<g id="edge6" class="edge">
<title>TsSelectModule&#45;&gt;TsSelectComponent </title>
<path fill="none" stroke="#000000" stroke-dasharray="5,2" d="M263,-252.1061C263,-252.1061 263,-270.991 263,-270.991"/>
<polygon fill="#000000" stroke="#000000" points="259.5001,-270.9909 263,-280.991 266.5001,-270.991 259.5001,-270.9909"/>
</g>
<!-- { provide: NG_VALUE_ACCESSOR, useExisting: TsSelectComponent, multi: &#160;} -->
<g id="node3" class="node">
<title>{ provide: NG_VALUE_ACCESSOR, useExisting: TsSelectComponent, multi: &#160;}</title>
<ellipse fill="#fdb462" stroke="#000000" cx="354" cy="-104" rx="329.6301" ry="18"/>
<text text-anchor="middle" x="354" y="-99.8" font-family="Times,serif" font-size="14.00" fill="#000000">{ provide: NG_VALUE_ACCESSOR, useExisting: TsSelectComponent, multi: &#160;}</text>
</g>
<!-- { provide: NG_VALUE_ACCESSOR, useExisting: TsSelectComponent, multi: &#160;}&#45;&gt;TsSelectComponent -->
<g id="edge2" class="edge">
<title>{ provide: NG_VALUE_ACCESSOR, useExisting: TsSelectComponent, multi: &#160;}&#45;&gt;TsSelectComponent</title>
<path fill="none" stroke="#000000" d="M469,-121.078C469,-121.078 469,-140.8993 469,-140.8993"/>
<polygon fill="#000000" stroke="#000000" points="465.5001,-140.8992 469,-150.8993 472.5001,-140.8993 465.5001,-140.8992"/>
</g>
<!-- CommonModule -->
<g id="node4" class="node">
<title>CommonModule</title>
<polygon fill="#8dd3c7" stroke="#000000" points="379.6681,-187 376.6681,-191 355.6681,-191 352.6681,-187 268.3319,-187 268.3319,-151 379.6681,-151 379.6681,-187"/>
<text text-anchor="middle" x="324" y="-164.8" font-family="Times,serif" font-size="14.00" fill="#000000">CommonModule</text>
</g>
<!-- CommonModule&#45;&gt;TsSelectModule -->
<g id="edge3" class="edge">
<title>CommonModule&#45;&gt;TsSelectModule</title>
<path fill="none" stroke="#000000" d="M292.5218,-187.1061C292.5218,-187.1061 292.5218,-205.991 292.5218,-205.991"/>
<polygon fill="#000000" stroke="#000000" points="289.0218,-205.9909 292.5218,-215.991 296.0218,-205.991 289.0218,-205.9909"/>
</g>
<!-- FormsModule -->
<g id="node5" class="node">
<title>FormsModule</title>
<polygon fill="#8dd3c7" stroke="#000000" points="250.8288,-187 247.8288,-191 226.8288,-191 223.8288,-187 155.1712,-187 155.1712,-151 250.8288,-151 250.8288,-187"/>
<text text-anchor="middle" x="203" y="-164.8" font-family="Times,serif" font-size="14.00" fill="#000000">FormsModule</text>
</g>
<!-- FormsModule&#45;&gt;TsSelectModule -->
<g id="edge4" class="edge">
<title>FormsModule&#45;&gt;TsSelectModule</title>
<path fill="none" stroke="#000000" d="M229.8934,-187.1061C229.8934,-187.1061 229.8934,-205.991 229.8934,-205.991"/>
<polygon fill="#000000" stroke="#000000" points="226.3935,-205.9909 229.8934,-215.991 233.3935,-205.991 226.3935,-205.9909"/>
</g>
<!-- MdSelectModule -->
<g id="node6" class="node">
<title>MdSelectModule</title>
<polygon fill="#8dd3c7" stroke="#000000" points="137.7022,-187 134.7022,-191 113.7022,-191 110.7022,-187 24.2978,-187 24.2978,-151 137.7022,-151 137.7022,-187"/>
<text text-anchor="middle" x="81" y="-164.8" font-family="Times,serif" font-size="14.00" fill="#000000">MdSelectModule</text>
</g>
<!-- MdSelectModule&#45;&gt;TsSelectModule -->
<g id="edge5" class="edge">
<title>MdSelectModule&#45;&gt;TsSelectModule</title>
<path fill="none" stroke="#000000" d="M81,-187.1061C81,-206.3391 81,-234 81,-234 81,-234 198.8868,-234 198.8868,-234"/>
<polygon fill="#000000" stroke="#000000" points="198.8868,-237.5001 208.8868,-234 198.8867,-230.5001 198.8868,-237.5001"/>
</g>
</g>
</svg>
