<?xml version="1.0" encoding="UTF-8" standalone="no"?>
<!DOCTYPE svg PUBLIC "-//W3C//DTD SVG 1.1//EN"
 "http://www.w3.org/Graphics/SVG/1.1/DTD/svg11.dtd">
<!-- Generated by graphviz version 2.40.1 (20161225.0304)
 -->
<!-- Title: dependencies Pages: 1 -->
<svg width="524pt" height="349pt"
 viewBox="0.00 0.00 524.00 349.00" xmlns="http://www.w3.org/2000/svg" xmlns:xlink="http://www.w3.org/1999/xlink">
<g id="graph0" class="graph" transform="scale(1 1) rotate(0) translate(4 345)">
<title>dependencies</title>
<polygon fill="#ffffff" stroke="transparent" points="-4,4 -4,-345 520,-345 520,4 -4,4"/>
<text text-anchor="start" x="237.0091" y="-42.4" font-family="sans-serif" font-weight="bold" font-size="14.00" fill="#000000">Legend</text>
<polygon fill="#ffffb3" stroke="transparent" points="24,-10 24,-30 44,-30 44,-10 24,-10"/>
<text text-anchor="start" x="47.629" y="-15.4" font-family="sans-serif" font-size="14.00" fill="#000000"> &#160;Declarations</text>
<polygon fill="#8dd3c7" stroke="transparent" points="137,-10 137,-30 157,-30 157,-10 137,-10"/>
<text text-anchor="start" x="160.7251" y="-15.4" font-family="sans-serif" font-size="14.00" fill="#000000"> &#160;Module</text>
<polygon fill="#80b1d3" stroke="transparent" points="223,-10 223,-30 243,-30 243,-10 223,-10"/>
<text text-anchor="start" x="246.7812" y="-15.4" font-family="sans-serif" font-size="14.00" fill="#000000"> &#160;Bootstrap</text>
<polygon fill="#fdb462" stroke="transparent" points="320,-10 320,-30 340,-30 340,-10 320,-10"/>
<text text-anchor="start" x="343.6732" y="-15.4" font-family="sans-serif" font-size="14.00" fill="#000000"> &#160;Providers</text>
<polygon fill="#fb8072" stroke="transparent" points="416,-10 416,-30 436,-30 436,-10 416,-10"/>
<text text-anchor="start" x="439.7258" y="-15.4" font-family="sans-serif" font-size="14.00" fill="#000000"> &#160;Exports</text>
<g id="clust1" class="cluster">
<title>cluster_TsSelectModule</title>
<polygon fill="none" stroke="#000000" stroke-dasharray="1,5" points="8,-70 8,-333 508,-333 508,-70 8,-70"/>
</g>
<g id="clust2" class="cluster">
<title>cluster_TsSelectModule_declarations</title>
<polygon fill="none" stroke="#000000" points="228,-143 228,-195 374,-195 374,-143 228,-143"/>
</g>
<g id="clust3" class="cluster">
<title>cluster_TsSelectModule_TsSelectComponent_providers</title>
<polygon fill="none" stroke="#000000" points="16,-78 16,-130 500,-130 500,-78 16,-78"/>
</g>
<g id="clust4" class="cluster">
<title>cluster_TsSelectModule_imports</title>
<polygon fill="none" stroke="#000000" points="16,-143 16,-195 220,-195 220,-143 16,-143"/>
</g>
<g id="clust5" class="cluster">
<title>cluster_TsSelectModule_exports</title>
<polygon fill="none" stroke="#000000" points="134,-273 134,-325 284,-325 284,-273 134,-273"/>
</g>
<!-- TsSelectComponent -->
<g id="node1" class="node">
<title>TsSelectComponent</title>
<polygon fill="#ffffb3" stroke="#000000" points="365.538,-187 236.462,-187 236.462,-151 365.538,-151 365.538,-187"/>
<text text-anchor="middle" x="301" y="-164.8" font-family="Times,serif" font-size="14.00" fill="#000000">TsSelectComponent</text>
</g>
<!-- TsSelectModule -->
<g id="node2" class="node">
<title>TsSelectModule</title>
<polygon fill="#8dd3c7" stroke="#000000" points="262.7549,-252 259.7549,-256 238.7549,-256 235.7549,-252 155.2451,-252 155.2451,-216 262.7549,-216 262.7549,-252"/>
<text text-anchor="middle" x="209" y="-229.8" font-family="Times,serif" font-size="14.00" fill="#000000">TsSelectModule</text>
</g>
<!-- TsSelectComponent&#45;&gt;TsSelectModule -->
<g id="edge1" class="edge">
<title>TsSelectComponent&#45;&gt;TsSelectModule</title>
<path fill="none" stroke="#000000" d="M249.5544,-187.1061C249.5544,-187.1061 249.5544,-205.991 249.5544,-205.991"/>
<polygon fill="#000000" stroke="#000000" points="246.0544,-205.9909 249.5544,-215.991 253.0544,-205.991 246.0544,-205.9909"/>
</g>
<!-- TsSelectComponent  -->
<g id="node5" class="node">
<title>TsSelectComponent </title>
<polygon fill="#fb8072" stroke="#000000" points="275.5372,-317 142.4628,-317 142.4628,-281 275.5372,-281 275.5372,-317"/>
<text text-anchor="middle" x="209" y="-294.8" font-family="Times,serif" font-size="14.00" fill="#000000">TsSelectComponent </text>
</g>
<!-- TsSelectModule&#45;&gt;TsSelectComponent  -->
<g id="edge4" class="edge">
<title>TsSelectModule&#45;&gt;TsSelectComponent </title>
<path fill="none" stroke="#000000" stroke-dasharray="5,2" d="M209,-252.1061C209,-252.1061 209,-270.991 209,-270.991"/>
<polygon fill="#000000" stroke="#000000" points="205.5001,-270.9909 209,-280.991 212.5001,-270.991 205.5001,-270.9909"/>
</g>
<!-- CUSTOM_SELECT_CONTROL_VALUE_ACCESSOR -->
<g id="node3" class="node">
<title>CUSTOM_SELECT_CONTROL_VALUE_ACCESSOR</title>
<ellipse fill="#fdb462" stroke="#000000" cx="258" cy="-104" rx="234.394" ry="18"/>
<text text-anchor="middle" x="258" y="-99.8" font-family="Times,serif" font-size="14.00" fill="#000000">CUSTOM_SELECT_CONTROL_VALUE_ACCESSOR</text>
</g>
<!-- CUSTOM_SELECT_CONTROL_VALUE_ACCESSOR&#45;&gt;TsSelectComponent -->
<g id="edge2" class="edge">
<title>CUSTOM_SELECT_CONTROL_VALUE_ACCESSOR&#45;&gt;TsSelectComponent</title>
<path fill="none" stroke="#000000" d="M301,-121.7615C301,-121.7615 301,-140.8074 301,-140.8074"/>
<polygon fill="#000000" stroke="#000000" points="297.5001,-140.8074 301,-150.8074 304.5001,-140.8075 297.5001,-140.8074"/>
</g>
<!-- TsValidationMessagesModule -->
<g id="node4" class="node">
<title>TsValidationMessagesModule</title>
<polygon fill="#8dd3c7" stroke="#000000" points="211.5674,-187 208.5674,-191 187.5674,-191 184.5674,-187 24.4326,-187 24.4326,-151 211.5674,-151 211.5674,-187"/>
<text text-anchor="middle" x="118" y="-164.8" font-family="Times,serif" font-size="14.00" fill="#000000">TsValidationMessagesModule</text>
</g>
<!-- TsValidationMessagesModule&#45;&gt;TsSelectModule -->
<g id="edge3" class="edge">
<title>TsValidationMessagesModule&#45;&gt;TsSelectModule</title>
<path fill="none" stroke="#000000" d="M183.3282,-187.1061C183.3282,-187.1061 183.3282,-205.991 183.3282,-205.991"/>
<polygon fill="#000000" stroke="#000000" points="179.8283,-205.9909 183.3282,-215.991 186.8283,-205.991 179.8283,-205.9909"/>
</g>
</g>
</svg>
