<?xml version="1.0" encoding="UTF-8" standalone="no"?>
<!DOCTYPE svg PUBLIC "-//W3C//DTD SVG 1.1//EN"
 "http://www.w3.org/Graphics/SVG/1.1/DTD/svg11.dtd">
<!-- Generated by graphviz version 2.40.1 (20161225.0304)
 -->
<!-- Title: dependencies Pages: 1 -->
<svg width="504pt" height="284pt"
 viewBox="0.00 0.00 504.00 284.00" xmlns="http://www.w3.org/2000/svg" xmlns:xlink="http://www.w3.org/1999/xlink">
<g id="graph0" class="graph" transform="scale(1 1) rotate(0) translate(4 280)">
<title>dependencies</title>
<polygon fill="#ffffff" stroke="transparent" points="-4,4 -4,-280 500,-280 500,4 -4,4"/>
<text text-anchor="start" x="227.0091" y="-42.4" font-family="sans-serif" font-weight="bold" font-size="14.00" fill="#000000">Legend</text>
<polygon fill="#ffffb3" stroke="transparent" points="14,-10 14,-30 34,-30 34,-10 14,-10"/>
<text text-anchor="start" x="37.629" y="-15.4" font-family="sans-serif" font-size="14.00" fill="#000000"> &#160;Declarations</text>
<polygon fill="#8dd3c7" stroke="transparent" points="127,-10 127,-30 147,-30 147,-10 127,-10"/>
<text text-anchor="start" x="150.7251" y="-15.4" font-family="sans-serif" font-size="14.00" fill="#000000"> &#160;Module</text>
<polygon fill="#80b1d3" stroke="transparent" points="213,-10 213,-30 233,-30 233,-10 213,-10"/>
<text text-anchor="start" x="236.7812" y="-15.4" font-family="sans-serif" font-size="14.00" fill="#000000"> &#160;Bootstrap</text>
<polygon fill="#fdb462" stroke="transparent" points="310,-10 310,-30 330,-30 330,-10 310,-10"/>
<text text-anchor="start" x="333.6732" y="-15.4" font-family="sans-serif" font-size="14.00" fill="#000000"> &#160;Providers</text>
<polygon fill="#fb8072" stroke="transparent" points="406,-10 406,-30 426,-30 426,-10 406,-10"/>
<text text-anchor="start" x="429.7258" y="-15.4" font-family="sans-serif" font-size="14.00" fill="#000000"> &#160;Exports</text>
<g id="clust1" class="cluster">
<title>cluster_TsRadioGroupModule</title>
<polygon fill="none" stroke="#000000" stroke-dasharray="1,5" points="44,-70 44,-268 452,-268 452,-70 44,-70"/>
</g>
<g id="clust2" class="cluster">
<title>cluster_TsRadioGroupModule_declarations</title>
<polygon fill="none" stroke="#000000" points="264,-78 264,-130 444,-130 444,-78 264,-78"/>
</g>
<g id="clust4" class="cluster">
<title>cluster_TsRadioGroupModule_imports</title>
<polygon fill="none" stroke="#000000" points="52,-78 52,-130 256,-130 256,-78 52,-78"/>
</g>
<g id="clust5" class="cluster">
<title>cluster_TsRadioGroupModule_exports</title>
<polygon fill="none" stroke="#000000" points="161,-208 161,-260 345,-260 345,-208 161,-208"/>
</g>
<!-- TsRadioGroupComponent -->
<g id="node1" class="node">
<title>TsRadioGroupComponent</title>
<polygon fill="#ffffb3" stroke="#000000" points="436.0392,-122 271.9608,-122 271.9608,-86 436.0392,-86 436.0392,-122"/>
<text text-anchor="middle" x="354" y="-99.8" font-family="Times,serif" font-size="14.00" fill="#000000">TsRadioGroupComponent</text>
</g>
<!-- TsRadioGroupModule -->
<g id="node2" class="node">
<title>TsRadioGroupModule</title>
<polygon fill="#8dd3c7" stroke="#000000" points="324.2562,-187 321.2562,-191 300.2562,-191 297.2562,-187 181.7438,-187 181.7438,-151 324.2562,-151 324.2562,-187"/>
<text text-anchor="middle" x="253" y="-164.8" font-family="Times,serif" font-size="14.00" fill="#000000">TsRadioGroupModule</text>
</g>
<!-- TsRadioGroupComponent&#45;&gt;TsRadioGroupModule -->
<g id="edge1" class="edge">
<title>TsRadioGroupComponent&#45;&gt;TsRadioGroupModule</title>
<path fill="none" stroke="#000000" d="M298.0544,-122.1061C298.0544,-122.1061 298.0544,-140.991 298.0544,-140.991"/>
<polygon fill="#000000" stroke="#000000" points="294.5544,-140.9909 298.0544,-150.991 301.5544,-140.991 294.5544,-140.9909"/>
</g>
<!-- TsRadioGroupComponent  -->
<g id="node4" class="node">
<title>TsRadioGroupComponent </title>
<polygon fill="#fb8072" stroke="#000000" points="337.0386,-252 168.9614,-252 168.9614,-216 337.0386,-216 337.0386,-252"/>
<text text-anchor="middle" x="253" y="-229.8" font-family="Times,serif" font-size="14.00" fill="#000000">TsRadioGroupComponent </text>
</g>
<!-- TsRadioGroupModule&#45;&gt;TsRadioGroupComponent  -->
<g id="edge3" class="edge">
<title>TsRadioGroupModule&#45;&gt;TsRadioGroupComponent </title>
<path fill="none" stroke="#000000" stroke-dasharray="5,2" d="M253,-187.1061C253,-187.1061 253,-205.991 253,-205.991"/>
<polygon fill="#000000" stroke="#000000" points="249.5001,-205.9909 253,-215.991 256.5001,-205.991 249.5001,-205.9909"/>
</g>
<!-- TsValidationMessagesModule -->
<g id="node3" class="node">
<title>TsValidationMessagesModule</title>
<polygon fill="#8dd3c7" stroke="#000000" points="247.5674,-122 244.5674,-126 223.5674,-126 220.5674,-122 60.4326,-122 60.4326,-86 247.5674,-86 247.5674,-122"/>
<text text-anchor="middle" x="154" y="-99.8" font-family="Times,serif" font-size="14.00" fill="#000000">TsValidationMessagesModule</text>
</g>
<!-- TsValidationMessagesModule&#45;&gt;TsRadioGroupModule -->
<g id="edge2" class="edge">
<title>TsValidationMessagesModule&#45;&gt;TsRadioGroupModule</title>
<path fill="none" stroke="#000000" d="M214.5779,-122.1061C214.5779,-122.1061 214.5779,-140.991 214.5779,-140.991"/>
<polygon fill="#000000" stroke="#000000" points="211.0779,-140.9909 214.5779,-150.991 218.0779,-140.991 211.0779,-140.9909"/>
</g>
</g>
</svg>
