<?xml version="1.0" encoding="UTF-8" standalone="no"?>
<!DOCTYPE svg PUBLIC "-//W3C//DTD SVG 1.1//EN"
 "http://www.w3.org/Graphics/SVG/1.1/DTD/svg11.dtd">
<!-- Generated by graphviz version 2.40.1 (20161225.0304)
 -->
<!-- Title: dependencies Pages: 1 -->
<svg width="514pt" height="349pt"
 viewBox="0.00 0.00 514.00 349.00" xmlns="http://www.w3.org/2000/svg" xmlns:xlink="http://www.w3.org/1999/xlink">
<g id="graph0" class="graph" transform="scale(1 1) rotate(0) translate(4 345)">
<title>dependencies</title>
<polygon fill="#ffffff" stroke="transparent" points="-4,4 -4,-345 510,-345 510,4 -4,4"/>
<text text-anchor="start" x="232.0091" y="-42.4" font-family="sans-serif" font-weight="bold" font-size="14.00" fill="#000000">Legend</text>
<polygon fill="#ffffb3" stroke="transparent" points="19,-10 19,-30 39,-30 39,-10 19,-10"/>
<text text-anchor="start" x="42.629" y="-15.4" font-family="sans-serif" font-size="14.00" fill="#000000"> &#160;Declarations</text>
<polygon fill="#8dd3c7" stroke="transparent" points="132,-10 132,-30 152,-30 152,-10 132,-10"/>
<text text-anchor="start" x="155.7251" y="-15.4" font-family="sans-serif" font-size="14.00" fill="#000000"> &#160;Module</text>
<polygon fill="#80b1d3" stroke="transparent" points="218,-10 218,-30 238,-30 238,-10 218,-10"/>
<text text-anchor="start" x="241.7812" y="-15.4" font-family="sans-serif" font-size="14.00" fill="#000000"> &#160;Bootstrap</text>
<polygon fill="#fdb462" stroke="transparent" points="315,-10 315,-30 335,-30 335,-10 315,-10"/>
<text text-anchor="start" x="338.6732" y="-15.4" font-family="sans-serif" font-size="14.00" fill="#000000"> &#160;Providers</text>
<polygon fill="#fb8072" stroke="transparent" points="411,-10 411,-30 431,-30 431,-10 411,-10"/>
<text text-anchor="start" x="434.7258" y="-15.4" font-family="sans-serif" font-size="14.00" fill="#000000"> &#160;Exports</text>
<g id="clust1" class="cluster">
<title>cluster_TsRadioGroupModule</title>
<polygon fill="none" stroke="#000000" stroke-dasharray="1,5" points="8,-70 8,-333 498,-333 498,-70 8,-70"/>
</g>
<g id="clust2" class="cluster">
<title>cluster_TsRadioGroupModule_declarations</title>
<polygon fill="none" stroke="#000000" points="228,-143 228,-195 408,-195 408,-143 228,-143"/>
</g>
<g id="clust3" class="cluster">
<title>cluster_TsRadioGroupModule_TsRadioGroupComponent_providers</title>
<polygon fill="none" stroke="#000000" points="16,-78 16,-130 490,-130 490,-78 16,-78"/>
</g>
<g id="clust4" class="cluster">
<title>cluster_TsRadioGroupModule_imports</title>
<polygon fill="none" stroke="#000000" points="16,-143 16,-195 220,-195 220,-143 16,-143"/>
</g>
<g id="clust5" class="cluster">
<title>cluster_TsRadioGroupModule_exports</title>
<polygon fill="none" stroke="#000000" points="126,-273 126,-325 310,-325 310,-273 126,-273"/>
</g>
<!-- TsRadioGroupComponent -->
<g id="node1" class="node">
<title>TsRadioGroupComponent</title>
<polygon fill="#ffffb3" stroke="#000000" points="400.0392,-187 235.9608,-187 235.9608,-151 400.0392,-151 400.0392,-187"/>
<text text-anchor="middle" x="318" y="-164.8" font-family="Times,serif" font-size="14.00" fill="#000000">TsRadioGroupComponent</text>
</g>
<!-- TsRadioGroupModule -->
<g id="node2" class="node">
<title>TsRadioGroupModule</title>
<polygon fill="#8dd3c7" stroke="#000000" points="289.2562,-252 286.2562,-256 265.2562,-256 262.2562,-252 146.7438,-252 146.7438,-216 289.2562,-216 289.2562,-252"/>
<text text-anchor="middle" x="218" y="-229.8" font-family="Times,serif" font-size="14.00" fill="#000000">TsRadioGroupModule</text>
</g>
<!-- TsRadioGroupComponent&#45;&gt;TsRadioGroupModule -->
<g id="edge1" class="edge">
<title>TsRadioGroupComponent&#45;&gt;TsRadioGroupModule</title>
<path fill="none" stroke="#000000" d="M262.5544,-187.1061C262.5544,-187.1061 262.5544,-205.991 262.5544,-205.991"/>
<polygon fill="#000000" stroke="#000000" points="259.0544,-205.9909 262.5544,-215.991 266.0544,-205.991 259.0544,-205.9909"/>
</g>
<!-- TsRadioGroupComponent  -->
<g id="node5" class="node">
<title>TsRadioGroupComponent </title>
<polygon fill="#fb8072" stroke="#000000" points="302.0386,-317 133.9614,-317 133.9614,-281 302.0386,-281 302.0386,-317"/>
<text text-anchor="middle" x="218" y="-294.8" font-family="Times,serif" font-size="14.00" fill="#000000">TsRadioGroupComponent </text>
</g>
<!-- TsRadioGroupModule&#45;&gt;TsRadioGroupComponent  -->
<g id="edge4" class="edge">
<title>TsRadioGroupModule&#45;&gt;TsRadioGroupComponent </title>
<path fill="none" stroke="#000000" stroke-dasharray="5,2" d="M218,-252.1061C218,-252.1061 218,-270.991 218,-270.991"/>
<polygon fill="#000000" stroke="#000000" points="214.5001,-270.9909 218,-280.991 221.5001,-270.991 214.5001,-270.9909"/>
</g>
<!-- CUSTOM_RADIO_CONTROL_VALUE_ACCESSOR -->
<g id="node3" class="node">
<title>CUSTOM_RADIO_CONTROL_VALUE_ACCESSOR</title>
<ellipse fill="#fdb462" stroke="#000000" cx="253" cy="-104" rx="229.2196" ry="18"/>
<text text-anchor="middle" x="253" y="-99.8" font-family="Times,serif" font-size="14.00" fill="#000000">CUSTOM_RADIO_CONTROL_VALUE_ACCESSOR</text>
</g>
<!-- CUSTOM_RADIO_CONTROL_VALUE_ACCESSOR&#45;&gt;TsRadioGroupComponent -->
<g id="edge2" class="edge">
<title>CUSTOM_RADIO_CONTROL_VALUE_ACCESSOR&#45;&gt;TsRadioGroupComponent</title>
<path fill="none" stroke="#000000" d="M318,-121.4188C318,-121.4188 318,-140.6234 318,-140.6234"/>
<polygon fill="#000000" stroke="#000000" points="314.5001,-140.6234 318,-150.6234 321.5001,-140.6234 314.5001,-140.6234"/>
</g>
<!-- TsValidationMessagesModule -->
<g id="node4" class="node">
<title>TsValidationMessagesModule</title>
<polygon fill="#8dd3c7" stroke="#000000" points="211.5674,-187 208.5674,-191 187.5674,-191 184.5674,-187 24.4326,-187 24.4326,-151 211.5674,-151 211.5674,-187"/>
<text text-anchor="middle" x="118" y="-164.8" font-family="Times,serif" font-size="14.00" fill="#000000">TsValidationMessagesModule</text>
</g>
<!-- TsValidationMessagesModule&#45;&gt;TsRadioGroupModule -->
<g id="edge3" class="edge">
<title>TsValidationMessagesModule&#45;&gt;TsRadioGroupModule</title>
<path fill="none" stroke="#000000" d="M179.0779,-187.1061C179.0779,-187.1061 179.0779,-205.991 179.0779,-205.991"/>
<polygon fill="#000000" stroke="#000000" points="175.5779,-205.9909 179.0779,-215.991 182.5779,-205.991 175.5779,-205.9909"/>
</g>
</g>
</svg>
