<?xml version="1.0" encoding="UTF-8" standalone="no"?>
<!DOCTYPE svg PUBLIC "-//W3C//DTD SVG 1.1//EN"
 "http://www.w3.org/Graphics/SVG/1.1/DTD/svg11.dtd">
<!-- Generated by graphviz version 2.40.1 (20161225.0304)
 -->
<!-- Title: dependencies Pages: 1 -->
<svg width="548pt" height="284pt"
 viewBox="0.00 0.00 548.00 284.00" xmlns="http://www.w3.org/2000/svg" xmlns:xlink="http://www.w3.org/1999/xlink">
<g id="graph0" class="graph" transform="scale(1 1) rotate(0) translate(4 280)">
<title>dependencies</title>
<polygon fill="#ffffff" stroke="transparent" points="-4,4 -4,-280 544,-280 544,4 -4,4"/>
<text text-anchor="start" x="249.0091" y="-42.4" font-family="sans-serif" font-weight="bold" font-size="14.00" fill="#000000">Legend</text>
<polygon fill="#ffffb3" stroke="transparent" points="36,-10 36,-30 56,-30 56,-10 36,-10"/>
<text text-anchor="start" x="59.629" y="-15.4" font-family="sans-serif" font-size="14.00" fill="#000000"> &#160;Declarations</text>
<polygon fill="#8dd3c7" stroke="transparent" points="149,-10 149,-30 169,-30 169,-10 149,-10"/>
<text text-anchor="start" x="172.7251" y="-15.4" font-family="sans-serif" font-size="14.00" fill="#000000"> &#160;Module</text>
<polygon fill="#80b1d3" stroke="transparent" points="235,-10 235,-30 255,-30 255,-10 235,-10"/>
<text text-anchor="start" x="258.7812" y="-15.4" font-family="sans-serif" font-size="14.00" fill="#000000"> &#160;Bootstrap</text>
<polygon fill="#fdb462" stroke="transparent" points="332,-10 332,-30 352,-30 352,-10 332,-10"/>
<text text-anchor="start" x="355.6732" y="-15.4" font-family="sans-serif" font-size="14.00" fill="#000000"> &#160;Providers</text>
<polygon fill="#fb8072" stroke="transparent" points="428,-10 428,-30 448,-30 448,-10 428,-10"/>
<text text-anchor="start" x="451.7258" y="-15.4" font-family="sans-serif" font-size="14.00" fill="#000000"> &#160;Exports</text>
<g id="clust1" class="cluster">
<title>cluster_TsRadioGroupModule</title>
<polygon fill="none" stroke="#000000" stroke-dasharray="1,5" points="8,-70 8,-268 532,-268 532,-70 8,-70"/>
</g>
<g id="clust2" class="cluster">
<title>cluster_TsRadioGroupModule_declarations</title>
<polygon fill="none" stroke="#000000" points="344,-78 344,-130 524,-130 524,-78 344,-78"/>
</g>
<g id="clust4" class="cluster">
<title>cluster_TsRadioGroupModule_imports</title>
<polygon fill="none" stroke="#000000" points="16,-78 16,-130 336,-130 336,-78 16,-78"/>
</g>
<g id="clust5" class="cluster">
<title>cluster_TsRadioGroupModule_exports</title>
<polygon fill="none" stroke="#000000" points="187,-208 187,-260 371,-260 371,-208 187,-208"/>
</g>
<!-- TsRadioGroupComponent -->
<g id="node1" class="node">
<title>TsRadioGroupComponent</title>
<polygon fill="#ffffb3" stroke="#000000" points="516.0392,-122 351.9608,-122 351.9608,-86 516.0392,-86 516.0392,-122"/>
<text text-anchor="middle" x="434" y="-99.8" font-family="Times,serif" font-size="14.00" fill="#000000">TsRadioGroupComponent</text>
</g>
<!-- TsRadioGroupModule -->
<g id="node2" class="node">
<title>TsRadioGroupModule</title>
<polygon fill="#8dd3c7" stroke="#000000" points="350.2562,-187 347.2562,-191 326.2562,-191 323.2562,-187 207.7438,-187 207.7438,-151 350.2562,-151 350.2562,-187"/>
<text text-anchor="middle" x="279" y="-164.8" font-family="Times,serif" font-size="14.00" fill="#000000">TsRadioGroupModule</text>
</g>
<!-- TsRadioGroupComponent&#45;&gt;TsRadioGroupModule -->
<g id="edge1" class="edge">
<title>TsRadioGroupComponent&#45;&gt;TsRadioGroupModule</title>
<path fill="none" stroke="#000000" d="M357.375,-122.1061C357.375,-141.3391 357.375,-169 357.375,-169 357.375,-169 356.6795,-169 356.6795,-169"/>
<polygon fill="#000000" stroke="#000000" points="360.4198,-165.5002 350.4197,-169 360.4197,-172.5002 360.4198,-165.5002"/>
</g>
<!-- TsRadioGroupComponent  -->
<g id="node5" class="node">
<title>TsRadioGroupComponent </title>
<polygon fill="#fb8072" stroke="#000000" points="363.0386,-252 194.9614,-252 194.9614,-216 363.0386,-216 363.0386,-252"/>
<text text-anchor="middle" x="279" y="-229.8" font-family="Times,serif" font-size="14.00" fill="#000000">TsRadioGroupComponent </text>
</g>
<!-- TsRadioGroupModule&#45;&gt;TsRadioGroupComponent  -->
<g id="edge4" class="edge">
<title>TsRadioGroupModule&#45;&gt;TsRadioGroupComponent </title>
<path fill="none" stroke="#000000" stroke-dasharray="5,2" d="M279,-187.1061C279,-187.1061 279,-205.991 279,-205.991"/>
<polygon fill="#000000" stroke="#000000" points="275.5001,-205.9909 279,-215.991 282.5001,-205.991 275.5001,-205.9909"/>
</g>
<!-- TsIconModule -->
<g id="node3" class="node">
<title>TsIconModule</title>
<polygon fill="#8dd3c7" stroke="#000000" points="328.4231,-122 325.4231,-126 304.4231,-126 301.4231,-122 229.5769,-122 229.5769,-86 328.4231,-86 328.4231,-122"/>
<text text-anchor="middle" x="279" y="-99.8" font-family="Times,serif" font-size="14.00" fill="#000000">TsIconModule</text>
</g>
<!-- TsIconModule&#45;&gt;TsRadioGroupModule -->
<g id="edge2" class="edge">
<title>TsIconModule&#45;&gt;TsRadioGroupModule</title>
<path fill="none" stroke="#000000" d="M279,-122.1061C279,-122.1061 279,-140.991 279,-140.991"/>
<polygon fill="#000000" stroke="#000000" points="275.5001,-140.9909 279,-150.991 282.5001,-140.991 275.5001,-140.9909"/>
</g>
<!-- TsValidationMessagesModule -->
<g id="node4" class="node">
<title>TsValidationMessagesModule</title>
<polygon fill="#8dd3c7" stroke="#000000" points="211.5674,-122 208.5674,-126 187.5674,-126 184.5674,-122 24.4326,-122 24.4326,-86 211.5674,-86 211.5674,-122"/>
<text text-anchor="middle" x="118" y="-99.8" font-family="Times,serif" font-size="14.00" fill="#000000">TsValidationMessagesModule</text>
</g>
<!-- TsValidationMessagesModule&#45;&gt;TsRadioGroupModule -->
<g id="edge3" class="edge">
<title>TsValidationMessagesModule&#45;&gt;TsRadioGroupModule</title>
<path fill="none" stroke="#000000" d="M201.3013,-122.1061C201.3013,-141.3391 201.3013,-169 201.3013,-169 201.3013,-169 201.9372,-169 201.9372,-169"/>
<polygon fill="#000000" stroke="#000000" points="197.6598,-172.5002 207.6598,-169 197.6597,-165.5002 197.6598,-172.5002"/>
</g>
</g>
</svg>
