<?xml version="1.0" encoding="UTF-8" standalone="no"?>
<!DOCTYPE svg PUBLIC "-//W3C//DTD SVG 1.1//EN"
 "http://www.w3.org/Graphics/SVG/1.1/DTD/svg11.dtd">
<!-- Generated by graphviz version 2.40.1 (20161225.0304)
 -->
<!-- Title: dependencies Pages: 1 -->
<svg width="548pt" height="349pt"
 viewBox="0.00 0.00 548.00 349.00" xmlns="http://www.w3.org/2000/svg" xmlns:xlink="http://www.w3.org/1999/xlink">
<g id="graph0" class="graph" transform="scale(1 1) rotate(0) translate(4 345)">
<title>dependencies</title>
<polygon fill="#ffffff" stroke="transparent" points="-4,4 -4,-345 544,-345 544,4 -4,4"/>
<text text-anchor="start" x="249.0091" y="-42.4" font-family="sans-serif" font-weight="bold" font-size="14.00" fill="#000000">Legend</text>
<polygon fill="#ffffb3" stroke="transparent" points="36,-10 36,-30 56,-30 56,-10 36,-10"/>
<text text-anchor="start" x="59.629" y="-15.4" font-family="sans-serif" font-size="14.00" fill="#000000"> &#160;Declarations</text>
<polygon fill="#8dd3c7" stroke="transparent" points="149,-10 149,-30 169,-30 169,-10 149,-10"/>
<text text-anchor="start" x="172.7251" y="-15.4" font-family="sans-serif" font-size="14.00" fill="#000000"> &#160;Module</text>
<polygon fill="#80b1d3" stroke="transparent" points="235,-10 235,-30 255,-30 255,-10 235,-10"/>
<text text-anchor="start" x="258.7812" y="-15.4" font-family="sans-serif" font-size="14.00" fill="#000000"> &#160;Bootstrap</text>
<polygon fill="#fdb462" stroke="transparent" points="332,-10 332,-30 352,-30 352,-10 332,-10"/>
<text text-anchor="start" x="355.6732" y="-15.4" font-family="sans-serif" font-size="14.00" fill="#000000"> &#160;Providers</text>
<polygon fill="#fb8072" stroke="transparent" points="428,-10 428,-30 448,-30 448,-10 428,-10"/>
<text text-anchor="start" x="451.7258" y="-15.4" font-family="sans-serif" font-size="14.00" fill="#000000"> &#160;Exports</text>
<g id="clust1" class="cluster">
<title>cluster_TsRadioGroupModule</title>
<polygon fill="none" stroke="#000000" stroke-dasharray="1,5" points="8,-70 8,-333 532,-333 532,-70 8,-70"/>
</g>
<g id="clust2" class="cluster">
<title>cluster_TsRadioGroupModule_declarations</title>
<polygon fill="none" stroke="#000000" points="344,-143 344,-195 524,-195 524,-143 344,-143"/>
</g>
<g id="clust3" class="cluster">
<title>cluster_TsRadioGroupModule_TsRadioGroupComponent_providers</title>
<polygon fill="none" stroke="#000000" points="50,-78 50,-130 524,-130 524,-78 50,-78"/>
</g>
<g id="clust4" class="cluster">
<title>cluster_TsRadioGroupModule_imports</title>
<polygon fill="none" stroke="#000000" points="16,-143 16,-195 336,-195 336,-143 16,-143"/>
</g>
<g id="clust5" class="cluster">
<title>cluster_TsRadioGroupModule_exports</title>
<polygon fill="none" stroke="#000000" points="142,-273 142,-325 326,-325 326,-273 142,-273"/>
</g>
<!-- TsRadioGroupComponent -->
<g id="node1" class="node">
<title>TsRadioGroupComponent</title>
<polygon fill="#ffffb3" stroke="#000000" points="516.0392,-187 351.9608,-187 351.9608,-151 516.0392,-151 516.0392,-187"/>
<text text-anchor="middle" x="434" y="-164.8" font-family="Times,serif" font-size="14.00" fill="#000000">TsRadioGroupComponent</text>
</g>
<!-- TsRadioGroupModule -->
<g id="node2" class="node">
<title>TsRadioGroupModule</title>
<polygon fill="#8dd3c7" stroke="#000000" points="305.2562,-252 302.2562,-256 281.2562,-256 278.2562,-252 162.7438,-252 162.7438,-216 305.2562,-216 305.2562,-252"/>
<text text-anchor="middle" x="234" y="-229.8" font-family="Times,serif" font-size="14.00" fill="#000000">TsRadioGroupModule</text>
</g>
<!-- TsRadioGroupComponent&#45;&gt;TsRadioGroupModule -->
<g id="edge1" class="edge">
<title>TsRadioGroupComponent&#45;&gt;TsRadioGroupModule</title>
<path fill="none" stroke="#000000" d="M434,-187.1061C434,-206.3391 434,-234 434,-234 434,-234 315.3576,-234 315.3576,-234"/>
<polygon fill="#000000" stroke="#000000" points="315.3576,-230.5001 305.3576,-234 315.3575,-237.5001 315.3576,-230.5001"/>
</g>
<!-- TsRadioGroupComponent  -->
<g id="node6" class="node">
<title>TsRadioGroupComponent </title>
<polygon fill="#fb8072" stroke="#000000" points="318.0386,-317 149.9614,-317 149.9614,-281 318.0386,-281 318.0386,-317"/>
<text text-anchor="middle" x="234" y="-294.8" font-family="Times,serif" font-size="14.00" fill="#000000">TsRadioGroupComponent </text>
</g>
<!-- TsRadioGroupModule&#45;&gt;TsRadioGroupComponent  -->
<g id="edge5" class="edge">
<title>TsRadioGroupModule&#45;&gt;TsRadioGroupComponent </title>
<path fill="none" stroke="#000000" stroke-dasharray="5,2" d="M234,-252.1061C234,-252.1061 234,-270.991 234,-270.991"/>
<polygon fill="#000000" stroke="#000000" points="230.5001,-270.9909 234,-280.991 237.5001,-270.991 230.5001,-270.9909"/>
</g>
<!-- CUSTOM_RADIO_CONTROL_VALUE_ACCESSOR -->
<g id="node3" class="node">
<title>CUSTOM_RADIO_CONTROL_VALUE_ACCESSOR</title>
<ellipse fill="#fdb462" stroke="#000000" cx="287" cy="-104" rx="229.2196" ry="18"/>
<text text-anchor="middle" x="287" y="-99.8" font-family="Times,serif" font-size="14.00" fill="#000000">CUSTOM_RADIO_CONTROL_VALUE_ACCESSOR</text>
</g>
<!-- CUSTOM_RADIO_CONTROL_VALUE_ACCESSOR&#45;&gt;TsRadioGroupComponent -->
<g id="edge2" class="edge">
<title>CUSTOM_RADIO_CONTROL_VALUE_ACCESSOR&#45;&gt;TsRadioGroupComponent</title>
<path fill="none" stroke="#000000" d="M434,-118.104C434,-118.104 434,-140.7209 434,-140.7209"/>
<polygon fill="#000000" stroke="#000000" points="430.5001,-140.7209 434,-150.7209 437.5001,-140.7209 430.5001,-140.7209"/>
</g>
<!-- TsValidationMessagesModule -->
<g id="node4" class="node">
<title>TsValidationMessagesModule</title>
<polygon fill="#8dd3c7" stroke="#000000" points="327.5674,-187 324.5674,-191 303.5674,-191 300.5674,-187 140.4326,-187 140.4326,-151 327.5674,-151 327.5674,-187"/>
<text text-anchor="middle" x="234" y="-164.8" font-family="Times,serif" font-size="14.00" fill="#000000">TsValidationMessagesModule</text>
</g>
<!-- TsValidationMessagesModule&#45;&gt;TsRadioGroupModule -->
<g id="edge3" class="edge">
<title>TsValidationMessagesModule&#45;&gt;TsRadioGroupModule</title>
<path fill="none" stroke="#000000" d="M234,-187.1061C234,-187.1061 234,-205.991 234,-205.991"/>
<polygon fill="#000000" stroke="#000000" points="230.5001,-205.9909 234,-215.991 237.5001,-205.991 230.5001,-205.9909"/>
</g>
<!-- TsIconModule -->
<g id="node5" class="node">
<title>TsIconModule</title>
<polygon fill="#8dd3c7" stroke="#000000" points="122.4231,-187 119.4231,-191 98.4231,-191 95.4231,-187 23.5769,-187 23.5769,-151 122.4231,-151 122.4231,-187"/>
<text text-anchor="middle" x="73" y="-164.8" font-family="Times,serif" font-size="14.00" fill="#000000">TsIconModule</text>
</g>
<!-- TsIconModule&#45;&gt;TsRadioGroupModule -->
<g id="edge4" class="edge">
<title>TsIconModule&#45;&gt;TsRadioGroupModule</title>
<path fill="none" stroke="#000000" d="M73,-187.1061C73,-206.3391 73,-234 73,-234 73,-234 152.4455,-234 152.4455,-234"/>
<polygon fill="#000000" stroke="#000000" points="152.4455,-237.5001 162.4455,-234 152.4454,-230.5001 152.4455,-237.5001"/>
</g>
</g>
</svg>
