<?xml version="1.0" encoding="UTF-8" standalone="no"?>
<!DOCTYPE svg PUBLIC "-//W3C//DTD SVG 1.1//EN"
 "http://www.w3.org/Graphics/SVG/1.1/DTD/svg11.dtd">
<!-- Generated by graphviz version 2.40.1 (20161225.0304)
 -->
<!-- Title: dependencies Pages: 1 -->
<svg width="840pt" height="284pt"
 viewBox="0.00 0.00 840.00 284.00" xmlns="http://www.w3.org/2000/svg" xmlns:xlink="http://www.w3.org/1999/xlink">
<g id="graph0" class="graph" transform="scale(1 1) rotate(0) translate(4 280)">
<title>dependencies</title>
<polygon fill="#ffffff" stroke="transparent" points="-4,4 -4,-280 836,-280 836,4 -4,4"/>
<text text-anchor="start" x="395.0091" y="-42.4" font-family="sans-serif" font-weight="bold" font-size="14.00" fill="#000000">Legend</text>
<polygon fill="#ffffb3" stroke="transparent" points="182,-10 182,-30 202,-30 202,-10 182,-10"/>
<text text-anchor="start" x="205.629" y="-15.4" font-family="sans-serif" font-size="14.00" fill="#000000"> &#160;Declarations</text>
<polygon fill="#8dd3c7" stroke="transparent" points="295,-10 295,-30 315,-30 315,-10 295,-10"/>
<text text-anchor="start" x="318.7251" y="-15.4" font-family="sans-serif" font-size="14.00" fill="#000000"> &#160;Module</text>
<polygon fill="#80b1d3" stroke="transparent" points="381,-10 381,-30 401,-30 401,-10 381,-10"/>
<text text-anchor="start" x="404.7812" y="-15.4" font-family="sans-serif" font-size="14.00" fill="#000000"> &#160;Bootstrap</text>
<polygon fill="#fdb462" stroke="transparent" points="478,-10 478,-30 498,-30 498,-10 478,-10"/>
<text text-anchor="start" x="501.6732" y="-15.4" font-family="sans-serif" font-size="14.00" fill="#000000"> &#160;Providers</text>
<polygon fill="#fb8072" stroke="transparent" points="574,-10 574,-30 594,-30 594,-10 574,-10"/>
<text text-anchor="start" x="597.7258" y="-15.4" font-family="sans-serif" font-size="14.00" fill="#000000"> &#160;Exports</text>
<g id="clust1" class="cluster">
<title>cluster_TsPaginationModule</title>
<polygon fill="none" stroke="#000000" stroke-dasharray="1,5" points="8,-70 8,-268 824,-268 824,-70 8,-70"/>
</g>
<g id="clust2" class="cluster">
<title>cluster_TsPaginationModule_declarations</title>
<polygon fill="none" stroke="#000000" points="644,-78 644,-130 816,-130 816,-78 644,-78"/>
</g>
<g id="clust4" class="cluster">
<title>cluster_TsPaginationModule_imports</title>
<polygon fill="none" stroke="#000000" points="16,-78 16,-130 636,-130 636,-78 16,-78"/>
</g>
<g id="clust5" class="cluster">
<title>cluster_TsPaginationModule_exports</title>
<polygon fill="none" stroke="#000000" points="303,-208 303,-260 477,-260 477,-208 303,-208"/>
</g>
<!-- TsPaginationComponent -->
<g id="node1" class="node">
<title>TsPaginationComponent</title>
<polygon fill="#ffffb3" stroke="#000000" points="807.7133,-122 652.2867,-122 652.2867,-86 807.7133,-86 807.7133,-122"/>
<text text-anchor="middle" x="730" y="-99.8" font-family="Times,serif" font-size="14.00" fill="#000000">TsPaginationComponent</text>
</g>
<!-- TsPaginationModule -->
<g id="node2" class="node">
<title>TsPaginationModule</title>
<polygon fill="#8dd3c7" stroke="#000000" points="456.9313,-187 453.9313,-191 432.9313,-191 429.9313,-187 323.0687,-187 323.0687,-151 456.9313,-151 456.9313,-187"/>
<text text-anchor="middle" x="390" y="-164.8" font-family="Times,serif" font-size="14.00" fill="#000000">TsPaginationModule</text>
</g>
<!-- TsPaginationComponent&#45;&gt;TsPaginationModule -->
<g id="edge1" class="edge">
<title>TsPaginationComponent&#45;&gt;TsPaginationModule</title>
<path fill="none" stroke="#000000" d="M730,-122.2843C730,-143.3211 730,-175 730,-175 730,-175 466.7674,-175 466.7674,-175"/>
<polygon fill="#000000" stroke="#000000" points="466.7674,-171.5001 456.7674,-175 466.7674,-178.5001 466.7674,-171.5001"/>
</g>
<!-- TsPaginationComponent  -->
<g id="node8" class="node">
<title>TsPaginationComponent </title>
<polygon fill="#fb8072" stroke="#000000" points="469.2135,-252 310.7865,-252 310.7865,-216 469.2135,-216 469.2135,-252"/>
<text text-anchor="middle" x="390" y="-229.8" font-family="Times,serif" font-size="14.00" fill="#000000">TsPaginationComponent </text>
</g>
<!-- TsPaginationModule&#45;&gt;TsPaginationComponent  -->
<g id="edge7" class="edge">
<title>TsPaginationModule&#45;&gt;TsPaginationComponent </title>
<path fill="none" stroke="#000000" stroke-dasharray="5,2" d="M390,-187.1061C390,-187.1061 390,-205.991 390,-205.991"/>
<polygon fill="#000000" stroke="#000000" points="386.5001,-205.9909 390,-215.991 393.5001,-205.991 386.5001,-205.9909"/>
</g>
<!-- CommonModule -->
<g id="node3" class="node">
<title>CommonModule</title>
<polygon fill="#8dd3c7" stroke="#000000" points="627.6681,-122 624.6681,-126 603.6681,-126 600.6681,-122 516.3319,-122 516.3319,-86 627.6681,-86 627.6681,-122"/>
<text text-anchor="middle" x="572" y="-99.8" font-family="Times,serif" font-size="14.00" fill="#000000">CommonModule</text>
</g>
<!-- CommonModule&#45;&gt;TsPaginationModule -->
<g id="edge2" class="edge">
<title>CommonModule&#45;&gt;TsPaginationModule</title>
<path fill="none" stroke="#000000" d="M572,-122.0225C572,-139.3734 572,-163 572,-163 572,-163 466.7366,-163 466.7366,-163"/>
<polygon fill="#000000" stroke="#000000" points="466.7367,-159.5001 456.7366,-163 466.7366,-166.5001 466.7367,-159.5001"/>
</g>
<!-- FormsModule -->
<g id="node4" class="node">
<title>FormsModule</title>
<polygon fill="#8dd3c7" stroke="#000000" points="498.8288,-122 495.8288,-126 474.8288,-126 471.8288,-122 403.1712,-122 403.1712,-86 498.8288,-86 498.8288,-122"/>
<text text-anchor="middle" x="451" y="-99.8" font-family="Times,serif" font-size="14.00" fill="#000000">FormsModule</text>
</g>
<!-- FormsModule&#45;&gt;TsPaginationModule -->
<g id="edge3" class="edge">
<title>FormsModule&#45;&gt;TsPaginationModule</title>
<path fill="none" stroke="#000000" d="M430.0256,-122.1061C430.0256,-122.1061 430.0256,-140.991 430.0256,-140.991"/>
<polygon fill="#000000" stroke="#000000" points="426.5257,-140.9909 430.0256,-150.991 433.5257,-140.991 426.5257,-140.9909"/>
</g>
<!-- TsButtonModule -->
<g id="node5" class="node">
<title>TsButtonModule</title>
<polygon fill="#8dd3c7" stroke="#000000" points="385.6653,-122 382.6653,-126 361.6653,-126 358.6653,-122 274.3347,-122 274.3347,-86 385.6653,-86 385.6653,-122"/>
<text text-anchor="middle" x="330" y="-99.8" font-family="Times,serif" font-size="14.00" fill="#000000">TsButtonModule</text>
</g>
<!-- TsButtonModule&#45;&gt;TsPaginationModule -->
<g id="edge4" class="edge">
<title>TsButtonModule&#45;&gt;TsPaginationModule</title>
<path fill="none" stroke="#000000" d="M354.5585,-122.1061C354.5585,-122.1061 354.5585,-140.991 354.5585,-140.991"/>
<polygon fill="#000000" stroke="#000000" points="351.0586,-140.9909 354.5585,-150.991 358.0586,-140.991 351.0586,-140.9909"/>
</g>
<!-- TsSelectModule -->
<g id="node6" class="node">
<title>TsSelectModule</title>
<polygon fill="#8dd3c7" stroke="#000000" points="255.7549,-122 252.7549,-126 231.7549,-126 228.7549,-122 148.2451,-122 148.2451,-86 255.7549,-86 255.7549,-122"/>
<text text-anchor="middle" x="202" y="-99.8" font-family="Times,serif" font-size="14.00" fill="#000000">TsSelectModule</text>
</g>
<!-- TsSelectModule&#45;&gt;TsPaginationModule -->
<g id="edge5" class="edge">
<title>TsSelectModule&#45;&gt;TsPaginationModule</title>
<path fill="none" stroke="#000000" d="M202,-122.0225C202,-139.3734 202,-163 202,-163 202,-163 313.1889,-163 313.1889,-163"/>
<polygon fill="#000000" stroke="#000000" points="313.1889,-166.5001 323.1889,-163 313.1889,-159.5001 313.1889,-166.5001"/>
</g>
<!-- TsMenuModule -->
<g id="node7" class="node">
<title>TsMenuModule</title>
<polygon fill="#8dd3c7" stroke="#000000" points="130.2064,-122 127.2064,-126 106.2064,-126 103.2064,-122 23.7936,-122 23.7936,-86 130.2064,-86 130.2064,-122"/>
<text text-anchor="middle" x="77" y="-99.8" font-family="Times,serif" font-size="14.00" fill="#000000">TsMenuModule</text>
</g>
<!-- TsMenuModule&#45;&gt;TsPaginationModule -->
<g id="edge6" class="edge">
<title>TsMenuModule&#45;&gt;TsPaginationModule</title>
<path fill="none" stroke="#000000" d="M77,-122.2843C77,-143.3211 77,-175 77,-175 77,-175 313.2376,-175 313.2376,-175"/>
<polygon fill="#000000" stroke="#000000" points="313.2376,-178.5001 323.2376,-175 313.2375,-171.5001 313.2376,-178.5001"/>
</g>
</g>
</svg>
