<?xml version="1.0" encoding="UTF-8" standalone="no"?>
<!DOCTYPE svg PUBLIC "-//W3C//DTD SVG 1.1//EN"
 "http://www.w3.org/Graphics/SVG/1.1/DTD/svg11.dtd">
<!-- Generated by graphviz version 2.40.1 (20161225.0304)
 -->
<!-- Title: dependencies Pages: 1 -->
<svg width="504pt" height="284pt"
 viewBox="0.00 0.00 504.00 284.00" xmlns="http://www.w3.org/2000/svg" xmlns:xlink="http://www.w3.org/1999/xlink">
<g id="graph0" class="graph" transform="scale(1 1) rotate(0) translate(4 280)">
<title>dependencies</title>
<polygon fill="#ffffff" stroke="transparent" points="-4,4 -4,-280 500,-280 500,4 -4,4"/>
<text text-anchor="start" x="227.0091" y="-42.4" font-family="sans-serif" font-weight="bold" font-size="14.00" fill="#000000">Legend</text>
<polygon fill="#ffffb3" stroke="transparent" points="14,-10 14,-30 34,-30 34,-10 14,-10"/>
<text text-anchor="start" x="37.629" y="-15.4" font-family="sans-serif" font-size="14.00" fill="#000000"> &#160;Declarations</text>
<polygon fill="#8dd3c7" stroke="transparent" points="127,-10 127,-30 147,-30 147,-10 127,-10"/>
<text text-anchor="start" x="150.7251" y="-15.4" font-family="sans-serif" font-size="14.00" fill="#000000"> &#160;Module</text>
<polygon fill="#80b1d3" stroke="transparent" points="213,-10 213,-30 233,-30 233,-10 213,-10"/>
<text text-anchor="start" x="236.7812" y="-15.4" font-family="sans-serif" font-size="14.00" fill="#000000"> &#160;Bootstrap</text>
<polygon fill="#fdb462" stroke="transparent" points="310,-10 310,-30 330,-30 330,-10 310,-10"/>
<text text-anchor="start" x="333.6732" y="-15.4" font-family="sans-serif" font-size="14.00" fill="#000000"> &#160;Providers</text>
<polygon fill="#fb8072" stroke="transparent" points="406,-10 406,-30 426,-30 426,-10 406,-10"/>
<text text-anchor="start" x="429.7258" y="-15.4" font-family="sans-serif" font-size="14.00" fill="#000000"> &#160;Exports</text>
<g id="clust1" class="cluster">
<title>cluster_TsSearchModule</title>
<polygon fill="none" stroke="#000000" stroke-dasharray="1,5" points="36.5,-70 36.5,-268 459.5,-268 459.5,-70 36.5,-70"/>
</g>
<g id="clust2" class="cluster">
<title>cluster_TsSearchModule_declarations</title>
<polygon fill="none" stroke="#000000" points="301.5,-78 301.5,-130 451.5,-130 451.5,-78 301.5,-78"/>
</g>
<g id="clust4" class="cluster">
<title>cluster_TsSearchModule_imports</title>
<polygon fill="none" stroke="#000000" points="44.5,-78 44.5,-130 293.5,-130 293.5,-78 44.5,-78"/>
</g>
<g id="clust5" class="cluster">
<title>cluster_TsSearchModule_exports</title>
<polygon fill="none" stroke="#000000" points="157.5,-208 157.5,-260 309.5,-260 309.5,-208 157.5,-208"/>
</g>
<!-- TsSearchComponent -->
<g id="node1" class="node">
<title>TsSearchComponent</title>
<polygon fill="#ffffb3" stroke="#000000" points="443.4173,-122 309.5827,-122 309.5827,-86 443.4173,-86 443.4173,-122"/>
<text text-anchor="middle" x="376.5" y="-99.8" font-family="Times,serif" font-size="14.00" fill="#000000">TsSearchComponent</text>
</g>
<!-- TsSearchModule -->
<g id="node2" class="node">
<title>TsSearchModule</title>
<polygon fill="#8dd3c7" stroke="#000000" points="289.1346,-187 286.1346,-191 265.1346,-191 262.1346,-187 177.8654,-187 177.8654,-151 289.1346,-151 289.1346,-187"/>
<text text-anchor="middle" x="233.5" y="-164.8" font-family="Times,serif" font-size="14.00" fill="#000000">TsSearchModule</text>
</g>
<!-- TsSearchComponent&#45;&gt;TsSearchModule -->
<g id="edge1" class="edge">
<title>TsSearchComponent&#45;&gt;TsSearchModule</title>
<path fill="none" stroke="#000000" d="M376.5,-122.1061C376.5,-141.3391 376.5,-169 376.5,-169 376.5,-169 299.197,-169 299.197,-169"/>
<polygon fill="#000000" stroke="#000000" points="299.197,-165.5001 289.197,-169 299.197,-172.5001 299.197,-165.5001"/>
</g>
<!-- TsSearchComponent  -->
<g id="node5" class="node">
<title>TsSearchComponent </title>
<polygon fill="#fb8072" stroke="#000000" points="301.9166,-252 165.0834,-252 165.0834,-216 301.9166,-216 301.9166,-252"/>
<text text-anchor="middle" x="233.5" y="-229.8" font-family="Times,serif" font-size="14.00" fill="#000000">TsSearchComponent </text>
</g>
<!-- TsSearchModule&#45;&gt;TsSearchComponent  -->
<g id="edge4" class="edge">
<title>TsSearchModule&#45;&gt;TsSearchComponent </title>
<path fill="none" stroke="#000000" stroke-dasharray="5,2" d="M233.5,-187.1061C233.5,-187.1061 233.5,-205.991 233.5,-205.991"/>
<polygon fill="#000000" stroke="#000000" points="230.0001,-205.9909 233.5,-215.991 237.0001,-205.991 230.0001,-205.9909"/>
</g>
<!-- TsInputModule -->
<g id="node3" class="node">
<title>TsInputModule</title>
<polygon fill="#8dd3c7" stroke="#000000" points="285.0982,-122 282.0982,-126 261.0982,-126 258.0982,-122 181.9018,-122 181.9018,-86 285.0982,-86 285.0982,-122"/>
<text text-anchor="middle" x="233.5" y="-99.8" font-family="Times,serif" font-size="14.00" fill="#000000">TsInputModule</text>
</g>
<!-- TsInputModule&#45;&gt;TsSearchModule -->
<g id="edge2" class="edge">
<title>TsInputModule&#45;&gt;TsSearchModule</title>
<path fill="none" stroke="#000000" d="M233.5,-122.1061C233.5,-122.1061 233.5,-140.991 233.5,-140.991"/>
<polygon fill="#000000" stroke="#000000" points="230.0001,-140.9909 233.5,-150.991 237.0001,-140.991 230.0001,-140.9909"/>
</g>
<!-- TsButtonModule -->
<g id="node4" class="node">
<title>TsButtonModule</title>
<polygon fill="#8dd3c7" stroke="#000000" points="164.1653,-122 161.1653,-126 140.1653,-126 137.1653,-122 52.8347,-122 52.8347,-86 164.1653,-86 164.1653,-122"/>
<text text-anchor="middle" x="108.5" y="-99.8" font-family="Times,serif" font-size="14.00" fill="#000000">TsButtonModule</text>
</g>
<!-- TsButtonModule&#45;&gt;TsSearchModule -->
<g id="edge3" class="edge">
<title>TsButtonModule&#45;&gt;TsSearchModule</title>
<path fill="none" stroke="#000000" d="M108.5,-122.1061C108.5,-141.3391 108.5,-169 108.5,-169 108.5,-169 167.5809,-169 167.5809,-169"/>
<polygon fill="#000000" stroke="#000000" points="167.581,-172.5001 177.5809,-169 167.5809,-165.5001 167.581,-172.5001"/>
</g>
</g>
</svg>
