<?xml version="1.0" encoding="UTF-8" standalone="no"?>
<!DOCTYPE svg PUBLIC "-//W3C//DTD SVG 1.1//EN"
 "http://www.w3.org/Graphics/SVG/1.1/DTD/svg11.dtd">
<!-- Generated by graphviz version 2.40.1 (20161225.0304)
 -->
<!-- Title: dependencies Pages: 1 -->
<svg width="611pt" height="284pt"
 viewBox="0.00 0.00 611.00 284.00" xmlns="http://www.w3.org/2000/svg" xmlns:xlink="http://www.w3.org/1999/xlink">
<g id="graph0" class="graph" transform="scale(1 1) rotate(0) translate(4 280)">
<title>dependencies</title>
<polygon fill="#ffffff" stroke="transparent" points="-4,4 -4,-280 607,-280 607,4 -4,4"/>
<text text-anchor="start" x="280.5091" y="-42.4" font-family="sans-serif" font-weight="bold" font-size="14.00" fill="#000000">Legend</text>
<polygon fill="#ffffb3" stroke="transparent" points="67.5,-10 67.5,-30 87.5,-30 87.5,-10 67.5,-10"/>
<text text-anchor="start" x="91.129" y="-15.4" font-family="sans-serif" font-size="14.00" fill="#000000"> &#160;Declarations</text>
<polygon fill="#8dd3c7" stroke="transparent" points="180.5,-10 180.5,-30 200.5,-30 200.5,-10 180.5,-10"/>
<text text-anchor="start" x="204.2251" y="-15.4" font-family="sans-serif" font-size="14.00" fill="#000000"> &#160;Module</text>
<polygon fill="#80b1d3" stroke="transparent" points="266.5,-10 266.5,-30 286.5,-30 286.5,-10 266.5,-10"/>
<text text-anchor="start" x="290.2812" y="-15.4" font-family="sans-serif" font-size="14.00" fill="#000000"> &#160;Bootstrap</text>
<polygon fill="#fdb462" stroke="transparent" points="363.5,-10 363.5,-30 383.5,-30 383.5,-10 363.5,-10"/>
<text text-anchor="start" x="387.1732" y="-15.4" font-family="sans-serif" font-size="14.00" fill="#000000"> &#160;Providers</text>
<polygon fill="#fb8072" stroke="transparent" points="459.5,-10 459.5,-30 479.5,-30 479.5,-10 459.5,-10"/>
<text text-anchor="start" x="483.2258" y="-15.4" font-family="sans-serif" font-size="14.00" fill="#000000"> &#160;Exports</text>
<g id="clust1" class="cluster">
<title>cluster_TsCheckboxModule</title>
<polygon fill="none" stroke="#000000" stroke-dasharray="1,5" points="8,-70 8,-268 595,-268 595,-70 8,-70"/>
</g>
<g id="clust2" class="cluster">
<title>cluster_TsCheckboxModule_declarations</title>
<polygon fill="none" stroke="#000000" points="419,-78 419,-130 587,-130 587,-78 419,-78"/>
</g>
<g id="clust4" class="cluster">
<title>cluster_TsCheckboxModule_imports</title>
<polygon fill="none" stroke="#000000" points="16,-78 16,-130 411,-130 411,-78 16,-78"/>
</g>
<g id="clust5" class="cluster">
<title>cluster_TsCheckboxModule_exports</title>
<polygon fill="none" stroke="#000000" points="200,-208 200,-260 372,-260 372,-208 200,-208"/>
</g>
<!-- TsCheckboxComponent -->
<g id="node1" class="node">
<title>TsCheckboxComponent</title>
<polygon fill="#ffffb3" stroke="#000000" points="579.0954,-122 426.9046,-122 426.9046,-86 579.0954,-86 579.0954,-122"/>
<text text-anchor="middle" x="503" y="-99.8" font-family="Times,serif" font-size="14.00" fill="#000000">TsCheckboxComponent</text>
</g>
<!-- TsCheckboxModule -->
<g id="node2" class="node">
<title>TsCheckboxModule</title>
<polygon fill="#8dd3c7" stroke="#000000" points="351.3132,-187 348.3132,-191 327.3132,-191 324.3132,-187 220.6868,-187 220.6868,-151 351.3132,-151 351.3132,-187"/>
<text text-anchor="middle" x="286" y="-164.8" font-family="Times,serif" font-size="14.00" fill="#000000">TsCheckboxModule</text>
</g>
<!-- TsCheckboxComponent&#45;&gt;TsCheckboxModule -->
<g id="edge1" class="edge">
<title>TsCheckboxComponent&#45;&gt;TsCheckboxModule</title>
<path fill="none" stroke="#000000" d="M503,-122.1061C503,-141.3391 503,-169 503,-169 503,-169 361.4014,-169 361.4014,-169"/>
<polygon fill="#000000" stroke="#000000" points="361.4015,-165.5001 351.4014,-169 361.4014,-172.5001 361.4015,-165.5001"/>
</g>
<!-- TsCheckboxComponent  -->
<g id="node6" class="node">
<title>TsCheckboxComponent </title>
<polygon fill="#fb8072" stroke="#000000" points="363.5959,-252 208.4041,-252 208.4041,-216 363.5959,-216 363.5959,-252"/>
<text text-anchor="middle" x="286" y="-229.8" font-family="Times,serif" font-size="14.00" fill="#000000">TsCheckboxComponent </text>
</g>
<!-- TsCheckboxModule&#45;&gt;TsCheckboxComponent  -->
<g id="edge5" class="edge">
<title>TsCheckboxModule&#45;&gt;TsCheckboxComponent </title>
<path fill="none" stroke="#000000" stroke-dasharray="5,2" d="M286,-187.1061C286,-187.1061 286,-205.991 286,-205.991"/>
<polygon fill="#000000" stroke="#000000" points="282.5001,-205.9909 286,-215.991 289.5001,-205.991 282.5001,-205.9909"/>
</g>
<!-- CommonModule -->
<g id="node3" class="node">
<title>CommonModule</title>
<polygon fill="#8dd3c7" stroke="#000000" points="402.6681,-122 399.6681,-126 378.6681,-126 375.6681,-122 291.3319,-122 291.3319,-86 402.6681,-86 402.6681,-122"/>
<text text-anchor="middle" x="347" y="-99.8" font-family="Times,serif" font-size="14.00" fill="#000000">CommonModule</text>
</g>
<!-- CommonModule&#45;&gt;TsCheckboxModule -->
<g id="edge2" class="edge">
<title>CommonModule&#45;&gt;TsCheckboxModule</title>
<path fill="none" stroke="#000000" d="M321.1613,-122.1061C321.1613,-122.1061 321.1613,-140.991 321.1613,-140.991"/>
<polygon fill="#000000" stroke="#000000" points="317.6614,-140.9909 321.1613,-150.991 324.6614,-140.991 317.6614,-140.9909"/>
</g>
<!-- FormsModule -->
<g id="node4" class="node">
<title>FormsModule</title>
<polygon fill="#8dd3c7" stroke="#000000" points="273.8288,-122 270.8288,-126 249.8288,-126 246.8288,-122 178.1712,-122 178.1712,-86 273.8288,-86 273.8288,-122"/>
<text text-anchor="middle" x="226" y="-99.8" font-family="Times,serif" font-size="14.00" fill="#000000">FormsModule</text>
</g>
<!-- FormsModule&#45;&gt;TsCheckboxModule -->
<g id="edge3" class="edge">
<title>FormsModule&#45;&gt;TsCheckboxModule</title>
<path fill="none" stroke="#000000" d="M247.2539,-122.1061C247.2539,-122.1061 247.2539,-140.991 247.2539,-140.991"/>
<polygon fill="#000000" stroke="#000000" points="243.7539,-140.9909 247.2539,-150.991 250.7539,-140.991 243.7539,-140.9909"/>
</g>
<!-- MdCheckboxModule -->
<g id="node5" class="node">
<title>MdCheckboxModule</title>
<polygon fill="#8dd3c7" stroke="#000000" points="159.7604,-122 156.7604,-126 135.7604,-126 132.7604,-122 24.2396,-122 24.2396,-86 159.7604,-86 159.7604,-122"/>
<text text-anchor="middle" x="92" y="-99.8" font-family="Times,serif" font-size="14.00" fill="#000000">MdCheckboxModule</text>
</g>
<!-- MdCheckboxModule&#45;&gt;TsCheckboxModule -->
<g id="edge4" class="edge">
<title>MdCheckboxModule&#45;&gt;TsCheckboxModule</title>
<path fill="none" stroke="#000000" d="M92,-122.1061C92,-141.3391 92,-169 92,-169 92,-169 210.5909,-169 210.5909,-169"/>
<polygon fill="#000000" stroke="#000000" points="210.5909,-172.5001 220.5909,-169 210.5909,-165.5001 210.5909,-172.5001"/>
</g>
</g>
</svg>
