<?xml version="1.0" encoding="UTF-8" standalone="no"?>
<!DOCTYPE svg PUBLIC "-//W3C//DTD SVG 1.1//EN"
 "http://www.w3.org/Graphics/SVG/1.1/DTD/svg11.dtd">
<!-- Generated by graphviz version 2.40.1 (20161225.0304)
 -->
<!-- Title: dependencies Pages: 1 -->
<svg width="504pt" height="284pt"
 viewBox="0.00 0.00 504.00 284.00" xmlns="http://www.w3.org/2000/svg" xmlns:xlink="http://www.w3.org/1999/xlink">
<g id="graph0" class="graph" transform="scale(1 1) rotate(0) translate(4 280)">
<title>dependencies</title>
<polygon fill="#ffffff" stroke="transparent" points="-4,4 -4,-280 500,-280 500,4 -4,4"/>
<text text-anchor="start" x="227.0091" y="-42.4" font-family="sans-serif" font-weight="bold" font-size="14.00" fill="#000000">Legend</text>
<polygon fill="#ffffb3" stroke="transparent" points="14,-10 14,-30 34,-30 34,-10 14,-10"/>
<text text-anchor="start" x="37.629" y="-15.4" font-family="sans-serif" font-size="14.00" fill="#000000"> &#160;Declarations</text>
<polygon fill="#8dd3c7" stroke="transparent" points="127,-10 127,-30 147,-30 147,-10 127,-10"/>
<text text-anchor="start" x="150.7251" y="-15.4" font-family="sans-serif" font-size="14.00" fill="#000000"> &#160;Module</text>
<polygon fill="#80b1d3" stroke="transparent" points="213,-10 213,-30 233,-30 233,-10 213,-10"/>
<text text-anchor="start" x="236.7812" y="-15.4" font-family="sans-serif" font-size="14.00" fill="#000000"> &#160;Bootstrap</text>
<polygon fill="#fdb462" stroke="transparent" points="310,-10 310,-30 330,-30 330,-10 310,-10"/>
<text text-anchor="start" x="333.6732" y="-15.4" font-family="sans-serif" font-size="14.00" fill="#000000"> &#160;Providers</text>
<polygon fill="#fb8072" stroke="transparent" points="406,-10 406,-30 426,-30 426,-10 406,-10"/>
<text text-anchor="start" x="429.7258" y="-15.4" font-family="sans-serif" font-size="14.00" fill="#000000"> &#160;Exports</text>
<g id="clust1" class="cluster">
<title>cluster_TsSortModule</title>
<polygon fill="none" stroke="#000000" stroke-dasharray="1,5" points="87.5,-70 87.5,-268 408.5,-268 408.5,-70 87.5,-70"/>
</g>
<g id="clust2" class="cluster">
<title>cluster_TsSortModule_declarations</title>
<polygon fill="none" stroke="#000000" points="98.5,-78 98.5,-130 397.5,-130 397.5,-78 98.5,-78"/>
</g>
<g id="clust6" class="cluster">
<title>cluster_TsSortModule_exports</title>
<polygon fill="none" stroke="#000000" points="95.5,-208 95.5,-260 400.5,-260 400.5,-208 95.5,-208"/>
</g>
<!-- TsSortDirective -->
<g id="node1" class="node">
<title>TsSortDirective</title>
<polygon fill="#ffffb3" stroke="#000000" points="389.4146,-122 283.5854,-122 283.5854,-86 389.4146,-86 389.4146,-122"/>
<text text-anchor="middle" x="336.5" y="-99.8" font-family="Times,serif" font-size="14.00" fill="#000000">TsSortDirective</text>
</g>
<!-- TsSortModule -->
<g id="node3" class="node">
<title>TsSortModule</title>
<polygon fill="#8dd3c7" stroke="#000000" points="234.8809,-187 231.8809,-191 210.8809,-191 207.8809,-187 138.1191,-187 138.1191,-151 234.8809,-151 234.8809,-187"/>
<text text-anchor="middle" x="186.5" y="-164.8" font-family="Times,serif" font-size="14.00" fill="#000000">TsSortModule</text>
</g>
<!-- TsSortDirective&#45;&gt;TsSortModule -->
<g id="edge1" class="edge">
<title>TsSortDirective&#45;&gt;TsSortModule</title>
<path fill="none" stroke="#000000" d="M354.1523,-122.0225C354.1523,-139.3734 354.1523,-163 354.1523,-163 354.1523,-163 244.992,-163 244.992,-163"/>
<polygon fill="#000000" stroke="#000000" points="244.992,-159.5001 234.992,-163 244.992,-166.5001 244.992,-159.5001"/>
</g>
<!-- TsSortHeaderComponent -->
<g id="node2" class="node">
<title>TsSortHeaderComponent</title>
<polygon fill="#ffffb3" stroke="#000000" points="266.0744,-122 106.9256,-122 106.9256,-86 266.0744,-86 266.0744,-122"/>
<text text-anchor="middle" x="186.5" y="-99.8" font-family="Times,serif" font-size="14.00" fill="#000000">TsSortHeaderComponent</text>
</g>
<!-- TsSortHeaderComponent&#45;&gt;TsSortModule -->
<g id="edge2" class="edge">
<title>TsSortHeaderComponent&#45;&gt;TsSortModule</title>
<path fill="none" stroke="#000000" d="M186.5,-122.1061C186.5,-122.1061 186.5,-140.991 186.5,-140.991"/>
<polygon fill="#000000" stroke="#000000" points="183.0001,-140.9909 186.5,-150.991 190.0001,-140.991 183.0001,-140.9909"/>
</g>
<!-- TsSortDirective  -->
<g id="node4" class="node">
<title>TsSortDirective </title>
<polygon fill="#fb8072" stroke="#000000" points="392.9138,-252 284.0862,-252 284.0862,-216 392.9138,-216 392.9138,-252"/>
<text text-anchor="middle" x="338.5" y="-229.8" font-family="Times,serif" font-size="14.00" fill="#000000">TsSortDirective </text>
</g>
<!-- TsSortModule&#45;&gt;TsSortDirective  -->
<g id="edge3" class="edge">
<title>TsSortModule&#45;&gt;TsSortDirective </title>
<path fill="none" stroke="#000000" stroke-dasharray="5,2" d="M235.1216,-175C272.9649,-175 319.0977,-175 319.0977,-175 319.0977,-175 319.0977,-205.9775 319.0977,-205.9775"/>
<polygon fill="#000000" stroke="#000000" points="315.5978,-205.9774 319.0977,-215.9775 322.5978,-205.9775 315.5978,-205.9774"/>
</g>
<!-- TsSortHeaderComponent  -->
<g id="node5" class="node">
<title>TsSortHeaderComponent </title>
<polygon fill="#fb8072" stroke="#000000" points="265.575,-252 103.425,-252 103.425,-216 265.575,-216 265.575,-252"/>
<text text-anchor="middle" x="184.5" y="-229.8" font-family="Times,serif" font-size="14.00" fill="#000000">TsSortHeaderComponent </text>
</g>
<!-- TsSortModule&#45;&gt;TsSortHeaderComponent  -->
<g id="edge4" class="edge">
<title>TsSortModule&#45;&gt;TsSortHeaderComponent </title>
<path fill="none" stroke="#000000" stroke-dasharray="5,2" d="M186.5,-187.1061C186.5,-187.1061 186.5,-205.991 186.5,-205.991"/>
<polygon fill="#000000" stroke="#000000" points="183.0001,-205.9909 186.5,-215.991 190.0001,-205.991 183.0001,-205.9909"/>
</g>
</g>
</svg>
