<?xml version="1.0" encoding="UTF-8" standalone="no"?>
<!DOCTYPE svg PUBLIC "-//W3C//DTD SVG 1.1//EN"
 "http://www.w3.org/Graphics/SVG/1.1/DTD/svg11.dtd">
<!-- Generated by graphviz version 2.40.1 (20161225.0304)
 -->
<!-- Title: dependencies Pages: 1 -->
<svg width="504pt" height="284pt"
 viewBox="0.00 0.00 504.00 284.00" xmlns="http://www.w3.org/2000/svg" xmlns:xlink="http://www.w3.org/1999/xlink">
<g id="graph0" class="graph" transform="scale(1 1) rotate(0) translate(4 280)">
<title>dependencies</title>
<polygon fill="#ffffff" stroke="transparent" points="-4,4 -4,-280 500,-280 500,4 -4,4"/>
<text text-anchor="start" x="227.0091" y="-42.4" font-family="sans-serif" font-weight="bold" font-size="14.00" fill="#000000">Legend</text>
<polygon fill="#ffffb3" stroke="transparent" points="14,-10 14,-30 34,-30 34,-10 14,-10"/>
<text text-anchor="start" x="37.629" y="-15.4" font-family="sans-serif" font-size="14.00" fill="#000000"> &#160;Declarations</text>
<polygon fill="#8dd3c7" stroke="transparent" points="127,-10 127,-30 147,-30 147,-10 127,-10"/>
<text text-anchor="start" x="150.7251" y="-15.4" font-family="sans-serif" font-size="14.00" fill="#000000"> &#160;Module</text>
<polygon fill="#80b1d3" stroke="transparent" points="213,-10 213,-30 233,-30 233,-10 213,-10"/>
<text text-anchor="start" x="236.7812" y="-15.4" font-family="sans-serif" font-size="14.00" fill="#000000"> &#160;Bootstrap</text>
<polygon fill="#fdb462" stroke="transparent" points="310,-10 310,-30 330,-30 330,-10 310,-10"/>
<text text-anchor="start" x="333.6732" y="-15.4" font-family="sans-serif" font-size="14.00" fill="#000000"> &#160;Providers</text>
<polygon fill="#fb8072" stroke="transparent" points="406,-10 406,-30 426,-30 426,-10 406,-10"/>
<text text-anchor="start" x="429.7258" y="-15.4" font-family="sans-serif" font-size="14.00" fill="#000000"> &#160;Exports</text>
<g id="clust1" class="cluster">
<title>cluster_TsDateRangeModule</title>
<polygon fill="none" stroke="#000000" stroke-dasharray="1,5" points="9,-70 9,-268 487,-268 487,-70 9,-70"/>
</g>
<g id="clust2" class="cluster">
<title>cluster_TsDateRangeModule_declarations</title>
<polygon fill="none" stroke="#000000" points="305,-78 305,-130 479,-130 479,-78 305,-78"/>
</g>
<g id="clust4" class="cluster">
<title>cluster_TsDateRangeModule_imports</title>
<polygon fill="none" stroke="#000000" points="17,-78 17,-130 297,-130 297,-78 17,-78"/>
</g>
<g id="clust5" class="cluster">
<title>cluster_TsDateRangeModule_exports</title>
<polygon fill="none" stroke="#000000" points="144,-208 144,-260 322,-260 322,-208 144,-208"/>
</g>
<!-- TsDateRangeComponent -->
<g id="node1" class="node">
<title>TsDateRangeComponent</title>
<polygon fill="#ffffb3" stroke="#000000" points="470.5225,-122 313.4775,-122 313.4775,-86 470.5225,-86 470.5225,-122"/>
<text text-anchor="middle" x="392" y="-99.8" font-family="Times,serif" font-size="14.00" fill="#000000">TsDateRangeComponent</text>
</g>
<!-- TsDateRangeModule -->
<g id="node2" class="node">
<title>TsDateRangeModule</title>
<polygon fill="#8dd3c7" stroke="#000000" points="300.7395,-187 297.7395,-191 276.7395,-191 273.7395,-187 165.2605,-187 165.2605,-151 300.7395,-151 300.7395,-187"/>
<text text-anchor="middle" x="233" y="-164.8" font-family="Times,serif" font-size="14.00" fill="#000000">TsDateRangeModule</text>
</g>
<!-- TsDateRangeComponent&#45;&gt;TsDateRangeModule -->
<g id="edge1" class="edge">
<title>TsDateRangeComponent&#45;&gt;TsDateRangeModule</title>
<path fill="none" stroke="#000000" d="M313.1246,-104C302.3243,-104 294.8517,-104 294.8517,-104 294.8517,-104 294.8517,-140.8939 294.8517,-140.8939"/>
<polygon fill="#000000" stroke="#000000" points="291.3518,-140.8938 294.8517,-150.8939 298.3518,-140.8939 291.3518,-140.8938"/>
</g>
<!-- TsDateRangeComponent  -->
<g id="node5" class="node">
<title>TsDateRangeComponent </title>
<polygon fill="#fb8072" stroke="#000000" points="313.5218,-252 152.4782,-252 152.4782,-216 313.5218,-216 313.5218,-252"/>
<text text-anchor="middle" x="233" y="-229.8" font-family="Times,serif" font-size="14.00" fill="#000000">TsDateRangeComponent </text>
</g>
<!-- TsDateRangeModule&#45;&gt;TsDateRangeComponent  -->
<g id="edge4" class="edge">
<title>TsDateRangeModule&#45;&gt;TsDateRangeComponent </title>
<path fill="none" stroke="#000000" stroke-dasharray="5,2" d="M233,-187.1061C233,-187.1061 233,-205.991 233,-205.991"/>
<polygon fill="#000000" stroke="#000000" points="229.5001,-205.9909 233,-215.991 236.5001,-205.991 229.5001,-205.9909"/>
</g>
<!-- CommonModule -->
<g id="node3" class="node">
<title>CommonModule</title>
<polygon fill="#8dd3c7" stroke="#000000" points="288.6681,-122 285.6681,-126 264.6681,-126 261.6681,-122 177.3319,-122 177.3319,-86 288.6681,-86 288.6681,-122"/>
<text text-anchor="middle" x="233" y="-99.8" font-family="Times,serif" font-size="14.00" fill="#000000">CommonModule</text>
</g>
<!-- CommonModule&#45;&gt;TsDateRangeModule -->
<g id="edge2" class="edge">
<title>CommonModule&#45;&gt;TsDateRangeModule</title>
<path fill="none" stroke="#000000" d="M233,-122.1061C233,-122.1061 233,-140.991 233,-140.991"/>
<polygon fill="#000000" stroke="#000000" points="229.5001,-140.9909 233,-150.991 236.5001,-140.991 229.5001,-140.9909"/>
</g>
<!-- TsDatepickerModule -->
<g id="node4" class="node">
<title>TsDatepickerModule</title>
<polygon fill="#8dd3c7" stroke="#000000" points="159.4538,-122 156.4538,-126 135.4538,-126 132.4538,-122 24.5462,-122 24.5462,-86 159.4538,-86 159.4538,-122"/>
<text text-anchor="middle" x="92" y="-99.8" font-family="Times,serif" font-size="14.00" fill="#000000">TsDatepickerModule</text>
</g>
<!-- TsDatepickerModule&#45;&gt;TsDateRangeModule -->
<g id="edge3" class="edge">
<title>TsDatepickerModule&#45;&gt;TsDateRangeModule</title>
<path fill="none" stroke="#000000" d="M159.4697,-104C166.5059,-104 171.1483,-104 171.1483,-104 171.1483,-104 171.1483,-140.8939 171.1483,-140.8939"/>
<polygon fill="#000000" stroke="#000000" points="167.6484,-140.8938 171.1483,-150.8939 174.6484,-140.8939 167.6484,-140.8938"/>
</g>
</g>
</svg>
