<?xml version="1.0" encoding="UTF-8" standalone="no"?>
<!DOCTYPE svg PUBLIC "-//W3C//DTD SVG 1.1//EN"
 "http://www.w3.org/Graphics/SVG/1.1/DTD/svg11.dtd">
<!-- Generated by graphviz version 2.40.1 (20161225.0304)
 -->
<!-- Title: dependencies Pages: 1 -->
<svg width="504pt" height="284pt"
 viewBox="0.00 0.00 504.00 284.00" xmlns="http://www.w3.org/2000/svg" xmlns:xlink="http://www.w3.org/1999/xlink">
<g id="graph0" class="graph" transform="scale(1 1) rotate(0) translate(4 280)">
<title>dependencies</title>
<polygon fill="#ffffff" stroke="transparent" points="-4,4 -4,-280 500,-280 500,4 -4,4"/>
<text text-anchor="start" x="227.0091" y="-42.4" font-family="sans-serif" font-weight="bold" font-size="14.00" fill="#000000">Legend</text>
<polygon fill="#ffffb3" stroke="transparent" points="14,-10 14,-30 34,-30 34,-10 14,-10"/>
<text text-anchor="start" x="37.629" y="-15.4" font-family="sans-serif" font-size="14.00" fill="#000000"> &#160;Declarations</text>
<polygon fill="#8dd3c7" stroke="transparent" points="127,-10 127,-30 147,-30 147,-10 127,-10"/>
<text text-anchor="start" x="150.7251" y="-15.4" font-family="sans-serif" font-size="14.00" fill="#000000"> &#160;Module</text>
<polygon fill="#80b1d3" stroke="transparent" points="213,-10 213,-30 233,-30 233,-10 213,-10"/>
<text text-anchor="start" x="236.7812" y="-15.4" font-family="sans-serif" font-size="14.00" fill="#000000"> &#160;Bootstrap</text>
<polygon fill="#fdb462" stroke="transparent" points="310,-10 310,-30 330,-30 330,-10 310,-10"/>
<text text-anchor="start" x="333.6732" y="-15.4" font-family="sans-serif" font-size="14.00" fill="#000000"> &#160;Providers</text>
<polygon fill="#fb8072" stroke="transparent" points="406,-10 406,-30 426,-30 426,-10 406,-10"/>
<text text-anchor="start" x="429.7258" y="-15.4" font-family="sans-serif" font-size="14.00" fill="#000000"> &#160;Exports</text>
<g id="clust1" class="cluster">
<title>cluster_TsLoadingOverlayModule</title>
<polygon fill="none" stroke="#000000" stroke-dasharray="1,5" points="42.5,-70 42.5,-268 453.5,-268 453.5,-70 42.5,-70"/>
</g>
<g id="clust2" class="cluster">
<title>cluster_TsLoadingOverlayModule_declarations</title>
<polygon fill="none" stroke="#000000" points="50.5,-78 50.5,-130 445.5,-130 445.5,-78 50.5,-78"/>
</g>
<g id="clust6" class="cluster">
<title>cluster_TsLoadingOverlayModule_exports</title>
<polygon fill="none" stroke="#000000" points="148.5,-208 148.5,-260 342.5,-260 342.5,-208 148.5,-208"/>
</g>
<!-- TsLoadingOverlayComponent -->
<g id="node1" class="node">
<title>TsLoadingOverlayComponent</title>
<polygon fill="#ffffb3" stroke="#000000" points="437.0744,-122 249.9256,-122 249.9256,-86 437.0744,-86 437.0744,-122"/>
<text text-anchor="middle" x="343.5" y="-99.8" font-family="Times,serif" font-size="14.00" fill="#000000">TsLoadingOverlayComponent</text>
</g>
<!-- TsLoadingOverlayModule -->
<g id="node3" class="node">
<title>TsLoadingOverlayModule</title>
<polygon fill="#8dd3c7" stroke="#000000" points="328.2921,-187 325.2921,-191 304.2921,-191 301.2921,-187 162.7079,-187 162.7079,-151 328.2921,-151 328.2921,-187"/>
<text text-anchor="middle" x="245.5" y="-164.8" font-family="Times,serif" font-size="14.00" fill="#000000">TsLoadingOverlayModule</text>
</g>
<!-- TsLoadingOverlayComponent&#45;&gt;TsLoadingOverlayModule -->
<g id="edge1" class="edge">
<title>TsLoadingOverlayComponent&#45;&gt;TsLoadingOverlayModule</title>
<path fill="none" stroke="#000000" d="M289.0544,-122.1061C289.0544,-122.1061 289.0544,-140.991 289.0544,-140.991"/>
<polygon fill="#000000" stroke="#000000" points="285.5544,-140.9909 289.0544,-150.991 292.5544,-140.991 285.5544,-140.9909"/>
</g>
<!-- TsLoadingOverlayDirective -->
<g id="node2" class="node">
<title>TsLoadingOverlayDirective</title>
<polygon fill="#ffffb3" stroke="#000000" points="232.3249,-122 58.6751,-122 58.6751,-86 232.3249,-86 232.3249,-122"/>
<text text-anchor="middle" x="145.5" y="-99.8" font-family="Times,serif" font-size="14.00" fill="#000000">TsLoadingOverlayDirective</text>
</g>
<!-- TsLoadingOverlayDirective&#45;&gt;TsLoadingOverlayModule -->
<g id="edge2" class="edge">
<title>TsLoadingOverlayDirective&#45;&gt;TsLoadingOverlayModule</title>
<path fill="none" stroke="#000000" d="M197.6333,-122.1061C197.6333,-122.1061 197.6333,-140.991 197.6333,-140.991"/>
<polygon fill="#000000" stroke="#000000" points="194.1333,-140.9909 197.6333,-150.991 201.1333,-140.991 194.1333,-140.9909"/>
</g>
<!-- TsLoadingOverlayDirective  -->
<g id="node4" class="node">
<title>TsLoadingOverlayDirective </title>
<polygon fill="#fb8072" stroke="#000000" points="334.3251,-252 156.6749,-252 156.6749,-216 334.3251,-216 334.3251,-252"/>
<text text-anchor="middle" x="245.5" y="-229.8" font-family="Times,serif" font-size="14.00" fill="#000000">TsLoadingOverlayDirective </text>
</g>
<!-- TsLoadingOverlayModule&#45;&gt;TsLoadingOverlayDirective  -->
<g id="edge3" class="edge">
<title>TsLoadingOverlayModule&#45;&gt;TsLoadingOverlayDirective </title>
<path fill="none" stroke="#000000" stroke-dasharray="5,2" d="M245.5,-187.1061C245.5,-187.1061 245.5,-205.991 245.5,-205.991"/>
<polygon fill="#000000" stroke="#000000" points="242.0001,-205.9909 245.5,-215.991 249.0001,-205.991 242.0001,-205.9909"/>
</g>
</g>
</svg>
