<?xml version="1.0" encoding="UTF-8" standalone="no"?>
<!DOCTYPE svg PUBLIC "-//W3C//DTD SVG 1.1//EN"
 "http://www.w3.org/Graphics/SVG/1.1/DTD/svg11.dtd">
<!-- Generated by graphviz version 2.40.1 (20161225.0304)
 -->
<!-- Title: dependencies Pages: 1 -->
<svg width="504pt" height="284pt"
 viewBox="0.00 0.00 504.00 284.00" xmlns="http://www.w3.org/2000/svg" xmlns:xlink="http://www.w3.org/1999/xlink">
<g id="graph0" class="graph" transform="scale(1 1) rotate(0) translate(4 280)">
<title>dependencies</title>
<polygon fill="#ffffff" stroke="transparent" points="-4,4 -4,-280 500,-280 500,4 -4,4"/>
<text text-anchor="start" x="227.0091" y="-42.4" font-family="sans-serif" font-weight="bold" font-size="14.00" fill="#000000">Legend</text>
<polygon fill="#ffffb3" stroke="transparent" points="14,-10 14,-30 34,-30 34,-10 14,-10"/>
<text text-anchor="start" x="37.629" y="-15.4" font-family="sans-serif" font-size="14.00" fill="#000000"> &#160;Declarations</text>
<polygon fill="#8dd3c7" stroke="transparent" points="127,-10 127,-30 147,-30 147,-10 127,-10"/>
<text text-anchor="start" x="150.7251" y="-15.4" font-family="sans-serif" font-size="14.00" fill="#000000"> &#160;Module</text>
<polygon fill="#80b1d3" stroke="transparent" points="213,-10 213,-30 233,-30 233,-10 213,-10"/>
<text text-anchor="start" x="236.7812" y="-15.4" font-family="sans-serif" font-size="14.00" fill="#000000"> &#160;Bootstrap</text>
<polygon fill="#fdb462" stroke="transparent" points="310,-10 310,-30 330,-30 330,-10 310,-10"/>
<text text-anchor="start" x="333.6732" y="-15.4" font-family="sans-serif" font-size="14.00" fill="#000000"> &#160;Providers</text>
<polygon fill="#fb8072" stroke="transparent" points="406,-10 406,-30 426,-30 426,-10 406,-10"/>
<text text-anchor="start" x="429.7258" y="-15.4" font-family="sans-serif" font-size="14.00" fill="#000000"> &#160;Exports</text>
<g id="clust1" class="cluster">
<title>cluster_TsLoadingOverlayModule</title>
<polygon fill="none" stroke="#000000" stroke-dasharray="1,5" points="42.5,-70 42.5,-268 453.5,-268 453.5,-70 42.5,-70"/>
</g>
<g id="clust2" class="cluster">
<title>cluster_TsLoadingOverlayModule_declarations</title>
<polygon fill="none" stroke="#000000" points="50.5,-78 50.5,-130 445.5,-130 445.5,-78 50.5,-78"/>
</g>
<g id="clust6" class="cluster">
<title>cluster_TsLoadingOverlayModule_exports</title>
<polygon fill="none" stroke="#000000" points="153.5,-208 153.5,-260 347.5,-260 347.5,-208 153.5,-208"/>
</g>
<!-- TsLoadingOverlayDirective -->
<g id="node1" class="node">
<title>TsLoadingOverlayDirective</title>
<polygon fill="#ffffb3" stroke="#000000" points="437.3249,-122 263.6751,-122 263.6751,-86 437.3249,-86 437.3249,-122"/>
<text text-anchor="middle" x="350.5" y="-99.8" font-family="Times,serif" font-size="14.00" fill="#000000">TsLoadingOverlayDirective</text>
</g>
<!-- TsLoadingOverlayModule -->
<g id="node3" class="node">
<title>TsLoadingOverlayModule</title>
<polygon fill="#8dd3c7" stroke="#000000" points="333.2921,-187 330.2921,-191 309.2921,-191 306.2921,-187 167.7079,-187 167.7079,-151 333.2921,-151 333.2921,-187"/>
<text text-anchor="middle" x="250.5" y="-164.8" font-family="Times,serif" font-size="14.00" fill="#000000">TsLoadingOverlayModule</text>
</g>
<!-- TsLoadingOverlayDirective&#45;&gt;TsLoadingOverlayModule -->
<g id="edge1" class="edge">
<title>TsLoadingOverlayDirective&#45;&gt;TsLoadingOverlayModule</title>
<path fill="none" stroke="#000000" d="M298.3668,-122.1061C298.3668,-122.1061 298.3668,-140.991 298.3668,-140.991"/>
<polygon fill="#000000" stroke="#000000" points="294.8668,-140.9909 298.3668,-150.991 301.8668,-140.991 294.8668,-140.9909"/>
</g>
<!-- TsLoadingOverlayComponent -->
<g id="node2" class="node">
<title>TsLoadingOverlayComponent</title>
<polygon fill="#ffffb3" stroke="#000000" points="246.0744,-122 58.9256,-122 58.9256,-86 246.0744,-86 246.0744,-122"/>
<text text-anchor="middle" x="152.5" y="-99.8" font-family="Times,serif" font-size="14.00" fill="#000000">TsLoadingOverlayComponent</text>
</g>
<!-- TsLoadingOverlayComponent&#45;&gt;TsLoadingOverlayModule -->
<g id="edge2" class="edge">
<title>TsLoadingOverlayComponent&#45;&gt;TsLoadingOverlayModule</title>
<path fill="none" stroke="#000000" d="M206.9457,-122.1061C206.9457,-122.1061 206.9457,-140.991 206.9457,-140.991"/>
<polygon fill="#000000" stroke="#000000" points="203.4457,-140.9909 206.9457,-150.991 210.4457,-140.991 203.4457,-140.9909"/>
</g>
<!-- TsLoadingOverlayDirective  -->
<g id="node4" class="node">
<title>TsLoadingOverlayDirective </title>
<polygon fill="#fb8072" stroke="#000000" points="339.3251,-252 161.6749,-252 161.6749,-216 339.3251,-216 339.3251,-252"/>
<text text-anchor="middle" x="250.5" y="-229.8" font-family="Times,serif" font-size="14.00" fill="#000000">TsLoadingOverlayDirective </text>
</g>
<!-- TsLoadingOverlayModule&#45;&gt;TsLoadingOverlayDirective  -->
<g id="edge3" class="edge">
<title>TsLoadingOverlayModule&#45;&gt;TsLoadingOverlayDirective </title>
<path fill="none" stroke="#000000" stroke-dasharray="5,2" d="M250.5,-187.1061C250.5,-187.1061 250.5,-205.991 250.5,-205.991"/>
<polygon fill="#000000" stroke="#000000" points="247.0001,-205.9909 250.5,-215.991 254.0001,-205.991 247.0001,-205.9909"/>
</g>
</g>
</svg>
