<?xml version="1.0" encoding="UTF-8" standalone="no"?>
<!DOCTYPE svg PUBLIC "-//W3C//DTD SVG 1.1//EN"
 "http://www.w3.org/Graphics/SVG/1.1/DTD/svg11.dtd">
<!-- Generated by graphviz version 2.40.1 (20161225.0304)
 -->
<!-- Title: dependencies Pages: 1 -->
<svg width="736pt" height="284pt"
 viewBox="0.00 0.00 736.00 284.00" xmlns="http://www.w3.org/2000/svg" xmlns:xlink="http://www.w3.org/1999/xlink">
<g id="graph0" class="graph" transform="scale(1 1) rotate(0) translate(4 280)">
<title>dependencies</title>
<polygon fill="#ffffff" stroke="transparent" points="-4,4 -4,-280 732,-280 732,4 -4,4"/>
<text text-anchor="start" x="343.0091" y="-42.4" font-family="sans-serif" font-weight="bold" font-size="14.00" fill="#000000">Legend</text>
<polygon fill="#ffffb3" stroke="transparent" points="130,-10 130,-30 150,-30 150,-10 130,-10"/>
<text text-anchor="start" x="153.629" y="-15.4" font-family="sans-serif" font-size="14.00" fill="#000000"> &#160;Declarations</text>
<polygon fill="#8dd3c7" stroke="transparent" points="243,-10 243,-30 263,-30 263,-10 243,-10"/>
<text text-anchor="start" x="266.7251" y="-15.4" font-family="sans-serif" font-size="14.00" fill="#000000"> &#160;Module</text>
<polygon fill="#80b1d3" stroke="transparent" points="329,-10 329,-30 349,-30 349,-10 329,-10"/>
<text text-anchor="start" x="352.7812" y="-15.4" font-family="sans-serif" font-size="14.00" fill="#000000"> &#160;Bootstrap</text>
<polygon fill="#fdb462" stroke="transparent" points="426,-10 426,-30 446,-30 446,-10 426,-10"/>
<text text-anchor="start" x="449.6732" y="-15.4" font-family="sans-serif" font-size="14.00" fill="#000000"> &#160;Providers</text>
<polygon fill="#fb8072" stroke="transparent" points="522,-10 522,-30 542,-30 542,-10 522,-10"/>
<text text-anchor="start" x="545.7258" y="-15.4" font-family="sans-serif" font-size="14.00" fill="#000000"> &#160;Exports</text>
<g id="clust1" class="cluster">
<title>cluster_TerminusUIModule</title>
<polygon fill="none" stroke="#000000" stroke-dasharray="1,5" points="8,-70 8,-268 720,-268 720,-70 8,-70"/>
</g>
<g id="clust3" class="cluster">
<title>cluster_TerminusUIModule_imports</title>
<polygon fill="none" stroke="#000000" points="24,-78 24,-130 702,-130 702,-78 24,-78"/>
</g>
<g id="clust4" class="cluster">
<title>cluster_TerminusUIModule_exports</title>
<polygon fill="none" stroke="#000000" points="16,-208 16,-260 712,-260 712,-208 16,-208"/>
</g>
<!-- TsButtonModule -->
<g id="node1" class="node">
<title>TsButtonModule</title>
<polygon fill="#8dd3c7" stroke="#000000" points="693.6653,-122 690.6653,-126 669.6653,-126 666.6653,-122 582.3347,-122 582.3347,-86 693.6653,-86 693.6653,-122"/>
<text text-anchor="middle" x="638" y="-99.8" font-family="Times,serif" font-size="14.00" fill="#000000">TsButtonModule</text>
</g>
<!-- TerminusUIModule -->
<g id="node6" class="node">
<title>TerminusUIModule</title>
<polygon fill="#8dd3c7" stroke="#000000" points="428.9706,-187 425.9706,-191 404.9706,-191 401.9706,-187 301.0294,-187 301.0294,-151 428.9706,-151 428.9706,-187"/>
<text text-anchor="middle" x="365" y="-164.8" font-family="Times,serif" font-size="14.00" fill="#000000">TerminusUIModule</text>
</g>
<!-- TsButtonModule&#45;&gt;TerminusUIModule -->
<g id="edge1" class="edge">
<title>TsButtonModule&#45;&gt;TerminusUIModule</title>
<path fill="none" stroke="#000000" d="M658.6941,-122.2667C658.6941,-140.5552 658.6941,-166 658.6941,-166 658.6941,-166 439.0895,-166 439.0895,-166"/>
<polygon fill="#000000" stroke="#000000" points="439.0895,-162.5001 429.0895,-166 439.0895,-169.5001 439.0895,-162.5001"/>
</g>
<!-- TsInputModule -->
<g id="node2" class="node">
<title>TsInputModule</title>
<polygon fill="#8dd3c7" stroke="#000000" points="564.5982,-122 561.5982,-126 540.5982,-126 537.5982,-122 461.4018,-122 461.4018,-86 564.5982,-86 564.5982,-122"/>
<text text-anchor="middle" x="513" y="-99.8" font-family="Times,serif" font-size="14.00" fill="#000000">TsInputModule</text>
</g>
<!-- TsInputModule&#45;&gt;TerminusUIModule -->
<g id="edge2" class="edge">
<title>TsInputModule&#45;&gt;TerminusUIModule</title>
<path fill="none" stroke="#000000" d="M530.933,-122.0091C530.933,-138.0494 530.933,-159 530.933,-159 530.933,-159 439.154,-159 439.154,-159"/>
<polygon fill="#000000" stroke="#000000" points="439.1541,-155.5001 429.154,-159 439.154,-162.5001 439.1541,-155.5001"/>
</g>
<!-- TsInputMessagesModule -->
<g id="node3" class="node">
<title>TsInputMessagesModule</title>
<polygon fill="#8dd3c7" stroke="#000000" points="443.5211,-122 440.5211,-126 419.5211,-126 416.5211,-122 286.4789,-122 286.4789,-86 443.5211,-86 443.5211,-122"/>
<text text-anchor="middle" x="365" y="-99.8" font-family="Times,serif" font-size="14.00" fill="#000000">TsInputMessagesModule</text>
</g>
<!-- TsInputMessagesModule&#45;&gt;TerminusUIModule -->
<g id="edge3" class="edge">
<title>TsInputMessagesModule&#45;&gt;TerminusUIModule</title>
<path fill="none" stroke="#000000" d="M365,-122.1061C365,-122.1061 365,-140.991 365,-140.991"/>
<polygon fill="#000000" stroke="#000000" points="361.5001,-140.9909 365,-150.991 368.5001,-140.991 361.5001,-140.9909"/>
</g>
<!-- TsMenuModule -->
<g id="node4" class="node">
<title>TsMenuModule</title>
<polygon fill="#8dd3c7" stroke="#000000" points="268.2064,-122 265.2064,-126 244.2064,-126 241.2064,-122 161.7936,-122 161.7936,-86 268.2064,-86 268.2064,-122"/>
<text text-anchor="middle" x="215" y="-99.8" font-family="Times,serif" font-size="14.00" fill="#000000">TsMenuModule</text>
</g>
<!-- TsMenuModule&#45;&gt;TerminusUIModule -->
<g id="edge4" class="edge">
<title>TsMenuModule&#45;&gt;TerminusUIModule</title>
<path fill="none" stroke="#000000" d="M231.8677,-122.0091C231.8677,-138.0494 231.8677,-159 231.8677,-159 231.8677,-159 290.7736,-159 290.7736,-159"/>
<polygon fill="#000000" stroke="#000000" points="290.7737,-162.5001 300.7736,-159 290.7736,-155.5001 290.7737,-162.5001"/>
</g>
<!-- TsSearchModule -->
<g id="node5" class="node">
<title>TsSearchModule</title>
<polygon fill="#8dd3c7" stroke="#000000" points="143.6346,-122 140.6346,-126 119.6346,-126 116.6346,-122 32.3654,-122 32.3654,-86 143.6346,-86 143.6346,-122"/>
<text text-anchor="middle" x="88" y="-99.8" font-family="Times,serif" font-size="14.00" fill="#000000">TsSearchModule</text>
</g>
<!-- TsSearchModule&#45;&gt;TerminusUIModule -->
<g id="edge5" class="edge">
<title>TsSearchModule&#45;&gt;TerminusUIModule</title>
<path fill="none" stroke="#000000" d="M103.7723,-122.2667C103.7723,-140.5552 103.7723,-166 103.7723,-166 103.7723,-166 290.762,-166 290.762,-166"/>
<polygon fill="#000000" stroke="#000000" points="290.762,-169.5001 300.762,-166 290.7619,-162.5001 290.762,-169.5001"/>
</g>
<!-- TsButtonModule  -->
<g id="node7" class="node">
<title>TsButtonModule </title>
<polygon fill="#fb8072" stroke="#000000" points="703.6649,-252 588.3351,-252 588.3351,-216 703.6649,-216 703.6649,-252"/>
<text text-anchor="middle" x="646" y="-229.8" font-family="Times,serif" font-size="14.00" fill="#000000">TsButtonModule </text>
</g>
<!-- TerminusUIModule&#45;&gt;TsButtonModule  -->
<g id="edge6" class="edge">
<title>TerminusUIModule&#45;&gt;TsButtonModule </title>
<path fill="none" stroke="#000000" stroke-dasharray="5,2" d="M429.2449,-173C505.8195,-173 623.5559,-173 623.5559,-173 623.5559,-173 623.5559,-205.698 623.5559,-205.698"/>
<polygon fill="#000000" stroke="#000000" points="620.056,-205.698 623.5559,-215.698 627.056,-205.698 620.056,-205.698"/>
</g>
<!-- TsInputModule  -->
<g id="node8" class="node">
<title>TsInputModule </title>
<polygon fill="#fb8072" stroke="#000000" points="570.099,-252 463.901,-252 463.901,-216 570.099,-216 570.099,-252"/>
<text text-anchor="middle" x="517" y="-229.8" font-family="Times,serif" font-size="14.00" fill="#000000">TsInputModule </text>
</g>
<!-- TerminusUIModule&#45;&gt;TsInputModule  -->
<g id="edge7" class="edge">
<title>TerminusUIModule&#45;&gt;TsInputModule </title>
<path fill="none" stroke="#000000" stroke-dasharray="5,2" d="M429.2205,-180C462.9329,-180 497.317,-180 497.317,-180 497.317,-180 497.317,-205.7181 497.317,-205.7181"/>
<polygon fill="#000000" stroke="#000000" points="493.8171,-205.718 497.317,-215.7181 500.8171,-205.7181 493.8171,-205.718"/>
</g>
<!-- TsInputMessagesModule  -->
<g id="node9" class="node">
<title>TsInputMessagesModule </title>
<polygon fill="#fb8072" stroke="#000000" points="445.5204,-252 284.4796,-252 284.4796,-216 445.5204,-216 445.5204,-252"/>
<text text-anchor="middle" x="365" y="-229.8" font-family="Times,serif" font-size="14.00" fill="#000000">TsInputMessagesModule </text>
</g>
<!-- TerminusUIModule&#45;&gt;TsInputMessagesModule  -->
<g id="edge8" class="edge">
<title>TerminusUIModule&#45;&gt;TsInputMessagesModule </title>
<path fill="none" stroke="#000000" stroke-dasharray="5,2" d="M365,-187.1061C365,-187.1061 365,-205.991 365,-205.991"/>
<polygon fill="#000000" stroke="#000000" points="361.5001,-205.9909 365,-215.991 368.5001,-205.991 361.5001,-205.9909"/>
</g>
<!-- TsMenuModule  -->
<g id="node10" class="node">
<title>TsMenuModule </title>
<polygon fill="#fb8072" stroke="#000000" points="266.7066,-252 157.2934,-252 157.2934,-216 266.7066,-216 266.7066,-252"/>
<text text-anchor="middle" x="212" y="-229.8" font-family="Times,serif" font-size="14.00" fill="#000000">TsMenuModule </text>
</g>
<!-- TerminusUIModule&#45;&gt;TsMenuModule  -->
<g id="edge9" class="edge">
<title>TerminusUIModule&#45;&gt;TsMenuModule </title>
<path fill="none" stroke="#000000" stroke-dasharray="5,2" d="M300.9623,-180C253.4523,-180 196.8823,-180 196.8823,-180 196.8823,-180 196.8823,-205.7181 196.8823,-205.7181"/>
<polygon fill="#000000" stroke="#000000" points="193.3824,-205.718 196.8823,-215.7181 200.3824,-205.7181 193.3824,-205.718"/>
</g>
<!-- TsSearchModule  -->
<g id="node11" class="node">
<title>TsSearchModule </title>
<polygon fill="#fb8072" stroke="#000000" points="139.6341,-252 24.3659,-252 24.3659,-216 139.6341,-216 139.6341,-252"/>
<text text-anchor="middle" x="82" y="-229.8" font-family="Times,serif" font-size="14.00" fill="#000000">TsSearchModule </text>
</g>
<!-- TerminusUIModule&#45;&gt;TsSearchModule  -->
<g id="edge10" class="edge">
<title>TerminusUIModule&#45;&gt;TsSearchModule </title>
<path fill="none" stroke="#000000" stroke-dasharray="5,2" d="M300.9163,-173C213.5998,-173 67.9777,-173 67.9777,-173 67.9777,-173 67.9777,-205.698 67.9777,-205.698"/>
<polygon fill="#000000" stroke="#000000" points="64.4778,-205.698 67.9777,-215.698 71.4778,-205.698 64.4778,-205.698"/>
</g>
</g>
</svg>
