<?xml version="1.0" encoding="UTF-8" standalone="no"?>
<!DOCTYPE svg PUBLIC "-//W3C//DTD SVG 1.1//EN"
 "http://www.w3.org/Graphics/SVG/1.1/DTD/svg11.dtd">
<!-- Generated by graphviz version 2.40.1 (20161225.0304)
 -->
<!-- Title: dependencies Pages: 1 -->
<svg width="1019pt" height="284pt"
 viewBox="0.00 0.00 1019.00 284.00" xmlns="http://www.w3.org/2000/svg" xmlns:xlink="http://www.w3.org/1999/xlink">
<g id="graph0" class="graph" transform="scale(1 1) rotate(0) translate(4 280)">
<title>dependencies</title>
<polygon fill="#ffffff" stroke="transparent" points="-4,4 -4,-280 1015,-280 1015,4 -4,4"/>
<text text-anchor="start" x="484.5091" y="-42.4" font-family="sans-serif" font-weight="bold" font-size="14.00" fill="#000000">Legend</text>
<polygon fill="#ffffb3" stroke="transparent" points="271.5,-10 271.5,-30 291.5,-30 291.5,-10 271.5,-10"/>
<text text-anchor="start" x="295.129" y="-15.4" font-family="sans-serif" font-size="14.00" fill="#000000"> &#160;Declarations</text>
<polygon fill="#8dd3c7" stroke="transparent" points="384.5,-10 384.5,-30 404.5,-30 404.5,-10 384.5,-10"/>
<text text-anchor="start" x="408.2251" y="-15.4" font-family="sans-serif" font-size="14.00" fill="#000000"> &#160;Module</text>
<polygon fill="#80b1d3" stroke="transparent" points="470.5,-10 470.5,-30 490.5,-30 490.5,-10 470.5,-10"/>
<text text-anchor="start" x="494.2812" y="-15.4" font-family="sans-serif" font-size="14.00" fill="#000000"> &#160;Bootstrap</text>
<polygon fill="#fdb462" stroke="transparent" points="567.5,-10 567.5,-30 587.5,-30 587.5,-10 567.5,-10"/>
<text text-anchor="start" x="591.1732" y="-15.4" font-family="sans-serif" font-size="14.00" fill="#000000"> &#160;Providers</text>
<polygon fill="#fb8072" stroke="transparent" points="663.5,-10 663.5,-30 683.5,-30 683.5,-10 663.5,-10"/>
<text text-anchor="start" x="687.2258" y="-15.4" font-family="sans-serif" font-size="14.00" fill="#000000"> &#160;Exports</text>
<g id="clust1" class="cluster">
<title>cluster_TerminusUIModule</title>
<polygon fill="none" stroke="#000000" stroke-dasharray="1,5" points="8,-70 8,-268 1003,-268 1003,-70 8,-70"/>
</g>
<g id="clust3" class="cluster">
<title>cluster_TerminusUIModule_imports</title>
<polygon fill="none" stroke="#000000" points="26,-78 26,-130 982,-130 982,-78 26,-78"/>
</g>
<g id="clust4" class="cluster">
<title>cluster_TerminusUIModule_exports</title>
<polygon fill="none" stroke="#000000" points="16,-208 16,-260 995,-260 995,-208 16,-208"/>
</g>
<!-- TsButtonModule -->
<g id="node1" class="node">
<title>TsButtonModule</title>
<polygon fill="#8dd3c7" stroke="#000000" points="973.6653,-122 970.6653,-126 949.6653,-126 946.6653,-122 862.3347,-122 862.3347,-86 973.6653,-86 973.6653,-122"/>
<text text-anchor="middle" x="918" y="-99.8" font-family="Times,serif" font-size="14.00" fill="#000000">TsButtonModule</text>
</g>
<!-- TerminusUIModule -->
<g id="node8" class="node">
<title>TerminusUIModule</title>
<polygon fill="#8dd3c7" stroke="#000000" points="558.9706,-187 555.9706,-191 534.9706,-191 531.9706,-187 431.0294,-187 431.0294,-151 558.9706,-151 558.9706,-187"/>
<text text-anchor="middle" x="495" y="-164.8" font-family="Times,serif" font-size="14.00" fill="#000000">TerminusUIModule</text>
</g>
<!-- TsButtonModule&#45;&gt;TerminusUIModule -->
<g id="edge1" class="edge">
<title>TsButtonModule&#45;&gt;TerminusUIModule</title>
<path fill="none" stroke="#000000" d="M866.7926,-122.2667C866.7926,-140.5552 866.7926,-166 866.7926,-166 866.7926,-166 569.3369,-166 569.3369,-166"/>
<polygon fill="#000000" stroke="#000000" points="569.3369,-162.5001 559.3369,-166 569.3368,-169.5001 569.3369,-162.5001"/>
</g>
<!-- TsInputModule -->
<g id="node2" class="node">
<title>TsInputModule</title>
<polygon fill="#8dd3c7" stroke="#000000" points="844.5982,-122 841.5982,-126 820.5982,-126 817.5982,-122 741.4018,-122 741.4018,-86 844.5982,-86 844.5982,-122"/>
<text text-anchor="middle" x="793" y="-99.8" font-family="Times,serif" font-size="14.00" fill="#000000">TsInputModule</text>
</g>
<!-- TsInputModule&#45;&gt;TerminusUIModule -->
<g id="edge2" class="edge">
<title>TsInputModule&#45;&gt;TerminusUIModule</title>
<path fill="none" stroke="#000000" d="M811.933,-122.0091C811.933,-138.0494 811.933,-159 811.933,-159 811.933,-159 569.1361,-159 569.1361,-159"/>
<polygon fill="#000000" stroke="#000000" points="569.1362,-155.5001 559.1361,-159 569.1361,-162.5001 569.1362,-155.5001"/>
</g>
<!-- TsInputMessagesModule -->
<g id="node3" class="node">
<title>TsInputMessagesModule</title>
<polygon fill="#8dd3c7" stroke="#000000" points="723.5211,-122 720.5211,-126 699.5211,-126 696.5211,-122 566.4789,-122 566.4789,-86 723.5211,-86 723.5211,-122"/>
<text text-anchor="middle" x="645" y="-99.8" font-family="Times,serif" font-size="14.00" fill="#000000">TsInputMessagesModule</text>
</g>
<!-- TsInputMessagesModule&#45;&gt;TerminusUIModule -->
<g id="edge3" class="edge">
<title>TsInputMessagesModule&#45;&gt;TerminusUIModule</title>
<path fill="none" stroke="#000000" d="M566.2607,-104C558.568,-104 553.5442,-104 553.5442,-104 553.5442,-104 553.5442,-140.8939 553.5442,-140.8939"/>
<polygon fill="#000000" stroke="#000000" points="550.0443,-140.8938 553.5442,-150.8939 557.0443,-140.8939 550.0443,-140.8938"/>
</g>
<!-- TsMenuModule -->
<g id="node4" class="node">
<title>TsMenuModule</title>
<polygon fill="#8dd3c7" stroke="#000000" points="548.2064,-122 545.2064,-126 524.2064,-126 521.2064,-122 441.7936,-122 441.7936,-86 548.2064,-86 548.2064,-122"/>
<text text-anchor="middle" x="495" y="-99.8" font-family="Times,serif" font-size="14.00" fill="#000000">TsMenuModule</text>
</g>
<!-- TsMenuModule&#45;&gt;TerminusUIModule -->
<g id="edge4" class="edge">
<title>TsMenuModule&#45;&gt;TerminusUIModule</title>
<path fill="none" stroke="#000000" d="M495,-122.1061C495,-122.1061 495,-140.991 495,-140.991"/>
<polygon fill="#000000" stroke="#000000" points="491.5001,-140.9909 495,-150.991 498.5001,-140.991 491.5001,-140.9909"/>
</g>
<!-- TsSelectModule -->
<g id="node5" class="node">
<title>TsSelectModule</title>
<polygon fill="#8dd3c7" stroke="#000000" points="423.7549,-122 420.7549,-126 399.7549,-126 396.7549,-122 316.2451,-122 316.2451,-86 423.7549,-86 423.7549,-122"/>
<text text-anchor="middle" x="370" y="-99.8" font-family="Times,serif" font-size="14.00" fill="#000000">TsSelectModule</text>
</g>
<!-- TsSelectModule&#45;&gt;TerminusUIModule -->
<g id="edge5" class="edge">
<title>TsSelectModule&#45;&gt;TerminusUIModule</title>
<path fill="none" stroke="#000000" d="M423.956,-104C431.344,-104 436.4558,-104 436.4558,-104 436.4558,-104 436.4558,-140.8939 436.4558,-140.8939"/>
<polygon fill="#000000" stroke="#000000" points="432.9559,-140.8938 436.4558,-150.8939 439.9559,-140.8939 432.9559,-140.8938"/>
</g>
<!-- TsSearchModule -->
<g id="node6" class="node">
<title>TsSearchModule</title>
<polygon fill="#8dd3c7" stroke="#000000" points="297.6346,-122 294.6346,-126 273.6346,-126 270.6346,-122 186.3654,-122 186.3654,-86 297.6346,-86 297.6346,-122"/>
<text text-anchor="middle" x="242" y="-99.8" font-family="Times,serif" font-size="14.00" fill="#000000">TsSearchModule</text>
</g>
<!-- TsSearchModule&#45;&gt;TerminusUIModule -->
<g id="edge6" class="edge">
<title>TsSearchModule&#45;&gt;TerminusUIModule</title>
<path fill="none" stroke="#000000" d="M257.7723,-122.0091C257.7723,-138.0494 257.7723,-159 257.7723,-159 257.7723,-159 420.8028,-159 420.8028,-159"/>
<polygon fill="#000000" stroke="#000000" points="420.8028,-162.5001 430.8028,-159 420.8027,-155.5001 420.8028,-162.5001"/>
</g>
<!-- TsPaginationModule -->
<g id="node7" class="node">
<title>TsPaginationModule</title>
<polygon fill="#8dd3c7" stroke="#000000" points="167.9313,-122 164.9313,-126 143.9313,-126 140.9313,-122 34.0687,-122 34.0687,-86 167.9313,-86 167.9313,-122"/>
<text text-anchor="middle" x="101" y="-99.8" font-family="Times,serif" font-size="14.00" fill="#000000">TsPaginationModule</text>
</g>
<!-- TsPaginationModule&#45;&gt;TerminusUIModule -->
<g id="edge7" class="edge">
<title>TsPaginationModule&#45;&gt;TerminusUIModule</title>
<path fill="none" stroke="#000000" d="M164.0903,-122.2667C164.0903,-140.5552 164.0903,-166 164.0903,-166 164.0903,-166 420.8049,-166 420.8049,-166"/>
<polygon fill="#000000" stroke="#000000" points="420.805,-169.5001 430.8049,-166 420.8049,-162.5001 420.805,-169.5001"/>
</g>
<!-- TsButtonModule  -->
<g id="node9" class="node">
<title>TsButtonModule </title>
<polygon fill="#fb8072" stroke="#000000" points="986.6649,-252 871.3351,-252 871.3351,-216 986.6649,-216 986.6649,-252"/>
<text text-anchor="middle" x="929" y="-229.8" font-family="Times,serif" font-size="14.00" fill="#000000">TsButtonModule </text>
</g>
<!-- TerminusUIModule&#45;&gt;TsButtonModule  -->
<g id="edge8" class="edge">
<title>TerminusUIModule&#45;&gt;TsButtonModule </title>
<path fill="none" stroke="#000000" stroke-dasharray="5,2" d="M559.0198,-173C678.3128,-173 922.625,-173 922.625,-173 922.625,-173 922.625,-205.698 922.625,-205.698"/>
<polygon fill="#000000" stroke="#000000" points="919.1251,-205.698 922.625,-215.698 926.1251,-205.698 919.1251,-205.698"/>
</g>
<!-- TsInputModule  -->
<g id="node10" class="node">
<title>TsInputModule </title>
<polygon fill="#fb8072" stroke="#000000" points="853.099,-252 746.901,-252 746.901,-216 853.099,-216 853.099,-252"/>
<text text-anchor="middle" x="800" y="-229.8" font-family="Times,serif" font-size="14.00" fill="#000000">TsInputModule </text>
</g>
<!-- TerminusUIModule&#45;&gt;TsInputModule  -->
<g id="edge9" class="edge">
<title>TerminusUIModule&#45;&gt;TsInputModule </title>
<path fill="none" stroke="#000000" stroke-dasharray="5,2" d="M559.1608,-180C643.0171,-180 779.317,-180 779.317,-180 779.317,-180 779.317,-205.7181 779.317,-205.7181"/>
<polygon fill="#000000" stroke="#000000" points="775.8171,-205.718 779.317,-215.7181 782.8171,-205.7181 775.8171,-205.718"/>
</g>
<!-- TsInputMessagesModule  -->
<g id="node11" class="node">
<title>TsInputMessagesModule </title>
<polygon fill="#fb8072" stroke="#000000" points="728.5204,-252 567.4796,-252 567.4796,-216 728.5204,-216 728.5204,-252"/>
<text text-anchor="middle" x="648" y="-229.8" font-family="Times,serif" font-size="14.00" fill="#000000">TsInputMessagesModule </text>
</g>
<!-- TerminusUIModule&#45;&gt;TsInputMessagesModule  -->
<g id="edge10" class="edge">
<title>TerminusUIModule&#45;&gt;TsInputMessagesModule </title>
<path fill="none" stroke="#000000" stroke-dasharray="5,2" d="M554.4192,-187.1061C554.4192,-206.3391 554.4192,-234 554.4192,-234 554.4192,-234 557.4312,-234 557.4312,-234"/>
<polygon fill="#000000" stroke="#000000" points="557.4312,-237.5001 567.4312,-234 557.4312,-230.5001 557.4312,-237.5001"/>
</g>
<!-- TsMenuModule  -->
<g id="node12" class="node">
<title>TsMenuModule </title>
<polygon fill="#fb8072" stroke="#000000" points="549.7066,-252 440.2934,-252 440.2934,-216 549.7066,-216 549.7066,-252"/>
<text text-anchor="middle" x="495" y="-229.8" font-family="Times,serif" font-size="14.00" fill="#000000">TsMenuModule </text>
</g>
<!-- TerminusUIModule&#45;&gt;TsMenuModule  -->
<g id="edge11" class="edge">
<title>TerminusUIModule&#45;&gt;TsMenuModule </title>
<path fill="none" stroke="#000000" stroke-dasharray="5,2" d="M495,-187.1061C495,-187.1061 495,-205.991 495,-205.991"/>
<polygon fill="#000000" stroke="#000000" points="491.5001,-205.9909 495,-215.991 498.5001,-205.991 491.5001,-205.9909"/>
</g>
<!-- TsSelectModule  -->
<g id="node13" class="node">
<title>TsSelectModule </title>
<polygon fill="#fb8072" stroke="#000000" points="422.7549,-252 311.2451,-252 311.2451,-216 422.7549,-216 422.7549,-252"/>
<text text-anchor="middle" x="367" y="-229.8" font-family="Times,serif" font-size="14.00" fill="#000000">TsSelectModule </text>
</g>
<!-- TerminusUIModule&#45;&gt;TsSelectModule  -->
<g id="edge12" class="edge">
<title>TerminusUIModule&#45;&gt;TsSelectModule </title>
<path fill="none" stroke="#000000" stroke-dasharray="5,2" d="M435.5808,-187.1061C435.5808,-206.3391 435.5808,-234 435.5808,-234 435.5808,-234 432.6813,-234 432.6813,-234"/>
<polygon fill="#000000" stroke="#000000" points="432.6813,-230.5001 422.6813,-234 432.6812,-237.5001 432.6813,-230.5001"/>
</g>
<!-- TsSearchModule  -->
<g id="node14" class="node">
<title>TsSearchModule </title>
<polygon fill="#fb8072" stroke="#000000" points="293.6341,-252 178.3659,-252 178.3659,-216 293.6341,-216 293.6341,-252"/>
<text text-anchor="middle" x="236" y="-229.8" font-family="Times,serif" font-size="14.00" fill="#000000">TsSearchModule </text>
</g>
<!-- TerminusUIModule&#45;&gt;TsSearchModule  -->
<g id="edge13" class="edge">
<title>TerminusUIModule&#45;&gt;TsSearchModule </title>
<path fill="none" stroke="#000000" stroke-dasharray="5,2" d="M430.9884,-180C350.2912,-180 221.9777,-180 221.9777,-180 221.9777,-180 221.9777,-205.7181 221.9777,-205.7181"/>
<polygon fill="#000000" stroke="#000000" points="218.4778,-205.718 221.9777,-215.7181 225.4778,-205.7181 218.4778,-205.718"/>
</g>
<!-- TsPaginationModule  -->
<g id="node15" class="node">
<title>TsPaginationModule </title>
<polygon fill="#fb8072" stroke="#000000" points="160.4306,-252 23.5694,-252 23.5694,-216 160.4306,-216 160.4306,-252"/>
<text text-anchor="middle" x="92" y="-229.8" font-family="Times,serif" font-size="14.00" fill="#000000">TsPaginationModule </text>
</g>
<!-- TerminusUIModule&#45;&gt;TsPaginationModule  -->
<g id="edge14" class="edge">
<title>TerminusUIModule&#45;&gt;TsPaginationModule </title>
<path fill="none" stroke="#000000" stroke-dasharray="5,2" d="M430.6727,-173C318.1363,-173 97.375,-173 97.375,-173 97.375,-173 97.375,-205.698 97.375,-205.698"/>
<polygon fill="#000000" stroke="#000000" points="93.8751,-205.698 97.375,-215.698 100.8751,-205.698 93.8751,-205.698"/>
</g>
</g>
</svg>
