<?xml version="1.0" encoding="UTF-8" standalone="no"?>
<!DOCTYPE svg PUBLIC "-//W3C//DTD SVG 1.1//EN"
 "http://www.w3.org/Graphics/SVG/1.1/DTD/svg11.dtd">
<!-- Generated by graphviz version 2.40.1 (20161225.0304)
 -->
<!-- Title: dependencies Pages: 1 -->
<svg width="609pt" height="284pt"
 viewBox="0.00 0.00 609.00 284.00" xmlns="http://www.w3.org/2000/svg" xmlns:xlink="http://www.w3.org/1999/xlink">
<g id="graph0" class="graph" transform="scale(1 1) rotate(0) translate(4 280)">
<title>dependencies</title>
<polygon fill="#ffffff" stroke="transparent" points="-4,4 -4,-280 605,-280 605,4 -4,4"/>
<text text-anchor="start" x="279.5091" y="-42.4" font-family="sans-serif" font-weight="bold" font-size="14.00" fill="#000000">Legend</text>
<polygon fill="#ffffb3" stroke="transparent" points="66.5,-10 66.5,-30 86.5,-30 86.5,-10 66.5,-10"/>
<text text-anchor="start" x="90.129" y="-15.4" font-family="sans-serif" font-size="14.00" fill="#000000"> &#160;Declarations</text>
<polygon fill="#8dd3c7" stroke="transparent" points="179.5,-10 179.5,-30 199.5,-30 199.5,-10 179.5,-10"/>
<text text-anchor="start" x="203.2251" y="-15.4" font-family="sans-serif" font-size="14.00" fill="#000000"> &#160;Module</text>
<polygon fill="#80b1d3" stroke="transparent" points="265.5,-10 265.5,-30 285.5,-30 285.5,-10 265.5,-10"/>
<text text-anchor="start" x="289.2812" y="-15.4" font-family="sans-serif" font-size="14.00" fill="#000000"> &#160;Bootstrap</text>
<polygon fill="#fdb462" stroke="transparent" points="362.5,-10 362.5,-30 382.5,-30 382.5,-10 362.5,-10"/>
<text text-anchor="start" x="386.1732" y="-15.4" font-family="sans-serif" font-size="14.00" fill="#000000"> &#160;Providers</text>
<polygon fill="#fb8072" stroke="transparent" points="458.5,-10 458.5,-30 478.5,-30 478.5,-10 458.5,-10"/>
<text text-anchor="start" x="482.2258" y="-15.4" font-family="sans-serif" font-size="14.00" fill="#000000"> &#160;Exports</text>
<g id="clust1" class="cluster">
<title>cluster_TerminusUIModule</title>
<polygon fill="none" stroke="#000000" stroke-dasharray="1,5" points="8,-70 8,-268 593,-268 593,-70 8,-70"/>
</g>
<g id="clust3" class="cluster">
<title>cluster_TerminusUIModule_imports</title>
<polygon fill="none" stroke="#000000" points="25,-78 25,-130 579,-130 579,-78 25,-78"/>
</g>
<g id="clust4" class="cluster">
<title>cluster_TerminusUIModule_exports</title>
<polygon fill="none" stroke="#000000" points="16,-208 16,-260 585,-260 585,-208 16,-208"/>
</g>
<!-- TsButtonModule -->
<g id="node1" class="node">
<title>TsButtonModule</title>
<polygon fill="#8dd3c7" stroke="#000000" points="570.6653,-122 567.6653,-126 546.6653,-126 543.6653,-122 459.3347,-122 459.3347,-86 570.6653,-86 570.6653,-122"/>
<text text-anchor="middle" x="515" y="-99.8" font-family="Times,serif" font-size="14.00" fill="#000000">TsButtonModule</text>
</g>
<!-- TerminusUIModule -->
<g id="node5" class="node">
<title>TerminusUIModule</title>
<polygon fill="#8dd3c7" stroke="#000000" points="307.9706,-187 304.9706,-191 283.9706,-191 280.9706,-187 180.0294,-187 180.0294,-151 307.9706,-151 307.9706,-187"/>
<text text-anchor="middle" x="244" y="-164.8" font-family="Times,serif" font-size="14.00" fill="#000000">TerminusUIModule</text>
</g>
<!-- TsButtonModule&#45;&gt;TerminusUIModule -->
<g id="edge1" class="edge">
<title>TsButtonModule&#45;&gt;TerminusUIModule</title>
<path fill="none" stroke="#000000" d="M534.3608,-122.2667C534.3608,-140.5552 534.3608,-166 534.3608,-166 534.3608,-166 318.0804,-166 318.0804,-166"/>
<polygon fill="#000000" stroke="#000000" points="318.0804,-162.5001 308.0804,-166 318.0803,-169.5001 318.0804,-162.5001"/>
</g>
<!-- TsInputModule -->
<g id="node2" class="node">
<title>TsInputModule</title>
<polygon fill="#8dd3c7" stroke="#000000" points="441.5982,-122 438.5982,-126 417.5982,-126 414.5982,-122 338.4018,-122 338.4018,-86 441.5982,-86 441.5982,-122"/>
<text text-anchor="middle" x="390" y="-99.8" font-family="Times,serif" font-size="14.00" fill="#000000">TsInputModule</text>
</g>
<!-- TsInputModule&#45;&gt;TerminusUIModule -->
<g id="edge2" class="edge">
<title>TsInputModule&#45;&gt;TerminusUIModule</title>
<path fill="none" stroke="#000000" d="M407.183,-122.0091C407.183,-138.0494 407.183,-159 407.183,-159 407.183,-159 318.0259,-159 318.0259,-159"/>
<polygon fill="#000000" stroke="#000000" points="318.0259,-155.5001 308.0259,-159 318.0259,-162.5001 318.0259,-155.5001"/>
</g>
<!-- TsInputMessagesModule -->
<g id="node3" class="node">
<title>TsInputMessagesModule</title>
<polygon fill="#8dd3c7" stroke="#000000" points="320.5211,-122 317.5211,-126 296.5211,-126 293.5211,-122 163.4789,-122 163.4789,-86 320.5211,-86 320.5211,-122"/>
<text text-anchor="middle" x="242" y="-99.8" font-family="Times,serif" font-size="14.00" fill="#000000">TsInputMessagesModule</text>
</g>
<!-- TsInputMessagesModule&#45;&gt;TerminusUIModule -->
<g id="edge3" class="edge">
<title>TsInputMessagesModule&#45;&gt;TerminusUIModule</title>
<path fill="none" stroke="#000000" d="M244,-122.1061C244,-122.1061 244,-140.991 244,-140.991"/>
<polygon fill="#000000" stroke="#000000" points="240.5001,-140.9909 244,-150.991 247.5001,-140.991 240.5001,-140.9909"/>
</g>
<!-- TsSearchModule -->
<g id="node4" class="node">
<title>TsSearchModule</title>
<polygon fill="#8dd3c7" stroke="#000000" points="144.6346,-122 141.6346,-126 120.6346,-126 117.6346,-122 33.3654,-122 33.3654,-86 144.6346,-86 144.6346,-122"/>
<text text-anchor="middle" x="89" y="-99.8" font-family="Times,serif" font-size="14.00" fill="#000000">TsSearchModule</text>
</g>
<!-- TsSearchModule&#45;&gt;TerminusUIModule -->
<g id="edge4" class="edge">
<title>TsSearchModule&#45;&gt;TerminusUIModule</title>
<path fill="none" stroke="#000000" d="M104.1057,-122.0225C104.1057,-139.3734 104.1057,-163 104.1057,-163 104.1057,-163 169.785,-163 169.785,-163"/>
<polygon fill="#000000" stroke="#000000" points="169.785,-166.5001 179.785,-163 169.7849,-159.5001 169.785,-166.5001"/>
</g>
<!-- TsButtonModule  -->
<g id="node6" class="node">
<title>TsButtonModule </title>
<polygon fill="#fb8072" stroke="#000000" points="576.6649,-252 461.3351,-252 461.3351,-216 576.6649,-216 576.6649,-252"/>
<text text-anchor="middle" x="519" y="-229.8" font-family="Times,serif" font-size="14.00" fill="#000000">TsButtonModule </text>
</g>
<!-- TerminusUIModule&#45;&gt;TsButtonModule  -->
<g id="edge5" class="edge">
<title>TerminusUIModule&#45;&gt;TsButtonModule </title>
<path fill="none" stroke="#000000" stroke-dasharray="5,2" d="M308.067,-173C383.2795,-173 497.8892,-173 497.8892,-173 497.8892,-173 497.8892,-205.698 497.8892,-205.698"/>
<polygon fill="#000000" stroke="#000000" points="494.3893,-205.698 497.8892,-215.698 501.3893,-205.698 494.3893,-205.698"/>
</g>
<!-- TsInputModule  -->
<g id="node7" class="node">
<title>TsInputModule </title>
<polygon fill="#fb8072" stroke="#000000" points="443.099,-252 336.901,-252 336.901,-216 443.099,-216 443.099,-252"/>
<text text-anchor="middle" x="390" y="-229.8" font-family="Times,serif" font-size="14.00" fill="#000000">TsInputModule </text>
</g>
<!-- TerminusUIModule&#45;&gt;TsInputModule  -->
<g id="edge6" class="edge">
<title>TerminusUIModule&#45;&gt;TsInputModule </title>
<path fill="none" stroke="#000000" stroke-dasharray="5,2" d="M308.0311,-180C340.3606,-180 372.817,-180 372.817,-180 372.817,-180 372.817,-205.7181 372.817,-205.7181"/>
<polygon fill="#000000" stroke="#000000" points="369.3171,-205.718 372.817,-215.7181 376.3171,-205.7181 369.3171,-205.718"/>
</g>
<!-- TsInputMessagesModule  -->
<g id="node8" class="node">
<title>TsInputMessagesModule </title>
<polygon fill="#fb8072" stroke="#000000" points="318.5204,-252 157.4796,-252 157.4796,-216 318.5204,-216 318.5204,-252"/>
<text text-anchor="middle" x="238" y="-229.8" font-family="Times,serif" font-size="14.00" fill="#000000">TsInputMessagesModule </text>
</g>
<!-- TerminusUIModule&#45;&gt;TsInputMessagesModule  -->
<g id="edge7" class="edge">
<title>TerminusUIModule&#45;&gt;TsInputMessagesModule </title>
<path fill="none" stroke="#000000" stroke-dasharray="5,2" d="M244,-187.1061C244,-187.1061 244,-205.991 244,-205.991"/>
<polygon fill="#000000" stroke="#000000" points="240.5001,-205.9909 244,-215.991 247.5001,-205.991 240.5001,-205.9909"/>
</g>
<!-- TsSearchModule  -->
<g id="node9" class="node">
<title>TsSearchModule </title>
<polygon fill="#fb8072" stroke="#000000" points="139.6341,-252 24.3659,-252 24.3659,-216 139.6341,-216 139.6341,-252"/>
<text text-anchor="middle" x="82" y="-229.8" font-family="Times,serif" font-size="14.00" fill="#000000">TsSearchModule </text>
</g>
<!-- TerminusUIModule&#45;&gt;TsSearchModule  -->
<g id="edge8" class="edge">
<title>TerminusUIModule&#45;&gt;TsSearchModule </title>
<path fill="none" stroke="#000000" stroke-dasharray="5,2" d="M179.6997,-175C129.6533,-175 68.6443,-175 68.6443,-175 68.6443,-175 68.6443,-205.9775 68.6443,-205.9775"/>
<polygon fill="#000000" stroke="#000000" points="65.1444,-205.9774 68.6443,-215.9775 72.1444,-205.9775 65.1444,-205.9774"/>
</g>
</g>
</svg>
