<?xml version="1.0" encoding="UTF-8" standalone="no"?>
<!DOCTYPE svg PUBLIC "-//W3C//DTD SVG 1.1//EN"
 "http://www.w3.org/Graphics/SVG/1.1/DTD/svg11.dtd">
<!-- Generated by graphviz version 2.40.1 (20161225.0304)
 -->
<!-- Title: dependencies Pages: 1 -->
<svg width="1280pt" height="284pt"
 viewBox="0.00 0.00 1280.00 284.00" xmlns="http://www.w3.org/2000/svg" xmlns:xlink="http://www.w3.org/1999/xlink">
<g id="graph0" class="graph" transform="scale(1 1) rotate(0) translate(4 280)">
<title>dependencies</title>
<polygon fill="#ffffff" stroke="transparent" points="-4,4 -4,-280 1276,-280 1276,4 -4,4"/>
<text text-anchor="start" x="615.0091" y="-42.4" font-family="sans-serif" font-weight="bold" font-size="14.00" fill="#000000">Legend</text>
<polygon fill="#ffffb3" stroke="transparent" points="402,-10 402,-30 422,-30 422,-10 402,-10"/>
<text text-anchor="start" x="425.629" y="-15.4" font-family="sans-serif" font-size="14.00" fill="#000000"> &#160;Declarations</text>
<polygon fill="#8dd3c7" stroke="transparent" points="515,-10 515,-30 535,-30 535,-10 515,-10"/>
<text text-anchor="start" x="538.7251" y="-15.4" font-family="sans-serif" font-size="14.00" fill="#000000"> &#160;Module</text>
<polygon fill="#80b1d3" stroke="transparent" points="601,-10 601,-30 621,-30 621,-10 601,-10"/>
<text text-anchor="start" x="624.7812" y="-15.4" font-family="sans-serif" font-size="14.00" fill="#000000"> &#160;Bootstrap</text>
<polygon fill="#fdb462" stroke="transparent" points="698,-10 698,-30 718,-30 718,-10 698,-10"/>
<text text-anchor="start" x="721.6732" y="-15.4" font-family="sans-serif" font-size="14.00" fill="#000000"> &#160;Providers</text>
<polygon fill="#fb8072" stroke="transparent" points="794,-10 794,-30 814,-30 814,-10 794,-10"/>
<text text-anchor="start" x="817.7258" y="-15.4" font-family="sans-serif" font-size="14.00" fill="#000000"> &#160;Exports</text>
<g id="clust1" class="cluster">
<title>cluster_TerminusUIModule</title>
<polygon fill="none" stroke="#000000" stroke-dasharray="1,5" points="8,-70 8,-268 1264,-268 1264,-70 8,-70"/>
</g>
<g id="clust3" class="cluster">
<title>cluster_TerminusUIModule_imports</title>
<polygon fill="none" stroke="#000000" points="32,-78 32,-130 1240,-130 1240,-78 32,-78"/>
</g>
<g id="clust4" class="cluster">
<title>cluster_TerminusUIModule_exports</title>
<polygon fill="none" stroke="#000000" points="16,-208 16,-260 1256,-260 1256,-208 16,-208"/>
</g>
<!-- TsButtonModule -->
<g id="node1" class="node">
<title>TsButtonModule</title>
<polygon fill="#8dd3c7" stroke="#000000" points="1231.6653,-122 1228.6653,-126 1207.6653,-126 1204.6653,-122 1120.3347,-122 1120.3347,-86 1231.6653,-86 1231.6653,-122"/>
<text text-anchor="middle" x="1176" y="-99.8" font-family="Times,serif" font-size="14.00" fill="#000000">TsButtonModule</text>
</g>
<!-- TerminusUIModule -->
<g id="node10" class="node">
<title>TerminusUIModule</title>
<polygon fill="#8dd3c7" stroke="#000000" points="691.9706,-187 688.9706,-191 667.9706,-191 664.9706,-187 564.0294,-187 564.0294,-151 691.9706,-151 691.9706,-187"/>
<text text-anchor="middle" x="628" y="-164.8" font-family="Times,serif" font-size="14.00" fill="#000000">TerminusUIModule</text>
</g>
<!-- TsButtonModule&#45;&gt;TerminusUIModule -->
<g id="edge1" class="edge">
<title>TsButtonModule&#45;&gt;TerminusUIModule</title>
<path fill="none" stroke="#000000" d="M1126.2926,-122.2222C1126.2926,-140.8285 1126.2926,-167 1126.2926,-167 1126.2926,-167 702.1229,-167 702.1229,-167"/>
<polygon fill="#000000" stroke="#000000" points="702.123,-163.5001 692.1229,-167 702.1229,-170.5001 702.123,-163.5001"/>
</g>
<!-- TsInputModule -->
<g id="node2" class="node">
<title>TsInputModule</title>
<polygon fill="#8dd3c7" stroke="#000000" points="1102.5982,-122 1099.5982,-126 1078.5982,-126 1075.5982,-122 999.4018,-122 999.4018,-86 1102.5982,-86 1102.5982,-122"/>
<text text-anchor="middle" x="1051" y="-99.8" font-family="Times,serif" font-size="14.00" fill="#000000">TsInputModule</text>
</g>
<!-- TsInputModule&#45;&gt;TerminusUIModule -->
<g id="edge2" class="edge">
<title>TsInputModule&#45;&gt;TerminusUIModule</title>
<path fill="none" stroke="#000000" d="M1003.5759,-122.0336C1003.5759,-139.0597 1003.5759,-162 1003.5759,-162 1003.5759,-162 702.1371,-162 702.1371,-162"/>
<polygon fill="#000000" stroke="#000000" points="702.1371,-158.5001 692.1371,-162 702.137,-165.5001 702.1371,-158.5001"/>
</g>
<!-- TsInputMessagesModule -->
<g id="node3" class="node">
<title>TsInputMessagesModule</title>
<polygon fill="#8dd3c7" stroke="#000000" points="981.5211,-122 978.5211,-126 957.5211,-126 954.5211,-122 824.4789,-122 824.4789,-86 981.5211,-86 981.5211,-122"/>
<text text-anchor="middle" x="903" y="-99.8" font-family="Times,serif" font-size="14.00" fill="#000000">TsInputMessagesModule</text>
</g>
<!-- TsInputMessagesModule&#45;&gt;TerminusUIModule -->
<g id="edge3" class="edge">
<title>TsInputMessagesModule&#45;&gt;TerminusUIModule</title>
<path fill="none" stroke="#000000" d="M930.6701,-122.2396C930.6701,-137.5706 930.6701,-157 930.6701,-157 930.6701,-157 702.1885,-157 702.1885,-157"/>
<polygon fill="#000000" stroke="#000000" points="702.1886,-153.5001 692.1885,-157 702.1885,-160.5001 702.1886,-153.5001"/>
</g>
<!-- TsMenuModule -->
<g id="node4" class="node">
<title>TsMenuModule</title>
<polygon fill="#8dd3c7" stroke="#000000" points="806.2064,-122 803.2064,-126 782.2064,-126 779.2064,-122 699.7936,-122 699.7936,-86 806.2064,-86 806.2064,-122"/>
<text text-anchor="middle" x="753" y="-99.8" font-family="Times,serif" font-size="14.00" fill="#000000">TsMenuModule</text>
</g>
<!-- TsMenuModule&#45;&gt;TerminusUIModule -->
<g id="edge4" class="edge">
<title>TsMenuModule&#45;&gt;TerminusUIModule</title>
<path fill="none" stroke="#000000" d="M699.67,-104C692.1574,-104 686.9313,-104 686.9313,-104 686.9313,-104 686.9313,-140.8939 686.9313,-140.8939"/>
<polygon fill="#000000" stroke="#000000" points="683.4314,-140.8938 686.9313,-150.8939 690.4314,-140.8939 683.4314,-140.8938"/>
</g>
<!-- TsSelectModule -->
<g id="node5" class="node">
<title>TsSelectModule</title>
<polygon fill="#8dd3c7" stroke="#000000" points="681.7549,-122 678.7549,-126 657.7549,-126 654.7549,-122 574.2451,-122 574.2451,-86 681.7549,-86 681.7549,-122"/>
<text text-anchor="middle" x="628" y="-99.8" font-family="Times,serif" font-size="14.00" fill="#000000">TsSelectModule</text>
</g>
<!-- TsSelectModule&#45;&gt;TerminusUIModule -->
<g id="edge5" class="edge">
<title>TsSelectModule&#45;&gt;TerminusUIModule</title>
<path fill="none" stroke="#000000" d="M628,-122.1061C628,-122.1061 628,-140.991 628,-140.991"/>
<polygon fill="#000000" stroke="#000000" points="624.5001,-140.9909 628,-150.991 631.5001,-140.991 624.5001,-140.9909"/>
</g>
<!-- TsToggleModule -->
<g id="node6" class="node">
<title>TsToggleModule</title>
<polygon fill="#8dd3c7" stroke="#000000" points="556.705,-122 553.705,-126 532.705,-126 529.705,-122 443.295,-122 443.295,-86 556.705,-86 556.705,-122"/>
<text text-anchor="middle" x="500" y="-99.8" font-family="Times,serif" font-size="14.00" fill="#000000">TsToggleModule</text>
</g>
<!-- TsToggleModule&#45;&gt;TerminusUIModule -->
<g id="edge6" class="edge">
<title>TsToggleModule&#45;&gt;TerminusUIModule</title>
<path fill="none" stroke="#000000" d="M556.7206,-104C564.0511,-104 569.0687,-104 569.0687,-104 569.0687,-104 569.0687,-140.8939 569.0687,-140.8939"/>
<polygon fill="#000000" stroke="#000000" points="565.5688,-140.8938 569.0687,-150.8939 572.5688,-140.8939 565.5688,-140.8938"/>
</g>
<!-- TsSearchModule -->
<g id="node7" class="node">
<title>TsSearchModule</title>
<polygon fill="#8dd3c7" stroke="#000000" points="425.6346,-122 422.6346,-126 401.6346,-126 398.6346,-122 314.3654,-122 314.3654,-86 425.6346,-86 425.6346,-122"/>
<text text-anchor="middle" x="370" y="-99.8" font-family="Times,serif" font-size="14.00" fill="#000000">TsSearchModule</text>
</g>
<!-- TsSearchModule&#45;&gt;TerminusUIModule -->
<g id="edge7" class="edge">
<title>TsSearchModule&#45;&gt;TerminusUIModule</title>
<path fill="none" stroke="#000000" d="M384.439,-122.2396C384.439,-137.5706 384.439,-157 384.439,-157 384.439,-157 554.0072,-157 554.0072,-157"/>
<polygon fill="#000000" stroke="#000000" points="554.0072,-160.5001 564.0072,-157 554.0072,-153.5001 554.0072,-160.5001"/>
</g>
<!-- TsPaginationModule -->
<g id="node8" class="node">
<title>TsPaginationModule</title>
<polygon fill="#8dd3c7" stroke="#000000" points="295.9313,-122 292.9313,-126 271.9313,-126 268.9313,-122 162.0687,-122 162.0687,-86 295.9313,-86 295.9313,-122"/>
<text text-anchor="middle" x="229" y="-99.8" font-family="Times,serif" font-size="14.00" fill="#000000">TsPaginationModule</text>
</g>
<!-- TsPaginationModule&#45;&gt;TerminusUIModule -->
<g id="edge8" class="edge">
<title>TsPaginationModule&#45;&gt;TerminusUIModule</title>
<path fill="none" stroke="#000000" d="M291.0903,-122.0336C291.0903,-139.0597 291.0903,-162 291.0903,-162 291.0903,-162 553.8368,-162 553.8368,-162"/>
<polygon fill="#000000" stroke="#000000" points="553.8369,-165.5001 563.8368,-162 553.8368,-158.5001 553.8369,-165.5001"/>
</g>
<!-- TsCopyModule -->
<g id="node9" class="node">
<title>TsCopyModule</title>
<polygon fill="#8dd3c7" stroke="#000000" points="143.8837,-122 140.8837,-126 119.8837,-126 116.8837,-122 40.1163,-122 40.1163,-86 143.8837,-86 143.8837,-122"/>
<text text-anchor="middle" x="92" y="-99.8" font-family="Times,serif" font-size="14.00" fill="#000000">TsCopyModule</text>
</g>
<!-- TsCopyModule&#45;&gt;TerminusUIModule -->
<g id="edge9" class="edge">
<title>TsCopyModule&#45;&gt;TerminusUIModule</title>
<path fill="none" stroke="#000000" d="M137.8168,-122.2222C137.8168,-140.8285 137.8168,-167 137.8168,-167 137.8168,-167 553.9171,-167 553.9171,-167"/>
<polygon fill="#000000" stroke="#000000" points="553.9171,-170.5001 563.9171,-167 553.9171,-163.5001 553.9171,-170.5001"/>
</g>
<!-- TsButtonModule  -->
<g id="node11" class="node">
<title>TsButtonModule </title>
<polygon fill="#fb8072" stroke="#000000" points="1247.6649,-252 1132.3351,-252 1132.3351,-216 1247.6649,-216 1247.6649,-252"/>
<text text-anchor="middle" x="1190" y="-229.8" font-family="Times,serif" font-size="14.00" fill="#000000">TsButtonModule </text>
</g>
<!-- TerminusUIModule&#45;&gt;TsButtonModule  -->
<g id="edge10" class="edge">
<title>TerminusUIModule&#45;&gt;TsButtonModule </title>
<path fill="none" stroke="#000000" stroke-dasharray="5,2" d="M692.1065,-172C837.9694,-172 1182.125,-172 1182.125,-172 1182.125,-172 1182.125,-205.7333 1182.125,-205.7333"/>
<polygon fill="#000000" stroke="#000000" points="1178.6251,-205.7333 1182.125,-215.7333 1185.6251,-205.7333 1178.6251,-205.7333"/>
</g>
<!-- TsInputModule  -->
<g id="node12" class="node">
<title>TsInputModule </title>
<polygon fill="#fb8072" stroke="#000000" points="1114.099,-252 1007.901,-252 1007.901,-216 1114.099,-216 1114.099,-252"/>
<text text-anchor="middle" x="1061" y="-229.8" font-family="Times,serif" font-size="14.00" fill="#000000">TsInputModule </text>
</g>
<!-- TerminusUIModule&#45;&gt;TsInputModule  -->
<g id="edge11" class="edge">
<title>TerminusUIModule&#45;&gt;TsInputModule </title>
<path fill="none" stroke="#000000" stroke-dasharray="5,2" d="M692.4074,-177C811.7286,-177 1055.125,-177 1055.125,-177 1055.125,-177 1055.125,-205.9648 1055.125,-205.9648"/>
<polygon fill="#000000" stroke="#000000" points="1051.6251,-205.9648 1055.125,-215.9648 1058.6251,-205.9649 1051.6251,-205.9648"/>
</g>
<!-- TsInputMessagesModule  -->
<g id="node13" class="node">
<title>TsInputMessagesModule </title>
<polygon fill="#fb8072" stroke="#000000" points="989.5204,-252 828.4796,-252 828.4796,-216 989.5204,-216 989.5204,-252"/>
<text text-anchor="middle" x="909" y="-229.8" font-family="Times,serif" font-size="14.00" fill="#000000">TsInputMessagesModule </text>
</g>
<!-- TerminusUIModule&#45;&gt;TsInputMessagesModule  -->
<g id="edge12" class="edge">
<title>TerminusUIModule&#45;&gt;TsInputMessagesModule </title>
<path fill="none" stroke="#000000" stroke-dasharray="5,2" d="M692.1352,-182C766.672,-182 879.5799,-182 879.5799,-182 879.5799,-182 879.5799,-205.8129 879.5799,-205.8129"/>
<polygon fill="#000000" stroke="#000000" points="876.08,-205.8129 879.5799,-215.8129 883.08,-205.813 876.08,-205.8129"/>
</g>
<!-- TsMenuModule  -->
<g id="node14" class="node">
<title>TsMenuModule </title>
<polygon fill="#fb8072" stroke="#000000" points="810.7066,-252 701.2934,-252 701.2934,-216 810.7066,-216 810.7066,-252"/>
<text text-anchor="middle" x="756" y="-229.8" font-family="Times,serif" font-size="14.00" fill="#000000">TsMenuModule </text>
</g>
<!-- TerminusUIModule&#45;&gt;TsMenuModule  -->
<g id="edge13" class="edge">
<title>TerminusUIModule&#45;&gt;TsMenuModule </title>
<path fill="none" stroke="#000000" stroke-dasharray="5,2" d="M687.8063,-187.1061C687.8063,-206.3391 687.8063,-234 687.8063,-234 687.8063,-234 691.2792,-234 691.2792,-234"/>
<polygon fill="#000000" stroke="#000000" points="691.2792,-237.5001 701.2792,-234 691.2791,-230.5001 691.2792,-237.5001"/>
</g>
<!-- TsSelectModule  -->
<g id="node15" class="node">
<title>TsSelectModule </title>
<polygon fill="#fb8072" stroke="#000000" points="683.7549,-252 572.2451,-252 572.2451,-216 683.7549,-216 683.7549,-252"/>
<text text-anchor="middle" x="628" y="-229.8" font-family="Times,serif" font-size="14.00" fill="#000000">TsSelectModule </text>
</g>
<!-- TerminusUIModule&#45;&gt;TsSelectModule  -->
<g id="edge14" class="edge">
<title>TerminusUIModule&#45;&gt;TsSelectModule </title>
<path fill="none" stroke="#000000" stroke-dasharray="5,2" d="M628,-187.1061C628,-187.1061 628,-205.991 628,-205.991"/>
<polygon fill="#000000" stroke="#000000" points="624.5001,-205.9909 628,-215.991 631.5001,-205.991 624.5001,-205.9909"/>
</g>
<!-- TsToggleModule  -->
<g id="node16" class="node">
<title>TsToggleModule </title>
<polygon fill="#fb8072" stroke="#000000" points="554.2052,-252 437.7948,-252 437.7948,-216 554.2052,-216 554.2052,-252"/>
<text text-anchor="middle" x="496" y="-229.8" font-family="Times,serif" font-size="14.00" fill="#000000">TsToggleModule </text>
</g>
<!-- TerminusUIModule&#45;&gt;TsToggleModule  -->
<g id="edge15" class="edge">
<title>TerminusUIModule&#45;&gt;TsToggleModule </title>
<path fill="none" stroke="#000000" stroke-dasharray="5,2" d="M568.1937,-187.1061C568.1937,-206.3391 568.1937,-234 568.1937,-234 568.1937,-234 564.274,-234 564.274,-234"/>
<polygon fill="#000000" stroke="#000000" points="564.2741,-230.5001 554.274,-234 564.274,-237.5001 564.2741,-230.5001"/>
</g>
<!-- TsSearchModule  -->
<g id="node17" class="node">
<title>TsSearchModule </title>
<polygon fill="#fb8072" stroke="#000000" points="419.6341,-252 304.3659,-252 304.3659,-216 419.6341,-216 419.6341,-252"/>
<text text-anchor="middle" x="362" y="-229.8" font-family="Times,serif" font-size="14.00" fill="#000000">TsSearchModule </text>
</g>
<!-- TerminusUIModule&#45;&gt;TsSearchModule  -->
<g id="edge16" class="edge">
<title>TerminusUIModule&#45;&gt;TsSearchModule </title>
<path fill="none" stroke="#000000" stroke-dasharray="5,2" d="M563.7132,-182C481.4096,-182 349.311,-182 349.311,-182 349.311,-182 349.311,-205.8129 349.311,-205.8129"/>
<polygon fill="#000000" stroke="#000000" points="345.8111,-205.8129 349.311,-215.8129 352.8111,-205.813 345.8111,-205.8129"/>
</g>
<!-- TsPaginationModule  -->
<g id="node18" class="node">
<title>TsPaginationModule </title>
<polygon fill="#fb8072" stroke="#000000" points="286.4306,-252 149.5694,-252 149.5694,-216 286.4306,-216 286.4306,-252"/>
<text text-anchor="middle" x="218" y="-229.8" font-family="Times,serif" font-size="14.00" fill="#000000">TsPaginationModule </text>
</g>
<!-- TerminusUIModule&#45;&gt;TsPaginationModule  -->
<g id="edge17" class="edge">
<title>TerminusUIModule&#45;&gt;TsPaginationModule </title>
<path fill="none" stroke="#000000" stroke-dasharray="5,2" d="M563.5981,-177C449.6438,-177 224.375,-177 224.375,-177 224.375,-177 224.375,-205.9648 224.375,-205.9648"/>
<polygon fill="#000000" stroke="#000000" points="220.8751,-205.9648 224.375,-215.9648 227.8751,-205.9649 220.8751,-205.9648"/>
</g>
<!-- TsCopyModule  -->
<g id="node19" class="node">
<title>TsCopyModule </title>
<polygon fill="#fb8072" stroke="#000000" points="131.8843,-252 24.1157,-252 24.1157,-216 131.8843,-216 131.8843,-252"/>
<text text-anchor="middle" x="78" y="-229.8" font-family="Times,serif" font-size="14.00" fill="#000000">TsCopyModule </text>
</g>
<!-- TerminusUIModule&#45;&gt;TsCopyModule  -->
<g id="edge18" class="edge">
<title>TerminusUIModule&#45;&gt;TsCopyModule </title>
<path fill="none" stroke="#000000" stroke-dasharray="5,2" d="M563.9499,-172C420.4948,-172 85.875,-172 85.875,-172 85.875,-172 85.875,-205.7333 85.875,-205.7333"/>
<polygon fill="#000000" stroke="#000000" points="82.3751,-205.7333 85.875,-215.7333 89.3751,-205.7333 82.3751,-205.7333"/>
</g>
</g>
</svg>
