<?xml version="1.0" encoding="UTF-8" standalone="no"?>
<!DOCTYPE svg PUBLIC "-//W3C//DTD SVG 1.1//EN"
 "http://www.w3.org/Graphics/SVG/1.1/DTD/svg11.dtd">
<!-- Generated by graphviz version 2.40.1 (20161225.0304)
 -->
<!-- Title: dependencies Pages: 1 -->
<svg width="776pt" height="284pt"
 viewBox="0.00 0.00 776.00 284.00" xmlns="http://www.w3.org/2000/svg" xmlns:xlink="http://www.w3.org/1999/xlink">
<g id="graph0" class="graph" transform="scale(1 1) rotate(0) translate(4 280)">
<title>dependencies</title>
<polygon fill="#ffffff" stroke="transparent" points="-4,4 -4,-280 772,-280 772,4 -4,4"/>
<text text-anchor="start" x="363.0091" y="-42.4" font-family="sans-serif" font-weight="bold" font-size="14.00" fill="#000000">Legend</text>
<polygon fill="#ffffb3" stroke="transparent" points="150,-10 150,-30 170,-30 170,-10 150,-10"/>
<text text-anchor="start" x="173.629" y="-15.4" font-family="sans-serif" font-size="14.00" fill="#000000"> &#160;Declarations</text>
<polygon fill="#8dd3c7" stroke="transparent" points="263,-10 263,-30 283,-30 283,-10 263,-10"/>
<text text-anchor="start" x="286.7251" y="-15.4" font-family="sans-serif" font-size="14.00" fill="#000000"> &#160;Module</text>
<polygon fill="#80b1d3" stroke="transparent" points="349,-10 349,-30 369,-30 369,-10 349,-10"/>
<text text-anchor="start" x="372.7812" y="-15.4" font-family="sans-serif" font-size="14.00" fill="#000000"> &#160;Bootstrap</text>
<polygon fill="#fdb462" stroke="transparent" points="446,-10 446,-30 466,-30 466,-10 446,-10"/>
<text text-anchor="start" x="469.6732" y="-15.4" font-family="sans-serif" font-size="14.00" fill="#000000"> &#160;Providers</text>
<polygon fill="#fb8072" stroke="transparent" points="542,-10 542,-30 562,-30 562,-10 542,-10"/>
<text text-anchor="start" x="565.7258" y="-15.4" font-family="sans-serif" font-size="14.00" fill="#000000"> &#160;Exports</text>
<g id="clust1" class="cluster">
<title>cluster_TerminusUIModule</title>
<polygon fill="none" stroke="#000000" stroke-dasharray="1,5" points="8,-70 8,-268 760,-268 760,-70 8,-70"/>
</g>
<g id="clust2" class="cluster">
<title>cluster_TerminusUIModule_declarations</title>
<polygon fill="none" stroke="#000000" points="536,-78 536,-130 752,-130 752,-78 536,-78"/>
</g>
<g id="clust4" class="cluster">
<title>cluster_TerminusUIModule_imports</title>
<polygon fill="none" stroke="#000000" points="16,-78 16,-130 528,-130 528,-78 16,-78"/>
</g>
<g id="clust5" class="cluster">
<title>cluster_TerminusUIModule_exports</title>
<polygon fill="none" stroke="#000000" points="273,-208 273,-260 493,-260 493,-208 273,-208"/>
</g>
<!-- ...TERMINUS_COMPONENTS -->
<g id="node1" class="node">
<title>...TERMINUS_COMPONENTS</title>
<polygon fill="#ffffb3" stroke="#000000" points="743.9208,-122 544.0792,-122 544.0792,-86 743.9208,-86 743.9208,-122"/>
<text text-anchor="middle" x="644" y="-99.8" font-family="Times,serif" font-size="14.00" fill="#000000">...TERMINUS_COMPONENTS</text>
</g>
<!-- TerminusUIModule -->
<g id="node2" class="node">
<title>TerminusUIModule</title>
<polygon fill="#8dd3c7" stroke="#000000" points="446.9706,-187 443.9706,-191 422.9706,-191 419.9706,-187 319.0294,-187 319.0294,-151 446.9706,-151 446.9706,-187"/>
<text text-anchor="middle" x="383" y="-164.8" font-family="Times,serif" font-size="14.00" fill="#000000">TerminusUIModule</text>
</g>
<!-- ...TERMINUS_COMPONENTS&#45;&gt;TerminusUIModule -->
<g id="edge1" class="edge">
<title>...TERMINUS_COMPONENTS&#45;&gt;TerminusUIModule</title>
<path fill="none" stroke="#000000" d="M644,-122.1061C644,-141.3391 644,-169 644,-169 644,-169 457.1821,-169 457.1821,-169"/>
<polygon fill="#000000" stroke="#000000" points="457.1821,-165.5001 447.1821,-169 457.182,-172.5001 457.1821,-165.5001"/>
</g>
<!-- ...TERMINUS_COMPONENTS  -->
<g id="node6" class="node">
<title>...TERMINUS_COMPONENTS </title>
<polygon fill="#fb8072" stroke="#000000" points="484.9212,-252 281.0788,-252 281.0788,-216 484.9212,-216 484.9212,-252"/>
<text text-anchor="middle" x="383" y="-229.8" font-family="Times,serif" font-size="14.00" fill="#000000">...TERMINUS_COMPONENTS </text>
</g>
<!-- TerminusUIModule&#45;&gt;...TERMINUS_COMPONENTS  -->
<g id="edge5" class="edge">
<title>TerminusUIModule&#45;&gt;...TERMINUS_COMPONENTS </title>
<path fill="none" stroke="#000000" stroke-dasharray="5,2" d="M383,-187.1061C383,-187.1061 383,-205.991 383,-205.991"/>
<polygon fill="#000000" stroke="#000000" points="379.5001,-205.9909 383,-215.991 386.5001,-205.991 379.5001,-205.9909"/>
</g>
<!-- CommonModule -->
<g id="node3" class="node">
<title>CommonModule</title>
<polygon fill="#8dd3c7" stroke="#000000" points="519.6681,-122 516.6681,-126 495.6681,-126 492.6681,-122 408.3319,-122 408.3319,-86 519.6681,-86 519.6681,-122"/>
<text text-anchor="middle" x="464" y="-99.8" font-family="Times,serif" font-size="14.00" fill="#000000">CommonModule</text>
</g>
<!-- CommonModule&#45;&gt;TerminusUIModule -->
<g id="edge2" class="edge">
<title>CommonModule&#45;&gt;TerminusUIModule</title>
<path fill="none" stroke="#000000" d="M427.5758,-122.1061C427.5758,-122.1061 427.5758,-140.991 427.5758,-140.991"/>
<polygon fill="#000000" stroke="#000000" points="424.0758,-140.9909 427.5758,-150.991 431.0758,-140.991 424.0758,-140.9909"/>
</g>
<!-- ...MATERIAL_MODULES -->
<g id="node4" class="node">
<title>...MATERIAL_MODULES</title>
<polygon fill="#8dd3c7" stroke="#000000" points="389.9656,-122 386.9656,-126 365.9656,-126 362.9656,-122 216.0344,-122 216.0344,-86 389.9656,-86 389.9656,-122"/>
<text text-anchor="middle" x="303" y="-99.8" font-family="Times,serif" font-size="14.00" fill="#000000">...MATERIAL_MODULES</text>
</g>
<!-- ...MATERIAL_MODULES&#45;&gt;TerminusUIModule -->
<g id="edge3" class="edge">
<title>...MATERIAL_MODULES&#45;&gt;TerminusUIModule</title>
<path fill="none" stroke="#000000" d="M354.3736,-122.1061C354.3736,-122.1061 354.3736,-140.991 354.3736,-140.991"/>
<polygon fill="#000000" stroke="#000000" points="350.8737,-140.9909 354.3736,-150.991 357.8737,-140.991 350.8737,-140.9909"/>
</g>
<!-- LaddaModule.forRoot(args) -->
<g id="node5" class="node">
<title>LaddaModule.forRoot(args)</title>
<polygon fill="#8dd3c7" stroke="#000000" points="198.2211,-122 195.2211,-126 174.2211,-126 171.2211,-122 23.7789,-122 23.7789,-86 198.2211,-86 198.2211,-122"/>
<text text-anchor="middle" x="111" y="-99.8" font-family="Times,serif" font-size="14.00" fill="#000000">LaddaModule.forRoot(args)</text>
</g>
<!-- LaddaModule.forRoot(args)&#45;&gt;TerminusUIModule -->
<g id="edge4" class="edge">
<title>LaddaModule.forRoot(args)&#45;&gt;TerminusUIModule</title>
<path fill="none" stroke="#000000" d="M111,-122.1061C111,-141.3391 111,-169 111,-169 111,-169 308.8842,-169 308.8842,-169"/>
<polygon fill="#000000" stroke="#000000" points="308.8843,-172.5001 318.8842,-169 308.8842,-165.5001 308.8843,-172.5001"/>
</g>
</g>
</svg>
