<?xml version="1.0" encoding="UTF-8" standalone="no"?>
<!DOCTYPE svg PUBLIC "-//W3C//DTD SVG 1.1//EN"
 "http://www.w3.org/Graphics/SVG/1.1/DTD/svg11.dtd">
<!-- Generated by graphviz version 2.40.1 (20161225.0304)
 -->
<!-- Title: dependencies Pages: 1 -->
<svg width="1416pt" height="284pt"
 viewBox="0.00 0.00 1416.00 284.00" xmlns="http://www.w3.org/2000/svg" xmlns:xlink="http://www.w3.org/1999/xlink">
<g id="graph0" class="graph" transform="scale(1 1) rotate(0) translate(4 280)">
<title>dependencies</title>
<polygon fill="#ffffff" stroke="transparent" points="-4,4 -4,-280 1412,-280 1412,4 -4,4"/>
<text text-anchor="start" x="683.0091" y="-42.4" font-family="sans-serif" font-weight="bold" font-size="14.00" fill="#000000">Legend</text>
<polygon fill="#ffffb3" stroke="transparent" points="470,-10 470,-30 490,-30 490,-10 470,-10"/>
<text text-anchor="start" x="493.629" y="-15.4" font-family="sans-serif" font-size="14.00" fill="#000000"> &#160;Declarations</text>
<polygon fill="#8dd3c7" stroke="transparent" points="583,-10 583,-30 603,-30 603,-10 583,-10"/>
<text text-anchor="start" x="606.7251" y="-15.4" font-family="sans-serif" font-size="14.00" fill="#000000"> &#160;Module</text>
<polygon fill="#80b1d3" stroke="transparent" points="669,-10 669,-30 689,-30 689,-10 669,-10"/>
<text text-anchor="start" x="692.7812" y="-15.4" font-family="sans-serif" font-size="14.00" fill="#000000"> &#160;Bootstrap</text>
<polygon fill="#fdb462" stroke="transparent" points="766,-10 766,-30 786,-30 786,-10 766,-10"/>
<text text-anchor="start" x="789.6732" y="-15.4" font-family="sans-serif" font-size="14.00" fill="#000000"> &#160;Providers</text>
<polygon fill="#fb8072" stroke="transparent" points="862,-10 862,-30 882,-30 882,-10 862,-10"/>
<text text-anchor="start" x="885.7258" y="-15.4" font-family="sans-serif" font-size="14.00" fill="#000000"> &#160;Exports</text>
<g id="clust1" class="cluster">
<title>cluster_TerminusUIModule</title>
<polygon fill="none" stroke="#000000" stroke-dasharray="1,5" points="8,-70 8,-268 1400,-268 1400,-70 8,-70"/>
</g>
<g id="clust3" class="cluster">
<title>cluster_TerminusUIModule_imports</title>
<polygon fill="none" stroke="#000000" points="38,-78 38,-130 1378,-130 1378,-78 38,-78"/>
</g>
<g id="clust4" class="cluster">
<title>cluster_TerminusUIModule_exports</title>
<polygon fill="none" stroke="#000000" points="16,-208 16,-260 1392,-260 1392,-208 16,-208"/>
</g>
<!-- TsButtonModule -->
<g id="node1" class="node">
<title>TsButtonModule</title>
<polygon fill="#8dd3c7" stroke="#000000" points="1369.6653,-122 1366.6653,-126 1345.6653,-126 1342.6653,-122 1258.3347,-122 1258.3347,-86 1369.6653,-86 1369.6653,-122"/>
<text text-anchor="middle" x="1314" y="-99.8" font-family="Times,serif" font-size="14.00" fill="#000000">TsButtonModule</text>
</g>
<!-- TerminusUIModule -->
<g id="node11" class="node">
<title>TerminusUIModule</title>
<polygon fill="#8dd3c7" stroke="#000000" points="709.9706,-187 706.9706,-191 685.9706,-191 682.9706,-187 582.0294,-187 582.0294,-151 709.9706,-151 709.9706,-187"/>
<text text-anchor="middle" x="646" y="-164.8" font-family="Times,serif" font-size="14.00" fill="#000000">TerminusUIModule</text>
</g>
<!-- TsButtonModule&#45;&gt;TerminusUIModule -->
<g id="edge1" class="edge">
<title>TsButtonModule&#45;&gt;TerminusUIModule</title>
<path fill="none" stroke="#000000" d="M1263.2926,-122.2222C1263.2926,-140.8285 1263.2926,-167 1263.2926,-167 1263.2926,-167 720.0249,-167 720.0249,-167"/>
<polygon fill="#000000" stroke="#000000" points="720.0249,-163.5001 710.0249,-167 720.0249,-170.5001 720.0249,-163.5001"/>
</g>
<!-- TsInputModule -->
<g id="node2" class="node">
<title>TsInputModule</title>
<polygon fill="#8dd3c7" stroke="#000000" points="1240.5982,-122 1237.5982,-126 1216.5982,-126 1213.5982,-122 1137.4018,-122 1137.4018,-86 1240.5982,-86 1240.5982,-122"/>
<text text-anchor="middle" x="1189" y="-99.8" font-family="Times,serif" font-size="14.00" fill="#000000">TsInputModule</text>
</g>
<!-- TsInputModule&#45;&gt;TerminusUIModule -->
<g id="edge2" class="edge">
<title>TsInputModule&#45;&gt;TerminusUIModule</title>
<path fill="none" stroke="#000000" d="M1208.2664,-122.0225C1208.2664,-139.3734 1208.2664,-163 1208.2664,-163 1208.2664,-163 720.2252,-163 720.2252,-163"/>
<polygon fill="#000000" stroke="#000000" points="720.2252,-159.5001 710.2252,-163 720.2251,-166.5001 720.2252,-159.5001"/>
</g>
<!-- TsInputMessagesModule -->
<g id="node3" class="node">
<title>TsInputMessagesModule</title>
<polygon fill="#8dd3c7" stroke="#000000" points="1119.5211,-122 1116.5211,-126 1095.5211,-126 1092.5211,-122 962.4789,-122 962.4789,-86 1119.5211,-86 1119.5211,-122"/>
<text text-anchor="middle" x="1041" y="-99.8" font-family="Times,serif" font-size="14.00" fill="#000000">TsInputMessagesModule</text>
</g>
<!-- TsInputMessagesModule&#45;&gt;TerminusUIModule -->
<g id="edge3" class="edge">
<title>TsInputMessagesModule&#45;&gt;TerminusUIModule</title>
<path fill="none" stroke="#000000" d="M1068.0034,-122.0091C1068.0034,-138.0494 1068.0034,-159 1068.0034,-159 1068.0034,-159 720.0932,-159 720.0932,-159"/>
<polygon fill="#000000" stroke="#000000" points="720.0933,-155.5001 710.0932,-159 720.0932,-162.5001 720.0933,-155.5001"/>
</g>
<!-- TsMenuModule -->
<g id="node4" class="node">
<title>TsMenuModule</title>
<polygon fill="#8dd3c7" stroke="#000000" points="944.2064,-122 941.2064,-126 920.2064,-126 917.2064,-122 837.7936,-122 837.7936,-86 944.2064,-86 944.2064,-122"/>
<text text-anchor="middle" x="891" y="-99.8" font-family="Times,serif" font-size="14.00" fill="#000000">TsMenuModule</text>
</g>
<!-- TsMenuModule&#45;&gt;TerminusUIModule -->
<g id="edge4" class="edge">
<title>TsMenuModule&#45;&gt;TerminusUIModule</title>
<path fill="none" stroke="#000000" d="M908.701,-122.1243C908.701,-136.7832 908.701,-155 908.701,-155 908.701,-155 720.2639,-155 720.2639,-155"/>
<polygon fill="#000000" stroke="#000000" points="720.2639,-151.5001 710.2639,-155 720.2639,-158.5001 720.2639,-151.5001"/>
</g>
<!-- TsSelectModule -->
<g id="node5" class="node">
<title>TsSelectModule</title>
<polygon fill="#8dd3c7" stroke="#000000" points="819.7549,-122 816.7549,-126 795.7549,-126 792.7549,-122 712.2451,-122 712.2451,-86 819.7549,-86 819.7549,-122"/>
<text text-anchor="middle" x="766" y="-99.8" font-family="Times,serif" font-size="14.00" fill="#000000">TsSelectModule</text>
</g>
<!-- TsSelectModule&#45;&gt;TerminusUIModule -->
<g id="edge5" class="edge">
<title>TsSelectModule&#45;&gt;TerminusUIModule</title>
<path fill="none" stroke="#000000" d="M711.9694,-104C706.152,-104 702.2939,-104 702.2939,-104 702.2939,-104 702.2939,-140.8939 702.2939,-140.8939"/>
<polygon fill="#000000" stroke="#000000" points="698.7939,-140.8938 702.2939,-150.8939 705.7939,-140.8939 698.7939,-140.8938"/>
</g>
<!-- TsToggleModule -->
<g id="node6" class="node">
<title>TsToggleModule</title>
<polygon fill="#8dd3c7" stroke="#000000" points="694.705,-122 691.705,-126 670.705,-126 667.705,-122 581.295,-122 581.295,-86 694.705,-86 694.705,-122"/>
<text text-anchor="middle" x="638" y="-99.8" font-family="Times,serif" font-size="14.00" fill="#000000">TsToggleModule</text>
</g>
<!-- TsToggleModule&#45;&gt;TerminusUIModule -->
<g id="edge6" class="edge">
<title>TsToggleModule&#45;&gt;TerminusUIModule</title>
<path fill="none" stroke="#000000" d="M638.3086,-122.1061C638.3086,-122.1061 638.3086,-140.991 638.3086,-140.991"/>
<polygon fill="#000000" stroke="#000000" points="634.8086,-140.9909 638.3086,-150.991 641.8086,-140.991 634.8086,-140.9909"/>
</g>
<!-- TsSearchModule -->
<g id="node7" class="node">
<title>TsSearchModule</title>
<polygon fill="#8dd3c7" stroke="#000000" points="563.6346,-122 560.6346,-126 539.6346,-126 536.6346,-122 452.3654,-122 452.3654,-86 563.6346,-86 563.6346,-122"/>
<text text-anchor="middle" x="508" y="-99.8" font-family="Times,serif" font-size="14.00" fill="#000000">TsSearchModule</text>
</g>
<!-- TsSearchModule&#45;&gt;TerminusUIModule -->
<g id="edge7" class="edge">
<title>TsSearchModule&#45;&gt;TerminusUIModule</title>
<path fill="none" stroke="#000000" d="M559.692,-122.1243C559.692,-136.7832 559.692,-155 559.692,-155 559.692,-155 571.9185,-155 571.9185,-155"/>
<polygon fill="#000000" stroke="#000000" points="571.9185,-158.5001 581.9185,-155 571.9184,-151.5001 571.9185,-158.5001"/>
</g>
<!-- TsPaginationModule -->
<g id="node8" class="node">
<title>TsPaginationModule</title>
<polygon fill="#8dd3c7" stroke="#000000" points="433.9313,-122 430.9313,-126 409.9313,-126 406.9313,-122 300.0687,-122 300.0687,-86 433.9313,-86 433.9313,-122"/>
<text text-anchor="middle" x="367" y="-99.8" font-family="Times,serif" font-size="14.00" fill="#000000">TsPaginationModule</text>
</g>
<!-- TsPaginationModule&#45;&gt;TerminusUIModule -->
<g id="edge8" class="edge">
<title>TsPaginationModule&#45;&gt;TerminusUIModule</title>
<path fill="none" stroke="#000000" d="M428.0903,-122.0091C428.0903,-138.0494 428.0903,-159 428.0903,-159 428.0903,-159 571.7985,-159 571.7985,-159"/>
<polygon fill="#000000" stroke="#000000" points="571.7985,-162.5001 581.7985,-159 571.7985,-155.5001 571.7985,-162.5001"/>
</g>
<!-- TsCopyModule -->
<g id="node9" class="node">
<title>TsCopyModule</title>
<polygon fill="#8dd3c7" stroke="#000000" points="281.8837,-122 278.8837,-126 257.8837,-126 254.8837,-122 178.1163,-122 178.1163,-86 281.8837,-86 281.8837,-122"/>
<text text-anchor="middle" x="230" y="-99.8" font-family="Times,serif" font-size="14.00" fill="#000000">TsCopyModule</text>
</g>
<!-- TsCopyModule&#45;&gt;TerminusUIModule -->
<g id="edge9" class="edge">
<title>TsCopyModule&#45;&gt;TerminusUIModule</title>
<path fill="none" stroke="#000000" d="M274.8168,-122.0225C274.8168,-139.3734 274.8168,-163 274.8168,-163 274.8168,-163 571.7686,-163 571.7686,-163"/>
<polygon fill="#000000" stroke="#000000" points="571.7686,-166.5001 581.7686,-163 571.7685,-159.5001 571.7686,-166.5001"/>
</g>
<!-- TsTooltipModule -->
<g id="node10" class="node">
<title>TsTooltipModule</title>
<polygon fill="#8dd3c7" stroke="#000000" points="160.2716,-122 157.2716,-126 136.2716,-126 133.2716,-122 45.7284,-122 45.7284,-86 160.2716,-86 160.2716,-122"/>
<text text-anchor="middle" x="103" y="-99.8" font-family="Times,serif" font-size="14.00" fill="#000000">TsTooltipModule</text>
</g>
<!-- TsTooltipModule&#45;&gt;TerminusUIModule -->
<g id="edge10" class="edge">
<title>TsTooltipModule&#45;&gt;TerminusUIModule</title>
<path fill="none" stroke="#000000" d="M151.222,-122.2222C151.222,-140.8285 151.222,-167 151.222,-167 151.222,-167 571.8236,-167 571.8236,-167"/>
<polygon fill="#000000" stroke="#000000" points="571.8237,-170.5001 581.8236,-167 571.8236,-163.5001 571.8237,-170.5001"/>
</g>
<!-- TsButtonModule  -->
<g id="node12" class="node">
<title>TsButtonModule </title>
<polygon fill="#fb8072" stroke="#000000" points="1383.6649,-252 1268.3351,-252 1268.3351,-216 1383.6649,-216 1383.6649,-252"/>
<text text-anchor="middle" x="1326" y="-229.8" font-family="Times,serif" font-size="14.00" fill="#000000">TsButtonModule </text>
</g>
<!-- TerminusUIModule&#45;&gt;TsButtonModule  -->
<g id="edge11" class="edge">
<title>TerminusUIModule&#45;&gt;TsButtonModule </title>
<path fill="none" stroke="#000000" stroke-dasharray="5,2" d="M710.2371,-171C878.4881,-171 1319.125,-171 1319.125,-171 1319.125,-171 1319.125,-205.7778 1319.125,-205.7778"/>
<polygon fill="#000000" stroke="#000000" points="1315.6251,-205.7778 1319.125,-215.7778 1322.6251,-205.7778 1315.6251,-205.7778"/>
</g>
<!-- TsInputModule  -->
<g id="node13" class="node">
<title>TsInputModule </title>
<polygon fill="#fb8072" stroke="#000000" points="1250.099,-252 1143.901,-252 1143.901,-216 1250.099,-216 1250.099,-252"/>
<text text-anchor="middle" x="1197" y="-229.8" font-family="Times,serif" font-size="14.00" fill="#000000">TsInputModule </text>
</g>
<!-- TerminusUIModule&#45;&gt;TsInputModule  -->
<g id="edge12" class="edge">
<title>TerminusUIModule&#45;&gt;TsInputModule </title>
<path fill="none" stroke="#000000" stroke-dasharray="5,2" d="M710.1923,-175C851.2931,-175 1175.9836,-175 1175.9836,-175 1175.9836,-175 1175.9836,-205.9775 1175.9836,-205.9775"/>
<polygon fill="#000000" stroke="#000000" points="1172.4837,-205.9774 1175.9836,-215.9775 1179.4837,-205.9775 1172.4837,-205.9774"/>
</g>
<!-- TsInputMessagesModule  -->
<g id="node14" class="node">
<title>TsInputMessagesModule </title>
<polygon fill="#fb8072" stroke="#000000" points="1125.5204,-252 964.4796,-252 964.4796,-216 1125.5204,-216 1125.5204,-252"/>
<text text-anchor="middle" x="1045" y="-229.8" font-family="Times,serif" font-size="14.00" fill="#000000">TsInputMessagesModule </text>
</g>
<!-- TerminusUIModule&#45;&gt;TsInputMessagesModule  -->
<g id="edge13" class="edge">
<title>TerminusUIModule&#45;&gt;TsInputMessagesModule </title>
<path fill="none" stroke="#000000" stroke-dasharray="5,2" d="M710.0693,-179C816.0387,-179 1016.2466,-179 1016.2466,-179 1016.2466,-179 1016.2466,-205.9909 1016.2466,-205.9909"/>
<polygon fill="#000000" stroke="#000000" points="1012.7467,-205.9909 1016.2466,-215.9909 1019.7467,-205.991 1012.7467,-205.9909"/>
</g>
<!-- TsMenuModule  -->
<g id="node15" class="node">
<title>TsMenuModule </title>
<polygon fill="#fb8072" stroke="#000000" points="946.7066,-252 837.2934,-252 837.2934,-216 946.7066,-216 946.7066,-252"/>
<text text-anchor="middle" x="892" y="-229.8" font-family="Times,serif" font-size="14.00" fill="#000000">TsMenuModule </text>
</g>
<!-- TerminusUIModule&#45;&gt;TsMenuModule  -->
<g id="edge14" class="edge">
<title>TerminusUIModule&#45;&gt;TsMenuModule </title>
<path fill="none" stroke="#000000" stroke-dasharray="5,2" d="M710.2233,-183C777.4382,-183 873.299,-183 873.299,-183 873.299,-183 873.299,-205.8757 873.299,-205.8757"/>
<polygon fill="#000000" stroke="#000000" points="869.7991,-205.8757 873.299,-215.8757 876.7991,-205.8757 869.7991,-205.8757"/>
</g>
<!-- TsSelectModule  -->
<g id="node16" class="node">
<title>TsSelectModule </title>
<polygon fill="#fb8072" stroke="#000000" points="819.7549,-252 708.2451,-252 708.2451,-216 819.7549,-216 819.7549,-252"/>
<text text-anchor="middle" x="764" y="-229.8" font-family="Times,serif" font-size="14.00" fill="#000000">TsSelectModule </text>
</g>
<!-- TerminusUIModule&#45;&gt;TsSelectModule  -->
<g id="edge15" class="edge">
<title>TerminusUIModule&#45;&gt;TsSelectModule </title>
<path fill="none" stroke="#000000" stroke-dasharray="5,2" d="M699.3626,-187.1061C699.3626,-206.3391 699.3626,-234 699.3626,-234 699.3626,-234 700.2613,-234 700.2613,-234"/>
<polygon fill="#000000" stroke="#000000" points="698.3502,-237.5001 708.3501,-234 698.3501,-230.5001 698.3502,-237.5001"/>
</g>
<!-- TsToggleModule  -->
<g id="node17" class="node">
<title>TsToggleModule </title>
<polygon fill="#fb8072" stroke="#000000" points="690.2052,-252 573.7948,-252 573.7948,-216 690.2052,-216 690.2052,-252"/>
<text text-anchor="middle" x="632" y="-229.8" font-family="Times,serif" font-size="14.00" fill="#000000">TsToggleModule </text>
</g>
<!-- TerminusUIModule&#45;&gt;TsToggleModule  -->
<g id="edge16" class="edge">
<title>TerminusUIModule&#45;&gt;TsToggleModule </title>
<path fill="none" stroke="#000000" stroke-dasharray="5,2" d="M636.1836,-187.1061C636.1836,-187.1061 636.1836,-205.991 636.1836,-205.991"/>
<polygon fill="#000000" stroke="#000000" points="632.6836,-205.9909 636.1836,-215.991 639.6836,-205.991 632.6836,-205.9909"/>
</g>
<!-- TsSearchModule  -->
<g id="node18" class="node">
<title>TsSearchModule </title>
<polygon fill="#fb8072" stroke="#000000" points="555.6341,-252 440.3659,-252 440.3659,-216 555.6341,-216 555.6341,-252"/>
<text text-anchor="middle" x="498" y="-229.8" font-family="Times,serif" font-size="14.00" fill="#000000">TsSearchModule </text>
</g>
<!-- TerminusUIModule&#45;&gt;TsSearchModule  -->
<g id="edge17" class="edge">
<title>TerminusUIModule&#45;&gt;TsSearchModule </title>
<path fill="none" stroke="#000000" stroke-dasharray="5,2" d="M582.0056,-183C544.2819,-183 503.875,-183 503.875,-183 503.875,-183 503.875,-205.8757 503.875,-205.8757"/>
<polygon fill="#000000" stroke="#000000" points="500.3751,-205.8757 503.875,-215.8757 507.3751,-205.8757 500.3751,-205.8757"/>
</g>
<!-- TsPaginationModule  -->
<g id="node19" class="node">
<title>TsPaginationModule </title>
<polygon fill="#fb8072" stroke="#000000" points="422.4306,-252 285.5694,-252 285.5694,-216 422.4306,-216 422.4306,-252"/>
<text text-anchor="middle" x="354" y="-229.8" font-family="Times,serif" font-size="14.00" fill="#000000">TsPaginationModule </text>
</g>
<!-- TerminusUIModule&#45;&gt;TsPaginationModule  -->
<g id="edge18" class="edge">
<title>TerminusUIModule&#45;&gt;TsPaginationModule </title>
<path fill="none" stroke="#000000" stroke-dasharray="5,2" d="M581.7697,-179C497.8225,-179 361.375,-179 361.375,-179 361.375,-179 361.375,-205.9909 361.375,-205.9909"/>
<polygon fill="#000000" stroke="#000000" points="357.8751,-205.9909 361.375,-215.9909 364.8751,-205.991 357.8751,-205.9909"/>
</g>
<!-- TsCopyModule  -->
<g id="node20" class="node">
<title>TsCopyModule </title>
<polygon fill="#fb8072" stroke="#000000" points="267.8843,-252 160.1157,-252 160.1157,-216 267.8843,-216 267.8843,-252"/>
<text text-anchor="middle" x="214" y="-229.8" font-family="Times,serif" font-size="14.00" fill="#000000">TsCopyModule </text>
</g>
<!-- TerminusUIModule&#45;&gt;TsCopyModule  -->
<g id="edge19" class="edge">
<title>TerminusUIModule&#45;&gt;TsCopyModule </title>
<path fill="none" stroke="#000000" stroke-dasharray="5,2" d="M581.7364,-175C463.3685,-175 222.875,-175 222.875,-175 222.875,-175 222.875,-205.9775 222.875,-205.9775"/>
<polygon fill="#000000" stroke="#000000" points="219.3751,-205.9774 222.875,-215.9775 226.3751,-205.9775 219.3751,-205.9774"/>
</g>
<!-- TsTooltipModule  -->
<g id="node21" class="node">
<title>TsTooltipModule </title>
<polygon fill="#fb8072" stroke="#000000" points="142.2717,-252 23.7283,-252 23.7283,-216 142.2717,-216 142.2717,-252"/>
<text text-anchor="middle" x="83" y="-229.8" font-family="Times,serif" font-size="14.00" fill="#000000">TsTooltipModule </text>
</g>
<!-- TerminusUIModule&#45;&gt;TsTooltipModule  -->
<g id="edge20" class="edge">
<title>TerminusUIModule&#45;&gt;TsTooltipModule </title>
<path fill="none" stroke="#000000" stroke-dasharray="5,2" d="M581.8545,-171C436.3637,-171 93.875,-171 93.875,-171 93.875,-171 93.875,-205.7778 93.875,-205.7778"/>
<polygon fill="#000000" stroke="#000000" points="90.3751,-205.7778 93.875,-215.7778 97.3751,-205.7778 90.3751,-205.7778"/>
</g>
</g>
</svg>
