<?xml version="1.0" encoding="UTF-8" standalone="no"?>
<!DOCTYPE svg PUBLIC "-//W3C//DTD SVG 1.1//EN"
 "http://www.w3.org/Graphics/SVG/1.1/DTD/svg11.dtd">
<!-- Generated by graphviz version 2.40.1 (20161225.0304)
 -->
<!-- Title: dependencies Pages: 1 -->
<svg width="4435pt" height="284pt"
 viewBox="0.00 0.00 4435.00 284.00" xmlns="http://www.w3.org/2000/svg" xmlns:xlink="http://www.w3.org/1999/xlink">
<g id="graph0" class="graph" transform="scale(1 1) rotate(0) translate(4 280)">
<title>dependencies</title>
<polygon fill="#ffffff" stroke="transparent" points="-4,4 -4,-280 4431,-280 4431,4 -4,4"/>
<text text-anchor="start" x="2192.5091" y="-42.4" font-family="sans-serif" font-weight="bold" font-size="14.00" fill="#000000">Legend</text>
<polygon fill="#ffffb3" stroke="transparent" points="1979.5,-10 1979.5,-30 1999.5,-30 1999.5,-10 1979.5,-10"/>
<text text-anchor="start" x="2003.129" y="-15.4" font-family="sans-serif" font-size="14.00" fill="#000000"> &#160;Declarations</text>
<polygon fill="#8dd3c7" stroke="transparent" points="2092.5,-10 2092.5,-30 2112.5,-30 2112.5,-10 2092.5,-10"/>
<text text-anchor="start" x="2116.2251" y="-15.4" font-family="sans-serif" font-size="14.00" fill="#000000"> &#160;Module</text>
<polygon fill="#80b1d3" stroke="transparent" points="2178.5,-10 2178.5,-30 2198.5,-30 2198.5,-10 2178.5,-10"/>
<text text-anchor="start" x="2202.2812" y="-15.4" font-family="sans-serif" font-size="14.00" fill="#000000"> &#160;Bootstrap</text>
<polygon fill="#fdb462" stroke="transparent" points="2275.5,-10 2275.5,-30 2295.5,-30 2295.5,-10 2275.5,-10"/>
<text text-anchor="start" x="2299.1732" y="-15.4" font-family="sans-serif" font-size="14.00" fill="#000000"> &#160;Providers</text>
<polygon fill="#fb8072" stroke="transparent" points="2371.5,-10 2371.5,-30 2391.5,-30 2391.5,-10 2371.5,-10"/>
<text text-anchor="start" x="2395.2258" y="-15.4" font-family="sans-serif" font-size="14.00" fill="#000000"> &#160;Exports</text>
<g id="clust1" class="cluster">
<title>cluster_TerminusUIModule</title>
<polygon fill="none" stroke="#000000" stroke-dasharray="1,5" points="8,-70 8,-268 4419,-268 4419,-70 8,-70"/>
</g>
<g id="clust2" class="cluster">
<title>cluster_TerminusUIModule_declarations</title>
<polygon fill="none" stroke="#000000" points="4193,-78 4193,-130 4411,-130 4411,-78 4193,-78"/>
</g>
<g id="clust4" class="cluster">
<title>cluster_TerminusUIModule_imports</title>
<polygon fill="none" stroke="#000000" points="220,-78 220,-130 4185,-130 4185,-78 220,-78"/>
</g>
<g id="clust5" class="cluster">
<title>cluster_TerminusUIModule_exports</title>
<polygon fill="none" stroke="#000000" points="172,-208 172,-260 4233,-260 4233,-208 172,-208"/>
</g>
<g id="clust7" class="cluster">
<title>cluster_TerminusUIModule_providers</title>
<polygon fill="none" stroke="#000000" points="16,-78 16,-130 212,-130 212,-78 16,-78"/>
</g>
<!-- TsReactiveFormBaseComponent -->
<g id="node1" class="node">
<title>TsReactiveFormBaseComponent</title>
<polygon fill="#ffffb3" stroke="#000000" points="4402.8501,-122 4201.1499,-122 4201.1499,-86 4402.8501,-86 4402.8501,-122"/>
<text text-anchor="middle" x="4302" y="-99.8" font-family="Times,serif" font-size="14.00" fill="#000000">TsReactiveFormBaseComponent</text>
</g>
<!-- TerminusUIModule -->
<g id="node2" class="node">
<title>TerminusUIModule</title>
<polygon fill="#8dd3c7" stroke="#000000" points="2249.9706,-187 2246.9706,-191 2225.9706,-191 2222.9706,-187 2122.0294,-187 2122.0294,-151 2249.9706,-151 2249.9706,-187"/>
<text text-anchor="middle" x="2186" y="-164.8" font-family="Times,serif" font-size="14.00" fill="#000000">TerminusUIModule</text>
</g>
<!-- TsReactiveFormBaseComponent&#45;&gt;TerminusUIModule -->
<g id="edge1" class="edge">
<title>TsReactiveFormBaseComponent&#45;&gt;TerminusUIModule</title>
<path fill="none" stroke="#000000" d="M4213.1275,-122.1061C4213.1275,-141.3391 4213.1275,-169 4213.1275,-169 4213.1275,-169 2260.0159,-169 2260.0159,-169"/>
<polygon fill="#000000" stroke="#000000" points="2260.016,-165.5001 2250.0159,-169 2260.0159,-172.5001 2260.016,-165.5001"/>
</g>
<!-- TsAutocompleteModule  -->
<g id="node31" class="node">
<title>TsAutocompleteModule </title>
<polygon fill="#fb8072" stroke="#000000" points="4225.3602,-252 4068.6398,-252 4068.6398,-216 4225.3602,-216 4225.3602,-252"/>
<text text-anchor="middle" x="4147" y="-229.8" font-family="Times,serif" font-size="14.00" fill="#000000">TsAutocompleteModule </text>
</g>
<!-- TerminusUIModule&#45;&gt;TsAutocompleteModule  -->
<g id="edge30" class="edge">
<title>TerminusUIModule&#45;&gt;TsAutocompleteModule </title>
<path fill="none" stroke="#000000" stroke-dasharray="5,2" d="M2250.1755,-171C2585.73,-171 4123.125,-171 4123.125,-171 4123.125,-171 4123.125,-205.7778 4123.125,-205.7778"/>
<polygon fill="#000000" stroke="#000000" points="4119.6251,-205.7778 4123.125,-215.7778 4126.6251,-205.7778 4119.6251,-205.7778"/>
</g>
<!-- TsAutofocusModule  -->
<g id="node32" class="node">
<title>TsAutofocusModule </title>
<polygon fill="#fb8072" stroke="#000000" points="4050.8645,-252 3915.1355,-252 3915.1355,-216 4050.8645,-216 4050.8645,-252"/>
<text text-anchor="middle" x="3983" y="-229.8" font-family="Times,serif" font-size="14.00" fill="#000000">TsAutofocusModule </text>
</g>
<!-- TerminusUIModule&#45;&gt;TsAutofocusModule  -->
<g id="edge31" class="edge">
<title>TerminusUIModule&#45;&gt;TsAutofocusModule </title>
<path fill="none" stroke="#000000" stroke-dasharray="5,2" d="M2250.2263,-172C2568.4698,-172 3961.125,-172 3961.125,-172 3961.125,-172 3961.125,-205.7333 3961.125,-205.7333"/>
<polygon fill="#000000" stroke="#000000" points="3957.6251,-205.7333 3961.125,-215.7333 3964.6251,-205.7333 3957.6251,-205.7333"/>
</g>
<!-- TsButtonModule  -->
<g id="node33" class="node">
<title>TsButtonModule </title>
<polygon fill="#fb8072" stroke="#000000" points="3897.6649,-252 3782.3351,-252 3782.3351,-216 3897.6649,-216 3897.6649,-252"/>
<text text-anchor="middle" x="3840" y="-229.8" font-family="Times,serif" font-size="14.00" fill="#000000">TsButtonModule </text>
</g>
<!-- TerminusUIModule&#45;&gt;TsButtonModule  -->
<g id="edge32" class="edge">
<title>TerminusUIModule&#45;&gt;TsButtonModule </title>
<path fill="none" stroke="#000000" stroke-dasharray="5,2" d="M2250.04,-173C2552.0737,-173 3819.625,-173 3819.625,-173 3819.625,-173 3819.625,-205.698 3819.625,-205.698"/>
<polygon fill="#000000" stroke="#000000" points="3816.1251,-205.698 3819.625,-215.698 3823.1251,-205.698 3816.1251,-205.698"/>
</g>
<!-- TsCardModule  -->
<g id="node34" class="node">
<title>TsCardModule </title>
<polygon fill="#fb8072" stroke="#000000" points="3764.2591,-252 3659.7409,-252 3659.7409,-216 3764.2591,-216 3764.2591,-252"/>
<text text-anchor="middle" x="3712" y="-229.8" font-family="Times,serif" font-size="14.00" fill="#000000">TsCardModule </text>
</g>
<!-- TerminusUIModule&#45;&gt;TsCardModule  -->
<g id="edge33" class="edge">
<title>TerminusUIModule&#45;&gt;TsCardModule </title>
<path fill="none" stroke="#000000" stroke-dasharray="5,2" d="M2250.2985,-175C2538.061,-175 3693.625,-175 3693.625,-175 3693.625,-175 3693.625,-205.9775 3693.625,-205.9775"/>
<polygon fill="#000000" stroke="#000000" points="3690.1251,-205.9774 3693.625,-215.9775 3697.1251,-205.9775 3690.1251,-205.9774"/>
</g>
<!-- TsCheckboxModule  -->
<g id="node35" class="node">
<title>TsCheckboxModule </title>
<polygon fill="#fb8072" stroke="#000000" points="3641.8129,-252 3508.1871,-252 3508.1871,-216 3641.8129,-216 3641.8129,-252"/>
<text text-anchor="middle" x="3575" y="-229.8" font-family="Times,serif" font-size="14.00" fill="#000000">TsCheckboxModule </text>
</g>
<!-- TerminusUIModule&#45;&gt;TsCheckboxModule  -->
<g id="edge34" class="edge">
<title>TerminusUIModule&#45;&gt;TsCheckboxModule </title>
<path fill="none" stroke="#000000" stroke-dasharray="5,2" d="M2250.3401,-176C2521.6143,-176 3558.125,-176 3558.125,-176 3558.125,-176 3558.125,-205.9664 3558.125,-205.9664"/>
<polygon fill="#000000" stroke="#000000" points="3554.6251,-205.9663 3558.125,-215.9664 3561.6251,-205.9664 3554.6251,-205.9663"/>
</g>
<!-- TsConfirmationModule  -->
<g id="node36" class="node">
<title>TsConfirmationModule </title>
<polygon fill="#fb8072" stroke="#000000" points="3490.4826,-252 3337.5174,-252 3337.5174,-216 3490.4826,-216 3490.4826,-252"/>
<text text-anchor="middle" x="3414" y="-229.8" font-family="Times,serif" font-size="14.00" fill="#000000">TsConfirmationModule </text>
</g>
<!-- TerminusUIModule&#45;&gt;TsConfirmationModule  -->
<g id="edge35" class="edge">
<title>TerminusUIModule&#45;&gt;TsConfirmationModule </title>
<path fill="none" stroke="#000000" stroke-dasharray="5,2" d="M2250.3398,-177C2501.0341,-177 3398.625,-177 3398.625,-177 3398.625,-177 3398.625,-205.9648 3398.625,-205.9648"/>
<polygon fill="#000000" stroke="#000000" points="3395.1251,-205.9648 3398.625,-215.9648 3402.1251,-205.9649 3395.1251,-205.9648"/>
</g>
<!-- TsCopyModule  -->
<g id="node37" class="node">
<title>TsCopyModule </title>
<polygon fill="#fb8072" stroke="#000000" points="3319.8843,-252 3212.1157,-252 3212.1157,-216 3319.8843,-216 3319.8843,-252"/>
<text text-anchor="middle" x="3266" y="-229.8" font-family="Times,serif" font-size="14.00" fill="#000000">TsCopyModule </text>
</g>
<!-- TerminusUIModule&#45;&gt;TsCopyModule  -->
<g id="edge36" class="edge">
<title>TerminusUIModule&#45;&gt;TsCopyModule </title>
<path fill="none" stroke="#000000" stroke-dasharray="5,2" d="M2250.3201,-178C2480.9256,-178 3252.625,-178 3252.625,-178 3252.625,-178 3252.625,-205.973 3252.625,-205.973"/>
<polygon fill="#000000" stroke="#000000" points="3249.1251,-205.973 3252.625,-215.973 3256.1251,-205.973 3249.1251,-205.973"/>
</g>
<!-- TsDateRangeModule  -->
<g id="node38" class="node">
<title>TsDateRangeModule </title>
<polygon fill="#fb8072" stroke="#000000" points="3194.7394,-252 3055.2606,-252 3055.2606,-216 3194.7394,-216 3194.7394,-252"/>
<text text-anchor="middle" x="3125" y="-229.8" font-family="Times,serif" font-size="14.00" fill="#000000">TsDateRangeModule </text>
</g>
<!-- TerminusUIModule&#45;&gt;TsDateRangeModule  -->
<g id="edge37" class="edge">
<title>TerminusUIModule&#45;&gt;TsDateRangeModule </title>
<path fill="none" stroke="#000000" stroke-dasharray="5,2" d="M2250.0909,-180C2459.9491,-180 3113.125,-180 3113.125,-180 3113.125,-180 3113.125,-205.7181 3113.125,-205.7181"/>
<polygon fill="#000000" stroke="#000000" points="3109.6251,-205.718 3113.125,-215.7181 3116.6251,-205.7181 3109.6251,-205.718"/>
</g>
<!-- TsDatepickerModule  -->
<g id="node39" class="node">
<title>TsDatepickerModule </title>
<polygon fill="#fb8072" stroke="#000000" points="3037.4545,-252 2898.5455,-252 2898.5455,-216 3037.4545,-216 3037.4545,-252"/>
<text text-anchor="middle" x="2968" y="-229.8" font-family="Times,serif" font-size="14.00" fill="#000000">TsDatepickerModule </text>
</g>
<!-- TerminusUIModule&#45;&gt;TsDatepickerModule  -->
<g id="edge38" class="edge">
<title>TerminusUIModule&#45;&gt;TsDatepickerModule </title>
<path fill="none" stroke="#000000" stroke-dasharray="5,2" d="M2250.1727,-181C2435.4551,-181 2958.125,-181 2958.125,-181 2958.125,-181 2958.125,-205.7604 2958.125,-205.7604"/>
<polygon fill="#000000" stroke="#000000" points="2954.6251,-205.7604 2958.125,-215.7604 2961.6251,-205.7604 2954.6251,-205.7604"/>
</g>
<!-- TsIconModule  -->
<g id="node40" class="node">
<title>TsIconModule </title>
<polygon fill="#fb8072" stroke="#000000" points="2880.9222,-252 2779.0778,-252 2779.0778,-216 2880.9222,-216 2880.9222,-252"/>
<text text-anchor="middle" x="2830" y="-229.8" font-family="Times,serif" font-size="14.00" fill="#000000">TsIconModule </text>
</g>
<!-- TerminusUIModule&#45;&gt;TsIconModule  -->
<g id="edge39" class="edge">
<title>TerminusUIModule&#45;&gt;TsIconModule </title>
<path fill="none" stroke="#000000" stroke-dasharray="5,2" d="M2250.1505,-182C2411.541,-182 2821.625,-182 2821.625,-182 2821.625,-182 2821.625,-205.8129 2821.625,-205.8129"/>
<polygon fill="#000000" stroke="#000000" points="2818.1251,-205.8129 2821.625,-215.8129 2825.1251,-205.813 2818.1251,-205.8129"/>
</g>
<!-- TsIconButtonModule  -->
<g id="node41" class="node">
<title>TsIconButtonModule </title>
<polygon fill="#fb8072" stroke="#000000" points="2761.04,-252 2620.96,-252 2620.96,-216 2761.04,-216 2761.04,-252"/>
<text text-anchor="middle" x="2691" y="-229.8" font-family="Times,serif" font-size="14.00" fill="#000000">TsIconButtonModule </text>
</g>
<!-- TerminusUIModule&#45;&gt;TsIconButtonModule  -->
<g id="edge40" class="edge">
<title>TerminusUIModule&#45;&gt;TsIconButtonModule </title>
<path fill="none" stroke="#000000" stroke-dasharray="5,2" d="M2250.1657,-184C2384.8364,-184 2684.625,-184 2684.625,-184 2684.625,-184 2684.625,-205.9489 2684.625,-205.9489"/>
<polygon fill="#000000" stroke="#000000" points="2681.1251,-205.9488 2684.625,-215.9489 2688.1251,-205.9489 2681.1251,-205.9488"/>
</g>
<!-- TsInputModule  -->
<g id="node42" class="node">
<title>TsInputModule </title>
<polygon fill="#fb8072" stroke="#000000" points="2603.099,-252 2496.901,-252 2496.901,-216 2603.099,-216 2603.099,-252"/>
<text text-anchor="middle" x="2550" y="-229.8" font-family="Times,serif" font-size="14.00" fill="#000000">TsInputModule </text>
</g>
<!-- TerminusUIModule&#45;&gt;TsInputModule  -->
<g id="edge41" class="edge">
<title>TerminusUIModule&#45;&gt;TsInputModule </title>
<path fill="none" stroke="#000000" stroke-dasharray="5,2" d="M2250.1102,-185C2349.3822,-185 2528.9836,-185 2528.9836,-185 2528.9836,-185 2528.9836,-205.7542 2528.9836,-205.7542"/>
<polygon fill="#000000" stroke="#000000" points="2525.4837,-205.7542 2528.9836,-215.7542 2532.4837,-205.7542 2525.4837,-205.7542"/>
</g>
<!-- TsLinkModule  -->
<g id="node43" class="node">
<title>TsLinkModule </title>
<polygon fill="#fb8072" stroke="#000000" points="2478.9914,-252 2375.0086,-252 2375.0086,-216 2478.9914,-216 2478.9914,-252"/>
<text text-anchor="middle" x="2427" y="-229.8" font-family="Times,serif" font-size="14.00" fill="#000000">TsLinkModule </text>
</g>
<!-- TerminusUIModule&#45;&gt;TsLinkModule  -->
<g id="edge42" class="edge">
<title>TerminusUIModule&#45;&gt;TsLinkModule </title>
<path fill="none" stroke="#000000" stroke-dasharray="5,2" d="M2250.0674,-186C2315.4853,-186 2407.5016,-186 2407.5016,-186 2407.5016,-186 2407.5016,-205.8533 2407.5016,-205.8533"/>
<polygon fill="#000000" stroke="#000000" points="2404.0017,-205.8532 2407.5016,-215.8533 2411.0017,-205.8533 2404.0017,-205.8532"/>
</g>
<!-- TsLoadingOverlayModule  -->
<g id="node44" class="node">
<title>TsLoadingOverlayModule </title>
<polygon fill="#fb8072" stroke="#000000" points="2357.2919,-252 2188.7081,-252 2188.7081,-216 2357.2919,-216 2357.2919,-252"/>
<text text-anchor="middle" x="2273" y="-229.8" font-family="Times,serif" font-size="14.00" fill="#000000">TsLoadingOverlayModule </text>
</g>
<!-- TerminusUIModule&#45;&gt;TsLoadingOverlayModule  -->
<g id="edge43" class="edge">
<title>TerminusUIModule&#45;&gt;TsLoadingOverlayModule </title>
<path fill="none" stroke="#000000" stroke-dasharray="5,2" d="M2219.2947,-187.1061C2219.2947,-187.1061 2219.2947,-205.991 2219.2947,-205.991"/>
<polygon fill="#000000" stroke="#000000" points="2215.7948,-205.9909 2219.2947,-215.991 2222.7948,-205.991 2215.7948,-205.9909"/>
</g>
<!-- TsLoginFormModule  -->
<g id="node45" class="node">
<title>TsLoginFormModule </title>
<polygon fill="#fb8072" stroke="#000000" points="2170.3241,-252 2029.6759,-252 2029.6759,-216 2170.3241,-216 2170.3241,-252"/>
<text text-anchor="middle" x="2100" y="-229.8" font-family="Times,serif" font-size="14.00" fill="#000000">TsLoginFormModule </text>
</g>
<!-- TerminusUIModule&#45;&gt;TsLoginFormModule  -->
<g id="edge44" class="edge">
<title>TerminusUIModule&#45;&gt;TsLoginFormModule </title>
<path fill="none" stroke="#000000" stroke-dasharray="5,2" d="M2146.2134,-187.1061C2146.2134,-187.1061 2146.2134,-205.991 2146.2134,-205.991"/>
<polygon fill="#000000" stroke="#000000" points="2142.7134,-205.9909 2146.2134,-215.991 2149.7134,-205.991 2142.7134,-205.9909"/>
</g>
<!-- TsMaskModule  -->
<g id="node46" class="node">
<title>TsMaskModule </title>
<polygon fill="#fb8072" stroke="#000000" points="2012.1509,-252 1903.8491,-252 1903.8491,-216 2012.1509,-216 2012.1509,-252"/>
<text text-anchor="middle" x="1958" y="-229.8" font-family="Times,serif" font-size="14.00" fill="#000000">TsMaskModule </text>
</g>
<!-- TerminusUIModule&#45;&gt;TsMaskModule  -->
<g id="edge45" class="edge">
<title>TerminusUIModule&#45;&gt;TsMaskModule </title>
<path fill="none" stroke="#000000" stroke-dasharray="5,2" d="M2121.9098,-186C2050.3568,-186 1944.4749,-186 1944.4749,-186 1944.4749,-186 1944.4749,-205.8533 1944.4749,-205.8533"/>
<polygon fill="#000000" stroke="#000000" points="1940.975,-205.8532 1944.4749,-215.8533 1947.975,-205.8533 1940.975,-205.8532"/>
</g>
<!-- TsMenuModule  -->
<g id="node47" class="node">
<title>TsMenuModule </title>
<polygon fill="#fb8072" stroke="#000000" points="1885.7066,-252 1776.2934,-252 1776.2934,-216 1885.7066,-216 1885.7066,-252"/>
<text text-anchor="middle" x="1831" y="-229.8" font-family="Times,serif" font-size="14.00" fill="#000000">TsMenuModule </text>
</g>
<!-- TerminusUIModule&#45;&gt;TsMenuModule  -->
<g id="edge46" class="edge">
<title>TerminusUIModule&#45;&gt;TsMenuModule </title>
<path fill="none" stroke="#000000" stroke-dasharray="5,2" d="M2121.8734,-185C2020.9396,-185 1836.375,-185 1836.375,-185 1836.375,-185 1836.375,-205.7542 1836.375,-205.7542"/>
<polygon fill="#000000" stroke="#000000" points="1832.8751,-205.7542 1836.375,-215.7542 1839.8751,-205.7542 1832.8751,-205.7542"/>
</g>
<!-- TsNavigationModule  -->
<g id="node48" class="node">
<title>TsNavigationModule </title>
<polygon fill="#fb8072" stroke="#000000" points="1758.7548,-252 1619.2452,-252 1619.2452,-216 1758.7548,-216 1758.7548,-252"/>
<text text-anchor="middle" x="1689" y="-229.8" font-family="Times,serif" font-size="14.00" fill="#000000">TsNavigationModule </text>
</g>
<!-- TerminusUIModule&#45;&gt;TsNavigationModule  -->
<g id="edge47" class="edge">
<title>TerminusUIModule&#45;&gt;TsNavigationModule </title>
<path fill="none" stroke="#000000" stroke-dasharray="5,2" d="M2121.9247,-184C1989.0705,-184 1695.875,-184 1695.875,-184 1695.875,-184 1695.875,-205.9489 1695.875,-205.9489"/>
<polygon fill="#000000" stroke="#000000" points="1692.3751,-205.9488 1695.875,-215.9489 1699.3751,-205.9489 1692.3751,-205.9488"/>
</g>
<!-- TsPaginatorModule  -->
<g id="node49" class="node">
<title>TsPaginatorModule </title>
<polygon fill="#fb8072" stroke="#000000" points="1601.2009,-252 1470.7991,-252 1470.7991,-216 1601.2009,-216 1601.2009,-252"/>
<text text-anchor="middle" x="1536" y="-229.8" font-family="Times,serif" font-size="14.00" fill="#000000">TsPaginatorModule </text>
</g>
<!-- TerminusUIModule&#45;&gt;TsPaginatorModule  -->
<g id="edge48" class="edge">
<title>TerminusUIModule&#45;&gt;TsPaginatorModule </title>
<path fill="none" stroke="#000000" stroke-dasharray="5,2" d="M2121.8871,-182C1959.5139,-182 1544.875,-182 1544.875,-182 1544.875,-182 1544.875,-205.8129 1544.875,-205.8129"/>
<polygon fill="#000000" stroke="#000000" points="1541.3751,-205.8129 1544.875,-215.8129 1548.3751,-205.813 1541.3751,-205.8129"/>
</g>
<!-- TsRadioGroupModule  -->
<g id="node50" class="node">
<title>TsRadioGroupModule </title>
<polygon fill="#fb8072" stroke="#000000" points="1453.2562,-252 1306.7438,-252 1306.7438,-216 1453.2562,-216 1453.2562,-252"/>
<text text-anchor="middle" x="1380" y="-229.8" font-family="Times,serif" font-size="14.00" fill="#000000">TsRadioGroupModule </text>
</g>
<!-- TerminusUIModule&#45;&gt;TsRadioGroupModule  -->
<g id="edge49" class="edge">
<title>TerminusUIModule&#45;&gt;TsRadioGroupModule </title>
<path fill="none" stroke="#000000" stroke-dasharray="5,2" d="M2121.9005,-181C1932.795,-181 1390.375,-181 1390.375,-181 1390.375,-181 1390.375,-205.7604 1390.375,-205.7604"/>
<polygon fill="#000000" stroke="#000000" points="1386.8751,-205.7604 1390.375,-215.7604 1393.8751,-205.7604 1386.8751,-205.7604"/>
</g>
<!-- TsSearchModule  -->
<g id="node51" class="node">
<title>TsSearchModule </title>
<polygon fill="#fb8072" stroke="#000000" points="1288.6341,-252 1173.3659,-252 1173.3659,-216 1288.6341,-216 1288.6341,-252"/>
<text text-anchor="middle" x="1231" y="-229.8" font-family="Times,serif" font-size="14.00" fill="#000000">TsSearchModule </text>
</g>
<!-- TerminusUIModule&#45;&gt;TsSearchModule  -->
<g id="edge50" class="edge">
<title>TerminusUIModule&#45;&gt;TsSearchModule </title>
<path fill="none" stroke="#000000" stroke-dasharray="5,2" d="M2121.9506,-180C1909.7909,-180 1243.375,-180 1243.375,-180 1243.375,-180 1243.375,-205.7181 1243.375,-205.7181"/>
<polygon fill="#000000" stroke="#000000" points="1239.8751,-205.718 1243.375,-215.7181 1246.8751,-205.7181 1239.8751,-205.718"/>
</g>
<!-- TsSelectModule  -->
<g id="node52" class="node">
<title>TsSelectModule </title>
<polygon fill="#fb8072" stroke="#000000" points="1155.7549,-252 1044.2451,-252 1044.2451,-216 1155.7549,-216 1155.7549,-252"/>
<text text-anchor="middle" x="1100" y="-229.8" font-family="Times,serif" font-size="14.00" fill="#000000">TsSelectModule </text>
</g>
<!-- TerminusUIModule&#45;&gt;TsSelectModule  -->
<g id="edge51" class="edge">
<title>TerminusUIModule&#45;&gt;TsSelectModule </title>
<path fill="none" stroke="#000000" stroke-dasharray="5,2" d="M2121.7469,-178C1890.4444,-178 1113.875,-178 1113.875,-178 1113.875,-178 1113.875,-205.973 1113.875,-205.973"/>
<polygon fill="#000000" stroke="#000000" points="1110.3751,-205.973 1113.875,-215.973 1117.3751,-205.973 1110.3751,-205.973"/>
</g>
<!-- TsSortModule  -->
<g id="node53" class="node">
<title>TsSortModule </title>
<polygon fill="#fb8072" stroke="#000000" points="1026.3815,-252 925.6185,-252 925.6185,-216 1026.3815,-216 1026.3815,-252"/>
<text text-anchor="middle" x="976" y="-229.8" font-family="Times,serif" font-size="14.00" fill="#000000">TsSortModule </text>
</g>
<!-- TerminusUIModule&#45;&gt;TsSortModule  -->
<g id="edge52" class="edge">
<title>TerminusUIModule&#45;&gt;TsSortModule </title>
<path fill="none" stroke="#000000" stroke-dasharray="5,2" d="M2121.7987,-177C1873.7666,-177 991.875,-177 991.875,-177 991.875,-177 991.875,-205.9648 991.875,-205.9648"/>
<polygon fill="#000000" stroke="#000000" points="988.3751,-205.9648 991.875,-215.9648 995.3751,-205.9649 988.3751,-205.9648"/>
</g>
<!-- TsSpacingModule  -->
<g id="node54" class="node">
<title>TsSpacingModule </title>
<polygon fill="#fb8072" stroke="#000000" points="908.1495,-252 785.8505,-252 785.8505,-216 908.1495,-216 908.1495,-252"/>
<text text-anchor="middle" x="847" y="-229.8" font-family="Times,serif" font-size="14.00" fill="#000000">TsSpacingModule </text>
</g>
<!-- TerminusUIModule&#45;&gt;TsSpacingModule  -->
<g id="edge53" class="edge">
<title>TerminusUIModule&#45;&gt;TsSpacingModule </title>
<path fill="none" stroke="#000000" stroke-dasharray="5,2" d="M2121.8086,-176C1857.1368,-176 864.375,-176 864.375,-176 864.375,-176 864.375,-205.9664 864.375,-205.9664"/>
<polygon fill="#000000" stroke="#000000" points="860.8751,-205.9663 864.375,-215.9664 867.8751,-205.9664 860.8751,-205.9663"/>
</g>
<!-- TsTableModule  -->
<g id="node55" class="node">
<title>TsTableModule </title>
<polygon fill="#fb8072" stroke="#000000" points="767.4194,-252 658.5806,-252 658.5806,-216 767.4194,-216 767.4194,-252"/>
<text text-anchor="middle" x="713" y="-229.8" font-family="Times,serif" font-size="14.00" fill="#000000">TsTableModule </text>
</g>
<!-- TerminusUIModule&#45;&gt;TsTableModule  -->
<g id="edge54" class="edge">
<title>TerminusUIModule&#45;&gt;TsTableModule </title>
<path fill="none" stroke="#000000" stroke-dasharray="5,2" d="M2121.6639,-175C1840.3437,-175 732.375,-175 732.375,-175 732.375,-175 732.375,-205.9775 732.375,-205.9775"/>
<polygon fill="#000000" stroke="#000000" points="728.8751,-205.9774 732.375,-215.9775 735.8751,-205.9775 728.8751,-205.9774"/>
</g>
<!-- TsToggleModule  -->
<g id="node56" class="node">
<title>TsToggleModule </title>
<polygon fill="#fb8072" stroke="#000000" points="640.2052,-252 523.7948,-252 523.7948,-216 640.2052,-216 640.2052,-252"/>
<text text-anchor="middle" x="582" y="-229.8" font-family="Times,serif" font-size="14.00" fill="#000000">TsToggleModule </text>
</g>
<!-- TerminusUIModule&#45;&gt;TsToggleModule  -->
<g id="edge55" class="edge">
<title>TerminusUIModule&#45;&gt;TsToggleModule </title>
<path fill="none" stroke="#000000" stroke-dasharray="5,2" d="M2121.9991,-173C1825.9151,-173 603.375,-173 603.375,-173 603.375,-173 603.375,-205.698 603.375,-205.698"/>
<polygon fill="#000000" stroke="#000000" points="599.8751,-205.698 603.375,-215.698 606.8751,-205.698 599.8751,-205.698"/>
</g>
<!-- TsTooltipModule  -->
<g id="node57" class="node">
<title>TsTooltipModule </title>
<polygon fill="#fb8072" stroke="#000000" points="506.2717,-252 387.7283,-252 387.7283,-216 506.2717,-216 506.2717,-252"/>
<text text-anchor="middle" x="447" y="-229.8" font-family="Times,serif" font-size="14.00" fill="#000000">TsTooltipModule </text>
</g>
<!-- TerminusUIModule&#45;&gt;TsTooltipModule  -->
<g id="edge56" class="edge">
<title>TerminusUIModule&#45;&gt;TsTooltipModule </title>
<path fill="none" stroke="#000000" stroke-dasharray="5,2" d="M2121.858,-172C1810.3112,-172 469.875,-172 469.875,-172 469.875,-172 469.875,-205.7333 469.875,-205.7333"/>
<polygon fill="#000000" stroke="#000000" points="466.3751,-205.7333 469.875,-215.7333 473.3751,-205.7333 466.3751,-205.7333"/>
</g>
<!-- TsValidationMessagesModule  -->
<g id="node58" class="node">
<title>TsValidationMessagesModule </title>
<polygon fill="#fb8072" stroke="#000000" points="370.0679,-252 179.9321,-252 179.9321,-216 370.0679,-216 370.0679,-252"/>
<text text-anchor="middle" x="275" y="-229.8" font-family="Times,serif" font-size="14.00" fill="#000000">TsValidationMessagesModule </text>
</g>
<!-- TerminusUIModule&#45;&gt;TsValidationMessagesModule  -->
<g id="edge57" class="edge">
<title>TerminusUIModule&#45;&gt;TsValidationMessagesModule </title>
<path fill="none" stroke="#000000" stroke-dasharray="5,2" d="M2121.876,-171C1791.7708,-171 299.375,-171 299.375,-171 299.375,-171 299.375,-205.7778 299.375,-205.7778"/>
<polygon fill="#000000" stroke="#000000" points="295.8751,-205.7778 299.375,-215.7778 302.8751,-205.7778 295.8751,-205.7778"/>
</g>
<!-- TsAutocompleteModule -->
<g id="node3" class="node">
<title>TsAutocompleteModule</title>
<polygon fill="#8dd3c7" stroke="#000000" points="4177.3599,-122 4174.3599,-126 4153.3599,-126 4150.3599,-122 4024.6401,-122 4024.6401,-86 4177.3599,-86 4177.3599,-122"/>
<text text-anchor="middle" x="4101" y="-99.8" font-family="Times,serif" font-size="14.00" fill="#000000">TsAutocompleteModule</text>
</g>
<!-- TsAutocompleteModule&#45;&gt;TerminusUIModule -->
<g id="edge2" class="edge">
<title>TsAutocompleteModule&#45;&gt;TerminusUIModule</title>
<path fill="none" stroke="#000000" d="M4037.6261,-122.1686C4037.6261,-141.0898 4037.6261,-168 4037.6261,-168 4037.6261,-168 2260.0058,-168 2260.0058,-168"/>
<polygon fill="#000000" stroke="#000000" points="2260.0058,-164.5001 2250.0058,-168 2260.0057,-171.5001 2260.0058,-164.5001"/>
</g>
<!-- TsAutofocusModule -->
<g id="node4" class="node">
<title>TsAutofocusModule</title>
<polygon fill="#8dd3c7" stroke="#000000" points="4006.8641,-122 4003.8641,-126 3982.8641,-126 3979.8641,-122 3875.1359,-122 3875.1359,-86 4006.8641,-86 4006.8641,-122"/>
<text text-anchor="middle" x="3941" y="-99.8" font-family="Times,serif" font-size="14.00" fill="#000000">TsAutofocusModule</text>
</g>
<!-- TsAutofocusModule&#45;&gt;TerminusUIModule -->
<g id="edge3" class="edge">
<title>TsAutofocusModule&#45;&gt;TerminusUIModule</title>
<path fill="none" stroke="#000000" d="M3886.3252,-122.2222C3886.3252,-140.8285 3886.3252,-167 3886.3252,-167 3886.3252,-167 2260.0641,-167 2260.0641,-167"/>
<polygon fill="#000000" stroke="#000000" points="2260.0641,-163.5001 2250.0641,-167 2260.064,-170.5001 2260.0641,-163.5001"/>
</g>
<!-- TsButtonModule -->
<g id="node5" class="node">
<title>TsButtonModule</title>
<polygon fill="#8dd3c7" stroke="#000000" points="3856.6653,-122 3853.6653,-126 3832.6653,-126 3829.6653,-122 3745.3347,-122 3745.3347,-86 3856.6653,-86 3856.6653,-122"/>
<text text-anchor="middle" x="3801" y="-99.8" font-family="Times,serif" font-size="14.00" fill="#000000">TsButtonModule</text>
</g>
<!-- TsButtonModule&#45;&gt;TerminusUIModule -->
<g id="edge4" class="edge">
<title>TsButtonModule&#45;&gt;TerminusUIModule</title>
<path fill="none" stroke="#000000" d="M3754.6485,-122.2667C3754.6485,-140.5552 3754.6485,-166 3754.6485,-166 3754.6485,-166 2260.4173,-166 2260.4173,-166"/>
<polygon fill="#000000" stroke="#000000" points="2260.4174,-162.5001 2250.4173,-166 2260.4173,-169.5001 2260.4174,-162.5001"/>
</g>
<!-- TsCardModule -->
<g id="node6" class="node">
<title>TsCardModule</title>
<polygon fill="#8dd3c7" stroke="#000000" points="3727.2591,-122 3724.2591,-126 3703.2591,-126 3700.2591,-122 3626.7409,-122 3626.7409,-86 3727.2591,-86 3727.2591,-122"/>
<text text-anchor="middle" x="3677" y="-99.8" font-family="Times,serif" font-size="14.00" fill="#000000">TsCardModule</text>
</g>
<!-- TsCardModule&#45;&gt;TerminusUIModule -->
<g id="edge5" class="edge">
<title>TsCardModule&#45;&gt;TerminusUIModule</title>
<path fill="none" stroke="#000000" d="M3634.2635,-122.002C3634.2635,-139.6754 3634.2635,-164 3634.2635,-164 3634.2635,-164 2260.0988,-164 2260.0988,-164"/>
<polygon fill="#000000" stroke="#000000" points="2260.0988,-160.5001 2250.0988,-164 2260.0987,-167.5001 2260.0988,-160.5001"/>
</g>
<!-- TsCheckboxModule -->
<g id="node7" class="node">
<title>TsCheckboxModule</title>
<polygon fill="#8dd3c7" stroke="#000000" points="3608.3132,-122 3605.3132,-126 3584.3132,-126 3581.3132,-122 3477.6868,-122 3477.6868,-86 3608.3132,-86 3608.3132,-122"/>
<text text-anchor="middle" x="3543" y="-99.8" font-family="Times,serif" font-size="14.00" fill="#000000">TsCheckboxModule</text>
</g>
<!-- TsCheckboxModule&#45;&gt;TerminusUIModule -->
<g id="edge6" class="edge">
<title>TsCheckboxModule&#45;&gt;TerminusUIModule</title>
<path fill="none" stroke="#000000" d="M3484.0423,-122.0225C3484.0423,-139.3734 3484.0423,-163 3484.0423,-163 3484.0423,-163 2260.3701,-163 2260.3701,-163"/>
<polygon fill="#000000" stroke="#000000" points="2260.3702,-159.5001 2250.3701,-163 2260.3701,-166.5001 2260.3702,-159.5001"/>
</g>
<!-- TsConfirmationModule -->
<g id="node8" class="node">
<title>TsConfirmationModule</title>
<polygon fill="#8dd3c7" stroke="#000000" points="3459.4818,-122 3456.4818,-126 3435.4818,-126 3432.4818,-122 3310.5182,-122 3310.5182,-86 3459.4818,-86 3459.4818,-122"/>
<text text-anchor="middle" x="3385" y="-99.8" font-family="Times,serif" font-size="14.00" fill="#000000">TsConfirmationModule</text>
</g>
<!-- TsConfirmationModule&#45;&gt;TerminusUIModule -->
<g id="edge7" class="edge">
<title>TsConfirmationModule&#45;&gt;TerminusUIModule</title>
<path fill="none" stroke="#000000" d="M3315.1005,-122.0336C3315.1005,-139.0597 3315.1005,-162 3315.1005,-162 3315.1005,-162 2260.35,-162 2260.35,-162"/>
<polygon fill="#000000" stroke="#000000" points="2260.35,-158.5001 2250.35,-162 2260.35,-165.5001 2260.35,-158.5001"/>
</g>
<!-- TsCopyModule -->
<g id="node9" class="node">
<title>TsCopyModule</title>
<polygon fill="#8dd3c7" stroke="#000000" points="3292.8837,-122 3289.8837,-126 3268.8837,-126 3265.8837,-122 3189.1163,-122 3189.1163,-86 3292.8837,-86 3292.8837,-122"/>
<text text-anchor="middle" x="3241" y="-99.8" font-family="Times,serif" font-size="14.00" fill="#000000">TsCopyModule</text>
</g>
<!-- TsCopyModule&#45;&gt;TerminusUIModule -->
<g id="edge8" class="edge">
<title>TsCopyModule&#45;&gt;TerminusUIModule</title>
<path fill="none" stroke="#000000" d="M3203.4639,-122.027C3203.4639,-138.3976 3203.4639,-160 3203.4639,-160 3203.4639,-160 2260.0324,-160 2260.0324,-160"/>
<polygon fill="#000000" stroke="#000000" points="2260.0324,-156.5001 2250.0324,-160 2260.0323,-163.5001 2260.0324,-156.5001"/>
</g>
<!-- TsDateRangeModule -->
<g id="node10" class="node">
<title>TsDateRangeModule</title>
<polygon fill="#8dd3c7" stroke="#000000" points="3170.7395,-122 3167.7395,-126 3146.7395,-126 3143.7395,-122 3035.2605,-122 3035.2605,-86 3170.7395,-86 3170.7395,-122"/>
<text text-anchor="middle" x="3103" y="-99.8" font-family="Times,serif" font-size="14.00" fill="#000000">TsDateRangeModule</text>
</g>
<!-- TsDateRangeModule&#45;&gt;TerminusUIModule -->
<g id="edge9" class="edge">
<title>TsDateRangeModule&#45;&gt;TerminusUIModule</title>
<path fill="none" stroke="#000000" d="M3046.3037,-122.0091C3046.3037,-138.0494 3046.3037,-159 3046.3037,-159 3046.3037,-159 2260.3108,-159 2260.3108,-159"/>
<polygon fill="#000000" stroke="#000000" points="2260.3108,-155.5001 2250.3108,-159 2260.3107,-162.5001 2260.3108,-155.5001"/>
</g>
<!-- TsDatepickerModule -->
<g id="node11" class="node">
<title>TsDatepickerModule</title>
<polygon fill="#8dd3c7" stroke="#000000" points="3017.4538,-122 3014.4538,-126 2993.4538,-126 2990.4538,-122 2882.5462,-122 2882.5462,-86 3017.4538,-86 3017.4538,-122"/>
<text text-anchor="middle" x="2950" y="-99.8" font-family="Times,serif" font-size="14.00" fill="#000000">TsDatepickerModule</text>
</g>
<!-- TsDatepickerModule&#45;&gt;TerminusUIModule -->
<g id="edge10" class="edge">
<title>TsDatepickerModule&#45;&gt;TerminusUIModule</title>
<path fill="none" stroke="#000000" d="M2890.6481,-122.2819C2890.6481,-137.9478 2890.6481,-158 2890.6481,-158 2890.6481,-158 2260.0879,-158 2260.0879,-158"/>
<polygon fill="#000000" stroke="#000000" points="2260.0879,-154.5001 2250.0879,-158 2260.0879,-161.5001 2260.0879,-154.5001"/>
</g>
<!-- TsIconModule -->
<g id="node12" class="node">
<title>TsIconModule</title>
<polygon fill="#8dd3c7" stroke="#000000" points="2864.4231,-122 2861.4231,-126 2840.4231,-126 2837.4231,-122 2765.5769,-122 2765.5769,-86 2864.4231,-86 2864.4231,-122"/>
<text text-anchor="middle" x="2815" y="-99.8" font-family="Times,serif" font-size="14.00" fill="#000000">TsIconModule</text>
</g>
<!-- TsIconModule&#45;&gt;TerminusUIModule -->
<g id="edge11" class="edge">
<title>TsIconModule&#45;&gt;TerminusUIModule</title>
<path fill="none" stroke="#000000" d="M2772.4139,-122.2396C2772.4139,-137.5706 2772.4139,-157 2772.4139,-157 2772.4139,-157 2260.1532,-157 2260.1532,-157"/>
<polygon fill="#000000" stroke="#000000" points="2260.1532,-153.5001 2250.1532,-157 2260.1532,-160.5001 2260.1532,-153.5001"/>
</g>
<!-- TsIconButtonModule -->
<g id="node13" class="node">
<title>TsIconButtonModule</title>
<polygon fill="#8dd3c7" stroke="#000000" points="2748.0408,-122 2745.0408,-126 2724.0408,-126 2721.0408,-122 2611.9592,-122 2611.9592,-86 2748.0408,-86 2748.0408,-122"/>
<text text-anchor="middle" x="2680" y="-99.8" font-family="Times,serif" font-size="14.00" fill="#000000">TsIconButtonModule</text>
</g>
<!-- TsIconButtonModule&#45;&gt;TerminusUIModule -->
<g id="edge12" class="edge">
<title>TsIconButtonModule&#45;&gt;TerminusUIModule</title>
<path fill="none" stroke="#000000" d="M2616.355,-122.1243C2616.355,-136.7832 2616.355,-155 2616.355,-155 2616.355,-155 2260.4285,-155 2260.4285,-155"/>
<polygon fill="#000000" stroke="#000000" points="2260.4285,-151.5001 2250.4285,-155 2260.4285,-158.5001 2260.4285,-151.5001"/>
</g>
<!-- TsInputModule -->
<g id="node14" class="node">
<title>TsInputModule</title>
<polygon fill="#8dd3c7" stroke="#000000" points="2593.5982,-122 2590.5982,-126 2569.5982,-126 2566.5982,-122 2490.4018,-122 2490.4018,-86 2593.5982,-86 2593.5982,-122"/>
<text text-anchor="middle" x="2542" y="-99.8" font-family="Times,serif" font-size="14.00" fill="#000000">TsInputModule</text>
</g>
<!-- TsInputModule&#45;&gt;TerminusUIModule -->
<g id="edge13" class="edge">
<title>TsInputModule&#45;&gt;TerminusUIModule</title>
<path fill="none" stroke="#000000" d="M2561.2664,-122.0511C2561.2664,-136.373 2561.2664,-154 2561.2664,-154 2561.2664,-154 2260.0842,-154 2260.0842,-154"/>
<polygon fill="#000000" stroke="#000000" points="2260.0842,-150.5001 2250.0842,-154 2260.0842,-157.5001 2260.0842,-150.5001"/>
</g>
<!-- TsLinkModule -->
<g id="node15" class="node">
<title>TsLinkModule</title>
<polygon fill="#8dd3c7" stroke="#000000" points="2471.9902,-122 2468.9902,-126 2447.9902,-126 2444.9902,-122 2372.0098,-122 2372.0098,-86 2471.9902,-86 2471.9902,-122"/>
<text text-anchor="middle" x="2422" y="-99.8" font-family="Times,serif" font-size="14.00" fill="#000000">TsLinkModule</text>
</g>
<!-- TsLinkModule&#45;&gt;TerminusUIModule -->
<g id="edge14" class="edge">
<title>TsLinkModule&#45;&gt;TerminusUIModule</title>
<path fill="none" stroke="#000000" d="M2439.7484,-122.2458C2439.7484,-136.1772 2439.7484,-153 2439.7484,-153 2439.7484,-153 2260.0314,-153 2260.0314,-153"/>
<polygon fill="#000000" stroke="#000000" points="2260.0315,-149.5001 2250.0314,-153 2260.0314,-156.5001 2260.0315,-149.5001"/>
</g>
<!-- TsLoadingOverlayModule -->
<g id="node16" class="node">
<title>TsLoadingOverlayModule</title>
<polygon fill="#8dd3c7" stroke="#000000" points="2353.7921,-122 2350.7921,-126 2329.7921,-126 2326.7921,-122 2188.2079,-122 2188.2079,-86 2353.7921,-86 2353.7921,-122"/>
<text text-anchor="middle" x="2271" y="-99.8" font-family="Times,serif" font-size="14.00" fill="#000000">TsLoadingOverlayModule</text>
</g>
<!-- TsLoadingOverlayModule&#45;&gt;TerminusUIModule -->
<g id="edge15" class="edge">
<title>TsLoadingOverlayModule&#45;&gt;TerminusUIModule</title>
<path fill="none" stroke="#000000" d="M2219.1697,-122.1061C2219.1697,-122.1061 2219.1697,-140.991 2219.1697,-140.991"/>
<polygon fill="#000000" stroke="#000000" points="2215.6698,-140.9909 2219.1697,-150.991 2222.6698,-140.991 2215.6698,-140.9909"/>
</g>
<!-- TsLoginFormModule -->
<g id="node17" class="node">
<title>TsLoginFormModule</title>
<polygon fill="#8dd3c7" stroke="#000000" points="2170.8244,-122 2167.8244,-126 2146.8244,-126 2143.8244,-122 2033.1756,-122 2033.1756,-86 2170.8244,-86 2170.8244,-122"/>
<text text-anchor="middle" x="2102" y="-99.8" font-family="Times,serif" font-size="14.00" fill="#000000">TsLoginFormModule</text>
</g>
<!-- TsLoginFormModule&#45;&gt;TerminusUIModule -->
<g id="edge16" class="edge">
<title>TsLoginFormModule&#45;&gt;TerminusUIModule</title>
<path fill="none" stroke="#000000" d="M2146.3384,-122.1061C2146.3384,-122.1061 2146.3384,-140.991 2146.3384,-140.991"/>
<polygon fill="#000000" stroke="#000000" points="2142.8384,-140.9909 2146.3384,-150.991 2149.8384,-140.991 2142.8384,-140.9909"/>
</g>
<!-- TsMaskModule -->
<g id="node18" class="node">
<title>TsMaskModule</title>
<polygon fill="#8dd3c7" stroke="#000000" points="2015.1514,-122 2012.1514,-126 1991.1514,-126 1988.1514,-122 1910.8486,-122 1910.8486,-86 2015.1514,-86 2015.1514,-122"/>
<text text-anchor="middle" x="1963" y="-99.8" font-family="Times,serif" font-size="14.00" fill="#000000">TsMaskModule</text>
</g>
<!-- TsMaskModule&#45;&gt;TerminusUIModule -->
<g id="edge17" class="edge">
<title>TsMaskModule&#45;&gt;TerminusUIModule</title>
<path fill="none" stroke="#000000" d="M1978.2751,-122.2458C1978.2751,-136.1772 1978.2751,-153 1978.2751,-153 1978.2751,-153 2111.9807,-153 2111.9807,-153"/>
<polygon fill="#000000" stroke="#000000" points="2111.9808,-156.5001 2121.9807,-153 2111.9807,-149.5001 2111.9808,-156.5001"/>
</g>
<!-- TsMenuModule -->
<g id="node19" class="node">
<title>TsMenuModule</title>
<polygon fill="#8dd3c7" stroke="#000000" points="1893.2064,-122 1890.2064,-126 1869.2064,-126 1866.2064,-122 1786.7936,-122 1786.7936,-86 1893.2064,-86 1893.2064,-122"/>
<text text-anchor="middle" x="1840" y="-99.8" font-family="Times,serif" font-size="14.00" fill="#000000">TsMenuModule</text>
</g>
<!-- TsMenuModule&#45;&gt;TerminusUIModule -->
<g id="edge18" class="edge">
<title>TsMenuModule&#45;&gt;TerminusUIModule</title>
<path fill="none" stroke="#000000" d="M1889.4781,-122.0511C1889.4781,-136.373 1889.4781,-154 1889.4781,-154 1889.4781,-154 2112.0242,-154 2112.0242,-154"/>
<polygon fill="#000000" stroke="#000000" points="2112.0243,-157.5001 2122.0242,-154 2112.0242,-150.5001 2112.0243,-157.5001"/>
</g>
<!-- TsNavigationModule -->
<g id="node20" class="node">
<title>TsNavigationModule</title>
<polygon fill="#8dd3c7" stroke="#000000" points="1768.7548,-122 1765.7548,-126 1744.7548,-126 1741.7548,-122 1633.2452,-122 1633.2452,-86 1768.7548,-86 1768.7548,-122"/>
<text text-anchor="middle" x="1701" y="-99.8" font-family="Times,serif" font-size="14.00" fill="#000000">TsNavigationModule</text>
</g>
<!-- TsNavigationModule&#45;&gt;TerminusUIModule -->
<g id="edge19" class="edge">
<title>TsNavigationModule&#45;&gt;TerminusUIModule</title>
<path fill="none" stroke="#000000" d="M1763.7523,-122.1243C1763.7523,-136.7832 1763.7523,-155 1763.7523,-155 1763.7523,-155 2111.8697,-155 2111.8697,-155"/>
<polygon fill="#000000" stroke="#000000" points="2111.8697,-158.5001 2121.8697,-155 2111.8696,-151.5001 2111.8697,-158.5001"/>
</g>
<!-- TsPaginatorModule -->
<g id="node21" class="node">
<title>TsPaginatorModule</title>
<polygon fill="#8dd3c7" stroke="#000000" points="1615.7008,-122 1612.7008,-126 1591.7008,-126 1588.7008,-122 1488.2992,-122 1488.2992,-86 1615.7008,-86 1615.7008,-122"/>
<text text-anchor="middle" x="1552" y="-99.8" font-family="Times,serif" font-size="14.00" fill="#000000">TsPaginatorModule</text>
</g>
<!-- TsPaginatorModule&#45;&gt;TerminusUIModule -->
<g id="edge20" class="edge">
<title>TsPaginatorModule&#45;&gt;TerminusUIModule</title>
<path fill="none" stroke="#000000" d="M1608.4753,-122.2396C1608.4753,-137.5706 1608.4753,-157 1608.4753,-157 1608.4753,-157 2111.9881,-157 2111.9881,-157"/>
<polygon fill="#000000" stroke="#000000" points="2111.9882,-160.5001 2121.9881,-157 2111.9881,-153.5001 2111.9882,-160.5001"/>
</g>
<!-- TsRadioGroupModule -->
<g id="node22" class="node">
<title>TsRadioGroupModule</title>
<polygon fill="#8dd3c7" stroke="#000000" points="1470.2562,-122 1467.2562,-126 1446.2562,-126 1443.2562,-122 1327.7438,-122 1327.7438,-86 1470.2562,-86 1470.2562,-122"/>
<text text-anchor="middle" x="1399" y="-99.8" font-family="Times,serif" font-size="14.00" fill="#000000">TsRadioGroupModule</text>
</g>
<!-- TsRadioGroupModule&#45;&gt;TerminusUIModule -->
<g id="edge21" class="edge">
<title>TsRadioGroupModule&#45;&gt;TerminusUIModule</title>
<path fill="none" stroke="#000000" d="M1461.753,-122.2819C1461.753,-137.9478 1461.753,-158 1461.753,-158 1461.753,-158 2111.7279,-158 2111.7279,-158"/>
<polygon fill="#000000" stroke="#000000" points="2111.7279,-161.5001 2121.7279,-158 2111.7279,-154.5001 2111.7279,-161.5001"/>
</g>
<!-- TsSearchModule -->
<g id="node23" class="node">
<title>TsSearchModule</title>
<polygon fill="#8dd3c7" stroke="#000000" points="1309.6346,-122 1306.6346,-126 1285.6346,-126 1282.6346,-122 1198.3654,-122 1198.3654,-86 1309.6346,-86 1309.6346,-122"/>
<text text-anchor="middle" x="1254" y="-99.8" font-family="Times,serif" font-size="14.00" fill="#000000">TsSearchModule</text>
</g>
<!-- TsSearchModule&#45;&gt;TerminusUIModule -->
<g id="edge22" class="edge">
<title>TsSearchModule&#45;&gt;TerminusUIModule</title>
<path fill="none" stroke="#000000" d="M1297.7195,-122.0091C1297.7195,-138.0494 1297.7195,-159 1297.7195,-159 1297.7195,-159 2111.7597,-159 2111.7597,-159"/>
<polygon fill="#000000" stroke="#000000" points="2111.7598,-162.5001 2121.7597,-159 2111.7597,-155.5001 2111.7598,-162.5001"/>
</g>
<!-- TsSelectModule -->
<g id="node24" class="node">
<title>TsSelectModule</title>
<polygon fill="#8dd3c7" stroke="#000000" points="1179.7549,-122 1176.7549,-126 1155.7549,-126 1152.7549,-122 1072.2451,-122 1072.2451,-86 1179.7549,-86 1179.7549,-122"/>
<text text-anchor="middle" x="1126" y="-99.8" font-family="Times,serif" font-size="14.00" fill="#000000">TsSelectModule</text>
</g>
<!-- TsSelectModule&#45;&gt;TerminusUIModule -->
<g id="edge23" class="edge">
<title>TsSelectModule&#45;&gt;TerminusUIModule</title>
<path fill="none" stroke="#000000" d="M1164.5302,-122.027C1164.5302,-138.3976 1164.5302,-160 1164.5302,-160 1164.5302,-160 2111.7155,-160 2111.7155,-160"/>
<polygon fill="#000000" stroke="#000000" points="2111.7156,-163.5001 2121.7155,-160 2111.7155,-156.5001 2111.7156,-163.5001"/>
</g>
<!-- TsSortModule -->
<g id="node25" class="node">
<title>TsSortModule</title>
<polygon fill="#8dd3c7" stroke="#000000" points="1054.3809,-122 1051.3809,-126 1030.3809,-126 1027.3809,-122 957.6191,-122 957.6191,-86 1054.3809,-86 1054.3809,-122"/>
<text text-anchor="middle" x="1006" y="-99.8" font-family="Times,serif" font-size="14.00" fill="#000000">TsSortModule</text>
</g>
<!-- TsSortModule&#45;&gt;TerminusUIModule -->
<g id="edge24" class="edge">
<title>TsSortModule&#45;&gt;TerminusUIModule</title>
<path fill="none" stroke="#000000" d="M1049.4066,-122.0336C1049.4066,-139.0597 1049.4066,-162 1049.4066,-162 1049.4066,-162 2111.6352,-162 2111.6352,-162"/>
<polygon fill="#000000" stroke="#000000" points="2111.6353,-165.5001 2121.6352,-162 2111.6352,-158.5001 2111.6353,-165.5001"/>
</g>
<!-- TsSpacingModule -->
<g id="node26" class="node">
<title>TsSpacingModule</title>
<polygon fill="#8dd3c7" stroke="#000000" points="939.1499,-122 936.1499,-126 915.1499,-126 912.1499,-122 820.8501,-122 820.8501,-86 939.1499,-86 939.1499,-122"/>
<text text-anchor="middle" x="880" y="-99.8" font-family="Times,serif" font-size="14.00" fill="#000000">TsSpacingModule</text>
</g>
<!-- TsSpacingModule&#45;&gt;TerminusUIModule -->
<g id="edge25" class="edge">
<title>TsSpacingModule&#45;&gt;TerminusUIModule</title>
<path fill="none" stroke="#000000" d="M932.5672,-122.0225C932.5672,-139.3734 932.5672,-163 932.5672,-163 932.5672,-163 2111.6848,-163 2111.6848,-163"/>
<polygon fill="#000000" stroke="#000000" points="2111.6848,-166.5001 2121.6848,-163 2111.6848,-159.5001 2111.6848,-166.5001"/>
</g>
<!-- TsTableModule -->
<g id="node27" class="node">
<title>TsTableModule</title>
<polygon fill="#8dd3c7" stroke="#000000" points="802.9202,-122 799.9202,-126 778.9202,-126 775.9202,-122 697.0798,-122 697.0798,-86 802.9202,-86 802.9202,-122"/>
<text text-anchor="middle" x="750" y="-99.8" font-family="Times,serif" font-size="14.00" fill="#000000">TsTableModule</text>
</g>
<!-- TsTableModule&#45;&gt;TerminusUIModule -->
<g id="edge26" class="edge">
<title>TsTableModule&#45;&gt;TerminusUIModule</title>
<path fill="none" stroke="#000000" d="M794.3175,-122.002C794.3175,-139.6754 794.3175,-164 794.3175,-164 794.3175,-164 2111.6674,-164 2111.6674,-164"/>
<polygon fill="#000000" stroke="#000000" points="2111.6674,-167.5001 2121.6674,-164 2111.6673,-160.5001 2111.6674,-167.5001"/>
</g>
<!-- TsToggleModule -->
<g id="node28" class="node">
<title>TsToggleModule</title>
<polygon fill="#8dd3c7" stroke="#000000" points="679.705,-122 676.705,-126 655.705,-126 652.705,-122 566.295,-122 566.295,-86 679.705,-86 679.705,-122"/>
<text text-anchor="middle" x="623" y="-99.8" font-family="Times,serif" font-size="14.00" fill="#000000">TsToggleModule</text>
</g>
<!-- TsToggleModule&#45;&gt;TerminusUIModule -->
<g id="edge27" class="edge">
<title>TsToggleModule&#45;&gt;TerminusUIModule</title>
<path fill="none" stroke="#000000" d="M669.0713,-122.2667C669.0713,-140.5552 669.0713,-166 669.0713,-166 669.0713,-166 2111.7884,-166 2111.7884,-166"/>
<polygon fill="#000000" stroke="#000000" points="2111.7884,-169.5001 2121.7884,-166 2111.7883,-162.5001 2111.7884,-169.5001"/>
</g>
<!-- TsTooltipModule -->
<g id="node29" class="node">
<title>TsTooltipModule</title>
<polygon fill="#8dd3c7" stroke="#000000" points="548.2716,-122 545.2716,-126 524.2716,-126 521.2716,-122 433.7284,-122 433.7284,-86 548.2716,-86 548.2716,-122"/>
<text text-anchor="middle" x="491" y="-99.8" font-family="Times,serif" font-size="14.00" fill="#000000">TsTooltipModule</text>
</g>
<!-- TsTooltipModule&#45;&gt;TerminusUIModule -->
<g id="edge28" class="edge">
<title>TsTooltipModule&#45;&gt;TerminusUIModule</title>
<path fill="none" stroke="#000000" d="M536.0167,-122.2222C536.0167,-140.8285 536.0167,-167 536.0167,-167 536.0167,-167 2111.8251,-167 2111.8251,-167"/>
<polygon fill="#000000" stroke="#000000" points="2111.8251,-170.5001 2121.8251,-167 2111.8251,-163.5001 2111.8251,-170.5001"/>
</g>
<!-- TsValidationMessagesModule -->
<g id="node30" class="node">
<title>TsValidationMessagesModule</title>
<polygon fill="#8dd3c7" stroke="#000000" points="415.5674,-122 412.5674,-126 391.5674,-126 388.5674,-122 228.4326,-122 228.4326,-86 415.5674,-86 415.5674,-122"/>
<text text-anchor="middle" x="322" y="-99.8" font-family="Times,serif" font-size="14.00" fill="#000000">TsValidationMessagesModule</text>
</g>
<!-- TsValidationMessagesModule&#45;&gt;TerminusUIModule -->
<g id="edge29" class="edge">
<title>TsValidationMessagesModule&#45;&gt;TerminusUIModule</title>
<path fill="none" stroke="#000000" d="M401.699,-122.1686C401.699,-141.0898 401.699,-168 401.699,-168 401.699,-168 2111.9697,-168 2111.9697,-168"/>
<polygon fill="#000000" stroke="#000000" points="2111.9697,-171.5001 2121.9697,-168 2111.9697,-164.5001 2111.9697,-171.5001"/>
</g>
<!-- TsValidatorsService -->
<g id="node59" class="node">
<title>TsValidatorsService</title>
<ellipse fill="#fdb462" stroke="#000000" cx="114" cy="-104" rx="89.7402" ry="18"/>
<text text-anchor="middle" x="114" y="-99.8" font-family="Times,serif" font-size="14.00" fill="#000000">TsValidatorsService</text>
</g>
<!-- TsValidatorsService&#45;&gt;TerminusUIModule -->
<g id="edge58" class="edge">
<title>TsValidatorsService&#45;&gt;TerminusUIModule</title>
<path fill="none" stroke="#000000" d="M191.7932,-113.038C191.7932,-130.8982 191.7932,-169 191.7932,-169 191.7932,-169 2111.9078,-169 2111.9078,-169"/>
<polygon fill="#000000" stroke="#000000" points="2111.9078,-172.5001 2121.9078,-169 2111.9078,-165.5001 2111.9078,-172.5001"/>
</g>
</g>
</svg>
