<?xml version="1.0" encoding="UTF-8" standalone="no"?>
<!DOCTYPE svg PUBLIC "-//W3C//DTD SVG 1.1//EN"
 "http://www.w3.org/Graphics/SVG/1.1/DTD/svg11.dtd">
<!-- Generated by graphviz version 2.40.1 (20161225.0304)
 -->
<!-- Title: dependencies Pages: 1 -->
<svg width="1870pt" height="284pt"
 viewBox="0.00 0.00 1870.00 284.00" xmlns="http://www.w3.org/2000/svg" xmlns:xlink="http://www.w3.org/1999/xlink">
<g id="graph0" class="graph" transform="scale(1 1) rotate(0) translate(4 280)">
<title>dependencies</title>
<polygon fill="#ffffff" stroke="transparent" points="-4,4 -4,-280 1866,-280 1866,4 -4,4"/>
<text text-anchor="start" x="910.0091" y="-42.4" font-family="sans-serif" font-weight="bold" font-size="14.00" fill="#000000">Legend</text>
<polygon fill="#ffffb3" stroke="transparent" points="697,-10 697,-30 717,-30 717,-10 697,-10"/>
<text text-anchor="start" x="720.629" y="-15.4" font-family="sans-serif" font-size="14.00" fill="#000000"> &#160;Declarations</text>
<polygon fill="#8dd3c7" stroke="transparent" points="810,-10 810,-30 830,-30 830,-10 810,-10"/>
<text text-anchor="start" x="833.7251" y="-15.4" font-family="sans-serif" font-size="14.00" fill="#000000"> &#160;Module</text>
<polygon fill="#80b1d3" stroke="transparent" points="896,-10 896,-30 916,-30 916,-10 896,-10"/>
<text text-anchor="start" x="919.7812" y="-15.4" font-family="sans-serif" font-size="14.00" fill="#000000"> &#160;Bootstrap</text>
<polygon fill="#fdb462" stroke="transparent" points="993,-10 993,-30 1013,-30 1013,-10 993,-10"/>
<text text-anchor="start" x="1016.6732" y="-15.4" font-family="sans-serif" font-size="14.00" fill="#000000"> &#160;Providers</text>
<polygon fill="#fb8072" stroke="transparent" points="1089,-10 1089,-30 1109,-30 1109,-10 1089,-10"/>
<text text-anchor="start" x="1112.7258" y="-15.4" font-family="sans-serif" font-size="14.00" fill="#000000"> &#160;Exports</text>
<g id="clust1" class="cluster">
<title>cluster_TerminusUIModule</title>
<polygon fill="none" stroke="#000000" stroke-dasharray="1,5" points="8,-70 8,-268 1854,-268 1854,-70 8,-70"/>
</g>
<g id="clust3" class="cluster">
<title>cluster_TerminusUIModule_imports</title>
<polygon fill="none" stroke="#000000" points="39,-78 39,-130 1822,-130 1822,-78 39,-78"/>
</g>
<g id="clust4" class="cluster">
<title>cluster_TerminusUIModule_exports</title>
<polygon fill="none" stroke="#000000" points="16,-208 16,-260 1846,-260 1846,-208 16,-208"/>
</g>
<!-- TsButtonModule -->
<g id="node1" class="node">
<title>TsButtonModule</title>
<polygon fill="#8dd3c7" stroke="#000000" points="1813.6653,-122 1810.6653,-126 1789.6653,-126 1786.6653,-122 1702.3347,-122 1702.3347,-86 1813.6653,-86 1813.6653,-122"/>
<text text-anchor="middle" x="1758" y="-99.8" font-family="Times,serif" font-size="14.00" fill="#000000">TsButtonModule</text>
</g>
<!-- TerminusUIModule -->
<g id="node14" class="node">
<title>TerminusUIModule</title>
<polygon fill="#8dd3c7" stroke="#000000" points="1015.9706,-187 1012.9706,-191 991.9706,-191 988.9706,-187 888.0294,-187 888.0294,-151 1015.9706,-151 1015.9706,-187"/>
<text text-anchor="middle" x="952" y="-164.8" font-family="Times,serif" font-size="14.00" fill="#000000">TerminusUIModule</text>
</g>
<!-- TsButtonModule&#45;&gt;TerminusUIModule -->
<g id="edge1" class="edge">
<title>TsButtonModule&#45;&gt;TerminusUIModule</title>
<path fill="none" stroke="#000000" d="M1713.3584,-122.2667C1713.3584,-140.5552 1713.3584,-166 1713.3584,-166 1713.3584,-166 1026.2568,-166 1026.2568,-166"/>
<polygon fill="#000000" stroke="#000000" points="1026.2569,-162.5001 1016.2568,-166 1026.2568,-169.5001 1026.2569,-162.5001"/>
</g>
<!-- TsInputModule -->
<g id="node2" class="node">
<title>TsInputModule</title>
<polygon fill="#8dd3c7" stroke="#000000" points="1684.5982,-122 1681.5982,-126 1660.5982,-126 1657.5982,-122 1581.4018,-122 1581.4018,-86 1684.5982,-86 1684.5982,-122"/>
<text text-anchor="middle" x="1633" y="-99.8" font-family="Times,serif" font-size="14.00" fill="#000000">TsInputModule</text>
</g>
<!-- TsInputModule&#45;&gt;TerminusUIModule -->
<g id="edge2" class="edge">
<title>TsInputModule&#45;&gt;TerminusUIModule</title>
<path fill="none" stroke="#000000" d="M1589.5759,-122.0225C1589.5759,-139.3734 1589.5759,-163 1589.5759,-163 1589.5759,-163 1026.0524,-163 1026.0524,-163"/>
<polygon fill="#000000" stroke="#000000" points="1026.0524,-159.5001 1016.0524,-163 1026.0524,-166.5001 1026.0524,-159.5001"/>
</g>
<!-- TsInputMessagesModule -->
<g id="node3" class="node">
<title>TsInputMessagesModule</title>
<polygon fill="#8dd3c7" stroke="#000000" points="1563.5211,-122 1560.5211,-126 1539.5211,-126 1536.5211,-122 1406.4789,-122 1406.4789,-86 1563.5211,-86 1563.5211,-122"/>
<text text-anchor="middle" x="1485" y="-99.8" font-family="Times,serif" font-size="14.00" fill="#000000">TsInputMessagesModule</text>
</g>
<!-- TsInputMessagesModule&#45;&gt;TerminusUIModule -->
<g id="edge3" class="edge">
<title>TsInputMessagesModule&#45;&gt;TerminusUIModule</title>
<path fill="none" stroke="#000000" d="M1412.3648,-122.027C1412.3648,-138.3976 1412.3648,-160 1412.3648,-160 1412.3648,-160 1026.0118,-160 1026.0118,-160"/>
<polygon fill="#000000" stroke="#000000" points="1026.0118,-156.5001 1016.0118,-160 1026.0117,-163.5001 1026.0118,-156.5001"/>
</g>
<!-- TsMenuModule -->
<g id="node4" class="node">
<title>TsMenuModule</title>
<polygon fill="#8dd3c7" stroke="#000000" points="1388.2064,-122 1385.2064,-126 1364.2064,-126 1361.2064,-122 1281.7936,-122 1281.7936,-86 1388.2064,-86 1388.2064,-122"/>
<text text-anchor="middle" x="1335" y="-99.8" font-family="Times,serif" font-size="14.00" fill="#000000">TsMenuModule</text>
</g>
<!-- TsMenuModule&#45;&gt;TerminusUIModule -->
<g id="edge4" class="edge">
<title>TsMenuModule&#45;&gt;TerminusUIModule</title>
<path fill="none" stroke="#000000" d="M1286.5219,-122.2396C1286.5219,-137.5706 1286.5219,-157 1286.5219,-157 1286.5219,-157 1026.1034,-157 1026.1034,-157"/>
<polygon fill="#000000" stroke="#000000" points="1026.1034,-153.5001 1016.1034,-157 1026.1033,-160.5001 1026.1034,-153.5001"/>
</g>
<!-- TsSelectModule -->
<g id="node5" class="node">
<title>TsSelectModule</title>
<polygon fill="#8dd3c7" stroke="#000000" points="1263.7549,-122 1260.7549,-126 1239.7549,-126 1236.7549,-122 1156.2451,-122 1156.2451,-86 1263.7549,-86 1263.7549,-122"/>
<text text-anchor="middle" x="1210" y="-99.8" font-family="Times,serif" font-size="14.00" fill="#000000">TsSelectModule</text>
</g>
<!-- TsSelectModule&#45;&gt;TerminusUIModule -->
<g id="edge5" class="edge">
<title>TsSelectModule&#45;&gt;TerminusUIModule</title>
<path fill="none" stroke="#000000" d="M1230.0424,-122.0511C1230.0424,-136.373 1230.0424,-154 1230.0424,-154 1230.0424,-154 1026.1377,-154 1026.1377,-154"/>
<polygon fill="#000000" stroke="#000000" points="1026.1377,-150.5001 1016.1377,-154 1026.1376,-157.5001 1026.1377,-150.5001"/>
</g>
<!-- TsToggleModule -->
<g id="node6" class="node">
<title>TsToggleModule</title>
<polygon fill="#8dd3c7" stroke="#000000" points="1138.705,-122 1135.705,-126 1114.705,-126 1111.705,-122 1025.295,-122 1025.295,-86 1138.705,-86 1138.705,-122"/>
<text text-anchor="middle" x="1082" y="-99.8" font-family="Times,serif" font-size="14.00" fill="#000000">TsToggleModule</text>
</g>
<!-- TsToggleModule&#45;&gt;TerminusUIModule -->
<g id="edge6" class="edge">
<title>TsToggleModule&#45;&gt;TerminusUIModule</title>
<path fill="none" stroke="#000000" d="M1025.0862,-104C1017.2931,-104 1011.9012,-104 1011.9012,-104 1011.9012,-104 1011.9012,-140.8939 1011.9012,-140.8939"/>
<polygon fill="#000000" stroke="#000000" points="1008.4012,-140.8938 1011.9012,-150.8939 1015.4012,-140.8939 1008.4012,-140.8938"/>
</g>
<!-- TsSearchModule -->
<g id="node7" class="node">
<title>TsSearchModule</title>
<polygon fill="#8dd3c7" stroke="#000000" points="1007.6346,-122 1004.6346,-126 983.6346,-126 980.6346,-122 896.3654,-122 896.3654,-86 1007.6346,-86 1007.6346,-122"/>
<text text-anchor="middle" x="952" y="-99.8" font-family="Times,serif" font-size="14.00" fill="#000000">TsSearchModule</text>
</g>
<!-- TsSearchModule&#45;&gt;TerminusUIModule -->
<g id="edge7" class="edge">
<title>TsSearchModule&#45;&gt;TerminusUIModule</title>
<path fill="none" stroke="#000000" d="M952,-122.1061C952,-122.1061 952,-140.991 952,-140.991"/>
<polygon fill="#000000" stroke="#000000" points="948.5001,-140.9909 952,-150.991 955.5001,-140.991 948.5001,-140.9909"/>
</g>
<!-- TsPaginationModule -->
<g id="node8" class="node">
<title>TsPaginationModule</title>
<polygon fill="#8dd3c7" stroke="#000000" points="877.9313,-122 874.9313,-126 853.9313,-126 850.9313,-122 744.0687,-122 744.0687,-86 877.9313,-86 877.9313,-122"/>
<text text-anchor="middle" x="811" y="-99.8" font-family="Times,serif" font-size="14.00" fill="#000000">TsPaginationModule</text>
</g>
<!-- TsPaginationModule&#45;&gt;TerminusUIModule -->
<g id="edge8" class="edge">
<title>TsPaginationModule&#45;&gt;TerminusUIModule</title>
<path fill="none" stroke="#000000" d="M877.9725,-104C886.3768,-104 892.0989,-104 892.0989,-104 892.0989,-104 892.0989,-140.8939 892.0989,-140.8939"/>
<polygon fill="#000000" stroke="#000000" points="888.5989,-140.8938 892.0989,-150.8939 895.5989,-140.8939 888.5989,-140.8938"/>
</g>
<!-- TsCopyModule -->
<g id="node9" class="node">
<title>TsCopyModule</title>
<polygon fill="#8dd3c7" stroke="#000000" points="725.8837,-122 722.8837,-126 701.8837,-126 698.8837,-122 622.1163,-122 622.1163,-86 725.8837,-86 725.8837,-122"/>
<text text-anchor="middle" x="674" y="-99.8" font-family="Times,serif" font-size="14.00" fill="#000000">TsCopyModule</text>
</g>
<!-- TsCopyModule&#45;&gt;TerminusUIModule -->
<g id="edge9" class="edge">
<title>TsCopyModule&#45;&gt;TerminusUIModule</title>
<path fill="none" stroke="#000000" d="M688.4806,-122.0511C688.4806,-136.373 688.4806,-154 688.4806,-154 688.4806,-154 877.8729,-154 877.8729,-154"/>
<polygon fill="#000000" stroke="#000000" points="877.8729,-157.5001 887.8729,-154 877.8728,-150.5001 877.8729,-157.5001"/>
</g>
<!-- TsTooltipModule -->
<g id="node10" class="node">
<title>TsTooltipModule</title>
<polygon fill="#8dd3c7" stroke="#000000" points="604.2716,-122 601.2716,-126 580.2716,-126 577.2716,-122 489.7284,-122 489.7284,-86 604.2716,-86 604.2716,-122"/>
<text text-anchor="middle" x="547" y="-99.8" font-family="Times,serif" font-size="14.00" fill="#000000">TsTooltipModule</text>
</g>
<!-- TsTooltipModule&#45;&gt;TerminusUIModule -->
<g id="edge10" class="edge">
<title>TsTooltipModule&#45;&gt;TerminusUIModule</title>
<path fill="none" stroke="#000000" d="M600.2607,-122.2396C600.2607,-137.5706 600.2607,-157 600.2607,-157 600.2607,-157 877.8946,-157 877.8946,-157"/>
<polygon fill="#000000" stroke="#000000" points="877.8946,-160.5001 887.8946,-157 877.8946,-153.5001 877.8946,-160.5001"/>
</g>
<!-- TsDatepickerModule -->
<g id="node11" class="node">
<title>TsDatepickerModule</title>
<polygon fill="#8dd3c7" stroke="#000000" points="471.4538,-122 468.4538,-126 447.4538,-126 444.4538,-122 336.5462,-122 336.5462,-86 471.4538,-86 471.4538,-122"/>
<text text-anchor="middle" x="404" y="-99.8" font-family="Times,serif" font-size="14.00" fill="#000000">TsDatepickerModule</text>
</g>
<!-- TsDatepickerModule&#45;&gt;TerminusUIModule -->
<g id="edge11" class="edge">
<title>TsDatepickerModule&#45;&gt;TerminusUIModule</title>
<path fill="none" stroke="#000000" d="M465.8519,-122.027C465.8519,-138.3976 465.8519,-160 465.8519,-160 465.8519,-160 877.9447,-160 877.9447,-160"/>
<polygon fill="#000000" stroke="#000000" points="877.9447,-163.5001 887.9447,-160 877.9447,-156.5001 877.9447,-163.5001"/>
</g>
<!-- TsDateRangeModule -->
<g id="node12" class="node">
<title>TsDateRangeModule</title>
<polygon fill="#8dd3c7" stroke="#000000" points="318.7395,-122 315.7395,-126 294.7395,-126 291.7395,-122 183.2605,-122 183.2605,-86 318.7395,-86 318.7395,-122"/>
<text text-anchor="middle" x="251" y="-99.8" font-family="Times,serif" font-size="14.00" fill="#000000">TsDateRangeModule</text>
</g>
<!-- TsDateRangeModule&#45;&gt;TerminusUIModule -->
<g id="edge12" class="edge">
<title>TsDateRangeModule&#45;&gt;TerminusUIModule</title>
<path fill="none" stroke="#000000" d="M311.2446,-122.0225C311.2446,-139.3734 311.2446,-163 311.2446,-163 311.2446,-163 877.9241,-163 877.9241,-163"/>
<polygon fill="#000000" stroke="#000000" points="877.9241,-166.5001 887.9241,-163 877.924,-159.5001 877.9241,-166.5001"/>
</g>
<!-- TsSpacingModule -->
<g id="node13" class="node">
<title>TsSpacingModule</title>
<polygon fill="#8dd3c7" stroke="#000000" points="165.1499,-122 162.1499,-126 141.1499,-126 138.1499,-122 46.8501,-122 46.8501,-86 165.1499,-86 165.1499,-122"/>
<text text-anchor="middle" x="106" y="-99.8" font-family="Times,serif" font-size="14.00" fill="#000000">TsSpacingModule</text>
</g>
<!-- TsSpacingModule&#45;&gt;TerminusUIModule -->
<g id="edge13" class="edge">
<title>TsSpacingModule&#45;&gt;TerminusUIModule</title>
<path fill="none" stroke="#000000" d="M155.2276,-122.2667C155.2276,-140.5552 155.2276,-166 155.2276,-166 155.2276,-166 877.808,-166 877.808,-166"/>
<polygon fill="#000000" stroke="#000000" points="877.8081,-169.5001 887.808,-166 877.808,-162.5001 877.8081,-169.5001"/>
</g>
<!-- TsButtonModule  -->
<g id="node15" class="node">
<title>TsButtonModule </title>
<polygon fill="#fb8072" stroke="#000000" points="1837.6649,-252 1722.3351,-252 1722.3351,-216 1837.6649,-216 1837.6649,-252"/>
<text text-anchor="middle" x="1780" y="-229.8" font-family="Times,serif" font-size="14.00" fill="#000000">TsButtonModule </text>
</g>
<!-- TerminusUIModule&#45;&gt;TsButtonModule  -->
<g id="edge14" class="edge">
<title>TerminusUIModule&#45;&gt;TsButtonModule </title>
<path fill="none" stroke="#000000" stroke-dasharray="5,2" d="M1016.04,-169C1208.4338,-169 1768.125,-169 1768.125,-169 1768.125,-169 1768.125,-205.8939 1768.125,-205.8939"/>
<polygon fill="#000000" stroke="#000000" points="1764.6251,-205.8938 1768.125,-215.8939 1771.6251,-205.8939 1764.6251,-205.8938"/>
</g>
<!-- TsInputModule  -->
<g id="node16" class="node">
<title>TsInputModule </title>
<polygon fill="#fb8072" stroke="#000000" points="1704.099,-252 1597.901,-252 1597.901,-216 1704.099,-216 1704.099,-252"/>
<text text-anchor="middle" x="1651" y="-229.8" font-family="Times,serif" font-size="14.00" fill="#000000">TsInputModule </text>
</g>
<!-- TerminusUIModule&#45;&gt;TsInputModule  -->
<g id="edge15" class="edge">
<title>TerminusUIModule&#45;&gt;TsInputModule </title>
<path fill="none" stroke="#000000" stroke-dasharray="5,2" d="M1016.2124,-172C1187.2877,-172 1641.125,-172 1641.125,-172 1641.125,-172 1641.125,-205.7333 1641.125,-205.7333"/>
<polygon fill="#000000" stroke="#000000" points="1637.6251,-205.7333 1641.125,-215.7333 1644.6251,-205.7333 1637.6251,-205.7333"/>
</g>
<!-- TsInputMessagesModule  -->
<g id="node17" class="node">
<title>TsInputMessagesModule </title>
<polygon fill="#fb8072" stroke="#000000" points="1579.5204,-252 1418.4796,-252 1418.4796,-216 1579.5204,-216 1579.5204,-252"/>
<text text-anchor="middle" x="1499" y="-229.8" font-family="Times,serif" font-size="14.00" fill="#000000">TsInputMessagesModule </text>
</g>
<!-- TerminusUIModule&#45;&gt;TsInputMessagesModule  -->
<g id="edge16" class="edge">
<title>TerminusUIModule&#45;&gt;TsInputMessagesModule </title>
<path fill="none" stroke="#000000" stroke-dasharray="5,2" d="M1016.2285,-175C1159.1837,-175 1491.125,-175 1491.125,-175 1491.125,-175 1491.125,-205.9775 1491.125,-205.9775"/>
<polygon fill="#000000" stroke="#000000" points="1487.6251,-205.9774 1491.125,-215.9775 1494.6251,-205.9775 1487.6251,-205.9774"/>
</g>
<!-- TsMenuModule  -->
<g id="node18" class="node">
<title>TsMenuModule </title>
<polygon fill="#fb8072" stroke="#000000" points="1400.7066,-252 1291.2934,-252 1291.2934,-216 1400.7066,-216 1400.7066,-252"/>
<text text-anchor="middle" x="1346" y="-229.8" font-family="Times,serif" font-size="14.00" fill="#000000">TsMenuModule </text>
</g>
<!-- TerminusUIModule&#45;&gt;TsMenuModule  -->
<g id="edge17" class="edge">
<title>TerminusUIModule&#45;&gt;TsMenuModule </title>
<path fill="none" stroke="#000000" stroke-dasharray="5,2" d="M1016.0084,-178C1126.1048,-178 1339.625,-178 1339.625,-178 1339.625,-178 1339.625,-205.973 1339.625,-205.973"/>
<polygon fill="#000000" stroke="#000000" points="1336.1251,-205.973 1339.625,-215.973 1343.1251,-205.973 1336.1251,-205.973"/>
</g>
<!-- TsSelectModule  -->
<g id="node19" class="node">
<title>TsSelectModule </title>
<polygon fill="#fb8072" stroke="#000000" points="1273.7549,-252 1162.2451,-252 1162.2451,-216 1273.7549,-216 1273.7549,-252"/>
<text text-anchor="middle" x="1218" y="-229.8" font-family="Times,serif" font-size="14.00" fill="#000000">TsSelectModule </text>
</g>
<!-- TerminusUIModule&#45;&gt;TsSelectModule  -->
<g id="edge18" class="edge">
<title>TerminusUIModule&#45;&gt;TsSelectModule </title>
<path fill="none" stroke="#000000" stroke-dasharray="5,2" d="M1016.1627,-181C1088.5172,-181 1196.2076,-181 1196.2076,-181 1196.2076,-181 1196.2076,-205.7604 1196.2076,-205.7604"/>
<polygon fill="#000000" stroke="#000000" points="1192.7077,-205.7604 1196.2076,-215.7604 1199.7077,-205.7604 1192.7077,-205.7604"/>
</g>
<!-- TsToggleModule  -->
<g id="node20" class="node">
<title>TsToggleModule </title>
<polygon fill="#fb8072" stroke="#000000" points="1144.2052,-252 1027.7948,-252 1027.7948,-216 1144.2052,-216 1144.2052,-252"/>
<text text-anchor="middle" x="1086" y="-229.8" font-family="Times,serif" font-size="14.00" fill="#000000">TsToggleModule </text>
</g>
<!-- TerminusUIModule&#45;&gt;TsToggleModule  -->
<g id="edge19" class="edge">
<title>TerminusUIModule&#45;&gt;TsToggleModule </title>
<path fill="none" stroke="#000000" stroke-dasharray="5,2" d="M1016.026,-184C1049.3113,-184 1083.125,-184 1083.125,-184 1083.125,-184 1083.125,-205.9489 1083.125,-205.9489"/>
<polygon fill="#000000" stroke="#000000" points="1079.6251,-205.9488 1083.125,-215.9489 1086.6251,-205.9489 1079.6251,-205.9488"/>
</g>
<!-- TsSearchModule  -->
<g id="node21" class="node">
<title>TsSearchModule </title>
<polygon fill="#fb8072" stroke="#000000" points="1009.6341,-252 894.3659,-252 894.3659,-216 1009.6341,-216 1009.6341,-252"/>
<text text-anchor="middle" x="952" y="-229.8" font-family="Times,serif" font-size="14.00" fill="#000000">TsSearchModule </text>
</g>
<!-- TerminusUIModule&#45;&gt;TsSearchModule  -->
<g id="edge20" class="edge">
<title>TerminusUIModule&#45;&gt;TsSearchModule </title>
<path fill="none" stroke="#000000" stroke-dasharray="5,2" d="M952,-187.1061C952,-187.1061 952,-205.991 952,-205.991"/>
<polygon fill="#000000" stroke="#000000" points="948.5001,-205.9909 952,-215.991 955.5001,-205.991 948.5001,-205.9909"/>
</g>
<!-- TsPaginationModule  -->
<g id="node22" class="node">
<title>TsPaginationModule </title>
<polygon fill="#fb8072" stroke="#000000" points="876.4306,-252 739.5694,-252 739.5694,-216 876.4306,-216 876.4306,-252"/>
<text text-anchor="middle" x="808" y="-229.8" font-family="Times,serif" font-size="14.00" fill="#000000">TsPaginationModule </text>
</g>
<!-- TerminusUIModule&#45;&gt;TsPaginationModule  -->
<g id="edge21" class="edge">
<title>TerminusUIModule&#45;&gt;TsPaginationModule </title>
<path fill="none" stroke="#000000" stroke-dasharray="5,2" d="M887.8175,-184C850.3453,-184 810.375,-184 810.375,-184 810.375,-184 810.375,-205.9489 810.375,-205.9489"/>
<polygon fill="#000000" stroke="#000000" points="806.8751,-205.9488 810.375,-215.9489 813.8751,-205.9489 806.8751,-205.9488"/>
</g>
<!-- TsCopyModule  -->
<g id="node23" class="node">
<title>TsCopyModule </title>
<polygon fill="#fb8072" stroke="#000000" points="721.8843,-252 614.1157,-252 614.1157,-216 721.8843,-216 721.8843,-252"/>
<text text-anchor="middle" x="668" y="-229.8" font-family="Times,serif" font-size="14.00" fill="#000000">TsCopyModule </text>
</g>
<!-- TerminusUIModule&#45;&gt;TsCopyModule  -->
<g id="edge22" class="edge">
<title>TerminusUIModule&#45;&gt;TsCopyModule </title>
<path fill="none" stroke="#000000" stroke-dasharray="5,2" d="M887.9792,-181C800.7485,-181 655.2694,-181 655.2694,-181 655.2694,-181 655.2694,-205.7604 655.2694,-205.7604"/>
<polygon fill="#000000" stroke="#000000" points="651.7695,-205.7604 655.2694,-215.7604 658.7695,-205.7604 651.7695,-205.7604"/>
</g>
<!-- TsTooltipModule  -->
<g id="node24" class="node">
<title>TsTooltipModule </title>
<polygon fill="#fb8072" stroke="#000000" points="596.2717,-252 477.7283,-252 477.7283,-216 596.2717,-216 596.2717,-252"/>
<text text-anchor="middle" x="537" y="-229.8" font-family="Times,serif" font-size="14.00" fill="#000000">TsTooltipModule </text>
</g>
<!-- TerminusUIModule&#45;&gt;TsTooltipModule  -->
<g id="edge23" class="edge">
<title>TerminusUIModule&#45;&gt;TsTooltipModule </title>
<path fill="none" stroke="#000000" stroke-dasharray="5,2" d="M887.6242,-178C772.4089,-178 542.875,-178 542.875,-178 542.875,-178 542.875,-205.973 542.875,-205.973"/>
<polygon fill="#000000" stroke="#000000" points="539.3751,-205.973 542.875,-215.973 546.3751,-205.973 539.3751,-205.973"/>
</g>
<!-- TsDatepickerModule  -->
<g id="node25" class="node">
<title>TsDatepickerModule </title>
<polygon fill="#fb8072" stroke="#000000" points="460.4545,-252 321.5455,-252 321.5455,-216 460.4545,-216 460.4545,-252"/>
<text text-anchor="middle" x="391" y="-229.8" font-family="Times,serif" font-size="14.00" fill="#000000">TsDatepickerModule </text>
</g>
<!-- TerminusUIModule&#45;&gt;TsDatepickerModule  -->
<g id="edge24" class="edge">
<title>TerminusUIModule&#45;&gt;TsDatepickerModule </title>
<path fill="none" stroke="#000000" stroke-dasharray="5,2" d="M887.9513,-175C742.2201,-175 398.375,-175 398.375,-175 398.375,-175 398.375,-205.9775 398.375,-205.9775"/>
<polygon fill="#000000" stroke="#000000" points="394.8751,-205.9774 398.375,-215.9775 401.8751,-205.9775 394.8751,-205.9774"/>
</g>
<!-- TsDateRangeModule  -->
<g id="node26" class="node">
<title>TsDateRangeModule </title>
<polygon fill="#fb8072" stroke="#000000" points="303.7394,-252 164.2606,-252 164.2606,-216 303.7394,-216 303.7394,-252"/>
<text text-anchor="middle" x="234" y="-229.8" font-family="Times,serif" font-size="14.00" fill="#000000">TsDateRangeModule </text>
</g>
<!-- TerminusUIModule&#45;&gt;TsDateRangeModule  -->
<g id="edge25" class="edge">
<title>TerminusUIModule&#45;&gt;TsDateRangeModule </title>
<path fill="none" stroke="#000000" stroke-dasharray="5,2" d="M887.8644,-172C713.43,-172 243.375,-172 243.375,-172 243.375,-172 243.375,-205.7333 243.375,-205.7333"/>
<polygon fill="#000000" stroke="#000000" points="239.8751,-205.7333 243.375,-215.7333 246.8751,-205.7333 239.8751,-205.7333"/>
</g>
<!-- TsSpacingModule  -->
<g id="node27" class="node">
<title>TsSpacingModule </title>
<polygon fill="#fb8072" stroke="#000000" points="146.1495,-252 23.8505,-252 23.8505,-216 146.1495,-216 146.1495,-252"/>
<text text-anchor="middle" x="85" y="-229.8" font-family="Times,serif" font-size="14.00" fill="#000000">TsSpacingModule </text>
</g>
<!-- TerminusUIModule&#45;&gt;TsSpacingModule  -->
<g id="edge26" class="edge">
<title>TerminusUIModule&#45;&gt;TsSpacingModule </title>
<path fill="none" stroke="#000000" stroke-dasharray="5,2" d="M887.6891,-169C688.7037,-169 96.375,-169 96.375,-169 96.375,-169 96.375,-205.8939 96.375,-205.8939"/>
<polygon fill="#000000" stroke="#000000" points="92.8751,-205.8938 96.375,-215.8939 99.8751,-205.8939 92.8751,-205.8938"/>
</g>
</g>
</svg>
