<?xml version="1.0" encoding="UTF-8" standalone="no"?>
<!DOCTYPE svg PUBLIC "-//W3C//DTD SVG 1.1//EN"
 "http://www.w3.org/Graphics/SVG/1.1/DTD/svg11.dtd">
<!-- Generated by graphviz version 2.40.1 (20161225.0304)
 -->
<!-- Title: dependencies Pages: 1 -->
<svg width="2332pt" height="284pt"
 viewBox="0.00 0.00 2332.00 284.00" xmlns="http://www.w3.org/2000/svg" xmlns:xlink="http://www.w3.org/1999/xlink">
<g id="graph0" class="graph" transform="scale(1 1) rotate(0) translate(4 280)">
<title>dependencies</title>
<polygon fill="#ffffff" stroke="transparent" points="-4,4 -4,-280 2328,-280 2328,4 -4,4"/>
<text text-anchor="start" x="1141.0091" y="-42.4" font-family="sans-serif" font-weight="bold" font-size="14.00" fill="#000000">Legend</text>
<polygon fill="#ffffb3" stroke="transparent" points="928,-10 928,-30 948,-30 948,-10 928,-10"/>
<text text-anchor="start" x="951.629" y="-15.4" font-family="sans-serif" font-size="14.00" fill="#000000"> &#160;Declarations</text>
<polygon fill="#8dd3c7" stroke="transparent" points="1041,-10 1041,-30 1061,-30 1061,-10 1041,-10"/>
<text text-anchor="start" x="1064.7251" y="-15.4" font-family="sans-serif" font-size="14.00" fill="#000000"> &#160;Module</text>
<polygon fill="#80b1d3" stroke="transparent" points="1127,-10 1127,-30 1147,-30 1147,-10 1127,-10"/>
<text text-anchor="start" x="1150.7812" y="-15.4" font-family="sans-serif" font-size="14.00" fill="#000000"> &#160;Bootstrap</text>
<polygon fill="#fdb462" stroke="transparent" points="1224,-10 1224,-30 1244,-30 1244,-10 1224,-10"/>
<text text-anchor="start" x="1247.6732" y="-15.4" font-family="sans-serif" font-size="14.00" fill="#000000"> &#160;Providers</text>
<polygon fill="#fb8072" stroke="transparent" points="1320,-10 1320,-30 1340,-30 1340,-10 1320,-10"/>
<text text-anchor="start" x="1343.7258" y="-15.4" font-family="sans-serif" font-size="14.00" fill="#000000"> &#160;Exports</text>
<g id="clust1" class="cluster">
<title>cluster_TerminusUIModule</title>
<polygon fill="none" stroke="#000000" stroke-dasharray="1,5" points="8,-70 8,-268 2316,-268 2316,-70 8,-70"/>
</g>
<g id="clust3" class="cluster">
<title>cluster_TerminusUIModule_imports</title>
<polygon fill="none" stroke="#000000" points="51,-78 51,-130 2286,-130 2286,-78 51,-78"/>
</g>
<g id="clust4" class="cluster">
<title>cluster_TerminusUIModule_exports</title>
<polygon fill="none" stroke="#000000" points="16,-208 16,-260 2308,-260 2308,-208 16,-208"/>
</g>
<!-- TsButtonModule -->
<g id="node1" class="node">
<title>TsButtonModule</title>
<polygon fill="#8dd3c7" stroke="#000000" points="2277.6653,-122 2274.6653,-126 2253.6653,-126 2250.6653,-122 2166.3347,-122 2166.3347,-86 2277.6653,-86 2277.6653,-122"/>
<text text-anchor="middle" x="2222" y="-99.8" font-family="Times,serif" font-size="14.00" fill="#000000">TsButtonModule</text>
</g>
<!-- TerminusUIModule -->
<g id="node17" class="node">
<title>TerminusUIModule</title>
<polygon fill="#8dd3c7" stroke="#000000" points="1184.9706,-187 1181.9706,-191 1160.9706,-191 1157.9706,-187 1057.0294,-187 1057.0294,-151 1184.9706,-151 1184.9706,-187"/>
<text text-anchor="middle" x="1121" y="-164.8" font-family="Times,serif" font-size="14.00" fill="#000000">TerminusUIModule</text>
</g>
<!-- TsButtonModule&#45;&gt;TerminusUIModule -->
<g id="edge1" class="edge">
<title>TsButtonModule&#45;&gt;TerminusUIModule</title>
<path fill="none" stroke="#000000" d="M2175.3584,-122.1686C2175.3584,-141.0898 2175.3584,-168 2175.3584,-168 2175.3584,-168 1194.9735,-168 1194.9735,-168"/>
<polygon fill="#000000" stroke="#000000" points="1194.9736,-164.5001 1184.9735,-168 1194.9735,-171.5001 1194.9736,-164.5001"/>
</g>
<!-- TsInputModule -->
<g id="node2" class="node">
<title>TsInputModule</title>
<polygon fill="#8dd3c7" stroke="#000000" points="2148.5982,-122 2145.5982,-126 2124.5982,-126 2121.5982,-122 2045.4018,-122 2045.4018,-86 2148.5982,-86 2148.5982,-122"/>
<text text-anchor="middle" x="2097" y="-99.8" font-family="Times,serif" font-size="14.00" fill="#000000">TsInputModule</text>
</g>
<!-- TsInputModule&#45;&gt;TerminusUIModule -->
<g id="edge2" class="edge">
<title>TsInputModule&#45;&gt;TerminusUIModule</title>
<path fill="none" stroke="#000000" d="M2052.5759,-122.2667C2052.5759,-140.5552 2052.5759,-166 2052.5759,-166 2052.5759,-166 1195.031,-166 1195.031,-166"/>
<polygon fill="#000000" stroke="#000000" points="1195.031,-162.5001 1185.031,-166 1195.0309,-169.5001 1195.031,-162.5001"/>
</g>
<!-- TsValidationMessagesModule -->
<g id="node3" class="node">
<title>TsValidationMessagesModule</title>
<polygon fill="#8dd3c7" stroke="#000000" points="2027.5674,-122 2024.5674,-126 2003.5674,-126 2000.5674,-122 1840.4326,-122 1840.4326,-86 2027.5674,-86 2027.5674,-122"/>
<text text-anchor="middle" x="1934" y="-99.8" font-family="Times,serif" font-size="14.00" fill="#000000">TsValidationMessagesModule</text>
</g>
<!-- TsValidationMessagesModule&#45;&gt;TerminusUIModule -->
<g id="edge3" class="edge">
<title>TsValidationMessagesModule&#45;&gt;TerminusUIModule</title>
<path fill="none" stroke="#000000" d="M1845.5913,-122.0225C1845.5913,-139.3734 1845.5913,-163 1845.5913,-163 1845.5913,-163 1194.9848,-163 1194.9848,-163"/>
<polygon fill="#000000" stroke="#000000" points="1194.9848,-159.5001 1184.9848,-163 1194.9848,-166.5001 1194.9848,-159.5001"/>
</g>
<!-- TsMenuModule -->
<g id="node4" class="node">
<title>TsMenuModule</title>
<polygon fill="#8dd3c7" stroke="#000000" points="1822.2064,-122 1819.2064,-126 1798.2064,-126 1795.2064,-122 1715.7936,-122 1715.7936,-86 1822.2064,-86 1822.2064,-122"/>
<text text-anchor="middle" x="1769" y="-99.8" font-family="Times,serif" font-size="14.00" fill="#000000">TsMenuModule</text>
</g>
<!-- TsMenuModule&#45;&gt;TerminusUIModule -->
<g id="edge4" class="edge">
<title>TsMenuModule&#45;&gt;TerminusUIModule</title>
<path fill="none" stroke="#000000" d="M1719.5219,-122.0352C1719.5219,-138.7344 1719.5219,-161 1719.5219,-161 1719.5219,-161 1195.0523,-161 1195.0523,-161"/>
<polygon fill="#000000" stroke="#000000" points="1195.0524,-157.5001 1185.0523,-161 1195.0523,-164.5001 1195.0524,-157.5001"/>
</g>
<!-- TsSelectModule -->
<g id="node5" class="node">
<title>TsSelectModule</title>
<polygon fill="#8dd3c7" stroke="#000000" points="1697.7549,-122 1694.7549,-126 1673.7549,-126 1670.7549,-122 1590.2451,-122 1590.2451,-86 1697.7549,-86 1697.7549,-122"/>
<text text-anchor="middle" x="1644" y="-99.8" font-family="Times,serif" font-size="14.00" fill="#000000">TsSelectModule</text>
</g>
<!-- TsSelectModule&#45;&gt;TerminusUIModule -->
<g id="edge5" class="edge">
<title>TsSelectModule&#45;&gt;TerminusUIModule</title>
<path fill="none" stroke="#000000" d="M1663.3758,-122.0091C1663.3758,-138.0494 1663.3758,-159 1663.3758,-159 1663.3758,-159 1195.0797,-159 1195.0797,-159"/>
<polygon fill="#000000" stroke="#000000" points="1195.0797,-155.5001 1185.0797,-159 1195.0796,-162.5001 1195.0797,-155.5001"/>
</g>
<!-- TsToggleModule -->
<g id="node6" class="node">
<title>TsToggleModule</title>
<polygon fill="#8dd3c7" stroke="#000000" points="1572.705,-122 1569.705,-126 1548.705,-126 1545.705,-122 1459.295,-122 1459.295,-86 1572.705,-86 1572.705,-122"/>
<text text-anchor="middle" x="1516" y="-99.8" font-family="Times,serif" font-size="14.00" fill="#000000">TsToggleModule</text>
</g>
<!-- TsToggleModule&#45;&gt;TerminusUIModule -->
<g id="edge6" class="edge">
<title>TsToggleModule&#45;&gt;TerminusUIModule</title>
<path fill="none" stroke="#000000" d="M1534.9508,-122.1871C1534.9508,-137.1824 1534.9508,-156 1534.9508,-156 1534.9508,-156 1195.2256,-156 1195.2256,-156"/>
<polygon fill="#000000" stroke="#000000" points="1195.2257,-152.5001 1185.2256,-156 1195.2256,-159.5001 1195.2257,-152.5001"/>
</g>
<!-- TsSearchModule -->
<g id="node7" class="node">
<title>TsSearchModule</title>
<polygon fill="#8dd3c7" stroke="#000000" points="1441.6346,-122 1438.6346,-126 1417.6346,-126 1414.6346,-122 1330.3654,-122 1330.3654,-86 1441.6346,-86 1441.6346,-122"/>
<text text-anchor="middle" x="1386" y="-99.8" font-family="Times,serif" font-size="14.00" fill="#000000">TsSearchModule</text>
</g>
<!-- TsSearchModule&#45;&gt;TerminusUIModule -->
<g id="edge7" class="edge">
<title>TsSearchModule&#45;&gt;TerminusUIModule</title>
<path fill="none" stroke="#000000" d="M1367.311,-122.0511C1367.311,-136.373 1367.311,-154 1367.311,-154 1367.311,-154 1195.0723,-154 1195.0723,-154"/>
<polygon fill="#000000" stroke="#000000" points="1195.0724,-150.5001 1185.0723,-154 1195.0723,-157.5001 1195.0724,-150.5001"/>
</g>
<!-- TsPaginationModule -->
<g id="node8" class="node">
<title>TsPaginationModule</title>
<polygon fill="#8dd3c7" stroke="#000000" points="1311.9313,-122 1308.9313,-126 1287.9313,-126 1284.9313,-122 1178.0687,-122 1178.0687,-86 1311.9313,-86 1311.9313,-122"/>
<text text-anchor="middle" x="1245" y="-99.8" font-family="Times,serif" font-size="14.00" fill="#000000">TsPaginationModule</text>
</g>
<!-- TsPaginationModule&#45;&gt;TerminusUIModule -->
<g id="edge8" class="edge">
<title>TsPaginationModule&#45;&gt;TerminusUIModule</title>
<path fill="none" stroke="#000000" d="M1178.1165,-104C1172.616,-104 1169.1132,-104 1169.1132,-104 1169.1132,-104 1169.1132,-140.8939 1169.1132,-140.8939"/>
<polygon fill="#000000" stroke="#000000" points="1165.6133,-140.8938 1169.1132,-150.8939 1172.6133,-140.8939 1165.6133,-140.8938"/>
</g>
<!-- TsCopyModule -->
<g id="node9" class="node">
<title>TsCopyModule</title>
<polygon fill="#8dd3c7" stroke="#000000" points="1159.8837,-122 1156.8837,-126 1135.8837,-126 1132.8837,-122 1056.1163,-122 1056.1163,-86 1159.8837,-86 1159.8837,-122"/>
<text text-anchor="middle" x="1108" y="-99.8" font-family="Times,serif" font-size="14.00" fill="#000000">TsCopyModule</text>
</g>
<!-- TsCopyModule&#45;&gt;TerminusUIModule -->
<g id="edge9" class="edge">
<title>TsCopyModule&#45;&gt;TerminusUIModule</title>
<path fill="none" stroke="#000000" d="M1108.4783,-122.1061C1108.4783,-122.1061 1108.4783,-140.991 1108.4783,-140.991"/>
<polygon fill="#000000" stroke="#000000" points="1104.9783,-140.9909 1108.4783,-150.991 1111.9783,-140.991 1104.9783,-140.9909"/>
</g>
<!-- TsTooltipModule -->
<g id="node10" class="node">
<title>TsTooltipModule</title>
<polygon fill="#8dd3c7" stroke="#000000" points="1038.2716,-122 1035.2716,-126 1014.2716,-126 1011.2716,-122 923.7284,-122 923.7284,-86 1038.2716,-86 1038.2716,-122"/>
<text text-anchor="middle" x="981" y="-99.8" font-family="Times,serif" font-size="14.00" fill="#000000">TsTooltipModule</text>
</g>
<!-- TsTooltipModule&#45;&gt;TerminusUIModule -->
<g id="edge10" class="edge">
<title>TsTooltipModule&#45;&gt;TerminusUIModule</title>
<path fill="none" stroke="#000000" d="M1033.2607,-122.0511C1033.2607,-136.373 1033.2607,-154 1033.2607,-154 1033.2607,-154 1046.7732,-154 1046.7732,-154"/>
<polygon fill="#000000" stroke="#000000" points="1046.7733,-157.5001 1056.7732,-154 1046.7732,-150.5001 1046.7733,-157.5001"/>
</g>
<!-- TsDatepickerModule -->
<g id="node11" class="node">
<title>TsDatepickerModule</title>
<polygon fill="#8dd3c7" stroke="#000000" points="905.4538,-122 902.4538,-126 881.4538,-126 878.4538,-122 770.5462,-122 770.5462,-86 905.4538,-86 905.4538,-122"/>
<text text-anchor="middle" x="838" y="-99.8" font-family="Times,serif" font-size="14.00" fill="#000000">TsDatepickerModule</text>
</g>
<!-- TsDatepickerModule&#45;&gt;TerminusUIModule -->
<g id="edge11" class="edge">
<title>TsDatepickerModule&#45;&gt;TerminusUIModule</title>
<path fill="none" stroke="#000000" d="M898.8519,-122.1871C898.8519,-137.1824 898.8519,-156 898.8519,-156 898.8519,-156 1046.7456,-156 1046.7456,-156"/>
<polygon fill="#000000" stroke="#000000" points="1046.7456,-159.5001 1056.7456,-156 1046.7455,-152.5001 1046.7456,-159.5001"/>
</g>
<!-- TsDateRangeModule -->
<g id="node12" class="node">
<title>TsDateRangeModule</title>
<polygon fill="#8dd3c7" stroke="#000000" points="752.7395,-122 749.7395,-126 728.7395,-126 725.7395,-122 617.2605,-122 617.2605,-86 752.7395,-86 752.7395,-122"/>
<text text-anchor="middle" x="685" y="-99.8" font-family="Times,serif" font-size="14.00" fill="#000000">TsDateRangeModule</text>
</g>
<!-- TsDateRangeModule&#45;&gt;TerminusUIModule -->
<g id="edge12" class="edge">
<title>TsDateRangeModule&#45;&gt;TerminusUIModule</title>
<path fill="none" stroke="#000000" d="M744.2446,-122.0091C744.2446,-138.0494 744.2446,-159 744.2446,-159 744.2446,-159 1046.6615,-159 1046.6615,-159"/>
<polygon fill="#000000" stroke="#000000" points="1046.6616,-162.5001 1056.6615,-159 1046.6615,-155.5001 1046.6616,-162.5001"/>
</g>
<!-- TsSpacingModule -->
<g id="node13" class="node">
<title>TsSpacingModule</title>
<polygon fill="#8dd3c7" stroke="#000000" points="599.1499,-122 596.1499,-126 575.1499,-126 572.1499,-122 480.8501,-122 480.8501,-86 599.1499,-86 599.1499,-122"/>
<text text-anchor="middle" x="540" y="-99.8" font-family="Times,serif" font-size="14.00" fill="#000000">TsSpacingModule</text>
</g>
<!-- TsSpacingModule&#45;&gt;TerminusUIModule -->
<g id="edge13" class="edge">
<title>TsSpacingModule&#45;&gt;TerminusUIModule</title>
<path fill="none" stroke="#000000" d="M587.2276,-122.0352C587.2276,-138.7344 587.2276,-161 587.2276,-161 587.2276,-161 1046.8799,-161 1046.8799,-161"/>
<polygon fill="#000000" stroke="#000000" points="1046.8799,-164.5001 1056.8799,-161 1046.8798,-157.5001 1046.8799,-164.5001"/>
</g>
<!-- TsCheckboxModule -->
<g id="node14" class="node">
<title>TsCheckboxModule</title>
<polygon fill="#8dd3c7" stroke="#000000" points="463.3132,-122 460.3132,-126 439.3132,-126 436.3132,-122 332.6868,-122 332.6868,-86 463.3132,-86 463.3132,-122"/>
<text text-anchor="middle" x="398" y="-99.8" font-family="Times,serif" font-size="14.00" fill="#000000">TsCheckboxModule</text>
</g>
<!-- TsCheckboxModule&#45;&gt;TerminusUIModule -->
<g id="edge14" class="edge">
<title>TsCheckboxModule&#45;&gt;TerminusUIModule</title>
<path fill="none" stroke="#000000" d="M459.5409,-122.0225C459.5409,-139.3734 459.5409,-163 459.5409,-163 459.5409,-163 1046.9755,-163 1046.9755,-163"/>
<polygon fill="#000000" stroke="#000000" points="1046.9755,-166.5001 1056.9755,-163 1046.9755,-159.5001 1046.9755,-166.5001"/>
</g>
<!-- TsLoginFormModule -->
<g id="node15" class="node">
<title>TsLoginFormModule</title>
<polygon fill="#8dd3c7" stroke="#000000" points="314.8244,-122 311.8244,-126 290.8244,-126 287.8244,-122 177.1756,-122 177.1756,-86 314.8244,-86 314.8244,-122"/>
<text text-anchor="middle" x="246" y="-99.8" font-family="Times,serif" font-size="14.00" fill="#000000">TsLoginFormModule</text>
</g>
<!-- TsLoginFormModule&#45;&gt;TerminusUIModule -->
<g id="edge15" class="edge">
<title>TsLoginFormModule&#45;&gt;TerminusUIModule</title>
<path fill="none" stroke="#000000" d="M309.3778,-122.2667C309.3778,-140.5552 309.3778,-166 309.3778,-166 309.3778,-166 1046.9745,-166 1046.9745,-166"/>
<polygon fill="#000000" stroke="#000000" points="1046.9746,-169.5001 1056.9745,-166 1046.9745,-162.5001 1046.9746,-169.5001"/>
</g>
<!-- TsLinkModule -->
<g id="node16" class="node">
<title>TsLinkModule</title>
<polygon fill="#8dd3c7" stroke="#000000" points="158.9902,-122 155.9902,-126 134.9902,-126 131.9902,-122 59.0098,-122 59.0098,-86 158.9902,-86 158.9902,-122"/>
<text text-anchor="middle" x="109" y="-99.8" font-family="Times,serif" font-size="14.00" fill="#000000">TsLinkModule</text>
</g>
<!-- TsLinkModule&#45;&gt;TerminusUIModule -->
<g id="edge16" class="edge">
<title>TsLinkModule&#45;&gt;TerminusUIModule</title>
<path fill="none" stroke="#000000" d="M152.2916,-122.1686C152.2916,-141.0898 152.2916,-168 152.2916,-168 152.2916,-168 1046.6901,-168 1046.6901,-168"/>
<polygon fill="#000000" stroke="#000000" points="1046.6902,-171.5001 1056.6901,-168 1046.6901,-164.5001 1046.6902,-171.5001"/>
</g>
<!-- TsButtonModule  -->
<g id="node18" class="node">
<title>TsButtonModule </title>
<polygon fill="#fb8072" stroke="#000000" points="2299.6649,-252 2184.3351,-252 2184.3351,-216 2299.6649,-216 2299.6649,-252"/>
<text text-anchor="middle" x="2242" y="-229.8" font-family="Times,serif" font-size="14.00" fill="#000000">TsButtonModule </text>
</g>
<!-- TerminusUIModule&#45;&gt;TsButtonModule  -->
<g id="edge17" class="edge">
<title>TerminusUIModule&#45;&gt;TsButtonModule </title>
<path fill="none" stroke="#000000" stroke-dasharray="5,2" d="M1185.0773,-171C1421.4857,-171 2231.125,-171 2231.125,-171 2231.125,-171 2231.125,-205.7778 2231.125,-205.7778"/>
<polygon fill="#000000" stroke="#000000" points="2227.6251,-205.7778 2231.125,-215.7778 2234.6251,-205.7778 2227.6251,-205.7778"/>
</g>
<!-- TsInputModule  -->
<g id="node19" class="node">
<title>TsInputModule </title>
<polygon fill="#fb8072" stroke="#000000" points="2166.099,-252 2059.901,-252 2059.901,-216 2166.099,-216 2166.099,-252"/>
<text text-anchor="middle" x="2113" y="-229.8" font-family="Times,serif" font-size="14.00" fill="#000000">TsInputModule </text>
</g>
<!-- TerminusUIModule&#45;&gt;TsInputModule  -->
<g id="edge18" class="edge">
<title>TerminusUIModule&#45;&gt;TsInputModule </title>
<path fill="none" stroke="#000000" stroke-dasharray="5,2" d="M1185.1263,-173C1403.4142,-173 2104.125,-173 2104.125,-173 2104.125,-173 2104.125,-205.698 2104.125,-205.698"/>
<polygon fill="#000000" stroke="#000000" points="2100.6251,-205.698 2104.125,-215.698 2107.6251,-205.698 2100.6251,-205.698"/>
</g>
<!-- TsValidationMessagesModule  -->
<g id="node20" class="node">
<title>TsValidationMessagesModule </title>
<polygon fill="#fb8072" stroke="#000000" points="2041.0679,-252 1850.9321,-252 1850.9321,-216 2041.0679,-216 2041.0679,-252"/>
<text text-anchor="middle" x="1946" y="-229.8" font-family="Times,serif" font-size="14.00" fill="#000000">TsValidationMessagesModule </text>
</g>
<!-- TerminusUIModule&#45;&gt;TsValidationMessagesModule  -->
<g id="edge19" class="edge">
<title>TerminusUIModule&#45;&gt;TsValidationMessagesModule </title>
<path fill="none" stroke="#000000" stroke-dasharray="5,2" d="M1185.1969,-175C1378.0622,-175 1939.125,-175 1939.125,-175 1939.125,-175 1939.125,-205.9775 1939.125,-205.9775"/>
<polygon fill="#000000" stroke="#000000" points="1935.6251,-205.9774 1939.125,-215.9775 1942.6251,-205.9775 1935.6251,-205.9774"/>
</g>
<!-- TsMenuModule  -->
<g id="node21" class="node">
<title>TsMenuModule </title>
<polygon fill="#fb8072" stroke="#000000" points="1832.7066,-252 1723.2934,-252 1723.2934,-216 1832.7066,-216 1832.7066,-252"/>
<text text-anchor="middle" x="1778" y="-229.8" font-family="Times,serif" font-size="14.00" fill="#000000">TsMenuModule </text>
</g>
<!-- TerminusUIModule&#45;&gt;TsMenuModule  -->
<g id="edge20" class="edge">
<title>TerminusUIModule&#45;&gt;TsMenuModule </title>
<path fill="none" stroke="#000000" stroke-dasharray="5,2" d="M1185.2637,-178C1349.6587,-178 1772.625,-178 1772.625,-178 1772.625,-178 1772.625,-205.973 1772.625,-205.973"/>
<polygon fill="#000000" stroke="#000000" points="1769.1251,-205.973 1772.625,-215.973 1776.1251,-205.973 1769.1251,-205.973"/>
</g>
<!-- TsSelectModule  -->
<g id="node22" class="node">
<title>TsSelectModule </title>
<polygon fill="#fb8072" stroke="#000000" points="1705.7549,-252 1594.2451,-252 1594.2451,-216 1705.7549,-216 1705.7549,-252"/>
<text text-anchor="middle" x="1650" y="-229.8" font-family="Times,serif" font-size="14.00" fill="#000000">TsSelectModule </text>
</g>
<!-- TerminusUIModule&#45;&gt;TsSelectModule  -->
<g id="edge21" class="edge">
<title>TerminusUIModule&#45;&gt;TsSelectModule </title>
<path fill="none" stroke="#000000" stroke-dasharray="5,2" d="M1185.0653,-180C1321.5988,-180 1628.8742,-180 1628.8742,-180 1628.8742,-180 1628.8742,-205.7181 1628.8742,-205.7181"/>
<polygon fill="#000000" stroke="#000000" points="1625.3743,-205.718 1628.8742,-215.7181 1632.3743,-205.7181 1625.3743,-205.718"/>
</g>
<!-- TsToggleModule  -->
<g id="node23" class="node">
<title>TsToggleModule </title>
<polygon fill="#fb8072" stroke="#000000" points="1576.2052,-252 1459.7948,-252 1459.7948,-216 1576.2052,-216 1576.2052,-252"/>
<text text-anchor="middle" x="1518" y="-229.8" font-family="Times,serif" font-size="14.00" fill="#000000">TsToggleModule </text>
</g>
<!-- TerminusUIModule&#45;&gt;TsToggleModule  -->
<g id="edge22" class="edge">
<title>TerminusUIModule&#45;&gt;TsToggleModule </title>
<path fill="none" stroke="#000000" stroke-dasharray="5,2" d="M1185.2606,-183C1292.7361,-183 1497.2992,-183 1497.2992,-183 1497.2992,-183 1497.2992,-205.8757 1497.2992,-205.8757"/>
<polygon fill="#000000" stroke="#000000" points="1493.7993,-205.8757 1497.2992,-215.8757 1500.7993,-205.8757 1493.7993,-205.8757"/>
</g>
<!-- TsSearchModule  -->
<g id="node24" class="node">
<title>TsSearchModule </title>
<polygon fill="#fb8072" stroke="#000000" points="1441.6341,-252 1326.3659,-252 1326.3659,-216 1441.6341,-216 1441.6341,-252"/>
<text text-anchor="middle" x="1384" y="-229.8" font-family="Times,serif" font-size="14.00" fill="#000000">TsSearchModule </text>
</g>
<!-- TerminusUIModule&#45;&gt;TsSearchModule  -->
<g id="edge23" class="edge">
<title>TerminusUIModule&#45;&gt;TsSearchModule </title>
<path fill="none" stroke="#000000" stroke-dasharray="5,2" d="M1185.3167,-185C1268.9431,-185 1404.439,-185 1404.439,-185 1404.439,-185 1404.439,-205.7542 1404.439,-205.7542"/>
<polygon fill="#000000" stroke="#000000" points="1400.9391,-205.7542 1404.439,-215.7542 1407.9391,-205.7542 1400.9391,-205.7542"/>
</g>
<!-- TsPaginationModule  -->
<g id="node25" class="node">
<title>TsPaginationModule </title>
<polygon fill="#fb8072" stroke="#000000" points="1308.4306,-252 1171.5694,-252 1171.5694,-216 1308.4306,-216 1308.4306,-252"/>
<text text-anchor="middle" x="1240" y="-229.8" font-family="Times,serif" font-size="14.00" fill="#000000">TsPaginationModule </text>
</g>
<!-- TerminusUIModule&#45;&gt;TsPaginationModule  -->
<g id="edge24" class="edge">
<title>TerminusUIModule&#45;&gt;TsPaginationModule </title>
<path fill="none" stroke="#000000" stroke-dasharray="5,2" d="M1178.26,-187.1061C1178.26,-187.1061 1178.26,-205.991 1178.26,-205.991"/>
<polygon fill="#000000" stroke="#000000" points="1174.7601,-205.9909 1178.26,-215.991 1181.7601,-205.991 1174.7601,-205.9909"/>
</g>
<!-- TsCopyModule  -->
<g id="node26" class="node">
<title>TsCopyModule </title>
<polygon fill="#fb8072" stroke="#000000" points="1153.8843,-252 1046.1157,-252 1046.1157,-216 1153.8843,-216 1153.8843,-252"/>
<text text-anchor="middle" x="1100" y="-229.8" font-family="Times,serif" font-size="14.00" fill="#000000">TsCopyModule </text>
</g>
<!-- TerminusUIModule&#45;&gt;TsCopyModule  -->
<g id="edge25" class="edge">
<title>TerminusUIModule&#45;&gt;TsCopyModule </title>
<path fill="none" stroke="#000000" stroke-dasharray="5,2" d="M1105.3533,-187.1061C1105.3533,-187.1061 1105.3533,-205.991 1105.3533,-205.991"/>
<polygon fill="#000000" stroke="#000000" points="1101.8533,-205.9909 1105.3533,-215.991 1108.8533,-205.991 1101.8533,-205.9909"/>
</g>
<!-- TsTooltipModule  -->
<g id="node27" class="node">
<title>TsTooltipModule </title>
<polygon fill="#fb8072" stroke="#000000" points="1028.2717,-252 909.7283,-252 909.7283,-216 1028.2717,-216 1028.2717,-252"/>
<text text-anchor="middle" x="969" y="-229.8" font-family="Times,serif" font-size="14.00" fill="#000000">TsTooltipModule </text>
</g>
<!-- TerminusUIModule&#45;&gt;TsTooltipModule  -->
<g id="edge26" class="edge">
<title>TerminusUIModule&#45;&gt;TsTooltipModule </title>
<path fill="none" stroke="#000000" stroke-dasharray="5,2" d="M1056.9236,-185C1018.0466,-185 975.875,-185 975.875,-185 975.875,-185 975.875,-205.7542 975.875,-205.7542"/>
<polygon fill="#000000" stroke="#000000" points="972.3751,-205.7542 975.875,-215.7542 979.3751,-205.7542 972.3751,-205.7542"/>
</g>
<!-- TsDatepickerModule  -->
<g id="node28" class="node">
<title>TsDatepickerModule </title>
<polygon fill="#fb8072" stroke="#000000" points="892.4545,-252 753.5455,-252 753.5455,-216 892.4545,-216 892.4545,-252"/>
<text text-anchor="middle" x="823" y="-229.8" font-family="Times,serif" font-size="14.00" fill="#000000">TsDatepickerModule </text>
</g>
<!-- TerminusUIModule&#45;&gt;TsDatepickerModule  -->
<g id="edge27" class="edge">
<title>TerminusUIModule&#45;&gt;TsDatepickerModule </title>
<path fill="none" stroke="#000000" stroke-dasharray="5,2" d="M1056.7228,-183C971.3969,-183 831.375,-183 831.375,-183 831.375,-183 831.375,-205.8757 831.375,-205.8757"/>
<polygon fill="#000000" stroke="#000000" points="827.8751,-205.8757 831.375,-215.8757 834.8751,-205.8757 827.8751,-205.8757"/>
</g>
<!-- TsDateRangeModule  -->
<g id="node29" class="node">
<title>TsDateRangeModule </title>
<polygon fill="#fb8072" stroke="#000000" points="735.7394,-252 596.2606,-252 596.2606,-216 735.7394,-216 735.7394,-252"/>
<text text-anchor="middle" x="666" y="-229.8" font-family="Times,serif" font-size="14.00" fill="#000000">TsDateRangeModule </text>
</g>
<!-- TerminusUIModule&#45;&gt;TsDateRangeModule  -->
<g id="edge28" class="edge">
<title>TerminusUIModule&#45;&gt;TsDateRangeModule </title>
<path fill="none" stroke="#000000" stroke-dasharray="5,2" d="M1056.8226,-180C933.6922,-180 676.375,-180 676.375,-180 676.375,-180 676.375,-205.7181 676.375,-205.7181"/>
<polygon fill="#000000" stroke="#000000" points="672.8751,-205.718 676.375,-215.7181 679.8751,-205.7181 672.8751,-205.718"/>
</g>
<!-- TsSpacingModule  -->
<g id="node30" class="node">
<title>TsSpacingModule </title>
<polygon fill="#fb8072" stroke="#000000" points="578.1495,-252 455.8505,-252 455.8505,-216 578.1495,-216 578.1495,-252"/>
<text text-anchor="middle" x="517" y="-229.8" font-family="Times,serif" font-size="14.00" fill="#000000">TsSpacingModule </text>
</g>
<!-- TerminusUIModule&#45;&gt;TsSpacingModule  -->
<g id="edge29" class="edge">
<title>TerminusUIModule&#45;&gt;TsSpacingModule </title>
<path fill="none" stroke="#000000" stroke-dasharray="5,2" d="M1056.8418,-178C903.6827,-178 529.375,-178 529.375,-178 529.375,-178 529.375,-205.973 529.375,-205.973"/>
<polygon fill="#000000" stroke="#000000" points="525.8751,-205.973 529.375,-215.973 532.8751,-205.973 525.8751,-205.973"/>
</g>
<!-- TsCheckboxModule  -->
<g id="node31" class="node">
<title>TsCheckboxModule </title>
<polygon fill="#fb8072" stroke="#000000" points="437.8129,-252 304.1871,-252 304.1871,-216 437.8129,-216 437.8129,-252"/>
<text text-anchor="middle" x="371" y="-229.8" font-family="Times,serif" font-size="14.00" fill="#000000">TsCheckboxModule </text>
</g>
<!-- TerminusUIModule&#45;&gt;TsCheckboxModule  -->
<g id="edge30" class="edge">
<title>TerminusUIModule&#45;&gt;TsCheckboxModule </title>
<path fill="none" stroke="#000000" stroke-dasharray="5,2" d="M1057.005,-175C878.0319,-175 385.375,-175 385.375,-175 385.375,-175 385.375,-205.9775 385.375,-205.9775"/>
<polygon fill="#000000" stroke="#000000" points="381.8751,-205.9774 385.375,-215.9775 388.8751,-205.9775 381.8751,-205.9774"/>
</g>
<!-- TsLoginFormModule  -->
<g id="node32" class="node">
<title>TsLoginFormModule </title>
<polygon fill="#fb8072" stroke="#000000" points="286.3241,-252 145.6759,-252 145.6759,-216 286.3241,-216 286.3241,-252"/>
<text text-anchor="middle" x="216" y="-229.8" font-family="Times,serif" font-size="14.00" fill="#000000">TsLoginFormModule </text>
</g>
<!-- TerminusUIModule&#45;&gt;TsLoginFormModule  -->
<g id="edge31" class="edge">
<title>TerminusUIModule&#45;&gt;TsLoginFormModule </title>
<path fill="none" stroke="#000000" stroke-dasharray="5,2" d="M1056.6986,-173C852.4624,-173 231.875,-173 231.875,-173 231.875,-173 231.875,-205.698 231.875,-205.698"/>
<polygon fill="#000000" stroke="#000000" points="228.3751,-205.698 231.875,-215.698 235.3751,-205.698 228.3751,-205.698"/>
</g>
<!-- TsLinkModule  -->
<g id="node33" class="node">
<title>TsLinkModule </title>
<polygon fill="#fb8072" stroke="#000000" points="127.9914,-252 24.0086,-252 24.0086,-216 127.9914,-216 127.9914,-252"/>
<text text-anchor="middle" x="76" y="-229.8" font-family="Times,serif" font-size="14.00" fill="#000000">TsLinkModule </text>
</g>
<!-- TerminusUIModule&#45;&gt;TsLinkModule  -->
<g id="edge32" class="edge">
<title>TerminusUIModule&#45;&gt;TsLinkModule </title>
<path fill="none" stroke="#000000" stroke-dasharray="5,2" d="M1056.7175,-171C831.7453,-171 93.375,-171 93.375,-171 93.375,-171 93.375,-205.7778 93.375,-205.7778"/>
<polygon fill="#000000" stroke="#000000" points="89.8751,-205.7778 93.375,-215.7778 96.8751,-205.7778 89.8751,-205.7778"/>
</g>
</g>
</svg>
