<?xml version="1.0" encoding="UTF-8" standalone="no"?>
<!DOCTYPE svg PUBLIC "-//W3C//DTD SVG 1.1//EN"
 "http://www.w3.org/Graphics/SVG/1.1/DTD/svg11.dtd">
<!-- Generated by graphviz version 2.40.1 (20161225.0304)
 -->
<!-- Title: dependencies Pages: 1 -->
<svg width="733pt" height="284pt"
 viewBox="0.00 0.00 733.00 284.00" xmlns="http://www.w3.org/2000/svg" xmlns:xlink="http://www.w3.org/1999/xlink">
<g id="graph0" class="graph" transform="scale(1 1) rotate(0) translate(4 280)">
<title>dependencies</title>
<polygon fill="#ffffff" stroke="transparent" points="-4,4 -4,-280 729,-280 729,4 -4,4"/>
<text text-anchor="start" x="341.5091" y="-42.4" font-family="sans-serif" font-weight="bold" font-size="14.00" fill="#000000">Legend</text>
<polygon fill="#ffffb3" stroke="transparent" points="128.5,-10 128.5,-30 148.5,-30 148.5,-10 128.5,-10"/>
<text text-anchor="start" x="152.129" y="-15.4" font-family="sans-serif" font-size="14.00" fill="#000000"> &#160;Declarations</text>
<polygon fill="#8dd3c7" stroke="transparent" points="241.5,-10 241.5,-30 261.5,-30 261.5,-10 241.5,-10"/>
<text text-anchor="start" x="265.2251" y="-15.4" font-family="sans-serif" font-size="14.00" fill="#000000"> &#160;Module</text>
<polygon fill="#80b1d3" stroke="transparent" points="327.5,-10 327.5,-30 347.5,-30 347.5,-10 327.5,-10"/>
<text text-anchor="start" x="351.2812" y="-15.4" font-family="sans-serif" font-size="14.00" fill="#000000"> &#160;Bootstrap</text>
<polygon fill="#fdb462" stroke="transparent" points="424.5,-10 424.5,-30 444.5,-30 444.5,-10 424.5,-10"/>
<text text-anchor="start" x="448.1732" y="-15.4" font-family="sans-serif" font-size="14.00" fill="#000000"> &#160;Providers</text>
<polygon fill="#fb8072" stroke="transparent" points="520.5,-10 520.5,-30 540.5,-30 540.5,-10 520.5,-10"/>
<text text-anchor="start" x="544.2258" y="-15.4" font-family="sans-serif" font-size="14.00" fill="#000000"> &#160;Exports</text>
<g id="clust1" class="cluster">
<title>cluster_TsInputMessagesModule</title>
<polygon fill="none" stroke="#000000" stroke-dasharray="1,5" points="8,-70 8,-268 717,-268 717,-70 8,-70"/>
</g>
<g id="clust2" class="cluster">
<title>cluster_TsInputMessagesModule_declarations</title>
<polygon fill="none" stroke="#000000" points="513,-78 513,-130 709,-130 709,-78 513,-78"/>
</g>
<g id="clust4" class="cluster">
<title>cluster_TsInputMessagesModule_imports</title>
<polygon fill="none" stroke="#000000" points="16,-78 16,-130 505,-130 505,-78 16,-78"/>
</g>
<g id="clust5" class="cluster">
<title>cluster_TsInputMessagesModule_exports</title>
<polygon fill="none" stroke="#000000" points="221,-208 221,-260 419,-260 419,-208 221,-208"/>
</g>
<!-- TsInputMessagesComponent -->
<g id="node1" class="node">
<title>TsInputMessagesComponent</title>
<polygon fill="#ffffb3" stroke="#000000" points="700.8033,-122 521.1967,-122 521.1967,-86 700.8033,-86 700.8033,-122"/>
<text text-anchor="middle" x="611" y="-99.8" font-family="Times,serif" font-size="14.00" fill="#000000">TsInputMessagesComponent</text>
</g>
<!-- TsInputMessagesModule -->
<g id="node2" class="node">
<title>TsInputMessagesModule</title>
<polygon fill="#8dd3c7" stroke="#000000" points="398.5211,-187 395.5211,-191 374.5211,-191 371.5211,-187 241.4789,-187 241.4789,-151 398.5211,-151 398.5211,-187"/>
<text text-anchor="middle" x="320" y="-164.8" font-family="Times,serif" font-size="14.00" fill="#000000">TsInputMessagesModule</text>
</g>
<!-- TsInputMessagesComponent&#45;&gt;TsInputMessagesModule -->
<g id="edge1" class="edge">
<title>TsInputMessagesComponent&#45;&gt;TsInputMessagesModule</title>
<path fill="none" stroke="#000000" d="M611,-122.1061C611,-141.3391 611,-169 611,-169 611,-169 408.7488,-169 408.7488,-169"/>
<polygon fill="#000000" stroke="#000000" points="408.7488,-165.5001 398.7488,-169 408.7488,-172.5001 408.7488,-165.5001"/>
</g>
<!-- TsInputMessagesComponent  -->
<g id="node7" class="node">
<title>TsInputMessagesComponent </title>
<polygon fill="#fb8072" stroke="#000000" points="411.3031,-252 228.6969,-252 228.6969,-216 411.3031,-216 411.3031,-252"/>
<text text-anchor="middle" x="320" y="-229.8" font-family="Times,serif" font-size="14.00" fill="#000000">TsInputMessagesComponent </text>
</g>
<!-- TsInputMessagesModule&#45;&gt;TsInputMessagesComponent  -->
<g id="edge6" class="edge">
<title>TsInputMessagesModule&#45;&gt;TsInputMessagesComponent </title>
<path fill="none" stroke="#000000" stroke-dasharray="5,2" d="M320,-187.1061C320,-187.1061 320,-205.991 320,-205.991"/>
<polygon fill="#000000" stroke="#000000" points="316.5001,-205.9909 320,-215.991 323.5001,-205.991 316.5001,-205.9909"/>
</g>
<!-- CommonModule -->
<g id="node3" class="node">
<title>CommonModule</title>
<polygon fill="#8dd3c7" stroke="#000000" points="496.6681,-122 493.6681,-126 472.6681,-126 469.6681,-122 385.3319,-122 385.3319,-86 496.6681,-86 496.6681,-122"/>
<text text-anchor="middle" x="441" y="-99.8" font-family="Times,serif" font-size="14.00" fill="#000000">CommonModule</text>
</g>
<!-- CommonModule&#45;&gt;TsInputMessagesModule -->
<g id="edge2" class="edge">
<title>CommonModule&#45;&gt;TsInputMessagesModule</title>
<path fill="none" stroke="#000000" d="M391.9632,-122.1061C391.9632,-122.1061 391.9632,-140.991 391.9632,-140.991"/>
<polygon fill="#000000" stroke="#000000" points="388.4633,-140.9909 391.9632,-150.991 395.4633,-140.991 388.4633,-140.9909"/>
</g>
<!-- FormsModule -->
<g id="node4" class="node">
<title>FormsModule</title>
<polygon fill="#8dd3c7" stroke="#000000" points="367.8288,-122 364.8288,-126 343.8288,-126 340.8288,-122 272.1712,-122 272.1712,-86 367.8288,-86 367.8288,-122"/>
<text text-anchor="middle" x="320" y="-99.8" font-family="Times,serif" font-size="14.00" fill="#000000">FormsModule</text>
</g>
<!-- FormsModule&#45;&gt;TsInputMessagesModule -->
<g id="edge3" class="edge">
<title>FormsModule&#45;&gt;TsInputMessagesModule</title>
<path fill="none" stroke="#000000" d="M320,-122.1061C320,-122.1061 320,-140.991 320,-140.991"/>
<polygon fill="#000000" stroke="#000000" points="316.5001,-140.9909 320,-150.991 323.5001,-140.991 316.5001,-140.9909"/>
</g>
<!-- MdInputModule -->
<g id="node5" class="node">
<title>MdInputModule</title>
<polygon fill="#8dd3c7" stroke="#000000" points="254.0465,-122 251.0465,-126 230.0465,-126 227.0465,-122 145.9535,-122 145.9535,-86 254.0465,-86 254.0465,-122"/>
<text text-anchor="middle" x="200" y="-99.8" font-family="Times,serif" font-size="14.00" fill="#000000">MdInputModule</text>
</g>
<!-- MdInputModule&#45;&gt;TsInputMessagesModule -->
<g id="edge4" class="edge">
<title>MdInputModule&#45;&gt;TsInputMessagesModule</title>
<path fill="none" stroke="#000000" d="M247.7563,-122.1061C247.7563,-122.1061 247.7563,-140.991 247.7563,-140.991"/>
<polygon fill="#000000" stroke="#000000" points="244.2564,-140.9909 247.7563,-150.991 251.2564,-140.991 244.2564,-140.9909"/>
</g>
<!-- MdIconModule -->
<g id="node6" class="node">
<title>MdIconModule</title>
<polygon fill="#8dd3c7" stroke="#000000" points="127.8697,-122 124.8697,-126 103.8697,-126 100.8697,-122 24.1303,-122 24.1303,-86 127.8697,-86 127.8697,-122"/>
<text text-anchor="middle" x="76" y="-99.8" font-family="Times,serif" font-size="14.00" fill="#000000">MdIconModule</text>
</g>
<!-- MdIconModule&#45;&gt;TsInputMessagesModule -->
<g id="edge5" class="edge">
<title>MdIconModule&#45;&gt;TsInputMessagesModule</title>
<path fill="none" stroke="#000000" d="M76,-122.1061C76,-141.3391 76,-169 76,-169 76,-169 231.4538,-169 231.4538,-169"/>
<polygon fill="#000000" stroke="#000000" points="231.4538,-172.5001 241.4538,-169 231.4537,-165.5001 231.4538,-172.5001"/>
</g>
</g>
</svg>
