<?xml version="1.0" encoding="UTF-8" standalone="no"?>
<!DOCTYPE svg PUBLIC "-//W3C//DTD SVG 1.1//EN"
 "http://www.w3.org/Graphics/SVG/1.1/DTD/svg11.dtd">
<!-- Generated by graphviz version 2.40.1 (20161225.0304)
 -->
<!-- Title: dependencies Pages: 1 -->
<svg width="853pt" height="349pt"
 viewBox="0.00 0.00 853.00 349.00" xmlns="http://www.w3.org/2000/svg" xmlns:xlink="http://www.w3.org/1999/xlink">
<g id="graph0" class="graph" transform="scale(1 1) rotate(0) translate(4 345)">
<title>dependencies</title>
<polygon fill="#ffffff" stroke="transparent" points="-4,4 -4,-345 849,-345 849,4 -4,4"/>
<text text-anchor="start" x="401.5091" y="-42.4" font-family="sans-serif" font-weight="bold" font-size="14.00" fill="#000000">Legend</text>
<polygon fill="#ffffb3" stroke="transparent" points="188.5,-10 188.5,-30 208.5,-30 208.5,-10 188.5,-10"/>
<text text-anchor="start" x="212.129" y="-15.4" font-family="sans-serif" font-size="14.00" fill="#000000"> &#160;Declarations</text>
<polygon fill="#8dd3c7" stroke="transparent" points="301.5,-10 301.5,-30 321.5,-30 321.5,-10 301.5,-10"/>
<text text-anchor="start" x="325.2251" y="-15.4" font-family="sans-serif" font-size="14.00" fill="#000000"> &#160;Module</text>
<polygon fill="#80b1d3" stroke="transparent" points="387.5,-10 387.5,-30 407.5,-30 407.5,-10 387.5,-10"/>
<text text-anchor="start" x="411.2812" y="-15.4" font-family="sans-serif" font-size="14.00" fill="#000000"> &#160;Bootstrap</text>
<polygon fill="#fdb462" stroke="transparent" points="484.5,-10 484.5,-30 504.5,-30 504.5,-10 484.5,-10"/>
<text text-anchor="start" x="508.1732" y="-15.4" font-family="sans-serif" font-size="14.00" fill="#000000"> &#160;Providers</text>
<polygon fill="#fb8072" stroke="transparent" points="580.5,-10 580.5,-30 600.5,-30 600.5,-10 580.5,-10"/>
<text text-anchor="start" x="604.2258" y="-15.4" font-family="sans-serif" font-size="14.00" fill="#000000"> &#160;Exports</text>
<g id="clust1" class="cluster">
<title>cluster_TsInputModule</title>
<polygon fill="none" stroke="#000000" stroke-dasharray="1,5" points="8,-70 8,-333 837,-333 837,-70 8,-70"/>
</g>
<g id="clust2" class="cluster">
<title>cluster_TsInputModule_declarations</title>
<polygon fill="none" stroke="#000000" points="689,-143 689,-195 829,-195 829,-143 689,-143"/>
</g>
<g id="clust3" class="cluster">
<title>cluster_TsInputModule_TsInputComponent_providers</title>
<polygon fill="none" stroke="#000000" points="161,-78 161,-130 829,-130 829,-78 161,-78"/>
</g>
<g id="clust4" class="cluster">
<title>cluster_TsInputModule_imports</title>
<polygon fill="none" stroke="#000000" points="16,-143 16,-195 681,-195 681,-143 16,-143"/>
</g>
<g id="clust5" class="cluster">
<title>cluster_TsInputModule_exports</title>
<polygon fill="none" stroke="#000000" points="364,-273 364,-325 508,-325 508,-273 364,-273"/>
</g>
<!-- TsInputComponent -->
<g id="node1" class="node">
<title>TsInputComponent</title>
<polygon fill="#ffffb3" stroke="#000000" points="821.3809,-187 696.6191,-187 696.6191,-151 821.3809,-151 821.3809,-187"/>
<text text-anchor="middle" x="759" y="-164.8" font-family="Times,serif" font-size="14.00" fill="#000000">TsInputComponent</text>
</g>
<!-- TsInputModule -->
<g id="node2" class="node">
<title>TsInputModule</title>
<polygon fill="#8dd3c7" stroke="#000000" points="487.5982,-252 484.5982,-256 463.5982,-256 460.5982,-252 384.4018,-252 384.4018,-216 487.5982,-216 487.5982,-252"/>
<text text-anchor="middle" x="436" y="-229.8" font-family="Times,serif" font-size="14.00" fill="#000000">TsInputModule</text>
</g>
<!-- TsInputComponent&#45;&gt;TsInputModule -->
<g id="edge1" class="edge">
<title>TsInputComponent&#45;&gt;TsInputModule</title>
<path fill="none" stroke="#000000" d="M759,-187.2843C759,-208.3211 759,-240 759,-240 759,-240 497.8955,-240 497.8955,-240"/>
<polygon fill="#000000" stroke="#000000" points="497.8956,-236.5001 487.8955,-240 497.8955,-243.5001 497.8956,-236.5001"/>
</g>
<!-- TsInputComponent  -->
<g id="node9" class="node">
<title>TsInputComponent </title>
<polygon fill="#fb8072" stroke="#000000" points="500.3814,-317 371.6186,-317 371.6186,-281 500.3814,-281 500.3814,-317"/>
<text text-anchor="middle" x="436" y="-294.8" font-family="Times,serif" font-size="14.00" fill="#000000">TsInputComponent </text>
</g>
<!-- TsInputModule&#45;&gt;TsInputComponent  -->
<g id="edge8" class="edge">
<title>TsInputModule&#45;&gt;TsInputComponent </title>
<path fill="none" stroke="#000000" stroke-dasharray="5,2" d="M436,-252.1061C436,-252.1061 436,-270.991 436,-270.991"/>
<polygon fill="#000000" stroke="#000000" points="432.5001,-270.9909 436,-280.991 439.5001,-270.991 432.5001,-270.9909"/>
</g>
<!-- { provide: NG_VALUE_ACCESSOR, useExisting: TsInputComponent, multi: &#160;} -->
<g id="node3" class="node">
<title>{ provide: NG_VALUE_ACCESSOR, useExisting: TsInputComponent, multi: &#160;}</title>
<ellipse fill="#fdb462" stroke="#000000" cx="495" cy="-104" rx="326.2063" ry="18"/>
<text text-anchor="middle" x="495" y="-99.8" font-family="Times,serif" font-size="14.00" fill="#000000">{ provide: NG_VALUE_ACCESSOR, useExisting: TsInputComponent, multi: &#160;}</text>
</g>
<!-- { provide: NG_VALUE_ACCESSOR, useExisting: TsInputComponent, multi: &#160;}&#45;&gt;TsInputComponent -->
<g id="edge2" class="edge">
<title>{ provide: NG_VALUE_ACCESSOR, useExisting: TsInputComponent, multi: &#160;}&#45;&gt;TsInputComponent</title>
<path fill="none" stroke="#000000" d="M758.9564,-114.7334C758.9564,-114.7334 758.9564,-140.8723 758.9564,-140.8723"/>
<polygon fill="#000000" stroke="#000000" points="755.4565,-140.8722 758.9564,-150.8723 762.4565,-140.8723 755.4565,-140.8722"/>
</g>
<!-- CommonModule -->
<g id="node4" class="node">
<title>CommonModule</title>
<polygon fill="#8dd3c7" stroke="#000000" points="672.6681,-187 669.6681,-191 648.6681,-191 645.6681,-187 561.3319,-187 561.3319,-151 672.6681,-151 672.6681,-187"/>
<text text-anchor="middle" x="617" y="-164.8" font-family="Times,serif" font-size="14.00" fill="#000000">CommonModule</text>
</g>
<!-- CommonModule&#45;&gt;TsInputModule -->
<g id="edge3" class="edge">
<title>CommonModule&#45;&gt;TsInputModule</title>
<path fill="none" stroke="#000000" d="M617,-187.0225C617,-204.3734 617,-228 617,-228 617,-228 497.8673,-228 497.8673,-228"/>
<polygon fill="#000000" stroke="#000000" points="497.8674,-224.5001 487.8673,-228 497.8673,-231.5001 497.8674,-224.5001"/>
</g>
<!-- FormsModule -->
<g id="node5" class="node">
<title>FormsModule</title>
<polygon fill="#8dd3c7" stroke="#000000" points="543.8288,-187 540.8288,-191 519.8288,-191 516.8288,-187 448.1712,-187 448.1712,-151 543.8288,-151 543.8288,-187"/>
<text text-anchor="middle" x="496" y="-164.8" font-family="Times,serif" font-size="14.00" fill="#000000">FormsModule</text>
</g>
<!-- FormsModule&#45;&gt;TsInputModule -->
<g id="edge4" class="edge">
<title>FormsModule&#45;&gt;TsInputModule</title>
<path fill="none" stroke="#000000" d="M467.9425,-187.1061C467.9425,-187.1061 467.9425,-205.991 467.9425,-205.991"/>
<polygon fill="#000000" stroke="#000000" points="464.4426,-205.9909 467.9425,-215.991 471.4426,-205.991 464.4426,-205.9909"/>
</g>
<!-- MdInputModule -->
<g id="node6" class="node">
<title>MdInputModule</title>
<polygon fill="#8dd3c7" stroke="#000000" points="430.0465,-187 427.0465,-191 406.0465,-191 403.0465,-187 321.9535,-187 321.9535,-151 430.0465,-151 430.0465,-187"/>
<text text-anchor="middle" x="376" y="-164.8" font-family="Times,serif" font-size="14.00" fill="#000000">MdInputModule</text>
</g>
<!-- MdInputModule&#45;&gt;TsInputModule -->
<g id="edge5" class="edge">
<title>MdInputModule&#45;&gt;TsInputModule</title>
<path fill="none" stroke="#000000" d="M407.3619,-187.1061C407.3619,-187.1061 407.3619,-205.991 407.3619,-205.991"/>
<polygon fill="#000000" stroke="#000000" points="403.8619,-205.9909 407.3619,-215.991 410.8619,-205.991 403.8619,-205.9909"/>
</g>
<!-- MdIconModule -->
<g id="node7" class="node">
<title>MdIconModule</title>
<polygon fill="#8dd3c7" stroke="#000000" points="303.8697,-187 300.8697,-191 279.8697,-191 276.8697,-187 200.1303,-187 200.1303,-151 303.8697,-151 303.8697,-187"/>
<text text-anchor="middle" x="252" y="-164.8" font-family="Times,serif" font-size="14.00" fill="#000000">MdIconModule</text>
</g>
<!-- MdIconModule&#45;&gt;TsInputModule -->
<g id="edge6" class="edge">
<title>MdIconModule&#45;&gt;TsInputModule</title>
<path fill="none" stroke="#000000" d="M252,-187.0225C252,-204.3734 252,-228 252,-228 252,-228 374.2561,-228 374.2561,-228"/>
<polygon fill="#000000" stroke="#000000" points="374.2561,-231.5001 384.2561,-228 374.256,-224.5001 374.2561,-231.5001"/>
</g>
<!-- TsInputMessagesModule -->
<g id="node8" class="node">
<title>TsInputMessagesModule</title>
<polygon fill="#8dd3c7" stroke="#000000" points="181.5211,-187 178.5211,-191 157.5211,-191 154.5211,-187 24.4789,-187 24.4789,-151 181.5211,-151 181.5211,-187"/>
<text text-anchor="middle" x="103" y="-164.8" font-family="Times,serif" font-size="14.00" fill="#000000">TsInputMessagesModule</text>
</g>
<!-- TsInputMessagesModule&#45;&gt;TsInputModule -->
<g id="edge7" class="edge">
<title>TsInputMessagesModule&#45;&gt;TsInputModule</title>
<path fill="none" stroke="#000000" d="M103,-187.2843C103,-208.3211 103,-240 103,-240 103,-240 374.3341,-240 374.3341,-240"/>
<polygon fill="#000000" stroke="#000000" points="374.3342,-243.5001 384.3341,-240 374.3341,-236.5001 374.3342,-243.5001"/>
</g>
</g>
</svg>
