<?xml version="1.0" encoding="UTF-8" standalone="no"?>
<!DOCTYPE svg PUBLIC "-//W3C//DTD SVG 1.1//EN"
 "http://www.w3.org/Graphics/SVG/1.1/DTD/svg11.dtd">
<!-- Generated by graphviz version 2.40.1 (20161225.0304)
 -->
<!-- Title: dependencies Pages: 1 -->
<svg width="862pt" height="349pt"
 viewBox="0.00 0.00 862.00 349.00" xmlns="http://www.w3.org/2000/svg" xmlns:xlink="http://www.w3.org/1999/xlink">
<g id="graph0" class="graph" transform="scale(1 1) rotate(0) translate(4 345)">
<title>dependencies</title>
<polygon fill="#ffffff" stroke="transparent" points="-4,4 -4,-345 858,-345 858,4 -4,4"/>
<text text-anchor="start" x="406.0091" y="-42.4" font-family="sans-serif" font-weight="bold" font-size="14.00" fill="#000000">Legend</text>
<polygon fill="#ffffb3" stroke="transparent" points="193,-10 193,-30 213,-30 213,-10 193,-10"/>
<text text-anchor="start" x="216.629" y="-15.4" font-family="sans-serif" font-size="14.00" fill="#000000"> &#160;Declarations</text>
<polygon fill="#8dd3c7" stroke="transparent" points="306,-10 306,-30 326,-30 326,-10 306,-10"/>
<text text-anchor="start" x="329.7251" y="-15.4" font-family="sans-serif" font-size="14.00" fill="#000000"> &#160;Module</text>
<polygon fill="#80b1d3" stroke="transparent" points="392,-10 392,-30 412,-30 412,-10 392,-10"/>
<text text-anchor="start" x="415.7812" y="-15.4" font-family="sans-serif" font-size="14.00" fill="#000000"> &#160;Bootstrap</text>
<polygon fill="#fdb462" stroke="transparent" points="489,-10 489,-30 509,-30 509,-10 489,-10"/>
<text text-anchor="start" x="512.6732" y="-15.4" font-family="sans-serif" font-size="14.00" fill="#000000"> &#160;Providers</text>
<polygon fill="#fb8072" stroke="transparent" points="585,-10 585,-30 605,-30 605,-10 585,-10"/>
<text text-anchor="start" x="608.7258" y="-15.4" font-family="sans-serif" font-size="14.00" fill="#000000"> &#160;Exports</text>
<g id="clust1" class="cluster">
<title>cluster_TsInputModule</title>
<polygon fill="none" stroke="#000000" stroke-dasharray="1,5" points="8,-70 8,-333 846,-333 846,-70 8,-70"/>
</g>
<g id="clust2" class="cluster">
<title>cluster_TsInputModule_declarations</title>
<polygon fill="none" stroke="#000000" points="698,-143 698,-195 838,-195 838,-143 698,-143"/>
</g>
<g id="clust3" class="cluster">
<title>cluster_TsInputModule_TsInputComponent_providers</title>
<polygon fill="none" stroke="#000000" points="368,-78 368,-130 838,-130 838,-78 368,-78"/>
</g>
<g id="clust4" class="cluster">
<title>cluster_TsInputModule_imports</title>
<polygon fill="none" stroke="#000000" points="220,-143 220,-195 690,-195 690,-143 220,-143"/>
</g>
<g id="clust5" class="cluster">
<title>cluster_TsInputModule_exports</title>
<polygon fill="none" stroke="#000000" points="411,-273 411,-325 555,-325 555,-273 411,-273"/>
</g>
<g id="clust7" class="cluster">
<title>cluster_TsInputModule_providers</title>
<polygon fill="none" stroke="#000000" points="16,-143 16,-195 212,-195 212,-143 16,-143"/>
</g>
<!-- TsInputComponent -->
<g id="node1" class="node">
<title>TsInputComponent</title>
<polygon fill="#ffffb3" stroke="#000000" points="830.3809,-187 705.6191,-187 705.6191,-151 830.3809,-151 830.3809,-187"/>
<text text-anchor="middle" x="768" y="-164.8" font-family="Times,serif" font-size="14.00" fill="#000000">TsInputComponent</text>
</g>
<!-- TsInputModule -->
<g id="node2" class="node">
<title>TsInputModule</title>
<polygon fill="#8dd3c7" stroke="#000000" points="534.5982,-252 531.5982,-256 510.5982,-256 507.5982,-252 431.4018,-252 431.4018,-216 534.5982,-216 534.5982,-252"/>
<text text-anchor="middle" x="483" y="-229.8" font-family="Times,serif" font-size="14.00" fill="#000000">TsInputModule</text>
</g>
<!-- TsInputComponent&#45;&gt;TsInputModule -->
<g id="edge1" class="edge">
<title>TsInputComponent&#45;&gt;TsInputModule</title>
<path fill="none" stroke="#000000" d="M768,-187.2843C768,-208.3211 768,-240 768,-240 768,-240 544.6113,-240 544.6113,-240"/>
<polygon fill="#000000" stroke="#000000" points="544.6114,-236.5001 534.6113,-240 544.6113,-243.5001 544.6114,-236.5001"/>
</g>
<!-- TsInputComponent  -->
<g id="node7" class="node">
<title>TsInputComponent </title>
<polygon fill="#fb8072" stroke="#000000" points="547.3814,-317 418.6186,-317 418.6186,-281 547.3814,-281 547.3814,-317"/>
<text text-anchor="middle" x="483" y="-294.8" font-family="Times,serif" font-size="14.00" fill="#000000">TsInputComponent </text>
</g>
<!-- TsInputModule&#45;&gt;TsInputComponent  -->
<g id="edge6" class="edge">
<title>TsInputModule&#45;&gt;TsInputComponent </title>
<path fill="none" stroke="#000000" stroke-dasharray="5,2" d="M483,-252.1061C483,-252.1061 483,-270.991 483,-270.991"/>
<polygon fill="#000000" stroke="#000000" points="479.5001,-270.9909 483,-280.991 486.5001,-270.991 479.5001,-270.9909"/>
</g>
<!-- CUSTOM_INPUT_CONTROL_VALUE_ACCESSOR -->
<g id="node3" class="node">
<title>CUSTOM_INPUT_CONTROL_VALUE_ACCESSOR</title>
<ellipse fill="#fdb462" stroke="#000000" cx="603" cy="-104" rx="227.432" ry="18"/>
<text text-anchor="middle" x="603" y="-99.8" font-family="Times,serif" font-size="14.00" fill="#000000">CUSTOM_INPUT_CONTROL_VALUE_ACCESSOR</text>
</g>
<!-- CUSTOM_INPUT_CONTROL_VALUE_ACCESSOR&#45;&gt;TsInputComponent -->
<g id="edge2" class="edge">
<title>CUSTOM_INPUT_CONTROL_VALUE_ACCESSOR&#45;&gt;TsInputComponent</title>
<path fill="none" stroke="#000000" d="M767.8878,-116.5327C767.8878,-116.5327 767.8878,-140.8507 767.8878,-140.8507"/>
<polygon fill="#000000" stroke="#000000" points="764.3879,-140.8506 767.8878,-150.8507 771.3879,-140.8507 764.3879,-140.8506"/>
</g>
<!-- TsAutofocusModule -->
<g id="node4" class="node">
<title>TsAutofocusModule</title>
<polygon fill="#8dd3c7" stroke="#000000" points="681.8641,-187 678.8641,-191 657.8641,-191 654.8641,-187 550.1359,-187 550.1359,-151 681.8641,-151 681.8641,-187"/>
<text text-anchor="middle" x="616" y="-164.8" font-family="Times,serif" font-size="14.00" fill="#000000">TsAutofocusModule</text>
</g>
<!-- TsAutofocusModule&#45;&gt;TsInputModule -->
<g id="edge3" class="edge">
<title>TsAutofocusModule&#45;&gt;TsInputModule</title>
<path fill="none" stroke="#000000" d="M616,-187.0225C616,-204.3734 616,-228 616,-228 616,-228 544.8021,-228 544.8021,-228"/>
<polygon fill="#000000" stroke="#000000" points="544.8021,-224.5001 534.8021,-228 544.8021,-231.5001 544.8021,-224.5001"/>
</g>
<!-- TsIconModule -->
<g id="node5" class="node">
<title>TsIconModule</title>
<polygon fill="#8dd3c7" stroke="#000000" points="532.4231,-187 529.4231,-191 508.4231,-191 505.4231,-187 433.5769,-187 433.5769,-151 532.4231,-151 532.4231,-187"/>
<text text-anchor="middle" x="483" y="-164.8" font-family="Times,serif" font-size="14.00" fill="#000000">TsIconModule</text>
</g>
<!-- TsIconModule&#45;&gt;TsInputModule -->
<g id="edge4" class="edge">
<title>TsIconModule&#45;&gt;TsInputModule</title>
<path fill="none" stroke="#000000" d="M483,-187.1061C483,-187.1061 483,-205.991 483,-205.991"/>
<polygon fill="#000000" stroke="#000000" points="479.5001,-205.9909 483,-215.991 486.5001,-205.991 479.5001,-205.9909"/>
</g>
<!-- TsValidationMessagesModule -->
<g id="node6" class="node">
<title>TsValidationMessagesModule</title>
<polygon fill="#8dd3c7" stroke="#000000" points="415.5674,-187 412.5674,-191 391.5674,-191 388.5674,-187 228.4326,-187 228.4326,-151 415.5674,-151 415.5674,-187"/>
<text text-anchor="middle" x="322" y="-164.8" font-family="Times,serif" font-size="14.00" fill="#000000">TsValidationMessagesModule</text>
</g>
<!-- TsValidationMessagesModule&#45;&gt;TsInputModule -->
<g id="edge5" class="edge">
<title>TsValidationMessagesModule&#45;&gt;TsInputModule</title>
<path fill="none" stroke="#000000" d="M322,-187.0225C322,-204.3734 322,-228 322,-228 322,-228 421.1724,-228 421.1724,-228"/>
<polygon fill="#000000" stroke="#000000" points="421.1724,-231.5001 431.1724,-228 421.1723,-224.5001 421.1724,-231.5001"/>
</g>
<!-- TsValidatorsService -->
<g id="node8" class="node">
<title>TsValidatorsService</title>
<ellipse fill="#fdb462" stroke="#000000" cx="114" cy="-169" rx="89.7402" ry="18"/>
<text text-anchor="middle" x="114" y="-164.8" font-family="Times,serif" font-size="14.00" fill="#000000">TsValidatorsService</text>
</g>
<!-- TsValidatorsService&#45;&gt;TsInputModule -->
<g id="edge7" class="edge">
<title>TsValidatorsService&#45;&gt;TsInputModule</title>
<path fill="none" stroke="#000000" d="M114,-187.2843C114,-208.3211 114,-240 114,-240 114,-240 421.3036,-240 421.3036,-240"/>
<polygon fill="#000000" stroke="#000000" points="421.3036,-243.5001 431.3036,-240 421.3036,-236.5001 421.3036,-243.5001"/>
</g>
</g>
</svg>
