<?xml version="1.0" encoding="UTF-8" standalone="no"?>
<!DOCTYPE svg PUBLIC "-//W3C//DTD SVG 1.1//EN"
 "http://www.w3.org/Graphics/SVG/1.1/DTD/svg11.dtd">
<!-- Generated by graphviz version 2.40.1 (20161225.0304)
 -->
<!-- Title: dependencies Pages: 1 -->
<svg width="712pt" height="396pt"
 viewBox="0.00 0.00 712.00 395.59" xmlns="http://www.w3.org/2000/svg" xmlns:xlink="http://www.w3.org/1999/xlink">
<g id="graph0" class="graph" transform="scale(1 1) rotate(0) translate(4 391.5901)">
<title>dependencies</title>
<polygon fill="#ffffff" stroke="transparent" points="-4,4 -4,-391.5901 708,-391.5901 708,4 -4,4"/>
<text text-anchor="start" x="331.0091" y="-42.4" font-family="sans-serif" font-weight="bold" font-size="14.00" fill="#000000">Legend</text>
<polygon fill="#ffffb3" stroke="transparent" points="118,-10 118,-30 138,-30 138,-10 118,-10"/>
<text text-anchor="start" x="141.629" y="-15.4" font-family="sans-serif" font-size="14.00" fill="#000000"> &#160;Declarations</text>
<polygon fill="#8dd3c7" stroke="transparent" points="231,-10 231,-30 251,-30 251,-10 231,-10"/>
<text text-anchor="start" x="254.7251" y="-15.4" font-family="sans-serif" font-size="14.00" fill="#000000"> &#160;Module</text>
<polygon fill="#80b1d3" stroke="transparent" points="317,-10 317,-30 337,-30 337,-10 317,-10"/>
<text text-anchor="start" x="340.7812" y="-15.4" font-family="sans-serif" font-size="14.00" fill="#000000"> &#160;Bootstrap</text>
<polygon fill="#fdb462" stroke="transparent" points="414,-10 414,-30 434,-30 434,-10 414,-10"/>
<text text-anchor="start" x="437.6732" y="-15.4" font-family="sans-serif" font-size="14.00" fill="#000000"> &#160;Providers</text>
<polygon fill="#fb8072" stroke="transparent" points="510,-10 510,-30 530,-30 530,-10 510,-10"/>
<text text-anchor="start" x="533.7258" y="-15.4" font-family="sans-serif" font-size="14.00" fill="#000000"> &#160;Exports</text>
<g id="clust1" class="cluster">
<title>cluster_TsInputModule</title>
<polygon fill="none" stroke="#000000" stroke-dasharray="1,5" points="8,-70 8,-379.5901 696,-379.5901 696,-70 8,-70"/>
</g>
<g id="clust2" class="cluster">
<title>cluster_TsInputModule_declarations</title>
<polygon fill="none" stroke="#000000" points="548,-189.5901 548,-241.5901 688,-241.5901 688,-189.5901 548,-189.5901"/>
</g>
<g id="clust3" class="cluster">
<title>cluster_TsInputModule_TsInputComponent_providers</title>
<polygon fill="none" stroke="#000000" points="122,-78 122,-176.5901 688,-176.5901 688,-78 122,-78"/>
</g>
<g id="clust4" class="cluster">
<title>cluster_TsInputModule_imports</title>
<polygon fill="none" stroke="#000000" points="220,-189.5901 220,-241.5901 540,-241.5901 540,-189.5901 220,-189.5901"/>
</g>
<g id="clust5" class="cluster">
<title>cluster_TsInputModule_exports</title>
<polygon fill="none" stroke="#000000" points="330,-319.5901 330,-371.5901 474,-371.5901 474,-319.5901 330,-319.5901"/>
</g>
<g id="clust7" class="cluster">
<title>cluster_TsInputModule_providers</title>
<polygon fill="none" stroke="#000000" points="16,-189.5901 16,-241.5901 212,-241.5901 212,-189.5901 16,-189.5901"/>
</g>
<!-- TsInputComponent -->
<g id="node1" class="node">
<title>TsInputComponent</title>
<polygon fill="#ffffb3" stroke="#000000" points="680.3809,-233.5901 555.6191,-233.5901 555.6191,-197.5901 680.3809,-197.5901 680.3809,-233.5901"/>
<text text-anchor="middle" x="618" y="-211.3901" font-family="Times,serif" font-size="14.00" fill="#000000">TsInputComponent</text>
</g>
<!-- TsInputModule -->
<g id="node2" class="node">
<title>TsInputModule</title>
<polygon fill="#8dd3c7" stroke="#000000" points="453.5982,-298.5901 450.5982,-302.5901 429.5982,-302.5901 426.5982,-298.5901 350.4018,-298.5901 350.4018,-262.5901 453.5982,-262.5901 453.5982,-298.5901"/>
<text text-anchor="middle" x="402" y="-276.3901" font-family="Times,serif" font-size="14.00" fill="#000000">TsInputModule</text>
</g>
<!-- TsInputComponent&#45;&gt;TsInputModule -->
<g id="edge1" class="edge">
<title>TsInputComponent&#45;&gt;TsInputModule</title>
<path fill="none" stroke="#000000" d="M618,-233.6962C618,-252.9292 618,-280.5901 618,-280.5901 618,-280.5901 463.7374,-280.5901 463.7374,-280.5901"/>
<polygon fill="#000000" stroke="#000000" points="463.7374,-277.0902 453.7374,-280.5901 463.7373,-284.0902 463.7374,-277.0902"/>
</g>
<!-- TsInputComponent  -->
<g id="node7" class="node">
<title>TsInputComponent </title>
<polygon fill="#fb8072" stroke="#000000" points="466.3814,-363.5901 337.6186,-363.5901 337.6186,-327.5901 466.3814,-327.5901 466.3814,-363.5901"/>
<text text-anchor="middle" x="402" y="-341.3901" font-family="Times,serif" font-size="14.00" fill="#000000">TsInputComponent </text>
</g>
<!-- TsInputModule&#45;&gt;TsInputComponent  -->
<g id="edge7" class="edge">
<title>TsInputModule&#45;&gt;TsInputComponent </title>
<path fill="none" stroke="#000000" stroke-dasharray="5,2" d="M402,-298.6962C402,-298.6962 402,-317.581 402,-317.581"/>
<polygon fill="#000000" stroke="#000000" points="398.5001,-317.581 402,-327.581 405.5001,-317.5811 398.5001,-317.581"/>
</g>
<!-- CUSTOM_INPUT_CONTROL_VALUE_ACCESSOR -->
<g id="node3" class="node">
<title>CUSTOM_INPUT_CONTROL_VALUE_ACCESSOR</title>
<ellipse fill="#fdb462" stroke="#000000" cx="453" cy="-127.295" rx="227.432" ry="18"/>
<text text-anchor="middle" x="453" y="-123.095" font-family="Times,serif" font-size="14.00" fill="#000000">CUSTOM_INPUT_CONTROL_VALUE_ACCESSOR</text>
</g>
<!-- CUSTOM_INPUT_CONTROL_VALUE_ACCESSOR&#45;&gt;TsInputComponent -->
<g id="edge2" class="edge">
<title>CUSTOM_INPUT_CONTROL_VALUE_ACCESSOR&#45;&gt;TsInputComponent</title>
<path fill="none" stroke="#000000" d="M649.0518,-136.4116C649.0518,-136.4116 649.0518,-187.5209 649.0518,-187.5209"/>
<polygon fill="#000000" stroke="#000000" points="645.5519,-187.5208 649.0518,-197.5209 652.5519,-187.5209 645.5519,-187.5208"/>
</g>
<!-- {
 &#160;&#160;&#160;: , : ,
} -->
<g id="node4" class="node">
<title>{
 &#160;&#160;&#160;: , : ,
}</title>
<ellipse fill="#fdb462" stroke="#000000" cx="169" cy="-127.295" rx="39.1796" ry="41.0911"/>
<text text-anchor="middle" x="169" y="-139.895" font-family="Times,serif" font-size="14.00" fill="#000000">{</text>
<text text-anchor="middle" x="169" y="-123.095" font-family="Times,serif" font-size="14.00" fill="#000000"> &#160;&#160;&#160;: , : ,</text>
<text text-anchor="middle" x="169" y="-106.295" font-family="Times,serif" font-size="14.00" fill="#000000">}</text>
</g>
<!-- {
 &#160;&#160;&#160;: , : ,
}&#45;&gt;TsInputComponent -->
<g id="edge3" class="edge">
<title>{
 &#160;&#160;&#160;: , : ,
}&#45;&gt;TsInputComponent</title>
<path fill="none" stroke="#000000" d="M199.1498,-153.5901C299.796,-153.5901 617.8878,-153.5901 617.8878,-153.5901 617.8878,-153.5901 617.8878,-187.3234 617.8878,-187.3234"/>
<polygon fill="#000000" stroke="#000000" points="614.3879,-187.3233 617.8878,-197.3234 621.3879,-187.3234 614.3879,-187.3233"/>
</g>
<!-- {
 &#160;&#160;&#160;: , : ,
}&#45;&gt;TsInputComponent -->
<g id="edge4" class="edge">
<title>{
 &#160;&#160;&#160;: , : ,
}&#45;&gt;TsInputComponent</title>
<path fill="none" stroke="#000000" d="M190.8705,-161.5901C276.8203,-161.5901 586.7237,-161.5901 586.7237,-161.5901 586.7237,-161.5901 586.7237,-187.3081 586.7237,-187.3081"/>
<polygon fill="#000000" stroke="#000000" points="583.2238,-187.3081 586.7237,-197.3081 590.2238,-187.3082 583.2238,-187.3081"/>
</g>
<!-- TsIconModule -->
<g id="node5" class="node">
<title>TsIconModule</title>
<polygon fill="#8dd3c7" stroke="#000000" points="532.4231,-233.5901 529.4231,-237.5901 508.4231,-237.5901 505.4231,-233.5901 433.5769,-233.5901 433.5769,-197.5901 532.4231,-197.5901 532.4231,-233.5901"/>
<text text-anchor="middle" x="483" y="-211.3901" font-family="Times,serif" font-size="14.00" fill="#000000">TsIconModule</text>
</g>
<!-- TsIconModule&#45;&gt;TsInputModule -->
<g id="edge5" class="edge">
<title>TsIconModule&#45;&gt;TsInputModule</title>
<path fill="none" stroke="#000000" d="M443.669,-233.6962C443.669,-233.6962 443.669,-252.581 443.669,-252.581"/>
<polygon fill="#000000" stroke="#000000" points="440.1691,-252.581 443.669,-262.581 447.1691,-252.5811 440.1691,-252.581"/>
</g>
<!-- TsValidationMessagesModule -->
<g id="node6" class="node">
<title>TsValidationMessagesModule</title>
<polygon fill="#8dd3c7" stroke="#000000" points="415.5674,-233.5901 412.5674,-237.5901 391.5674,-237.5901 388.5674,-233.5901 228.4326,-233.5901 228.4326,-197.5901 415.5674,-197.5901 415.5674,-233.5901"/>
<text text-anchor="middle" x="322" y="-211.3901" font-family="Times,serif" font-size="14.00" fill="#000000">TsValidationMessagesModule</text>
</g>
<!-- TsValidationMessagesModule&#45;&gt;TsInputModule -->
<g id="edge6" class="edge">
<title>TsValidationMessagesModule&#45;&gt;TsInputModule</title>
<path fill="none" stroke="#000000" d="M382.9923,-233.6962C382.9923,-233.6962 382.9923,-252.581 382.9923,-252.581"/>
<polygon fill="#000000" stroke="#000000" points="379.4924,-252.581 382.9923,-262.581 386.4924,-252.5811 379.4924,-252.581"/>
</g>
<!-- TsValidatorsService -->
<g id="node8" class="node">
<title>TsValidatorsService</title>
<ellipse fill="#fdb462" stroke="#000000" cx="114" cy="-215.5901" rx="89.7402" ry="18"/>
<text text-anchor="middle" x="114" y="-211.3901" font-family="Times,serif" font-size="14.00" fill="#000000">TsValidatorsService</text>
</g>
<!-- TsValidatorsService&#45;&gt;TsInputModule -->
<g id="edge8" class="edge">
<title>TsValidatorsService&#45;&gt;TsInputModule</title>
<path fill="none" stroke="#000000" d="M114,-233.6962C114,-252.9292 114,-280.5901 114,-280.5901 114,-280.5901 340.1788,-280.5901 340.1788,-280.5901"/>
<polygon fill="#000000" stroke="#000000" points="340.1788,-284.0902 350.1788,-280.5901 340.1787,-277.0902 340.1788,-284.0902"/>
</g>
</g>
</svg>
