<?xml version="1.0" encoding="UTF-8" standalone="no"?>
<!DOCTYPE svg PUBLIC "-//W3C//DTD SVG 1.1//EN"
 "http://www.w3.org/Graphics/SVG/1.1/DTD/svg11.dtd">
<!-- Generated by graphviz version 2.40.1 (20161225.0304)
 -->
<!-- Title: dependencies Pages: 1 -->
<svg width="862pt" height="349pt"
 viewBox="0.00 0.00 862.00 349.00" xmlns="http://www.w3.org/2000/svg" xmlns:xlink="http://www.w3.org/1999/xlink">
<g id="graph0" class="graph" transform="scale(1 1) rotate(0) translate(4 345)">
<title>dependencies</title>
<polygon fill="#ffffff" stroke="transparent" points="-4,4 -4,-345 858,-345 858,4 -4,4"/>
<text text-anchor="start" x="406.0091" y="-42.4" font-family="sans-serif" font-weight="bold" font-size="14.00" fill="#000000">Legend</text>
<polygon fill="#ffffb3" stroke="transparent" points="193,-10 193,-30 213,-30 213,-10 193,-10"/>
<text text-anchor="start" x="216.629" y="-15.4" font-family="sans-serif" font-size="14.00" fill="#000000"> &#160;Declarations</text>
<polygon fill="#8dd3c7" stroke="transparent" points="306,-10 306,-30 326,-30 326,-10 306,-10"/>
<text text-anchor="start" x="329.7251" y="-15.4" font-family="sans-serif" font-size="14.00" fill="#000000"> &#160;Module</text>
<polygon fill="#80b1d3" stroke="transparent" points="392,-10 392,-30 412,-30 412,-10 392,-10"/>
<text text-anchor="start" x="415.7812" y="-15.4" font-family="sans-serif" font-size="14.00" fill="#000000"> &#160;Bootstrap</text>
<polygon fill="#fdb462" stroke="transparent" points="489,-10 489,-30 509,-30 509,-10 489,-10"/>
<text text-anchor="start" x="512.6732" y="-15.4" font-family="sans-serif" font-size="14.00" fill="#000000"> &#160;Providers</text>
<polygon fill="#fb8072" stroke="transparent" points="585,-10 585,-30 605,-30 605,-10 585,-10"/>
<text text-anchor="start" x="608.7258" y="-15.4" font-family="sans-serif" font-size="14.00" fill="#000000"> &#160;Exports</text>
<g id="clust1" class="cluster">
<title>cluster_TsInputModule</title>
<polygon fill="none" stroke="#000000" stroke-dasharray="1,5" points="8,-70 8,-333 846,-333 846,-70 8,-70"/>
</g>
<g id="clust2" class="cluster">
<title>cluster_TsInputModule_declarations</title>
<polygon fill="none" stroke="#000000" points="698,-143 698,-195 838,-195 838,-143 698,-143"/>
</g>
<g id="clust3" class="cluster">
<title>cluster_TsInputModule_TsInputComponent_providers</title>
<polygon fill="none" stroke="#000000" points="368,-78 368,-130 838,-130 838,-78 368,-78"/>
</g>
<g id="clust4" class="cluster">
<title>cluster_TsInputModule_imports</title>
<polygon fill="none" stroke="#000000" points="220,-143 220,-195 690,-195 690,-143 220,-143"/>
</g>
<g id="clust5" class="cluster">
<title>cluster_TsInputModule_exports</title>
<polygon fill="none" stroke="#000000" points="355,-273 355,-325 499,-325 499,-273 355,-273"/>
</g>
<g id="clust7" class="cluster">
<title>cluster_TsInputModule_providers</title>
<polygon fill="none" stroke="#000000" points="16,-143 16,-195 212,-195 212,-143 16,-143"/>
</g>
<!-- TsInputComponent -->
<g id="node1" class="node">
<title>TsInputComponent</title>
<polygon fill="#ffffb3" stroke="#000000" points="830.3809,-187 705.6191,-187 705.6191,-151 830.3809,-151 830.3809,-187"/>
<text text-anchor="middle" x="768" y="-164.8" font-family="Times,serif" font-size="14.00" fill="#000000">TsInputComponent</text>
</g>
<!-- TsInputModule -->
<g id="node2" class="node">
<title>TsInputModule</title>
<polygon fill="#8dd3c7" stroke="#000000" points="478.5982,-252 475.5982,-256 454.5982,-256 451.5982,-252 375.4018,-252 375.4018,-216 478.5982,-216 478.5982,-252"/>
<text text-anchor="middle" x="427" y="-229.8" font-family="Times,serif" font-size="14.00" fill="#000000">TsInputModule</text>
</g>
<!-- TsInputComponent&#45;&gt;TsInputModule -->
<g id="edge1" class="edge">
<title>TsInputComponent&#45;&gt;TsInputModule</title>
<path fill="none" stroke="#000000" d="M768,-187.2843C768,-208.3211 768,-240 768,-240 768,-240 488.7906,-240 488.7906,-240"/>
<polygon fill="#000000" stroke="#000000" points="488.7906,-236.5001 478.7906,-240 488.7905,-243.5001 488.7906,-236.5001"/>
</g>
<!-- TsInputComponent  -->
<g id="node7" class="node">
<title>TsInputComponent </title>
<polygon fill="#fb8072" stroke="#000000" points="491.3814,-317 362.6186,-317 362.6186,-281 491.3814,-281 491.3814,-317"/>
<text text-anchor="middle" x="427" y="-294.8" font-family="Times,serif" font-size="14.00" fill="#000000">TsInputComponent </text>
</g>
<!-- TsInputModule&#45;&gt;TsInputComponent  -->
<g id="edge6" class="edge">
<title>TsInputModule&#45;&gt;TsInputComponent </title>
<path fill="none" stroke="#000000" stroke-dasharray="5,2" d="M427,-252.1061C427,-252.1061 427,-270.991 427,-270.991"/>
<polygon fill="#000000" stroke="#000000" points="423.5001,-270.9909 427,-280.991 430.5001,-270.991 423.5001,-270.9909"/>
</g>
<!-- CUSTOM_INPUT_CONTROL_VALUE_ACCESSOR -->
<g id="node3" class="node">
<title>CUSTOM_INPUT_CONTROL_VALUE_ACCESSOR</title>
<ellipse fill="#fdb462" stroke="#000000" cx="603" cy="-104" rx="227.432" ry="18"/>
<text text-anchor="middle" x="603" y="-99.8" font-family="Times,serif" font-size="14.00" fill="#000000">CUSTOM_INPUT_CONTROL_VALUE_ACCESSOR</text>
</g>
<!-- CUSTOM_INPUT_CONTROL_VALUE_ACCESSOR&#45;&gt;TsInputComponent -->
<g id="edge2" class="edge">
<title>CUSTOM_INPUT_CONTROL_VALUE_ACCESSOR&#45;&gt;TsInputComponent</title>
<path fill="none" stroke="#000000" d="M767.8878,-116.5327C767.8878,-116.5327 767.8878,-140.8507 767.8878,-140.8507"/>
<polygon fill="#000000" stroke="#000000" points="764.3879,-140.8506 767.8878,-150.8507 771.3879,-140.8507 764.3879,-140.8506"/>
</g>
<!-- TsValidationMessagesModule -->
<g id="node4" class="node">
<title>TsValidationMessagesModule</title>
<polygon fill="#8dd3c7" stroke="#000000" points="681.5674,-187 678.5674,-191 657.5674,-191 654.5674,-187 494.4326,-187 494.4326,-151 681.5674,-151 681.5674,-187"/>
<text text-anchor="middle" x="588" y="-164.8" font-family="Times,serif" font-size="14.00" fill="#000000">TsValidationMessagesModule</text>
</g>
<!-- TsValidationMessagesModule&#45;&gt;TsInputModule -->
<g id="edge3" class="edge">
<title>TsValidationMessagesModule&#45;&gt;TsInputModule</title>
<path fill="none" stroke="#000000" d="M588,-187.0225C588,-204.3734 588,-228 588,-228 588,-228 488.8276,-228 488.8276,-228"/>
<polygon fill="#000000" stroke="#000000" points="488.8277,-224.5001 478.8276,-228 488.8276,-231.5001 488.8277,-224.5001"/>
</g>
<!-- TsIconModule -->
<g id="node5" class="node">
<title>TsIconModule</title>
<polygon fill="#8dd3c7" stroke="#000000" points="476.4231,-187 473.4231,-191 452.4231,-191 449.4231,-187 377.5769,-187 377.5769,-151 476.4231,-151 476.4231,-187"/>
<text text-anchor="middle" x="427" y="-164.8" font-family="Times,serif" font-size="14.00" fill="#000000">TsIconModule</text>
</g>
<!-- TsIconModule&#45;&gt;TsInputModule -->
<g id="edge4" class="edge">
<title>TsIconModule&#45;&gt;TsInputModule</title>
<path fill="none" stroke="#000000" d="M427,-187.1061C427,-187.1061 427,-205.991 427,-205.991"/>
<polygon fill="#000000" stroke="#000000" points="423.5001,-205.9909 427,-215.991 430.5001,-205.991 423.5001,-205.9909"/>
</g>
<!-- TsAutofocusModule -->
<g id="node6" class="node">
<title>TsAutofocusModule</title>
<polygon fill="#8dd3c7" stroke="#000000" points="359.8641,-187 356.8641,-191 335.8641,-191 332.8641,-187 228.1359,-187 228.1359,-151 359.8641,-151 359.8641,-187"/>
<text text-anchor="middle" x="294" y="-164.8" font-family="Times,serif" font-size="14.00" fill="#000000">TsAutofocusModule</text>
</g>
<!-- TsAutofocusModule&#45;&gt;TsInputModule -->
<g id="edge5" class="edge">
<title>TsAutofocusModule&#45;&gt;TsInputModule</title>
<path fill="none" stroke="#000000" d="M294,-187.0225C294,-204.3734 294,-228 294,-228 294,-228 365.1979,-228 365.1979,-228"/>
<polygon fill="#000000" stroke="#000000" points="365.1979,-231.5001 375.1979,-228 365.1979,-224.5001 365.1979,-231.5001"/>
</g>
<!-- TsValidatorsService -->
<g id="node8" class="node">
<title>TsValidatorsService</title>
<ellipse fill="#fdb462" stroke="#000000" cx="114" cy="-169" rx="89.7402" ry="18"/>
<text text-anchor="middle" x="114" y="-164.8" font-family="Times,serif" font-size="14.00" fill="#000000">TsValidatorsService</text>
</g>
<!-- TsValidatorsService&#45;&gt;TsInputModule -->
<g id="edge7" class="edge">
<title>TsValidatorsService&#45;&gt;TsInputModule</title>
<path fill="none" stroke="#000000" d="M114,-187.2843C114,-208.3211 114,-240 114,-240 114,-240 365.3144,-240 365.3144,-240"/>
<polygon fill="#000000" stroke="#000000" points="365.3145,-243.5001 375.3144,-240 365.3144,-236.5001 365.3145,-243.5001"/>
</g>
</g>
</svg>
