<?xml version="1.0" encoding="UTF-8" standalone="no"?>
<!DOCTYPE svg PUBLIC "-//W3C//DTD SVG 1.1//EN"
 "http://www.w3.org/Graphics/SVG/1.1/DTD/svg11.dtd">
<!-- Generated by graphviz version 2.40.1 (20161225.0304)
 -->
<!-- Title: dependencies Pages: 1 -->
<svg width="862pt" height="284pt"
 viewBox="0.00 0.00 862.00 284.00" xmlns="http://www.w3.org/2000/svg" xmlns:xlink="http://www.w3.org/1999/xlink">
<g id="graph0" class="graph" transform="scale(1 1) rotate(0) translate(4 280)">
<title>dependencies</title>
<polygon fill="#ffffff" stroke="transparent" points="-4,4 -4,-280 858,-280 858,4 -4,4"/>
<text text-anchor="start" x="406.0091" y="-42.4" font-family="sans-serif" font-weight="bold" font-size="14.00" fill="#000000">Legend</text>
<polygon fill="#ffffb3" stroke="transparent" points="193,-10 193,-30 213,-30 213,-10 193,-10"/>
<text text-anchor="start" x="216.629" y="-15.4" font-family="sans-serif" font-size="14.00" fill="#000000"> &#160;Declarations</text>
<polygon fill="#8dd3c7" stroke="transparent" points="306,-10 306,-30 326,-30 326,-10 306,-10"/>
<text text-anchor="start" x="329.7251" y="-15.4" font-family="sans-serif" font-size="14.00" fill="#000000"> &#160;Module</text>
<polygon fill="#80b1d3" stroke="transparent" points="392,-10 392,-30 412,-30 412,-10 392,-10"/>
<text text-anchor="start" x="415.7812" y="-15.4" font-family="sans-serif" font-size="14.00" fill="#000000"> &#160;Bootstrap</text>
<polygon fill="#fdb462" stroke="transparent" points="489,-10 489,-30 509,-30 509,-10 489,-10"/>
<text text-anchor="start" x="512.6732" y="-15.4" font-family="sans-serif" font-size="14.00" fill="#000000"> &#160;Providers</text>
<polygon fill="#fb8072" stroke="transparent" points="585,-10 585,-30 605,-30 605,-10 585,-10"/>
<text text-anchor="start" x="608.7258" y="-15.4" font-family="sans-serif" font-size="14.00" fill="#000000"> &#160;Exports</text>
<g id="clust1" class="cluster">
<title>cluster_TsInputModule</title>
<polygon fill="none" stroke="#000000" stroke-dasharray="1,5" points="8,-70 8,-268 846,-268 846,-70 8,-70"/>
</g>
<g id="clust2" class="cluster">
<title>cluster_TsInputModule_declarations</title>
<polygon fill="none" stroke="#000000" points="698,-78 698,-130 838,-130 838,-78 698,-78"/>
</g>
<g id="clust4" class="cluster">
<title>cluster_TsInputModule_imports</title>
<polygon fill="none" stroke="#000000" points="220,-78 220,-130 690,-130 690,-78 220,-78"/>
</g>
<g id="clust5" class="cluster">
<title>cluster_TsInputModule_exports</title>
<polygon fill="none" stroke="#000000" points="355,-208 355,-260 499,-260 499,-208 355,-208"/>
</g>
<g id="clust7" class="cluster">
<title>cluster_TsInputModule_providers</title>
<polygon fill="none" stroke="#000000" points="16,-78 16,-130 212,-130 212,-78 16,-78"/>
</g>
<!-- TsInputComponent -->
<g id="node1" class="node">
<title>TsInputComponent</title>
<polygon fill="#ffffb3" stroke="#000000" points="830.3809,-122 705.6191,-122 705.6191,-86 830.3809,-86 830.3809,-122"/>
<text text-anchor="middle" x="768" y="-99.8" font-family="Times,serif" font-size="14.00" fill="#000000">TsInputComponent</text>
</g>
<!-- TsInputModule -->
<g id="node2" class="node">
<title>TsInputModule</title>
<polygon fill="#8dd3c7" stroke="#000000" points="478.5982,-187 475.5982,-191 454.5982,-191 451.5982,-187 375.4018,-187 375.4018,-151 478.5982,-151 478.5982,-187"/>
<text text-anchor="middle" x="427" y="-164.8" font-family="Times,serif" font-size="14.00" fill="#000000">TsInputModule</text>
</g>
<!-- TsInputComponent&#45;&gt;TsInputModule -->
<g id="edge1" class="edge">
<title>TsInputComponent&#45;&gt;TsInputModule</title>
<path fill="none" stroke="#000000" d="M768,-122.2843C768,-143.3211 768,-175 768,-175 768,-175 488.7906,-175 488.7906,-175"/>
<polygon fill="#000000" stroke="#000000" points="488.7906,-171.5001 478.7906,-175 488.7905,-178.5001 488.7906,-171.5001"/>
</g>
<!-- TsInputComponent  -->
<g id="node6" class="node">
<title>TsInputComponent </title>
<polygon fill="#fb8072" stroke="#000000" points="491.3814,-252 362.6186,-252 362.6186,-216 491.3814,-216 491.3814,-252"/>
<text text-anchor="middle" x="427" y="-229.8" font-family="Times,serif" font-size="14.00" fill="#000000">TsInputComponent </text>
</g>
<!-- TsInputModule&#45;&gt;TsInputComponent  -->
<g id="edge5" class="edge">
<title>TsInputModule&#45;&gt;TsInputComponent </title>
<path fill="none" stroke="#000000" stroke-dasharray="5,2" d="M427,-187.1061C427,-187.1061 427,-205.991 427,-205.991"/>
<polygon fill="#000000" stroke="#000000" points="423.5001,-205.9909 427,-215.991 430.5001,-205.991 423.5001,-205.9909"/>
</g>
<!-- TsValidationMessagesModule -->
<g id="node3" class="node">
<title>TsValidationMessagesModule</title>
<polygon fill="#8dd3c7" stroke="#000000" points="681.5674,-122 678.5674,-126 657.5674,-126 654.5674,-122 494.4326,-122 494.4326,-86 681.5674,-86 681.5674,-122"/>
<text text-anchor="middle" x="588" y="-99.8" font-family="Times,serif" font-size="14.00" fill="#000000">TsValidationMessagesModule</text>
</g>
<!-- TsValidationMessagesModule&#45;&gt;TsInputModule -->
<g id="edge2" class="edge">
<title>TsValidationMessagesModule&#45;&gt;TsInputModule</title>
<path fill="none" stroke="#000000" d="M588,-122.0225C588,-139.3734 588,-163 588,-163 588,-163 488.8276,-163 488.8276,-163"/>
<polygon fill="#000000" stroke="#000000" points="488.8277,-159.5001 478.8276,-163 488.8276,-166.5001 488.8277,-159.5001"/>
</g>
<!-- TsIconModule -->
<g id="node4" class="node">
<title>TsIconModule</title>
<polygon fill="#8dd3c7" stroke="#000000" points="476.4231,-122 473.4231,-126 452.4231,-126 449.4231,-122 377.5769,-122 377.5769,-86 476.4231,-86 476.4231,-122"/>
<text text-anchor="middle" x="427" y="-99.8" font-family="Times,serif" font-size="14.00" fill="#000000">TsIconModule</text>
</g>
<!-- TsIconModule&#45;&gt;TsInputModule -->
<g id="edge3" class="edge">
<title>TsIconModule&#45;&gt;TsInputModule</title>
<path fill="none" stroke="#000000" d="M427,-122.1061C427,-122.1061 427,-140.991 427,-140.991"/>
<polygon fill="#000000" stroke="#000000" points="423.5001,-140.9909 427,-150.991 430.5001,-140.991 423.5001,-140.9909"/>
</g>
<!-- TsAutofocusModule -->
<g id="node5" class="node">
<title>TsAutofocusModule</title>
<polygon fill="#8dd3c7" stroke="#000000" points="359.8641,-122 356.8641,-126 335.8641,-126 332.8641,-122 228.1359,-122 228.1359,-86 359.8641,-86 359.8641,-122"/>
<text text-anchor="middle" x="294" y="-99.8" font-family="Times,serif" font-size="14.00" fill="#000000">TsAutofocusModule</text>
</g>
<!-- TsAutofocusModule&#45;&gt;TsInputModule -->
<g id="edge4" class="edge">
<title>TsAutofocusModule&#45;&gt;TsInputModule</title>
<path fill="none" stroke="#000000" d="M294,-122.0225C294,-139.3734 294,-163 294,-163 294,-163 365.1979,-163 365.1979,-163"/>
<polygon fill="#000000" stroke="#000000" points="365.1979,-166.5001 375.1979,-163 365.1979,-159.5001 365.1979,-166.5001"/>
</g>
<!-- TsValidatorsService -->
<g id="node7" class="node">
<title>TsValidatorsService</title>
<ellipse fill="#fdb462" stroke="#000000" cx="114" cy="-104" rx="89.7402" ry="18"/>
<text text-anchor="middle" x="114" y="-99.8" font-family="Times,serif" font-size="14.00" fill="#000000">TsValidatorsService</text>
</g>
<!-- TsValidatorsService&#45;&gt;TsInputModule -->
<g id="edge6" class="edge">
<title>TsValidatorsService&#45;&gt;TsInputModule</title>
<path fill="none" stroke="#000000" d="M114,-122.2843C114,-143.3211 114,-175 114,-175 114,-175 365.3144,-175 365.3144,-175"/>
<polygon fill="#000000" stroke="#000000" points="365.3145,-178.5001 375.3144,-175 365.3144,-171.5001 365.3145,-178.5001"/>
</g>
</g>
</svg>
