<?xml version="1.0" encoding="UTF-8" standalone="no"?>
<!DOCTYPE svg PUBLIC "-//W3C//DTD SVG 1.1//EN"
 "http://www.w3.org/Graphics/SVG/1.1/DTD/svg11.dtd">
<!-- Generated by graphviz version 2.40.1 (20161225.0304)
 -->
<!-- Title: dependencies Pages: 1 -->
<svg width="504pt" height="284pt"
 viewBox="0.00 0.00 504.00 284.00" xmlns="http://www.w3.org/2000/svg" xmlns:xlink="http://www.w3.org/1999/xlink">
<g id="graph0" class="graph" transform="scale(1 1) rotate(0) translate(4 280)">
<title>dependencies</title>
<polygon fill="#ffffff" stroke="transparent" points="-4,4 -4,-280 500,-280 500,4 -4,4"/>
<text text-anchor="start" x="227.0091" y="-42.4" font-family="sans-serif" font-weight="bold" font-size="14.00" fill="#000000">Legend</text>
<polygon fill="#ffffb3" stroke="transparent" points="14,-10 14,-30 34,-30 34,-10 14,-10"/>
<text text-anchor="start" x="37.629" y="-15.4" font-family="sans-serif" font-size="14.00" fill="#000000"> &#160;Declarations</text>
<polygon fill="#8dd3c7" stroke="transparent" points="127,-10 127,-30 147,-30 147,-10 127,-10"/>
<text text-anchor="start" x="150.7251" y="-15.4" font-family="sans-serif" font-size="14.00" fill="#000000"> &#160;Module</text>
<polygon fill="#80b1d3" stroke="transparent" points="213,-10 213,-30 233,-30 233,-10 213,-10"/>
<text text-anchor="start" x="236.7812" y="-15.4" font-family="sans-serif" font-size="14.00" fill="#000000"> &#160;Bootstrap</text>
<polygon fill="#fdb462" stroke="transparent" points="310,-10 310,-30 330,-30 330,-10 310,-10"/>
<text text-anchor="start" x="333.6732" y="-15.4" font-family="sans-serif" font-size="14.00" fill="#000000"> &#160;Providers</text>
<polygon fill="#fb8072" stroke="transparent" points="406,-10 406,-30 426,-30 426,-10 406,-10"/>
<text text-anchor="start" x="429.7258" y="-15.4" font-family="sans-serif" font-size="14.00" fill="#000000"> &#160;Exports</text>
<g id="clust1" class="cluster">
<title>cluster_TsIconModule</title>
<polygon fill="none" stroke="#000000" stroke-dasharray="1,5" points="170,-70 170,-268 326,-268 326,-70 170,-70"/>
</g>
<g id="clust2" class="cluster">
<title>cluster_TsIconModule_declarations</title>
<polygon fill="none" stroke="#000000" points="180,-78 180,-130 316,-130 316,-78 180,-78"/>
</g>
<g id="clust5" class="cluster">
<title>cluster_TsIconModule_exports</title>
<polygon fill="none" stroke="#000000" points="178,-208 178,-260 318,-260 318,-208 178,-208"/>
</g>
<!-- TsIconComponent -->
<g id="node1" class="node">
<title>TsIconComponent</title>
<polygon fill="#ffffb3" stroke="#000000" points="308.205,-122 187.795,-122 187.795,-86 308.205,-86 308.205,-122"/>
<text text-anchor="middle" x="248" y="-99.8" font-family="Times,serif" font-size="14.00" fill="#000000">TsIconComponent</text>
</g>
<!-- TsIconModule -->
<g id="node2" class="node">
<title>TsIconModule</title>
<polygon fill="#8dd3c7" stroke="#000000" points="297.4231,-187 294.4231,-191 273.4231,-191 270.4231,-187 198.5769,-187 198.5769,-151 297.4231,-151 297.4231,-187"/>
<text text-anchor="middle" x="248" y="-164.8" font-family="Times,serif" font-size="14.00" fill="#000000">TsIconModule</text>
</g>
<!-- TsIconComponent&#45;&gt;TsIconModule -->
<g id="edge1" class="edge">
<title>TsIconComponent&#45;&gt;TsIconModule</title>
<path fill="none" stroke="#000000" d="M248,-122.1061C248,-122.1061 248,-140.991 248,-140.991"/>
<polygon fill="#000000" stroke="#000000" points="244.5001,-140.9909 248,-150.991 251.5001,-140.991 244.5001,-140.9909"/>
</g>
<!-- TsIconComponent  -->
<g id="node3" class="node">
<title>TsIconComponent </title>
<polygon fill="#fb8072" stroke="#000000" points="309.7052,-252 186.2948,-252 186.2948,-216 309.7052,-216 309.7052,-252"/>
<text text-anchor="middle" x="248" y="-229.8" font-family="Times,serif" font-size="14.00" fill="#000000">TsIconComponent </text>
</g>
<!-- TsIconModule&#45;&gt;TsIconComponent  -->
<g id="edge2" class="edge">
<title>TsIconModule&#45;&gt;TsIconComponent </title>
<path fill="none" stroke="#000000" stroke-dasharray="5,2" d="M248,-187.1061C248,-187.1061 248,-205.991 248,-205.991"/>
<polygon fill="#000000" stroke="#000000" points="244.5001,-205.9909 248,-215.991 251.5001,-205.991 244.5001,-205.9909"/>
</g>
</g>
</svg>
