<?xml version="1.0" encoding="UTF-8" standalone="no"?>
<!DOCTYPE svg PUBLIC "-//W3C//DTD SVG 1.1//EN"
 "http://www.w3.org/Graphics/SVG/1.1/DTD/svg11.dtd">
<!-- Generated by graphviz version 2.40.1 (20161225.0304)
 -->
<!-- Title: dependencies Pages: 1 -->
<svg width="1887pt" height="349pt"
 viewBox="0.00 0.00 1887.00 349.00" xmlns="http://www.w3.org/2000/svg" xmlns:xlink="http://www.w3.org/1999/xlink">
<g id="graph0" class="graph" transform="scale(1 1) rotate(0) translate(4 345)">
<title>dependencies</title>
<polygon fill="#ffffff" stroke="transparent" points="-4,4 -4,-345 1883,-345 1883,4 -4,4"/>
<text text-anchor="start" x="918.5091" y="-42.4" font-family="sans-serif" font-weight="bold" font-size="14.00" fill="#000000">Legend</text>
<polygon fill="#ffffb3" stroke="transparent" points="705.5,-10 705.5,-30 725.5,-30 725.5,-10 705.5,-10"/>
<text text-anchor="start" x="729.129" y="-15.4" font-family="sans-serif" font-size="14.00" fill="#000000"> &#160;Declarations</text>
<polygon fill="#8dd3c7" stroke="transparent" points="818.5,-10 818.5,-30 838.5,-30 838.5,-10 818.5,-10"/>
<text text-anchor="start" x="842.2251" y="-15.4" font-family="sans-serif" font-size="14.00" fill="#000000"> &#160;Module</text>
<polygon fill="#80b1d3" stroke="transparent" points="904.5,-10 904.5,-30 924.5,-30 924.5,-10 904.5,-10"/>
<text text-anchor="start" x="928.2812" y="-15.4" font-family="sans-serif" font-size="14.00" fill="#000000"> &#160;Bootstrap</text>
<polygon fill="#fdb462" stroke="transparent" points="1001.5,-10 1001.5,-30 1021.5,-30 1021.5,-10 1001.5,-10"/>
<text text-anchor="start" x="1025.1732" y="-15.4" font-family="sans-serif" font-size="14.00" fill="#000000"> &#160;Providers</text>
<polygon fill="#fb8072" stroke="transparent" points="1097.5,-10 1097.5,-30 1117.5,-30 1117.5,-10 1097.5,-10"/>
<text text-anchor="start" x="1121.2258" y="-15.4" font-family="sans-serif" font-size="14.00" fill="#000000"> &#160;Exports</text>
<g id="clust1" class="cluster">
<title>cluster_TsTableModule</title>
<polygon fill="none" stroke="#000000" stroke-dasharray="1,5" points="8,-70 8,-333 1871,-333 1871,-70 8,-70"/>
</g>
<g id="clust2" class="cluster">
<title>cluster_TsTableModule_declarations</title>
<polygon fill="none" stroke="#000000" points="282,-143 282,-195 1863,-195 1863,-143 282,-143"/>
</g>
<g id="clust3" class="cluster">
<title>cluster_TsTableModule_TsCellDefDirective_providers</title>
<polygon fill="none" stroke="#000000" points="1290,-78 1290,-130 1386,-130 1386,-78 1290,-78"/>
</g>
<g id="clust13" class="cluster">
<title>cluster_TsTableModule_imports</title>
<polygon fill="none" stroke="#000000" points="16,-143 16,-195 274,-195 274,-143 16,-143"/>
</g>
<g id="clust14" class="cluster">
<title>cluster_TsTableModule_exports</title>
<polygon fill="none" stroke="#000000" points="91,-273 91,-325 1707,-325 1707,-273 91,-273"/>
</g>
<!-- TsCellDefDirective -->
<g id="node1" class="node">
<title>TsCellDefDirective</title>
<polygon fill="#ffffb3" stroke="#000000" points="1855.3948,-187 1728.6052,-187 1728.6052,-151 1855.3948,-151 1855.3948,-187"/>
<text text-anchor="middle" x="1792" y="-164.8" font-family="Times,serif" font-size="14.00" fill="#000000">TsCellDefDirective</text>
</g>
<!-- TsTableModule -->
<g id="node11" class="node">
<title>TsTableModule</title>
<polygon fill="#8dd3c7" stroke="#000000" points="942.9202,-252 939.9202,-256 918.9202,-256 915.9202,-252 837.0798,-252 837.0798,-216 942.9202,-216 942.9202,-252"/>
<text text-anchor="middle" x="890" y="-229.8" font-family="Times,serif" font-size="14.00" fill="#000000">TsTableModule</text>
</g>
<!-- TsCellDefDirective&#45;&gt;TsTableModule -->
<g id="edge1" class="edge">
<title>TsCellDefDirective&#45;&gt;TsTableModule</title>
<path fill="none" stroke="#000000" d="M1792,-187.1061C1792,-206.3391 1792,-234 1792,-234 1792,-234 952.725,-234 952.725,-234"/>
<polygon fill="#000000" stroke="#000000" points="952.725,-230.5001 942.725,-234 952.7249,-237.5001 952.725,-230.5001"/>
</g>
<!-- TsCellDirective -->
<g id="node2" class="node">
<title>TsCellDirective</title>
<polygon fill="#ffffb3" stroke="#000000" points="1710.9132,-187 1605.0868,-187 1605.0868,-151 1710.9132,-151 1710.9132,-187"/>
<text text-anchor="middle" x="1658" y="-164.8" font-family="Times,serif" font-size="14.00" fill="#000000">TsCellDirective</text>
</g>
<!-- TsCellDirective&#45;&gt;TsTableModule -->
<g id="edge3" class="edge">
<title>TsCellDirective&#45;&gt;TsTableModule</title>
<path fill="none" stroke="#000000" d="M1652.1204,-187.2667C1652.1204,-205.5552 1652.1204,-231 1652.1204,-231 1652.1204,-231 952.9857,-231 952.9857,-231"/>
<polygon fill="#000000" stroke="#000000" points="952.9858,-227.5001 942.9857,-231 952.9857,-234.5001 952.9858,-227.5001"/>
</g>
<!-- TsColumnDefDirective -->
<g id="node3" class="node">
<title>TsColumnDefDirective</title>
<polygon fill="#ffffb3" stroke="#000000" points="1587.1797,-187 1438.8203,-187 1438.8203,-151 1587.1797,-151 1587.1797,-187"/>
<text text-anchor="middle" x="1513" y="-164.8" font-family="Times,serif" font-size="14.00" fill="#000000">TsColumnDefDirective</text>
</g>
<!-- TsColumnDefDirective&#45;&gt;TsTableModule -->
<g id="edge4" class="edge">
<title>TsColumnDefDirective&#45;&gt;TsTableModule</title>
<path fill="none" stroke="#000000" d="M1478.8479,-187.0336C1478.8479,-204.0597 1478.8479,-227 1478.8479,-227 1478.8479,-227 952.7745,-227 952.7745,-227"/>
<polygon fill="#000000" stroke="#000000" points="952.7746,-223.5001 942.7745,-227 952.7745,-230.5001 952.7746,-223.5001"/>
</g>
<!-- TsHeaderCellDefDirective -->
<g id="node4" class="node">
<title>TsHeaderCellDefDirective</title>
<polygon fill="#ffffb3" stroke="#000000" points="1421.3053,-187 1254.6947,-187 1254.6947,-151 1421.3053,-151 1421.3053,-187"/>
<text text-anchor="middle" x="1338" y="-164.8" font-family="Times,serif" font-size="14.00" fill="#000000">TsHeaderCellDefDirective</text>
</g>
<!-- TsHeaderCellDefDirective&#45;&gt;TsTableModule -->
<g id="edge6" class="edge">
<title>TsHeaderCellDefDirective&#45;&gt;TsTableModule</title>
<path fill="none" stroke="#000000" d="M1264.1564,-187.0091C1264.1564,-203.0494 1264.1564,-224 1264.1564,-224 1264.1564,-224 952.8139,-224 952.8139,-224"/>
<polygon fill="#000000" stroke="#000000" points="952.8139,-220.5001 942.8139,-224 952.8139,-227.5001 952.8139,-220.5001"/>
</g>
<!-- TsHeaderCellDirective -->
<g id="node5" class="node">
<title>TsHeaderCellDirective</title>
<polygon fill="#ffffb3" stroke="#000000" points="1236.8235,-187 1091.1765,-187 1091.1765,-151 1236.8235,-151 1236.8235,-187"/>
<text text-anchor="middle" x="1164" y="-164.8" font-family="Times,serif" font-size="14.00" fill="#000000">TsHeaderCellDirective</text>
</g>
<!-- TsHeaderCellDirective&#45;&gt;TsTableModule -->
<g id="edge8" class="edge">
<title>TsHeaderCellDirective&#45;&gt;TsTableModule</title>
<path fill="none" stroke="#000000" d="M1188.3039,-187.1243C1188.3039,-201.7832 1188.3039,-220 1188.3039,-220 1188.3039,-220 952.987,-220 952.987,-220"/>
<polygon fill="#000000" stroke="#000000" points="952.9871,-216.5001 942.987,-220 952.987,-223.5001 952.9871,-216.5001"/>
</g>
<!-- TsHeaderRowComponent -->
<g id="node6" class="node">
<title>TsHeaderRowComponent</title>
<polygon fill="#ffffb3" stroke="#000000" points="1073.1839,-187 910.8161,-187 910.8161,-151 1073.1839,-151 1073.1839,-187"/>
<text text-anchor="middle" x="992" y="-164.8" font-family="Times,serif" font-size="14.00" fill="#000000">TsHeaderRowComponent</text>
</g>
<!-- TsHeaderRowComponent&#45;&gt;TsTableModule -->
<g id="edge9" class="edge">
<title>TsHeaderRowComponent&#45;&gt;TsTableModule</title>
<path fill="none" stroke="#000000" d="M926.8089,-187.1061C926.8089,-187.1061 926.8089,-205.991 926.8089,-205.991"/>
<polygon fill="#000000" stroke="#000000" points="923.309,-205.9909 926.8089,-215.991 930.309,-205.991 923.309,-205.9909"/>
</g>
<!-- TsHeaderRowDefDirective -->
<g id="node7" class="node">
<title>TsHeaderRowDefDirective</title>
<polygon fill="#ffffb3" stroke="#000000" points="892.916,-187 723.084,-187 723.084,-151 892.916,-151 892.916,-187"/>
<text text-anchor="middle" x="808" y="-164.8" font-family="Times,serif" font-size="14.00" fill="#000000">TsHeaderRowDefDirective</text>
</g>
<!-- TsHeaderRowDefDirective&#45;&gt;TsTableModule -->
<g id="edge10" class="edge">
<title>TsHeaderRowDefDirective&#45;&gt;TsTableModule</title>
<path fill="none" stroke="#000000" d="M865.1242,-187.1061C865.1242,-187.1061 865.1242,-205.991 865.1242,-205.991"/>
<polygon fill="#000000" stroke="#000000" points="861.6242,-205.9909 865.1242,-215.991 868.6242,-205.991 861.6242,-205.9909"/>
</g>
<!-- TsRowComponent -->
<g id="node8" class="node">
<title>TsRowComponent</title>
<polygon fill="#ffffb3" stroke="#000000" points="704.773,-187 583.227,-187 583.227,-151 704.773,-151 704.773,-187"/>
<text text-anchor="middle" x="644" y="-164.8" font-family="Times,serif" font-size="14.00" fill="#000000">TsRowComponent</text>
</g>
<!-- TsRowComponent&#45;&gt;TsTableModule -->
<g id="edge12" class="edge">
<title>TsRowComponent&#45;&gt;TsTableModule</title>
<path fill="none" stroke="#000000" d="M644,-187.1243C644,-201.7832 644,-220 644,-220 644,-220 827.2268,-220 827.2268,-220"/>
<polygon fill="#000000" stroke="#000000" points="827.2269,-223.5001 837.2268,-220 827.2268,-216.5001 827.2269,-223.5001"/>
</g>
<!-- TsRowDefDirective -->
<g id="node9" class="node">
<title>TsRowDefDirective</title>
<polygon fill="#ffffb3" stroke="#000000" points="564.5059,-187 435.4941,-187 435.4941,-151 564.5059,-151 564.5059,-187"/>
<text text-anchor="middle" x="500" y="-164.8" font-family="Times,serif" font-size="14.00" fill="#000000">TsRowDefDirective</text>
</g>
<!-- TsRowDefDirective&#45;&gt;TsTableModule -->
<g id="edge13" class="edge">
<title>TsRowDefDirective&#45;&gt;TsTableModule</title>
<path fill="none" stroke="#000000" d="M553.0223,-187.0091C553.0223,-203.0494 553.0223,-224 553.0223,-224 553.0223,-224 826.9765,-224 826.9765,-224"/>
<polygon fill="#000000" stroke="#000000" points="826.9766,-227.5001 836.9765,-224 826.9765,-220.5001 826.9766,-227.5001"/>
</g>
<!-- TsTableComponent -->
<g id="node10" class="node">
<title>TsTableComponent</title>
<polygon fill="#ffffb3" stroke="#000000" points="417.7022,-187 290.2978,-187 290.2978,-151 417.7022,-151 417.7022,-187"/>
<text text-anchor="middle" x="354" y="-164.8" font-family="Times,serif" font-size="14.00" fill="#000000">TsTableComponent</text>
</g>
<!-- TsTableComponent&#45;&gt;TsTableModule -->
<g id="edge15" class="edge">
<title>TsTableComponent&#45;&gt;TsTableModule</title>
<path fill="none" stroke="#000000" d="M407.9823,-187.0336C407.9823,-204.0597 407.9823,-227 407.9823,-227 407.9823,-227 827.0368,-227 827.0368,-227"/>
<polygon fill="#000000" stroke="#000000" points="827.0369,-230.5001 837.0368,-227 827.0368,-223.5001 827.0369,-230.5001"/>
</g>
<!-- TsCellDefDirective  -->
<g id="node15" class="node">
<title>TsCellDefDirective </title>
<polygon fill="#fb8072" stroke="#000000" points="1698.8942,-317 1569.1058,-317 1569.1058,-281 1698.8942,-281 1698.8942,-317"/>
<text text-anchor="middle" x="1634" y="-294.8" font-family="Times,serif" font-size="14.00" fill="#000000">TsCellDefDirective </text>
</g>
<!-- TsTableModule&#45;&gt;TsCellDefDirective  -->
<g id="edge18" class="edge">
<title>TsTableModule&#45;&gt;TsCellDefDirective </title>
<path fill="none" stroke="#000000" stroke-dasharray="5,2" d="M942.8493,-238C1103.9698,-238 1578.0714,-238 1578.0714,-238 1578.0714,-238 1578.0714,-270.698 1578.0714,-270.698"/>
<polygon fill="#000000" stroke="#000000" points="1574.5714,-270.698 1578.0714,-280.698 1581.5714,-270.698 1574.5714,-270.698"/>
</g>
<!-- TsCellDirective  -->
<g id="node16" class="node">
<title>TsCellDirective </title>
<polygon fill="#fb8072" stroke="#000000" points="1551.4124,-317 1442.5876,-317 1442.5876,-281 1551.4124,-281 1551.4124,-317"/>
<text text-anchor="middle" x="1497" y="-294.8" font-family="Times,serif" font-size="14.00" fill="#000000">TsCellDirective </text>
</g>
<!-- TsTableModule&#45;&gt;TsCellDirective  -->
<g id="edge19" class="edge">
<title>TsTableModule&#45;&gt;TsCellDirective </title>
<path fill="none" stroke="#000000" stroke-dasharray="5,2" d="M942.7613,-242C1093.4772,-242 1515.1521,-242 1515.1521,-242 1515.1521,-242 1515.1521,-270.9648 1515.1521,-270.9648"/>
<polygon fill="#000000" stroke="#000000" points="1511.6522,-270.9648 1515.1521,-280.9648 1518.6522,-270.9649 1511.6522,-270.9648"/>
</g>
<!-- TsColumnDefDirective  -->
<g id="node17" class="node">
<title>TsColumnDefDirective </title>
<polygon fill="#fb8072" stroke="#000000" points="1424.6799,-317 1273.3201,-317 1273.3201,-281 1424.6799,-281 1424.6799,-317"/>
<text text-anchor="middle" x="1349" y="-294.8" font-family="Times,serif" font-size="14.00" fill="#000000">TsColumnDefDirective </text>
</g>
<!-- TsTableModule&#45;&gt;TsColumnDefDirective  -->
<g id="edge20" class="edge">
<title>TsTableModule&#45;&gt;TsColumnDefDirective </title>
<path fill="none" stroke="#000000" stroke-dasharray="5,2" d="M942.9027,-245C1063.2733,-245 1347.2814,-245 1347.2814,-245 1347.2814,-245 1347.2814,-270.7181 1347.2814,-270.7181"/>
<polygon fill="#000000" stroke="#000000" points="1343.7815,-270.718 1347.2814,-280.7181 1350.7815,-270.7181 1343.7815,-270.718"/>
</g>
<!-- TsHeaderCellDefDirective  -->
<g id="node18" class="node">
<title>TsHeaderCellDefDirective </title>
<polygon fill="#fb8072" stroke="#000000" points="1255.3055,-317 1084.6945,-317 1084.6945,-281 1255.3055,-281 1255.3055,-317"/>
<text text-anchor="middle" x="1170" y="-294.8" font-family="Times,serif" font-size="14.00" fill="#000000">TsHeaderCellDefDirective </text>
</g>
<!-- TsTableModule&#45;&gt;TsHeaderCellDefDirective  -->
<g id="edge21" class="edge">
<title>TsTableModule&#45;&gt;TsHeaderCellDefDirective </title>
<path fill="none" stroke="#000000" stroke-dasharray="5,2" d="M942.9541,-249C1016.2502,-249 1139.6961,-249 1139.6961,-249 1139.6961,-249 1139.6961,-270.9489 1139.6961,-270.9489"/>
<polygon fill="#000000" stroke="#000000" points="1136.1962,-270.9488 1139.6961,-280.9489 1143.1962,-270.9489 1136.1962,-270.9488"/>
</g>
<!-- TsHeaderCellDirective  -->
<g id="node19" class="node">
<title>TsHeaderCellDirective </title>
<polygon fill="#fb8072" stroke="#000000" points="1066.8238,-317 917.1762,-317 917.1762,-281 1066.8238,-281 1066.8238,-317"/>
<text text-anchor="middle" x="992" y="-294.8" font-family="Times,serif" font-size="14.00" fill="#000000">TsHeaderCellDirective </text>
</g>
<!-- TsTableModule&#45;&gt;TsHeaderCellDirective  -->
<g id="edge22" class="edge">
<title>TsTableModule&#45;&gt;TsHeaderCellDirective </title>
<path fill="none" stroke="#000000" stroke-dasharray="5,2" d="M930.024,-252.1061C930.024,-252.1061 930.024,-270.991 930.024,-270.991"/>
<polygon fill="#000000" stroke="#000000" points="926.5241,-270.9909 930.024,-280.991 933.5241,-270.991 926.5241,-270.9909"/>
</g>
<!-- TsHeaderRowComponent  -->
<g id="node20" class="node">
<title>TsHeaderRowComponent </title>
<polygon fill="#fb8072" stroke="#000000" points="898.6841,-317 733.3159,-317 733.3159,-281 898.6841,-281 898.6841,-317"/>
<text text-anchor="middle" x="816" y="-294.8" font-family="Times,serif" font-size="14.00" fill="#000000">TsHeaderRowComponent </text>
</g>
<!-- TsTableModule&#45;&gt;TsHeaderRowComponent  -->
<g id="edge23" class="edge">
<title>TsTableModule&#45;&gt;TsHeaderRowComponent </title>
<path fill="none" stroke="#000000" stroke-dasharray="5,2" d="M868.0661,-252.1061C868.0661,-252.1061 868.0661,-270.991 868.0661,-270.991"/>
<polygon fill="#000000" stroke="#000000" points="864.5662,-270.9909 868.0661,-280.991 871.5662,-270.991 864.5662,-270.9909"/>
</g>
<!-- TsHeaderRowDefDirective  -->
<g id="node21" class="node">
<title>TsHeaderRowDefDirective </title>
<polygon fill="#fb8072" stroke="#000000" points="714.9165,-317 541.0835,-317 541.0835,-281 714.9165,-281 714.9165,-317"/>
<text text-anchor="middle" x="628" y="-294.8" font-family="Times,serif" font-size="14.00" fill="#000000">TsHeaderRowDefDirective </text>
</g>
<!-- TsTableModule&#45;&gt;TsHeaderRowDefDirective  -->
<g id="edge24" class="edge">
<title>TsTableModule&#45;&gt;TsHeaderRowDefDirective </title>
<path fill="none" stroke="#000000" stroke-dasharray="5,2" d="M836.9079,-249C783.7525,-249 709.7972,-249 709.7972,-249 709.7972,-249 709.7972,-270.9489 709.7972,-270.9489"/>
<polygon fill="#000000" stroke="#000000" points="706.2973,-270.9488 709.7972,-280.9489 713.2973,-270.9489 706.2973,-270.9488"/>
</g>
<!-- TsRowComponent  -->
<g id="node22" class="node">
<title>TsRowComponent </title>
<polygon fill="#fb8072" stroke="#000000" points="523.7731,-317 398.2269,-317 398.2269,-281 523.7731,-281 523.7731,-317"/>
<text text-anchor="middle" x="461" y="-294.8" font-family="Times,serif" font-size="14.00" fill="#000000">TsRowComponent </text>
</g>
<!-- TsTableModule&#45;&gt;TsRowComponent  -->
<g id="edge25" class="edge">
<title>TsTableModule&#45;&gt;TsRowComponent </title>
<path fill="none" stroke="#000000" stroke-dasharray="5,2" d="M837.1672,-245C726.282,-245 479.442,-245 479.442,-245 479.442,-245 479.442,-270.7181 479.442,-270.7181"/>
<polygon fill="#000000" stroke="#000000" points="475.942,-270.718 479.442,-280.7181 482.942,-270.7181 475.942,-270.718"/>
</g>
<!-- TsRowDefDirective  -->
<g id="node23" class="node">
<title>TsRowDefDirective </title>
<polygon fill="#fb8072" stroke="#000000" points="380.505,-317 247.495,-317 247.495,-281 380.505,-281 380.505,-317"/>
<text text-anchor="middle" x="314" y="-294.8" font-family="Times,serif" font-size="14.00" fill="#000000">TsRowDefDirective </text>
</g>
<!-- TsTableModule&#45;&gt;TsRowDefDirective  -->
<g id="edge26" class="edge">
<title>TsTableModule&#45;&gt;TsRowDefDirective </title>
<path fill="none" stroke="#000000" stroke-dasharray="5,2" d="M836.8275,-242C698.0283,-242 335.4507,-242 335.4507,-242 335.4507,-242 335.4507,-270.9648 335.4507,-270.9648"/>
<polygon fill="#000000" stroke="#000000" points="331.9508,-270.9648 335.4507,-280.9648 338.9508,-270.9649 331.9508,-270.9648"/>
</g>
<!-- TsTableComponent  -->
<g id="node24" class="node">
<title>TsTableComponent </title>
<polygon fill="#fb8072" stroke="#000000" points="229.2023,-317 98.7977,-317 98.7977,-281 229.2023,-281 229.2023,-317"/>
<text text-anchor="middle" x="164" y="-294.8" font-family="Times,serif" font-size="14.00" fill="#000000">TsTableComponent </text>
</g>
<!-- TsTableModule&#45;&gt;TsTableComponent  -->
<g id="edge27" class="edge">
<title>TsTableModule&#45;&gt;TsTableComponent </title>
<path fill="none" stroke="#000000" stroke-dasharray="5,2" d="M837.2147,-238C673.2824,-238 183.8754,-238 183.8754,-238 183.8754,-238 183.8754,-270.698 183.8754,-270.698"/>
<polygon fill="#000000" stroke="#000000" points="180.3754,-270.698 183.8754,-280.698 187.3754,-270.698 180.3754,-270.698"/>
</g>
<!-- { : , : &#160;} -->
<g id="node12" class="node">
<title>{ : , : &#160;}</title>
<ellipse fill="#fdb462" stroke="#000000" cx="1338" cy="-104" rx="40.3166" ry="18"/>
<text text-anchor="middle" x="1338" y="-99.8" font-family="Times,serif" font-size="14.00" fill="#000000">{ : , : &#160;}</text>
</g>
<!-- { : , : &#160;}&#45;&gt;TsCellDefDirective -->
<g id="edge2" class="edge">
<title>{ : , : &#160;}&#45;&gt;TsCellDefDirective</title>
<path fill="none" stroke="#000000" d="M1375.9269,-98C1485.0412,-98 1792,-98 1792,-98 1792,-98 1792,-140.7157 1792,-140.7157"/>
<polygon fill="#000000" stroke="#000000" points="1788.5001,-140.7157 1792,-150.7157 1795.5001,-140.7158 1788.5001,-140.7157"/>
</g>
<!-- { : , : &#160;}&#45;&gt;TsColumnDefDirective -->
<g id="edge5" class="edge">
<title>{ : , : &#160;}&#45;&gt;TsColumnDefDirective</title>
<path fill="none" stroke="#000000" d="M1375.9724,-110C1427.4413,-110 1513,-110 1513,-110 1513,-110 1513,-140.9775 1513,-140.9775"/>
<polygon fill="#000000" stroke="#000000" points="1509.5001,-140.9774 1513,-150.9775 1516.5001,-140.9775 1509.5001,-140.9774"/>
</g>
<!-- { : , : &#160;}&#45;&gt;TsHeaderCellDefDirective -->
<g id="edge7" class="edge">
<title>{ : , : &#160;}&#45;&gt;TsHeaderCellDefDirective</title>
<path fill="none" stroke="#000000" d="M1338,-122.1061C1338,-122.1061 1338,-140.991 1338,-140.991"/>
<polygon fill="#000000" stroke="#000000" points="1334.5001,-140.9909 1338,-150.991 1341.5001,-140.991 1334.5001,-140.9909"/>
</g>
<!-- { : , : &#160;}&#45;&gt;TsHeaderRowDefDirective -->
<g id="edge11" class="edge">
<title>{ : , : &#160;}&#45;&gt;TsHeaderRowDefDirective</title>
<path fill="none" stroke="#000000" d="M1299.8837,-110C1178.3595,-110 808,-110 808,-110 808,-110 808,-140.9775 808,-140.9775"/>
<polygon fill="#000000" stroke="#000000" points="804.5001,-140.9774 808,-150.9775 811.5001,-140.9775 804.5001,-140.9774"/>
</g>
<!-- { : , : &#160;}&#45;&gt;TsRowDefDirective -->
<g id="edge14" class="edge">
<title>{ : , : &#160;}&#45;&gt;TsRowDefDirective</title>
<path fill="none" stroke="#000000" d="M1300.0906,-98C1136.5911,-98 500,-98 500,-98 500,-98 500,-140.7157 500,-140.7157"/>
<polygon fill="#000000" stroke="#000000" points="496.5001,-140.7157 500,-150.7157 503.5001,-140.7158 496.5001,-140.7157"/>
</g>
<!-- TsPaginatorModule -->
<g id="node13" class="node">
<title>TsPaginatorModule</title>
<polygon fill="#8dd3c7" stroke="#000000" points="265.7008,-187 262.7008,-191 241.7008,-191 238.7008,-187 138.2992,-187 138.2992,-151 265.7008,-151 265.7008,-187"/>
<text text-anchor="middle" x="202" y="-164.8" font-family="Times,serif" font-size="14.00" fill="#000000">TsPaginatorModule</text>
</g>
<!-- TsPaginatorModule&#45;&gt;TsTableModule -->
<g id="edge16" class="edge">
<title>TsPaginatorModule&#45;&gt;TsTableModule</title>
<path fill="none" stroke="#000000" d="M256.5489,-187.2667C256.5489,-205.5552 256.5489,-231 256.5489,-231 256.5489,-231 827.0818,-231 827.0818,-231"/>
<polygon fill="#000000" stroke="#000000" points="827.0819,-234.5001 837.0818,-231 827.0818,-227.5001 827.0819,-234.5001"/>
</g>
<!-- TsSortModule -->
<g id="node14" class="node">
<title>TsSortModule</title>
<polygon fill="#8dd3c7" stroke="#000000" points="120.3809,-187 117.3809,-191 96.3809,-191 93.3809,-187 23.6191,-187 23.6191,-151 120.3809,-151 120.3809,-187"/>
<text text-anchor="middle" x="72" y="-164.8" font-family="Times,serif" font-size="14.00" fill="#000000">TsSortModule</text>
</g>
<!-- TsSortModule&#45;&gt;TsTableModule -->
<g id="edge17" class="edge">
<title>TsSortModule&#45;&gt;TsTableModule</title>
<path fill="none" stroke="#000000" d="M109.5447,-187.1061C109.5447,-206.3391 109.5447,-234 109.5447,-234 109.5447,-234 827.2754,-234 827.2754,-234"/>
<polygon fill="#000000" stroke="#000000" points="827.2754,-237.5001 837.2754,-234 827.2753,-230.5001 827.2754,-237.5001"/>
</g>
</g>
</svg>
