<?xml version="1.0" encoding="UTF-8" standalone="no"?>
<!DOCTYPE svg PUBLIC "-//W3C//DTD SVG 1.1//EN"
 "http://www.w3.org/Graphics/SVG/1.1/DTD/svg11.dtd">
<!-- Generated by graphviz version 2.40.1 (20161225.0304)
 -->
<!-- Title: dependencies Pages: 1 -->
<svg width="3227pt" height="284pt"
 viewBox="0.00 0.00 3227.00 284.00" xmlns="http://www.w3.org/2000/svg" xmlns:xlink="http://www.w3.org/1999/xlink">
<g id="graph0" class="graph" transform="scale(1 1) rotate(0) translate(4 280)">
<title>dependencies</title>
<polygon fill="#ffffff" stroke="transparent" points="-4,4 -4,-280 3223,-280 3223,4 -4,4"/>
<text text-anchor="start" x="1588.5091" y="-42.4" font-family="sans-serif" font-weight="bold" font-size="14.00" fill="#000000">Legend</text>
<polygon fill="#ffffb3" stroke="transparent" points="1375.5,-10 1375.5,-30 1395.5,-30 1395.5,-10 1375.5,-10"/>
<text text-anchor="start" x="1399.129" y="-15.4" font-family="sans-serif" font-size="14.00" fill="#000000"> &#160;Declarations</text>
<polygon fill="#8dd3c7" stroke="transparent" points="1488.5,-10 1488.5,-30 1508.5,-30 1508.5,-10 1488.5,-10"/>
<text text-anchor="start" x="1512.2251" y="-15.4" font-family="sans-serif" font-size="14.00" fill="#000000"> &#160;Module</text>
<polygon fill="#80b1d3" stroke="transparent" points="1574.5,-10 1574.5,-30 1594.5,-30 1594.5,-10 1574.5,-10"/>
<text text-anchor="start" x="1598.2812" y="-15.4" font-family="sans-serif" font-size="14.00" fill="#000000"> &#160;Bootstrap</text>
<polygon fill="#fdb462" stroke="transparent" points="1671.5,-10 1671.5,-30 1691.5,-30 1691.5,-10 1671.5,-10"/>
<text text-anchor="start" x="1695.1732" y="-15.4" font-family="sans-serif" font-size="14.00" fill="#000000"> &#160;Providers</text>
<polygon fill="#fb8072" stroke="transparent" points="1767.5,-10 1767.5,-30 1787.5,-30 1787.5,-10 1767.5,-10"/>
<text text-anchor="start" x="1791.2258" y="-15.4" font-family="sans-serif" font-size="14.00" fill="#000000"> &#160;Exports</text>
<g id="clust1" class="cluster">
<title>cluster_TerminusUIModule</title>
<polygon fill="none" stroke="#000000" stroke-dasharray="1,5" points="8,-70 8,-268 3211,-268 3211,-70 8,-70"/>
</g>
<g id="clust2" class="cluster">
<title>cluster_TerminusUIModule_declarations</title>
<polygon fill="none" stroke="#000000" points="2985,-78 2985,-130 3203,-130 3203,-78 2985,-78"/>
</g>
<g id="clust4" class="cluster">
<title>cluster_TerminusUIModule_imports</title>
<polygon fill="none" stroke="#000000" points="404,-78 404,-130 2977,-130 2977,-78 404,-78"/>
</g>
<g id="clust5" class="cluster">
<title>cluster_TerminusUIModule_exports</title>
<polygon fill="none" stroke="#000000" points="311,-208 311,-260 2946,-260 2946,-208 311,-208"/>
</g>
<g id="clust7" class="cluster">
<title>cluster_TerminusUIModule_providers</title>
<polygon fill="none" stroke="#000000" points="16,-78 16,-130 396,-130 396,-78 16,-78"/>
</g>
<!-- TsReactiveFormBaseComponent -->
<g id="node1" class="node">
<title>TsReactiveFormBaseComponent</title>
<polygon fill="#ffffb3" stroke="#000000" points="3194.8501,-122 2993.1499,-122 2993.1499,-86 3194.8501,-86 3194.8501,-122"/>
<text text-anchor="middle" x="3094" y="-99.8" font-family="Times,serif" font-size="14.00" fill="#000000">TsReactiveFormBaseComponent</text>
</g>
<!-- TerminusUIModule -->
<g id="node2" class="node">
<title>TerminusUIModule</title>
<polygon fill="#8dd3c7" stroke="#000000" points="1735.9706,-187 1732.9706,-191 1711.9706,-191 1708.9706,-187 1608.0294,-187 1608.0294,-151 1735.9706,-151 1735.9706,-187"/>
<text text-anchor="middle" x="1672" y="-164.8" font-family="Times,serif" font-size="14.00" fill="#000000">TerminusUIModule</text>
</g>
<!-- TsReactiveFormBaseComponent&#45;&gt;TerminusUIModule -->
<g id="edge1" class="edge">
<title>TsReactiveFormBaseComponent&#45;&gt;TerminusUIModule</title>
<path fill="none" stroke="#000000" d="M3094,-122.0348C3094,-141.5762 3094,-170 3094,-170 3094,-170 1746.3284,-170 1746.3284,-170"/>
<polygon fill="#000000" stroke="#000000" points="1746.3285,-166.5001 1736.3284,-170 1746.3284,-173.5001 1746.3285,-166.5001"/>
</g>
<!-- TsButtonModule  -->
<g id="node21" class="node">
<title>TsButtonModule </title>
<polygon fill="#fb8072" stroke="#000000" points="2937.6649,-252 2822.3351,-252 2822.3351,-216 2937.6649,-216 2937.6649,-252"/>
<text text-anchor="middle" x="2880" y="-229.8" font-family="Times,serif" font-size="14.00" fill="#000000">TsButtonModule </text>
</g>
<!-- TerminusUIModule&#45;&gt;TsButtonModule  -->
<g id="edge20" class="edge">
<title>TerminusUIModule&#45;&gt;TsButtonModule </title>
<path fill="none" stroke="#000000" stroke-dasharray="5,2" d="M1736.3785,-172C1979.9011,-172 2830.9834,-172 2830.9834,-172 2830.9834,-172 2830.9834,-205.7333 2830.9834,-205.7333"/>
<polygon fill="#000000" stroke="#000000" points="2827.4834,-205.7333 2830.9834,-215.7333 2834.4834,-205.7333 2827.4834,-205.7333"/>
</g>
<!-- TsInputModule  -->
<g id="node22" class="node">
<title>TsInputModule </title>
<polygon fill="#fb8072" stroke="#000000" points="2804.099,-252 2697.901,-252 2697.901,-216 2804.099,-216 2804.099,-252"/>
<text text-anchor="middle" x="2751" y="-229.8" font-family="Times,serif" font-size="14.00" fill="#000000">TsInputModule </text>
</g>
<!-- TerminusUIModule&#45;&gt;TsInputModule  -->
<g id="edge21" class="edge">
<title>TerminusUIModule&#45;&gt;TsInputModule </title>
<path fill="none" stroke="#000000" stroke-dasharray="5,2" d="M1736.0319,-174C1961.9288,-174 2708.1173,-174 2708.1173,-174 2708.1173,-174 2708.1173,-205.998 2708.1173,-205.998"/>
<polygon fill="#000000" stroke="#000000" points="2704.6174,-205.998 2708.1173,-215.998 2711.6174,-205.9981 2704.6174,-205.998"/>
</g>
<!-- TsValidationMessagesModule  -->
<g id="node23" class="node">
<title>TsValidationMessagesModule </title>
<polygon fill="#fb8072" stroke="#000000" points="2679.0679,-252 2488.9321,-252 2488.9321,-216 2679.0679,-216 2679.0679,-252"/>
<text text-anchor="middle" x="2584" y="-229.8" font-family="Times,serif" font-size="14.00" fill="#000000">TsValidationMessagesModule </text>
</g>
<!-- TerminusUIModule&#45;&gt;TsValidationMessagesModule  -->
<g id="edge22" class="edge">
<title>TerminusUIModule&#45;&gt;TsValidationMessagesModule </title>
<path fill="none" stroke="#000000" stroke-dasharray="5,2" d="M1736.0097,-176C1930.438,-176 2500.9097,-176 2500.9097,-176 2500.9097,-176 2500.9097,-205.9664 2500.9097,-205.9664"/>
<polygon fill="#000000" stroke="#000000" points="2497.4098,-205.9663 2500.9097,-215.9664 2504.4098,-205.9664 2497.4098,-205.9663"/>
</g>
<!-- TsMenuModule  -->
<g id="node24" class="node">
<title>TsMenuModule </title>
<polygon fill="#fb8072" stroke="#000000" points="2470.7066,-252 2361.2934,-252 2361.2934,-216 2470.7066,-216 2470.7066,-252"/>
<text text-anchor="middle" x="2416" y="-229.8" font-family="Times,serif" font-size="14.00" fill="#000000">TsMenuModule </text>
</g>
<!-- TerminusUIModule&#45;&gt;TsMenuModule  -->
<g id="edge23" class="edge">
<title>TerminusUIModule&#45;&gt;TsMenuModule </title>
<path fill="none" stroke="#000000" stroke-dasharray="5,2" d="M1736.2513,-178C1909.798,-178 2375.0121,-178 2375.0121,-178 2375.0121,-178 2375.0121,-205.973 2375.0121,-205.973"/>
<polygon fill="#000000" stroke="#000000" points="2371.5122,-205.973 2375.0121,-215.973 2378.5122,-205.973 2371.5122,-205.973"/>
</g>
<!-- TsSelectModule  -->
<g id="node25" class="node">
<title>TsSelectModule </title>
<polygon fill="#fb8072" stroke="#000000" points="2343.7549,-252 2232.2451,-252 2232.2451,-216 2343.7549,-216 2343.7549,-252"/>
<text text-anchor="middle" x="2288" y="-229.8" font-family="Times,serif" font-size="14.00" fill="#000000">TsSelectModule </text>
</g>
<!-- TerminusUIModule&#45;&gt;TsSelectModule  -->
<g id="edge24" class="edge">
<title>TerminusUIModule&#45;&gt;TsSelectModule </title>
<path fill="none" stroke="#000000" stroke-dasharray="5,2" d="M1736.1187,-180C1886.2528,-180 2247.9876,-180 2247.9876,-180 2247.9876,-180 2247.9876,-205.7181 2247.9876,-205.7181"/>
<polygon fill="#000000" stroke="#000000" points="2244.4876,-205.718 2247.9876,-215.7181 2251.4876,-205.7181 2244.4876,-205.718"/>
</g>
<!-- TsToggleModule  -->
<g id="node26" class="node">
<title>TsToggleModule </title>
<polygon fill="#fb8072" stroke="#000000" points="2214.2052,-252 2097.7948,-252 2097.7948,-216 2214.2052,-216 2214.2052,-252"/>
<text text-anchor="middle" x="2156" y="-229.8" font-family="Times,serif" font-size="14.00" fill="#000000">TsToggleModule </text>
</g>
<!-- TerminusUIModule&#45;&gt;TsToggleModule  -->
<g id="edge25" class="edge">
<title>TerminusUIModule&#45;&gt;TsToggleModule </title>
<path fill="none" stroke="#000000" stroke-dasharray="5,2" d="M1735.9764,-182C1858.7211,-182 2115.2323,-182 2115.2323,-182 2115.2323,-182 2115.2323,-205.8129 2115.2323,-205.8129"/>
<polygon fill="#000000" stroke="#000000" points="2111.7324,-205.8129 2115.2323,-215.8129 2118.7324,-205.813 2111.7324,-205.8129"/>
</g>
<!-- TsSearchModule  -->
<g id="node27" class="node">
<title>TsSearchModule </title>
<polygon fill="#fb8072" stroke="#000000" points="2079.6341,-252 1964.3659,-252 1964.3659,-216 2079.6341,-216 2079.6341,-252"/>
<text text-anchor="middle" x="2022" y="-229.8" font-family="Times,serif" font-size="14.00" fill="#000000">TsSearchModule </text>
</g>
<!-- TerminusUIModule&#45;&gt;TsSearchModule  -->
<g id="edge26" class="edge">
<title>TerminusUIModule&#45;&gt;TsSearchModule </title>
<path fill="none" stroke="#000000" stroke-dasharray="5,2" d="M1736.1806,-184C1827.3898,-184 1983.5742,-184 1983.5742,-184 1983.5742,-184 1983.5742,-205.9489 1983.5742,-205.9489"/>
<polygon fill="#000000" stroke="#000000" points="1980.0742,-205.9488 1983.5742,-215.9489 1987.0742,-205.9489 1980.0742,-205.9488"/>
</g>
<!-- TsPaginationModule  -->
<g id="node28" class="node">
<title>TsPaginationModule </title>
<polygon fill="#fb8072" stroke="#000000" points="1946.4306,-252 1809.5694,-252 1809.5694,-216 1946.4306,-216 1946.4306,-252"/>
<text text-anchor="middle" x="1878" y="-229.8" font-family="Times,serif" font-size="14.00" fill="#000000">TsPaginationModule </text>
</g>
<!-- TerminusUIModule&#45;&gt;TsPaginationModule  -->
<g id="edge27" class="edge">
<title>TerminusUIModule&#45;&gt;TsPaginationModule </title>
<path fill="none" stroke="#000000" stroke-dasharray="5,2" d="M1736.3616,-186C1780.1707,-186 1830.2383,-186 1830.2383,-186 1830.2383,-186 1830.2383,-205.8533 1830.2383,-205.8533"/>
<polygon fill="#000000" stroke="#000000" points="1826.7383,-205.8532 1830.2383,-215.8533 1833.7383,-205.8533 1826.7383,-205.8532"/>
</g>
<!-- TsCopyModule  -->
<g id="node29" class="node">
<title>TsCopyModule </title>
<polygon fill="#fb8072" stroke="#000000" points="1791.8843,-252 1684.1157,-252 1684.1157,-216 1791.8843,-216 1791.8843,-252"/>
<text text-anchor="middle" x="1738" y="-229.8" font-family="Times,serif" font-size="14.00" fill="#000000">TsCopyModule </text>
</g>
<!-- TerminusUIModule&#45;&gt;TsCopyModule  -->
<g id="edge28" class="edge">
<title>TerminusUIModule&#45;&gt;TsCopyModule </title>
<path fill="none" stroke="#000000" stroke-dasharray="5,2" d="M1710.1468,-187.1061C1710.1468,-187.1061 1710.1468,-205.991 1710.1468,-205.991"/>
<polygon fill="#000000" stroke="#000000" points="1706.6468,-205.9909 1710.1468,-215.991 1713.6468,-205.991 1706.6468,-205.9909"/>
</g>
<!-- TsTooltipModule  -->
<g id="node30" class="node">
<title>TsTooltipModule </title>
<polygon fill="#fb8072" stroke="#000000" points="1666.2717,-252 1547.7283,-252 1547.7283,-216 1666.2717,-216 1666.2717,-252"/>
<text text-anchor="middle" x="1607" y="-229.8" font-family="Times,serif" font-size="14.00" fill="#000000">TsTooltipModule </text>
</g>
<!-- TerminusUIModule&#45;&gt;TsTooltipModule  -->
<g id="edge29" class="edge">
<title>TerminusUIModule&#45;&gt;TsTooltipModule </title>
<path fill="none" stroke="#000000" stroke-dasharray="5,2" d="M1637.0752,-187.1061C1637.0752,-187.1061 1637.0752,-205.991 1637.0752,-205.991"/>
<polygon fill="#000000" stroke="#000000" points="1633.5753,-205.9909 1637.0752,-215.991 1640.5753,-205.991 1633.5753,-205.9909"/>
</g>
<!-- TsDatepickerModule  -->
<g id="node31" class="node">
<title>TsDatepickerModule </title>
<polygon fill="#fb8072" stroke="#000000" points="1530.4545,-252 1391.5455,-252 1391.5455,-216 1530.4545,-216 1530.4545,-252"/>
<text text-anchor="middle" x="1461" y="-229.8" font-family="Times,serif" font-size="14.00" fill="#000000">TsDatepickerModule </text>
</g>
<!-- TerminusUIModule&#45;&gt;TsDatepickerModule  -->
<g id="edge30" class="edge">
<title>TerminusUIModule&#45;&gt;TsDatepickerModule </title>
<path fill="none" stroke="#000000" stroke-dasharray="5,2" d="M1607.9166,-186C1557.5581,-186 1495.875,-186 1495.875,-186 1495.875,-186 1495.875,-205.8533 1495.875,-205.8533"/>
<polygon fill="#000000" stroke="#000000" points="1492.3751,-205.8532 1495.875,-215.8533 1499.3751,-205.8533 1492.3751,-205.8532"/>
</g>
<!-- TsDateRangeModule  -->
<g id="node32" class="node">
<title>TsDateRangeModule </title>
<polygon fill="#fb8072" stroke="#000000" points="1373.7394,-252 1234.2606,-252 1234.2606,-216 1373.7394,-216 1373.7394,-252"/>
<text text-anchor="middle" x="1304" y="-229.8" font-family="Times,serif" font-size="14.00" fill="#000000">TsDateRangeModule </text>
</g>
<!-- TerminusUIModule&#45;&gt;TsDateRangeModule  -->
<g id="edge31" class="edge">
<title>TerminusUIModule&#45;&gt;TsDateRangeModule </title>
<path fill="none" stroke="#000000" stroke-dasharray="5,2" d="M1607.7632,-184C1511.4702,-184 1340.875,-184 1340.875,-184 1340.875,-184 1340.875,-205.9489 1340.875,-205.9489"/>
<polygon fill="#000000" stroke="#000000" points="1337.3751,-205.9488 1340.875,-215.9489 1344.3751,-205.9489 1337.3751,-205.9488"/>
</g>
<!-- TsSpacingModule  -->
<g id="node33" class="node">
<title>TsSpacingModule </title>
<polygon fill="#fb8072" stroke="#000000" points="1216.1495,-252 1093.8505,-252 1093.8505,-216 1216.1495,-216 1216.1495,-252"/>
<text text-anchor="middle" x="1155" y="-229.8" font-family="Times,serif" font-size="14.00" fill="#000000">TsSpacingModule </text>
</g>
<!-- TerminusUIModule&#45;&gt;TsSpacingModule  -->
<g id="edge32" class="edge">
<title>TerminusUIModule&#45;&gt;TsSpacingModule </title>
<path fill="none" stroke="#000000" stroke-dasharray="5,2" d="M1608.0141,-182C1477.7293,-182 1193.875,-182 1193.875,-182 1193.875,-182 1193.875,-205.8129 1193.875,-205.8129"/>
<polygon fill="#000000" stroke="#000000" points="1190.3751,-205.8129 1193.875,-215.8129 1197.3751,-205.813 1190.3751,-205.8129"/>
</g>
<!-- TsCheckboxModule  -->
<g id="node34" class="node">
<title>TsCheckboxModule </title>
<polygon fill="#fb8072" stroke="#000000" points="1075.8129,-252 942.1871,-252 942.1871,-216 1075.8129,-216 1075.8129,-252"/>
<text text-anchor="middle" x="1009" y="-229.8" font-family="Times,serif" font-size="14.00" fill="#000000">TsCheckboxModule </text>
</g>
<!-- TerminusUIModule&#45;&gt;TsCheckboxModule  -->
<g id="edge33" class="edge">
<title>TerminusUIModule&#45;&gt;TsCheckboxModule </title>
<path fill="none" stroke="#000000" stroke-dasharray="5,2" d="M1607.7649,-180C1448.813,-180 1049.875,-180 1049.875,-180 1049.875,-180 1049.875,-205.7181 1049.875,-205.7181"/>
<polygon fill="#000000" stroke="#000000" points="1046.3751,-205.718 1049.875,-215.7181 1053.3751,-205.7181 1046.3751,-205.718"/>
</g>
<!-- TsLoginFormModule  -->
<g id="node35" class="node">
<title>TsLoginFormModule </title>
<polygon fill="#fb8072" stroke="#000000" points="924.3241,-252 783.6759,-252 783.6759,-216 924.3241,-216 924.3241,-252"/>
<text text-anchor="middle" x="854" y="-229.8" font-family="Times,serif" font-size="14.00" fill="#000000">TsLoginFormModule </text>
</g>
<!-- TerminusUIModule&#45;&gt;TsLoginFormModule  -->
<g id="edge34" class="edge">
<title>TerminusUIModule&#45;&gt;TsLoginFormModule </title>
<path fill="none" stroke="#000000" stroke-dasharray="5,2" d="M1607.8675,-178C1422.0375,-178 896.375,-178 896.375,-178 896.375,-178 896.375,-205.973 896.375,-205.973"/>
<polygon fill="#000000" stroke="#000000" points="892.8751,-205.973 896.375,-215.973 899.8751,-205.973 892.8751,-205.973"/>
</g>
<!-- TsLinkModule  -->
<g id="node36" class="node">
<title>TsLinkModule </title>
<polygon fill="#fb8072" stroke="#000000" points="765.9914,-252 662.0086,-252 662.0086,-216 765.9914,-216 765.9914,-252"/>
<text text-anchor="middle" x="714" y="-229.8" font-family="Times,serif" font-size="14.00" fill="#000000">TsLinkModule </text>
</g>
<!-- TerminusUIModule&#45;&gt;TsLinkModule  -->
<g id="edge35" class="edge">
<title>TerminusUIModule&#45;&gt;TsLinkModule </title>
<path fill="none" stroke="#000000" stroke-dasharray="5,2" d="M1607.7205,-176C1399.6462,-176 757.875,-176 757.875,-176 757.875,-176 757.875,-205.9664 757.875,-205.9664"/>
<polygon fill="#000000" stroke="#000000" points="754.3751,-205.9663 757.875,-215.9664 761.3751,-205.9664 754.3751,-205.9663"/>
</g>
<!-- TsNavigationModule  -->
<g id="node37" class="node">
<title>TsNavigationModule </title>
<polygon fill="#fb8072" stroke="#000000" points="644.7548,-252 505.2452,-252 505.2452,-216 644.7548,-216 644.7548,-252"/>
<text text-anchor="middle" x="575" y="-229.8" font-family="Times,serif" font-size="14.00" fill="#000000">TsNavigationModule </text>
</g>
<!-- TerminusUIModule&#45;&gt;TsNavigationModule  -->
<g id="edge36" class="edge">
<title>TerminusUIModule&#45;&gt;TsNavigationModule </title>
<path fill="none" stroke="#000000" stroke-dasharray="5,2" d="M1607.7992,-174C1379.4759,-174 620.375,-174 620.375,-174 620.375,-174 620.375,-205.998 620.375,-205.998"/>
<polygon fill="#000000" stroke="#000000" points="616.8751,-205.998 620.375,-215.998 623.8751,-205.9981 616.8751,-205.998"/>
</g>
<!-- TsLoadingOverlayModule  -->
<g id="node38" class="node">
<title>TsLoadingOverlayModule </title>
<polygon fill="#fb8072" stroke="#000000" points="487.2919,-252 318.7081,-252 318.7081,-216 487.2919,-216 487.2919,-252"/>
<text text-anchor="middle" x="403" y="-229.8" font-family="Times,serif" font-size="14.00" fill="#000000">TsLoadingOverlayModule </text>
</g>
<!-- TerminusUIModule&#45;&gt;TsLoadingOverlayModule  -->
<g id="edge37" class="edge">
<title>TerminusUIModule&#45;&gt;TsLoadingOverlayModule </title>
<path fill="none" stroke="#000000" stroke-dasharray="5,2" d="M1608.014,-172C1356.5526,-172 449.875,-172 449.875,-172 449.875,-172 449.875,-205.7333 449.875,-205.7333"/>
<polygon fill="#000000" stroke="#000000" points="446.3751,-205.7333 449.875,-215.7333 453.3751,-205.7333 446.3751,-205.7333"/>
</g>
<!-- TsButtonModule -->
<g id="node3" class="node">
<title>TsButtonModule</title>
<polygon fill="#8dd3c7" stroke="#000000" points="2968.6653,-122 2965.6653,-126 2944.6653,-126 2941.6653,-122 2857.3347,-122 2857.3347,-86 2968.6653,-86 2968.6653,-122"/>
<text text-anchor="middle" x="2913" y="-99.8" font-family="Times,serif" font-size="14.00" fill="#000000">TsButtonModule</text>
</g>
<!-- TsButtonModule&#45;&gt;TerminusUIModule -->
<g id="edge2" class="edge">
<title>TsButtonModule&#45;&gt;TerminusUIModule</title>
<path fill="none" stroke="#000000" d="M2897.375,-122.1061C2897.375,-141.3391 2897.375,-169 2897.375,-169 2897.375,-169 1746.1562,-169 1746.1562,-169"/>
<polygon fill="#000000" stroke="#000000" points="1746.1562,-165.5001 1736.1562,-169 1746.1562,-172.5001 1746.1562,-165.5001"/>
</g>
<!-- TsInputModule -->
<g id="node4" class="node">
<title>TsInputModule</title>
<polygon fill="#8dd3c7" stroke="#000000" points="2839.5982,-122 2836.5982,-126 2815.5982,-126 2812.5982,-122 2736.4018,-122 2736.4018,-86 2839.5982,-86 2839.5982,-122"/>
<text text-anchor="middle" x="2788" y="-99.8" font-family="Times,serif" font-size="14.00" fill="#000000">TsInputModule</text>
</g>
<!-- TsInputModule&#45;&gt;TerminusUIModule -->
<g id="edge3" class="edge">
<title>TsInputModule&#45;&gt;TerminusUIModule</title>
<path fill="none" stroke="#000000" d="M2770.375,-122.2222C2770.375,-140.8285 2770.375,-167 2770.375,-167 2770.375,-167 1746.2037,-167 1746.2037,-167"/>
<polygon fill="#000000" stroke="#000000" points="1746.2038,-163.5001 1736.2037,-167 1746.2037,-170.5001 1746.2038,-163.5001"/>
</g>
<!-- TsValidationMessagesModule -->
<g id="node5" class="node">
<title>TsValidationMessagesModule</title>
<polygon fill="#8dd3c7" stroke="#000000" points="2718.5674,-122 2715.5674,-126 2694.5674,-126 2691.5674,-122 2531.4326,-122 2531.4326,-86 2718.5674,-86 2718.5674,-122"/>
<text text-anchor="middle" x="2625" y="-99.8" font-family="Times,serif" font-size="14.00" fill="#000000">TsValidationMessagesModule</text>
</g>
<!-- TsValidationMessagesModule&#45;&gt;TerminusUIModule -->
<g id="edge4" class="edge">
<title>TsValidationMessagesModule&#45;&gt;TerminusUIModule</title>
<path fill="none" stroke="#000000" d="M2605.375,-122.302C2605.375,-140.2699 2605.375,-165 2605.375,-165 2605.375,-165 1746.1546,-165 1746.1546,-165"/>
<polygon fill="#000000" stroke="#000000" points="1746.1547,-161.5001 1736.1546,-165 1746.1546,-168.5001 1746.1547,-161.5001"/>
</g>
<!-- TsMenuModule -->
<g id="node6" class="node">
<title>TsMenuModule</title>
<polygon fill="#8dd3c7" stroke="#000000" points="2513.2064,-122 2510.2064,-126 2489.2064,-126 2486.2064,-122 2406.7936,-122 2406.7936,-86 2513.2064,-86 2513.2064,-122"/>
<text text-anchor="middle" x="2460" y="-99.8" font-family="Times,serif" font-size="14.00" fill="#000000">TsMenuModule</text>
</g>
<!-- TsMenuModule&#45;&gt;TerminusUIModule -->
<g id="edge5" class="edge">
<title>TsMenuModule&#45;&gt;TerminusUIModule</title>
<path fill="none" stroke="#000000" d="M2438.875,-122.0225C2438.875,-139.3734 2438.875,-163 2438.875,-163 2438.875,-163 1746.0643,-163 1746.0643,-163"/>
<polygon fill="#000000" stroke="#000000" points="1746.0643,-159.5001 1736.0643,-163 1746.0643,-166.5001 1746.0643,-159.5001"/>
</g>
<!-- TsSelectModule -->
<g id="node7" class="node">
<title>TsSelectModule</title>
<polygon fill="#8dd3c7" stroke="#000000" points="2388.7549,-122 2385.7549,-126 2364.7549,-126 2361.7549,-122 2281.2451,-122 2281.2451,-86 2388.7549,-86 2388.7549,-122"/>
<text text-anchor="middle" x="2335" y="-99.8" font-family="Times,serif" font-size="14.00" fill="#000000">TsSelectModule</text>
</g>
<!-- TsSelectModule&#45;&gt;TerminusUIModule -->
<g id="edge6" class="edge">
<title>TsSelectModule&#45;&gt;TerminusUIModule</title>
<path fill="none" stroke="#000000" d="M2312.375,-122.0352C2312.375,-138.7344 2312.375,-161 2312.375,-161 2312.375,-161 1746.0379,-161 1746.0379,-161"/>
<polygon fill="#000000" stroke="#000000" points="1746.0379,-157.5001 1736.0379,-161 1746.0379,-164.5001 1746.0379,-157.5001"/>
</g>
<!-- TsToggleModule -->
<g id="node8" class="node">
<title>TsToggleModule</title>
<polygon fill="#8dd3c7" stroke="#000000" points="2263.705,-122 2260.705,-126 2239.705,-126 2236.705,-122 2150.295,-122 2150.295,-86 2263.705,-86 2263.705,-122"/>
<text text-anchor="middle" x="2207" y="-99.8" font-family="Times,serif" font-size="14.00" fill="#000000">TsToggleModule</text>
</g>
<!-- TsToggleModule&#45;&gt;TerminusUIModule -->
<g id="edge7" class="edge">
<title>TsToggleModule&#45;&gt;TerminusUIModule</title>
<path fill="none" stroke="#000000" d="M2182.375,-122.0091C2182.375,-138.0494 2182.375,-159 2182.375,-159 2182.375,-159 1746.1226,-159 1746.1226,-159"/>
<polygon fill="#000000" stroke="#000000" points="1746.1226,-155.5001 1736.1226,-159 1746.1225,-162.5001 1746.1226,-155.5001"/>
</g>
<!-- TsSearchModule -->
<g id="node9" class="node">
<title>TsSearchModule</title>
<polygon fill="#8dd3c7" stroke="#000000" points="2132.6346,-122 2129.6346,-126 2108.6346,-126 2105.6346,-122 2021.3654,-122 2021.3654,-86 2132.6346,-86 2132.6346,-122"/>
<text text-anchor="middle" x="2077" y="-99.8" font-family="Times,serif" font-size="14.00" fill="#000000">TsSearchModule</text>
</g>
<!-- TsSearchModule&#45;&gt;TerminusUIModule -->
<g id="edge8" class="edge">
<title>TsSearchModule&#45;&gt;TerminusUIModule</title>
<path fill="none" stroke="#000000" d="M2050.375,-122.2396C2050.375,-137.5706 2050.375,-157 2050.375,-157 2050.375,-157 1746.1862,-157 1746.1862,-157"/>
<polygon fill="#000000" stroke="#000000" points="1746.1862,-153.5001 1736.1862,-157 1746.1861,-160.5001 1746.1862,-153.5001"/>
</g>
<!-- TsPaginationModule -->
<g id="node10" class="node">
<title>TsPaginationModule</title>
<polygon fill="#8dd3c7" stroke="#000000" points="2002.9313,-122 1999.9313,-126 1978.9313,-126 1975.9313,-122 1869.0687,-122 1869.0687,-86 2002.9313,-86 2002.9313,-122"/>
<text text-anchor="middle" x="1936" y="-99.8" font-family="Times,serif" font-size="14.00" fill="#000000">TsPaginationModule</text>
</g>
<!-- TsPaginationModule&#45;&gt;TerminusUIModule -->
<g id="edge9" class="edge">
<title>TsPaginationModule&#45;&gt;TerminusUIModule</title>
<path fill="none" stroke="#000000" d="M1907.875,-122.1243C1907.875,-136.7832 1907.875,-155 1907.875,-155 1907.875,-155 1746.1423,-155 1746.1423,-155"/>
<polygon fill="#000000" stroke="#000000" points="1746.1423,-151.5001 1736.1423,-155 1746.1423,-158.5001 1746.1423,-151.5001"/>
</g>
<!-- TsCopyModule -->
<g id="node11" class="node">
<title>TsCopyModule</title>
<polygon fill="#8dd3c7" stroke="#000000" points="1850.8837,-122 1847.8837,-126 1826.8837,-126 1823.8837,-122 1747.1163,-122 1747.1163,-86 1850.8837,-86 1850.8837,-122"/>
<text text-anchor="middle" x="1799" y="-99.8" font-family="Times,serif" font-size="14.00" fill="#000000">TsCopyModule</text>
</g>
<!-- TsCopyModule&#45;&gt;TerminusUIModule -->
<g id="edge10" class="edge">
<title>TsCopyModule&#45;&gt;TerminusUIModule</title>
<path fill="none" stroke="#000000" d="M1769.375,-122.2458C1769.375,-136.1772 1769.375,-153 1769.375,-153 1769.375,-153 1746.1364,-153 1746.1364,-153"/>
<polygon fill="#000000" stroke="#000000" points="1746.1364,-149.5001 1736.1364,-153 1746.1364,-156.5001 1746.1364,-149.5001"/>
</g>
<!-- TsTooltipModule -->
<g id="node12" class="node">
<title>TsTooltipModule</title>
<polygon fill="#8dd3c7" stroke="#000000" points="1729.2716,-122 1726.2716,-126 1705.2716,-126 1702.2716,-122 1614.7284,-122 1614.7284,-86 1729.2716,-86 1729.2716,-122"/>
<text text-anchor="middle" x="1672" y="-99.8" font-family="Times,serif" font-size="14.00" fill="#000000">TsTooltipModule</text>
</g>
<!-- TsTooltipModule&#45;&gt;TerminusUIModule -->
<g id="edge11" class="edge">
<title>TsTooltipModule&#45;&gt;TerminusUIModule</title>
<path fill="none" stroke="#000000" d="M1672,-122.1061C1672,-122.1061 1672,-140.991 1672,-140.991"/>
<polygon fill="#000000" stroke="#000000" points="1668.5001,-140.9909 1672,-150.991 1675.5001,-140.991 1668.5001,-140.9909"/>
</g>
<!-- TsDatepickerModule -->
<g id="node13" class="node">
<title>TsDatepickerModule</title>
<polygon fill="#8dd3c7" stroke="#000000" points="1596.4538,-122 1593.4538,-126 1572.4538,-126 1569.4538,-122 1461.5462,-122 1461.5462,-86 1596.4538,-86 1596.4538,-122"/>
<text text-anchor="middle" x="1529" y="-99.8" font-family="Times,serif" font-size="14.00" fill="#000000">TsDatepickerModule</text>
</g>
<!-- TsDatepickerModule&#45;&gt;TerminusUIModule -->
<g id="edge12" class="edge">
<title>TsDatepickerModule&#45;&gt;TerminusUIModule</title>
<path fill="none" stroke="#000000" d="M1572.1706,-122.2458C1572.1706,-136.1772 1572.1706,-153 1572.1706,-153 1572.1706,-153 1597.9293,-153 1597.9293,-153"/>
<polygon fill="#000000" stroke="#000000" points="1597.9294,-156.5001 1607.9293,-153 1597.9293,-149.5001 1597.9294,-156.5001"/>
</g>
<!-- TsDateRangeModule -->
<g id="node14" class="node">
<title>TsDateRangeModule</title>
<polygon fill="#8dd3c7" stroke="#000000" points="1443.7395,-122 1440.7395,-126 1419.7395,-126 1416.7395,-122 1308.2605,-122 1308.2605,-86 1443.7395,-86 1443.7395,-122"/>
<text text-anchor="middle" x="1376" y="-99.8" font-family="Times,serif" font-size="14.00" fill="#000000">TsDateRangeModule</text>
</g>
<!-- TsDateRangeModule&#45;&gt;TerminusUIModule -->
<g id="edge13" class="edge">
<title>TsDateRangeModule&#45;&gt;TerminusUIModule</title>
<path fill="none" stroke="#000000" d="M1417.8214,-122.1243C1417.8214,-136.7832 1417.8214,-155 1417.8214,-155 1417.8214,-155 1597.86,-155 1597.86,-155"/>
<polygon fill="#000000" stroke="#000000" points="1597.86,-158.5001 1607.86,-155 1597.86,-151.5001 1597.86,-158.5001"/>
</g>
<!-- TsSpacingModule -->
<g id="node15" class="node">
<title>TsSpacingModule</title>
<polygon fill="#8dd3c7" stroke="#000000" points="1290.1499,-122 1287.1499,-126 1266.1499,-126 1263.1499,-122 1171.8501,-122 1171.8501,-86 1290.1499,-86 1290.1499,-122"/>
<text text-anchor="middle" x="1231" y="-99.8" font-family="Times,serif" font-size="14.00" fill="#000000">TsSpacingModule</text>
</g>
<!-- TsSpacingModule&#45;&gt;TerminusUIModule -->
<g id="edge14" class="edge">
<title>TsSpacingModule&#45;&gt;TerminusUIModule</title>
<path fill="none" stroke="#000000" d="M1262.3526,-122.2396C1262.3526,-137.5706 1262.3526,-157 1262.3526,-157 1262.3526,-157 1597.9926,-157 1597.9926,-157"/>
<polygon fill="#000000" stroke="#000000" points="1597.9926,-160.5001 1607.9926,-157 1597.9926,-153.5001 1597.9926,-160.5001"/>
</g>
<!-- TsCheckboxModule -->
<g id="node16" class="node">
<title>TsCheckboxModule</title>
<polygon fill="#8dd3c7" stroke="#000000" points="1154.3132,-122 1151.3132,-126 1130.3132,-126 1127.3132,-122 1023.6868,-122 1023.6868,-86 1154.3132,-86 1154.3132,-122"/>
<text text-anchor="middle" x="1089" y="-99.8" font-family="Times,serif" font-size="14.00" fill="#000000">TsCheckboxModule</text>
</g>
<!-- TsCheckboxModule&#45;&gt;TerminusUIModule -->
<g id="edge15" class="edge">
<title>TsCheckboxModule&#45;&gt;TerminusUIModule</title>
<path fill="none" stroke="#000000" d="M1124.0409,-122.0091C1124.0409,-138.0494 1124.0409,-159 1124.0409,-159 1124.0409,-159 1597.8005,-159 1597.8005,-159"/>
<polygon fill="#000000" stroke="#000000" points="1597.8005,-162.5001 1607.8005,-159 1597.8004,-155.5001 1597.8005,-162.5001"/>
</g>
<!-- TsLoginFormModule -->
<g id="node17" class="node">
<title>TsLoginFormModule</title>
<polygon fill="#8dd3c7" stroke="#000000" points="1005.8244,-122 1002.8244,-126 981.8244,-126 978.8244,-122 868.1756,-122 868.1756,-86 1005.8244,-86 1005.8244,-122"/>
<text text-anchor="middle" x="937" y="-99.8" font-family="Times,serif" font-size="14.00" fill="#000000">TsLoginFormModule</text>
</g>
<!-- TsLoginFormModule&#45;&gt;TerminusUIModule -->
<g id="edge16" class="edge">
<title>TsLoginFormModule&#45;&gt;TerminusUIModule</title>
<path fill="none" stroke="#000000" d="M973.8778,-122.0352C973.8778,-138.7344 973.8778,-161 973.8778,-161 973.8778,-161 1597.885,-161 1597.885,-161"/>
<polygon fill="#000000" stroke="#000000" points="1597.885,-164.5001 1607.885,-161 1597.8849,-157.5001 1597.885,-164.5001"/>
</g>
<!-- TsLinkModule -->
<g id="node18" class="node">
<title>TsLinkModule</title>
<polygon fill="#8dd3c7" stroke="#000000" points="849.9902,-122 846.9902,-126 825.9902,-126 822.9902,-122 750.0098,-122 750.0098,-86 849.9902,-86 849.9902,-122"/>
<text text-anchor="middle" x="800" y="-99.8" font-family="Times,serif" font-size="14.00" fill="#000000">TsLinkModule</text>
</g>
<!-- TsLinkModule&#45;&gt;TerminusUIModule -->
<g id="edge17" class="edge">
<title>TsLinkModule&#45;&gt;TerminusUIModule</title>
<path fill="none" stroke="#000000" d="M816.7915,-122.0225C816.7915,-139.3734 816.7915,-163 816.7915,-163 816.7915,-163 1597.7204,-163 1597.7204,-163"/>
<polygon fill="#000000" stroke="#000000" points="1597.7204,-166.5001 1607.7204,-163 1597.7203,-159.5001 1597.7204,-166.5001"/>
</g>
<!-- TsNavigationModule -->
<g id="node19" class="node">
<title>TsNavigationModule</title>
<polygon fill="#8dd3c7" stroke="#000000" points="731.7548,-122 728.7548,-126 707.7548,-126 704.7548,-122 596.2452,-122 596.2452,-86 731.7548,-86 731.7548,-122"/>
<text text-anchor="middle" x="664" y="-99.8" font-family="Times,serif" font-size="14.00" fill="#000000">TsNavigationModule</text>
</g>
<!-- TsNavigationModule&#45;&gt;TerminusUIModule -->
<g id="edge18" class="edge">
<title>TsNavigationModule&#45;&gt;TerminusUIModule</title>
<path fill="none" stroke="#000000" d="M697.0661,-122.302C697.0661,-140.2699 697.0661,-165 697.0661,-165 697.0661,-165 1597.6548,-165 1597.6548,-165"/>
<polygon fill="#000000" stroke="#000000" points="1597.6549,-168.5001 1607.6548,-165 1597.6548,-161.5001 1597.6549,-168.5001"/>
</g>
<!-- TsLoadingOverlayModule -->
<g id="node20" class="node">
<title>TsLoadingOverlayModule</title>
<polygon fill="#8dd3c7" stroke="#000000" points="577.7921,-122 574.7921,-126 553.7921,-126 550.7921,-122 412.2079,-122 412.2079,-86 577.7921,-86 577.7921,-122"/>
<text text-anchor="middle" x="495" y="-99.8" font-family="Times,serif" font-size="14.00" fill="#000000">TsLoadingOverlayModule</text>
</g>
<!-- TsLoadingOverlayModule&#45;&gt;TerminusUIModule -->
<g id="edge19" class="edge">
<title>TsLoadingOverlayModule&#45;&gt;TerminusUIModule</title>
<path fill="none" stroke="#000000" d="M541.5093,-122.2222C541.5093,-140.8285 541.5093,-167 541.5093,-167 541.5093,-167 1597.9808,-167 1597.9808,-167"/>
<polygon fill="#000000" stroke="#000000" points="1597.9809,-170.5001 1607.9808,-167 1597.9808,-163.5001 1597.9809,-170.5001"/>
</g>
<!-- TsWindowService -->
<g id="node39" class="node">
<title>TsWindowService</title>
<ellipse fill="#fdb462" stroke="#000000" cx="305" cy="-104" rx="82.8052" ry="18"/>
<text text-anchor="middle" x="305" y="-99.8" font-family="Times,serif" font-size="14.00" fill="#000000">TsWindowService</text>
</g>
<!-- TsWindowService&#45;&gt;TerminusUIModule -->
<g id="edge38" class="edge">
<title>TsWindowService&#45;&gt;TerminusUIModule</title>
<path fill="none" stroke="#000000" d="M353.2533,-118.7495C353.2533,-137.9272 353.2533,-169 353.2533,-169 353.2533,-169 1597.9484,-169 1597.9484,-169"/>
<polygon fill="#000000" stroke="#000000" points="1597.9485,-172.5001 1607.9484,-169 1597.9484,-165.5001 1597.9485,-172.5001"/>
</g>
<!-- TsDocumentService -->
<g id="node40" class="node">
<title>TsDocumentService</title>
<ellipse fill="#fdb462" stroke="#000000" cx="114" cy="-104" rx="89.746" ry="18"/>
<text text-anchor="middle" x="114" y="-99.8" font-family="Times,serif" font-size="14.00" fill="#000000">TsDocumentService</text>
</g>
<!-- TsDocumentService&#45;&gt;TerminusUIModule -->
<g id="edge39" class="edge">
<title>TsDocumentService&#45;&gt;TerminusUIModule</title>
<path fill="none" stroke="#000000" d="M114,-122.0348C114,-141.5762 114,-170 114,-170 114,-170 1598.0199,-170 1598.0199,-170"/>
<polygon fill="#000000" stroke="#000000" points="1598.02,-173.5001 1608.0199,-170 1598.0199,-166.5001 1598.02,-173.5001"/>
</g>
</g>
</svg>
