<?xml version="1.0" encoding="UTF-8" standalone="no"?>
<!DOCTYPE svg PUBLIC "-//W3C//DTD SVG 1.1//EN"
 "http://www.w3.org/Graphics/SVG/1.1/DTD/svg11.dtd">
<!-- Generated by graphviz version 2.40.1 (20161225.0304)
 -->
<!-- Title: dependencies Pages: 1 -->
<svg width="3345pt" height="284pt"
 viewBox="0.00 0.00 3345.00 284.00" xmlns="http://www.w3.org/2000/svg" xmlns:xlink="http://www.w3.org/1999/xlink">
<g id="graph0" class="graph" transform="scale(1 1) rotate(0) translate(4 280)">
<title>dependencies</title>
<polygon fill="#ffffff" stroke="transparent" points="-4,4 -4,-280 3341,-280 3341,4 -4,4"/>
<text text-anchor="start" x="1647.5091" y="-42.4" font-family="sans-serif" font-weight="bold" font-size="14.00" fill="#000000">Legend</text>
<polygon fill="#ffffb3" stroke="transparent" points="1434.5,-10 1434.5,-30 1454.5,-30 1454.5,-10 1434.5,-10"/>
<text text-anchor="start" x="1458.129" y="-15.4" font-family="sans-serif" font-size="14.00" fill="#000000"> &#160;Declarations</text>
<polygon fill="#8dd3c7" stroke="transparent" points="1547.5,-10 1547.5,-30 1567.5,-30 1567.5,-10 1547.5,-10"/>
<text text-anchor="start" x="1571.2251" y="-15.4" font-family="sans-serif" font-size="14.00" fill="#000000"> &#160;Module</text>
<polygon fill="#80b1d3" stroke="transparent" points="1633.5,-10 1633.5,-30 1653.5,-30 1653.5,-10 1633.5,-10"/>
<text text-anchor="start" x="1657.2812" y="-15.4" font-family="sans-serif" font-size="14.00" fill="#000000"> &#160;Bootstrap</text>
<polygon fill="#fdb462" stroke="transparent" points="1730.5,-10 1730.5,-30 1750.5,-30 1750.5,-10 1730.5,-10"/>
<text text-anchor="start" x="1754.1732" y="-15.4" font-family="sans-serif" font-size="14.00" fill="#000000"> &#160;Providers</text>
<polygon fill="#fb8072" stroke="transparent" points="1826.5,-10 1826.5,-30 1846.5,-30 1846.5,-10 1826.5,-10"/>
<text text-anchor="start" x="1850.2258" y="-15.4" font-family="sans-serif" font-size="14.00" fill="#000000"> &#160;Exports</text>
<g id="clust1" class="cluster">
<title>cluster_TerminusUIModule</title>
<polygon fill="none" stroke="#000000" stroke-dasharray="1,5" points="8,-70 8,-268 3329,-268 3329,-70 8,-70"/>
</g>
<g id="clust2" class="cluster">
<title>cluster_TerminusUIModule_declarations</title>
<polygon fill="none" stroke="#000000" points="3103,-78 3103,-130 3321,-130 3321,-78 3103,-78"/>
</g>
<g id="clust4" class="cluster">
<title>cluster_TerminusUIModule_imports</title>
<polygon fill="none" stroke="#000000" points="404,-78 404,-130 3095,-130 3095,-78 404,-78"/>
</g>
<g id="clust5" class="cluster">
<title>cluster_TerminusUIModule_exports</title>
<polygon fill="none" stroke="#000000" points="299,-208 299,-260 3057,-260 3057,-208 299,-208"/>
</g>
<g id="clust7" class="cluster">
<title>cluster_TerminusUIModule_providers</title>
<polygon fill="none" stroke="#000000" points="16,-78 16,-130 396,-130 396,-78 16,-78"/>
</g>
<!-- TsReactiveFormBaseComponent -->
<g id="node1" class="node">
<title>TsReactiveFormBaseComponent</title>
<polygon fill="#ffffb3" stroke="#000000" points="3312.8501,-122 3111.1499,-122 3111.1499,-86 3312.8501,-86 3312.8501,-122"/>
<text text-anchor="middle" x="3212" y="-99.8" font-family="Times,serif" font-size="14.00" fill="#000000">TsReactiveFormBaseComponent</text>
</g>
<!-- TerminusUIModule -->
<g id="node2" class="node">
<title>TerminusUIModule</title>
<polygon fill="#8dd3c7" stroke="#000000" points="1781.9706,-187 1778.9706,-191 1757.9706,-191 1754.9706,-187 1654.0294,-187 1654.0294,-151 1781.9706,-151 1781.9706,-187"/>
<text text-anchor="middle" x="1718" y="-164.8" font-family="Times,serif" font-size="14.00" fill="#000000">TerminusUIModule</text>
</g>
<!-- TsReactiveFormBaseComponent&#45;&gt;TerminusUIModule -->
<g id="edge1" class="edge">
<title>TsReactiveFormBaseComponent&#45;&gt;TerminusUIModule</title>
<path fill="none" stroke="#000000" d="M3212,-122.1061C3212,-141.3391 3212,-169 3212,-169 3212,-169 1792.1953,-169 1792.1953,-169"/>
<polygon fill="#000000" stroke="#000000" points="1792.1953,-165.5001 1782.1953,-169 1792.1953,-172.5001 1792.1953,-165.5001"/>
</g>
<!-- TsButtonModule  -->
<g id="node22" class="node">
<title>TsButtonModule </title>
<polygon fill="#fb8072" stroke="#000000" points="3048.6649,-252 2933.3351,-252 2933.3351,-216 3048.6649,-216 3048.6649,-252"/>
<text text-anchor="middle" x="2991" y="-229.8" font-family="Times,serif" font-size="14.00" fill="#000000">TsButtonModule </text>
</g>
<!-- TerminusUIModule&#45;&gt;TsButtonModule  -->
<g id="edge21" class="edge">
<title>TerminusUIModule&#45;&gt;TsButtonModule </title>
<path fill="none" stroke="#000000" stroke-dasharray="5,2" d="M1782.2666,-171C2034.8305,-171 2945.4834,-171 2945.4834,-171 2945.4834,-171 2945.4834,-205.7778 2945.4834,-205.7778"/>
<polygon fill="#000000" stroke="#000000" points="2941.9834,-205.7778 2945.4834,-215.7778 2948.9834,-205.7778 2941.9834,-205.7778"/>
</g>
<!-- TsInputModule  -->
<g id="node23" class="node">
<title>TsInputModule </title>
<polygon fill="#fb8072" stroke="#000000" points="2915.099,-252 2808.901,-252 2808.901,-216 2915.099,-216 2915.099,-252"/>
<text text-anchor="middle" x="2862" y="-229.8" font-family="Times,serif" font-size="14.00" fill="#000000">TsInputModule </text>
</g>
<!-- TerminusUIModule&#45;&gt;TsInputModule  -->
<g id="edge22" class="edge">
<title>TerminusUIModule&#45;&gt;TsInputModule </title>
<path fill="none" stroke="#000000" stroke-dasharray="5,2" d="M1782.1635,-173C2017.9158,-173 2822.6173,-173 2822.6173,-173 2822.6173,-173 2822.6173,-205.698 2822.6173,-205.698"/>
<polygon fill="#000000" stroke="#000000" points="2819.1174,-205.698 2822.6173,-215.698 2826.1174,-205.698 2819.1174,-205.698"/>
</g>
<!-- TsValidationMessagesModule  -->
<g id="node24" class="node">
<title>TsValidationMessagesModule </title>
<polygon fill="#fb8072" stroke="#000000" points="2790.0679,-252 2599.9321,-252 2599.9321,-216 2790.0679,-216 2790.0679,-252"/>
<text text-anchor="middle" x="2695" y="-229.8" font-family="Times,serif" font-size="14.00" fill="#000000">TsValidationMessagesModule </text>
</g>
<!-- TerminusUIModule&#45;&gt;TsValidationMessagesModule  -->
<g id="edge23" class="edge">
<title>TerminusUIModule&#45;&gt;TsValidationMessagesModule </title>
<path fill="none" stroke="#000000" stroke-dasharray="5,2" d="M1782.1793,-175C1987.5746,-175 2615.4097,-175 2615.4097,-175 2615.4097,-175 2615.4097,-205.9775 2615.4097,-205.9775"/>
<polygon fill="#000000" stroke="#000000" points="2611.9098,-205.9774 2615.4097,-215.9775 2618.9098,-205.9775 2611.9098,-205.9774"/>
</g>
<!-- TsMenuModule  -->
<g id="node25" class="node">
<title>TsMenuModule </title>
<polygon fill="#fb8072" stroke="#000000" points="2581.7066,-252 2472.2934,-252 2472.2934,-216 2581.7066,-216 2581.7066,-252"/>
<text text-anchor="middle" x="2527" y="-229.8" font-family="Times,serif" font-size="14.00" fill="#000000">TsMenuModule </text>
</g>
<!-- TerminusUIModule&#45;&gt;TsMenuModule  -->
<g id="edge24" class="edge">
<title>TerminusUIModule&#45;&gt;TsMenuModule </title>
<path fill="none" stroke="#000000" stroke-dasharray="5,2" d="M1782.1217,-177C1967.2571,-177 2489.5121,-177 2489.5121,-177 2489.5121,-177 2489.5121,-205.9648 2489.5121,-205.9648"/>
<polygon fill="#000000" stroke="#000000" points="2486.0122,-205.9648 2489.5121,-215.9648 2493.0122,-205.9649 2486.0122,-205.9648"/>
</g>
<!-- TsSelectModule  -->
<g id="node26" class="node">
<title>TsSelectModule </title>
<polygon fill="#fb8072" stroke="#000000" points="2454.7549,-252 2343.2451,-252 2343.2451,-216 2454.7549,-216 2454.7549,-252"/>
<text text-anchor="middle" x="2399" y="-229.8" font-family="Times,serif" font-size="14.00" fill="#000000">TsSelectModule </text>
</g>
<!-- TerminusUIModule&#45;&gt;TsSelectModule  -->
<g id="edge25" class="edge">
<title>TerminusUIModule&#45;&gt;TsSelectModule </title>
<path fill="none" stroke="#000000" stroke-dasharray="5,2" d="M1782.1521,-178C1945.1677,-178 2362.4876,-178 2362.4876,-178 2362.4876,-178 2362.4876,-205.973 2362.4876,-205.973"/>
<polygon fill="#000000" stroke="#000000" points="2358.9876,-205.973 2362.4876,-215.973 2365.9876,-205.973 2358.9876,-205.973"/>
</g>
<!-- TsToggleModule  -->
<g id="node27" class="node">
<title>TsToggleModule </title>
<polygon fill="#fb8072" stroke="#000000" points="2325.2052,-252 2208.7948,-252 2208.7948,-216 2325.2052,-216 2325.2052,-252"/>
<text text-anchor="middle" x="2267" y="-229.8" font-family="Times,serif" font-size="14.00" fill="#000000">TsToggleModule </text>
</g>
<!-- TerminusUIModule&#45;&gt;TsToggleModule  -->
<g id="edge26" class="edge">
<title>TerminusUIModule&#45;&gt;TsToggleModule </title>
<path fill="none" stroke="#000000" stroke-dasharray="5,2" d="M1782.0346,-180C1919.3447,-180 2229.7323,-180 2229.7323,-180 2229.7323,-180 2229.7323,-205.7181 2229.7323,-205.7181"/>
<polygon fill="#000000" stroke="#000000" points="2226.2324,-205.718 2229.7323,-215.7181 2233.2324,-205.7181 2226.2324,-205.718"/>
</g>
<!-- TsSearchModule  -->
<g id="node28" class="node">
<title>TsSearchModule </title>
<polygon fill="#fb8072" stroke="#000000" points="2190.6341,-252 2075.3659,-252 2075.3659,-216 2190.6341,-216 2190.6341,-252"/>
<text text-anchor="middle" x="2133" y="-229.8" font-family="Times,serif" font-size="14.00" fill="#000000">TsSearchModule </text>
</g>
<!-- TerminusUIModule&#45;&gt;TsSearchModule  -->
<g id="edge27" class="edge">
<title>TerminusUIModule&#45;&gt;TsSearchModule </title>
<path fill="none" stroke="#000000" stroke-dasharray="5,2" d="M1782.0446,-182C1890.3628,-182 2098.0742,-182 2098.0742,-182 2098.0742,-182 2098.0742,-205.8129 2098.0742,-205.8129"/>
<polygon fill="#000000" stroke="#000000" points="2094.5742,-205.8129 2098.0742,-215.8129 2101.5742,-205.813 2094.5742,-205.8129"/>
</g>
<!-- TsPaginationModule  -->
<g id="node29" class="node">
<title>TsPaginationModule </title>
<polygon fill="#fb8072" stroke="#000000" points="2057.4306,-252 1920.5694,-252 1920.5694,-216 2057.4306,-216 2057.4306,-252"/>
<text text-anchor="middle" x="1989" y="-229.8" font-family="Times,serif" font-size="14.00" fill="#000000">TsPaginationModule </text>
</g>
<!-- TerminusUIModule&#45;&gt;TsPaginationModule  -->
<g id="edge28" class="edge">
<title>TerminusUIModule&#45;&gt;TsPaginationModule </title>
<path fill="none" stroke="#000000" stroke-dasharray="5,2" d="M1782.0649,-184C1849.114,-184 1944.7383,-184 1944.7383,-184 1944.7383,-184 1944.7383,-205.9489 1944.7383,-205.9489"/>
<polygon fill="#000000" stroke="#000000" points="1941.2383,-205.9488 1944.7383,-215.9489 1948.2383,-205.9489 1941.2383,-205.9488"/>
</g>
<!-- TsCopyModule  -->
<g id="node30" class="node">
<title>TsCopyModule </title>
<polygon fill="#fb8072" stroke="#000000" points="1902.8843,-252 1795.1157,-252 1795.1157,-216 1902.8843,-216 1902.8843,-252"/>
<text text-anchor="middle" x="1849" y="-229.8" font-family="Times,serif" font-size="14.00" fill="#000000">TsCopyModule </text>
</g>
<!-- TerminusUIModule&#45;&gt;TsCopyModule  -->
<g id="edge29" class="edge">
<title>TerminusUIModule&#45;&gt;TsCopyModule </title>
<path fill="none" stroke="#000000" stroke-dasharray="5,2" d="M1781.9811,-186C1803.1233,-186 1821.347,-186 1821.347,-186 1821.347,-186 1821.347,-205.8533 1821.347,-205.8533"/>
<polygon fill="#000000" stroke="#000000" points="1817.847,-205.8532 1821.347,-215.8533 1824.847,-205.8533 1817.847,-205.8532"/>
</g>
<!-- TsTooltipModule  -->
<g id="node31" class="node">
<title>TsTooltipModule </title>
<polygon fill="#fb8072" stroke="#000000" points="1777.2717,-252 1658.7283,-252 1658.7283,-216 1777.2717,-216 1777.2717,-252"/>
<text text-anchor="middle" x="1718" y="-229.8" font-family="Times,serif" font-size="14.00" fill="#000000">TsTooltipModule </text>
</g>
<!-- TerminusUIModule&#45;&gt;TsTooltipModule  -->
<g id="edge30" class="edge">
<title>TerminusUIModule&#45;&gt;TsTooltipModule </title>
<path fill="none" stroke="#000000" stroke-dasharray="5,2" d="M1718,-187.1061C1718,-187.1061 1718,-205.991 1718,-205.991"/>
<polygon fill="#000000" stroke="#000000" points="1714.5001,-205.9909 1718,-215.991 1721.5001,-205.991 1714.5001,-205.9909"/>
</g>
<!-- TsDatepickerModule  -->
<g id="node32" class="node">
<title>TsDatepickerModule </title>
<polygon fill="#fb8072" stroke="#000000" points="1641.4545,-252 1502.5455,-252 1502.5455,-216 1641.4545,-216 1641.4545,-252"/>
<text text-anchor="middle" x="1572" y="-229.8" font-family="Times,serif" font-size="14.00" fill="#000000">TsDatepickerModule </text>
</g>
<!-- TerminusUIModule&#45;&gt;TsDatepickerModule  -->
<g id="edge31" class="edge">
<title>TerminusUIModule&#45;&gt;TsDatepickerModule </title>
<path fill="none" stroke="#000000" stroke-dasharray="5,2" d="M1653.84,-186C1630.7916,-186 1610.375,-186 1610.375,-186 1610.375,-186 1610.375,-205.8533 1610.375,-205.8533"/>
<polygon fill="#000000" stroke="#000000" points="1606.8751,-205.8532 1610.375,-215.8533 1613.8751,-205.8533 1606.8751,-205.8532"/>
</g>
<!-- TsDateRangeModule  -->
<g id="node33" class="node">
<title>TsDateRangeModule </title>
<polygon fill="#fb8072" stroke="#000000" points="1484.7394,-252 1345.2606,-252 1345.2606,-216 1484.7394,-216 1484.7394,-252"/>
<text text-anchor="middle" x="1415" y="-229.8" font-family="Times,serif" font-size="14.00" fill="#000000">TsDateRangeModule </text>
</g>
<!-- TerminusUIModule&#45;&gt;TsDateRangeModule  -->
<g id="edge32" class="edge">
<title>TerminusUIModule&#45;&gt;TsDateRangeModule </title>
<path fill="none" stroke="#000000" stroke-dasharray="5,2" d="M1653.7547,-184C1576.0049,-184 1455.375,-184 1455.375,-184 1455.375,-184 1455.375,-205.9489 1455.375,-205.9489"/>
<polygon fill="#000000" stroke="#000000" points="1451.8751,-205.9488 1455.375,-215.9489 1458.8751,-205.9489 1451.8751,-205.9488"/>
</g>
<!-- TsSpacingModule  -->
<g id="node34" class="node">
<title>TsSpacingModule </title>
<polygon fill="#fb8072" stroke="#000000" points="1327.1495,-252 1204.8505,-252 1204.8505,-216 1327.1495,-216 1327.1495,-252"/>
<text text-anchor="middle" x="1266" y="-229.8" font-family="Times,serif" font-size="14.00" fill="#000000">TsSpacingModule </text>
</g>
<!-- TerminusUIModule&#45;&gt;TsSpacingModule  -->
<g id="edge33" class="edge">
<title>TerminusUIModule&#45;&gt;TsSpacingModule </title>
<path fill="none" stroke="#000000" stroke-dasharray="5,2" d="M1653.9961,-182C1538.7891,-182 1308.375,-182 1308.375,-182 1308.375,-182 1308.375,-205.8129 1308.375,-205.8129"/>
<polygon fill="#000000" stroke="#000000" points="1304.8751,-205.8129 1308.375,-215.8129 1311.8751,-205.813 1304.8751,-205.8129"/>
</g>
<!-- TsCheckboxModule  -->
<g id="node35" class="node">
<title>TsCheckboxModule </title>
<polygon fill="#fb8072" stroke="#000000" points="1186.8129,-252 1053.1871,-252 1053.1871,-216 1186.8129,-216 1186.8129,-252"/>
<text text-anchor="middle" x="1120" y="-229.8" font-family="Times,serif" font-size="14.00" fill="#000000">TsCheckboxModule </text>
</g>
<!-- TerminusUIModule&#45;&gt;TsCheckboxModule  -->
<g id="edge34" class="edge">
<title>TerminusUIModule&#45;&gt;TsCheckboxModule </title>
<path fill="none" stroke="#000000" stroke-dasharray="5,2" d="M1653.9513,-180C1508.2201,-180 1164.375,-180 1164.375,-180 1164.375,-180 1164.375,-205.7181 1164.375,-205.7181"/>
<polygon fill="#000000" stroke="#000000" points="1160.8751,-205.718 1164.375,-215.7181 1167.8751,-205.7181 1160.8751,-205.718"/>
</g>
<!-- TsLoginFormModule  -->
<g id="node36" class="node">
<title>TsLoginFormModule </title>
<polygon fill="#fb8072" stroke="#000000" points="1035.3241,-252 894.6759,-252 894.6759,-216 1035.3241,-216 1035.3241,-252"/>
<text text-anchor="middle" x="965" y="-229.8" font-family="Times,serif" font-size="14.00" fill="#000000">TsLoginFormModule </text>
</g>
<!-- TerminusUIModule&#45;&gt;TsLoginFormModule  -->
<g id="edge35" class="edge">
<title>TerminusUIModule&#45;&gt;TsLoginFormModule </title>
<path fill="none" stroke="#000000" stroke-dasharray="5,2" d="M1654.0002,-178C1479.935,-178 1010.875,-178 1010.875,-178 1010.875,-178 1010.875,-205.973 1010.875,-205.973"/>
<polygon fill="#000000" stroke="#000000" points="1007.3751,-205.973 1010.875,-215.973 1014.3751,-205.973 1007.3751,-205.973"/>
</g>
<!-- TsLinkModule  -->
<g id="node37" class="node">
<title>TsLinkModule </title>
<polygon fill="#fb8072" stroke="#000000" points="876.9914,-252 773.0086,-252 773.0086,-216 876.9914,-216 876.9914,-252"/>
<text text-anchor="middle" x="825" y="-229.8" font-family="Times,serif" font-size="14.00" fill="#000000">TsLinkModule </text>
</g>
<!-- TerminusUIModule&#45;&gt;TsLinkModule  -->
<g id="edge36" class="edge">
<title>TerminusUIModule&#45;&gt;TsLinkModule </title>
<path fill="none" stroke="#000000" stroke-dasharray="5,2" d="M1653.7466,-177C1456.4075,-177 872.375,-177 872.375,-177 872.375,-177 872.375,-205.9648 872.375,-205.9648"/>
<polygon fill="#000000" stroke="#000000" points="868.8751,-205.9648 872.375,-215.9648 875.8751,-205.9649 868.8751,-205.9648"/>
</g>
<!-- TsNavigationModule  -->
<g id="node38" class="node">
<title>TsNavigationModule </title>
<polygon fill="#fb8072" stroke="#000000" points="755.7548,-252 616.2452,-252 616.2452,-216 755.7548,-216 755.7548,-252"/>
<text text-anchor="middle" x="686" y="-229.8" font-family="Times,serif" font-size="14.00" fill="#000000">TsNavigationModule </text>
</g>
<!-- TerminusUIModule&#45;&gt;TsNavigationModule  -->
<g id="edge37" class="edge">
<title>TerminusUIModule&#45;&gt;TsNavigationModule </title>
<path fill="none" stroke="#000000" stroke-dasharray="5,2" d="M1653.8737,-175C1435.5858,-175 734.875,-175 734.875,-175 734.875,-175 734.875,-205.9775 734.875,-205.9775"/>
<polygon fill="#000000" stroke="#000000" points="731.3751,-205.9774 734.875,-215.9775 738.3751,-205.9775 731.3751,-205.9774"/>
</g>
<!-- TsLoadingOverlayModule  -->
<g id="node39" class="node">
<title>TsLoadingOverlayModule </title>
<polygon fill="#fb8072" stroke="#000000" points="598.2919,-252 429.7081,-252 429.7081,-216 598.2919,-216 598.2919,-252"/>
<text text-anchor="middle" x="514" y="-229.8" font-family="Times,serif" font-size="14.00" fill="#000000">TsLoadingOverlayModule </text>
</g>
<!-- TerminusUIModule&#45;&gt;TsLoadingOverlayModule  -->
<g id="edge38" class="edge">
<title>TerminusUIModule&#45;&gt;TsLoadingOverlayModule </title>
<path fill="none" stroke="#000000" stroke-dasharray="5,2" d="M1653.9191,-173C1411.5224,-173 564.375,-173 564.375,-173 564.375,-173 564.375,-205.698 564.375,-205.698"/>
<polygon fill="#000000" stroke="#000000" points="560.8751,-205.698 564.375,-215.698 567.8751,-205.698 560.8751,-205.698"/>
</g>
<!-- TsCardModule  -->
<g id="node40" class="node">
<title>TsCardModule </title>
<polygon fill="#fb8072" stroke="#000000" points="411.2591,-252 306.7409,-252 306.7409,-216 411.2591,-216 411.2591,-252"/>
<text text-anchor="middle" x="359" y="-229.8" font-family="Times,serif" font-size="14.00" fill="#000000">TsCardModule </text>
</g>
<!-- TerminusUIModule&#45;&gt;TsCardModule  -->
<g id="edge39" class="edge">
<title>TerminusUIModule&#45;&gt;TsCardModule </title>
<path fill="none" stroke="#000000" stroke-dasharray="5,2" d="M1653.9612,-171C1389.9184,-171 399.516,-171 399.516,-171 399.516,-171 399.516,-205.7778 399.516,-205.7778"/>
<polygon fill="#000000" stroke="#000000" points="396.0159,-205.7778 399.516,-215.7778 403.0159,-205.7778 396.0159,-205.7778"/>
</g>
<!-- TsButtonModule -->
<g id="node3" class="node">
<title>TsButtonModule</title>
<polygon fill="#8dd3c7" stroke="#000000" points="3086.6653,-122 3083.6653,-126 3062.6653,-126 3059.6653,-122 2975.3347,-122 2975.3347,-86 3086.6653,-86 3086.6653,-122"/>
<text text-anchor="middle" x="3031" y="-99.8" font-family="Times,serif" font-size="14.00" fill="#000000">TsButtonModule</text>
</g>
<!-- TsButtonModule&#45;&gt;TerminusUIModule -->
<g id="edge2" class="edge">
<title>TsButtonModule&#45;&gt;TerminusUIModule</title>
<path fill="none" stroke="#000000" d="M3011.875,-122.1686C3011.875,-141.0898 3011.875,-168 3011.875,-168 3011.875,-168 1792.1635,-168 1792.1635,-168"/>
<polygon fill="#000000" stroke="#000000" points="1792.1635,-164.5001 1782.1635,-168 1792.1634,-171.5001 1792.1635,-164.5001"/>
</g>
<!-- TsInputModule -->
<g id="node4" class="node">
<title>TsInputModule</title>
<polygon fill="#8dd3c7" stroke="#000000" points="2957.5982,-122 2954.5982,-126 2933.5982,-126 2930.5982,-122 2854.4018,-122 2854.4018,-86 2957.5982,-86 2957.5982,-122"/>
<text text-anchor="middle" x="2906" y="-99.8" font-family="Times,serif" font-size="14.00" fill="#000000">TsInputModule</text>
</g>
<!-- TsInputModule&#45;&gt;TerminusUIModule -->
<g id="edge3" class="edge">
<title>TsInputModule&#45;&gt;TerminusUIModule</title>
<path fill="none" stroke="#000000" d="M2884.875,-122.2667C2884.875,-140.5552 2884.875,-166 2884.875,-166 2884.875,-166 1791.9811,-166 1791.9811,-166"/>
<polygon fill="#000000" stroke="#000000" points="1791.9811,-162.5001 1781.9811,-166 1791.981,-169.5001 1791.9811,-162.5001"/>
</g>
<!-- TsValidationMessagesModule -->
<g id="node5" class="node">
<title>TsValidationMessagesModule</title>
<polygon fill="#8dd3c7" stroke="#000000" points="2836.5674,-122 2833.5674,-126 2812.5674,-126 2809.5674,-122 2649.4326,-122 2649.4326,-86 2836.5674,-86 2836.5674,-122"/>
<text text-anchor="middle" x="2743" y="-99.8" font-family="Times,serif" font-size="14.00" fill="#000000">TsValidationMessagesModule</text>
</g>
<!-- TsValidationMessagesModule&#45;&gt;TerminusUIModule -->
<g id="edge4" class="edge">
<title>TsValidationMessagesModule&#45;&gt;TerminusUIModule</title>
<path fill="none" stroke="#000000" d="M2719.875,-122.002C2719.875,-139.6754 2719.875,-164 2719.875,-164 2719.875,-164 1792.1959,-164 1792.1959,-164"/>
<polygon fill="#000000" stroke="#000000" points="1792.1959,-160.5001 1782.1959,-164 1792.1958,-167.5001 1792.1959,-160.5001"/>
</g>
<!-- TsMenuModule -->
<g id="node6" class="node">
<title>TsMenuModule</title>
<polygon fill="#8dd3c7" stroke="#000000" points="2631.2064,-122 2628.2064,-126 2607.2064,-126 2604.2064,-122 2524.7936,-122 2524.7936,-86 2631.2064,-86 2631.2064,-122"/>
<text text-anchor="middle" x="2578" y="-99.8" font-family="Times,serif" font-size="14.00" fill="#000000">TsMenuModule</text>
</g>
<!-- TsMenuModule&#45;&gt;TerminusUIModule -->
<g id="edge5" class="edge">
<title>TsMenuModule&#45;&gt;TerminusUIModule</title>
<path fill="none" stroke="#000000" d="M2553.375,-122.0336C2553.375,-139.0597 2553.375,-162 2553.375,-162 2553.375,-162 1792.1634,-162 1792.1634,-162"/>
<polygon fill="#000000" stroke="#000000" points="1792.1634,-158.5001 1782.1634,-162 1792.1633,-165.5001 1792.1634,-158.5001"/>
</g>
<!-- TsSelectModule -->
<g id="node7" class="node">
<title>TsSelectModule</title>
<polygon fill="#8dd3c7" stroke="#000000" points="2506.7549,-122 2503.7549,-126 2482.7549,-126 2479.7549,-122 2399.2451,-122 2399.2451,-86 2506.7549,-86 2506.7549,-122"/>
<text text-anchor="middle" x="2453" y="-99.8" font-family="Times,serif" font-size="14.00" fill="#000000">TsSelectModule</text>
</g>
<!-- TsSelectModule&#45;&gt;TerminusUIModule -->
<g id="edge6" class="edge">
<title>TsSelectModule&#45;&gt;TerminusUIModule</title>
<path fill="none" stroke="#000000" d="M2426.875,-122.027C2426.875,-138.3976 2426.875,-160 2426.875,-160 2426.875,-160 1792.1582,-160 1792.1582,-160"/>
<polygon fill="#000000" stroke="#000000" points="1792.1582,-156.5001 1782.1582,-160 1792.1581,-163.5001 1792.1582,-156.5001"/>
</g>
<!-- TsToggleModule -->
<g id="node8" class="node">
<title>TsToggleModule</title>
<polygon fill="#8dd3c7" stroke="#000000" points="2381.705,-122 2378.705,-126 2357.705,-126 2354.705,-122 2268.295,-122 2268.295,-86 2381.705,-86 2381.705,-122"/>
<text text-anchor="middle" x="2325" y="-99.8" font-family="Times,serif" font-size="14.00" fill="#000000">TsToggleModule</text>
</g>
<!-- TsToggleModule&#45;&gt;TerminusUIModule -->
<g id="edge7" class="edge">
<title>TsToggleModule&#45;&gt;TerminusUIModule</title>
<path fill="none" stroke="#000000" d="M2296.875,-122.0091C2296.875,-138.0494 2296.875,-159 2296.875,-159 2296.875,-159 1792.1615,-159 1792.1615,-159"/>
<polygon fill="#000000" stroke="#000000" points="1792.1616,-155.5001 1782.1615,-159 1792.1615,-162.5001 1792.1616,-155.5001"/>
</g>
<!-- TsSearchModule -->
<g id="node9" class="node">
<title>TsSearchModule</title>
<polygon fill="#8dd3c7" stroke="#000000" points="2250.6346,-122 2247.6346,-126 2226.6346,-126 2223.6346,-122 2139.3654,-122 2139.3654,-86 2250.6346,-86 2250.6346,-122"/>
<text text-anchor="middle" x="2195" y="-99.8" font-family="Times,serif" font-size="14.00" fill="#000000">TsSearchModule</text>
</g>
<!-- TsSearchModule&#45;&gt;TerminusUIModule -->
<g id="edge8" class="edge">
<title>TsSearchModule&#45;&gt;TerminusUIModule</title>
<path fill="none" stroke="#000000" d="M2164.875,-122.2396C2164.875,-137.5706 2164.875,-157 2164.875,-157 2164.875,-157 1792.0263,-157 1792.0263,-157"/>
<polygon fill="#000000" stroke="#000000" points="1792.0263,-153.5001 1782.0263,-157 1792.0263,-160.5001 1792.0263,-153.5001"/>
</g>
<!-- TsPaginationModule -->
<g id="node10" class="node">
<title>TsPaginationModule</title>
<polygon fill="#8dd3c7" stroke="#000000" points="2120.9313,-122 2117.9313,-126 2096.9313,-126 2093.9313,-122 1987.0687,-122 1987.0687,-86 2120.9313,-86 2120.9313,-122"/>
<text text-anchor="middle" x="2054" y="-99.8" font-family="Times,serif" font-size="14.00" fill="#000000">TsPaginationModule</text>
</g>
<!-- TsPaginationModule&#45;&gt;TerminusUIModule -->
<g id="edge9" class="edge">
<title>TsPaginationModule&#45;&gt;TerminusUIModule</title>
<path fill="none" stroke="#000000" d="M2022.375,-122.1243C2022.375,-136.7832 2022.375,-155 2022.375,-155 2022.375,-155 1792.1782,-155 1792.1782,-155"/>
<polygon fill="#000000" stroke="#000000" points="1792.1782,-151.5001 1782.1782,-155 1792.1782,-158.5001 1792.1782,-151.5001"/>
</g>
<!-- TsCopyModule -->
<g id="node11" class="node">
<title>TsCopyModule</title>
<polygon fill="#8dd3c7" stroke="#000000" points="1968.8837,-122 1965.8837,-126 1944.8837,-126 1941.8837,-122 1865.1163,-122 1865.1163,-86 1968.8837,-86 1968.8837,-122"/>
<text text-anchor="middle" x="1917" y="-99.8" font-family="Times,serif" font-size="14.00" fill="#000000">TsCopyModule</text>
</g>
<!-- TsCopyModule&#45;&gt;TerminusUIModule -->
<g id="edge10" class="edge">
<title>TsCopyModule&#45;&gt;TerminusUIModule</title>
<path fill="none" stroke="#000000" d="M1883.875,-122.2458C1883.875,-136.1772 1883.875,-153 1883.875,-153 1883.875,-153 1792.1316,-153 1792.1316,-153"/>
<polygon fill="#000000" stroke="#000000" points="1792.1316,-149.5001 1782.1316,-153 1792.1316,-156.5001 1792.1316,-149.5001"/>
</g>
<!-- TsTooltipModule -->
<g id="node12" class="node">
<title>TsTooltipModule</title>
<polygon fill="#8dd3c7" stroke="#000000" points="1847.2716,-122 1844.2716,-126 1823.2716,-126 1820.2716,-122 1732.7284,-122 1732.7284,-86 1847.2716,-86 1847.2716,-122"/>
<text text-anchor="middle" x="1790" y="-99.8" font-family="Times,serif" font-size="14.00" fill="#000000">TsTooltipModule</text>
</g>
<!-- TsTooltipModule&#45;&gt;TerminusUIModule -->
<g id="edge11" class="edge">
<title>TsTooltipModule&#45;&gt;TerminusUIModule</title>
<path fill="none" stroke="#000000" d="M1757.2998,-122.1061C1757.2998,-122.1061 1757.2998,-140.991 1757.2998,-140.991"/>
<polygon fill="#000000" stroke="#000000" points="1753.7999,-140.9909 1757.2998,-150.991 1760.7999,-140.991 1753.7999,-140.9909"/>
</g>
<!-- TsDatepickerModule -->
<g id="node13" class="node">
<title>TsDatepickerModule</title>
<polygon fill="#8dd3c7" stroke="#000000" points="1714.4538,-122 1711.4538,-126 1690.4538,-126 1687.4538,-122 1579.5462,-122 1579.5462,-86 1714.4538,-86 1714.4538,-122"/>
<text text-anchor="middle" x="1647" y="-99.8" font-family="Times,serif" font-size="14.00" fill="#000000">TsDatepickerModule</text>
</g>
<!-- TsDatepickerModule&#45;&gt;TerminusUIModule -->
<g id="edge12" class="edge">
<title>TsDatepickerModule&#45;&gt;TerminusUIModule</title>
<path fill="none" stroke="#000000" d="M1684.2458,-122.1061C1684.2458,-122.1061 1684.2458,-140.991 1684.2458,-140.991"/>
<polygon fill="#000000" stroke="#000000" points="1680.7459,-140.9909 1684.2458,-150.991 1687.7459,-140.991 1680.7459,-140.9909"/>
</g>
<!-- TsDateRangeModule -->
<g id="node14" class="node">
<title>TsDateRangeModule</title>
<polygon fill="#8dd3c7" stroke="#000000" points="1561.7395,-122 1558.7395,-126 1537.7395,-126 1534.7395,-122 1426.2605,-122 1426.2605,-86 1561.7395,-86 1561.7395,-122"/>
<text text-anchor="middle" x="1494" y="-99.8" font-family="Times,serif" font-size="14.00" fill="#000000">TsDateRangeModule</text>
</g>
<!-- TsDateRangeModule&#45;&gt;TerminusUIModule -->
<g id="edge13" class="edge">
<title>TsDateRangeModule&#45;&gt;TerminusUIModule</title>
<path fill="none" stroke="#000000" d="M1532.3214,-122.2458C1532.3214,-136.1772 1532.3214,-153 1532.3214,-153 1532.3214,-153 1643.8399,-153 1643.8399,-153"/>
<polygon fill="#000000" stroke="#000000" points="1643.84,-156.5001 1653.8399,-153 1643.8399,-149.5001 1643.84,-156.5001"/>
</g>
<!-- TsSpacingModule -->
<g id="node15" class="node">
<title>TsSpacingModule</title>
<polygon fill="#8dd3c7" stroke="#000000" points="1408.1499,-122 1405.1499,-126 1384.1499,-126 1381.1499,-122 1289.8501,-122 1289.8501,-86 1408.1499,-86 1408.1499,-122"/>
<text text-anchor="middle" x="1349" y="-99.8" font-family="Times,serif" font-size="14.00" fill="#000000">TsSpacingModule</text>
</g>
<!-- TsSpacingModule&#45;&gt;TerminusUIModule -->
<g id="edge14" class="edge">
<title>TsSpacingModule&#45;&gt;TerminusUIModule</title>
<path fill="none" stroke="#000000" d="M1376.8526,-122.1243C1376.8526,-136.7832 1376.8526,-155 1376.8526,-155 1376.8526,-155 1643.8328,-155 1643.8328,-155"/>
<polygon fill="#000000" stroke="#000000" points="1643.8328,-158.5001 1653.8328,-155 1643.8327,-151.5001 1643.8328,-158.5001"/>
</g>
<!-- TsCheckboxModule -->
<g id="node16" class="node">
<title>TsCheckboxModule</title>
<polygon fill="#8dd3c7" stroke="#000000" points="1272.3132,-122 1269.3132,-126 1248.3132,-126 1245.3132,-122 1141.6868,-122 1141.6868,-86 1272.3132,-86 1272.3132,-122"/>
<text text-anchor="middle" x="1207" y="-99.8" font-family="Times,serif" font-size="14.00" fill="#000000">TsCheckboxModule</text>
</g>
<!-- TsCheckboxModule&#45;&gt;TerminusUIModule -->
<g id="edge15" class="edge">
<title>TsCheckboxModule&#45;&gt;TerminusUIModule</title>
<path fill="none" stroke="#000000" d="M1238.5408,-122.2396C1238.5408,-137.5706 1238.5408,-157 1238.5408,-157 1238.5408,-157 1643.8355,-157 1643.8355,-157"/>
<polygon fill="#000000" stroke="#000000" points="1643.8355,-160.5001 1653.8355,-157 1643.8355,-153.5001 1643.8355,-160.5001"/>
</g>
<!-- TsLoginFormModule -->
<g id="node17" class="node">
<title>TsLoginFormModule</title>
<polygon fill="#8dd3c7" stroke="#000000" points="1123.8244,-122 1120.8244,-126 1099.8244,-126 1096.8244,-122 986.1756,-122 986.1756,-86 1123.8244,-86 1123.8244,-122"/>
<text text-anchor="middle" x="1055" y="-99.8" font-family="Times,serif" font-size="14.00" fill="#000000">TsLoginFormModule</text>
</g>
<!-- TsLoginFormModule&#45;&gt;TerminusUIModule -->
<g id="edge16" class="edge">
<title>TsLoginFormModule&#45;&gt;TerminusUIModule</title>
<path fill="none" stroke="#000000" d="M1088.3778,-122.0091C1088.3778,-138.0494 1088.3778,-159 1088.3778,-159 1088.3778,-159 1643.8712,-159 1643.8712,-159"/>
<polygon fill="#000000" stroke="#000000" points="1643.8712,-162.5001 1653.8712,-159 1643.8711,-155.5001 1643.8712,-162.5001"/>
</g>
<!-- TsLinkModule -->
<g id="node18" class="node">
<title>TsLinkModule</title>
<polygon fill="#8dd3c7" stroke="#000000" points="967.9902,-122 964.9902,-126 943.9902,-126 940.9902,-122 868.0098,-122 868.0098,-86 967.9902,-86 967.9902,-122"/>
<text text-anchor="middle" x="918" y="-99.8" font-family="Times,serif" font-size="14.00" fill="#000000">TsLinkModule</text>
</g>
<!-- TsLinkModule&#45;&gt;TerminusUIModule -->
<g id="edge17" class="edge">
<title>TsLinkModule&#45;&gt;TerminusUIModule</title>
<path fill="none" stroke="#000000" d="M931.2916,-122.027C931.2916,-138.3976 931.2916,-160 931.2916,-160 931.2916,-160 1643.9539,-160 1643.9539,-160"/>
<polygon fill="#000000" stroke="#000000" points="1643.9539,-163.5001 1653.9539,-160 1643.9539,-156.5001 1643.9539,-163.5001"/>
</g>
<!-- TsNavigationModule -->
<g id="node19" class="node">
<title>TsNavigationModule</title>
<polygon fill="#8dd3c7" stroke="#000000" points="849.7548,-122 846.7548,-126 825.7548,-126 822.7548,-122 714.2452,-122 714.2452,-86 849.7548,-86 849.7548,-122"/>
<text text-anchor="middle" x="782" y="-99.8" font-family="Times,serif" font-size="14.00" fill="#000000">TsNavigationModule</text>
</g>
<!-- TsNavigationModule&#45;&gt;TerminusUIModule -->
<g id="edge18" class="edge">
<title>TsNavigationModule&#45;&gt;TerminusUIModule</title>
<path fill="none" stroke="#000000" d="M811.5661,-122.0336C811.5661,-139.0597 811.5661,-162 811.5661,-162 811.5661,-162 1643.9002,-162 1643.9002,-162"/>
<polygon fill="#000000" stroke="#000000" points="1643.9002,-165.5001 1653.9002,-162 1643.9001,-158.5001 1643.9002,-165.5001"/>
</g>
<!-- TsLoadingOverlayModule -->
<g id="node20" class="node">
<title>TsLoadingOverlayModule</title>
<polygon fill="#8dd3c7" stroke="#000000" points="695.7921,-122 692.7921,-126 671.7921,-126 668.7921,-122 530.2079,-122 530.2079,-86 695.7921,-86 695.7921,-122"/>
<text text-anchor="middle" x="613" y="-99.8" font-family="Times,serif" font-size="14.00" fill="#000000">TsLoadingOverlayModule</text>
</g>
<!-- TsLoadingOverlayModule&#45;&gt;TerminusUIModule -->
<g id="edge19" class="edge">
<title>TsLoadingOverlayModule&#45;&gt;TerminusUIModule</title>
<path fill="none" stroke="#000000" d="M656.0093,-122.002C656.0093,-139.6754 656.0093,-164 656.0093,-164 656.0093,-164 1643.9593,-164 1643.9593,-164"/>
<polygon fill="#000000" stroke="#000000" points="1643.9594,-167.5001 1653.9593,-164 1643.9593,-160.5001 1643.9594,-167.5001"/>
</g>
<!-- TsCardModule -->
<g id="node21" class="node">
<title>TsCardModule</title>
<polygon fill="#8dd3c7" stroke="#000000" points="512.2591,-122 509.2591,-126 488.2591,-126 485.2591,-122 411.7409,-122 411.7409,-86 512.2591,-86 512.2591,-122"/>
<text text-anchor="middle" x="462" y="-99.8" font-family="Times,serif" font-size="14.00" fill="#000000">TsCardModule</text>
</g>
<!-- TsCardModule&#45;&gt;TerminusUIModule -->
<g id="edge20" class="edge">
<title>TsCardModule&#45;&gt;TerminusUIModule</title>
<path fill="none" stroke="#000000" d="M470.9918,-122.2667C470.9918,-140.5552 470.9918,-166 470.9918,-166 470.9918,-166 1644.0144,-166 1644.0144,-166"/>
<polygon fill="#000000" stroke="#000000" points="1644.0145,-169.5001 1654.0144,-166 1644.0144,-162.5001 1644.0145,-169.5001"/>
</g>
<!-- TsWindowService -->
<g id="node41" class="node">
<title>TsWindowService</title>
<ellipse fill="#fdb462" stroke="#000000" cx="305" cy="-104" rx="82.8052" ry="18"/>
<text text-anchor="middle" x="305" y="-99.8" font-family="Times,serif" font-size="14.00" fill="#000000">TsWindowService</text>
</g>
<!-- TsWindowService&#45;&gt;TerminusUIModule -->
<g id="edge40" class="edge">
<title>TsWindowService&#45;&gt;TerminusUIModule</title>
<path fill="none" stroke="#000000" d="M347.3866,-119.4926C347.3866,-138.4336 347.3866,-168 347.3866,-168 347.3866,-168 1643.7308,-168 1643.7308,-168"/>
<polygon fill="#000000" stroke="#000000" points="1643.7309,-171.5001 1653.7308,-168 1643.7308,-164.5001 1643.7309,-171.5001"/>
</g>
<!-- TsDocumentService -->
<g id="node42" class="node">
<title>TsDocumentService</title>
<ellipse fill="#fdb462" stroke="#000000" cx="114" cy="-104" rx="89.746" ry="18"/>
<text text-anchor="middle" x="114" y="-99.8" font-family="Times,serif" font-size="14.00" fill="#000000">TsDocumentService</text>
</g>
<!-- TsDocumentService&#45;&gt;TerminusUIModule -->
<g id="edge41" class="edge">
<title>TsDocumentService&#45;&gt;TerminusUIModule</title>
<path fill="none" stroke="#000000" d="M114,-122.1061C114,-141.3391 114,-169 114,-169 114,-169 1643.6339,-169 1643.6339,-169"/>
<polygon fill="#000000" stroke="#000000" points="1643.634,-172.5001 1653.6339,-169 1643.6339,-165.5001 1643.634,-172.5001"/>
</g>
</g>
</svg>
