<?xml version="1.0" encoding="UTF-8" standalone="no"?>
<!DOCTYPE svg PUBLIC "-//W3C//DTD SVG 1.1//EN"
 "http://www.w3.org/Graphics/SVG/1.1/DTD/svg11.dtd">
<!-- Generated by graphviz version 2.40.1 (20161225.0304)
 -->
<!-- Title: dependencies Pages: 1 -->
<svg width="3543pt" height="284pt"
 viewBox="0.00 0.00 3543.00 284.00" xmlns="http://www.w3.org/2000/svg" xmlns:xlink="http://www.w3.org/1999/xlink">
<g id="graph0" class="graph" transform="scale(1 1) rotate(0) translate(4 280)">
<title>dependencies</title>
<polygon fill="#ffffff" stroke="transparent" points="-4,4 -4,-280 3539,-280 3539,4 -4,4"/>
<text text-anchor="start" x="1746.5091" y="-42.4" font-family="sans-serif" font-weight="bold" font-size="14.00" fill="#000000">Legend</text>
<polygon fill="#ffffb3" stroke="transparent" points="1533.5,-10 1533.5,-30 1553.5,-30 1553.5,-10 1533.5,-10"/>
<text text-anchor="start" x="1557.129" y="-15.4" font-family="sans-serif" font-size="14.00" fill="#000000"> &#160;Declarations</text>
<polygon fill="#8dd3c7" stroke="transparent" points="1646.5,-10 1646.5,-30 1666.5,-30 1666.5,-10 1646.5,-10"/>
<text text-anchor="start" x="1670.2251" y="-15.4" font-family="sans-serif" font-size="14.00" fill="#000000"> &#160;Module</text>
<polygon fill="#80b1d3" stroke="transparent" points="1732.5,-10 1732.5,-30 1752.5,-30 1752.5,-10 1732.5,-10"/>
<text text-anchor="start" x="1756.2812" y="-15.4" font-family="sans-serif" font-size="14.00" fill="#000000"> &#160;Bootstrap</text>
<polygon fill="#fdb462" stroke="transparent" points="1829.5,-10 1829.5,-30 1849.5,-30 1849.5,-10 1829.5,-10"/>
<text text-anchor="start" x="1853.1732" y="-15.4" font-family="sans-serif" font-size="14.00" fill="#000000"> &#160;Providers</text>
<polygon fill="#fb8072" stroke="transparent" points="1925.5,-10 1925.5,-30 1945.5,-30 1945.5,-10 1925.5,-10"/>
<text text-anchor="start" x="1949.2258" y="-15.4" font-family="sans-serif" font-size="14.00" fill="#000000"> &#160;Exports</text>
<g id="clust1" class="cluster">
<title>cluster_TerminusUIModule</title>
<polygon fill="none" stroke="#000000" stroke-dasharray="1,5" points="8,-70 8,-268 3527,-268 3527,-70 8,-70"/>
</g>
<g id="clust2" class="cluster">
<title>cluster_TerminusUIModule_declarations</title>
<polygon fill="none" stroke="#000000" points="3301,-78 3301,-130 3519,-130 3519,-78 3301,-78"/>
</g>
<g id="clust4" class="cluster">
<title>cluster_TerminusUIModule_imports</title>
<polygon fill="none" stroke="#000000" points="602,-78 602,-130 3293,-130 3293,-78 602,-78"/>
</g>
<g id="clust5" class="cluster">
<title>cluster_TerminusUIModule_exports</title>
<polygon fill="none" stroke="#000000" points="426,-208 426,-260 3184,-260 3184,-208 426,-208"/>
</g>
<g id="clust7" class="cluster">
<title>cluster_TerminusUIModule_providers</title>
<polygon fill="none" stroke="#000000" points="16,-78 16,-130 594,-130 594,-78 16,-78"/>
</g>
<!-- TsReactiveFormBaseComponent -->
<g id="node1" class="node">
<title>TsReactiveFormBaseComponent</title>
<polygon fill="#ffffb3" stroke="#000000" points="3510.8501,-122 3309.1499,-122 3309.1499,-86 3510.8501,-86 3510.8501,-122"/>
<text text-anchor="middle" x="3410" y="-99.8" font-family="Times,serif" font-size="14.00" fill="#000000">TsReactiveFormBaseComponent</text>
</g>
<!-- TerminusUIModule -->
<g id="node2" class="node">
<title>TerminusUIModule</title>
<polygon fill="#8dd3c7" stroke="#000000" points="1908.9706,-187 1905.9706,-191 1884.9706,-191 1881.9706,-187 1781.0294,-187 1781.0294,-151 1908.9706,-151 1908.9706,-187"/>
<text text-anchor="middle" x="1845" y="-164.8" font-family="Times,serif" font-size="14.00" fill="#000000">TerminusUIModule</text>
</g>
<!-- TsReactiveFormBaseComponent&#45;&gt;TerminusUIModule -->
<g id="edge1" class="edge">
<title>TsReactiveFormBaseComponent&#45;&gt;TerminusUIModule</title>
<path fill="none" stroke="#000000" d="M3410,-122.0348C3410,-141.5762 3410,-170 3410,-170 3410,-170 1919.2675,-170 1919.2675,-170"/>
<polygon fill="#000000" stroke="#000000" points="1919.2675,-166.5001 1909.2675,-170 1919.2675,-173.5001 1919.2675,-166.5001"/>
</g>
<!-- TsButtonModule  -->
<g id="node22" class="node">
<title>TsButtonModule </title>
<polygon fill="#fb8072" stroke="#000000" points="3175.6649,-252 3060.3351,-252 3060.3351,-216 3175.6649,-216 3175.6649,-252"/>
<text text-anchor="middle" x="3118" y="-229.8" font-family="Times,serif" font-size="14.00" fill="#000000">TsButtonModule </text>
</g>
<!-- TerminusUIModule&#45;&gt;TsButtonModule  -->
<g id="edge21" class="edge">
<title>TerminusUIModule&#45;&gt;TsButtonModule </title>
<path fill="none" stroke="#000000" stroke-dasharray="5,2" d="M1909.3679,-172C2166.7393,-172 3107.9834,-172 3107.9834,-172 3107.9834,-172 3107.9834,-205.7333 3107.9834,-205.7333"/>
<polygon fill="#000000" stroke="#000000" points="3104.4834,-205.7333 3107.9834,-215.7333 3111.4834,-205.7333 3104.4834,-205.7333"/>
</g>
<!-- TsInputModule  -->
<g id="node23" class="node">
<title>TsInputModule </title>
<polygon fill="#fb8072" stroke="#000000" points="3042.099,-252 2935.901,-252 2935.901,-216 3042.099,-216 3042.099,-252"/>
<text text-anchor="middle" x="2989" y="-229.8" font-family="Times,serif" font-size="14.00" fill="#000000">TsInputModule </text>
</g>
<!-- TerminusUIModule&#45;&gt;TsInputModule  -->
<g id="edge22" class="edge">
<title>TerminusUIModule&#45;&gt;TsInputModule </title>
<path fill="none" stroke="#000000" stroke-dasharray="5,2" d="M1909.1519,-174C2149.7962,-174 2985.1173,-174 2985.1173,-174 2985.1173,-174 2985.1173,-205.998 2985.1173,-205.998"/>
<polygon fill="#000000" stroke="#000000" points="2981.6174,-205.998 2985.1173,-215.998 2988.6174,-205.9981 2981.6174,-205.998"/>
</g>
<!-- TsValidationMessagesModule  -->
<g id="node24" class="node">
<title>TsValidationMessagesModule </title>
<polygon fill="#fb8072" stroke="#000000" points="2917.0679,-252 2726.9321,-252 2726.9321,-216 2917.0679,-216 2917.0679,-252"/>
<text text-anchor="middle" x="2822" y="-229.8" font-family="Times,serif" font-size="14.00" fill="#000000">TsValidationMessagesModule </text>
</g>
<!-- TerminusUIModule&#45;&gt;TsValidationMessagesModule  -->
<g id="edge23" class="edge">
<title>TerminusUIModule&#45;&gt;TsValidationMessagesModule </title>
<path fill="none" stroke="#000000" stroke-dasharray="5,2" d="M1909.0365,-175C2117.1167,-175 2760.8452,-175 2760.8452,-175 2760.8452,-175 2760.8452,-205.9775 2760.8452,-205.9775"/>
<polygon fill="#000000" stroke="#000000" points="2757.3453,-205.9774 2760.8452,-215.9775 2764.3453,-205.9775 2757.3453,-205.9774"/>
</g>
<!-- TsMenuModule  -->
<g id="node25" class="node">
<title>TsMenuModule </title>
<polygon fill="#fb8072" stroke="#000000" points="2708.7066,-252 2599.2934,-252 2599.2934,-216 2708.7066,-216 2708.7066,-252"/>
<text text-anchor="middle" x="2654" y="-229.8" font-family="Times,serif" font-size="14.00" fill="#000000">TsMenuModule </text>
</g>
<!-- TerminusUIModule&#45;&gt;TsMenuModule  -->
<g id="edge24" class="edge">
<title>TerminusUIModule&#45;&gt;TsMenuModule </title>
<path fill="none" stroke="#000000" stroke-dasharray="5,2" d="M1909.2644,-177C2097.4931,-177 2634.3904,-177 2634.3904,-177 2634.3904,-177 2634.3904,-205.9648 2634.3904,-205.9648"/>
<polygon fill="#000000" stroke="#000000" points="2630.8905,-205.9648 2634.3904,-215.9648 2637.8905,-205.9649 2630.8905,-205.9648"/>
</g>
<!-- TsSelectModule  -->
<g id="node26" class="node">
<title>TsSelectModule </title>
<polygon fill="#fb8072" stroke="#000000" points="2581.7549,-252 2470.2451,-252 2470.2451,-216 2581.7549,-216 2581.7549,-252"/>
<text text-anchor="middle" x="2526" y="-229.8" font-family="Times,serif" font-size="14.00" fill="#000000">TsSelectModule </text>
</g>
<!-- TerminusUIModule&#45;&gt;TsSelectModule  -->
<g id="edge25" class="edge">
<title>TerminusUIModule&#45;&gt;TsSelectModule </title>
<path fill="none" stroke="#000000" stroke-dasharray="5,2" d="M1909.0558,-179C2075.1379,-179 2506.7826,-179 2506.7826,-179 2506.7826,-179 2506.7826,-205.9909 2506.7826,-205.9909"/>
<polygon fill="#000000" stroke="#000000" points="2503.2827,-205.9909 2506.7826,-215.9909 2510.2827,-205.991 2503.2827,-205.9909"/>
</g>
<!-- TsToggleModule  -->
<g id="node27" class="node">
<title>TsToggleModule </title>
<polygon fill="#fb8072" stroke="#000000" points="2452.2052,-252 2335.7948,-252 2335.7948,-216 2452.2052,-216 2452.2052,-252"/>
<text text-anchor="middle" x="2394" y="-229.8" font-family="Times,serif" font-size="14.00" fill="#000000">TsToggleModule </text>
</g>
<!-- TerminusUIModule&#45;&gt;TsToggleModule  -->
<g id="edge26" class="edge">
<title>TerminusUIModule&#45;&gt;TsToggleModule </title>
<path fill="none" stroke="#000000" stroke-dasharray="5,2" d="M1909.1209,-181C2050.0649,-181 2374.3943,-181 2374.3943,-181 2374.3943,-181 2374.3943,-205.7604 2374.3943,-205.7604"/>
<polygon fill="#000000" stroke="#000000" points="2370.8944,-205.7604 2374.3943,-215.7604 2377.8944,-205.7604 2370.8944,-205.7604"/>
</g>
<!-- TsSearchModule  -->
<g id="node28" class="node">
<title>TsSearchModule </title>
<polygon fill="#fb8072" stroke="#000000" points="2317.6341,-252 2202.3659,-252 2202.3659,-216 2317.6341,-216 2317.6341,-252"/>
<text text-anchor="middle" x="2260" y="-229.8" font-family="Times,serif" font-size="14.00" fill="#000000">TsSearchModule </text>
</g>
<!-- TerminusUIModule&#45;&gt;TsSearchModule  -->
<g id="edge27" class="edge">
<title>TerminusUIModule&#45;&gt;TsSearchModule </title>
<path fill="none" stroke="#000000" stroke-dasharray="5,2" d="M1909.3884,-182C2025.9542,-182 2260,-182 2260,-182 2260,-182 2260,-205.8129 2260,-205.8129"/>
<polygon fill="#000000" stroke="#000000" points="2256.5001,-205.8129 2260,-215.8129 2263.5001,-205.813 2256.5001,-205.8129"/>
</g>
<!-- TsPaginationModule  -->
<g id="node29" class="node">
<title>TsPaginationModule </title>
<polygon fill="#fb8072" stroke="#000000" points="2184.4306,-252 2047.5694,-252 2047.5694,-216 2184.4306,-216 2184.4306,-252"/>
<text text-anchor="middle" x="2116" y="-229.8" font-family="Times,serif" font-size="14.00" fill="#000000">TsPaginationModule </text>
</g>
<!-- TerminusUIModule&#45;&gt;TsPaginationModule  -->
<g id="edge28" class="edge">
<title>TerminusUIModule&#45;&gt;TsPaginationModule </title>
<path fill="none" stroke="#000000" stroke-dasharray="5,2" d="M1909.2386,-184C1971.0829,-184 2055.2965,-184 2055.2965,-184 2055.2965,-184 2055.2965,-205.9489 2055.2965,-205.9489"/>
<polygon fill="#000000" stroke="#000000" points="2051.7965,-205.9488 2055.2965,-215.9489 2058.7965,-205.9489 2051.7965,-205.9488"/>
</g>
<!-- TsCopyModule  -->
<g id="node30" class="node">
<title>TsCopyModule </title>
<polygon fill="#fb8072" stroke="#000000" points="2029.8843,-252 1922.1157,-252 1922.1157,-216 2029.8843,-216 2029.8843,-252"/>
<text text-anchor="middle" x="1976" y="-229.8" font-family="Times,serif" font-size="14.00" fill="#000000">TsCopyModule </text>
</g>
<!-- TerminusUIModule&#45;&gt;TsCopyModule  -->
<g id="edge29" class="edge">
<title>TerminusUIModule&#45;&gt;TsCopyModule </title>
<path fill="none" stroke="#000000" stroke-dasharray="5,2" d="M1909.1854,-186C1919.2817,-186 1926.4613,-186 1926.4613,-186 1926.4613,-186 1926.4613,-205.8533 1926.4613,-205.8533"/>
<polygon fill="#000000" stroke="#000000" points="1922.9613,-205.8532 1926.4613,-215.8533 1929.9613,-205.8533 1922.9613,-205.8532"/>
</g>
<!-- TsTooltipModule  -->
<g id="node31" class="node">
<title>TsTooltipModule </title>
<polygon fill="#fb8072" stroke="#000000" points="1904.2717,-252 1785.7283,-252 1785.7283,-216 1904.2717,-216 1904.2717,-252"/>
<text text-anchor="middle" x="1845" y="-229.8" font-family="Times,serif" font-size="14.00" fill="#000000">TsTooltipModule </text>
</g>
<!-- TerminusUIModule&#45;&gt;TsTooltipModule  -->
<g id="edge30" class="edge">
<title>TerminusUIModule&#45;&gt;TsTooltipModule </title>
<path fill="none" stroke="#000000" stroke-dasharray="5,2" d="M1845,-187.1061C1845,-187.1061 1845,-205.991 1845,-205.991"/>
<polygon fill="#000000" stroke="#000000" points="1841.5001,-205.9909 1845,-215.991 1848.5001,-205.991 1841.5001,-205.9909"/>
</g>
<!-- TsDatepickerModule  -->
<g id="node32" class="node">
<title>TsDatepickerModule </title>
<polygon fill="#fb8072" stroke="#000000" points="1768.4545,-252 1629.5455,-252 1629.5455,-216 1768.4545,-216 1768.4545,-252"/>
<text text-anchor="middle" x="1699" y="-229.8" font-family="Times,serif" font-size="14.00" fill="#000000">TsDatepickerModule </text>
</g>
<!-- TerminusUIModule&#45;&gt;TsDatepickerModule  -->
<g id="edge31" class="edge">
<title>TerminusUIModule&#45;&gt;TsDatepickerModule </title>
<path fill="none" stroke="#000000" stroke-dasharray="5,2" d="M1780.8215,-186C1770.9964,-186 1764.0483,-186 1764.0483,-186 1764.0483,-186 1764.0483,-205.8533 1764.0483,-205.8533"/>
<polygon fill="#000000" stroke="#000000" points="1760.5483,-205.8532 1764.0483,-215.8533 1767.5483,-205.8533 1760.5483,-205.8532"/>
</g>
<!-- TsDateRangeModule  -->
<g id="node33" class="node">
<title>TsDateRangeModule </title>
<polygon fill="#fb8072" stroke="#000000" points="1611.7394,-252 1472.2606,-252 1472.2606,-216 1611.7394,-216 1611.7394,-252"/>
<text text-anchor="middle" x="1542" y="-229.8" font-family="Times,serif" font-size="14.00" fill="#000000">TsDateRangeModule </text>
</g>
<!-- TerminusUIModule&#45;&gt;TsDateRangeModule  -->
<g id="edge32" class="edge">
<title>TerminusUIModule&#45;&gt;TsDateRangeModule </title>
<path fill="none" stroke="#000000" stroke-dasharray="5,2" d="M1780.6935,-184C1687.8387,-184 1527.2251,-184 1527.2251,-184 1527.2251,-184 1527.2251,-205.9489 1527.2251,-205.9489"/>
<polygon fill="#000000" stroke="#000000" points="1523.7252,-205.9488 1527.2251,-215.9489 1530.7252,-205.9489 1523.7252,-205.9488"/>
</g>
<!-- TsSpacingModule  -->
<g id="node34" class="node">
<title>TsSpacingModule </title>
<polygon fill="#fb8072" stroke="#000000" points="1454.1495,-252 1331.8505,-252 1331.8505,-216 1454.1495,-216 1454.1495,-252"/>
<text text-anchor="middle" x="1393" y="-229.8" font-family="Times,serif" font-size="14.00" fill="#000000">TsSpacingModule </text>
</g>
<!-- TerminusUIModule&#45;&gt;TsSpacingModule  -->
<g id="edge33" class="edge">
<title>TerminusUIModule&#45;&gt;TsSpacingModule </title>
<path fill="none" stroke="#000000" stroke-dasharray="5,2" d="M1780.8067,-182C1656.9194,-182 1396.9592,-182 1396.9592,-182 1396.9592,-182 1396.9592,-205.8129 1396.9592,-205.8129"/>
<polygon fill="#000000" stroke="#000000" points="1393.4592,-205.8129 1396.9592,-215.8129 1400.4592,-205.813 1393.4592,-205.8129"/>
</g>
<!-- TsCheckboxModule  -->
<g id="node35" class="node">
<title>TsCheckboxModule </title>
<polygon fill="#fb8072" stroke="#000000" points="1313.8129,-252 1180.1871,-252 1180.1871,-216 1313.8129,-216 1313.8129,-252"/>
<text text-anchor="middle" x="1247" y="-229.8" font-family="Times,serif" font-size="14.00" fill="#000000">TsCheckboxModule </text>
</g>
<!-- TerminusUIModule&#45;&gt;TsCheckboxModule  -->
<g id="edge34" class="edge">
<title>TerminusUIModule&#45;&gt;TsCheckboxModule </title>
<path fill="none" stroke="#000000" stroke-dasharray="5,2" d="M1780.9478,-181C1627.0469,-181 1249.1222,-181 1249.1222,-181 1249.1222,-181 1249.1222,-205.7604 1249.1222,-205.7604"/>
<polygon fill="#000000" stroke="#000000" points="1245.6223,-205.7604 1249.1222,-215.7604 1252.6223,-205.7604 1245.6223,-205.7604"/>
</g>
<!-- TsLoginFormModule  -->
<g id="node36" class="node">
<title>TsLoginFormModule </title>
<polygon fill="#fb8072" stroke="#000000" points="1162.3241,-252 1021.6759,-252 1021.6759,-216 1162.3241,-216 1162.3241,-252"/>
<text text-anchor="middle" x="1092" y="-229.8" font-family="Times,serif" font-size="14.00" fill="#000000">TsLoginFormModule </text>
</g>
<!-- TerminusUIModule&#45;&gt;TsLoginFormModule  -->
<g id="edge35" class="edge">
<title>TerminusUIModule&#45;&gt;TsLoginFormModule </title>
<path fill="none" stroke="#000000" stroke-dasharray="5,2" d="M1781.0003,-179C1600.1136,-179 1098.1406,-179 1098.1406,-179 1098.1406,-179 1098.1406,-205.9909 1098.1406,-205.9909"/>
<polygon fill="#000000" stroke="#000000" points="1094.6407,-205.9909 1098.1406,-215.9909 1101.6407,-205.991 1094.6407,-205.9909"/>
</g>
<!-- TsLinkModule  -->
<g id="node37" class="node">
<title>TsLinkModule </title>
<polygon fill="#fb8072" stroke="#000000" points="1003.9914,-252 900.0086,-252 900.0086,-216 1003.9914,-216 1003.9914,-252"/>
<text text-anchor="middle" x="952" y="-229.8" font-family="Times,serif" font-size="14.00" fill="#000000">TsLinkModule </text>
</g>
<!-- TerminusUIModule&#45;&gt;TsLinkModule  -->
<g id="edge36" class="edge">
<title>TerminusUIModule&#45;&gt;TsLinkModule </title>
<path fill="none" stroke="#000000" stroke-dasharray="5,2" d="M1780.8475,-177C1577.0842,-177 957.9339,-177 957.9339,-177 957.9339,-177 957.9339,-205.9648 957.9339,-205.9648"/>
<polygon fill="#000000" stroke="#000000" points="954.434,-205.9648 957.9339,-215.9648 961.434,-205.9649 954.434,-205.9648"/>
</g>
<!-- TsNavigationModule  -->
<g id="node38" class="node">
<title>TsNavigationModule </title>
<polygon fill="#fb8072" stroke="#000000" points="882.7548,-252 743.2452,-252 743.2452,-216 882.7548,-216 882.7548,-252"/>
<text text-anchor="middle" x="813" y="-229.8" font-family="Times,serif" font-size="14.00" fill="#000000">TsNavigationModule </text>
</g>
<!-- TerminusUIModule&#45;&gt;TsNavigationModule  -->
<g id="edge37" class="edge">
<title>TerminusUIModule&#45;&gt;TsNavigationModule </title>
<path fill="none" stroke="#000000" stroke-dasharray="5,2" d="M1780.8337,-175C1555.3683,-175 813,-175 813,-175 813,-175 813,-205.9775 813,-205.9775"/>
<polygon fill="#000000" stroke="#000000" points="809.5001,-205.9774 813,-215.9775 816.5001,-205.9775 809.5001,-205.9774"/>
</g>
<!-- TsLoadingOverlayModule  -->
<g id="node39" class="node">
<title>TsLoadingOverlayModule </title>
<polygon fill="#fb8072" stroke="#000000" points="725.2919,-252 556.7081,-252 556.7081,-216 725.2919,-216 725.2919,-252"/>
<text text-anchor="middle" x="641" y="-229.8" font-family="Times,serif" font-size="14.00" fill="#000000">TsLoadingOverlayModule </text>
</g>
<!-- TerminusUIModule&#45;&gt;TsLoadingOverlayModule  -->
<g id="edge38" class="edge">
<title>TerminusUIModule&#45;&gt;TsLoadingOverlayModule </title>
<path fill="none" stroke="#000000" stroke-dasharray="5,2" d="M1780.7633,-174C1541.7973,-174 717.8877,-174 717.8877,-174 717.8877,-174 717.8877,-205.998 717.8877,-205.998"/>
<polygon fill="#000000" stroke="#000000" points="714.3877,-205.998 717.8877,-215.998 721.3877,-205.9981 714.3877,-205.998"/>
</g>
<!-- TsCardModule  -->
<g id="node40" class="node">
<title>TsCardModule </title>
<polygon fill="#fb8072" stroke="#000000" points="538.2591,-252 433.7409,-252 433.7409,-216 538.2591,-216 538.2591,-252"/>
<text text-anchor="middle" x="486" y="-229.8" font-family="Times,serif" font-size="14.00" fill="#000000">TsCardModule </text>
</g>
<!-- TerminusUIModule&#45;&gt;TsCardModule  -->
<g id="edge39" class="edge">
<title>TerminusUIModule&#45;&gt;TsCardModule </title>
<path fill="none" stroke="#000000" stroke-dasharray="5,2" d="M1780.8218,-172C1511.4428,-172 486,-172 486,-172 486,-172 486,-205.7333 486,-205.7333"/>
<polygon fill="#000000" stroke="#000000" points="482.5001,-205.7333 486,-215.7333 489.5001,-205.7333 482.5001,-205.7333"/>
</g>
<!-- TsButtonModule -->
<g id="node3" class="node">
<title>TsButtonModule</title>
<polygon fill="#8dd3c7" stroke="#000000" points="3284.6653,-122 3281.6653,-126 3260.6653,-126 3257.6653,-122 3173.3347,-122 3173.3347,-86 3284.6653,-86 3284.6653,-122"/>
<text text-anchor="middle" x="3229" y="-99.8" font-family="Times,serif" font-size="14.00" fill="#000000">TsButtonModule</text>
</g>
<!-- TsButtonModule&#45;&gt;TerminusUIModule -->
<g id="edge2" class="edge">
<title>TsButtonModule&#45;&gt;TerminusUIModule</title>
<path fill="none" stroke="#000000" d="M3230.2074,-122.1061C3230.2074,-141.3391 3230.2074,-169 3230.2074,-169 3230.2074,-169 1919.0333,-169 1919.0333,-169"/>
<polygon fill="#000000" stroke="#000000" points="1919.0333,-165.5001 1909.0333,-169 1919.0333,-172.5001 1919.0333,-165.5001"/>
</g>
<!-- TsInputModule -->
<g id="node4" class="node">
<title>TsInputModule</title>
<polygon fill="#8dd3c7" stroke="#000000" points="3155.5982,-122 3152.5982,-126 3131.5982,-126 3128.5982,-122 3052.4018,-122 3052.4018,-86 3155.5982,-86 3155.5982,-122"/>
<text text-anchor="middle" x="3104" y="-99.8" font-family="Times,serif" font-size="14.00" fill="#000000">TsInputModule</text>
</g>
<!-- TsInputModule&#45;&gt;TerminusUIModule -->
<g id="edge3" class="edge">
<title>TsInputModule&#45;&gt;TerminusUIModule</title>
<path fill="none" stroke="#000000" d="M3056.4343,-122.2222C3056.4343,-140.8285 3056.4343,-167 3056.4343,-167 3056.4343,-167 1919.2766,-167 1919.2766,-167"/>
<polygon fill="#000000" stroke="#000000" points="1919.2767,-163.5001 1909.2766,-167 1919.2766,-170.5001 1919.2767,-163.5001"/>
</g>
<!-- TsValidationMessagesModule -->
<g id="node5" class="node">
<title>TsValidationMessagesModule</title>
<polygon fill="#8dd3c7" stroke="#000000" points="3034.5674,-122 3031.5674,-126 3010.5674,-126 3007.5674,-122 2847.4326,-122 2847.4326,-86 3034.5674,-86 3034.5674,-122"/>
<text text-anchor="middle" x="2941" y="-99.8" font-family="Times,serif" font-size="14.00" fill="#000000">TsValidationMessagesModule</text>
</g>
<!-- TsValidationMessagesModule&#45;&gt;TerminusUIModule -->
<g id="edge4" class="edge">
<title>TsValidationMessagesModule&#45;&gt;TerminusUIModule</title>
<path fill="none" stroke="#000000" d="M2882.375,-122.302C2882.375,-140.2699 2882.375,-165 2882.375,-165 2882.375,-165 1919.1096,-165 1919.1096,-165"/>
<polygon fill="#000000" stroke="#000000" points="1919.1096,-161.5001 1909.1096,-165 1919.1096,-168.5001 1919.1096,-161.5001"/>
</g>
<!-- TsMenuModule -->
<g id="node6" class="node">
<title>TsMenuModule</title>
<polygon fill="#8dd3c7" stroke="#000000" points="2829.2064,-122 2826.2064,-126 2805.2064,-126 2802.2064,-122 2722.7936,-122 2722.7936,-86 2829.2064,-86 2829.2064,-122"/>
<text text-anchor="middle" x="2776" y="-99.8" font-family="Times,serif" font-size="14.00" fill="#000000">TsMenuModule</text>
</g>
<!-- TsMenuModule&#45;&gt;TerminusUIModule -->
<g id="edge5" class="edge">
<title>TsMenuModule&#45;&gt;TerminusUIModule</title>
<path fill="none" stroke="#000000" d="M2794.9742,-122.0225C2794.9742,-139.3734 2794.9742,-163 2794.9742,-163 2794.9742,-163 1919.1767,-163 1919.1767,-163"/>
<polygon fill="#000000" stroke="#000000" points="1919.1767,-159.5001 1909.1767,-163 1919.1767,-166.5001 1919.1767,-159.5001"/>
</g>
<!-- TsSelectModule -->
<g id="node7" class="node">
<title>TsSelectModule</title>
<polygon fill="#8dd3c7" stroke="#000000" points="2704.7549,-122 2701.7549,-126 2680.7549,-126 2677.7549,-122 2597.2451,-122 2597.2451,-86 2704.7549,-86 2704.7549,-122"/>
<text text-anchor="middle" x="2651" y="-99.8" font-family="Times,serif" font-size="14.00" fill="#000000">TsSelectModule</text>
</g>
<!-- TsSelectModule&#45;&gt;TerminusUIModule -->
<g id="edge6" class="edge">
<title>TsSelectModule&#45;&gt;TerminusUIModule</title>
<path fill="none" stroke="#000000" d="M2669.6338,-122.0336C2669.6338,-139.0597 2669.6338,-162 2669.6338,-162 2669.6338,-162 1919.0214,-162 1919.0214,-162"/>
<polygon fill="#000000" stroke="#000000" points="1919.0215,-158.5001 1909.0214,-162 1919.0214,-165.5001 1919.0215,-158.5001"/>
</g>
<!-- TsToggleModule -->
<g id="node8" class="node">
<title>TsToggleModule</title>
<polygon fill="#8dd3c7" stroke="#000000" points="2579.705,-122 2576.705,-126 2555.705,-126 2552.705,-122 2466.295,-122 2466.295,-86 2579.705,-86 2579.705,-122"/>
<text text-anchor="middle" x="2523" y="-99.8" font-family="Times,serif" font-size="14.00" fill="#000000">TsToggleModule</text>
</g>
<!-- TsToggleModule&#45;&gt;TerminusUIModule -->
<g id="edge7" class="edge">
<title>TsToggleModule&#45;&gt;TerminusUIModule</title>
<path fill="none" stroke="#000000" d="M2543.1925,-122.027C2543.1925,-138.3976 2543.1925,-160 2543.1925,-160 2543.1925,-160 1919.1215,-160 1919.1215,-160"/>
<polygon fill="#000000" stroke="#000000" points="1919.1215,-156.5001 1909.1215,-160 1919.1215,-163.5001 1919.1215,-156.5001"/>
</g>
<!-- TsSearchModule -->
<g id="node9" class="node">
<title>TsSearchModule</title>
<polygon fill="#8dd3c7" stroke="#000000" points="2448.6346,-122 2445.6346,-126 2424.6346,-126 2421.6346,-122 2337.3654,-122 2337.3654,-86 2448.6346,-86 2448.6346,-122"/>
<text text-anchor="middle" x="2393" y="-99.8" font-family="Times,serif" font-size="14.00" fill="#000000">TsSearchModule</text>
</g>
<!-- TsSearchModule&#45;&gt;TerminusUIModule -->
<g id="edge8" class="edge">
<title>TsSearchModule&#45;&gt;TerminusUIModule</title>
<path fill="none" stroke="#000000" d="M2411.6057,-122.2819C2411.6057,-137.9478 2411.6057,-158 2411.6057,-158 2411.6057,-158 1919.1701,-158 1919.1701,-158"/>
<polygon fill="#000000" stroke="#000000" points="1919.1701,-154.5001 1909.1701,-158 1919.1701,-161.5001 1919.1701,-154.5001"/>
</g>
<!-- TsPaginationModule -->
<g id="node10" class="node">
<title>TsPaginationModule</title>
<polygon fill="#8dd3c7" stroke="#000000" points="2318.9313,-122 2315.9313,-126 2294.9313,-126 2291.9313,-122 2185.0687,-122 2185.0687,-86 2318.9313,-86 2318.9313,-122"/>
<text text-anchor="middle" x="2252" y="-99.8" font-family="Times,serif" font-size="14.00" fill="#000000">TsPaginationModule</text>
</g>
<!-- TsPaginationModule&#45;&gt;TerminusUIModule -->
<g id="edge9" class="edge">
<title>TsPaginationModule&#45;&gt;TerminusUIModule</title>
<path fill="none" stroke="#000000" d="M2193.8589,-122.2396C2193.8589,-137.5706 2193.8589,-157 2193.8589,-157 2193.8589,-157 1918.9861,-157 1918.9861,-157"/>
<polygon fill="#000000" stroke="#000000" points="1918.9861,-153.5001 1908.9861,-157 1918.9861,-160.5001 1918.9861,-153.5001"/>
</g>
<!-- TsCopyModule -->
<g id="node11" class="node">
<title>TsCopyModule</title>
<polygon fill="#8dd3c7" stroke="#000000" points="2166.8837,-122 2163.8837,-126 2142.8837,-126 2139.8837,-122 2063.1163,-122 2063.1163,-86 2166.8837,-86 2166.8837,-122"/>
<text text-anchor="middle" x="2115" y="-99.8" font-family="Times,serif" font-size="14.00" fill="#000000">TsCopyModule</text>
</g>
<!-- TsCopyModule&#45;&gt;TerminusUIModule -->
<g id="edge10" class="edge">
<title>TsCopyModule&#45;&gt;TerminusUIModule</title>
<path fill="none" stroke="#000000" d="M2115,-122.1243C2115,-136.7832 2115,-155 2115,-155 2115,-155 1918.9862,-155 1918.9862,-155"/>
<polygon fill="#000000" stroke="#000000" points="1918.9863,-151.5001 1908.9862,-155 1918.9862,-158.5001 1918.9863,-151.5001"/>
</g>
<!-- TsTooltipModule -->
<g id="node12" class="node">
<title>TsTooltipModule</title>
<polygon fill="#8dd3c7" stroke="#000000" points="2045.2716,-122 2042.2716,-126 2021.2716,-126 2018.2716,-122 1930.7284,-122 1930.7284,-86 2045.2716,-86 2045.2716,-122"/>
<text text-anchor="middle" x="1988" y="-99.8" font-family="Times,serif" font-size="14.00" fill="#000000">TsTooltipModule</text>
</g>
<!-- TsTooltipModule&#45;&gt;TerminusUIModule -->
<g id="edge11" class="edge">
<title>TsTooltipModule&#45;&gt;TerminusUIModule</title>
<path fill="none" stroke="#000000" d="M1980.1531,-122.2458C1980.1531,-136.1772 1980.1531,-153 1980.1531,-153 1980.1531,-153 1919.0144,-153 1919.0144,-153"/>
<polygon fill="#000000" stroke="#000000" points="1919.0144,-149.5001 1909.0144,-153 1919.0144,-156.5001 1919.0144,-149.5001"/>
</g>
<!-- TsDatepickerModule -->
<g id="node13" class="node">
<title>TsDatepickerModule</title>
<polygon fill="#8dd3c7" stroke="#000000" points="1912.4538,-122 1909.4538,-126 1888.4538,-126 1885.4538,-122 1777.5462,-122 1777.5462,-86 1912.4538,-86 1912.4538,-122"/>
<text text-anchor="middle" x="1845" y="-99.8" font-family="Times,serif" font-size="14.00" fill="#000000">TsDatepickerModule</text>
</g>
<!-- TsDatepickerModule&#45;&gt;TerminusUIModule -->
<g id="edge12" class="edge">
<title>TsDatepickerModule&#45;&gt;TerminusUIModule</title>
<path fill="none" stroke="#000000" d="M1845,-122.1061C1845,-122.1061 1845,-140.991 1845,-140.991"/>
<polygon fill="#000000" stroke="#000000" points="1841.5001,-140.9909 1845,-150.991 1848.5001,-140.991 1841.5001,-140.9909"/>
</g>
<!-- TsDateRangeModule -->
<g id="node14" class="node">
<title>TsDateRangeModule</title>
<polygon fill="#8dd3c7" stroke="#000000" points="1759.7395,-122 1756.7395,-126 1735.7395,-126 1732.7395,-122 1624.2605,-122 1624.2605,-86 1759.7395,-86 1759.7395,-122"/>
<text text-anchor="middle" x="1692" y="-99.8" font-family="Times,serif" font-size="14.00" fill="#000000">TsDateRangeModule</text>
</g>
<!-- TsDateRangeModule&#45;&gt;TerminusUIModule -->
<g id="edge13" class="edge">
<title>TsDateRangeModule&#45;&gt;TerminusUIModule</title>
<path fill="none" stroke="#000000" d="M1694.8214,-122.2458C1694.8214,-136.1772 1694.8214,-153 1694.8214,-153 1694.8214,-153 1770.8751,-153 1770.8751,-153"/>
<polygon fill="#000000" stroke="#000000" points="1770.8752,-156.5001 1780.8751,-153 1770.8751,-149.5001 1770.8752,-156.5001"/>
</g>
<!-- TsSpacingModule -->
<g id="node15" class="node">
<title>TsSpacingModule</title>
<polygon fill="#8dd3c7" stroke="#000000" points="1606.1499,-122 1603.1499,-126 1582.1499,-126 1579.1499,-122 1487.8501,-122 1487.8501,-86 1606.1499,-86 1606.1499,-122"/>
<text text-anchor="middle" x="1547" y="-99.8" font-family="Times,serif" font-size="14.00" fill="#000000">TsSpacingModule</text>
</g>
<!-- TsSpacingModule&#45;&gt;TerminusUIModule -->
<g id="edge14" class="edge">
<title>TsSpacingModule&#45;&gt;TerminusUIModule</title>
<path fill="none" stroke="#000000" d="M1566.7749,-122.1243C1566.7749,-136.7832 1566.7749,-155 1566.7749,-155 1566.7749,-155 1770.8202,-155 1770.8202,-155"/>
<polygon fill="#000000" stroke="#000000" points="1770.8202,-158.5001 1780.8202,-155 1770.8202,-151.5001 1770.8202,-158.5001"/>
</g>
<!-- TsCheckboxModule -->
<g id="node16" class="node">
<title>TsCheckboxModule</title>
<polygon fill="#8dd3c7" stroke="#000000" points="1470.3132,-122 1467.3132,-126 1446.3132,-126 1443.3132,-122 1339.6868,-122 1339.6868,-86 1470.3132,-86 1470.3132,-122"/>
<text text-anchor="middle" x="1405" y="-99.8" font-family="Times,serif" font-size="14.00" fill="#000000">TsCheckboxModule</text>
</g>
<!-- TsCheckboxModule&#45;&gt;TerminusUIModule -->
<g id="edge15" class="edge">
<title>TsCheckboxModule&#45;&gt;TerminusUIModule</title>
<path fill="none" stroke="#000000" d="M1462.1156,-122.2396C1462.1156,-137.5706 1462.1156,-157 1462.1156,-157 1462.1156,-157 1770.9138,-157 1770.9138,-157"/>
<polygon fill="#000000" stroke="#000000" points="1770.9138,-160.5001 1780.9138,-157 1770.9137,-153.5001 1770.9138,-160.5001"/>
</g>
<!-- TsLoginFormModule -->
<g id="node17" class="node">
<title>TsLoginFormModule</title>
<polygon fill="#8dd3c7" stroke="#000000" points="1321.8244,-122 1318.8244,-126 1297.8244,-126 1294.8244,-122 1184.1756,-122 1184.1756,-86 1321.8244,-86 1321.8244,-122"/>
<text text-anchor="middle" x="1253" y="-99.8" font-family="Times,serif" font-size="14.00" fill="#000000">TsLoginFormModule</text>
</g>
<!-- TsLoginFormModule&#45;&gt;TerminusUIModule -->
<g id="edge16" class="edge">
<title>TsLoginFormModule&#45;&gt;TerminusUIModule</title>
<path fill="none" stroke="#000000" d="M1317.7842,-122.2819C1317.7842,-137.9478 1317.7842,-158 1317.7842,-158 1317.7842,-158 1770.8801,-158 1770.8801,-158"/>
<polygon fill="#000000" stroke="#000000" points="1770.8801,-161.5001 1780.8801,-158 1770.88,-154.5001 1770.8801,-161.5001"/>
</g>
<!-- TsLinkModule -->
<g id="node18" class="node">
<title>TsLinkModule</title>
<polygon fill="#8dd3c7" stroke="#000000" points="1165.9902,-122 1162.9902,-126 1141.9902,-126 1138.9902,-122 1066.0098,-122 1066.0098,-86 1165.9902,-86 1165.9902,-122"/>
<text text-anchor="middle" x="1116" y="-99.8" font-family="Times,serif" font-size="14.00" fill="#000000">TsLinkModule</text>
</g>
<!-- TsLinkModule&#45;&gt;TerminusUIModule -->
<g id="edge17" class="edge">
<title>TsLinkModule&#45;&gt;TerminusUIModule</title>
<path fill="none" stroke="#000000" d="M1130.2763,-122.027C1130.2763,-138.3976 1130.2763,-160 1130.2763,-160 1130.2763,-160 1770.944,-160 1770.944,-160"/>
<polygon fill="#000000" stroke="#000000" points="1770.9441,-163.5001 1780.944,-160 1770.944,-156.5001 1770.9441,-163.5001"/>
</g>
<!-- TsNavigationModule -->
<g id="node19" class="node">
<title>TsNavigationModule</title>
<polygon fill="#8dd3c7" stroke="#000000" points="1047.7548,-122 1044.7548,-126 1023.7548,-126 1020.7548,-122 912.2452,-122 912.2452,-86 1047.7548,-86 1047.7548,-122"/>
<text text-anchor="middle" x="980" y="-99.8" font-family="Times,serif" font-size="14.00" fill="#000000">TsNavigationModule</text>
</g>
<!-- TsNavigationModule&#45;&gt;TerminusUIModule -->
<g id="edge18" class="edge">
<title>TsNavigationModule&#45;&gt;TerminusUIModule</title>
<path fill="none" stroke="#000000" d="M1034.7327,-122.0336C1034.7327,-139.0597 1034.7327,-162 1034.7327,-162 1034.7327,-162 1770.7424,-162 1770.7424,-162"/>
<polygon fill="#000000" stroke="#000000" points="1770.7424,-165.5001 1780.7424,-162 1770.7424,-158.5001 1770.7424,-165.5001"/>
</g>
<!-- TsLoadingOverlayModule -->
<g id="node20" class="node">
<title>TsLoadingOverlayModule</title>
<polygon fill="#8dd3c7" stroke="#000000" points="893.7921,-122 890.7921,-126 869.7921,-126 866.7921,-122 728.2079,-122 728.2079,-86 893.7921,-86 893.7921,-122"/>
<text text-anchor="middle" x="811" y="-99.8" font-family="Times,serif" font-size="14.00" fill="#000000">TsLoadingOverlayModule</text>
</g>
<!-- TsLoadingOverlayModule&#45;&gt;TerminusUIModule -->
<g id="edge19" class="edge">
<title>TsLoadingOverlayModule&#45;&gt;TerminusUIModule</title>
<path fill="none" stroke="#000000" d="M888.1366,-122.0225C888.1366,-139.3734 888.1366,-163 888.1366,-163 888.1366,-163 1770.7317,-163 1770.7317,-163"/>
<polygon fill="#000000" stroke="#000000" points="1770.7317,-166.5001 1780.7317,-163 1770.7317,-159.5001 1770.7317,-166.5001"/>
</g>
<!-- TsCardModule -->
<g id="node21" class="node">
<title>TsCardModule</title>
<polygon fill="#8dd3c7" stroke="#000000" points="710.2591,-122 707.2591,-126 686.2591,-126 683.2591,-122 609.7409,-122 609.7409,-86 710.2591,-86 710.2591,-122"/>
<text text-anchor="middle" x="660" y="-99.8" font-family="Times,serif" font-size="14.00" fill="#000000">TsCardModule</text>
</g>
<!-- TsCardModule&#45;&gt;TerminusUIModule -->
<g id="edge20" class="edge">
<title>TsCardModule&#45;&gt;TerminusUIModule</title>
<path fill="none" stroke="#000000" d="M660,-122.302C660,-140.2699 660,-165 660,-165 660,-165 1770.8691,-165 1770.8691,-165"/>
<polygon fill="#000000" stroke="#000000" points="1770.8691,-168.5001 1780.8691,-165 1770.8691,-161.5001 1770.8691,-168.5001"/>
</g>
<!-- TsWindowService -->
<g id="node41" class="node">
<title>TsWindowService</title>
<ellipse fill="#fdb462" stroke="#000000" cx="503" cy="-104" rx="82.8052" ry="18"/>
<text text-anchor="middle" x="503" y="-99.8" font-family="Times,serif" font-size="14.00" fill="#000000">TsWindowService</text>
</g>
<!-- TsWindowService&#45;&gt;TerminusUIModule -->
<g id="edge40" class="edge">
<title>TsWindowService&#45;&gt;TerminusUIModule</title>
<path fill="none" stroke="#000000" d="M571.2533,-114.4032C571.2533,-132.2969 571.2533,-167 571.2533,-167 571.2533,-167 1770.9618,-167 1770.9618,-167"/>
<polygon fill="#000000" stroke="#000000" points="1770.9618,-170.5001 1780.9618,-167 1770.9618,-163.5001 1770.9618,-170.5001"/>
</g>
<!-- TsDocumentService -->
<g id="node42" class="node">
<title>TsDocumentService</title>
<ellipse fill="#fdb462" stroke="#000000" cx="312" cy="-104" rx="89.746" ry="18"/>
<text text-anchor="middle" x="312" y="-99.8" font-family="Times,serif" font-size="14.00" fill="#000000">TsDocumentService</text>
</g>
<!-- TsDocumentService&#45;&gt;TerminusUIModule -->
<g id="edge41" class="edge">
<title>TsDocumentService&#45;&gt;TerminusUIModule</title>
<path fill="none" stroke="#000000" d="M312,-122.1061C312,-141.3391 312,-169 312,-169 312,-169 1770.5952,-169 1770.5952,-169"/>
<polygon fill="#000000" stroke="#000000" points="1770.5952,-172.5001 1780.5952,-169 1770.5951,-165.5001 1770.5952,-172.5001"/>
</g>
<!-- TsValidatorsService -->
<g id="node43" class="node">
<title>TsValidatorsService</title>
<ellipse fill="#fdb462" stroke="#000000" cx="114" cy="-104" rx="89.7402" ry="18"/>
<text text-anchor="middle" x="114" y="-99.8" font-family="Times,serif" font-size="14.00" fill="#000000">TsValidatorsService</text>
</g>
<!-- TsValidatorsService&#45;&gt;TerminusUIModule -->
<g id="edge42" class="edge">
<title>TsValidatorsService&#45;&gt;TerminusUIModule</title>
<path fill="none" stroke="#000000" d="M114,-122.0348C114,-141.5762 114,-170 114,-170 114,-170 1770.8219,-170 1770.8219,-170"/>
<polygon fill="#000000" stroke="#000000" points="1770.8219,-173.5001 1780.8219,-170 1770.8218,-166.5001 1770.8219,-173.5001"/>
</g>
</g>
</svg>
