<?xml version="1.0" encoding="UTF-8" standalone="no"?>
<!DOCTYPE svg PUBLIC "-//W3C//DTD SVG 1.1//EN"
 "http://www.w3.org/Graphics/SVG/1.1/DTD/svg11.dtd">
<!-- Generated by graphviz version 2.40.1 (20161225.0304)
 -->
<!-- Title: dependencies Pages: 1 -->
<svg width="4378pt" height="284pt"
 viewBox="0.00 0.00 4378.00 284.00" xmlns="http://www.w3.org/2000/svg" xmlns:xlink="http://www.w3.org/1999/xlink">
<g id="graph0" class="graph" transform="scale(1 1) rotate(0) translate(4 280)">
<title>dependencies</title>
<polygon fill="#ffffff" stroke="transparent" points="-4,4 -4,-280 4374,-280 4374,4 -4,4"/>
<text text-anchor="start" x="2164.0091" y="-42.4" font-family="sans-serif" font-weight="bold" font-size="14.00" fill="#000000">Legend</text>
<polygon fill="#ffffb3" stroke="transparent" points="1951,-10 1951,-30 1971,-30 1971,-10 1951,-10"/>
<text text-anchor="start" x="1974.629" y="-15.4" font-family="sans-serif" font-size="14.00" fill="#000000"> &#160;Declarations</text>
<polygon fill="#8dd3c7" stroke="transparent" points="2064,-10 2064,-30 2084,-30 2084,-10 2064,-10"/>
<text text-anchor="start" x="2087.7251" y="-15.4" font-family="sans-serif" font-size="14.00" fill="#000000"> &#160;Module</text>
<polygon fill="#80b1d3" stroke="transparent" points="2150,-10 2150,-30 2170,-30 2170,-10 2150,-10"/>
<text text-anchor="start" x="2173.7812" y="-15.4" font-family="sans-serif" font-size="14.00" fill="#000000"> &#160;Bootstrap</text>
<polygon fill="#fdb462" stroke="transparent" points="2247,-10 2247,-30 2267,-30 2267,-10 2247,-10"/>
<text text-anchor="start" x="2270.6732" y="-15.4" font-family="sans-serif" font-size="14.00" fill="#000000"> &#160;Providers</text>
<polygon fill="#fb8072" stroke="transparent" points="2343,-10 2343,-30 2363,-30 2363,-10 2343,-10"/>
<text text-anchor="start" x="2366.7258" y="-15.4" font-family="sans-serif" font-size="14.00" fill="#000000"> &#160;Exports</text>
<g id="clust1" class="cluster">
<title>cluster_TerminusUIModule</title>
<polygon fill="none" stroke="#000000" stroke-dasharray="1,5" points="8,-70 8,-268 4362,-268 4362,-70 8,-70"/>
</g>
<g id="clust2" class="cluster">
<title>cluster_TerminusUIModule_declarations</title>
<polygon fill="none" stroke="#000000" points="4136,-78 4136,-130 4354,-130 4354,-78 4136,-78"/>
</g>
<g id="clust4" class="cluster">
<title>cluster_TerminusUIModule_imports</title>
<polygon fill="none" stroke="#000000" points="602,-78 602,-130 4128,-130 4128,-78 602,-78"/>
</g>
<g id="clust5" class="cluster">
<title>cluster_TerminusUIModule_exports</title>
<polygon fill="none" stroke="#000000" points="420,-208 420,-260 4032,-260 4032,-208 420,-208"/>
</g>
<g id="clust7" class="cluster">
<title>cluster_TerminusUIModule_providers</title>
<polygon fill="none" stroke="#000000" points="16,-78 16,-130 594,-130 594,-78 16,-78"/>
</g>
<!-- TsReactiveFormBaseComponent -->
<g id="node1" class="node">
<title>TsReactiveFormBaseComponent</title>
<polygon fill="#ffffb3" stroke="#000000" points="4345.8501,-122 4144.1499,-122 4144.1499,-86 4345.8501,-86 4345.8501,-122"/>
<text text-anchor="middle" x="4245" y="-99.8" font-family="Times,serif" font-size="14.00" fill="#000000">TsReactiveFormBaseComponent</text>
</g>
<!-- TerminusUIModule -->
<g id="node2" class="node">
<title>TerminusUIModule</title>
<polygon fill="#8dd3c7" stroke="#000000" points="2285.9706,-187 2282.9706,-191 2261.9706,-191 2258.9706,-187 2158.0294,-187 2158.0294,-151 2285.9706,-151 2285.9706,-187"/>
<text text-anchor="middle" x="2222" y="-164.8" font-family="Times,serif" font-size="14.00" fill="#000000">TerminusUIModule</text>
</g>
<!-- TsReactiveFormBaseComponent&#45;&gt;TerminusUIModule -->
<g id="edge1" class="edge">
<title>TsReactiveFormBaseComponent&#45;&gt;TerminusUIModule</title>
<path fill="none" stroke="#000000" d="M4245,-122.1061C4245,-141.3391 4245,-169 4245,-169 4245,-169 2296.1677,-169 2296.1677,-169"/>
<polygon fill="#000000" stroke="#000000" points="2296.1678,-165.5001 2286.1677,-169 2296.1677,-172.5001 2296.1678,-165.5001"/>
</g>
<!-- TsAutocompleteModule  -->
<g id="node28" class="node">
<title>TsAutocompleteModule </title>
<polygon fill="#fb8072" stroke="#000000" points="4024.3602,-252 3867.6398,-252 3867.6398,-216 4024.3602,-216 4024.3602,-252"/>
<text text-anchor="middle" x="3946" y="-229.8" font-family="Times,serif" font-size="14.00" fill="#000000">TsAutocompleteModule </text>
</g>
<!-- TerminusUIModule&#45;&gt;TsAutocompleteModule  -->
<g id="edge27" class="edge">
<title>TerminusUIModule&#45;&gt;TsAutocompleteModule </title>
<path fill="none" stroke="#000000" stroke-dasharray="5,2" d="M2286.0658,-171C2594.1849,-171 3908.8263,-171 3908.8263,-171 3908.8263,-171 3908.8263,-205.7778 3908.8263,-205.7778"/>
<polygon fill="#000000" stroke="#000000" points="3905.3263,-205.7778 3908.8263,-215.7778 3912.3263,-205.7778 3905.3263,-205.7778"/>
</g>
<!-- TsButtonModule  -->
<g id="node29" class="node">
<title>TsButtonModule </title>
<polygon fill="#fb8072" stroke="#000000" points="3849.6649,-252 3734.3351,-252 3734.3351,-216 3849.6649,-216 3849.6649,-252"/>
<text text-anchor="middle" x="3792" y="-229.8" font-family="Times,serif" font-size="14.00" fill="#000000">TsButtonModule </text>
</g>
<!-- TerminusUIModule&#45;&gt;TsButtonModule  -->
<g id="edge28" class="edge">
<title>TerminusUIModule&#45;&gt;TsButtonModule </title>
<path fill="none" stroke="#000000" stroke-dasharray="5,2" d="M2286.3624,-172C2579.8919,-172 3777.3985,-172 3777.3985,-172 3777.3985,-172 3777.3985,-205.7333 3777.3985,-205.7333"/>
<polygon fill="#000000" stroke="#000000" points="3773.8986,-205.7333 3777.3985,-215.7333 3780.8986,-205.7333 3773.8986,-205.7333"/>
</g>
<!-- TsCardModule  -->
<g id="node30" class="node">
<title>TsCardModule </title>
<polygon fill="#fb8072" stroke="#000000" points="3716.2591,-252 3611.7409,-252 3611.7409,-216 3716.2591,-216 3716.2591,-252"/>
<text text-anchor="middle" x="3664" y="-229.8" font-family="Times,serif" font-size="14.00" fill="#000000">TsCardModule </text>
</g>
<!-- TerminusUIModule&#45;&gt;TsCardModule  -->
<g id="edge29" class="edge">
<title>TerminusUIModule&#45;&gt;TsCardModule </title>
<path fill="none" stroke="#000000" stroke-dasharray="5,2" d="M2286.4249,-174C2565.5565,-174 3656.5135,-174 3656.5135,-174 3656.5135,-174 3656.5135,-205.998 3656.5135,-205.998"/>
<polygon fill="#000000" stroke="#000000" points="3653.0136,-205.998 3656.5135,-215.998 3660.0136,-205.9981 3653.0136,-205.998"/>
</g>
<!-- TsCheckboxModule  -->
<g id="node31" class="node">
<title>TsCheckboxModule </title>
<polygon fill="#fb8072" stroke="#000000" points="3593.8129,-252 3460.1871,-252 3460.1871,-216 3593.8129,-216 3593.8129,-252"/>
<text text-anchor="middle" x="3527" y="-229.8" font-family="Times,serif" font-size="14.00" fill="#000000">TsCheckboxModule </text>
</g>
<!-- TerminusUIModule&#45;&gt;TsCheckboxModule  -->
<g id="edge30" class="edge">
<title>TerminusUIModule&#45;&gt;TsCheckboxModule </title>
<path fill="none" stroke="#000000" stroke-dasharray="5,2" d="M2286.1389,-175C2545.9736,-175 3506.5177,-175 3506.5177,-175 3506.5177,-175 3506.5177,-205.9775 3506.5177,-205.9775"/>
<polygon fill="#000000" stroke="#000000" points="3503.0178,-205.9774 3506.5177,-215.9775 3510.0178,-205.9775 3503.0178,-205.9774"/>
</g>
<!-- TsCopyModule  -->
<g id="node32" class="node">
<title>TsCopyModule </title>
<polygon fill="#fb8072" stroke="#000000" points="3441.8843,-252 3334.1157,-252 3334.1157,-216 3441.8843,-216 3441.8843,-252"/>
<text text-anchor="middle" x="3388" y="-229.8" font-family="Times,serif" font-size="14.00" fill="#000000">TsCopyModule </text>
</g>
<!-- TerminusUIModule&#45;&gt;TsCopyModule  -->
<g id="edge31" class="edge">
<title>TerminusUIModule&#45;&gt;TsCopyModule </title>
<path fill="none" stroke="#000000" stroke-dasharray="5,2" d="M2286.0515,-176C2529.3561,-176 3382.5889,-176 3382.5889,-176 3382.5889,-176 3382.5889,-205.9664 3382.5889,-205.9664"/>
<polygon fill="#000000" stroke="#000000" points="3379.089,-205.9663 3382.5889,-215.9664 3386.089,-205.9664 3379.089,-205.9663"/>
</g>
<!-- TsDateRangeModule  -->
<g id="node33" class="node">
<title>TsDateRangeModule </title>
<polygon fill="#fb8072" stroke="#000000" points="3316.7394,-252 3177.2606,-252 3177.2606,-216 3316.7394,-216 3316.7394,-252"/>
<text text-anchor="middle" x="3247" y="-229.8" font-family="Times,serif" font-size="14.00" fill="#000000">TsDateRangeModule </text>
</g>
<!-- TerminusUIModule&#45;&gt;TsDateRangeModule  -->
<g id="edge32" class="edge">
<title>TerminusUIModule&#45;&gt;TsDateRangeModule </title>
<path fill="none" stroke="#000000" stroke-dasharray="5,2" d="M2286.0397,-178C2507.5016,-178 3227.4287,-178 3227.4287,-178 3227.4287,-178 3227.4287,-205.973 3227.4287,-205.973"/>
<polygon fill="#000000" stroke="#000000" points="3223.9287,-205.973 3227.4287,-215.973 3230.9287,-205.973 3223.9287,-205.973"/>
</g>
<!-- TsDatepickerModule  -->
<g id="node34" class="node">
<title>TsDatepickerModule </title>
<polygon fill="#fb8072" stroke="#000000" points="3159.4545,-252 3020.5455,-252 3020.5455,-216 3159.4545,-216 3159.4545,-252"/>
<text text-anchor="middle" x="3090" y="-229.8" font-family="Times,serif" font-size="14.00" fill="#000000">TsDatepickerModule </text>
</g>
<!-- TerminusUIModule&#45;&gt;TsDatepickerModule  -->
<g id="edge33" class="edge">
<title>TerminusUIModule&#45;&gt;TsDatepickerModule </title>
<path fill="none" stroke="#000000" stroke-dasharray="5,2" d="M2286.2572,-179C2482.1566,-179 3058.5963,-179 3058.5963,-179 3058.5963,-179 3058.5963,-205.9909 3058.5963,-205.9909"/>
<polygon fill="#000000" stroke="#000000" points="3055.0964,-205.9909 3058.5963,-215.9909 3062.0964,-205.991 3055.0964,-205.9909"/>
</g>
<!-- TsIconModule  -->
<g id="node35" class="node">
<title>TsIconModule </title>
<polygon fill="#fb8072" stroke="#000000" points="3002.9222,-252 2901.0778,-252 2901.0778,-216 3002.9222,-216 3002.9222,-252"/>
<text text-anchor="middle" x="2952" y="-229.8" font-family="Times,serif" font-size="14.00" fill="#000000">TsIconModule </text>
</g>
<!-- TerminusUIModule&#45;&gt;TsIconModule  -->
<g id="edge34" class="edge">
<title>TerminusUIModule&#45;&gt;TsIconModule </title>
<path fill="none" stroke="#000000" stroke-dasharray="5,2" d="M2286.1428,-181C2464.2763,-181 2952,-181 2952,-181 2952,-181 2952,-205.7604 2952,-205.7604"/>
<polygon fill="#000000" stroke="#000000" points="2948.5001,-205.7604 2952,-215.7604 2955.5001,-205.7604 2948.5001,-205.7604"/>
</g>
<!-- TsIconButtonModule  -->
<g id="node36" class="node">
<title>TsIconButtonModule </title>
<polygon fill="#fb8072" stroke="#000000" points="2883.04,-252 2742.96,-252 2742.96,-216 2883.04,-216 2883.04,-252"/>
<text text-anchor="middle" x="2813" y="-229.8" font-family="Times,serif" font-size="14.00" fill="#000000">TsIconButtonModule </text>
</g>
<!-- TerminusUIModule&#45;&gt;TsIconButtonModule  -->
<g id="edge35" class="edge">
<title>TerminusUIModule&#45;&gt;TsIconButtonModule </title>
<path fill="none" stroke="#000000" stroke-dasharray="5,2" d="M2286.0779,-182C2426.0541,-182 2746.7154,-182 2746.7154,-182 2746.7154,-182 2746.7154,-205.8129 2746.7154,-205.8129"/>
<polygon fill="#000000" stroke="#000000" points="2743.2155,-205.8129 2746.7154,-215.8129 2750.2155,-205.813 2743.2155,-205.8129"/>
</g>
<!-- TsInputModule  -->
<g id="node37" class="node">
<title>TsInputModule </title>
<polygon fill="#fb8072" stroke="#000000" points="2725.099,-252 2618.901,-252 2618.901,-216 2725.099,-216 2725.099,-252"/>
<text text-anchor="middle" x="2672" y="-229.8" font-family="Times,serif" font-size="14.00" fill="#000000">TsInputModule </text>
</g>
<!-- TerminusUIModule&#45;&gt;TsInputModule  -->
<g id="edge36" class="edge">
<title>TerminusUIModule&#45;&gt;TsInputModule </title>
<path fill="none" stroke="#000000" stroke-dasharray="5,2" d="M2286.3585,-183C2400.236,-183 2625.3529,-183 2625.3529,-183 2625.3529,-183 2625.3529,-205.8757 2625.3529,-205.8757"/>
<polygon fill="#000000" stroke="#000000" points="2621.853,-205.8757 2625.3529,-215.8757 2628.853,-205.8757 2621.853,-205.8757"/>
</g>
<!-- TsLinkModule  -->
<g id="node38" class="node">
<title>TsLinkModule </title>
<polygon fill="#fb8072" stroke="#000000" points="2600.9914,-252 2497.0086,-252 2497.0086,-216 2600.9914,-216 2600.9914,-252"/>
<text text-anchor="middle" x="2549" y="-229.8" font-family="Times,serif" font-size="14.00" fill="#000000">TsLinkModule </text>
</g>
<!-- TerminusUIModule&#45;&gt;TsLinkModule  -->
<g id="edge37" class="edge">
<title>TerminusUIModule&#45;&gt;TsLinkModule </title>
<path fill="none" stroke="#000000" stroke-dasharray="5,2" d="M2286.2145,-185C2381.4456,-185 2549,-185 2549,-185 2549,-185 2549,-205.7542 2549,-205.7542"/>
<polygon fill="#000000" stroke="#000000" points="2545.5001,-205.7542 2549,-215.7542 2552.5001,-205.7542 2545.5001,-205.7542"/>
</g>
<!-- TsLoadingOverlayModule  -->
<g id="node39" class="node">
<title>TsLoadingOverlayModule </title>
<polygon fill="#fb8072" stroke="#000000" points="2479.2919,-252 2310.7081,-252 2310.7081,-216 2479.2919,-216 2479.2919,-252"/>
<text text-anchor="middle" x="2395" y="-229.8" font-family="Times,serif" font-size="14.00" fill="#000000">TsLoadingOverlayModule </text>
</g>
<!-- TerminusUIModule&#45;&gt;TsLoadingOverlayModule  -->
<g id="edge38" class="edge">
<title>TerminusUIModule&#45;&gt;TsLoadingOverlayModule </title>
<path fill="none" stroke="#000000" stroke-dasharray="5,2" d="M2286.3282,-186C2326.498,-186 2370.6331,-186 2370.6331,-186 2370.6331,-186 2370.6331,-205.8533 2370.6331,-205.8533"/>
<polygon fill="#000000" stroke="#000000" points="2367.1331,-205.8532 2370.6331,-215.8533 2374.1331,-205.8533 2367.1331,-205.8532"/>
</g>
<!-- TsLoginFormModule  -->
<g id="node40" class="node">
<title>TsLoginFormModule </title>
<polygon fill="#fb8072" stroke="#000000" points="2292.3241,-252 2151.6759,-252 2151.6759,-216 2292.3241,-216 2292.3241,-252"/>
<text text-anchor="middle" x="2222" y="-229.8" font-family="Times,serif" font-size="14.00" fill="#000000">TsLoginFormModule </text>
</g>
<!-- TerminusUIModule&#45;&gt;TsLoginFormModule  -->
<g id="edge39" class="edge">
<title>TerminusUIModule&#45;&gt;TsLoginFormModule </title>
<path fill="none" stroke="#000000" stroke-dasharray="5,2" d="M2222,-187.1061C2222,-187.1061 2222,-205.991 2222,-205.991"/>
<polygon fill="#000000" stroke="#000000" points="2218.5001,-205.9909 2222,-215.991 2225.5001,-205.991 2218.5001,-205.9909"/>
</g>
<!-- TsMenuModule  -->
<g id="node41" class="node">
<title>TsMenuModule </title>
<polygon fill="#fb8072" stroke="#000000" points="2133.7066,-252 2024.2934,-252 2024.2934,-216 2133.7066,-216 2133.7066,-252"/>
<text text-anchor="middle" x="2079" y="-229.8" font-family="Times,serif" font-size="14.00" fill="#000000">TsMenuModule </text>
</g>
<!-- TerminusUIModule&#45;&gt;TsMenuModule  -->
<g id="edge40" class="edge">
<title>TerminusUIModule&#45;&gt;TsMenuModule </title>
<path fill="none" stroke="#000000" stroke-dasharray="5,2" d="M2158.0286,-186C2119.9541,-186 2079,-186 2079,-186 2079,-186 2079,-205.8533 2079,-205.8533"/>
<polygon fill="#000000" stroke="#000000" points="2075.5001,-205.8532 2079,-215.8533 2082.5001,-205.8533 2075.5001,-205.8532"/>
</g>
<!-- TsNavigationModule  -->
<g id="node42" class="node">
<title>TsNavigationModule </title>
<polygon fill="#fb8072" stroke="#000000" points="2006.7548,-252 1867.2452,-252 1867.2452,-216 2006.7548,-216 2006.7548,-252"/>
<text text-anchor="middle" x="1937" y="-229.8" font-family="Times,serif" font-size="14.00" fill="#000000">TsNavigationModule </text>
</g>
<!-- TerminusUIModule&#45;&gt;TsNavigationModule  -->
<g id="edge41" class="edge">
<title>TerminusUIModule&#45;&gt;TsNavigationModule </title>
<path fill="none" stroke="#000000" stroke-dasharray="5,2" d="M2157.8087,-185C2092.9063,-185 2002.1138,-185 2002.1138,-185 2002.1138,-185 2002.1138,-205.7542 2002.1138,-205.7542"/>
<polygon fill="#000000" stroke="#000000" points="1998.6139,-205.7542 2002.1138,-215.7542 2005.6139,-205.7542 1998.6139,-205.7542"/>
</g>
<!-- TsPaginatorModule  -->
<g id="node43" class="node">
<title>TsPaginatorModule </title>
<polygon fill="#fb8072" stroke="#000000" points="1849.2009,-252 1718.7991,-252 1718.7991,-216 1849.2009,-216 1849.2009,-252"/>
<text text-anchor="middle" x="1784" y="-229.8" font-family="Times,serif" font-size="14.00" fill="#000000">TsPaginatorModule </text>
</g>
<!-- TerminusUIModule&#45;&gt;TsPaginatorModule  -->
<g id="edge42" class="edge">
<title>TerminusUIModule&#45;&gt;TsPaginatorModule </title>
<path fill="none" stroke="#000000" stroke-dasharray="5,2" d="M2157.8783,-183C2041.1262,-183 1805.7834,-183 1805.7834,-183 1805.7834,-183 1805.7834,-205.8757 1805.7834,-205.8757"/>
<polygon fill="#000000" stroke="#000000" points="1802.2835,-205.8757 1805.7834,-215.8757 1809.2835,-205.8757 1802.2835,-205.8757"/>
</g>
<!-- TsRadioGroupModule  -->
<g id="node44" class="node">
<title>TsRadioGroupModule </title>
<polygon fill="#fb8072" stroke="#000000" points="1701.2562,-252 1554.7438,-252 1554.7438,-216 1701.2562,-216 1701.2562,-252"/>
<text text-anchor="middle" x="1628" y="-229.8" font-family="Times,serif" font-size="14.00" fill="#000000">TsRadioGroupModule </text>
</g>
<!-- TerminusUIModule&#45;&gt;TsRadioGroupModule  -->
<g id="edge43" class="edge">
<title>TerminusUIModule&#45;&gt;TsRadioGroupModule </title>
<path fill="none" stroke="#000000" stroke-dasharray="5,2" d="M2157.8229,-182C2017.6301,-182 1696.4725,-182 1696.4725,-182 1696.4725,-182 1696.4725,-205.8129 1696.4725,-205.8129"/>
<polygon fill="#000000" stroke="#000000" points="1692.9726,-205.8129 1696.4725,-215.8129 1699.9726,-205.813 1692.9726,-205.8129"/>
</g>
<!-- TsSearchModule  -->
<g id="node45" class="node">
<title>TsSearchModule </title>
<polygon fill="#fb8072" stroke="#000000" points="1536.6341,-252 1421.3659,-252 1421.3659,-216 1536.6341,-216 1536.6341,-252"/>
<text text-anchor="middle" x="1479" y="-229.8" font-family="Times,serif" font-size="14.00" fill="#000000">TsSearchModule </text>
</g>
<!-- TerminusUIModule&#45;&gt;TsSearchModule  -->
<g id="edge44" class="edge">
<title>TerminusUIModule&#45;&gt;TsSearchModule </title>
<path fill="none" stroke="#000000" stroke-dasharray="5,2" d="M2157.833,-181C1980.2539,-181 1495.3449,-181 1495.3449,-181 1495.3449,-181 1495.3449,-205.7604 1495.3449,-205.7604"/>
<polygon fill="#000000" stroke="#000000" points="1491.8449,-205.7604 1495.3449,-215.7604 1498.8449,-205.7604 1491.8449,-205.7604"/>
</g>
<!-- TsSelectModule  -->
<g id="node46" class="node">
<title>TsSelectModule </title>
<polygon fill="#fb8072" stroke="#000000" points="1403.7549,-252 1292.2451,-252 1292.2451,-216 1403.7549,-216 1403.7549,-252"/>
<text text-anchor="middle" x="1348" y="-229.8" font-family="Times,serif" font-size="14.00" fill="#000000">TsSelectModule </text>
</g>
<!-- TerminusUIModule&#45;&gt;TsSelectModule  -->
<g id="edge45" class="edge">
<title>TerminusUIModule&#45;&gt;TsSelectModule </title>
<path fill="none" stroke="#000000" stroke-dasharray="5,2" d="M2157.7327,-179C1959.6187,-179 1371.5935,-179 1371.5935,-179 1371.5935,-179 1371.5935,-205.9909 1371.5935,-205.9909"/>
<polygon fill="#000000" stroke="#000000" points="1368.0935,-205.9909 1371.5935,-215.9909 1375.0935,-205.991 1368.0935,-205.9909"/>
</g>
<!-- TsSortModule  -->
<g id="node47" class="node">
<title>TsSortModule </title>
<polygon fill="#fb8072" stroke="#000000" points="1274.3815,-252 1173.6185,-252 1173.6185,-216 1274.3815,-216 1274.3815,-252"/>
<text text-anchor="middle" x="1224" y="-229.8" font-family="Times,serif" font-size="14.00" fill="#000000">TsSortModule </text>
</g>
<!-- TerminusUIModule&#45;&gt;TsSortModule  -->
<g id="edge46" class="edge">
<title>TerminusUIModule&#45;&gt;TsSortModule </title>
<path fill="none" stroke="#000000" stroke-dasharray="5,2" d="M2157.8448,-178C1939.4588,-178 1238.4329,-178 1238.4329,-178 1238.4329,-178 1238.4329,-205.973 1238.4329,-205.973"/>
<polygon fill="#000000" stroke="#000000" points="1234.9329,-205.973 1238.4329,-215.973 1241.9329,-205.973 1234.9329,-205.973"/>
</g>
<!-- TsSpacingModule  -->
<g id="node48" class="node">
<title>TsSpacingModule </title>
<polygon fill="#fb8072" stroke="#000000" points="1156.1495,-252 1033.8505,-252 1033.8505,-216 1156.1495,-216 1156.1495,-252"/>
<text text-anchor="middle" x="1095" y="-229.8" font-family="Times,serif" font-size="14.00" fill="#000000">TsSpacingModule </text>
</g>
<!-- TerminusUIModule&#45;&gt;TsSpacingModule  -->
<g id="edge47" class="edge">
<title>TerminusUIModule&#45;&gt;TsSpacingModule </title>
<path fill="none" stroke="#000000" stroke-dasharray="5,2" d="M2157.854,-176C1922.1656,-176 1117.6825,-176 1117.6825,-176 1117.6825,-176 1117.6825,-205.9664 1117.6825,-205.9664"/>
<polygon fill="#000000" stroke="#000000" points="1114.1826,-205.9663 1117.6825,-215.9664 1121.1826,-205.9664 1114.1826,-205.9663"/>
</g>
<!-- TsTableModule  -->
<g id="node49" class="node">
<title>TsTableModule </title>
<polygon fill="#fb8072" stroke="#000000" points="1015.4194,-252 906.5806,-252 906.5806,-216 1015.4194,-216 1015.4194,-252"/>
<text text-anchor="middle" x="961" y="-229.8" font-family="Times,serif" font-size="14.00" fill="#000000">TsTableModule </text>
</g>
<!-- TerminusUIModule&#45;&gt;TsTableModule  -->
<g id="edge48" class="edge">
<title>TerminusUIModule&#45;&gt;TsTableModule </title>
<path fill="none" stroke="#000000" stroke-dasharray="5,2" d="M2157.9397,-175C1904.0077,-175 981.9287,-175 981.9287,-175 981.9287,-175 981.9287,-205.9775 981.9287,-205.9775"/>
<polygon fill="#000000" stroke="#000000" points="978.4287,-205.9774 981.9287,-215.9775 985.4287,-205.9775 978.4287,-205.9774"/>
</g>
<!-- TsToggleModule  -->
<g id="node50" class="node">
<title>TsToggleModule </title>
<polygon fill="#fb8072" stroke="#000000" points="888.2052,-252 771.7948,-252 771.7948,-216 888.2052,-216 888.2052,-252"/>
<text text-anchor="middle" x="830" y="-229.8" font-family="Times,serif" font-size="14.00" fill="#000000">TsToggleModule </text>
</g>
<!-- TerminusUIModule&#45;&gt;TsToggleModule  -->
<g id="edge49" class="edge">
<title>TerminusUIModule&#45;&gt;TsToggleModule </title>
<path fill="none" stroke="#000000" stroke-dasharray="5,2" d="M2157.7588,-174C1886.9014,-174 851.9834,-174 851.9834,-174 851.9834,-174 851.9834,-205.998 851.9834,-205.998"/>
<polygon fill="#000000" stroke="#000000" points="848.4834,-205.998 851.9834,-215.998 855.4834,-205.9981 848.4834,-205.998"/>
</g>
<!-- TsTooltipModule  -->
<g id="node51" class="node">
<title>TsTooltipModule </title>
<polygon fill="#fb8072" stroke="#000000" points="754.2717,-252 635.7283,-252 635.7283,-216 754.2717,-216 754.2717,-252"/>
<text text-anchor="middle" x="695" y="-229.8" font-family="Times,serif" font-size="14.00" fill="#000000">TsTooltipModule </text>
</g>
<!-- TerminusUIModule&#45;&gt;TsTooltipModule  -->
<g id="edge50" class="edge">
<title>TerminusUIModule&#45;&gt;TsTooltipModule </title>
<path fill="none" stroke="#000000" stroke-dasharray="5,2" d="M2157.8472,-172C1868.0271,-172 695,-172 695,-172 695,-172 695,-205.7333 695,-205.7333"/>
<polygon fill="#000000" stroke="#000000" points="691.5001,-205.7333 695,-215.7333 698.5001,-205.7333 691.5001,-205.7333"/>
</g>
<!-- TsValidationMessagesModule  -->
<g id="node52" class="node">
<title>TsValidationMessagesModule </title>
<polygon fill="#fb8072" stroke="#000000" points="618.0679,-252 427.9321,-252 427.9321,-216 618.0679,-216 618.0679,-252"/>
<text text-anchor="middle" x="523" y="-229.8" font-family="Times,serif" font-size="14.00" fill="#000000">TsValidationMessagesModule </text>
</g>
<!-- TerminusUIModule&#45;&gt;TsValidationMessagesModule  -->
<g id="edge51" class="edge">
<title>TerminusUIModule&#45;&gt;TsValidationMessagesModule </title>
<path fill="none" stroke="#000000" stroke-dasharray="5,2" d="M2157.9871,-171C1858.9882,-171 614.375,-171 614.375,-171 614.375,-171 614.375,-205.7778 614.375,-205.7778"/>
<polygon fill="#000000" stroke="#000000" points="610.8751,-205.7778 614.375,-215.7778 617.8751,-205.7778 610.8751,-205.7778"/>
</g>
<!-- TsAutocompleteModule -->
<g id="node3" class="node">
<title>TsAutocompleteModule</title>
<polygon fill="#8dd3c7" stroke="#000000" points="4120.3599,-122 4117.3599,-126 4096.3599,-126 4093.3599,-122 3967.6401,-122 3967.6401,-86 4120.3599,-86 4120.3599,-122"/>
<text text-anchor="middle" x="4044" y="-99.8" font-family="Times,serif" font-size="14.00" fill="#000000">TsAutocompleteModule</text>
</g>
<!-- TsAutocompleteModule&#45;&gt;TerminusUIModule -->
<g id="edge2" class="edge">
<title>TsAutocompleteModule&#45;&gt;TerminusUIModule</title>
<path fill="none" stroke="#000000" d="M3995.875,-122.1686C3995.875,-141.0898 3995.875,-168 3995.875,-168 3995.875,-168 2296.1811,-168 2296.1811,-168"/>
<polygon fill="#000000" stroke="#000000" points="2296.1812,-164.5001 2286.1811,-168 2296.1811,-171.5001 2296.1812,-164.5001"/>
</g>
<!-- TsButtonModule -->
<g id="node4" class="node">
<title>TsButtonModule</title>
<polygon fill="#8dd3c7" stroke="#000000" points="3949.6653,-122 3946.6653,-126 3925.6653,-126 3922.6653,-122 3838.3347,-122 3838.3347,-86 3949.6653,-86 3949.6653,-122"/>
<text text-anchor="middle" x="3894" y="-99.8" font-family="Times,serif" font-size="14.00" fill="#000000">TsButtonModule</text>
</g>
<!-- TsButtonModule&#45;&gt;TerminusUIModule -->
<g id="edge3" class="edge">
<title>TsButtonModule&#45;&gt;TerminusUIModule</title>
<path fill="none" stroke="#000000" d="M3843.875,-122.2222C3843.875,-140.8285 3843.875,-167 3843.875,-167 3843.875,-167 2296.079,-167 2296.079,-167"/>
<polygon fill="#000000" stroke="#000000" points="2296.079,-163.5001 2286.079,-167 2296.0789,-170.5001 2296.079,-163.5001"/>
</g>
<!-- TsCardModule -->
<g id="node5" class="node">
<title>TsCardModule</title>
<polygon fill="#8dd3c7" stroke="#000000" points="3820.2591,-122 3817.2591,-126 3796.2591,-126 3793.2591,-122 3719.7409,-122 3719.7409,-86 3820.2591,-86 3820.2591,-122"/>
<text text-anchor="middle" x="3770" y="-99.8" font-family="Times,serif" font-size="14.00" fill="#000000">TsCardModule</text>
</g>
<!-- TsCardModule&#45;&gt;TerminusUIModule -->
<g id="edge4" class="edge">
<title>TsCardModule&#45;&gt;TerminusUIModule</title>
<path fill="none" stroke="#000000" d="M3727.0191,-122.302C3727.0191,-140.2699 3727.0191,-165 3727.0191,-165 3727.0191,-165 2296.1873,-165 2296.1873,-165"/>
<polygon fill="#000000" stroke="#000000" points="2296.1874,-161.5001 2286.1873,-165 2296.1873,-168.5001 2296.1874,-161.5001"/>
</g>
<!-- TsCheckboxModule -->
<g id="node6" class="node">
<title>TsCheckboxModule</title>
<polygon fill="#8dd3c7" stroke="#000000" points="3701.3132,-122 3698.3132,-126 3677.3132,-126 3674.3132,-122 3570.6868,-122 3570.6868,-86 3701.3132,-86 3701.3132,-122"/>
<text text-anchor="middle" x="3636" y="-99.8" font-family="Times,serif" font-size="14.00" fill="#000000">TsCheckboxModule</text>
</g>
<!-- TsCheckboxModule&#45;&gt;TerminusUIModule -->
<g id="edge5" class="edge">
<title>TsCheckboxModule&#45;&gt;TerminusUIModule</title>
<path fill="none" stroke="#000000" d="M3582.375,-122.002C3582.375,-139.6754 3582.375,-164 3582.375,-164 3582.375,-164 2296.2431,-164 2296.2431,-164"/>
<polygon fill="#000000" stroke="#000000" points="2296.2431,-160.5001 2286.2431,-164 2296.2431,-167.5001 2296.2431,-160.5001"/>
</g>
<!-- TsCopyModule -->
<g id="node7" class="node">
<title>TsCopyModule</title>
<polygon fill="#8dd3c7" stroke="#000000" points="3552.8837,-122 3549.8837,-126 3528.8837,-126 3525.8837,-122 3449.1163,-122 3449.1163,-86 3552.8837,-86 3552.8837,-122"/>
<text text-anchor="middle" x="3501" y="-99.8" font-family="Times,serif" font-size="14.00" fill="#000000">TsCopyModule</text>
</g>
<!-- TsCopyModule&#45;&gt;TerminusUIModule -->
<g id="edge6" class="edge">
<title>TsCopyModule&#45;&gt;TerminusUIModule</title>
<path fill="none" stroke="#000000" d="M3454.5759,-122.0225C3454.5759,-139.3734 3454.5759,-163 3454.5759,-163 3454.5759,-163 2296.1025,-163 2296.1025,-163"/>
<polygon fill="#000000" stroke="#000000" points="2296.1026,-159.5001 2286.1025,-163 2296.1025,-166.5001 2296.1026,-159.5001"/>
</g>
<!-- TsDateRangeModule -->
<g id="node8" class="node">
<title>TsDateRangeModule</title>
<polygon fill="#8dd3c7" stroke="#000000" points="3430.7395,-122 3427.7395,-126 3406.7395,-126 3403.7395,-122 3295.2605,-122 3295.2605,-86 3430.7395,-86 3430.7395,-122"/>
<text text-anchor="middle" x="3363" y="-99.8" font-family="Times,serif" font-size="14.00" fill="#000000">TsDateRangeModule</text>
</g>
<!-- TsDateRangeModule&#45;&gt;TerminusUIModule -->
<g id="edge7" class="edge">
<title>TsDateRangeModule&#45;&gt;TerminusUIModule</title>
<path fill="none" stroke="#000000" d="M3305.875,-122.0352C3305.875,-138.7344 3305.875,-161 3305.875,-161 3305.875,-161 2296.1546,-161 2296.1546,-161"/>
<polygon fill="#000000" stroke="#000000" points="2296.1546,-157.5001 2286.1546,-161 2296.1545,-164.5001 2296.1546,-157.5001"/>
</g>
<!-- TsDatepickerModule -->
<g id="node9" class="node">
<title>TsDatepickerModule</title>
<polygon fill="#8dd3c7" stroke="#000000" points="3277.4538,-122 3274.4538,-126 3253.4538,-126 3250.4538,-122 3142.5462,-122 3142.5462,-86 3277.4538,-86 3277.4538,-122"/>
<text text-anchor="middle" x="3210" y="-99.8" font-family="Times,serif" font-size="14.00" fill="#000000">TsDatepickerModule</text>
</g>
<!-- TsDatepickerModule&#45;&gt;TerminusUIModule -->
<g id="edge8" class="edge">
<title>TsDatepickerModule&#45;&gt;TerminusUIModule</title>
<path fill="none" stroke="#000000" d="M3150.875,-122.027C3150.875,-138.3976 3150.875,-160 3150.875,-160 3150.875,-160 2296.2118,-160 2296.2118,-160"/>
<polygon fill="#000000" stroke="#000000" points="2296.2119,-156.5001 2286.2118,-160 2296.2118,-163.5001 2296.2119,-156.5001"/>
</g>
<!-- TsIconModule -->
<g id="node10" class="node">
<title>TsIconModule</title>
<polygon fill="#8dd3c7" stroke="#000000" points="3124.4231,-122 3121.4231,-126 3100.4231,-126 3097.4231,-122 3025.5769,-122 3025.5769,-86 3124.4231,-86 3124.4231,-122"/>
<text text-anchor="middle" x="3075" y="-99.8" font-family="Times,serif" font-size="14.00" fill="#000000">TsIconModule</text>
</g>
<!-- TsIconModule&#45;&gt;TerminusUIModule -->
<g id="edge9" class="edge">
<title>TsIconModule&#45;&gt;TerminusUIModule</title>
<path fill="none" stroke="#000000" d="M3091.4037,-122.2819C3091.4037,-137.9478 3091.4037,-158 3091.4037,-158 3091.4037,-158 2296.2824,-158 2296.2824,-158"/>
<polygon fill="#000000" stroke="#000000" points="2296.2824,-154.5001 2286.2824,-158 2296.2824,-161.5001 2296.2824,-154.5001"/>
</g>
<!-- TsIconButtonModule -->
<g id="node11" class="node">
<title>TsIconButtonModule</title>
<polygon fill="#8dd3c7" stroke="#000000" points="3008.0408,-122 3005.0408,-126 2984.0408,-126 2981.0408,-122 2871.9592,-122 2871.9592,-86 3008.0408,-86 3008.0408,-122"/>
<text text-anchor="middle" x="2940" y="-99.8" font-family="Times,serif" font-size="14.00" fill="#000000">TsIconButtonModule</text>
</g>
<!-- TsIconButtonModule&#45;&gt;TerminusUIModule -->
<g id="edge10" class="edge">
<title>TsIconButtonModule&#45;&gt;TerminusUIModule</title>
<path fill="none" stroke="#000000" d="M2877.375,-122.2396C2877.375,-137.5706 2877.375,-157 2877.375,-157 2877.375,-157 2296.0334,-157 2296.0334,-157"/>
<polygon fill="#000000" stroke="#000000" points="2296.0334,-153.5001 2286.0334,-157 2296.0334,-160.5001 2296.0334,-153.5001"/>
</g>
<!-- TsInputModule -->
<g id="node12" class="node">
<title>TsInputModule</title>
<polygon fill="#8dd3c7" stroke="#000000" points="2853.5982,-122 2850.5982,-126 2829.5982,-126 2826.5982,-122 2750.4018,-122 2750.4018,-86 2853.5982,-86 2853.5982,-122"/>
<text text-anchor="middle" x="2802" y="-99.8" font-family="Times,serif" font-size="14.00" fill="#000000">TsInputModule</text>
</g>
<!-- TsInputModule&#45;&gt;TerminusUIModule -->
<g id="edge11" class="edge">
<title>TsInputModule&#45;&gt;TerminusUIModule</title>
<path fill="none" stroke="#000000" d="M2802,-122.1871C2802,-137.1824 2802,-156 2802,-156 2802,-156 2296.0075,-156 2296.0075,-156"/>
<polygon fill="#000000" stroke="#000000" points="2296.0075,-152.5001 2286.0075,-156 2296.0075,-159.5001 2296.0075,-152.5001"/>
</g>
<!-- TsLinkModule -->
<g id="node13" class="node">
<title>TsLinkModule</title>
<polygon fill="#8dd3c7" stroke="#000000" points="2731.9902,-122 2728.9902,-126 2707.9902,-126 2704.9902,-122 2632.0098,-122 2632.0098,-86 2731.9902,-86 2731.9902,-122"/>
<text text-anchor="middle" x="2682" y="-99.8" font-family="Times,serif" font-size="14.00" fill="#000000">TsLinkModule</text>
</g>
<!-- TsLinkModule&#45;&gt;TerminusUIModule -->
<g id="edge12" class="edge">
<title>TsLinkModule&#45;&gt;TerminusUIModule</title>
<path fill="none" stroke="#000000" d="M2678.652,-122.0511C2678.652,-136.373 2678.652,-154 2678.652,-154 2678.652,-154 2295.9763,-154 2295.9763,-154"/>
<polygon fill="#000000" stroke="#000000" points="2295.9764,-150.5001 2285.9763,-154 2295.9763,-157.5001 2295.9764,-150.5001"/>
</g>
<!-- TsLoadingOverlayModule -->
<g id="node14" class="node">
<title>TsLoadingOverlayModule</title>
<polygon fill="#8dd3c7" stroke="#000000" points="2613.7921,-122 2610.7921,-126 2589.7921,-126 2586.7921,-122 2448.2079,-122 2448.2079,-86 2613.7921,-86 2613.7921,-122"/>
<text text-anchor="middle" x="2531" y="-99.8" font-family="Times,serif" font-size="14.00" fill="#000000">TsLoadingOverlayModule</text>
</g>
<!-- TsLoadingOverlayModule&#45;&gt;TerminusUIModule -->
<g id="edge13" class="edge">
<title>TsLoadingOverlayModule&#45;&gt;TerminusUIModule</title>
<path fill="none" stroke="#000000" d="M2463.875,-122.2458C2463.875,-136.1772 2463.875,-153 2463.875,-153 2463.875,-153 2296.183,-153 2296.183,-153"/>
<polygon fill="#000000" stroke="#000000" points="2296.1831,-149.5001 2286.183,-153 2296.183,-156.5001 2296.1831,-149.5001"/>
</g>
<!-- TsLoginFormModule -->
<g id="node15" class="node">
<title>TsLoginFormModule</title>
<polygon fill="#8dd3c7" stroke="#000000" points="2430.8244,-122 2427.8244,-126 2406.8244,-126 2403.8244,-122 2293.1756,-122 2293.1756,-86 2430.8244,-86 2430.8244,-122"/>
<text text-anchor="middle" x="2362" y="-99.8" font-family="Times,serif" font-size="14.00" fill="#000000">TsLoginFormModule</text>
</g>
<!-- TsLoginFormModule&#45;&gt;TerminusUIModule -->
<g id="edge14" class="edge">
<title>TsLoginFormModule&#45;&gt;TerminusUIModule</title>
<path fill="none" stroke="#000000" d="M2293.2717,-104C2285.6352,-104 2280.5442,-104 2280.5442,-104 2280.5442,-104 2280.5442,-140.8939 2280.5442,-140.8939"/>
<polygon fill="#000000" stroke="#000000" points="2277.0443,-140.8938 2280.5442,-150.8939 2284.0443,-140.8939 2277.0443,-140.8938"/>
</g>
<!-- TsMenuModule -->
<g id="node16" class="node">
<title>TsMenuModule</title>
<polygon fill="#8dd3c7" stroke="#000000" points="2275.2064,-122 2272.2064,-126 2251.2064,-126 2248.2064,-122 2168.7936,-122 2168.7936,-86 2275.2064,-86 2275.2064,-122"/>
<text text-anchor="middle" x="2222" y="-99.8" font-family="Times,serif" font-size="14.00" fill="#000000">TsMenuModule</text>
</g>
<!-- TsMenuModule&#45;&gt;TerminusUIModule -->
<g id="edge15" class="edge">
<title>TsMenuModule&#45;&gt;TerminusUIModule</title>
<path fill="none" stroke="#000000" d="M2222,-122.1061C2222,-122.1061 2222,-140.991 2222,-140.991"/>
<polygon fill="#000000" stroke="#000000" points="2218.5001,-140.9909 2222,-150.991 2225.5001,-140.991 2218.5001,-140.9909"/>
</g>
<!-- TsNavigationModule -->
<g id="node17" class="node">
<title>TsNavigationModule</title>
<polygon fill="#8dd3c7" stroke="#000000" points="2150.7548,-122 2147.7548,-126 2126.7548,-126 2123.7548,-122 2015.2452,-122 2015.2452,-86 2150.7548,-86 2150.7548,-122"/>
<text text-anchor="middle" x="2083" y="-99.8" font-family="Times,serif" font-size="14.00" fill="#000000">TsNavigationModule</text>
</g>
<!-- TsNavigationModule&#45;&gt;TerminusUIModule -->
<g id="edge16" class="edge">
<title>TsNavigationModule&#45;&gt;TerminusUIModule</title>
<path fill="none" stroke="#000000" d="M2150.8846,-104C2158.4273,-104 2163.4558,-104 2163.4558,-104 2163.4558,-104 2163.4558,-140.8939 2163.4558,-140.8939"/>
<polygon fill="#000000" stroke="#000000" points="2159.9559,-140.8938 2163.4558,-150.8939 2166.9559,-140.8939 2159.9559,-140.8938"/>
</g>
<!-- TsPaginatorModule -->
<g id="node18" class="node">
<title>TsPaginatorModule</title>
<polygon fill="#8dd3c7" stroke="#000000" points="1997.7008,-122 1994.7008,-126 1973.7008,-126 1970.7008,-122 1870.2992,-122 1870.2992,-86 1997.7008,-86 1997.7008,-122"/>
<text text-anchor="middle" x="1934" y="-99.8" font-family="Times,serif" font-size="14.00" fill="#000000">TsPaginatorModule</text>
</g>
<!-- TsPaginatorModule&#45;&gt;TerminusUIModule -->
<g id="edge17" class="edge">
<title>TsPaginatorModule&#45;&gt;TerminusUIModule</title>
<path fill="none" stroke="#000000" d="M1934,-122.2458C1934,-136.1772 1934,-153 1934,-153 1934,-153 2147.7256,-153 2147.7256,-153"/>
<polygon fill="#000000" stroke="#000000" points="2147.7257,-156.5001 2157.7256,-153 2147.7256,-149.5001 2147.7257,-156.5001"/>
</g>
<!-- TsRadioGroupModule -->
<g id="node19" class="node">
<title>TsRadioGroupModule</title>
<polygon fill="#8dd3c7" stroke="#000000" points="1852.2562,-122 1849.2562,-126 1828.2562,-126 1825.2562,-122 1709.7438,-122 1709.7438,-86 1852.2562,-86 1852.2562,-122"/>
<text text-anchor="middle" x="1781" y="-99.8" font-family="Times,serif" font-size="14.00" fill="#000000">TsRadioGroupModule</text>
</g>
<!-- TsRadioGroupModule&#45;&gt;TerminusUIModule -->
<g id="edge18" class="edge">
<title>TsRadioGroupModule&#45;&gt;TerminusUIModule</title>
<path fill="none" stroke="#000000" d="M1762.2166,-122.0511C1762.2166,-136.373 1762.2166,-154 1762.2166,-154 1762.2166,-154 2147.585,-154 2147.585,-154"/>
<polygon fill="#000000" stroke="#000000" points="2147.585,-157.5001 2157.585,-154 2147.5849,-150.5001 2147.585,-157.5001"/>
</g>
<!-- TsSearchModule -->
<g id="node20" class="node">
<title>TsSearchModule</title>
<polygon fill="#8dd3c7" stroke="#000000" points="1691.6346,-122 1688.6346,-126 1667.6346,-126 1664.6346,-122 1580.3654,-122 1580.3654,-86 1691.6346,-86 1691.6346,-122"/>
<text text-anchor="middle" x="1636" y="-99.8" font-family="Times,serif" font-size="14.00" fill="#000000">TsSearchModule</text>
</g>
<!-- TsSearchModule&#45;&gt;TerminusUIModule -->
<g id="edge19" class="edge">
<title>TsSearchModule&#45;&gt;TerminusUIModule</title>
<path fill="none" stroke="#000000" d="M1636,-122.1871C1636,-137.1824 1636,-156 1636,-156 1636,-156 2147.8921,-156 2147.8921,-156"/>
<polygon fill="#000000" stroke="#000000" points="2147.8921,-159.5001 2157.8921,-156 2147.892,-152.5001 2147.8921,-159.5001"/>
</g>
<!-- TsSelectModule -->
<g id="node21" class="node">
<title>TsSelectModule</title>
<polygon fill="#8dd3c7" stroke="#000000" points="1561.7549,-122 1558.7549,-126 1537.7549,-126 1534.7549,-122 1454.2451,-122 1454.2451,-86 1561.7549,-86 1561.7549,-122"/>
<text text-anchor="middle" x="1508" y="-99.8" font-family="Times,serif" font-size="14.00" fill="#000000">TsSelectModule</text>
</g>
<!-- TsSelectModule&#45;&gt;TerminusUIModule -->
<g id="edge20" class="edge">
<title>TsSelectModule&#45;&gt;TerminusUIModule</title>
<path fill="none" stroke="#000000" d="M1558.3747,-122.2396C1558.3747,-137.5706 1558.3747,-157 1558.3747,-157 1558.3747,-157 2147.7658,-157 2147.7658,-157"/>
<polygon fill="#000000" stroke="#000000" points="2147.7659,-160.5001 2157.7658,-157 2147.7658,-153.5001 2147.7659,-160.5001"/>
</g>
<!-- TsSortModule -->
<g id="node22" class="node">
<title>TsSortModule</title>
<polygon fill="#8dd3c7" stroke="#000000" points="1436.3809,-122 1433.3809,-126 1412.3809,-126 1409.3809,-122 1339.6191,-122 1339.6191,-86 1436.3809,-86 1436.3809,-122"/>
<text text-anchor="middle" x="1388" y="-99.8" font-family="Times,serif" font-size="14.00" fill="#000000">TsSortModule</text>
</g>
<!-- TsSortModule&#45;&gt;TerminusUIModule -->
<g id="edge21" class="edge">
<title>TsSortModule&#45;&gt;TerminusUIModule</title>
<path fill="none" stroke="#000000" d="M1428.9367,-122.2819C1428.9367,-137.9478 1428.9367,-158 1428.9367,-158 1428.9367,-158 2147.7721,-158 2147.7721,-158"/>
<polygon fill="#000000" stroke="#000000" points="2147.7721,-161.5001 2157.7721,-158 2147.772,-154.5001 2147.7721,-161.5001"/>
</g>
<!-- TsSpacingModule -->
<g id="node23" class="node">
<title>TsSpacingModule</title>
<polygon fill="#8dd3c7" stroke="#000000" points="1321.1499,-122 1318.1499,-126 1297.1499,-126 1294.1499,-122 1202.8501,-122 1202.8501,-86 1321.1499,-86 1321.1499,-122"/>
<text text-anchor="middle" x="1262" y="-99.8" font-family="Times,serif" font-size="14.00" fill="#000000">TsSpacingModule</text>
</g>
<!-- TsSpacingModule&#45;&gt;TerminusUIModule -->
<g id="edge22" class="edge">
<title>TsSpacingModule&#45;&gt;TerminusUIModule</title>
<path fill="none" stroke="#000000" d="M1306.8487,-122.027C1306.8487,-138.3976 1306.8487,-160 1306.8487,-160 1306.8487,-160 2148.0121,-160 2148.0121,-160"/>
<polygon fill="#000000" stroke="#000000" points="2148.0121,-163.5001 2158.0121,-160 2148.012,-156.5001 2148.0121,-163.5001"/>
</g>
<!-- TsTableModule -->
<g id="node24" class="node">
<title>TsTableModule</title>
<polygon fill="#8dd3c7" stroke="#000000" points="1184.9202,-122 1181.9202,-126 1160.9202,-126 1157.9202,-122 1079.0798,-122 1079.0798,-86 1184.9202,-86 1184.9202,-122"/>
<text text-anchor="middle" x="1132" y="-99.8" font-family="Times,serif" font-size="14.00" fill="#000000">TsTableModule</text>
</g>
<!-- TsTableModule&#45;&gt;TerminusUIModule -->
<g id="edge23" class="edge">
<title>TsTableModule&#45;&gt;TerminusUIModule</title>
<path fill="none" stroke="#000000" d="M1179.2597,-122.0352C1179.2597,-138.7344 1179.2597,-161 1179.2597,-161 1179.2597,-161 2147.9507,-161 2147.9507,-161"/>
<polygon fill="#000000" stroke="#000000" points="2147.9508,-164.5001 2157.9507,-161 2147.9507,-157.5001 2147.9508,-164.5001"/>
</g>
<!-- TsToggleModule -->
<g id="node25" class="node">
<title>TsToggleModule</title>
<polygon fill="#8dd3c7" stroke="#000000" points="1061.705,-122 1058.705,-126 1037.705,-126 1034.705,-122 948.295,-122 948.295,-86 1061.705,-86 1061.705,-122"/>
<text text-anchor="middle" x="1005" y="-99.8" font-family="Times,serif" font-size="14.00" fill="#000000">TsToggleModule</text>
</g>
<!-- TsToggleModule&#45;&gt;TerminusUIModule -->
<g id="edge24" class="edge">
<title>TsToggleModule&#45;&gt;TerminusUIModule</title>
<path fill="none" stroke="#000000" d="M1047.7639,-122.0225C1047.7639,-139.3734 1047.7639,-163 1047.7639,-163 1047.7639,-163 2147.6153,-163 2147.6153,-163"/>
<polygon fill="#000000" stroke="#000000" points="2147.6154,-166.5001 2157.6153,-163 2147.6153,-159.5001 2147.6154,-166.5001"/>
</g>
<!-- TsTooltipModule -->
<g id="node26" class="node">
<title>TsTooltipModule</title>
<polygon fill="#8dd3c7" stroke="#000000" points="930.2716,-122 927.2716,-126 906.2716,-126 903.2716,-122 815.7284,-122 815.7284,-86 930.2716,-86 930.2716,-122"/>
<text text-anchor="middle" x="873" y="-99.8" font-family="Times,serif" font-size="14.00" fill="#000000">TsTooltipModule</text>
</g>
<!-- TsTooltipModule&#45;&gt;TerminusUIModule -->
<g id="edge25" class="edge">
<title>TsTooltipModule&#45;&gt;TerminusUIModule</title>
<path fill="none" stroke="#000000" d="M918.463,-122.002C918.463,-139.6754 918.463,-164 918.463,-164 918.463,-164 2147.802,-164 2147.802,-164"/>
<polygon fill="#000000" stroke="#000000" points="2147.8021,-167.5001 2157.802,-164 2147.802,-160.5001 2147.8021,-167.5001"/>
</g>
<!-- TsValidationMessagesModule -->
<g id="node27" class="node">
<title>TsValidationMessagesModule</title>
<polygon fill="#8dd3c7" stroke="#000000" points="797.5674,-122 794.5674,-126 773.5674,-126 770.5674,-122 610.4326,-122 610.4326,-86 797.5674,-86 797.5674,-122"/>
<text text-anchor="middle" x="704" y="-99.8" font-family="Times,serif" font-size="14.00" fill="#000000">TsValidationMessagesModule</text>
</g>
<!-- TsValidationMessagesModule&#45;&gt;TerminusUIModule -->
<g id="edge26" class="edge">
<title>TsValidationMessagesModule&#45;&gt;TerminusUIModule</title>
<path fill="none" stroke="#000000" d="M784.5907,-122.302C784.5907,-140.2699 784.5907,-165 784.5907,-165 784.5907,-165 2147.9141,-165 2147.9141,-165"/>
<polygon fill="#000000" stroke="#000000" points="2147.9141,-168.5001 2157.9141,-165 2147.9141,-161.5001 2147.9141,-168.5001"/>
</g>
<!-- TsWindowService -->
<g id="node53" class="node">
<title>TsWindowService</title>
<ellipse fill="#fdb462" stroke="#000000" cx="503" cy="-104" rx="82.8052" ry="18"/>
<text text-anchor="middle" x="503" y="-99.8" font-family="Times,serif" font-size="14.00" fill="#000000">TsWindowService</text>
</g>
<!-- TsWindowService&#45;&gt;TerminusUIModule -->
<g id="edge52" class="edge">
<title>TsWindowService&#45;&gt;TerminusUIModule</title>
<path fill="none" stroke="#000000" d="M506.8094,-122.2222C506.8094,-140.8285 506.8094,-167 506.8094,-167 506.8094,-167 2147.8929,-167 2147.8929,-167"/>
<polygon fill="#000000" stroke="#000000" points="2147.8929,-170.5001 2157.8929,-167 2147.8928,-163.5001 2147.8929,-170.5001"/>
</g>
<!-- TsDocumentService -->
<g id="node54" class="node">
<title>TsDocumentService</title>
<ellipse fill="#fdb462" stroke="#000000" cx="312" cy="-104" rx="89.746" ry="18"/>
<text text-anchor="middle" x="312" y="-99.8" font-family="Times,serif" font-size="14.00" fill="#000000">TsDocumentService</text>
</g>
<!-- TsDocumentService&#45;&gt;TerminusUIModule -->
<g id="edge53" class="edge">
<title>TsDocumentService&#45;&gt;TerminusUIModule</title>
<path fill="none" stroke="#000000" d="M312,-122.1686C312,-141.0898 312,-168 312,-168 312,-168 2147.9047,-168 2147.9047,-168"/>
<polygon fill="#000000" stroke="#000000" points="2147.9048,-171.5001 2157.9047,-168 2147.9047,-164.5001 2147.9048,-171.5001"/>
</g>
<!-- TsValidatorsService -->
<g id="node55" class="node">
<title>TsValidatorsService</title>
<ellipse fill="#fdb462" stroke="#000000" cx="114" cy="-104" rx="89.7402" ry="18"/>
<text text-anchor="middle" x="114" y="-99.8" font-family="Times,serif" font-size="14.00" fill="#000000">TsValidatorsService</text>
</g>
<!-- TsValidatorsService&#45;&gt;TerminusUIModule -->
<g id="edge54" class="edge">
<title>TsValidatorsService&#45;&gt;TerminusUIModule</title>
<path fill="none" stroke="#000000" d="M114,-122.1061C114,-141.3391 114,-169 114,-169 114,-169 2147.7607,-169 2147.7607,-169"/>
<polygon fill="#000000" stroke="#000000" points="2147.7608,-172.5001 2157.7607,-169 2147.7607,-165.5001 2147.7608,-172.5001"/>
</g>
</g>
</svg>
