<?xml version="1.0" encoding="UTF-8" standalone="no"?>
<!DOCTYPE svg PUBLIC "-//W3C//DTD SVG 1.1//EN"
 "http://www.w3.org/Graphics/SVG/1.1/DTD/svg11.dtd">
<!-- Generated by graphviz version 2.40.1 (20161225.0304)
 -->
<!-- Title: dependencies Pages: 1 -->
<svg width="2691pt" height="284pt"
 viewBox="0.00 0.00 2691.00 284.00" xmlns="http://www.w3.org/2000/svg" xmlns:xlink="http://www.w3.org/1999/xlink">
<g id="graph0" class="graph" transform="scale(1 1) rotate(0) translate(4 280)">
<title>dependencies</title>
<polygon fill="#ffffff" stroke="transparent" points="-4,4 -4,-280 2687,-280 2687,4 -4,4"/>
<text text-anchor="start" x="1320.5091" y="-42.4" font-family="sans-serif" font-weight="bold" font-size="14.00" fill="#000000">Legend</text>
<polygon fill="#ffffb3" stroke="transparent" points="1107.5,-10 1107.5,-30 1127.5,-30 1127.5,-10 1107.5,-10"/>
<text text-anchor="start" x="1131.129" y="-15.4" font-family="sans-serif" font-size="14.00" fill="#000000"> &#160;Declarations</text>
<polygon fill="#8dd3c7" stroke="transparent" points="1220.5,-10 1220.5,-30 1240.5,-30 1240.5,-10 1220.5,-10"/>
<text text-anchor="start" x="1244.2251" y="-15.4" font-family="sans-serif" font-size="14.00" fill="#000000"> &#160;Module</text>
<polygon fill="#80b1d3" stroke="transparent" points="1306.5,-10 1306.5,-30 1326.5,-30 1326.5,-10 1306.5,-10"/>
<text text-anchor="start" x="1330.2812" y="-15.4" font-family="sans-serif" font-size="14.00" fill="#000000"> &#160;Bootstrap</text>
<polygon fill="#fdb462" stroke="transparent" points="1403.5,-10 1403.5,-30 1423.5,-30 1423.5,-10 1403.5,-10"/>
<text text-anchor="start" x="1427.1732" y="-15.4" font-family="sans-serif" font-size="14.00" fill="#000000"> &#160;Providers</text>
<polygon fill="#fb8072" stroke="transparent" points="1499.5,-10 1499.5,-30 1519.5,-30 1519.5,-10 1499.5,-10"/>
<text text-anchor="start" x="1523.2258" y="-15.4" font-family="sans-serif" font-size="14.00" fill="#000000"> &#160;Exports</text>
<g id="clust1" class="cluster">
<title>cluster_TerminusUIModule</title>
<polygon fill="none" stroke="#000000" stroke-dasharray="1,5" points="8,-70 8,-268 2675,-268 2675,-70 8,-70"/>
</g>
<g id="clust2" class="cluster">
<title>cluster_TerminusUIModule_declarations</title>
<polygon fill="none" stroke="#000000" points="2449,-78 2449,-130 2667,-130 2667,-78 2449,-78"/>
</g>
<g id="clust4" class="cluster">
<title>cluster_TerminusUIModule_imports</title>
<polygon fill="none" stroke="#000000" points="206,-78 206,-130 2441,-130 2441,-78 206,-78"/>
</g>
<g id="clust5" class="cluster">
<title>cluster_TerminusUIModule_exports</title>
<polygon fill="none" stroke="#000000" points="177,-208 177,-260 2469,-260 2469,-208 177,-208"/>
</g>
<g id="clust7" class="cluster">
<title>cluster_TerminusUIModule_providers</title>
<polygon fill="none" stroke="#000000" points="16,-78 16,-130 198,-130 198,-78 16,-78"/>
</g>
<!-- TsReactiveFormBaseComponent -->
<g id="node1" class="node">
<title>TsReactiveFormBaseComponent</title>
<polygon fill="#ffffb3" stroke="#000000" points="2658.8501,-122 2457.1499,-122 2457.1499,-86 2658.8501,-86 2658.8501,-122"/>
<text text-anchor="middle" x="2558" y="-99.8" font-family="Times,serif" font-size="14.00" fill="#000000">TsReactiveFormBaseComponent</text>
</g>
<!-- TerminusUIModule -->
<g id="node2" class="node">
<title>TerminusUIModule</title>
<polygon fill="#8dd3c7" stroke="#000000" points="1394.9706,-187 1391.9706,-191 1370.9706,-191 1367.9706,-187 1267.0294,-187 1267.0294,-151 1394.9706,-151 1394.9706,-187"/>
<text text-anchor="middle" x="1331" y="-164.8" font-family="Times,serif" font-size="14.00" fill="#000000">TerminusUIModule</text>
</g>
<!-- TsReactiveFormBaseComponent&#45;&gt;TerminusUIModule -->
<g id="edge1" class="edge">
<title>TsReactiveFormBaseComponent&#45;&gt;TerminusUIModule</title>
<path fill="none" stroke="#000000" d="M2559.7537,-122.1061C2559.7537,-141.3391 2559.7537,-169 2559.7537,-169 2559.7537,-169 1405.3331,-169 1405.3331,-169"/>
<polygon fill="#000000" stroke="#000000" points="1405.3331,-165.5001 1395.3331,-169 1405.3331,-172.5001 1405.3331,-165.5001"/>
</g>
<!-- TsButtonModule  -->
<g id="node19" class="node">
<title>TsButtonModule </title>
<polygon fill="#fb8072" stroke="#000000" points="2460.6649,-252 2345.3351,-252 2345.3351,-216 2460.6649,-216 2460.6649,-252"/>
<text text-anchor="middle" x="2403" y="-229.8" font-family="Times,serif" font-size="14.00" fill="#000000">TsButtonModule </text>
</g>
<!-- TerminusUIModule&#45;&gt;TsButtonModule  -->
<g id="edge18" class="edge">
<title>TerminusUIModule&#45;&gt;TsButtonModule </title>
<path fill="none" stroke="#000000" stroke-dasharray="5,2" d="M1395.2021,-172C1624.454,-172 2389.125,-172 2389.125,-172 2389.125,-172 2389.125,-205.7333 2389.125,-205.7333"/>
<polygon fill="#000000" stroke="#000000" points="2385.6251,-205.7333 2389.125,-215.7333 2392.6251,-205.7333 2385.6251,-205.7333"/>
</g>
<!-- TsInputModule  -->
<g id="node20" class="node">
<title>TsInputModule </title>
<polygon fill="#fb8072" stroke="#000000" points="2327.099,-252 2220.901,-252 2220.901,-216 2327.099,-216 2327.099,-252"/>
<text text-anchor="middle" x="2274" y="-229.8" font-family="Times,serif" font-size="14.00" fill="#000000">TsInputModule </text>
</g>
<!-- TerminusUIModule&#45;&gt;TsInputModule  -->
<g id="edge19" class="edge">
<title>TerminusUIModule&#45;&gt;TsInputModule </title>
<path fill="none" stroke="#000000" stroke-dasharray="5,2" d="M1395,-174C1605.3676,-174 2262.125,-174 2262.125,-174 2262.125,-174 2262.125,-205.998 2262.125,-205.998"/>
<polygon fill="#000000" stroke="#000000" points="2258.6251,-205.998 2262.125,-215.998 2265.6251,-205.9981 2258.6251,-205.998"/>
</g>
<!-- TsValidationMessagesModule  -->
<g id="node21" class="node">
<title>TsValidationMessagesModule </title>
<polygon fill="#fb8072" stroke="#000000" points="2202.0679,-252 2011.9321,-252 2011.9321,-216 2202.0679,-216 2202.0679,-252"/>
<text text-anchor="middle" x="2107" y="-229.8" font-family="Times,serif" font-size="14.00" fill="#000000">TsValidationMessagesModule </text>
</g>
<!-- TerminusUIModule&#45;&gt;TsValidationMessagesModule  -->
<g id="edge20" class="edge">
<title>TerminusUIModule&#45;&gt;TsValidationMessagesModule </title>
<path fill="none" stroke="#000000" stroke-dasharray="5,2" d="M1395.0017,-176C1579.132,-176 2097.125,-176 2097.125,-176 2097.125,-176 2097.125,-205.9664 2097.125,-205.9664"/>
<polygon fill="#000000" stroke="#000000" points="2093.6251,-205.9663 2097.125,-215.9664 2100.6251,-205.9664 2093.6251,-205.9663"/>
</g>
<!-- TsMenuModule  -->
<g id="node22" class="node">
<title>TsMenuModule </title>
<polygon fill="#fb8072" stroke="#000000" points="1993.7066,-252 1884.2934,-252 1884.2934,-216 1993.7066,-216 1993.7066,-252"/>
<text text-anchor="middle" x="1939" y="-229.8" font-family="Times,serif" font-size="14.00" fill="#000000">TsMenuModule </text>
</g>
<!-- TerminusUIModule&#45;&gt;TsMenuModule  -->
<g id="edge21" class="edge">
<title>TerminusUIModule&#45;&gt;TsMenuModule </title>
<path fill="none" stroke="#000000" stroke-dasharray="5,2" d="M1395.1704,-178C1549.8573,-178 1930.625,-178 1930.625,-178 1930.625,-178 1930.625,-205.973 1930.625,-205.973"/>
<polygon fill="#000000" stroke="#000000" points="1927.1251,-205.973 1930.625,-215.973 1934.1251,-205.973 1927.1251,-205.973"/>
</g>
<!-- TsSelectModule  -->
<g id="node23" class="node">
<title>TsSelectModule </title>
<polygon fill="#fb8072" stroke="#000000" points="1866.7549,-252 1755.2451,-252 1755.2451,-216 1866.7549,-216 1866.7549,-252"/>
<text text-anchor="middle" x="1811" y="-229.8" font-family="Times,serif" font-size="14.00" fill="#000000">TsSelectModule </text>
</g>
<!-- TerminusUIModule&#45;&gt;TsSelectModule  -->
<g id="edge22" class="edge">
<title>TerminusUIModule&#45;&gt;TsSelectModule </title>
<path fill="none" stroke="#000000" stroke-dasharray="5,2" d="M1395.3001,-181C1524.6613,-181 1804.125,-181 1804.125,-181 1804.125,-181 1804.125,-205.7604 1804.125,-205.7604"/>
<polygon fill="#000000" stroke="#000000" points="1800.6251,-205.7604 1804.125,-215.7604 1807.6251,-205.7604 1800.6251,-205.7604"/>
</g>
<!-- TsToggleModule  -->
<g id="node24" class="node">
<title>TsToggleModule </title>
<polygon fill="#fb8072" stroke="#000000" points="1737.2052,-252 1620.7948,-252 1620.7948,-216 1737.2052,-216 1737.2052,-252"/>
<text text-anchor="middle" x="1679" y="-229.8" font-family="Times,serif" font-size="14.00" fill="#000000">TsToggleModule </text>
</g>
<!-- TerminusUIModule&#45;&gt;TsToggleModule  -->
<g id="edge23" class="edge">
<title>TerminusUIModule&#45;&gt;TsToggleModule </title>
<path fill="none" stroke="#000000" stroke-dasharray="5,2" d="M1395.2687,-183C1490.0708,-183 1656.2992,-183 1656.2992,-183 1656.2992,-183 1656.2992,-205.8757 1656.2992,-205.8757"/>
<polygon fill="#000000" stroke="#000000" points="1652.7993,-205.8757 1656.2992,-215.8757 1659.7993,-205.8757 1652.7993,-205.8757"/>
</g>
<!-- TsSearchModule  -->
<g id="node25" class="node">
<title>TsSearchModule </title>
<polygon fill="#fb8072" stroke="#000000" points="1602.6341,-252 1487.3659,-252 1487.3659,-216 1602.6341,-216 1602.6341,-252"/>
<text text-anchor="middle" x="1545" y="-229.8" font-family="Times,serif" font-size="14.00" fill="#000000">TsSearchModule </text>
</g>
<!-- TerminusUIModule&#45;&gt;TsSearchModule  -->
<g id="edge24" class="edge">
<title>TerminusUIModule&#45;&gt;TsSearchModule </title>
<path fill="none" stroke="#000000" stroke-dasharray="5,2" d="M1395.231,-185C1451.3441,-185 1523.8943,-185 1523.8943,-185 1523.8943,-185 1523.8943,-205.7542 1523.8943,-205.7542"/>
<polygon fill="#000000" stroke="#000000" points="1520.3944,-205.7542 1523.8943,-215.7542 1527.3944,-205.7542 1520.3944,-205.7542"/>
</g>
<!-- TsPaginationModule  -->
<g id="node26" class="node">
<title>TsPaginationModule </title>
<polygon fill="#fb8072" stroke="#000000" points="1469.4306,-252 1332.5694,-252 1332.5694,-216 1469.4306,-216 1469.4306,-252"/>
<text text-anchor="middle" x="1401" y="-229.8" font-family="Times,serif" font-size="14.00" fill="#000000">TsPaginationModule </text>
</g>
<!-- TerminusUIModule&#45;&gt;TsPaginationModule  -->
<g id="edge25" class="edge">
<title>TerminusUIModule&#45;&gt;TsPaginationModule </title>
<path fill="none" stroke="#000000" stroke-dasharray="5,2" d="M1363.76,-187.1061C1363.76,-187.1061 1363.76,-205.991 1363.76,-205.991"/>
<polygon fill="#000000" stroke="#000000" points="1360.2601,-205.9909 1363.76,-215.991 1367.2601,-205.991 1360.2601,-205.9909"/>
</g>
<!-- TsCopyModule  -->
<g id="node27" class="node">
<title>TsCopyModule </title>
<polygon fill="#fb8072" stroke="#000000" points="1314.8843,-252 1207.1157,-252 1207.1157,-216 1314.8843,-216 1314.8843,-252"/>
<text text-anchor="middle" x="1261" y="-229.8" font-family="Times,serif" font-size="14.00" fill="#000000">TsCopyModule </text>
</g>
<!-- TerminusUIModule&#45;&gt;TsCopyModule  -->
<g id="edge26" class="edge">
<title>TerminusUIModule&#45;&gt;TsCopyModule </title>
<path fill="none" stroke="#000000" stroke-dasharray="5,2" d="M1290.8533,-187.1061C1290.8533,-187.1061 1290.8533,-205.991 1290.8533,-205.991"/>
<polygon fill="#000000" stroke="#000000" points="1287.3533,-205.9909 1290.8533,-215.991 1294.3533,-205.991 1287.3533,-205.9909"/>
</g>
<!-- TsTooltipModule  -->
<g id="node28" class="node">
<title>TsTooltipModule </title>
<polygon fill="#fb8072" stroke="#000000" points="1189.2717,-252 1070.7283,-252 1070.7283,-216 1189.2717,-216 1189.2717,-252"/>
<text text-anchor="middle" x="1130" y="-229.8" font-family="Times,serif" font-size="14.00" fill="#000000">TsTooltipModule </text>
</g>
<!-- TerminusUIModule&#45;&gt;TsTooltipModule  -->
<g id="edge27" class="edge">
<title>TerminusUIModule&#45;&gt;TsTooltipModule </title>
<path fill="none" stroke="#000000" stroke-dasharray="5,2" d="M1266.9129,-185C1203.376,-185 1115.4548,-185 1115.4548,-185 1115.4548,-185 1115.4548,-205.7542 1115.4548,-205.7542"/>
<polygon fill="#000000" stroke="#000000" points="1111.9549,-205.7542 1115.4548,-215.7542 1118.9549,-205.7542 1111.9549,-205.7542"/>
</g>
<!-- TsDatepickerModule  -->
<g id="node29" class="node">
<title>TsDatepickerModule </title>
<polygon fill="#fb8072" stroke="#000000" points="1053.4545,-252 914.5455,-252 914.5455,-216 1053.4545,-216 1053.4545,-252"/>
<text text-anchor="middle" x="984" y="-229.8" font-family="Times,serif" font-size="14.00" fill="#000000">TsDatepickerModule </text>
</g>
<!-- TerminusUIModule&#45;&gt;TsDatepickerModule  -->
<g id="edge28" class="edge">
<title>TerminusUIModule&#45;&gt;TsDatepickerModule </title>
<path fill="none" stroke="#000000" stroke-dasharray="5,2" d="M1266.743,-183C1167.7825,-183 989.375,-183 989.375,-183 989.375,-183 989.375,-205.8757 989.375,-205.8757"/>
<polygon fill="#000000" stroke="#000000" points="985.8751,-205.8757 989.375,-215.8757 992.8751,-205.8757 985.8751,-205.8757"/>
</g>
<!-- TsDateRangeModule  -->
<g id="node30" class="node">
<title>TsDateRangeModule </title>
<polygon fill="#fb8072" stroke="#000000" points="896.7394,-252 757.2606,-252 757.2606,-216 896.7394,-216 896.7394,-252"/>
<text text-anchor="middle" x="827" y="-229.8" font-family="Times,serif" font-size="14.00" fill="#000000">TsDateRangeModule </text>
</g>
<!-- TerminusUIModule&#45;&gt;TsDateRangeModule  -->
<g id="edge29" class="edge">
<title>TerminusUIModule&#45;&gt;TsDateRangeModule </title>
<path fill="none" stroke="#000000" stroke-dasharray="5,2" d="M1266.8381,-181C1132.5852,-181 834.375,-181 834.375,-181 834.375,-181 834.375,-205.7604 834.375,-205.7604"/>
<polygon fill="#000000" stroke="#000000" points="830.8751,-205.7604 834.375,-215.7604 837.8751,-205.7604 830.8751,-205.7604"/>
</g>
<!-- TsSpacingModule  -->
<g id="node31" class="node">
<title>TsSpacingModule </title>
<polygon fill="#fb8072" stroke="#000000" points="739.1495,-252 616.8505,-252 616.8505,-216 739.1495,-216 739.1495,-252"/>
<text text-anchor="middle" x="678" y="-229.8" font-family="Times,serif" font-size="14.00" fill="#000000">TsSpacingModule </text>
</g>
<!-- TerminusUIModule&#45;&gt;TsSpacingModule  -->
<g id="edge30" class="edge">
<title>TerminusUIModule&#45;&gt;TsSpacingModule </title>
<path fill="none" stroke="#000000" stroke-dasharray="5,2" d="M1266.9337,-178C1104.1363,-178 687.375,-178 687.375,-178 687.375,-178 687.375,-205.973 687.375,-205.973"/>
<polygon fill="#000000" stroke="#000000" points="683.8751,-205.973 687.375,-215.973 690.8751,-205.973 683.8751,-205.973"/>
</g>
<!-- TsCheckboxModule  -->
<g id="node32" class="node">
<title>TsCheckboxModule </title>
<polygon fill="#fb8072" stroke="#000000" points="598.8129,-252 465.1871,-252 465.1871,-216 598.8129,-216 598.8129,-252"/>
<text text-anchor="middle" x="532" y="-229.8" font-family="Times,serif" font-size="14.00" fill="#000000">TsCheckboxModule </text>
</g>
<!-- TerminusUIModule&#45;&gt;TsCheckboxModule  -->
<g id="edge31" class="edge">
<title>TerminusUIModule&#45;&gt;TsCheckboxModule </title>
<path fill="none" stroke="#000000" stroke-dasharray="5,2" d="M1266.8793,-176C1079.0716,-176 543.375,-176 543.375,-176 543.375,-176 543.375,-205.9664 543.375,-205.9664"/>
<polygon fill="#000000" stroke="#000000" points="539.8751,-205.9663 543.375,-215.9664 546.8751,-205.9664 539.8751,-205.9663"/>
</g>
<!-- TsLoginFormModule  -->
<g id="node33" class="node">
<title>TsLoginFormModule </title>
<polygon fill="#fb8072" stroke="#000000" points="447.3241,-252 306.6759,-252 306.6759,-216 447.3241,-216 447.3241,-252"/>
<text text-anchor="middle" x="377" y="-229.8" font-family="Times,serif" font-size="14.00" fill="#000000">TsLoginFormModule </text>
</g>
<!-- TerminusUIModule&#45;&gt;TsLoginFormModule  -->
<g id="edge32" class="edge">
<title>TerminusUIModule&#45;&gt;TsLoginFormModule </title>
<path fill="none" stroke="#000000" stroke-dasharray="5,2" d="M1266.6831,-174C1054.4579,-174 389.875,-174 389.875,-174 389.875,-174 389.875,-205.998 389.875,-205.998"/>
<polygon fill="#000000" stroke="#000000" points="386.3751,-205.998 389.875,-215.998 393.3751,-205.9981 386.3751,-205.998"/>
</g>
<!-- TsLinkModule  -->
<g id="node34" class="node">
<title>TsLinkModule </title>
<polygon fill="#fb8072" stroke="#000000" points="288.9914,-252 185.0086,-252 185.0086,-216 288.9914,-216 288.9914,-252"/>
<text text-anchor="middle" x="237" y="-229.8" font-family="Times,serif" font-size="14.00" fill="#000000">TsLinkModule </text>
</g>
<!-- TerminusUIModule&#45;&gt;TsLinkModule  -->
<g id="edge33" class="edge">
<title>TerminusUIModule&#45;&gt;TsLinkModule </title>
<path fill="none" stroke="#000000" stroke-dasharray="5,2" d="M1266.6977,-172C1034.2745,-172 251.375,-172 251.375,-172 251.375,-172 251.375,-205.7333 251.375,-205.7333"/>
<polygon fill="#000000" stroke="#000000" points="247.8751,-205.7333 251.375,-215.7333 254.8751,-205.7333 247.8751,-205.7333"/>
</g>
<!-- TsButtonModule -->
<g id="node3" class="node">
<title>TsButtonModule</title>
<polygon fill="#8dd3c7" stroke="#000000" points="2432.6653,-122 2429.6653,-126 2408.6653,-126 2405.6653,-122 2321.3347,-122 2321.3347,-86 2432.6653,-86 2432.6653,-122"/>
<text text-anchor="middle" x="2377" y="-99.8" font-family="Times,serif" font-size="14.00" fill="#000000">TsButtonModule</text>
</g>
<!-- TsButtonModule&#45;&gt;TerminusUIModule -->
<g id="edge2" class="edge">
<title>TsButtonModule&#45;&gt;TerminusUIModule</title>
<path fill="none" stroke="#000000" d="M2336.3584,-122.2222C2336.3584,-140.8285 2336.3584,-167 2336.3584,-167 2336.3584,-167 1405.0352,-167 1405.0352,-167"/>
<polygon fill="#000000" stroke="#000000" points="1405.0353,-163.5001 1395.0352,-167 1405.0352,-170.5001 1405.0353,-163.5001"/>
</g>
<!-- TsInputModule -->
<g id="node4" class="node">
<title>TsInputModule</title>
<polygon fill="#8dd3c7" stroke="#000000" points="2303.5982,-122 2300.5982,-126 2279.5982,-126 2276.5982,-122 2200.4018,-122 2200.4018,-86 2303.5982,-86 2303.5982,-122"/>
<text text-anchor="middle" x="2252" y="-99.8" font-family="Times,serif" font-size="14.00" fill="#000000">TsInputModule</text>
</g>
<!-- TsInputModule&#45;&gt;TerminusUIModule -->
<g id="edge3" class="edge">
<title>TsInputModule&#45;&gt;TerminusUIModule</title>
<path fill="none" stroke="#000000" d="M2211.4923,-122.302C2211.4923,-140.2699 2211.4923,-165 2211.4923,-165 2211.4923,-165 1405.0321,-165 1405.0321,-165"/>
<polygon fill="#000000" stroke="#000000" points="1405.0321,-161.5001 1395.0321,-165 1405.032,-168.5001 1405.0321,-161.5001"/>
</g>
<!-- TsValidationMessagesModule -->
<g id="node5" class="node">
<title>TsValidationMessagesModule</title>
<polygon fill="#8dd3c7" stroke="#000000" points="2182.5674,-122 2179.5674,-126 2158.5674,-126 2155.5674,-122 1995.4326,-122 1995.4326,-86 2182.5674,-86 2182.5674,-122"/>
<text text-anchor="middle" x="2089" y="-99.8" font-family="Times,serif" font-size="14.00" fill="#000000">TsValidationMessagesModule</text>
</g>
<!-- TsValidationMessagesModule&#45;&gt;TerminusUIModule -->
<g id="edge4" class="edge">
<title>TsValidationMessagesModule&#45;&gt;TerminusUIModule</title>
<path fill="none" stroke="#000000" d="M2003.5913,-122.0225C2003.5913,-139.3734 2003.5913,-163 2003.5913,-163 2003.5913,-163 1405.1862,-163 1405.1862,-163"/>
<polygon fill="#000000" stroke="#000000" points="1405.1862,-159.5001 1395.1862,-163 1405.1862,-166.5001 1405.1862,-159.5001"/>
</g>
<!-- TsMenuModule -->
<g id="node6" class="node">
<title>TsMenuModule</title>
<polygon fill="#8dd3c7" stroke="#000000" points="1977.2064,-122 1974.2064,-126 1953.2064,-126 1950.2064,-122 1870.7936,-122 1870.7936,-86 1977.2064,-86 1977.2064,-122"/>
<text text-anchor="middle" x="1924" y="-99.8" font-family="Times,serif" font-size="14.00" fill="#000000">TsMenuModule</text>
</g>
<!-- TsMenuModule&#45;&gt;TerminusUIModule -->
<g id="edge5" class="edge">
<title>TsMenuModule&#45;&gt;TerminusUIModule</title>
<path fill="none" stroke="#000000" d="M1877.5219,-122.027C1877.5219,-138.3976 1877.5219,-160 1877.5219,-160 1877.5219,-160 1405.0311,-160 1405.0311,-160"/>
<polygon fill="#000000" stroke="#000000" points="1405.0312,-156.5001 1395.0311,-160 1405.0311,-163.5001 1405.0312,-156.5001"/>
</g>
<!-- TsSelectModule -->
<g id="node7" class="node">
<title>TsSelectModule</title>
<polygon fill="#8dd3c7" stroke="#000000" points="1852.7549,-122 1849.7549,-126 1828.7549,-126 1825.7549,-122 1745.2451,-122 1745.2451,-86 1852.7549,-86 1852.7549,-122"/>
<text text-anchor="middle" x="1799" y="-99.8" font-family="Times,serif" font-size="14.00" fill="#000000">TsSelectModule</text>
</g>
<!-- TsSelectModule&#45;&gt;TerminusUIModule -->
<g id="edge6" class="edge">
<title>TsSelectModule&#45;&gt;TerminusUIModule</title>
<path fill="none" stroke="#000000" d="M1750.2477,-122.2819C1750.2477,-137.9478 1750.2477,-158 1750.2477,-158 1750.2477,-158 1405.1311,-158 1405.1311,-158"/>
<polygon fill="#000000" stroke="#000000" points="1405.1311,-154.5001 1395.1311,-158 1405.131,-161.5001 1405.1311,-154.5001"/>
</g>
<!-- TsToggleModule -->
<g id="node8" class="node">
<title>TsToggleModule</title>
<polygon fill="#8dd3c7" stroke="#000000" points="1727.705,-122 1724.705,-126 1703.705,-126 1700.705,-122 1614.295,-122 1614.295,-86 1727.705,-86 1727.705,-122"/>
<text text-anchor="middle" x="1671" y="-99.8" font-family="Times,serif" font-size="14.00" fill="#000000">TsToggleModule</text>
</g>
<!-- TsToggleModule&#45;&gt;TerminusUIModule -->
<g id="edge7" class="edge">
<title>TsToggleModule&#45;&gt;TerminusUIModule</title>
<path fill="none" stroke="#000000" d="M1691.9508,-122.1871C1691.9508,-137.1824 1691.9508,-156 1691.9508,-156 1691.9508,-156 1405.1148,-156 1405.1148,-156"/>
<polygon fill="#000000" stroke="#000000" points="1405.1149,-152.5001 1395.1148,-156 1405.1148,-159.5001 1405.1149,-152.5001"/>
</g>
<!-- TsSearchModule -->
<g id="node9" class="node">
<title>TsSearchModule</title>
<polygon fill="#8dd3c7" stroke="#000000" points="1596.6346,-122 1593.6346,-126 1572.6346,-126 1569.6346,-122 1485.3654,-122 1485.3654,-86 1596.6346,-86 1596.6346,-122"/>
<text text-anchor="middle" x="1541" y="-99.8" font-family="Times,serif" font-size="14.00" fill="#000000">TsSearchModule</text>
</g>
<!-- TsSearchModule&#45;&gt;TerminusUIModule -->
<g id="edge8" class="edge">
<title>TsSearchModule&#45;&gt;TerminusUIModule</title>
<path fill="none" stroke="#000000" d="M1560.3557,-122.0511C1560.3557,-136.373 1560.3557,-154 1560.3557,-154 1560.3557,-154 1405.1933,-154 1405.1933,-154"/>
<polygon fill="#000000" stroke="#000000" points="1405.1934,-150.5001 1395.1933,-154 1405.1933,-157.5001 1405.1934,-150.5001"/>
</g>
<!-- TsPaginationModule -->
<g id="node10" class="node">
<title>TsPaginationModule</title>
<polygon fill="#8dd3c7" stroke="#000000" points="1466.9313,-122 1463.9313,-126 1442.9313,-126 1439.9313,-122 1333.0687,-122 1333.0687,-86 1466.9313,-86 1466.9313,-122"/>
<text text-anchor="middle" x="1400" y="-99.8" font-family="Times,serif" font-size="14.00" fill="#000000">TsPaginationModule</text>
</g>
<!-- TsPaginationModule&#45;&gt;TerminusUIModule -->
<g id="edge9" class="edge">
<title>TsPaginationModule&#45;&gt;TerminusUIModule</title>
<path fill="none" stroke="#000000" d="M1364.135,-122.1061C1364.135,-122.1061 1364.135,-140.991 1364.135,-140.991"/>
<polygon fill="#000000" stroke="#000000" points="1360.6351,-140.9909 1364.135,-150.991 1367.6351,-140.991 1360.6351,-140.9909"/>
</g>
<!-- TsCopyModule -->
<g id="node11" class="node">
<title>TsCopyModule</title>
<polygon fill="#8dd3c7" stroke="#000000" points="1314.8837,-122 1311.8837,-126 1290.8837,-126 1287.8837,-122 1211.1163,-122 1211.1163,-86 1314.8837,-86 1314.8837,-122"/>
<text text-anchor="middle" x="1263" y="-99.8" font-family="Times,serif" font-size="14.00" fill="#000000">TsCopyModule</text>
</g>
<!-- TsCopyModule&#45;&gt;TerminusUIModule -->
<g id="edge10" class="edge">
<title>TsCopyModule&#45;&gt;TerminusUIModule</title>
<path fill="none" stroke="#000000" d="M1290.9783,-122.1061C1290.9783,-122.1061 1290.9783,-140.991 1290.9783,-140.991"/>
<polygon fill="#000000" stroke="#000000" points="1287.4783,-140.9909 1290.9783,-150.991 1294.4783,-140.991 1287.4783,-140.9909"/>
</g>
<!-- TsTooltipModule -->
<g id="node12" class="node">
<title>TsTooltipModule</title>
<polygon fill="#8dd3c7" stroke="#000000" points="1193.2716,-122 1190.2716,-126 1169.2716,-126 1166.2716,-122 1078.7284,-122 1078.7284,-86 1193.2716,-86 1193.2716,-122"/>
<text text-anchor="middle" x="1136" y="-99.8" font-family="Times,serif" font-size="14.00" fill="#000000">TsTooltipModule</text>
</g>
<!-- TsTooltipModule&#45;&gt;TerminusUIModule -->
<g id="edge11" class="edge">
<title>TsTooltipModule&#45;&gt;TerminusUIModule</title>
<path fill="none" stroke="#000000" d="M1152.2952,-122.0511C1152.2952,-136.373 1152.2952,-154 1152.2952,-154 1152.2952,-154 1256.9882,-154 1256.9882,-154"/>
<polygon fill="#000000" stroke="#000000" points="1256.9883,-157.5001 1266.9882,-154 1256.9882,-150.5001 1256.9883,-157.5001"/>
</g>
<!-- TsDatepickerModule -->
<g id="node13" class="node">
<title>TsDatepickerModule</title>
<polygon fill="#8dd3c7" stroke="#000000" points="1060.4538,-122 1057.4538,-126 1036.4538,-126 1033.4538,-122 925.5462,-122 925.5462,-86 1060.4538,-86 1060.4538,-122"/>
<text text-anchor="middle" x="993" y="-99.8" font-family="Times,serif" font-size="14.00" fill="#000000">TsDatepickerModule</text>
</g>
<!-- TsDatepickerModule&#45;&gt;TerminusUIModule -->
<g id="edge12" class="edge">
<title>TsDatepickerModule&#45;&gt;TerminusUIModule</title>
<path fill="none" stroke="#000000" d="M1056.8519,-122.1871C1056.8519,-137.1824 1056.8519,-156 1056.8519,-156 1056.8519,-156 1256.7245,-156 1256.7245,-156"/>
<polygon fill="#000000" stroke="#000000" points="1256.7245,-159.5001 1266.7245,-156 1256.7244,-152.5001 1256.7245,-159.5001"/>
</g>
<!-- TsDateRangeModule -->
<g id="node14" class="node">
<title>TsDateRangeModule</title>
<polygon fill="#8dd3c7" stroke="#000000" points="907.7395,-122 904.7395,-126 883.7395,-126 880.7395,-122 772.2605,-122 772.2605,-86 907.7395,-86 907.7395,-122"/>
<text text-anchor="middle" x="840" y="-99.8" font-family="Times,serif" font-size="14.00" fill="#000000">TsDateRangeModule</text>
</g>
<!-- TsDateRangeModule&#45;&gt;TerminusUIModule -->
<g id="edge13" class="edge">
<title>TsDateRangeModule&#45;&gt;TerminusUIModule</title>
<path fill="none" stroke="#000000" d="M902.2446,-122.2819C902.2446,-137.9478 902.2446,-158 902.2446,-158 902.2446,-158 1256.811,-158 1256.811,-158"/>
<polygon fill="#000000" stroke="#000000" points="1256.811,-161.5001 1266.811,-158 1256.8109,-154.5001 1256.811,-161.5001"/>
</g>
<!-- TsSpacingModule -->
<g id="node15" class="node">
<title>TsSpacingModule</title>
<polygon fill="#8dd3c7" stroke="#000000" points="754.1499,-122 751.1499,-126 730.1499,-126 727.1499,-122 635.8501,-122 635.8501,-86 754.1499,-86 754.1499,-122"/>
<text text-anchor="middle" x="695" y="-99.8" font-family="Times,serif" font-size="14.00" fill="#000000">TsSpacingModule</text>
</g>
<!-- TsSpacingModule&#45;&gt;TerminusUIModule -->
<g id="edge14" class="edge">
<title>TsSpacingModule&#45;&gt;TerminusUIModule</title>
<path fill="none" stroke="#000000" d="M746.6997,-122.027C746.6997,-138.3976 746.6997,-160 746.6997,-160 746.6997,-160 1256.7982,-160 1256.7982,-160"/>
<polygon fill="#000000" stroke="#000000" points="1256.7983,-163.5001 1266.7982,-160 1256.7982,-156.5001 1256.7983,-163.5001"/>
</g>
<!-- TsCheckboxModule -->
<g id="node16" class="node">
<title>TsCheckboxModule</title>
<polygon fill="#8dd3c7" stroke="#000000" points="618.3132,-122 615.3132,-126 594.3132,-126 591.3132,-122 487.6868,-122 487.6868,-86 618.3132,-86 618.3132,-122"/>
<text text-anchor="middle" x="553" y="-99.8" font-family="Times,serif" font-size="14.00" fill="#000000">TsCheckboxModule</text>
</g>
<!-- TsCheckboxModule&#45;&gt;TerminusUIModule -->
<g id="edge15" class="edge">
<title>TsCheckboxModule&#45;&gt;TerminusUIModule</title>
<path fill="none" stroke="#000000" d="M607.9159,-122.0225C607.9159,-139.3734 607.9159,-163 607.9159,-163 607.9159,-163 1256.8311,-163 1256.8311,-163"/>
<polygon fill="#000000" stroke="#000000" points="1256.8311,-166.5001 1266.8311,-163 1256.8311,-159.5001 1256.8311,-166.5001"/>
</g>
<!-- TsLoginFormModule -->
<g id="node17" class="node">
<title>TsLoginFormModule</title>
<polygon fill="#8dd3c7" stroke="#000000" points="469.8244,-122 466.8244,-126 445.8244,-126 442.8244,-122 332.1756,-122 332.1756,-86 469.8244,-86 469.8244,-122"/>
<text text-anchor="middle" x="401" y="-99.8" font-family="Times,serif" font-size="14.00" fill="#000000">TsLoginFormModule</text>
</g>
<!-- TsLoginFormModule&#45;&gt;TerminusUIModule -->
<g id="edge16" class="edge">
<title>TsLoginFormModule&#45;&gt;TerminusUIModule</title>
<path fill="none" stroke="#000000" d="M456.2528,-122.302C456.2528,-140.2699 456.2528,-165 456.2528,-165 456.2528,-165 1256.6777,-165 1256.6777,-165"/>
<polygon fill="#000000" stroke="#000000" points="1256.6778,-168.5001 1266.6777,-165 1256.6777,-161.5001 1256.6778,-168.5001"/>
</g>
<!-- TsLinkModule -->
<g id="node18" class="node">
<title>TsLinkModule</title>
<polygon fill="#8dd3c7" stroke="#000000" points="313.9902,-122 310.9902,-126 289.9902,-126 286.9902,-122 214.0098,-122 214.0098,-86 313.9902,-86 313.9902,-122"/>
<text text-anchor="middle" x="264" y="-99.8" font-family="Times,serif" font-size="14.00" fill="#000000">TsLinkModule</text>
</g>
<!-- TsLinkModule&#45;&gt;TerminusUIModule -->
<g id="edge17" class="edge">
<title>TsLinkModule&#45;&gt;TerminusUIModule</title>
<path fill="none" stroke="#000000" d="M310.2916,-122.2222C310.2916,-140.8285 310.2916,-167 310.2916,-167 310.2916,-167 1256.7634,-167 1256.7634,-167"/>
<polygon fill="#000000" stroke="#000000" points="1256.7635,-170.5001 1266.7634,-167 1256.7634,-163.5001 1256.7635,-170.5001"/>
</g>
<!-- TsWindowService -->
<g id="node35" class="node">
<title>TsWindowService</title>
<ellipse fill="#fdb462" stroke="#000000" cx="107" cy="-104" rx="82.8052" ry="18"/>
<text text-anchor="middle" x="107" y="-99.8" font-family="Times,serif" font-size="14.00" fill="#000000">TsWindowService</text>
</g>
<!-- TsWindowService&#45;&gt;TerminusUIModule -->
<g id="edge34" class="edge">
<title>TsWindowService&#45;&gt;TerminusUIModule</title>
<path fill="none" stroke="#000000" d="M104.6762,-122.1061C104.6762,-141.3391 104.6762,-169 104.6762,-169 104.6762,-169 1256.7941,-169 1256.7941,-169"/>
<polygon fill="#000000" stroke="#000000" points="1256.7942,-172.5001 1266.7941,-169 1256.7941,-165.5001 1256.7942,-172.5001"/>
</g>
</g>
</svg>
