<?xml version="1.0" encoding="UTF-8" standalone="no"?>
<!DOCTYPE svg PUBLIC "-//W3C//DTD SVG 1.1//EN"
 "http://www.w3.org/Graphics/SVG/1.1/DTD/svg11.dtd">
<!-- Generated by graphviz version 2.40.1 (20161225.0304)
 -->
<!-- Title: dependencies Pages: 1 -->
<svg width="4208pt" height="284pt"
 viewBox="0.00 0.00 4208.00 284.00" xmlns="http://www.w3.org/2000/svg" xmlns:xlink="http://www.w3.org/1999/xlink">
<g id="graph0" class="graph" transform="scale(1 1) rotate(0) translate(4 280)">
<title>dependencies</title>
<polygon fill="#ffffff" stroke="transparent" points="-4,4 -4,-280 4204,-280 4204,4 -4,4"/>
<text text-anchor="start" x="2079.0091" y="-42.4" font-family="sans-serif" font-weight="bold" font-size="14.00" fill="#000000">Legend</text>
<polygon fill="#ffffb3" stroke="transparent" points="1866,-10 1866,-30 1886,-30 1886,-10 1866,-10"/>
<text text-anchor="start" x="1889.629" y="-15.4" font-family="sans-serif" font-size="14.00" fill="#000000"> &#160;Declarations</text>
<polygon fill="#8dd3c7" stroke="transparent" points="1979,-10 1979,-30 1999,-30 1999,-10 1979,-10"/>
<text text-anchor="start" x="2002.7251" y="-15.4" font-family="sans-serif" font-size="14.00" fill="#000000"> &#160;Module</text>
<polygon fill="#80b1d3" stroke="transparent" points="2065,-10 2065,-30 2085,-30 2085,-10 2065,-10"/>
<text text-anchor="start" x="2088.7812" y="-15.4" font-family="sans-serif" font-size="14.00" fill="#000000"> &#160;Bootstrap</text>
<polygon fill="#fdb462" stroke="transparent" points="2162,-10 2162,-30 2182,-30 2182,-10 2162,-10"/>
<text text-anchor="start" x="2185.6732" y="-15.4" font-family="sans-serif" font-size="14.00" fill="#000000"> &#160;Providers</text>
<polygon fill="#fb8072" stroke="transparent" points="2258,-10 2258,-30 2278,-30 2278,-10 2258,-10"/>
<text text-anchor="start" x="2281.7258" y="-15.4" font-family="sans-serif" font-size="14.00" fill="#000000"> &#160;Exports</text>
<g id="clust1" class="cluster">
<title>cluster_TerminusUIModule</title>
<polygon fill="none" stroke="#000000" stroke-dasharray="1,5" points="8,-70 8,-268 4192,-268 4192,-70 8,-70"/>
</g>
<g id="clust2" class="cluster">
<title>cluster_TerminusUIModule_declarations</title>
<polygon fill="none" stroke="#000000" points="3966,-78 3966,-130 4184,-130 4184,-78 3966,-78"/>
</g>
<g id="clust4" class="cluster">
<title>cluster_TerminusUIModule_imports</title>
<polygon fill="none" stroke="#000000" points="602,-78 602,-130 3958,-130 3958,-78 602,-78"/>
</g>
<g id="clust5" class="cluster">
<title>cluster_TerminusUIModule_exports</title>
<polygon fill="none" stroke="#000000" points="422,-208 422,-260 3860,-260 3860,-208 422,-208"/>
</g>
<g id="clust7" class="cluster">
<title>cluster_TerminusUIModule_providers</title>
<polygon fill="none" stroke="#000000" points="16,-78 16,-130 594,-130 594,-78 16,-78"/>
</g>
<!-- TsReactiveFormBaseComponent -->
<g id="node1" class="node">
<title>TsReactiveFormBaseComponent</title>
<polygon fill="#ffffb3" stroke="#000000" points="4175.8501,-122 3974.1499,-122 3974.1499,-86 4175.8501,-86 4175.8501,-122"/>
<text text-anchor="middle" x="4075" y="-99.8" font-family="Times,serif" font-size="14.00" fill="#000000">TsReactiveFormBaseComponent</text>
</g>
<!-- TerminusUIModule -->
<g id="node2" class="node">
<title>TerminusUIModule</title>
<polygon fill="#8dd3c7" stroke="#000000" points="2215.9706,-187 2212.9706,-191 2191.9706,-191 2188.9706,-187 2088.0294,-187 2088.0294,-151 2215.9706,-151 2215.9706,-187"/>
<text text-anchor="middle" x="2152" y="-164.8" font-family="Times,serif" font-size="14.00" fill="#000000">TerminusUIModule</text>
</g>
<!-- TsReactiveFormBaseComponent&#45;&gt;TerminusUIModule -->
<g id="edge1" class="edge">
<title>TsReactiveFormBaseComponent&#45;&gt;TerminusUIModule</title>
<path fill="none" stroke="#000000" d="M4075,-122.0348C4075,-141.5762 4075,-170 4075,-170 4075,-170 2225.9817,-170 2225.9817,-170"/>
<polygon fill="#000000" stroke="#000000" points="2225.9817,-166.5001 2215.9817,-170 2225.9816,-173.5001 2225.9817,-166.5001"/>
</g>
<!-- TsButtonModule  -->
<g id="node27" class="node">
<title>TsButtonModule </title>
<polygon fill="#fb8072" stroke="#000000" points="3851.6649,-252 3736.3351,-252 3736.3351,-216 3851.6649,-216 3851.6649,-252"/>
<text text-anchor="middle" x="3794" y="-229.8" font-family="Times,serif" font-size="14.00" fill="#000000">TsButtonModule </text>
</g>
<!-- TerminusUIModule&#45;&gt;TsButtonModule  -->
<g id="edge26" class="edge">
<title>TerminusUIModule&#45;&gt;TsButtonModule </title>
<path fill="none" stroke="#000000" stroke-dasharray="5,2" d="M2216.007,-172C2517.1538,-172 3778.3985,-172 3778.3985,-172 3778.3985,-172 3778.3985,-205.7333 3778.3985,-205.7333"/>
<polygon fill="#000000" stroke="#000000" points="3774.8986,-205.7333 3778.3985,-215.7333 3781.8986,-205.7333 3774.8986,-205.7333"/>
</g>
<!-- TsCardModule  -->
<g id="node28" class="node">
<title>TsCardModule </title>
<polygon fill="#fb8072" stroke="#000000" points="3718.2591,-252 3613.7409,-252 3613.7409,-216 3718.2591,-216 3718.2591,-252"/>
<text text-anchor="middle" x="3666" y="-229.8" font-family="Times,serif" font-size="14.00" fill="#000000">TsCardModule </text>
</g>
<!-- TerminusUIModule&#45;&gt;TsCardModule  -->
<g id="edge27" class="edge">
<title>TerminusUIModule&#45;&gt;TsCardModule </title>
<path fill="none" stroke="#000000" stroke-dasharray="5,2" d="M2216.2084,-173C2503.5679,-173 3657.5135,-173 3657.5135,-173 3657.5135,-173 3657.5135,-205.698 3657.5135,-205.698"/>
<polygon fill="#000000" stroke="#000000" points="3654.0136,-205.698 3657.5135,-215.698 3661.0136,-205.698 3654.0136,-205.698"/>
</g>
<!-- TsCheckboxModule  -->
<g id="node29" class="node">
<title>TsCheckboxModule </title>
<polygon fill="#fb8072" stroke="#000000" points="3595.8129,-252 3462.1871,-252 3462.1871,-216 3595.8129,-216 3595.8129,-252"/>
<text text-anchor="middle" x="3529" y="-229.8" font-family="Times,serif" font-size="14.00" fill="#000000">TsCheckboxModule </text>
</g>
<!-- TerminusUIModule&#45;&gt;TsCheckboxModule  -->
<g id="edge28" class="edge">
<title>TerminusUIModule&#45;&gt;TsCheckboxModule </title>
<path fill="none" stroke="#000000" stroke-dasharray="5,2" d="M2216.0137,-175C2484.7025,-175 3507.5177,-175 3507.5177,-175 3507.5177,-175 3507.5177,-205.9775 3507.5177,-205.9775"/>
<polygon fill="#000000" stroke="#000000" points="3504.0178,-205.9774 3507.5177,-215.9775 3511.0178,-205.9775 3504.0178,-205.9774"/>
</g>
<!-- TsCopyModule  -->
<g id="node30" class="node">
<title>TsCopyModule </title>
<polygon fill="#fb8072" stroke="#000000" points="3443.8843,-252 3336.1157,-252 3336.1157,-216 3443.8843,-216 3443.8843,-252"/>
<text text-anchor="middle" x="3390" y="-229.8" font-family="Times,serif" font-size="14.00" fill="#000000">TsCopyModule </text>
</g>
<!-- TerminusUIModule&#45;&gt;TsCopyModule  -->
<g id="edge29" class="edge">
<title>TerminusUIModule&#45;&gt;TsCopyModule </title>
<path fill="none" stroke="#000000" stroke-dasharray="5,2" d="M2216.0512,-176C2468.8539,-176 3383.5889,-176 3383.5889,-176 3383.5889,-176 3383.5889,-205.9664 3383.5889,-205.9664"/>
<polygon fill="#000000" stroke="#000000" points="3380.089,-205.9663 3383.5889,-215.9664 3387.089,-205.9664 3380.089,-205.9663"/>
</g>
<!-- TsDateRangeModule  -->
<g id="node31" class="node">
<title>TsDateRangeModule </title>
<polygon fill="#fb8072" stroke="#000000" points="3318.7394,-252 3179.2606,-252 3179.2606,-216 3318.7394,-216 3318.7394,-252"/>
<text text-anchor="middle" x="3249" y="-229.8" font-family="Times,serif" font-size="14.00" fill="#000000">TsDateRangeModule </text>
</g>
<!-- TerminusUIModule&#45;&gt;TsDateRangeModule  -->
<g id="edge30" class="edge">
<title>TerminusUIModule&#45;&gt;TsDateRangeModule </title>
<path fill="none" stroke="#000000" stroke-dasharray="5,2" d="M2216.1119,-177C2447.8471,-177 3228.4287,-177 3228.4287,-177 3228.4287,-177 3228.4287,-205.9648 3228.4287,-205.9648"/>
<polygon fill="#000000" stroke="#000000" points="3224.9287,-205.9648 3228.4287,-215.9648 3231.9287,-205.9649 3224.9287,-205.9648"/>
</g>
<!-- TsDatepickerModule  -->
<g id="node32" class="node">
<title>TsDatepickerModule </title>
<polygon fill="#fb8072" stroke="#000000" points="3161.4545,-252 3022.5455,-252 3022.5455,-216 3161.4545,-216 3161.4545,-252"/>
<text text-anchor="middle" x="3092" y="-229.8" font-family="Times,serif" font-size="14.00" fill="#000000">TsDatepickerModule </text>
</g>
<!-- TerminusUIModule&#45;&gt;TsDatepickerModule  -->
<g id="edge31" class="edge">
<title>TerminusUIModule&#45;&gt;TsDatepickerModule </title>
<path fill="none" stroke="#000000" stroke-dasharray="5,2" d="M2216.1113,-179C2422.8523,-179 3058.5963,-179 3058.5963,-179 3058.5963,-179 3058.5963,-205.9909 3058.5963,-205.9909"/>
<polygon fill="#000000" stroke="#000000" points="3055.0964,-205.9909 3058.5963,-215.9909 3062.0964,-205.991 3055.0964,-205.9909"/>
</g>
<!-- TsIconModule  -->
<g id="node33" class="node">
<title>TsIconModule </title>
<polygon fill="#fb8072" stroke="#000000" points="3004.9222,-252 2903.0778,-252 2903.0778,-216 3004.9222,-216 3004.9222,-252"/>
<text text-anchor="middle" x="2954" y="-229.8" font-family="Times,serif" font-size="14.00" fill="#000000">TsIconModule </text>
</g>
<!-- TerminusUIModule&#45;&gt;TsIconModule  -->
<g id="edge32" class="edge">
<title>TerminusUIModule&#45;&gt;TsIconModule </title>
<path fill="none" stroke="#000000" stroke-dasharray="5,2" d="M2216.2753,-180C2406.5869,-180 2954,-180 2954,-180 2954,-180 2954,-205.7181 2954,-205.7181"/>
<polygon fill="#000000" stroke="#000000" points="2950.5001,-205.718 2954,-215.7181 2957.5001,-205.7181 2950.5001,-205.718"/>
</g>
<!-- TsIconButtonModule  -->
<g id="node34" class="node">
<title>TsIconButtonModule </title>
<polygon fill="#fb8072" stroke="#000000" points="2885.04,-252 2744.96,-252 2744.96,-216 2885.04,-216 2885.04,-252"/>
<text text-anchor="middle" x="2815" y="-229.8" font-family="Times,serif" font-size="14.00" fill="#000000">TsIconButtonModule </text>
</g>
<!-- TerminusUIModule&#45;&gt;TsIconButtonModule  -->
<g id="edge33" class="edge">
<title>TerminusUIModule&#45;&gt;TsIconButtonModule </title>
<path fill="none" stroke="#000000" stroke-dasharray="5,2" d="M2216.1604,-182C2377.0408,-182 2784.817,-182 2784.817,-182 2784.817,-182 2784.817,-205.8129 2784.817,-205.8129"/>
<polygon fill="#000000" stroke="#000000" points="2781.3171,-205.8129 2784.817,-215.8129 2788.3171,-205.813 2781.3171,-205.8129"/>
</g>
<!-- TsInputModule  -->
<g id="node35" class="node">
<title>TsInputModule </title>
<polygon fill="#fb8072" stroke="#000000" points="2727.099,-252 2620.901,-252 2620.901,-216 2727.099,-216 2727.099,-252"/>
<text text-anchor="middle" x="2674" y="-229.8" font-family="Times,serif" font-size="14.00" fill="#000000">TsInputModule </text>
</g>
<!-- TerminusUIModule&#45;&gt;TsInputModule  -->
<g id="edge34" class="edge">
<title>TerminusUIModule&#45;&gt;TsInputModule </title>
<path fill="none" stroke="#000000" stroke-dasharray="5,2" d="M2215.9733,-183C2345.4514,-183 2626.3529,-183 2626.3529,-183 2626.3529,-183 2626.3529,-205.8757 2626.3529,-205.8757"/>
<polygon fill="#000000" stroke="#000000" points="2622.853,-205.8757 2626.3529,-215.8757 2629.853,-205.8757 2622.853,-205.8757"/>
</g>
<!-- TsLinkModule  -->
<g id="node36" class="node">
<title>TsLinkModule </title>
<polygon fill="#fb8072" stroke="#000000" points="2602.9914,-252 2499.0086,-252 2499.0086,-216 2602.9914,-216 2602.9914,-252"/>
<text text-anchor="middle" x="2551" y="-229.8" font-family="Times,serif" font-size="14.00" fill="#000000">TsLinkModule </text>
</g>
<!-- TerminusUIModule&#45;&gt;TsLinkModule  -->
<g id="edge35" class="edge">
<title>TerminusUIModule&#45;&gt;TsLinkModule </title>
<path fill="none" stroke="#000000" stroke-dasharray="5,2" d="M2216.1063,-185C2328.8943,-185 2551,-185 2551,-185 2551,-185 2551,-205.7542 2551,-205.7542"/>
<polygon fill="#000000" stroke="#000000" points="2547.5001,-205.7542 2551,-215.7542 2554.5001,-205.7542 2547.5001,-205.7542"/>
</g>
<!-- TsLoadingOverlayModule  -->
<g id="node37" class="node">
<title>TsLoadingOverlayModule </title>
<polygon fill="#fb8072" stroke="#000000" points="2481.2919,-252 2312.7081,-252 2312.7081,-216 2481.2919,-216 2481.2919,-252"/>
<text text-anchor="middle" x="2397" y="-229.8" font-family="Times,serif" font-size="14.00" fill="#000000">TsLoadingOverlayModule </text>
</g>
<!-- TerminusUIModule&#45;&gt;TsLoadingOverlayModule  -->
<g id="edge36" class="edge">
<title>TerminusUIModule&#45;&gt;TsLoadingOverlayModule </title>
<path fill="none" stroke="#000000" stroke-dasharray="5,2" d="M2216.1174,-186C2280.9451,-186 2371.6331,-186 2371.6331,-186 2371.6331,-186 2371.6331,-205.8533 2371.6331,-205.8533"/>
<polygon fill="#000000" stroke="#000000" points="2368.1331,-205.8532 2371.6331,-215.8533 2375.1331,-205.8533 2368.1331,-205.8532"/>
</g>
<!-- TsLoginFormModule  -->
<g id="node38" class="node">
<title>TsLoginFormModule </title>
<polygon fill="#fb8072" stroke="#000000" points="2294.3241,-252 2153.6759,-252 2153.6759,-216 2294.3241,-216 2294.3241,-252"/>
<text text-anchor="middle" x="2224" y="-229.8" font-family="Times,serif" font-size="14.00" fill="#000000">TsLoginFormModule </text>
</g>
<!-- TerminusUIModule&#45;&gt;TsLoginFormModule  -->
<g id="edge37" class="edge">
<title>TerminusUIModule&#45;&gt;TsLoginFormModule </title>
<path fill="none" stroke="#000000" stroke-dasharray="5,2" d="M2184.7867,-187.1061C2184.7867,-187.1061 2184.7867,-205.991 2184.7867,-205.991"/>
<polygon fill="#000000" stroke="#000000" points="2181.2867,-205.9909 2184.7867,-215.991 2188.2867,-205.991 2181.2867,-205.9909"/>
</g>
<!-- TsMenuModule  -->
<g id="node39" class="node">
<title>TsMenuModule </title>
<polygon fill="#fb8072" stroke="#000000" points="2135.7066,-252 2026.2934,-252 2026.2934,-216 2135.7066,-216 2135.7066,-252"/>
<text text-anchor="middle" x="2081" y="-229.8" font-family="Times,serif" font-size="14.00" fill="#000000">TsMenuModule </text>
</g>
<!-- TerminusUIModule&#45;&gt;TsMenuModule  -->
<g id="edge38" class="edge">
<title>TerminusUIModule&#45;&gt;TsMenuModule </title>
<path fill="none" stroke="#000000" stroke-dasharray="5,2" d="M2111.9339,-187.1061C2111.9339,-187.1061 2111.9339,-205.991 2111.9339,-205.991"/>
<polygon fill="#000000" stroke="#000000" points="2108.434,-205.9909 2111.9339,-215.991 2115.434,-205.991 2108.434,-205.9909"/>
</g>
<!-- TsNavigationModule  -->
<g id="node40" class="node">
<title>TsNavigationModule </title>
<polygon fill="#fb8072" stroke="#000000" points="2008.7548,-252 1869.2452,-252 1869.2452,-216 2008.7548,-216 2008.7548,-252"/>
<text text-anchor="middle" x="1939" y="-229.8" font-family="Times,serif" font-size="14.00" fill="#000000">TsNavigationModule </text>
</g>
<!-- TerminusUIModule&#45;&gt;TsNavigationModule  -->
<g id="edge39" class="edge">
<title>TerminusUIModule&#45;&gt;TsNavigationModule </title>
<path fill="none" stroke="#000000" stroke-dasharray="5,2" d="M2087.9948,-186C2047.6415,-186 2003.1138,-186 2003.1138,-186 2003.1138,-186 2003.1138,-205.8533 2003.1138,-205.8533"/>
<polygon fill="#000000" stroke="#000000" points="1999.6139,-205.8532 2003.1138,-215.8533 2006.6139,-205.8533 1999.6139,-205.8532"/>
</g>
<!-- TsPaginatorModule  -->
<g id="node41" class="node">
<title>TsPaginatorModule </title>
<polygon fill="#fb8072" stroke="#000000" points="1851.2009,-252 1720.7991,-252 1720.7991,-216 1851.2009,-216 1851.2009,-252"/>
<text text-anchor="middle" x="1786" y="-229.8" font-family="Times,serif" font-size="14.00" fill="#000000">TsPaginatorModule </text>
</g>
<!-- TerminusUIModule&#45;&gt;TsPaginatorModule  -->
<g id="edge40" class="edge">
<title>TerminusUIModule&#45;&gt;TsPaginatorModule </title>
<path fill="none" stroke="#000000" stroke-dasharray="5,2" d="M2087.6593,-185C1988.0305,-185 1807.7834,-185 1807.7834,-185 1807.7834,-185 1807.7834,-205.7542 1807.7834,-205.7542"/>
<polygon fill="#000000" stroke="#000000" points="1804.2835,-205.7542 1807.7834,-215.7542 1811.2835,-205.7542 1804.2835,-205.7542"/>
</g>
<!-- TsRadioGroupModule  -->
<g id="node42" class="node">
<title>TsRadioGroupModule </title>
<polygon fill="#fb8072" stroke="#000000" points="1703.2562,-252 1556.7438,-252 1556.7438,-216 1703.2562,-216 1703.2562,-252"/>
<text text-anchor="middle" x="1630" y="-229.8" font-family="Times,serif" font-size="14.00" fill="#000000">TsRadioGroupModule </text>
</g>
<!-- TerminusUIModule&#45;&gt;TsRadioGroupModule  -->
<g id="edge41" class="edge">
<title>TerminusUIModule&#45;&gt;TsRadioGroupModule </title>
<path fill="none" stroke="#000000" stroke-dasharray="5,2" d="M2087.8413,-183C1962.5505,-183 1697.4725,-183 1697.4725,-183 1697.4725,-183 1697.4725,-205.8757 1697.4725,-205.8757"/>
<polygon fill="#000000" stroke="#000000" points="1693.9726,-205.8757 1697.4725,-215.8757 1700.9726,-205.8757 1693.9726,-205.8757"/>
</g>
<!-- TsSearchModule  -->
<g id="node43" class="node">
<title>TsSearchModule </title>
<polygon fill="#fb8072" stroke="#000000" points="1538.6341,-252 1423.3659,-252 1423.3659,-216 1538.6341,-216 1538.6341,-252"/>
<text text-anchor="middle" x="1481" y="-229.8" font-family="Times,serif" font-size="14.00" fill="#000000">TsSearchModule </text>
</g>
<!-- TerminusUIModule&#45;&gt;TsSearchModule  -->
<g id="edge42" class="edge">
<title>TerminusUIModule&#45;&gt;TsSearchModule </title>
<path fill="none" stroke="#000000" stroke-dasharray="5,2" d="M2087.9392,-182C1922.9594,-182 1496.3449,-182 1496.3449,-182 1496.3449,-182 1496.3449,-205.8129 1496.3449,-205.8129"/>
<polygon fill="#000000" stroke="#000000" points="1492.8449,-205.8129 1496.3449,-215.8129 1499.8449,-205.813 1492.8449,-205.8129"/>
</g>
<!-- TsSelectModule  -->
<g id="node44" class="node">
<title>TsSelectModule </title>
<polygon fill="#fb8072" stroke="#000000" points="1405.7549,-252 1294.2451,-252 1294.2451,-216 1405.7549,-216 1405.7549,-252"/>
<text text-anchor="middle" x="1350" y="-229.8" font-family="Times,serif" font-size="14.00" fill="#000000">TsSelectModule </text>
</g>
<!-- TerminusUIModule&#45;&gt;TsSelectModule  -->
<g id="edge43" class="edge">
<title>TerminusUIModule&#45;&gt;TsSelectModule </title>
<path fill="none" stroke="#000000" stroke-dasharray="5,2" d="M2087.8867,-180C1901.4456,-180 1372.5935,-180 1372.5935,-180 1372.5935,-180 1372.5935,-205.7181 1372.5935,-205.7181"/>
<polygon fill="#000000" stroke="#000000" points="1369.0935,-205.718 1372.5935,-215.7181 1376.0935,-205.7181 1369.0935,-205.718"/>
</g>
<!-- TsSortModule  -->
<g id="node45" class="node">
<title>TsSortModule </title>
<polygon fill="#fb8072" stroke="#000000" points="1276.3815,-252 1175.6185,-252 1175.6185,-216 1276.3815,-216 1276.3815,-252"/>
<text text-anchor="middle" x="1226" y="-229.8" font-family="Times,serif" font-size="14.00" fill="#000000">TsSortModule </text>
</g>
<!-- TerminusUIModule&#45;&gt;TsSortModule  -->
<g id="edge44" class="edge">
<title>TerminusUIModule&#45;&gt;TsSortModule </title>
<path fill="none" stroke="#000000" stroke-dasharray="5,2" d="M2087.8301,-179C1880.1104,-179 1239.4329,-179 1239.4329,-179 1239.4329,-179 1239.4329,-205.9909 1239.4329,-205.9909"/>
<polygon fill="#000000" stroke="#000000" points="1235.9329,-205.9909 1239.4329,-215.9909 1242.9329,-205.991 1235.9329,-205.9909"/>
</g>
<!-- TsSpacingModule  -->
<g id="node46" class="node">
<title>TsSpacingModule </title>
<polygon fill="#fb8072" stroke="#000000" points="1158.1495,-252 1035.8505,-252 1035.8505,-216 1158.1495,-216 1158.1495,-252"/>
<text text-anchor="middle" x="1097" y="-229.8" font-family="Times,serif" font-size="14.00" fill="#000000">TsSpacingModule </text>
</g>
<!-- TerminusUIModule&#45;&gt;TsSpacingModule  -->
<g id="edge45" class="edge">
<title>TerminusUIModule&#45;&gt;TsSpacingModule </title>
<path fill="none" stroke="#000000" stroke-dasharray="5,2" d="M2087.7518,-177C1861.9986,-177 1118.6825,-177 1118.6825,-177 1118.6825,-177 1118.6825,-205.9648 1118.6825,-205.9648"/>
<polygon fill="#000000" stroke="#000000" points="1115.1826,-205.9648 1118.6825,-215.9648 1122.1826,-205.9649 1115.1826,-205.9648"/>
</g>
<!-- TsTableModule  -->
<g id="node47" class="node">
<title>TsTableModule </title>
<polygon fill="#fb8072" stroke="#000000" points="1017.4194,-252 908.5806,-252 908.5806,-216 1017.4194,-216 1017.4194,-252"/>
<text text-anchor="middle" x="963" y="-229.8" font-family="Times,serif" font-size="14.00" fill="#000000">TsTableModule </text>
</g>
<!-- TerminusUIModule&#45;&gt;TsTableModule  -->
<g id="edge46" class="edge">
<title>TerminusUIModule&#45;&gt;TsTableModule </title>
<path fill="none" stroke="#000000" stroke-dasharray="5,2" d="M2087.8985,-176C1843.3767,-176 982.9287,-176 982.9287,-176 982.9287,-176 982.9287,-205.9664 982.9287,-205.9664"/>
<polygon fill="#000000" stroke="#000000" points="979.4287,-205.9663 982.9287,-215.9664 986.4287,-205.9664 979.4287,-205.9663"/>
</g>
<!-- TsToggleModule  -->
<g id="node48" class="node">
<title>TsToggleModule </title>
<polygon fill="#fb8072" stroke="#000000" points="890.2052,-252 773.7948,-252 773.7948,-216 890.2052,-216 890.2052,-252"/>
<text text-anchor="middle" x="832" y="-229.8" font-family="Times,serif" font-size="14.00" fill="#000000">TsToggleModule </text>
</g>
<!-- TerminusUIModule&#45;&gt;TsToggleModule  -->
<g id="edge47" class="edge">
<title>TerminusUIModule&#45;&gt;TsToggleModule </title>
<path fill="none" stroke="#000000" stroke-dasharray="5,2" d="M2088.0246,-175C1826.5648,-175 852.9834,-175 852.9834,-175 852.9834,-175 852.9834,-205.9775 852.9834,-205.9775"/>
<polygon fill="#000000" stroke="#000000" points="849.4834,-205.9774 852.9834,-215.9775 856.4834,-205.9775 849.4834,-205.9774"/>
</g>
<!-- TsTooltipModule  -->
<g id="node49" class="node">
<title>TsTooltipModule </title>
<polygon fill="#fb8072" stroke="#000000" points="756.2717,-252 637.7283,-252 637.7283,-216 756.2717,-216 756.2717,-252"/>
<text text-anchor="middle" x="697" y="-229.8" font-family="Times,serif" font-size="14.00" fill="#000000">TsTooltipModule </text>
</g>
<!-- TerminusUIModule&#45;&gt;TsTooltipModule  -->
<g id="edge48" class="edge">
<title>TerminusUIModule&#45;&gt;TsTooltipModule </title>
<path fill="none" stroke="#000000" stroke-dasharray="5,2" d="M2087.6031,-173C1806.0168,-173 697,-173 697,-173 697,-173 697,-205.698 697,-205.698"/>
<polygon fill="#000000" stroke="#000000" points="693.5001,-205.698 697,-215.698 700.5001,-205.698 693.5001,-205.698"/>
</g>
<!-- TsValidationMessagesModule  -->
<g id="node50" class="node">
<title>TsValidationMessagesModule </title>
<polygon fill="#fb8072" stroke="#000000" points="620.0679,-252 429.9321,-252 429.9321,-216 620.0679,-216 620.0679,-252"/>
<text text-anchor="middle" x="525" y="-229.8" font-family="Times,serif" font-size="14.00" fill="#000000">TsValidationMessagesModule </text>
</g>
<!-- TerminusUIModule&#45;&gt;TsValidationMessagesModule  -->
<g id="edge49" class="edge">
<title>TerminusUIModule&#45;&gt;TsValidationMessagesModule </title>
<path fill="none" stroke="#000000" stroke-dasharray="5,2" d="M2087.9295,-172C1797.1115,-172 615.375,-172 615.375,-172 615.375,-172 615.375,-205.7333 615.375,-205.7333"/>
<polygon fill="#000000" stroke="#000000" points="611.8751,-205.7333 615.375,-215.7333 618.8751,-205.7333 611.8751,-205.7333"/>
</g>
<!-- TsButtonModule -->
<g id="node3" class="node">
<title>TsButtonModule</title>
<polygon fill="#8dd3c7" stroke="#000000" points="3949.6653,-122 3946.6653,-126 3925.6653,-126 3922.6653,-122 3838.3347,-122 3838.3347,-86 3949.6653,-86 3949.6653,-122"/>
<text text-anchor="middle" x="3894" y="-99.8" font-family="Times,serif" font-size="14.00" fill="#000000">TsButtonModule</text>
</g>
<!-- TsButtonModule&#45;&gt;TerminusUIModule -->
<g id="edge2" class="edge">
<title>TsButtonModule&#45;&gt;TerminusUIModule</title>
<path fill="none" stroke="#000000" d="M3844.875,-122.1061C3844.875,-141.3391 3844.875,-169 3844.875,-169 3844.875,-169 2226.0392,-169 2226.0392,-169"/>
<polygon fill="#000000" stroke="#000000" points="2226.0392,-165.5001 2216.0392,-169 2226.0392,-172.5001 2226.0392,-165.5001"/>
</g>
<!-- TsCardModule -->
<g id="node4" class="node">
<title>TsCardModule</title>
<polygon fill="#8dd3c7" stroke="#000000" points="3820.2591,-122 3817.2591,-126 3796.2591,-126 3793.2591,-122 3719.7409,-122 3719.7409,-86 3820.2591,-86 3820.2591,-122"/>
<text text-anchor="middle" x="3770" y="-99.8" font-family="Times,serif" font-size="14.00" fill="#000000">TsCardModule</text>
</g>
<!-- TsCardModule&#45;&gt;TerminusUIModule -->
<g id="edge3" class="edge">
<title>TsCardModule&#45;&gt;TerminusUIModule</title>
<path fill="none" stroke="#000000" d="M3728.0191,-122.2222C3728.0191,-140.8285 3728.0191,-167 3728.0191,-167 3728.0191,-167 2226.226,-167 2226.226,-167"/>
<polygon fill="#000000" stroke="#000000" points="2226.2261,-163.5001 2216.226,-167 2226.226,-170.5001 2226.2261,-163.5001"/>
</g>
<!-- TsCheckboxModule -->
<g id="node5" class="node">
<title>TsCheckboxModule</title>
<polygon fill="#8dd3c7" stroke="#000000" points="3701.3132,-122 3698.3132,-126 3677.3132,-126 3674.3132,-122 3570.6868,-122 3570.6868,-86 3701.3132,-86 3701.3132,-122"/>
<text text-anchor="middle" x="3636" y="-99.8" font-family="Times,serif" font-size="14.00" fill="#000000">TsCheckboxModule</text>
</g>
<!-- TsCheckboxModule&#45;&gt;TerminusUIModule -->
<g id="edge4" class="edge">
<title>TsCheckboxModule&#45;&gt;TerminusUIModule</title>
<path fill="none" stroke="#000000" d="M3583.375,-122.2667C3583.375,-140.5552 3583.375,-166 3583.375,-166 3583.375,-166 2226.2839,-166 2226.2839,-166"/>
<polygon fill="#000000" stroke="#000000" points="2226.284,-162.5001 2216.2839,-166 2226.2839,-169.5001 2226.284,-162.5001"/>
</g>
<!-- TsCopyModule -->
<g id="node6" class="node">
<title>TsCopyModule</title>
<polygon fill="#8dd3c7" stroke="#000000" points="3552.8837,-122 3549.8837,-126 3528.8837,-126 3525.8837,-122 3449.1163,-122 3449.1163,-86 3552.8837,-86 3552.8837,-122"/>
<text text-anchor="middle" x="3501" y="-99.8" font-family="Times,serif" font-size="14.00" fill="#000000">TsCopyModule</text>
</g>
<!-- TsCopyModule&#45;&gt;TerminusUIModule -->
<g id="edge5" class="edge">
<title>TsCopyModule&#45;&gt;TerminusUIModule</title>
<path fill="none" stroke="#000000" d="M3455.5759,-122.002C3455.5759,-139.6754 3455.5759,-164 3455.5759,-164 3455.5759,-164 2226.1999,-164 2226.1999,-164"/>
<polygon fill="#000000" stroke="#000000" points="2226.1999,-160.5001 2216.1999,-164 2226.1999,-167.5001 2226.1999,-160.5001"/>
</g>
<!-- TsDateRangeModule -->
<g id="node7" class="node">
<title>TsDateRangeModule</title>
<polygon fill="#8dd3c7" stroke="#000000" points="3430.7395,-122 3427.7395,-126 3406.7395,-126 3403.7395,-122 3295.2605,-122 3295.2605,-86 3430.7395,-86 3430.7395,-122"/>
<text text-anchor="middle" x="3363" y="-99.8" font-family="Times,serif" font-size="14.00" fill="#000000">TsDateRangeModule</text>
</g>
<!-- TsDateRangeModule&#45;&gt;TerminusUIModule -->
<g id="edge6" class="edge">
<title>TsDateRangeModule&#45;&gt;TerminusUIModule</title>
<path fill="none" stroke="#000000" d="M3306.875,-122.0225C3306.875,-139.3734 3306.875,-163 3306.875,-163 3306.875,-163 2226.1503,-163 2226.1503,-163"/>
<polygon fill="#000000" stroke="#000000" points="2226.1504,-159.5001 2216.1503,-163 2226.1503,-166.5001 2226.1504,-159.5001"/>
</g>
<!-- TsDatepickerModule -->
<g id="node8" class="node">
<title>TsDatepickerModule</title>
<polygon fill="#8dd3c7" stroke="#000000" points="3277.4538,-122 3274.4538,-126 3253.4538,-126 3250.4538,-122 3142.5462,-122 3142.5462,-86 3277.4538,-86 3277.4538,-122"/>
<text text-anchor="middle" x="3210" y="-99.8" font-family="Times,serif" font-size="14.00" fill="#000000">TsDatepickerModule</text>
</g>
<!-- TsDatepickerModule&#45;&gt;TerminusUIModule -->
<g id="edge7" class="edge">
<title>TsDatepickerModule&#45;&gt;TerminusUIModule</title>
<path fill="none" stroke="#000000" d="M3151.875,-122.0336C3151.875,-139.0597 3151.875,-162 3151.875,-162 3151.875,-162 2226.0677,-162 2226.0677,-162"/>
<polygon fill="#000000" stroke="#000000" points="2226.0677,-158.5001 2216.0677,-162 2226.0677,-165.5001 2226.0677,-158.5001"/>
</g>
<!-- TsIconModule -->
<g id="node9" class="node">
<title>TsIconModule</title>
<polygon fill="#8dd3c7" stroke="#000000" points="3124.4231,-122 3121.4231,-126 3100.4231,-126 3097.4231,-122 3025.5769,-122 3025.5769,-86 3124.4231,-86 3124.4231,-122"/>
<text text-anchor="middle" x="3075" y="-99.8" font-family="Times,serif" font-size="14.00" fill="#000000">TsIconModule</text>
</g>
<!-- TsIconModule&#45;&gt;TerminusUIModule -->
<g id="edge8" class="edge">
<title>TsIconModule&#45;&gt;TerminusUIModule</title>
<path fill="none" stroke="#000000" d="M3091.4037,-122.027C3091.4037,-138.3976 3091.4037,-160 3091.4037,-160 3091.4037,-160 2226.1993,-160 2226.1993,-160"/>
<polygon fill="#000000" stroke="#000000" points="2226.1993,-156.5001 2216.1993,-160 2226.1993,-163.5001 2226.1993,-156.5001"/>
</g>
<!-- TsIconButtonModule -->
<g id="node10" class="node">
<title>TsIconButtonModule</title>
<polygon fill="#8dd3c7" stroke="#000000" points="3008.0408,-122 3005.0408,-126 2984.0408,-126 2981.0408,-122 2871.9592,-122 2871.9592,-86 3008.0408,-86 3008.0408,-122"/>
<text text-anchor="middle" x="2940" y="-99.8" font-family="Times,serif" font-size="14.00" fill="#000000">TsIconButtonModule</text>
</g>
<!-- TsIconButtonModule&#45;&gt;TerminusUIModule -->
<g id="edge9" class="edge">
<title>TsIconButtonModule&#45;&gt;TerminusUIModule</title>
<path fill="none" stroke="#000000" d="M2878.375,-122.0091C2878.375,-138.0494 2878.375,-159 2878.375,-159 2878.375,-159 2226.1423,-159 2226.1423,-159"/>
<polygon fill="#000000" stroke="#000000" points="2226.1423,-155.5001 2216.1423,-159 2226.1423,-162.5001 2226.1423,-155.5001"/>
</g>
<!-- TsInputModule -->
<g id="node11" class="node">
<title>TsInputModule</title>
<polygon fill="#8dd3c7" stroke="#000000" points="2853.5982,-122 2850.5982,-126 2829.5982,-126 2826.5982,-122 2750.4018,-122 2750.4018,-86 2853.5982,-86 2853.5982,-122"/>
<text text-anchor="middle" x="2802" y="-99.8" font-family="Times,serif" font-size="14.00" fill="#000000">TsInputModule</text>
</g>
<!-- TsInputModule&#45;&gt;TerminusUIModule -->
<g id="edge10" class="edge">
<title>TsInputModule&#45;&gt;TerminusUIModule</title>
<path fill="none" stroke="#000000" d="M2819.183,-122.2396C2819.183,-137.5706 2819.183,-157 2819.183,-157 2819.183,-157 2225.9723,-157 2225.9723,-157"/>
<polygon fill="#000000" stroke="#000000" points="2225.9723,-153.5001 2215.9723,-157 2225.9723,-160.5001 2225.9723,-153.5001"/>
</g>
<!-- TsLinkModule -->
<g id="node12" class="node">
<title>TsLinkModule</title>
<polygon fill="#8dd3c7" stroke="#000000" points="2731.9902,-122 2728.9902,-126 2707.9902,-126 2704.9902,-122 2632.0098,-122 2632.0098,-86 2731.9902,-86 2731.9902,-122"/>
<text text-anchor="middle" x="2682" y="-99.8" font-family="Times,serif" font-size="14.00" fill="#000000">TsLinkModule</text>
</g>
<!-- TsLinkModule&#45;&gt;TerminusUIModule -->
<g id="edge11" class="edge">
<title>TsLinkModule&#45;&gt;TerminusUIModule</title>
<path fill="none" stroke="#000000" d="M2679.652,-122.1871C2679.652,-137.1824 2679.652,-156 2679.652,-156 2679.652,-156 2226.173,-156 2226.173,-156"/>
<polygon fill="#000000" stroke="#000000" points="2226.173,-152.5001 2216.173,-156 2226.1729,-159.5001 2226.173,-152.5001"/>
</g>
<!-- TsLoadingOverlayModule -->
<g id="node13" class="node">
<title>TsLoadingOverlayModule</title>
<polygon fill="#8dd3c7" stroke="#000000" points="2613.7921,-122 2610.7921,-126 2589.7921,-126 2586.7921,-122 2448.2079,-122 2448.2079,-86 2613.7921,-86 2613.7921,-122"/>
<text text-anchor="middle" x="2531" y="-99.8" font-family="Times,serif" font-size="14.00" fill="#000000">TsLoadingOverlayModule</text>
</g>
<!-- TsLoadingOverlayModule&#45;&gt;TerminusUIModule -->
<g id="edge12" class="edge">
<title>TsLoadingOverlayModule&#45;&gt;TerminusUIModule</title>
<path fill="none" stroke="#000000" d="M2464.875,-122.0511C2464.875,-136.373 2464.875,-154 2464.875,-154 2464.875,-154 2226.0699,-154 2226.0699,-154"/>
<polygon fill="#000000" stroke="#000000" points="2226.07,-150.5001 2216.0699,-154 2226.0699,-157.5001 2226.07,-150.5001"/>
</g>
<!-- TsLoginFormModule -->
<g id="node14" class="node">
<title>TsLoginFormModule</title>
<polygon fill="#8dd3c7" stroke="#000000" points="2430.8244,-122 2427.8244,-126 2406.8244,-126 2403.8244,-122 2293.1756,-122 2293.1756,-86 2430.8244,-86 2430.8244,-122"/>
<text text-anchor="middle" x="2362" y="-99.8" font-family="Times,serif" font-size="14.00" fill="#000000">TsLoginFormModule</text>
</g>
<!-- TsLoginFormModule&#45;&gt;TerminusUIModule -->
<g id="edge13" class="edge">
<title>TsLoginFormModule&#45;&gt;TerminusUIModule</title>
<path fill="none" stroke="#000000" d="M2303.5081,-122.2458C2303.5081,-136.1772 2303.5081,-153 2303.5081,-153 2303.5081,-153 2226.2531,-153 2226.2531,-153"/>
<polygon fill="#000000" stroke="#000000" points="2226.2531,-149.5001 2216.2531,-153 2226.253,-156.5001 2226.2531,-149.5001"/>
</g>
<!-- TsMenuModule -->
<g id="node15" class="node">
<title>TsMenuModule</title>
<polygon fill="#8dd3c7" stroke="#000000" points="2275.2064,-122 2272.2064,-126 2251.2064,-126 2248.2064,-122 2168.7936,-122 2168.7936,-86 2275.2064,-86 2275.2064,-122"/>
<text text-anchor="middle" x="2222" y="-99.8" font-family="Times,serif" font-size="14.00" fill="#000000">TsMenuModule</text>
</g>
<!-- TsMenuModule&#45;&gt;TerminusUIModule -->
<g id="edge14" class="edge">
<title>TsMenuModule&#45;&gt;TerminusUIModule</title>
<path fill="none" stroke="#000000" d="M2192.4411,-122.1061C2192.4411,-122.1061 2192.4411,-140.991 2192.4411,-140.991"/>
<polygon fill="#000000" stroke="#000000" points="2188.9412,-140.9909 2192.4411,-150.991 2195.9412,-140.991 2188.9412,-140.9909"/>
</g>
<!-- TsNavigationModule -->
<g id="node16" class="node">
<title>TsNavigationModule</title>
<polygon fill="#8dd3c7" stroke="#000000" points="2150.7548,-122 2147.7548,-126 2126.7548,-126 2123.7548,-122 2015.2452,-122 2015.2452,-86 2150.7548,-86 2150.7548,-122"/>
<text text-anchor="middle" x="2083" y="-99.8" font-family="Times,serif" font-size="14.00" fill="#000000">TsNavigationModule</text>
</g>
<!-- TsNavigationModule&#45;&gt;TerminusUIModule -->
<g id="edge15" class="edge">
<title>TsNavigationModule&#45;&gt;TerminusUIModule</title>
<path fill="none" stroke="#000000" d="M2119.446,-122.1061C2119.446,-122.1061 2119.446,-140.991 2119.446,-140.991"/>
<polygon fill="#000000" stroke="#000000" points="2115.9461,-140.9909 2119.446,-150.991 2122.9461,-140.991 2115.9461,-140.9909"/>
</g>
<!-- TsPaginatorModule -->
<g id="node17" class="node">
<title>TsPaginatorModule</title>
<polygon fill="#8dd3c7" stroke="#000000" points="1997.7008,-122 1994.7008,-126 1973.7008,-126 1970.7008,-122 1870.2992,-122 1870.2992,-86 1997.7008,-86 1997.7008,-122"/>
<text text-anchor="middle" x="1934" y="-99.8" font-family="Times,serif" font-size="14.00" fill="#000000">TsPaginatorModule</text>
</g>
<!-- TsPaginatorModule&#45;&gt;TerminusUIModule -->
<g id="edge16" class="edge">
<title>TsPaginatorModule&#45;&gt;TerminusUIModule</title>
<path fill="none" stroke="#000000" d="M1934,-122.2458C1934,-136.1772 1934,-153 1934,-153 1934,-153 2077.7719,-153 2077.7719,-153"/>
<polygon fill="#000000" stroke="#000000" points="2077.7719,-156.5001 2087.7719,-153 2077.7719,-149.5001 2077.7719,-156.5001"/>
</g>
<!-- TsRadioGroupModule -->
<g id="node18" class="node">
<title>TsRadioGroupModule</title>
<polygon fill="#8dd3c7" stroke="#000000" points="1852.2562,-122 1849.2562,-126 1828.2562,-126 1825.2562,-122 1709.7438,-122 1709.7438,-86 1852.2562,-86 1852.2562,-122"/>
<text text-anchor="middle" x="1781" y="-99.8" font-family="Times,serif" font-size="14.00" fill="#000000">TsRadioGroupModule</text>
</g>
<!-- TsRadioGroupModule&#45;&gt;TerminusUIModule -->
<g id="edge17" class="edge">
<title>TsRadioGroupModule&#45;&gt;TerminusUIModule</title>
<path fill="none" stroke="#000000" d="M1764.2166,-122.0511C1764.2166,-136.373 1764.2166,-154 1764.2166,-154 1764.2166,-154 2077.9655,-154 2077.9655,-154"/>
<polygon fill="#000000" stroke="#000000" points="2077.9655,-157.5001 2087.9655,-154 2077.9654,-150.5001 2077.9655,-157.5001"/>
</g>
<!-- TsSearchModule -->
<g id="node19" class="node">
<title>TsSearchModule</title>
<polygon fill="#8dd3c7" stroke="#000000" points="1691.6346,-122 1688.6346,-126 1667.6346,-126 1664.6346,-122 1580.3654,-122 1580.3654,-86 1691.6346,-86 1691.6346,-122"/>
<text text-anchor="middle" x="1636" y="-99.8" font-family="Times,serif" font-size="14.00" fill="#000000">TsSearchModule</text>
</g>
<!-- TsSearchModule&#45;&gt;TerminusUIModule -->
<g id="edge18" class="edge">
<title>TsSearchModule&#45;&gt;TerminusUIModule</title>
<path fill="none" stroke="#000000" d="M1636,-122.1871C1636,-137.1824 1636,-156 1636,-156 1636,-156 2077.9514,-156 2077.9514,-156"/>
<polygon fill="#000000" stroke="#000000" points="2077.9514,-159.5001 2087.9514,-156 2077.9513,-152.5001 2077.9514,-159.5001"/>
</g>
<!-- TsSelectModule -->
<g id="node20" class="node">
<title>TsSelectModule</title>
<polygon fill="#8dd3c7" stroke="#000000" points="1561.7549,-122 1558.7549,-126 1537.7549,-126 1534.7549,-122 1454.2451,-122 1454.2451,-86 1561.7549,-86 1561.7549,-122"/>
<text text-anchor="middle" x="1508" y="-99.8" font-family="Times,serif" font-size="14.00" fill="#000000">TsSelectModule</text>
</g>
<!-- TsSelectModule&#45;&gt;TerminusUIModule -->
<g id="edge19" class="edge">
<title>TsSelectModule&#45;&gt;TerminusUIModule</title>
<path fill="none" stroke="#000000" d="M1547.7195,-122.2396C1547.7195,-137.5706 1547.7195,-157 1547.7195,-157 1547.7195,-157 2077.9035,-157 2077.9035,-157"/>
<polygon fill="#000000" stroke="#000000" points="2077.9035,-160.5001 2087.9035,-157 2077.9035,-153.5001 2077.9035,-160.5001"/>
</g>
<!-- TsSortModule -->
<g id="node21" class="node">
<title>TsSortModule</title>
<polygon fill="#8dd3c7" stroke="#000000" points="1436.3809,-122 1433.3809,-126 1412.3809,-126 1409.3809,-122 1339.6191,-122 1339.6191,-86 1436.3809,-86 1436.3809,-122"/>
<text text-anchor="middle" x="1388" y="-99.8" font-family="Times,serif" font-size="14.00" fill="#000000">TsSortModule</text>
</g>
<!-- TsSortModule&#45;&gt;TerminusUIModule -->
<g id="edge20" class="edge">
<title>TsSortModule&#45;&gt;TerminusUIModule</title>
<path fill="none" stroke="#000000" d="M1429.9367,-122.0091C1429.9367,-138.0494 1429.9367,-159 1429.9367,-159 1429.9367,-159 2077.9217,-159 2077.9217,-159"/>
<polygon fill="#000000" stroke="#000000" points="2077.9217,-162.5001 2087.9217,-159 2077.9217,-155.5001 2077.9217,-162.5001"/>
</g>
<!-- TsSpacingModule -->
<g id="node22" class="node">
<title>TsSpacingModule</title>
<polygon fill="#8dd3c7" stroke="#000000" points="1321.1499,-122 1318.1499,-126 1297.1499,-126 1294.1499,-122 1202.8501,-122 1202.8501,-86 1321.1499,-86 1321.1499,-122"/>
<text text-anchor="middle" x="1262" y="-99.8" font-family="Times,serif" font-size="14.00" fill="#000000">TsSpacingModule</text>
</g>
<!-- TsSpacingModule&#45;&gt;TerminusUIModule -->
<g id="edge21" class="edge">
<title>TsSpacingModule&#45;&gt;TerminusUIModule</title>
<path fill="none" stroke="#000000" d="M1307.8487,-122.027C1307.8487,-138.3976 1307.8487,-160 1307.8487,-160 1307.8487,-160 2077.8586,-160 2077.8586,-160"/>
<polygon fill="#000000" stroke="#000000" points="2077.8586,-163.5001 2087.8586,-160 2077.8586,-156.5001 2077.8586,-163.5001"/>
</g>
<!-- TsTableModule -->
<g id="node23" class="node">
<title>TsTableModule</title>
<polygon fill="#8dd3c7" stroke="#000000" points="1184.9202,-122 1181.9202,-126 1160.9202,-126 1157.9202,-122 1079.0798,-122 1079.0798,-86 1184.9202,-86 1184.9202,-122"/>
<text text-anchor="middle" x="1132" y="-99.8" font-family="Times,serif" font-size="14.00" fill="#000000">TsTableModule</text>
</g>
<!-- TsTableModule&#45;&gt;TerminusUIModule -->
<g id="edge22" class="edge">
<title>TsTableModule&#45;&gt;TerminusUIModule</title>
<path fill="none" stroke="#000000" d="M1180.2597,-122.0336C1180.2597,-139.0597 1180.2597,-162 1180.2597,-162 1180.2597,-162 2077.8656,-162 2077.8656,-162"/>
<polygon fill="#000000" stroke="#000000" points="2077.8656,-165.5001 2087.8656,-162 2077.8656,-158.5001 2077.8656,-165.5001"/>
</g>
<!-- TsToggleModule -->
<g id="node24" class="node">
<title>TsToggleModule</title>
<polygon fill="#8dd3c7" stroke="#000000" points="1061.705,-122 1058.705,-126 1037.705,-126 1034.705,-122 948.295,-122 948.295,-86 1061.705,-86 1061.705,-122"/>
<text text-anchor="middle" x="1005" y="-99.8" font-family="Times,serif" font-size="14.00" fill="#000000">TsToggleModule</text>
</g>
<!-- TsToggleModule&#45;&gt;TerminusUIModule -->
<g id="edge23" class="edge">
<title>TsToggleModule&#45;&gt;TerminusUIModule</title>
<path fill="none" stroke="#000000" d="M1048.7639,-122.0225C1048.7639,-139.3734 1048.7639,-163 1048.7639,-163 1048.7639,-163 2077.9168,-163 2077.9168,-163"/>
<polygon fill="#000000" stroke="#000000" points="2077.9168,-166.5001 2087.9168,-163 2077.9167,-159.5001 2077.9168,-166.5001"/>
</g>
<!-- TsTooltipModule -->
<g id="node25" class="node">
<title>TsTooltipModule</title>
<polygon fill="#8dd3c7" stroke="#000000" points="930.2716,-122 927.2716,-126 906.2716,-126 903.2716,-122 815.7284,-122 815.7284,-86 930.2716,-86 930.2716,-122"/>
<text text-anchor="middle" x="873" y="-99.8" font-family="Times,serif" font-size="14.00" fill="#000000">TsTooltipModule</text>
</g>
<!-- TsTooltipModule&#45;&gt;TerminusUIModule -->
<g id="edge24" class="edge">
<title>TsTooltipModule&#45;&gt;TerminusUIModule</title>
<path fill="none" stroke="#000000" d="M919.463,-122.002C919.463,-139.6754 919.463,-164 919.463,-164 919.463,-164 2077.8995,-164 2077.8995,-164"/>
<polygon fill="#000000" stroke="#000000" points="2077.8995,-167.5001 2087.8995,-164 2077.8995,-160.5001 2077.8995,-167.5001"/>
</g>
<!-- TsValidationMessagesModule -->
<g id="node26" class="node">
<title>TsValidationMessagesModule</title>
<polygon fill="#8dd3c7" stroke="#000000" points="797.5674,-122 794.5674,-126 773.5674,-126 770.5674,-122 610.4326,-122 610.4326,-86 797.5674,-86 797.5674,-122"/>
<text text-anchor="middle" x="704" y="-99.8" font-family="Times,serif" font-size="14.00" fill="#000000">TsValidationMessagesModule</text>
</g>
<!-- TsValidationMessagesModule&#45;&gt;TerminusUIModule -->
<g id="edge25" class="edge">
<title>TsValidationMessagesModule&#45;&gt;TerminusUIModule</title>
<path fill="none" stroke="#000000" d="M785.5907,-122.2667C785.5907,-140.5552 785.5907,-166 785.5907,-166 785.5907,-166 2077.928,-166 2077.928,-166"/>
<polygon fill="#000000" stroke="#000000" points="2077.928,-169.5001 2087.928,-166 2077.9279,-162.5001 2077.928,-169.5001"/>
</g>
<!-- TsWindowService -->
<g id="node51" class="node">
<title>TsWindowService</title>
<ellipse fill="#fdb462" stroke="#000000" cx="503" cy="-104" rx="82.8052" ry="18"/>
<text text-anchor="middle" x="503" y="-99.8" font-family="Times,serif" font-size="14.00" fill="#000000">TsWindowService</text>
</g>
<!-- TsWindowService&#45;&gt;TerminusUIModule -->
<g id="edge50" class="edge">
<title>TsWindowService&#45;&gt;TerminusUIModule</title>
<path fill="none" stroke="#000000" d="M507.8094,-122.2222C507.8094,-140.8285 507.8094,-167 507.8094,-167 507.8094,-167 2077.7983,-167 2077.7983,-167"/>
<polygon fill="#000000" stroke="#000000" points="2077.7984,-170.5001 2087.7983,-167 2077.7983,-163.5001 2077.7984,-170.5001"/>
</g>
<!-- TsDocumentService -->
<g id="node52" class="node">
<title>TsDocumentService</title>
<ellipse fill="#fdb462" stroke="#000000" cx="312" cy="-104" rx="89.746" ry="18"/>
<text text-anchor="middle" x="312" y="-99.8" font-family="Times,serif" font-size="14.00" fill="#000000">TsDocumentService</text>
</g>
<!-- TsDocumentService&#45;&gt;TerminusUIModule -->
<g id="edge51" class="edge">
<title>TsDocumentService&#45;&gt;TerminusUIModule</title>
<path fill="none" stroke="#000000" d="M312,-122.1061C312,-141.3391 312,-169 312,-169 312,-169 2077.8608,-169 2077.8608,-169"/>
<polygon fill="#000000" stroke="#000000" points="2077.8608,-172.5001 2087.8608,-169 2077.8607,-165.5001 2077.8608,-172.5001"/>
</g>
<!-- TsValidatorsService -->
<g id="node53" class="node">
<title>TsValidatorsService</title>
<ellipse fill="#fdb462" stroke="#000000" cx="114" cy="-104" rx="89.7402" ry="18"/>
<text text-anchor="middle" x="114" y="-99.8" font-family="Times,serif" font-size="14.00" fill="#000000">TsValidatorsService</text>
</g>
<!-- TsValidatorsService&#45;&gt;TerminusUIModule -->
<g id="edge52" class="edge">
<title>TsValidatorsService&#45;&gt;TerminusUIModule</title>
<path fill="none" stroke="#000000" d="M114,-122.0348C114,-141.5762 114,-170 114,-170 114,-170 2077.9244,-170 2077.9244,-170"/>
<polygon fill="#000000" stroke="#000000" points="2077.9244,-173.5001 2087.9244,-170 2077.9243,-166.5001 2077.9244,-173.5001"/>
</g>
</g>
</svg>
