<?xml version="1.0" encoding="UTF-8" standalone="no"?>
<!DOCTYPE svg PUBLIC "-//W3C//DTD SVG 1.1//EN"
 "http://www.w3.org/Graphics/SVG/1.1/DTD/svg11.dtd">
<!-- Generated by graphviz version 2.40.1 (20161225.0304)
 -->
<!-- Title: dependencies Pages: 1 -->
<svg width="2845pt" height="284pt"
 viewBox="0.00 0.00 2845.00 284.00" xmlns="http://www.w3.org/2000/svg" xmlns:xlink="http://www.w3.org/1999/xlink">
<g id="graph0" class="graph" transform="scale(1 1) rotate(0) translate(4 280)">
<title>dependencies</title>
<polygon fill="#ffffff" stroke="transparent" points="-4,4 -4,-280 2841,-280 2841,4 -4,4"/>
<text text-anchor="start" x="1397.5091" y="-42.4" font-family="sans-serif" font-weight="bold" font-size="14.00" fill="#000000">Legend</text>
<polygon fill="#ffffb3" stroke="transparent" points="1184.5,-10 1184.5,-30 1204.5,-30 1204.5,-10 1184.5,-10"/>
<text text-anchor="start" x="1208.129" y="-15.4" font-family="sans-serif" font-size="14.00" fill="#000000"> &#160;Declarations</text>
<polygon fill="#8dd3c7" stroke="transparent" points="1297.5,-10 1297.5,-30 1317.5,-30 1317.5,-10 1297.5,-10"/>
<text text-anchor="start" x="1321.2251" y="-15.4" font-family="sans-serif" font-size="14.00" fill="#000000"> &#160;Module</text>
<polygon fill="#80b1d3" stroke="transparent" points="1383.5,-10 1383.5,-30 1403.5,-30 1403.5,-10 1383.5,-10"/>
<text text-anchor="start" x="1407.2812" y="-15.4" font-family="sans-serif" font-size="14.00" fill="#000000"> &#160;Bootstrap</text>
<polygon fill="#fdb462" stroke="transparent" points="1480.5,-10 1480.5,-30 1500.5,-30 1500.5,-10 1480.5,-10"/>
<text text-anchor="start" x="1504.1732" y="-15.4" font-family="sans-serif" font-size="14.00" fill="#000000"> &#160;Providers</text>
<polygon fill="#fb8072" stroke="transparent" points="1576.5,-10 1576.5,-30 1596.5,-30 1596.5,-10 1576.5,-10"/>
<text text-anchor="start" x="1600.2258" y="-15.4" font-family="sans-serif" font-size="14.00" fill="#000000"> &#160;Exports</text>
<g id="clust1" class="cluster">
<title>cluster_TerminusUIModule</title>
<polygon fill="none" stroke="#000000" stroke-dasharray="1,5" points="8,-70 8,-268 2829,-268 2829,-70 8,-70"/>
</g>
<g id="clust2" class="cluster">
<title>cluster_TerminusUIModule_declarations</title>
<polygon fill="none" stroke="#000000" points="2603,-78 2603,-130 2821,-130 2821,-78 2603,-78"/>
</g>
<g id="clust4" class="cluster">
<title>cluster_TerminusUIModule_imports</title>
<polygon fill="none" stroke="#000000" points="206,-78 206,-130 2595,-130 2595,-78 206,-78"/>
</g>
<g id="clust5" class="cluster">
<title>cluster_TerminusUIModule_exports</title>
<polygon fill="none" stroke="#000000" points="176,-208 176,-260 2625,-260 2625,-208 176,-208"/>
</g>
<g id="clust7" class="cluster">
<title>cluster_TerminusUIModule_providers</title>
<polygon fill="none" stroke="#000000" points="16,-78 16,-130 198,-130 198,-78 16,-78"/>
</g>
<!-- TsReactiveFormBaseComponent -->
<g id="node1" class="node">
<title>TsReactiveFormBaseComponent</title>
<polygon fill="#ffffb3" stroke="#000000" points="2812.8501,-122 2611.1499,-122 2611.1499,-86 2812.8501,-86 2812.8501,-122"/>
<text text-anchor="middle" x="2712" y="-99.8" font-family="Times,serif" font-size="14.00" fill="#000000">TsReactiveFormBaseComponent</text>
</g>
<!-- TerminusUIModule -->
<g id="node2" class="node">
<title>TerminusUIModule</title>
<polygon fill="#8dd3c7" stroke="#000000" points="1480.9706,-187 1477.9706,-191 1456.9706,-191 1453.9706,-187 1353.0294,-187 1353.0294,-151 1480.9706,-151 1480.9706,-187"/>
<text text-anchor="middle" x="1417" y="-164.8" font-family="Times,serif" font-size="14.00" fill="#000000">TerminusUIModule</text>
</g>
<!-- TsReactiveFormBaseComponent&#45;&gt;TerminusUIModule -->
<g id="edge1" class="edge">
<title>TsReactiveFormBaseComponent&#45;&gt;TerminusUIModule</title>
<path fill="none" stroke="#000000" d="M2714.7537,-122.1061C2714.7537,-141.3391 2714.7537,-169 2714.7537,-169 2714.7537,-169 1491.3558,-169 1491.3558,-169"/>
<polygon fill="#000000" stroke="#000000" points="1491.3558,-165.5001 1481.3558,-169 1491.3558,-172.5001 1491.3558,-165.5001"/>
</g>
<!-- TsButtonModule  -->
<g id="node20" class="node">
<title>TsButtonModule </title>
<polygon fill="#fb8072" stroke="#000000" points="2616.6649,-252 2501.3351,-252 2501.3351,-216 2616.6649,-216 2616.6649,-252"/>
<text text-anchor="middle" x="2559" y="-229.8" font-family="Times,serif" font-size="14.00" fill="#000000">TsButtonModule </text>
</g>
<!-- TerminusUIModule&#45;&gt;TsButtonModule  -->
<g id="edge19" class="edge">
<title>TerminusUIModule&#45;&gt;TsButtonModule </title>
<path fill="none" stroke="#000000" stroke-dasharray="5,2" d="M1481.2374,-172C1720.2061,-172 2544.125,-172 2544.125,-172 2544.125,-172 2544.125,-205.7333 2544.125,-205.7333"/>
<polygon fill="#000000" stroke="#000000" points="2540.6251,-205.7333 2544.125,-215.7333 2547.6251,-205.7333 2540.6251,-205.7333"/>
</g>
<!-- TsInputModule  -->
<g id="node21" class="node">
<title>TsInputModule </title>
<polygon fill="#fb8072" stroke="#000000" points="2483.099,-252 2376.901,-252 2376.901,-216 2483.099,-216 2483.099,-252"/>
<text text-anchor="middle" x="2430" y="-229.8" font-family="Times,serif" font-size="14.00" fill="#000000">TsInputModule </text>
</g>
<!-- TerminusUIModule&#45;&gt;TsInputModule  -->
<g id="edge20" class="edge">
<title>TerminusUIModule&#45;&gt;TsInputModule </title>
<path fill="none" stroke="#000000" stroke-dasharray="5,2" d="M1481.0837,-174C1701.8218,-174 2417.125,-174 2417.125,-174 2417.125,-174 2417.125,-205.998 2417.125,-205.998"/>
<polygon fill="#000000" stroke="#000000" points="2413.6251,-205.998 2417.125,-215.998 2420.6251,-205.9981 2413.6251,-205.998"/>
</g>
<!-- TsValidationMessagesModule  -->
<g id="node22" class="node">
<title>TsValidationMessagesModule </title>
<polygon fill="#fb8072" stroke="#000000" points="2358.0679,-252 2167.9321,-252 2167.9321,-216 2358.0679,-216 2358.0679,-252"/>
<text text-anchor="middle" x="2263" y="-229.8" font-family="Times,serif" font-size="14.00" fill="#000000">TsValidationMessagesModule </text>
</g>
<!-- TerminusUIModule&#45;&gt;TsValidationMessagesModule  -->
<g id="edge21" class="edge">
<title>TerminusUIModule&#45;&gt;TsValidationMessagesModule </title>
<path fill="none" stroke="#000000" stroke-dasharray="5,2" d="M1481.1442,-176C1676.6991,-176 2252.125,-176 2252.125,-176 2252.125,-176 2252.125,-205.9664 2252.125,-205.9664"/>
<polygon fill="#000000" stroke="#000000" points="2248.6251,-205.9663 2252.125,-215.9664 2255.6251,-205.9664 2248.6251,-205.9663"/>
</g>
<!-- TsMenuModule  -->
<g id="node23" class="node">
<title>TsMenuModule </title>
<polygon fill="#fb8072" stroke="#000000" points="2149.7066,-252 2040.2934,-252 2040.2934,-216 2149.7066,-216 2149.7066,-252"/>
<text text-anchor="middle" x="2095" y="-229.8" font-family="Times,serif" font-size="14.00" fill="#000000">TsMenuModule </text>
</g>
<!-- TerminusUIModule&#45;&gt;TsMenuModule  -->
<g id="edge22" class="edge">
<title>TerminusUIModule&#45;&gt;TsMenuModule </title>
<path fill="none" stroke="#000000" stroke-dasharray="5,2" d="M1481.1106,-178C1648.462,-178 2085.625,-178 2085.625,-178 2085.625,-178 2085.625,-205.973 2085.625,-205.973"/>
<polygon fill="#000000" stroke="#000000" points="2082.1251,-205.973 2085.625,-215.973 2089.1251,-205.973 2082.1251,-205.973"/>
</g>
<!-- TsSelectModule  -->
<g id="node24" class="node">
<title>TsSelectModule </title>
<polygon fill="#fb8072" stroke="#000000" points="2022.7549,-252 1911.2451,-252 1911.2451,-216 2022.7549,-216 2022.7549,-252"/>
<text text-anchor="middle" x="1967" y="-229.8" font-family="Times,serif" font-size="14.00" fill="#000000">TsSelectModule </text>
</g>
<!-- TerminusUIModule&#45;&gt;TsSelectModule  -->
<g id="edge23" class="edge">
<title>TerminusUIModule&#45;&gt;TsSelectModule </title>
<path fill="none" stroke="#000000" stroke-dasharray="5,2" d="M1481.0501,-181C1624.5052,-181 1959.125,-181 1959.125,-181 1959.125,-181 1959.125,-205.7604 1959.125,-205.7604"/>
<polygon fill="#000000" stroke="#000000" points="1955.6251,-205.7604 1959.125,-215.7604 1962.6251,-205.7604 1955.6251,-205.7604"/>
</g>
<!-- TsToggleModule  -->
<g id="node25" class="node">
<title>TsToggleModule </title>
<polygon fill="#fb8072" stroke="#000000" points="1893.2052,-252 1776.7948,-252 1776.7948,-216 1893.2052,-216 1893.2052,-252"/>
<text text-anchor="middle" x="1835" y="-229.8" font-family="Times,serif" font-size="14.00" fill="#000000">TsToggleModule </text>
</g>
<!-- TerminusUIModule&#45;&gt;TsToggleModule  -->
<g id="edge24" class="edge">
<title>TerminusUIModule&#45;&gt;TsToggleModule </title>
<path fill="none" stroke="#000000" stroke-dasharray="5,2" d="M1481.3945,-183C1597.3047,-183 1829.125,-183 1829.125,-183 1829.125,-183 1829.125,-205.8757 1829.125,-205.8757"/>
<polygon fill="#000000" stroke="#000000" points="1825.6251,-205.8757 1829.125,-215.8757 1832.6251,-205.8757 1825.6251,-205.8757"/>
</g>
<!-- TsSearchModule  -->
<g id="node26" class="node">
<title>TsSearchModule </title>
<polygon fill="#fb8072" stroke="#000000" points="1758.6341,-252 1643.3659,-252 1643.3659,-216 1758.6341,-216 1758.6341,-252"/>
<text text-anchor="middle" x="1701" y="-229.8" font-family="Times,serif" font-size="14.00" fill="#000000">TsSearchModule </text>
</g>
<!-- TerminusUIModule&#45;&gt;TsSearchModule  -->
<g id="edge25" class="edge">
<title>TerminusUIModule&#45;&gt;TsSearchModule </title>
<path fill="none" stroke="#000000" stroke-dasharray="5,2" d="M1481.1481,-185C1558.7802,-185 1679.2277,-185 1679.2277,-185 1679.2277,-185 1679.2277,-205.7542 1679.2277,-205.7542"/>
<polygon fill="#000000" stroke="#000000" points="1675.7278,-205.7542 1679.2277,-215.7542 1682.7278,-205.7542 1675.7278,-205.7542"/>
</g>
<!-- TsPaginationModule  -->
<g id="node27" class="node">
<title>TsPaginationModule </title>
<polygon fill="#fb8072" stroke="#000000" points="1625.4306,-252 1488.5694,-252 1488.5694,-216 1625.4306,-216 1625.4306,-252"/>
<text text-anchor="middle" x="1557" y="-229.8" font-family="Times,serif" font-size="14.00" fill="#000000">TsPaginationModule </text>
</g>
<!-- TerminusUIModule&#45;&gt;TsPaginationModule  -->
<g id="edge26" class="edge">
<title>TerminusUIModule&#45;&gt;TsPaginationModule </title>
<path fill="none" stroke="#000000" stroke-dasharray="5,2" d="M1475.8386,-187.1061C1475.8386,-206.3391 1475.8386,-234 1475.8386,-234 1475.8386,-234 1478.52,-234 1478.52,-234"/>
<polygon fill="#000000" stroke="#000000" points="1478.5201,-237.5001 1488.52,-234 1478.52,-230.5001 1478.5201,-237.5001"/>
</g>
<!-- TsCopyModule  -->
<g id="node28" class="node">
<title>TsCopyModule </title>
<polygon fill="#fb8072" stroke="#000000" points="1470.8843,-252 1363.1157,-252 1363.1157,-216 1470.8843,-216 1470.8843,-252"/>
<text text-anchor="middle" x="1417" y="-229.8" font-family="Times,serif" font-size="14.00" fill="#000000">TsCopyModule </text>
</g>
<!-- TerminusUIModule&#45;&gt;TsCopyModule  -->
<g id="edge27" class="edge">
<title>TerminusUIModule&#45;&gt;TsCopyModule </title>
<path fill="none" stroke="#000000" stroke-dasharray="5,2" d="M1417,-187.1061C1417,-187.1061 1417,-205.991 1417,-205.991"/>
<polygon fill="#000000" stroke="#000000" points="1413.5001,-205.9909 1417,-215.991 1420.5001,-205.991 1413.5001,-205.9909"/>
</g>
<!-- TsTooltipModule  -->
<g id="node29" class="node">
<title>TsTooltipModule </title>
<polygon fill="#fb8072" stroke="#000000" points="1345.2717,-252 1226.7283,-252 1226.7283,-216 1345.2717,-216 1345.2717,-252"/>
<text text-anchor="middle" x="1286" y="-229.8" font-family="Times,serif" font-size="14.00" fill="#000000">TsTooltipModule </text>
</g>
<!-- TerminusUIModule&#45;&gt;TsTooltipModule  -->
<g id="edge28" class="edge">
<title>TerminusUIModule&#45;&gt;TsTooltipModule </title>
<path fill="none" stroke="#000000" stroke-dasharray="5,2" d="M1358.1615,-187.1061C1358.1615,-206.3391 1358.1615,-234 1358.1615,-234 1358.1615,-234 1355.2604,-234 1355.2604,-234"/>
<polygon fill="#000000" stroke="#000000" points="1355.2605,-230.5001 1345.2604,-234 1355.2604,-237.5001 1355.2605,-230.5001"/>
</g>
<!-- TsDatepickerModule  -->
<g id="node30" class="node">
<title>TsDatepickerModule </title>
<polygon fill="#fb8072" stroke="#000000" points="1209.4545,-252 1070.5455,-252 1070.5455,-216 1209.4545,-216 1209.4545,-252"/>
<text text-anchor="middle" x="1140" y="-229.8" font-family="Times,serif" font-size="14.00" fill="#000000">TsDatepickerModule </text>
</g>
<!-- TerminusUIModule&#45;&gt;TsDatepickerModule  -->
<g id="edge29" class="edge">
<title>TerminusUIModule&#45;&gt;TsDatepickerModule </title>
<path fill="none" stroke="#000000" stroke-dasharray="5,2" d="M1352.7909,-185C1266.2132,-185 1122.7577,-185 1122.7577,-185 1122.7577,-185 1122.7577,-205.7542 1122.7577,-205.7542"/>
<polygon fill="#000000" stroke="#000000" points="1119.2578,-205.7542 1122.7577,-215.7542 1126.2578,-205.7542 1119.2578,-205.7542"/>
</g>
<!-- TsDateRangeModule  -->
<g id="node31" class="node">
<title>TsDateRangeModule </title>
<polygon fill="#fb8072" stroke="#000000" points="1052.7394,-252 913.2606,-252 913.2606,-216 1052.7394,-216 1052.7394,-252"/>
<text text-anchor="middle" x="983" y="-229.8" font-family="Times,serif" font-size="14.00" fill="#000000">TsDateRangeModule </text>
</g>
<!-- TerminusUIModule&#45;&gt;TsDateRangeModule  -->
<g id="edge30" class="edge">
<title>TerminusUIModule&#45;&gt;TsDateRangeModule </title>
<path fill="none" stroke="#000000" stroke-dasharray="5,2" d="M1352.9802,-183C1233.6872,-183 989.375,-183 989.375,-183 989.375,-183 989.375,-205.8757 989.375,-205.8757"/>
<polygon fill="#000000" stroke="#000000" points="985.8751,-205.8757 989.375,-215.8757 992.8751,-205.8757 985.8751,-205.8757"/>
</g>
<!-- TsSpacingModule  -->
<g id="node32" class="node">
<title>TsSpacingModule </title>
<polygon fill="#fb8072" stroke="#000000" points="895.1495,-252 772.8505,-252 772.8505,-216 895.1495,-216 895.1495,-252"/>
<text text-anchor="middle" x="834" y="-229.8" font-family="Times,serif" font-size="14.00" fill="#000000">TsSpacingModule </text>
</g>
<!-- TerminusUIModule&#45;&gt;TsSpacingModule  -->
<g id="edge31" class="edge">
<title>TerminusUIModule&#45;&gt;TsSpacingModule </title>
<path fill="none" stroke="#000000" stroke-dasharray="5,2" d="M1352.7558,-181C1202.8095,-181 842.375,-181 842.375,-181 842.375,-181 842.375,-205.7604 842.375,-205.7604"/>
<polygon fill="#000000" stroke="#000000" points="838.8751,-205.7604 842.375,-215.7604 845.8751,-205.7604 838.8751,-205.7604"/>
</g>
<!-- TsCheckboxModule  -->
<g id="node33" class="node">
<title>TsCheckboxModule </title>
<polygon fill="#fb8072" stroke="#000000" points="754.8129,-252 621.1871,-252 621.1871,-216 754.8129,-216 754.8129,-252"/>
<text text-anchor="middle" x="688" y="-229.8" font-family="Times,serif" font-size="14.00" fill="#000000">TsCheckboxModule </text>
</g>
<!-- TerminusUIModule&#45;&gt;TsCheckboxModule  -->
<g id="edge32" class="edge">
<title>TerminusUIModule&#45;&gt;TsCheckboxModule </title>
<path fill="none" stroke="#000000" stroke-dasharray="5,2" d="M1352.9109,-178C1176.7796,-178 698.375,-178 698.375,-178 698.375,-178 698.375,-205.973 698.375,-205.973"/>
<polygon fill="#000000" stroke="#000000" points="694.8751,-205.973 698.375,-215.973 701.8751,-205.973 694.8751,-205.973"/>
</g>
<!-- TsLoginFormModule  -->
<g id="node34" class="node">
<title>TsLoginFormModule </title>
<polygon fill="#fb8072" stroke="#000000" points="603.3241,-252 462.6759,-252 462.6759,-216 603.3241,-216 603.3241,-252"/>
<text text-anchor="middle" x="533" y="-229.8" font-family="Times,serif" font-size="14.00" fill="#000000">TsLoginFormModule </text>
</g>
<!-- TerminusUIModule&#45;&gt;TsLoginFormModule  -->
<g id="edge33" class="edge">
<title>TerminusUIModule&#45;&gt;TsLoginFormModule </title>
<path fill="none" stroke="#000000" stroke-dasharray="5,2" d="M1352.8706,-176C1151.464,-176 544.875,-176 544.875,-176 544.875,-176 544.875,-205.9664 544.875,-205.9664"/>
<polygon fill="#000000" stroke="#000000" points="541.3751,-205.9663 544.875,-215.9664 548.3751,-205.9664 541.3751,-205.9663"/>
</g>
<!-- TsLinkModule  -->
<g id="node35" class="node">
<title>TsLinkModule </title>
<polygon fill="#fb8072" stroke="#000000" points="444.9914,-252 341.0086,-252 341.0086,-216 444.9914,-216 444.9914,-252"/>
<text text-anchor="middle" x="393" y="-229.8" font-family="Times,serif" font-size="14.00" fill="#000000">TsLinkModule </text>
</g>
<!-- TerminusUIModule&#45;&gt;TsLinkModule  -->
<g id="edge34" class="edge">
<title>TerminusUIModule&#45;&gt;TsLinkModule </title>
<path fill="none" stroke="#000000" stroke-dasharray="5,2" d="M1353.0142,-174C1130.8582,-174 406.375,-174 406.375,-174 406.375,-174 406.375,-205.998 406.375,-205.998"/>
<polygon fill="#000000" stroke="#000000" points="402.8751,-205.998 406.375,-215.998 409.8751,-205.9981 402.8751,-205.998"/>
</g>
<!-- TsNavigationModule  -->
<g id="node36" class="node">
<title>TsNavigationModule </title>
<polygon fill="#fb8072" stroke="#000000" points="323.7548,-252 184.2452,-252 184.2452,-216 323.7548,-216 323.7548,-252"/>
<text text-anchor="middle" x="254" y="-229.8" font-family="Times,serif" font-size="14.00" fill="#000000">TsNavigationModule </text>
</g>
<!-- TerminusUIModule&#45;&gt;TsNavigationModule  -->
<g id="edge35" class="edge">
<title>TerminusUIModule&#45;&gt;TsNavigationModule </title>
<path fill="none" stroke="#000000" stroke-dasharray="5,2" d="M1352.8116,-172C1111.023,-172 268.875,-172 268.875,-172 268.875,-172 268.875,-205.7333 268.875,-205.7333"/>
<polygon fill="#000000" stroke="#000000" points="265.3751,-205.7333 268.875,-215.7333 272.3751,-205.7333 265.3751,-205.7333"/>
</g>
<!-- TsButtonModule -->
<g id="node3" class="node">
<title>TsButtonModule</title>
<polygon fill="#8dd3c7" stroke="#000000" points="2586.6653,-122 2583.6653,-126 2562.6653,-126 2559.6653,-122 2475.3347,-122 2475.3347,-86 2586.6653,-86 2586.6653,-122"/>
<text text-anchor="middle" x="2531" y="-99.8" font-family="Times,serif" font-size="14.00" fill="#000000">TsButtonModule</text>
</g>
<!-- TsButtonModule&#45;&gt;TerminusUIModule -->
<g id="edge2" class="edge">
<title>TsButtonModule&#45;&gt;TerminusUIModule</title>
<path fill="none" stroke="#000000" d="M2479.2334,-122.2222C2479.2334,-140.8285 2479.2334,-167 2479.2334,-167 2479.2334,-167 1491.0553,-167 1491.0553,-167"/>
<polygon fill="#000000" stroke="#000000" points="1491.0553,-163.5001 1481.0553,-167 1491.0553,-170.5001 1491.0553,-163.5001"/>
</g>
<!-- TsInputModule -->
<g id="node4" class="node">
<title>TsInputModule</title>
<polygon fill="#8dd3c7" stroke="#000000" points="2457.5982,-122 2454.5982,-126 2433.5982,-126 2430.5982,-122 2354.4018,-122 2354.4018,-86 2457.5982,-86 2457.5982,-122"/>
<text text-anchor="middle" x="2406" y="-99.8" font-family="Times,serif" font-size="14.00" fill="#000000">TsInputModule</text>
</g>
<!-- TsInputModule&#45;&gt;TerminusUIModule -->
<g id="edge3" class="edge">
<title>TsInputModule&#45;&gt;TerminusUIModule</title>
<path fill="none" stroke="#000000" d="M2367.4923,-122.302C2367.4923,-140.2699 2367.4923,-165 2367.4923,-165 2367.4923,-165 1491.2117,-165 1491.2117,-165"/>
<polygon fill="#000000" stroke="#000000" points="1491.2117,-161.5001 1481.2117,-165 1491.2117,-168.5001 1491.2117,-161.5001"/>
</g>
<!-- TsValidationMessagesModule -->
<g id="node5" class="node">
<title>TsValidationMessagesModule</title>
<polygon fill="#8dd3c7" stroke="#000000" points="2336.5674,-122 2333.5674,-126 2312.5674,-126 2309.5674,-122 2149.4326,-122 2149.4326,-86 2336.5674,-86 2336.5674,-122"/>
<text text-anchor="middle" x="2243" y="-99.8" font-family="Times,serif" font-size="14.00" fill="#000000">TsValidationMessagesModule</text>
</g>
<!-- TsValidationMessagesModule&#45;&gt;TerminusUIModule -->
<g id="edge4" class="edge">
<title>TsValidationMessagesModule&#45;&gt;TerminusUIModule</title>
<path fill="none" stroke="#000000" d="M2158.7847,-122.0225C2158.7847,-139.3734 2158.7847,-163 2158.7847,-163 2158.7847,-163 1491.2082,-163 1491.2082,-163"/>
<polygon fill="#000000" stroke="#000000" points="1491.2082,-159.5001 1481.2082,-163 1491.2082,-166.5001 1491.2082,-159.5001"/>
</g>
<!-- TsMenuModule -->
<g id="node6" class="node">
<title>TsMenuModule</title>
<polygon fill="#8dd3c7" stroke="#000000" points="2131.2064,-122 2128.2064,-126 2107.2064,-126 2104.2064,-122 2024.7936,-122 2024.7936,-86 2131.2064,-86 2131.2064,-122"/>
<text text-anchor="middle" x="2078" y="-99.8" font-family="Times,serif" font-size="14.00" fill="#000000">TsMenuModule</text>
</g>
<!-- TsMenuModule&#45;&gt;TerminusUIModule -->
<g id="edge5" class="edge">
<title>TsMenuModule&#45;&gt;TerminusUIModule</title>
<path fill="none" stroke="#000000" d="M2032.5219,-122.027C2032.5219,-138.3976 2032.5219,-160 2032.5219,-160 2032.5219,-160 1491.1297,-160 1491.1297,-160"/>
<polygon fill="#000000" stroke="#000000" points="1491.1298,-156.5001 1481.1297,-160 1491.1297,-163.5001 1491.1298,-156.5001"/>
</g>
<!-- TsSelectModule -->
<g id="node7" class="node">
<title>TsSelectModule</title>
<polygon fill="#8dd3c7" stroke="#000000" points="2006.7549,-122 2003.7549,-126 1982.7549,-126 1979.7549,-122 1899.2451,-122 1899.2451,-86 2006.7549,-86 2006.7549,-122"/>
<text text-anchor="middle" x="1953" y="-99.8" font-family="Times,serif" font-size="14.00" fill="#000000">TsSelectModule</text>
</g>
<!-- TsSelectModule&#45;&gt;TerminusUIModule -->
<g id="edge6" class="edge">
<title>TsSelectModule&#45;&gt;TerminusUIModule</title>
<path fill="none" stroke="#000000" d="M1905.2477,-122.2819C1905.2477,-137.9478 1905.2477,-158 1905.2477,-158 1905.2477,-158 1491.0807,-158 1491.0807,-158"/>
<polygon fill="#000000" stroke="#000000" points="1491.0807,-154.5001 1481.0807,-158 1491.0807,-161.5001 1491.0807,-154.5001"/>
</g>
<!-- TsToggleModule -->
<g id="node8" class="node">
<title>TsToggleModule</title>
<polygon fill="#8dd3c7" stroke="#000000" points="1881.705,-122 1878.705,-126 1857.705,-126 1854.705,-122 1768.295,-122 1768.295,-86 1881.705,-86 1881.705,-122"/>
<text text-anchor="middle" x="1825" y="-99.8" font-family="Times,serif" font-size="14.00" fill="#000000">TsToggleModule</text>
</g>
<!-- TsToggleModule&#45;&gt;TerminusUIModule -->
<g id="edge7" class="edge">
<title>TsToggleModule&#45;&gt;TerminusUIModule</title>
<path fill="none" stroke="#000000" d="M1772.5226,-122.1871C1772.5226,-137.1824 1772.5226,-156 1772.5226,-156 1772.5226,-156 1490.9709,-156 1490.9709,-156"/>
<polygon fill="#000000" stroke="#000000" points="1490.971,-152.5001 1480.9709,-156 1490.9709,-159.5001 1490.971,-152.5001"/>
</g>
<!-- TsSearchModule -->
<g id="node9" class="node">
<title>TsSearchModule</title>
<polygon fill="#8dd3c7" stroke="#000000" points="1750.6346,-122 1747.6346,-126 1726.6346,-126 1723.6346,-122 1639.3654,-122 1639.3654,-86 1750.6346,-86 1750.6346,-122"/>
<text text-anchor="middle" x="1695" y="-99.8" font-family="Times,serif" font-size="14.00" fill="#000000">TsSearchModule</text>
</g>
<!-- TsSearchModule&#45;&gt;TerminusUIModule -->
<g id="edge8" class="edge">
<title>TsSearchModule&#45;&gt;TerminusUIModule</title>
<path fill="none" stroke="#000000" d="M1715.0223,-122.0511C1715.0223,-136.373 1715.0223,-154 1715.0223,-154 1715.0223,-154 1491.2995,-154 1491.2995,-154"/>
<polygon fill="#000000" stroke="#000000" points="1491.2995,-150.5001 1481.2995,-154 1491.2995,-157.5001 1491.2995,-150.5001"/>
</g>
<!-- TsPaginationModule -->
<g id="node10" class="node">
<title>TsPaginationModule</title>
<polygon fill="#8dd3c7" stroke="#000000" points="1620.9313,-122 1617.9313,-126 1596.9313,-126 1593.9313,-122 1487.0687,-122 1487.0687,-86 1620.9313,-86 1620.9313,-122"/>
<text text-anchor="middle" x="1554" y="-99.8" font-family="Times,serif" font-size="14.00" fill="#000000">TsPaginationModule</text>
</g>
<!-- TsPaginationModule&#45;&gt;TerminusUIModule -->
<g id="edge9" class="edge">
<title>TsPaginationModule&#45;&gt;TerminusUIModule</title>
<path fill="none" stroke="#000000" d="M1486.9675,-104C1479.7502,-104 1474.9636,-104 1474.9636,-104 1474.9636,-104 1474.9636,-140.8939 1474.9636,-140.8939"/>
<polygon fill="#000000" stroke="#000000" points="1471.4636,-140.8938 1474.9636,-150.8939 1478.4636,-140.8939 1471.4636,-140.8938"/>
</g>
<!-- TsCopyModule -->
<g id="node11" class="node">
<title>TsCopyModule</title>
<polygon fill="#8dd3c7" stroke="#000000" points="1468.8837,-122 1465.8837,-126 1444.8837,-126 1441.8837,-122 1365.1163,-122 1365.1163,-86 1468.8837,-86 1468.8837,-122"/>
<text text-anchor="middle" x="1417" y="-99.8" font-family="Times,serif" font-size="14.00" fill="#000000">TsCopyModule</text>
</g>
<!-- TsCopyModule&#45;&gt;TerminusUIModule -->
<g id="edge10" class="edge">
<title>TsCopyModule&#45;&gt;TerminusUIModule</title>
<path fill="none" stroke="#000000" d="M1417,-122.1061C1417,-122.1061 1417,-140.991 1417,-140.991"/>
<polygon fill="#000000" stroke="#000000" points="1413.5001,-140.9909 1417,-150.991 1420.5001,-140.991 1413.5001,-140.9909"/>
</g>
<!-- TsTooltipModule -->
<g id="node12" class="node">
<title>TsTooltipModule</title>
<polygon fill="#8dd3c7" stroke="#000000" points="1347.2716,-122 1344.2716,-126 1323.2716,-126 1320.2716,-122 1232.7284,-122 1232.7284,-86 1347.2716,-86 1347.2716,-122"/>
<text text-anchor="middle" x="1290" y="-99.8" font-family="Times,serif" font-size="14.00" fill="#000000">TsTooltipModule</text>
</g>
<!-- TsTooltipModule&#45;&gt;TerminusUIModule -->
<g id="edge11" class="edge">
<title>TsTooltipModule&#45;&gt;TerminusUIModule</title>
<path fill="none" stroke="#000000" d="M1347.3254,-104C1354.3077,-104 1359.0365,-104 1359.0365,-104 1359.0365,-104 1359.0365,-140.8939 1359.0365,-140.8939"/>
<polygon fill="#000000" stroke="#000000" points="1355.5365,-140.8938 1359.0365,-150.8939 1362.5365,-140.8939 1355.5365,-140.8938"/>
</g>
<!-- TsDatepickerModule -->
<g id="node13" class="node">
<title>TsDatepickerModule</title>
<polygon fill="#8dd3c7" stroke="#000000" points="1214.4538,-122 1211.4538,-126 1190.4538,-126 1187.4538,-122 1079.5462,-122 1079.5462,-86 1214.4538,-86 1214.4538,-122"/>
<text text-anchor="middle" x="1147" y="-99.8" font-family="Times,serif" font-size="14.00" fill="#000000">TsDatepickerModule</text>
</g>
<!-- TsDatepickerModule&#45;&gt;TerminusUIModule -->
<g id="edge12" class="edge">
<title>TsDatepickerModule&#45;&gt;TerminusUIModule</title>
<path fill="none" stroke="#000000" d="M1165.9923,-122.0511C1165.9923,-136.373 1165.9923,-154 1165.9923,-154 1165.9923,-154 1343.0107,-154 1343.0107,-154"/>
<polygon fill="#000000" stroke="#000000" points="1343.0107,-157.5001 1353.0107,-154 1343.0107,-150.5001 1343.0107,-157.5001"/>
</g>
<!-- TsDateRangeModule -->
<g id="node14" class="node">
<title>TsDateRangeModule</title>
<polygon fill="#8dd3c7" stroke="#000000" points="1061.7395,-122 1058.7395,-126 1037.7395,-126 1034.7395,-122 926.2605,-122 926.2605,-86 1061.7395,-86 1061.7395,-122"/>
<text text-anchor="middle" x="994" y="-99.8" font-family="Times,serif" font-size="14.00" fill="#000000">TsDateRangeModule</text>
</g>
<!-- TsDateRangeModule&#45;&gt;TerminusUIModule -->
<g id="edge13" class="edge">
<title>TsDateRangeModule&#45;&gt;TerminusUIModule</title>
<path fill="none" stroke="#000000" d="M1057.2446,-122.1871C1057.2446,-137.1824 1057.2446,-156 1057.2446,-156 1057.2446,-156 1342.6829,-156 1342.6829,-156"/>
<polygon fill="#000000" stroke="#000000" points="1342.683,-159.5001 1352.6829,-156 1342.6829,-152.5001 1342.683,-159.5001"/>
</g>
<!-- TsSpacingModule -->
<g id="node15" class="node">
<title>TsSpacingModule</title>
<polygon fill="#8dd3c7" stroke="#000000" points="908.1499,-122 905.1499,-126 884.1499,-126 881.1499,-122 789.8501,-122 789.8501,-86 908.1499,-86 908.1499,-122"/>
<text text-anchor="middle" x="849" y="-99.8" font-family="Times,serif" font-size="14.00" fill="#000000">TsSpacingModule</text>
</g>
<!-- TsSpacingModule&#45;&gt;TerminusUIModule -->
<g id="edge14" class="edge">
<title>TsSpacingModule&#45;&gt;TerminusUIModule</title>
<path fill="none" stroke="#000000" d="M901.6997,-122.2819C901.6997,-137.9478 901.6997,-158 901.6997,-158 901.6997,-158 1342.7788,-158 1342.7788,-158"/>
<polygon fill="#000000" stroke="#000000" points="1342.7788,-161.5001 1352.7788,-158 1342.7787,-154.5001 1342.7788,-161.5001"/>
</g>
<!-- TsCheckboxModule -->
<g id="node16" class="node">
<title>TsCheckboxModule</title>
<polygon fill="#8dd3c7" stroke="#000000" points="772.3132,-122 769.3132,-126 748.3132,-126 745.3132,-122 641.6868,-122 641.6868,-86 772.3132,-86 772.3132,-122"/>
<text text-anchor="middle" x="707" y="-99.8" font-family="Times,serif" font-size="14.00" fill="#000000">TsCheckboxModule</text>
</g>
<!-- TsCheckboxModule&#45;&gt;TerminusUIModule -->
<g id="edge15" class="edge">
<title>TsCheckboxModule&#45;&gt;TerminusUIModule</title>
<path fill="none" stroke="#000000" d="M763.5314,-122.027C763.5314,-138.3976 763.5314,-160 763.5314,-160 763.5314,-160 1342.854,-160 1342.854,-160"/>
<polygon fill="#000000" stroke="#000000" points="1342.854,-163.5001 1352.854,-160 1342.854,-156.5001 1342.854,-163.5001"/>
</g>
<!-- TsLoginFormModule -->
<g id="node17" class="node">
<title>TsLoginFormModule</title>
<polygon fill="#8dd3c7" stroke="#000000" points="623.8244,-122 620.8244,-126 599.8244,-126 596.8244,-122 486.1756,-122 486.1756,-86 623.8244,-86 623.8244,-122"/>
<text text-anchor="middle" x="555" y="-99.8" font-family="Times,serif" font-size="14.00" fill="#000000">TsLoginFormModule</text>
</g>
<!-- TsLoginFormModule&#45;&gt;TerminusUIModule -->
<g id="edge16" class="edge">
<title>TsLoginFormModule&#45;&gt;TerminusUIModule</title>
<path fill="none" stroke="#000000" d="M612.2528,-122.0225C612.2528,-139.3734 612.2528,-163 612.2528,-163 612.2528,-163 1342.8427,-163 1342.8427,-163"/>
<polygon fill="#000000" stroke="#000000" points="1342.8428,-166.5001 1352.8427,-163 1342.8427,-159.5001 1342.8428,-166.5001"/>
</g>
<!-- TsLinkModule -->
<g id="node18" class="node">
<title>TsLinkModule</title>
<polygon fill="#8dd3c7" stroke="#000000" points="467.9902,-122 464.9902,-126 443.9902,-126 440.9902,-122 368.0098,-122 368.0098,-86 467.9902,-86 467.9902,-122"/>
<text text-anchor="middle" x="418" y="-99.8" font-family="Times,serif" font-size="14.00" fill="#000000">TsLinkModule</text>
</g>
<!-- TsLinkModule&#45;&gt;TerminusUIModule -->
<g id="edge17" class="edge">
<title>TsLinkModule&#45;&gt;TerminusUIModule</title>
<path fill="none" stroke="#000000" d="M453.6666,-122.302C453.6666,-140.2699 453.6666,-165 453.6665,-165 453.6665,-165 1342.6725,-165 1342.6725,-165"/>
<polygon fill="#000000" stroke="#000000" points="1342.6726,-168.5001 1352.6725,-165 1342.6725,-161.5001 1342.6726,-168.5001"/>
</g>
<!-- TsNavigationModule -->
<g id="node19" class="node">
<title>TsNavigationModule</title>
<polygon fill="#8dd3c7" stroke="#000000" points="349.7548,-122 346.7548,-126 325.7548,-126 322.7548,-122 214.2452,-122 214.2452,-86 349.7548,-86 349.7548,-122"/>
<text text-anchor="middle" x="282" y="-99.8" font-family="Times,serif" font-size="14.00" fill="#000000">TsNavigationModule</text>
</g>
<!-- TsNavigationModule&#45;&gt;TerminusUIModule -->
<g id="edge18" class="edge">
<title>TsNavigationModule&#45;&gt;TerminusUIModule</title>
<path fill="none" stroke="#000000" d="M345.5661,-122.2222C345.5661,-140.8285 345.5661,-167 345.5661,-167 345.5661,-167 1342.7883,-167 1342.7883,-167"/>
<polygon fill="#000000" stroke="#000000" points="1342.7883,-170.5001 1352.7883,-167 1342.7882,-163.5001 1342.7883,-170.5001"/>
</g>
<!-- TsWindowService -->
<g id="node37" class="node">
<title>TsWindowService</title>
<ellipse fill="#fdb462" stroke="#000000" cx="107" cy="-104" rx="82.8052" ry="18"/>
<text text-anchor="middle" x="107" y="-99.8" font-family="Times,serif" font-size="14.00" fill="#000000">TsWindowService</text>
</g>
<!-- TsWindowService&#45;&gt;TerminusUIModule -->
<g id="edge36" class="edge">
<title>TsWindowService&#45;&gt;TerminusUIModule</title>
<path fill="none" stroke="#000000" d="M104.2351,-122.1061C104.2351,-141.3391 104.2351,-169 104.2351,-169 104.2351,-169 1342.794,-169 1342.794,-169"/>
<polygon fill="#000000" stroke="#000000" points="1342.794,-172.5001 1352.794,-169 1342.7939,-165.5001 1342.794,-172.5001"/>
</g>
</g>
</svg>
