<?xml version="1.0" encoding="UTF-8" standalone="no"?>
<!DOCTYPE svg PUBLIC "-//W3C//DTD SVG 1.1//EN"
 "http://www.w3.org/Graphics/SVG/1.1/DTD/svg11.dtd">
<!-- Generated by graphviz version 2.40.1 (20161225.0304)
 -->
<!-- Title: dependencies Pages: 1 -->
<svg width="3937pt" height="284pt"
 viewBox="0.00 0.00 3937.00 284.00" xmlns="http://www.w3.org/2000/svg" xmlns:xlink="http://www.w3.org/1999/xlink">
<g id="graph0" class="graph" transform="scale(1 1) rotate(0) translate(4 280)">
<title>dependencies</title>
<polygon fill="#ffffff" stroke="transparent" points="-4,4 -4,-280 3933,-280 3933,4 -4,4"/>
<text text-anchor="start" x="1943.5091" y="-42.4" font-family="sans-serif" font-weight="bold" font-size="14.00" fill="#000000">Legend</text>
<polygon fill="#ffffb3" stroke="transparent" points="1730.5,-10 1730.5,-30 1750.5,-30 1750.5,-10 1730.5,-10"/>
<text text-anchor="start" x="1754.129" y="-15.4" font-family="sans-serif" font-size="14.00" fill="#000000"> &#160;Declarations</text>
<polygon fill="#8dd3c7" stroke="transparent" points="1843.5,-10 1843.5,-30 1863.5,-30 1863.5,-10 1843.5,-10"/>
<text text-anchor="start" x="1867.2251" y="-15.4" font-family="sans-serif" font-size="14.00" fill="#000000"> &#160;Module</text>
<polygon fill="#80b1d3" stroke="transparent" points="1929.5,-10 1929.5,-30 1949.5,-30 1949.5,-10 1929.5,-10"/>
<text text-anchor="start" x="1953.2812" y="-15.4" font-family="sans-serif" font-size="14.00" fill="#000000"> &#160;Bootstrap</text>
<polygon fill="#fdb462" stroke="transparent" points="2026.5,-10 2026.5,-30 2046.5,-30 2046.5,-10 2026.5,-10"/>
<text text-anchor="start" x="2050.1732" y="-15.4" font-family="sans-serif" font-size="14.00" fill="#000000"> &#160;Providers</text>
<polygon fill="#fb8072" stroke="transparent" points="2122.5,-10 2122.5,-30 2142.5,-30 2142.5,-10 2122.5,-10"/>
<text text-anchor="start" x="2146.2258" y="-15.4" font-family="sans-serif" font-size="14.00" fill="#000000"> &#160;Exports</text>
<g id="clust1" class="cluster">
<title>cluster_TerminusUIModule</title>
<polygon fill="none" stroke="#000000" stroke-dasharray="1,5" points="8,-70 8,-268 3921,-268 3921,-70 8,-70"/>
</g>
<g id="clust2" class="cluster">
<title>cluster_TerminusUIModule_declarations</title>
<polygon fill="none" stroke="#000000" points="3695,-78 3695,-130 3913,-130 3913,-78 3695,-78"/>
</g>
<g id="clust4" class="cluster">
<title>cluster_TerminusUIModule_imports</title>
<polygon fill="none" stroke="#000000" points="602,-78 602,-130 3687,-130 3687,-78 602,-78"/>
</g>
<g id="clust5" class="cluster">
<title>cluster_TerminusUIModule_exports</title>
<polygon fill="none" stroke="#000000" points="420,-208 420,-260 3581,-260 3581,-208 420,-208"/>
</g>
<g id="clust7" class="cluster">
<title>cluster_TerminusUIModule_providers</title>
<polygon fill="none" stroke="#000000" points="16,-78 16,-130 594,-130 594,-78 16,-78"/>
</g>
<!-- TsReactiveFormBaseComponent -->
<g id="node1" class="node">
<title>TsReactiveFormBaseComponent</title>
<polygon fill="#ffffb3" stroke="#000000" points="3904.8501,-122 3703.1499,-122 3703.1499,-86 3904.8501,-86 3904.8501,-122"/>
<text text-anchor="middle" x="3804" y="-99.8" font-family="Times,serif" font-size="14.00" fill="#000000">TsReactiveFormBaseComponent</text>
</g>
<!-- TerminusUIModule -->
<g id="node2" class="node">
<title>TerminusUIModule</title>
<polygon fill="#8dd3c7" stroke="#000000" points="2071.9706,-187 2068.9706,-191 2047.9706,-191 2044.9706,-187 1944.0294,-187 1944.0294,-151 2071.9706,-151 2071.9706,-187"/>
<text text-anchor="middle" x="2008" y="-164.8" font-family="Times,serif" font-size="14.00" fill="#000000">TerminusUIModule</text>
</g>
<!-- TsReactiveFormBaseComponent&#45;&gt;TerminusUIModule -->
<g id="edge1" class="edge">
<title>TsReactiveFormBaseComponent&#45;&gt;TerminusUIModule</title>
<path fill="none" stroke="#000000" d="M3804,-122.0348C3804,-141.5762 3804,-170 3804,-170 3804,-170 2082.1851,-170 2082.1851,-170"/>
<polygon fill="#000000" stroke="#000000" points="2082.1851,-166.5001 2072.1851,-170 2082.1851,-173.5001 2082.1851,-166.5001"/>
</g>
<!-- TsButtonModule  -->
<g id="node25" class="node">
<title>TsButtonModule </title>
<polygon fill="#fb8072" stroke="#000000" points="3572.6649,-252 3457.3351,-252 3457.3351,-216 3572.6649,-216 3572.6649,-252"/>
<text text-anchor="middle" x="3515" y="-229.8" font-family="Times,serif" font-size="14.00" fill="#000000">TsButtonModule </text>
</g>
<!-- TerminusUIModule&#45;&gt;TsButtonModule  -->
<g id="edge24" class="edge">
<title>TerminusUIModule&#45;&gt;TsButtonModule </title>
<path fill="none" stroke="#000000" stroke-dasharray="5,2" d="M2072.2554,-172C2358.484,-172 3503.3985,-172 3503.3985,-172 3503.3985,-172 3503.3985,-205.7333 3503.3985,-205.7333"/>
<polygon fill="#000000" stroke="#000000" points="3499.8986,-205.7333 3503.3985,-215.7333 3506.8986,-205.7333 3499.8986,-205.7333"/>
</g>
<!-- TsCardModule  -->
<g id="node26" class="node">
<title>TsCardModule </title>
<polygon fill="#fb8072" stroke="#000000" points="3439.2591,-252 3334.7409,-252 3334.7409,-216 3439.2591,-216 3439.2591,-252"/>
<text text-anchor="middle" x="3387" y="-229.8" font-family="Times,serif" font-size="14.00" fill="#000000">TsCardModule </text>
</g>
<!-- TerminusUIModule&#45;&gt;TsCardModule  -->
<g id="edge25" class="edge">
<title>TerminusUIModule&#45;&gt;TsCardModule </title>
<path fill="none" stroke="#000000" stroke-dasharray="5,2" d="M2071.9948,-173C2343.0316,-173 3382.5135,-173 3382.5135,-173 3382.5135,-173 3382.5135,-205.698 3382.5135,-205.698"/>
<polygon fill="#000000" stroke="#000000" points="3379.0136,-205.698 3382.5135,-215.698 3386.0136,-205.698 3379.0136,-205.698"/>
</g>
<!-- TsCheckboxModule  -->
<g id="node27" class="node">
<title>TsCheckboxModule </title>
<polygon fill="#fb8072" stroke="#000000" points="3316.8129,-252 3183.1871,-252 3183.1871,-216 3316.8129,-216 3316.8129,-252"/>
<text text-anchor="middle" x="3250" y="-229.8" font-family="Times,serif" font-size="14.00" fill="#000000">TsCheckboxModule </text>
</g>
<!-- TerminusUIModule&#45;&gt;TsCheckboxModule  -->
<g id="edge26" class="edge">
<title>TerminusUIModule&#45;&gt;TsCheckboxModule </title>
<path fill="none" stroke="#000000" stroke-dasharray="5,2" d="M2072.0967,-175C2321.8438,-175 3216.043,-175 3216.043,-175 3216.043,-175 3216.043,-205.9775 3216.043,-205.9775"/>
<polygon fill="#000000" stroke="#000000" points="3212.5431,-205.9774 3216.043,-215.9775 3219.5431,-205.9775 3212.5431,-205.9774"/>
</g>
<!-- TsCopyModule  -->
<g id="node28" class="node">
<title>TsCopyModule </title>
<polygon fill="#fb8072" stroke="#000000" points="3164.8843,-252 3057.1157,-252 3057.1157,-216 3164.8843,-216 3164.8843,-252"/>
<text text-anchor="middle" x="3111" y="-229.8" font-family="Times,serif" font-size="14.00" fill="#000000">TsCopyModule </text>
</g>
<!-- TerminusUIModule&#45;&gt;TsCopyModule  -->
<g id="edge27" class="edge">
<title>TerminusUIModule&#45;&gt;TsCopyModule </title>
<path fill="none" stroke="#000000" stroke-dasharray="5,2" d="M2072.3331,-177C2307.7392,-177 3108.5889,-177 3108.5889,-177 3108.5889,-177 3108.5889,-205.9648 3108.5889,-205.9648"/>
<polygon fill="#000000" stroke="#000000" points="3105.089,-205.9648 3108.5889,-215.9648 3112.089,-205.9649 3105.089,-205.9648"/>
</g>
<!-- TsDateRangeModule  -->
<g id="node29" class="node">
<title>TsDateRangeModule </title>
<polygon fill="#fb8072" stroke="#000000" points="3039.7394,-252 2900.2606,-252 2900.2606,-216 3039.7394,-216 3039.7394,-252"/>
<text text-anchor="middle" x="2970" y="-229.8" font-family="Times,serif" font-size="14.00" fill="#000000">TsDateRangeModule </text>
</g>
<!-- TerminusUIModule&#45;&gt;TsDateRangeModule  -->
<g id="edge28" class="edge">
<title>TerminusUIModule&#45;&gt;TsDateRangeModule </title>
<path fill="none" stroke="#000000" stroke-dasharray="5,2" d="M2072.2399,-178C2285.0306,-178 2953.4287,-178 2953.4287,-178 2953.4287,-178 2953.4287,-205.973 2953.4287,-205.973"/>
<polygon fill="#000000" stroke="#000000" points="2949.9287,-205.973 2953.4287,-215.973 2956.9287,-205.973 2949.9287,-205.973"/>
</g>
<!-- TsDatepickerModule  -->
<g id="node30" class="node">
<title>TsDatepickerModule </title>
<polygon fill="#fb8072" stroke="#000000" points="2882.4545,-252 2743.5455,-252 2743.5455,-216 2882.4545,-216 2882.4545,-252"/>
<text text-anchor="middle" x="2813" y="-229.8" font-family="Times,serif" font-size="14.00" fill="#000000">TsDatepickerModule </text>
</g>
<!-- TerminusUIModule&#45;&gt;TsDatepickerModule  -->
<g id="edge29" class="edge">
<title>TerminusUIModule&#45;&gt;TsDatepickerModule </title>
<path fill="none" stroke="#000000" stroke-dasharray="5,2" d="M2072.2311,-180C2258.3466,-180 2784.817,-180 2784.817,-180 2784.817,-180 2784.817,-205.7181 2784.817,-205.7181"/>
<polygon fill="#000000" stroke="#000000" points="2781.3171,-205.718 2784.817,-215.7181 2788.3171,-205.7181 2781.3171,-205.718"/>
</g>
<!-- TsInputModule  -->
<g id="node31" class="node">
<title>TsInputModule </title>
<polygon fill="#fb8072" stroke="#000000" points="2725.099,-252 2618.901,-252 2618.901,-216 2725.099,-216 2725.099,-252"/>
<text text-anchor="middle" x="2672" y="-229.8" font-family="Times,serif" font-size="14.00" fill="#000000">TsInputModule </text>
</g>
<!-- TerminusUIModule&#45;&gt;TsInputModule  -->
<g id="edge30" class="edge">
<title>TerminusUIModule&#45;&gt;TsInputModule </title>
<path fill="none" stroke="#000000" stroke-dasharray="5,2" d="M2072.0312,-181C2229.9576,-181 2625.3529,-181 2625.3529,-181 2625.3529,-181 2625.3529,-205.7604 2625.3529,-205.7604"/>
<polygon fill="#000000" stroke="#000000" points="2621.853,-205.7604 2625.3529,-215.7604 2628.853,-205.7604 2621.853,-205.7604"/>
</g>
<!-- TsLinkModule  -->
<g id="node32" class="node">
<title>TsLinkModule </title>
<polygon fill="#fb8072" stroke="#000000" points="2600.9914,-252 2497.0086,-252 2497.0086,-216 2600.9914,-216 2600.9914,-252"/>
<text text-anchor="middle" x="2549" y="-229.8" font-family="Times,serif" font-size="14.00" fill="#000000">TsLinkModule </text>
</g>
<!-- TerminusUIModule&#45;&gt;TsLinkModule  -->
<g id="edge31" class="edge">
<title>TerminusUIModule&#45;&gt;TsLinkModule </title>
<path fill="none" stroke="#000000" stroke-dasharray="5,2" d="M2072.1843,-183C2215.4895,-183 2549,-183 2549,-183 2549,-183 2549,-205.8757 2549,-205.8757"/>
<polygon fill="#000000" stroke="#000000" points="2545.5001,-205.8757 2549,-215.8757 2552.5001,-205.8757 2545.5001,-205.8757"/>
</g>
<!-- TsLoadingOverlayModule  -->
<g id="node33" class="node">
<title>TsLoadingOverlayModule </title>
<polygon fill="#fb8072" stroke="#000000" points="2479.2919,-252 2310.7081,-252 2310.7081,-216 2479.2919,-216 2479.2919,-252"/>
<text text-anchor="middle" x="2395" y="-229.8" font-family="Times,serif" font-size="14.00" fill="#000000">TsLoadingOverlayModule </text>
</g>
<!-- TerminusUIModule&#45;&gt;TsLoadingOverlayModule  -->
<g id="edge32" class="edge">
<title>TerminusUIModule&#45;&gt;TsLoadingOverlayModule </title>
<path fill="none" stroke="#000000" stroke-dasharray="5,2" d="M2071.9968,-184C2176.1015,-184 2370.6331,-184 2370.6331,-184 2370.6331,-184 2370.6331,-205.9489 2370.6331,-205.9489"/>
<polygon fill="#000000" stroke="#000000" points="2367.1331,-205.9488 2370.6331,-215.9489 2374.1331,-205.9489 2367.1331,-205.9488"/>
</g>
<!-- TsLoginFormModule  -->
<g id="node34" class="node">
<title>TsLoginFormModule </title>
<polygon fill="#fb8072" stroke="#000000" points="2292.3241,-252 2151.6759,-252 2151.6759,-216 2292.3241,-216 2292.3241,-252"/>
<text text-anchor="middle" x="2222" y="-229.8" font-family="Times,serif" font-size="14.00" fill="#000000">TsLoginFormModule </text>
</g>
<!-- TerminusUIModule&#45;&gt;TsLoginFormModule  -->
<g id="edge33" class="edge">
<title>TerminusUIModule&#45;&gt;TsLoginFormModule </title>
<path fill="none" stroke="#000000" stroke-dasharray="5,2" d="M2072.1233,-186C2113.7301,-186 2160.2425,-186 2160.2425,-186 2160.2425,-186 2160.2425,-205.8533 2160.2425,-205.8533"/>
<polygon fill="#000000" stroke="#000000" points="2156.7425,-205.8532 2160.2425,-215.8533 2163.7425,-205.8533 2156.7425,-205.8532"/>
</g>
<!-- TsMenuModule  -->
<g id="node35" class="node">
<title>TsMenuModule </title>
<polygon fill="#fb8072" stroke="#000000" points="2133.7066,-252 2024.2934,-252 2024.2934,-216 2133.7066,-216 2133.7066,-252"/>
<text text-anchor="middle" x="2079" y="-229.8" font-family="Times,serif" font-size="14.00" fill="#000000">TsMenuModule </text>
</g>
<!-- TerminusUIModule&#45;&gt;TsMenuModule  -->
<g id="edge34" class="edge">
<title>TerminusUIModule&#45;&gt;TsMenuModule </title>
<path fill="none" stroke="#000000" stroke-dasharray="5,2" d="M2048.0661,-187.1061C2048.0661,-187.1061 2048.0661,-205.991 2048.0661,-205.991"/>
<polygon fill="#000000" stroke="#000000" points="2044.5662,-205.9909 2048.0661,-215.991 2051.5662,-205.991 2044.5662,-205.9909"/>
</g>
<!-- TsNavigationModule  -->
<g id="node36" class="node">
<title>TsNavigationModule </title>
<polygon fill="#fb8072" stroke="#000000" points="2006.7548,-252 1867.2452,-252 1867.2452,-216 2006.7548,-216 2006.7548,-252"/>
<text text-anchor="middle" x="1937" y="-229.8" font-family="Times,serif" font-size="14.00" fill="#000000">TsNavigationModule </text>
</g>
<!-- TerminusUIModule&#45;&gt;TsNavigationModule  -->
<g id="edge35" class="edge">
<title>TerminusUIModule&#45;&gt;TsNavigationModule </title>
<path fill="none" stroke="#000000" stroke-dasharray="5,2" d="M1975.321,-187.1061C1975.321,-187.1061 1975.321,-205.991 1975.321,-205.991"/>
<polygon fill="#000000" stroke="#000000" points="1971.8211,-205.9909 1975.321,-215.991 1978.8211,-205.991 1971.8211,-205.9909"/>
</g>
<!-- TsPaginatorModule  -->
<g id="node37" class="node">
<title>TsPaginatorModule </title>
<polygon fill="#fb8072" stroke="#000000" points="1849.2009,-252 1718.7991,-252 1718.7991,-216 1849.2009,-216 1849.2009,-252"/>
<text text-anchor="middle" x="1784" y="-229.8" font-family="Times,serif" font-size="14.00" fill="#000000">TsPaginatorModule </text>
</g>
<!-- TerminusUIModule&#45;&gt;TsPaginatorModule  -->
<g id="edge36" class="edge">
<title>TerminusUIModule&#45;&gt;TsPaginatorModule </title>
<path fill="none" stroke="#000000" stroke-dasharray="5,2" d="M1944.0174,-186C1884.7743,-186 1805.7834,-186 1805.7834,-186 1805.7834,-186 1805.7834,-205.8533 1805.7834,-205.8533"/>
<polygon fill="#000000" stroke="#000000" points="1802.2835,-205.8532 1805.7834,-215.8533 1809.2835,-205.8533 1802.2835,-205.8532"/>
</g>
<!-- TsRadioGroupModule  -->
<g id="node38" class="node">
<title>TsRadioGroupModule </title>
<polygon fill="#fb8072" stroke="#000000" points="1701.2562,-252 1554.7438,-252 1554.7438,-216 1701.2562,-216 1701.2562,-252"/>
<text text-anchor="middle" x="1628" y="-229.8" font-family="Times,serif" font-size="14.00" fill="#000000">TsRadioGroupModule </text>
</g>
<!-- TerminusUIModule&#45;&gt;TsRadioGroupModule  -->
<g id="edge37" class="edge">
<title>TerminusUIModule&#45;&gt;TsRadioGroupModule </title>
<path fill="none" stroke="#000000" stroke-dasharray="5,2" d="M1943.829,-184C1852.6335,-184 1696.4725,-184 1696.4725,-184 1696.4725,-184 1696.4725,-205.9489 1696.4725,-205.9489"/>
<polygon fill="#000000" stroke="#000000" points="1692.9726,-205.9488 1696.4725,-215.9489 1699.9726,-205.9489 1692.9726,-205.9488"/>
</g>
<!-- TsSearchModule  -->
<g id="node39" class="node">
<title>TsSearchModule </title>
<polygon fill="#fb8072" stroke="#000000" points="1536.6341,-252 1421.3659,-252 1421.3659,-216 1536.6341,-216 1536.6341,-252"/>
<text text-anchor="middle" x="1479" y="-229.8" font-family="Times,serif" font-size="14.00" fill="#000000">TsSearchModule </text>
</g>
<!-- TerminusUIModule&#45;&gt;TsSearchModule  -->
<g id="edge38" class="edge">
<title>TerminusUIModule&#45;&gt;TsSearchModule </title>
<path fill="none" stroke="#000000" stroke-dasharray="5,2" d="M1943.8499,-183C1806.2922,-183 1495.3449,-183 1495.3449,-183 1495.3449,-183 1495.3449,-205.8757 1495.3449,-205.8757"/>
<polygon fill="#000000" stroke="#000000" points="1491.8449,-205.8757 1495.3449,-215.8757 1498.8449,-205.8757 1491.8449,-205.8757"/>
</g>
<!-- TsSelectModule  -->
<g id="node40" class="node">
<title>TsSelectModule </title>
<polygon fill="#fb8072" stroke="#000000" points="1403.7549,-252 1292.2451,-252 1292.2451,-216 1403.7549,-216 1403.7549,-252"/>
<text text-anchor="middle" x="1348" y="-229.8" font-family="Times,serif" font-size="14.00" fill="#000000">TsSelectModule </text>
</g>
<!-- TerminusUIModule&#45;&gt;TsSelectModule  -->
<g id="edge39" class="edge">
<title>TerminusUIModule&#45;&gt;TsSelectModule </title>
<path fill="none" stroke="#000000" stroke-dasharray="5,2" d="M1943.7707,-181C1782.1817,-181 1371.5935,-181 1371.5935,-181 1371.5935,-181 1371.5935,-205.7604 1371.5935,-205.7604"/>
<polygon fill="#000000" stroke="#000000" points="1368.0935,-205.7604 1371.5935,-215.7604 1375.0935,-205.7604 1368.0935,-205.7604"/>
</g>
<!-- TsSortModule  -->
<g id="node41" class="node">
<title>TsSortModule </title>
<polygon fill="#fb8072" stroke="#000000" points="1274.3815,-252 1173.6185,-252 1173.6185,-216 1274.3815,-216 1274.3815,-252"/>
<text text-anchor="middle" x="1224" y="-229.8" font-family="Times,serif" font-size="14.00" fill="#000000">TsSortModule </text>
</g>
<!-- TerminusUIModule&#45;&gt;TsSortModule  -->
<g id="edge40" class="edge">
<title>TerminusUIModule&#45;&gt;TsSortModule </title>
<path fill="none" stroke="#000000" stroke-dasharray="5,2" d="M1943.7108,-180C1758.7532,-180 1238.4329,-180 1238.4329,-180 1238.4329,-180 1238.4329,-205.7181 1238.4329,-205.7181"/>
<polygon fill="#000000" stroke="#000000" points="1234.9329,-205.718 1238.4329,-215.7181 1241.9329,-205.7181 1234.9329,-205.718"/>
</g>
<!-- TsSpacingModule  -->
<g id="node42" class="node">
<title>TsSpacingModule </title>
<polygon fill="#fb8072" stroke="#000000" points="1156.1495,-252 1033.8505,-252 1033.8505,-216 1156.1495,-216 1156.1495,-252"/>
<text text-anchor="middle" x="1095" y="-229.8" font-family="Times,serif" font-size="14.00" fill="#000000">TsSpacingModule </text>
</g>
<!-- TerminusUIModule&#45;&gt;TsSpacingModule  -->
<g id="edge41" class="edge">
<title>TerminusUIModule&#45;&gt;TsSpacingModule </title>
<path fill="none" stroke="#000000" stroke-dasharray="5,2" d="M1943.9706,-178C1739.8288,-178 1117.6825,-178 1117.6825,-178 1117.6825,-178 1117.6825,-205.973 1117.6825,-205.973"/>
<polygon fill="#000000" stroke="#000000" points="1114.1826,-205.973 1117.6825,-215.973 1121.1826,-205.973 1114.1826,-205.973"/>
</g>
<!-- TsTableModule  -->
<g id="node43" class="node">
<title>TsTableModule </title>
<polygon fill="#fb8072" stroke="#000000" points="1015.4194,-252 906.5806,-252 906.5806,-216 1015.4194,-216 1015.4194,-252"/>
<text text-anchor="middle" x="961" y="-229.8" font-family="Times,serif" font-size="14.00" fill="#000000">TsTableModule </text>
</g>
<!-- TerminusUIModule&#45;&gt;TsTableModule  -->
<g id="edge42" class="edge">
<title>TerminusUIModule&#45;&gt;TsTableModule </title>
<path fill="none" stroke="#000000" stroke-dasharray="5,2" d="M1943.8146,-177C1719.1826,-177 981.9287,-177 981.9287,-177 981.9287,-177 981.9287,-205.9648 981.9287,-205.9648"/>
<polygon fill="#000000" stroke="#000000" points="978.4287,-205.9648 981.9287,-215.9648 985.4287,-205.9649 978.4287,-205.9648"/>
</g>
<!-- TsToggleModule  -->
<g id="node44" class="node">
<title>TsToggleModule </title>
<polygon fill="#fb8072" stroke="#000000" points="888.2052,-252 771.7948,-252 771.7948,-216 888.2052,-216 888.2052,-252"/>
<text text-anchor="middle" x="830" y="-229.8" font-family="Times,serif" font-size="14.00" fill="#000000">TsToggleModule </text>
</g>
<!-- TerminusUIModule&#45;&gt;TsToggleModule  -->
<g id="edge43" class="edge">
<title>TerminusUIModule&#45;&gt;TsToggleModule </title>
<path fill="none" stroke="#000000" stroke-dasharray="5,2" d="M1943.7863,-175C1700.887,-175 851.9834,-175 851.9834,-175 851.9834,-175 851.9834,-205.9775 851.9834,-205.9775"/>
<polygon fill="#000000" stroke="#000000" points="848.4834,-205.9774 851.9834,-215.9775 855.4834,-205.9775 848.4834,-205.9774"/>
</g>
<!-- TsTooltipModule  -->
<g id="node45" class="node">
<title>TsTooltipModule </title>
<polygon fill="#fb8072" stroke="#000000" points="754.2717,-252 635.7283,-252 635.7283,-216 754.2717,-216 754.2717,-252"/>
<text text-anchor="middle" x="695" y="-229.8" font-family="Times,serif" font-size="14.00" fill="#000000">TsTooltipModule </text>
</g>
<!-- TerminusUIModule&#45;&gt;TsTooltipModule  -->
<g id="edge44" class="edge">
<title>TerminusUIModule&#45;&gt;TsTooltipModule </title>
<path fill="none" stroke="#000000" stroke-dasharray="5,2" d="M1943.7825,-173C1680.172,-173 695,-173 695,-173 695,-173 695,-205.698 695,-205.698"/>
<polygon fill="#000000" stroke="#000000" points="691.5001,-205.698 695,-215.698 698.5001,-205.698 691.5001,-205.698"/>
</g>
<!-- TsValidationMessagesModule  -->
<g id="node46" class="node">
<title>TsValidationMessagesModule </title>
<polygon fill="#fb8072" stroke="#000000" points="618.0679,-252 427.9321,-252 427.9321,-216 618.0679,-216 618.0679,-252"/>
<text text-anchor="middle" x="523" y="-229.8" font-family="Times,serif" font-size="14.00" fill="#000000">TsValidationMessagesModule </text>
</g>
<!-- TerminusUIModule&#45;&gt;TsValidationMessagesModule  -->
<g id="edge45" class="edge">
<title>TerminusUIModule&#45;&gt;TsValidationMessagesModule </title>
<path fill="none" stroke="#000000" stroke-dasharray="5,2" d="M1943.5776,-172C1669.494,-172 614.375,-172 614.375,-172 614.375,-172 614.375,-205.7333 614.375,-205.7333"/>
<polygon fill="#000000" stroke="#000000" points="610.8751,-205.7333 614.375,-215.7333 617.8751,-205.7333 610.8751,-205.7333"/>
</g>
<!-- TsButtonModule -->
<g id="node3" class="node">
<title>TsButtonModule</title>
<polygon fill="#8dd3c7" stroke="#000000" points="3678.6653,-122 3675.6653,-126 3654.6653,-126 3651.6653,-122 3567.3347,-122 3567.3347,-86 3678.6653,-86 3678.6653,-122"/>
<text text-anchor="middle" x="3623" y="-99.8" font-family="Times,serif" font-size="14.00" fill="#000000">TsButtonModule</text>
</g>
<!-- TsButtonModule&#45;&gt;TerminusUIModule -->
<g id="edge2" class="edge">
<title>TsButtonModule&#45;&gt;TerminusUIModule</title>
<path fill="none" stroke="#000000" d="M3625.7074,-122.1061C3625.7074,-141.3391 3625.7074,-169 3625.7074,-169 3625.7074,-169 2082.1641,-169 2082.1641,-169"/>
<polygon fill="#000000" stroke="#000000" points="2082.1641,-165.5001 2072.1641,-169 2082.1641,-172.5001 2082.1641,-165.5001"/>
</g>
<!-- TsCardModule -->
<g id="node4" class="node">
<title>TsCardModule</title>
<polygon fill="#8dd3c7" stroke="#000000" points="3549.2591,-122 3546.2591,-126 3525.2591,-126 3522.2591,-122 3448.7409,-122 3448.7409,-86 3549.2591,-86 3549.2591,-122"/>
<text text-anchor="middle" x="3499" y="-99.8" font-family="Times,serif" font-size="14.00" fill="#000000">TsCardModule</text>
</g>
<!-- TsCardModule&#45;&gt;TerminusUIModule -->
<g id="edge3" class="edge">
<title>TsCardModule&#45;&gt;TerminusUIModule</title>
<path fill="none" stroke="#000000" d="M3453.0191,-122.2222C3453.0191,-140.8285 3453.0191,-167 3453.0191,-167 3453.0191,-167 2082.4252,-167 2082.4252,-167"/>
<polygon fill="#000000" stroke="#000000" points="2082.4252,-163.5001 2072.4252,-167 2082.4251,-170.5001 2082.4252,-163.5001"/>
</g>
<!-- TsCheckboxModule -->
<g id="node5" class="node">
<title>TsCheckboxModule</title>
<polygon fill="#8dd3c7" stroke="#000000" points="3430.3132,-122 3427.3132,-126 3406.3132,-126 3403.3132,-122 3299.6868,-122 3299.6868,-86 3430.3132,-86 3430.3132,-122"/>
<text text-anchor="middle" x="3365" y="-99.8" font-family="Times,serif" font-size="14.00" fill="#000000">TsCheckboxModule</text>
</g>
<!-- TsCheckboxModule&#45;&gt;TerminusUIModule -->
<g id="edge4" class="edge">
<title>TsCheckboxModule&#45;&gt;TerminusUIModule</title>
<path fill="none" stroke="#000000" d="M3308.375,-122.2667C3308.375,-140.5552 3308.375,-166 3308.375,-166 3308.375,-166 2082.0423,-166 2082.0423,-166"/>
<polygon fill="#000000" stroke="#000000" points="2082.0423,-162.5001 2072.0423,-166 2082.0422,-169.5001 2082.0423,-162.5001"/>
</g>
<!-- TsCopyModule -->
<g id="node6" class="node">
<title>TsCopyModule</title>
<polygon fill="#8dd3c7" stroke="#000000" points="3281.8837,-122 3278.8837,-126 3257.8837,-126 3254.8837,-122 3178.1163,-122 3178.1163,-86 3281.8837,-86 3281.8837,-122"/>
<text text-anchor="middle" x="3230" y="-99.8" font-family="Times,serif" font-size="14.00" fill="#000000">TsCopyModule</text>
</g>
<!-- TsCopyModule&#45;&gt;TerminusUIModule -->
<g id="edge5" class="edge">
<title>TsCopyModule&#45;&gt;TerminusUIModule</title>
<path fill="none" stroke="#000000" d="M3248.9924,-122.002C3248.9924,-139.6754 3248.9924,-164 3248.9924,-164 3248.9924,-164 2082.1079,-164 2082.1079,-164"/>
<polygon fill="#000000" stroke="#000000" points="2082.108,-160.5001 2072.1079,-164 2082.1079,-167.5001 2082.108,-160.5001"/>
</g>
<!-- TsDateRangeModule -->
<g id="node7" class="node">
<title>TsDateRangeModule</title>
<polygon fill="#8dd3c7" stroke="#000000" points="3159.7395,-122 3156.7395,-126 3135.7395,-126 3132.7395,-122 3024.2605,-122 3024.2605,-86 3159.7395,-86 3159.7395,-122"/>
<text text-anchor="middle" x="3092" y="-99.8" font-family="Times,serif" font-size="14.00" fill="#000000">TsDateRangeModule</text>
</g>
<!-- TsDateRangeModule&#45;&gt;TerminusUIModule -->
<g id="edge6" class="edge">
<title>TsDateRangeModule&#45;&gt;TerminusUIModule</title>
<path fill="none" stroke="#000000" d="M3031.875,-122.0336C3031.875,-139.0597 3031.875,-162 3031.875,-162 3031.875,-162 2082.048,-162 2082.048,-162"/>
<polygon fill="#000000" stroke="#000000" points="2082.048,-158.5001 2072.048,-162 2082.0479,-165.5001 2082.048,-158.5001"/>
</g>
<!-- TsDatepickerModule -->
<g id="node8" class="node">
<title>TsDatepickerModule</title>
<polygon fill="#8dd3c7" stroke="#000000" points="3006.4538,-122 3003.4538,-126 2982.4538,-126 2979.4538,-122 2871.5462,-122 2871.5462,-86 3006.4538,-86 3006.4538,-122"/>
<text text-anchor="middle" x="2939" y="-99.8" font-family="Times,serif" font-size="14.00" fill="#000000">TsDatepickerModule</text>
</g>
<!-- TsDatepickerModule&#45;&gt;TerminusUIModule -->
<g id="edge7" class="edge">
<title>TsDatepickerModule&#45;&gt;TerminusUIModule</title>
<path fill="none" stroke="#000000" d="M2876.875,-122.0352C2876.875,-138.7344 2876.875,-161 2876.875,-161 2876.875,-161 2082.2433,-161 2082.2433,-161"/>
<polygon fill="#000000" stroke="#000000" points="2082.2433,-157.5001 2072.2433,-161 2082.2433,-164.5001 2082.2433,-157.5001"/>
</g>
<!-- TsInputModule -->
<g id="node9" class="node">
<title>TsInputModule</title>
<polygon fill="#8dd3c7" stroke="#000000" points="2853.5982,-122 2850.5982,-126 2829.5982,-126 2826.5982,-122 2750.4018,-122 2750.4018,-86 2853.5982,-86 2853.5982,-122"/>
<text text-anchor="middle" x="2802" y="-99.8" font-family="Times,serif" font-size="14.00" fill="#000000">TsInputModule</text>
</g>
<!-- TsInputModule&#45;&gt;TerminusUIModule -->
<g id="edge8" class="edge">
<title>TsInputModule&#45;&gt;TerminusUIModule</title>
<path fill="none" stroke="#000000" d="M2819.183,-122.0091C2819.183,-138.0494 2819.183,-159 2819.183,-159 2819.183,-159 2081.9908,-159 2081.9908,-159"/>
<polygon fill="#000000" stroke="#000000" points="2081.9908,-155.5001 2071.9908,-159 2081.9908,-162.5001 2081.9908,-155.5001"/>
</g>
<!-- TsLinkModule -->
<g id="node10" class="node">
<title>TsLinkModule</title>
<polygon fill="#8dd3c7" stroke="#000000" points="2731.9902,-122 2728.9902,-126 2707.9902,-126 2704.9902,-122 2632.0098,-122 2632.0098,-86 2731.9902,-86 2731.9902,-122"/>
<text text-anchor="middle" x="2682" y="-99.8" font-family="Times,serif" font-size="14.00" fill="#000000">TsLinkModule</text>
</g>
<!-- TsLinkModule&#45;&gt;TerminusUIModule -->
<g id="edge9" class="edge">
<title>TsLinkModule&#45;&gt;TerminusUIModule</title>
<path fill="none" stroke="#000000" d="M2678.652,-122.2819C2678.652,-137.9478 2678.652,-158 2678.652,-158 2678.652,-158 2082.0011,-158 2082.0011,-158"/>
<polygon fill="#000000" stroke="#000000" points="2082.0012,-154.5001 2072.0011,-158 2082.0011,-161.5001 2082.0012,-154.5001"/>
</g>
<!-- TsLoadingOverlayModule -->
<g id="node11" class="node">
<title>TsLoadingOverlayModule</title>
<polygon fill="#8dd3c7" stroke="#000000" points="2613.7921,-122 2610.7921,-126 2589.7921,-126 2586.7921,-122 2448.2079,-122 2448.2079,-86 2613.7921,-86 2613.7921,-122"/>
<text text-anchor="middle" x="2531" y="-99.8" font-family="Times,serif" font-size="14.00" fill="#000000">TsLoadingOverlayModule</text>
</g>
<!-- TsLoadingOverlayModule&#45;&gt;TerminusUIModule -->
<g id="edge10" class="edge">
<title>TsLoadingOverlayModule&#45;&gt;TerminusUIModule</title>
<path fill="none" stroke="#000000" d="M2463.875,-122.1871C2463.875,-137.1824 2463.875,-156 2463.875,-156 2463.875,-156 2082.3489,-156 2082.3489,-156"/>
<polygon fill="#000000" stroke="#000000" points="2082.3489,-152.5001 2072.3489,-156 2082.3488,-159.5001 2082.3489,-152.5001"/>
</g>
<!-- TsLoginFormModule -->
<g id="node12" class="node">
<title>TsLoginFormModule</title>
<polygon fill="#8dd3c7" stroke="#000000" points="2430.8244,-122 2427.8244,-126 2406.8244,-126 2403.8244,-122 2293.1756,-122 2293.1756,-86 2430.8244,-86 2430.8244,-122"/>
<text text-anchor="middle" x="2362" y="-99.8" font-family="Times,serif" font-size="14.00" fill="#000000">TsLoginFormModule</text>
</g>
<!-- TsLoginFormModule&#45;&gt;TerminusUIModule -->
<g id="edge11" class="edge">
<title>TsLoginFormModule&#45;&gt;TerminusUIModule</title>
<path fill="none" stroke="#000000" d="M2301.9711,-122.1243C2301.9711,-136.7832 2301.9711,-155 2301.9711,-155 2301.9711,-155 2082.1499,-155 2082.1499,-155"/>
<polygon fill="#000000" stroke="#000000" points="2082.15,-151.5001 2072.1499,-155 2082.1499,-158.5001 2082.15,-151.5001"/>
</g>
<!-- TsMenuModule -->
<g id="node13" class="node">
<title>TsMenuModule</title>
<polygon fill="#8dd3c7" stroke="#000000" points="2275.2064,-122 2272.2064,-126 2251.2064,-126 2248.2064,-122 2168.7936,-122 2168.7936,-86 2275.2064,-86 2275.2064,-122"/>
<text text-anchor="middle" x="2222" y="-99.8" font-family="Times,serif" font-size="14.00" fill="#000000">TsMenuModule</text>
</g>
<!-- TsMenuModule&#45;&gt;TerminusUIModule -->
<g id="edge12" class="edge">
<title>TsMenuModule&#45;&gt;TerminusUIModule</title>
<path fill="none" stroke="#000000" d="M2222,-122.2458C2222,-136.1772 2222,-153 2222,-153 2222,-153 2082.2071,-153 2082.2071,-153"/>
<polygon fill="#000000" stroke="#000000" points="2082.2071,-149.5001 2072.2071,-153 2082.207,-156.5001 2082.2071,-149.5001"/>
</g>
<!-- TsNavigationModule -->
<g id="node14" class="node">
<title>TsNavigationModule</title>
<polygon fill="#8dd3c7" stroke="#000000" points="2150.7548,-122 2147.7548,-126 2126.7548,-126 2123.7548,-122 2015.2452,-122 2015.2452,-86 2150.7548,-86 2150.7548,-122"/>
<text text-anchor="middle" x="2083" y="-99.8" font-family="Times,serif" font-size="14.00" fill="#000000">TsNavigationModule</text>
</g>
<!-- TsNavigationModule&#45;&gt;TerminusUIModule -->
<g id="edge13" class="edge">
<title>TsNavigationModule&#45;&gt;TerminusUIModule</title>
<path fill="none" stroke="#000000" d="M2043.554,-122.1061C2043.554,-122.1061 2043.554,-140.991 2043.554,-140.991"/>
<polygon fill="#000000" stroke="#000000" points="2040.0541,-140.9909 2043.554,-150.991 2047.0541,-140.991 2040.0541,-140.9909"/>
</g>
<!-- TsPaginatorModule -->
<g id="node15" class="node">
<title>TsPaginatorModule</title>
<polygon fill="#8dd3c7" stroke="#000000" points="1997.7008,-122 1994.7008,-126 1973.7008,-126 1970.7008,-122 1870.2992,-122 1870.2992,-86 1997.7008,-86 1997.7008,-122"/>
<text text-anchor="middle" x="1934" y="-99.8" font-family="Times,serif" font-size="14.00" fill="#000000">TsPaginatorModule</text>
</g>
<!-- TsPaginatorModule&#45;&gt;TerminusUIModule -->
<g id="edge14" class="edge">
<title>TsPaginatorModule&#45;&gt;TerminusUIModule</title>
<path fill="none" stroke="#000000" d="M1970.8075,-122.1061C1970.8075,-122.1061 1970.8075,-140.991 1970.8075,-140.991"/>
<polygon fill="#000000" stroke="#000000" points="1967.3076,-140.9909 1970.8075,-150.991 1974.3076,-140.991 1967.3076,-140.9909"/>
</g>
<!-- TsRadioGroupModule -->
<g id="node16" class="node">
<title>TsRadioGroupModule</title>
<polygon fill="#8dd3c7" stroke="#000000" points="1852.2562,-122 1849.2562,-126 1828.2562,-126 1825.2562,-122 1709.7438,-122 1709.7438,-86 1852.2562,-86 1852.2562,-122"/>
<text text-anchor="middle" x="1781" y="-99.8" font-family="Times,serif" font-size="14.00" fill="#000000">TsRadioGroupModule</text>
</g>
<!-- TsRadioGroupModule&#45;&gt;TerminusUIModule -->
<g id="edge15" class="edge">
<title>TsRadioGroupModule&#45;&gt;TerminusUIModule</title>
<path fill="none" stroke="#000000" d="M1762.2166,-122.2458C1762.2166,-136.1772 1762.2166,-153 1762.2166,-153 1762.2166,-153 1933.7443,-153 1933.7443,-153"/>
<polygon fill="#000000" stroke="#000000" points="1933.7444,-156.5001 1943.7443,-153 1933.7443,-149.5001 1933.7444,-156.5001"/>
</g>
<!-- TsSearchModule -->
<g id="node17" class="node">
<title>TsSearchModule</title>
<polygon fill="#8dd3c7" stroke="#000000" points="1691.6346,-122 1688.6346,-126 1667.6346,-126 1664.6346,-122 1580.3654,-122 1580.3654,-86 1691.6346,-86 1691.6346,-122"/>
<text text-anchor="middle" x="1636" y="-99.8" font-family="Times,serif" font-size="14.00" fill="#000000">TsSearchModule</text>
</g>
<!-- TsSearchModule&#45;&gt;TerminusUIModule -->
<g id="edge16" class="edge">
<title>TsSearchModule&#45;&gt;TerminusUIModule</title>
<path fill="none" stroke="#000000" d="M1636,-122.1243C1636,-136.7832 1636,-155 1636,-155 1636,-155 1933.6272,-155 1933.6272,-155"/>
<polygon fill="#000000" stroke="#000000" points="1933.6273,-158.5001 1943.6272,-155 1933.6272,-151.5001 1933.6273,-158.5001"/>
</g>
<!-- TsSelectModule -->
<g id="node18" class="node">
<title>TsSelectModule</title>
<polygon fill="#8dd3c7" stroke="#000000" points="1561.7549,-122 1558.7549,-126 1537.7549,-126 1534.7549,-122 1454.2451,-122 1454.2451,-86 1561.7549,-86 1561.7549,-122"/>
<text text-anchor="middle" x="1508" y="-99.8" font-family="Times,serif" font-size="14.00" fill="#000000">TsSelectModule</text>
</g>
<!-- TsSelectModule&#45;&gt;TerminusUIModule -->
<g id="edge17" class="edge">
<title>TsSelectModule&#45;&gt;TerminusUIModule</title>
<path fill="none" stroke="#000000" d="M1558.3747,-122.1871C1558.3747,-137.1824 1558.3747,-156 1558.3747,-156 1558.3747,-156 1933.5796,-156 1933.5796,-156"/>
<polygon fill="#000000" stroke="#000000" points="1933.5797,-159.5001 1943.5796,-156 1933.5796,-152.5001 1933.5797,-159.5001"/>
</g>
<!-- TsSortModule -->
<g id="node19" class="node">
<title>TsSortModule</title>
<polygon fill="#8dd3c7" stroke="#000000" points="1436.3809,-122 1433.3809,-126 1412.3809,-126 1409.3809,-122 1339.6191,-122 1339.6191,-86 1436.3809,-86 1436.3809,-122"/>
<text text-anchor="middle" x="1388" y="-99.8" font-family="Times,serif" font-size="14.00" fill="#000000">TsSortModule</text>
</g>
<!-- TsSortModule&#45;&gt;TerminusUIModule -->
<g id="edge18" class="edge">
<title>TsSortModule&#45;&gt;TerminusUIModule</title>
<path fill="none" stroke="#000000" d="M1428.9367,-122.2819C1428.9367,-137.9478 1428.9367,-158 1428.9367,-158 1428.9367,-158 1933.8176,-158 1933.8176,-158"/>
<polygon fill="#000000" stroke="#000000" points="1933.8176,-161.5001 1943.8176,-158 1933.8176,-154.5001 1933.8176,-161.5001"/>
</g>
<!-- TsSpacingModule -->
<g id="node20" class="node">
<title>TsSpacingModule</title>
<polygon fill="#8dd3c7" stroke="#000000" points="1321.1499,-122 1318.1499,-126 1297.1499,-126 1294.1499,-122 1202.8501,-122 1202.8501,-86 1321.1499,-86 1321.1499,-122"/>
<text text-anchor="middle" x="1262" y="-99.8" font-family="Times,serif" font-size="14.00" fill="#000000">TsSpacingModule</text>
</g>
<!-- TsSpacingModule&#45;&gt;TerminusUIModule -->
<g id="edge19" class="edge">
<title>TsSpacingModule&#45;&gt;TerminusUIModule</title>
<path fill="none" stroke="#000000" d="M1306.8487,-122.0091C1306.8487,-138.0494 1306.8487,-159 1306.8487,-159 1306.8487,-159 1933.9188,-159 1933.9188,-159"/>
<polygon fill="#000000" stroke="#000000" points="1933.9188,-162.5001 1943.9188,-159 1933.9187,-155.5001 1933.9188,-162.5001"/>
</g>
<!-- TsTableModule -->
<g id="node21" class="node">
<title>TsTableModule</title>
<polygon fill="#8dd3c7" stroke="#000000" points="1184.9202,-122 1181.9202,-126 1160.9202,-126 1157.9202,-122 1079.0798,-122 1079.0798,-86 1184.9202,-86 1184.9202,-122"/>
<text text-anchor="middle" x="1132" y="-99.8" font-family="Times,serif" font-size="14.00" fill="#000000">TsTableModule</text>
</g>
<!-- TsTableModule&#45;&gt;TerminusUIModule -->
<g id="edge20" class="edge">
<title>TsTableModule&#45;&gt;TerminusUIModule</title>
<path fill="none" stroke="#000000" d="M1179.2597,-122.0352C1179.2597,-138.7344 1179.2597,-161 1179.2597,-161 1179.2597,-161 1934.0034,-161 1934.0034,-161"/>
<polygon fill="#000000" stroke="#000000" points="1934.0034,-164.5001 1944.0034,-161 1934.0033,-157.5001 1934.0034,-164.5001"/>
</g>
<!-- TsToggleModule -->
<g id="node22" class="node">
<title>TsToggleModule</title>
<polygon fill="#8dd3c7" stroke="#000000" points="1061.705,-122 1058.705,-126 1037.705,-126 1034.705,-122 948.295,-122 948.295,-86 1061.705,-86 1061.705,-122"/>
<text text-anchor="middle" x="1005" y="-99.8" font-family="Times,serif" font-size="14.00" fill="#000000">TsToggleModule</text>
</g>
<!-- TsToggleModule&#45;&gt;TerminusUIModule -->
<g id="edge21" class="edge">
<title>TsToggleModule&#45;&gt;TerminusUIModule</title>
<path fill="none" stroke="#000000" d="M1047.7639,-122.0336C1047.7639,-139.0597 1047.7639,-162 1047.7639,-162 1047.7639,-162 1933.8793,-162 1933.8793,-162"/>
<polygon fill="#000000" stroke="#000000" points="1933.8794,-165.5001 1943.8793,-162 1933.8793,-158.5001 1933.8794,-165.5001"/>
</g>
<!-- TsTooltipModule -->
<g id="node23" class="node">
<title>TsTooltipModule</title>
<polygon fill="#8dd3c7" stroke="#000000" points="930.2716,-122 927.2716,-126 906.2716,-126 903.2716,-122 815.7284,-122 815.7284,-86 930.2716,-86 930.2716,-122"/>
<text text-anchor="middle" x="873" y="-99.8" font-family="Times,serif" font-size="14.00" fill="#000000">TsTooltipModule</text>
</g>
<!-- TsTooltipModule&#45;&gt;TerminusUIModule -->
<g id="edge22" class="edge">
<title>TsTooltipModule&#45;&gt;TerminusUIModule</title>
<path fill="none" stroke="#000000" d="M918.463,-122.002C918.463,-139.6754 918.463,-164 918.463,-164 918.463,-164 1933.9121,-164 1933.9121,-164"/>
<polygon fill="#000000" stroke="#000000" points="1933.9122,-167.5001 1943.9121,-164 1933.9121,-160.5001 1933.9122,-167.5001"/>
</g>
<!-- TsValidationMessagesModule -->
<g id="node24" class="node">
<title>TsValidationMessagesModule</title>
<polygon fill="#8dd3c7" stroke="#000000" points="797.5674,-122 794.5674,-126 773.5674,-126 770.5674,-122 610.4326,-122 610.4326,-86 797.5674,-86 797.5674,-122"/>
<text text-anchor="middle" x="704" y="-99.8" font-family="Times,serif" font-size="14.00" fill="#000000">TsValidationMessagesModule</text>
</g>
<!-- TsValidationMessagesModule&#45;&gt;TerminusUIModule -->
<g id="edge23" class="edge">
<title>TsValidationMessagesModule&#45;&gt;TerminusUIModule</title>
<path fill="none" stroke="#000000" d="M784.5907,-122.2667C784.5907,-140.5552 784.5907,-166 784.5907,-166 784.5907,-166 1933.9467,-166 1933.9467,-166"/>
<polygon fill="#000000" stroke="#000000" points="1933.9468,-169.5001 1943.9467,-166 1933.9467,-162.5001 1933.9468,-169.5001"/>
</g>
<!-- TsWindowService -->
<g id="node47" class="node">
<title>TsWindowService</title>
<ellipse fill="#fdb462" stroke="#000000" cx="503" cy="-104" rx="82.8052" ry="18"/>
<text text-anchor="middle" x="503" y="-99.8" font-family="Times,serif" font-size="14.00" fill="#000000">TsWindowService</text>
</g>
<!-- TsWindowService&#45;&gt;TerminusUIModule -->
<g id="edge46" class="edge">
<title>TsWindowService&#45;&gt;TerminusUIModule</title>
<path fill="none" stroke="#000000" d="M506.8094,-122.2222C506.8094,-140.8285 506.8094,-167 506.8094,-167 506.8094,-167 1933.9759,-167 1933.9759,-167"/>
<polygon fill="#000000" stroke="#000000" points="1933.976,-170.5001 1943.9759,-167 1933.9759,-163.5001 1933.976,-170.5001"/>
</g>
<!-- TsDocumentService -->
<g id="node48" class="node">
<title>TsDocumentService</title>
<ellipse fill="#fdb462" stroke="#000000" cx="312" cy="-104" rx="89.746" ry="18"/>
<text text-anchor="middle" x="312" y="-99.8" font-family="Times,serif" font-size="14.00" fill="#000000">TsDocumentService</text>
</g>
<!-- TsDocumentService&#45;&gt;TerminusUIModule -->
<g id="edge47" class="edge">
<title>TsDocumentService&#45;&gt;TerminusUIModule</title>
<path fill="none" stroke="#000000" d="M312,-122.1061C312,-141.3391 312,-169 312,-169 312,-169 1933.8426,-169 1933.8426,-169"/>
<polygon fill="#000000" stroke="#000000" points="1933.8426,-172.5001 1943.8426,-169 1933.8425,-165.5001 1933.8426,-172.5001"/>
</g>
<!-- TsValidatorsService -->
<g id="node49" class="node">
<title>TsValidatorsService</title>
<ellipse fill="#fdb462" stroke="#000000" cx="114" cy="-104" rx="89.7402" ry="18"/>
<text text-anchor="middle" x="114" y="-99.8" font-family="Times,serif" font-size="14.00" fill="#000000">TsValidatorsService</text>
</g>
<!-- TsValidatorsService&#45;&gt;TerminusUIModule -->
<g id="edge48" class="edge">
<title>TsValidatorsService&#45;&gt;TerminusUIModule</title>
<path fill="none" stroke="#000000" d="M114,-122.0348C114,-141.5762 114,-170 114,-170 114,-170 1933.898,-170 1933.898,-170"/>
<polygon fill="#000000" stroke="#000000" points="1933.898,-173.5001 1943.898,-170 1933.8979,-166.5001 1933.898,-173.5001"/>
</g>
</g>
</svg>
