<?xml version="1.0" encoding="UTF-8" standalone="no"?>
<!DOCTYPE svg PUBLIC "-//W3C//DTD SVG 1.1//EN"
 "http://www.w3.org/Graphics/SVG/1.1/DTD/svg11.dtd">
<!-- Generated by graphviz version 2.40.1 (20161225.0304)
 -->
<!-- Title: dependencies Pages: 1 -->
<svg width="3704pt" height="284pt"
 viewBox="0.00 0.00 3704.00 284.00" xmlns="http://www.w3.org/2000/svg" xmlns:xlink="http://www.w3.org/1999/xlink">
<g id="graph0" class="graph" transform="scale(1 1) rotate(0) translate(4 280)">
<title>dependencies</title>
<polygon fill="#ffffff" stroke="transparent" points="-4,4 -4,-280 3700,-280 3700,4 -4,4"/>
<text text-anchor="start" x="1827.0091" y="-42.4" font-family="sans-serif" font-weight="bold" font-size="14.00" fill="#000000">Legend</text>
<polygon fill="#ffffb3" stroke="transparent" points="1614,-10 1614,-30 1634,-30 1634,-10 1614,-10"/>
<text text-anchor="start" x="1637.629" y="-15.4" font-family="sans-serif" font-size="14.00" fill="#000000"> &#160;Declarations</text>
<polygon fill="#8dd3c7" stroke="transparent" points="1727,-10 1727,-30 1747,-30 1747,-10 1727,-10"/>
<text text-anchor="start" x="1750.7251" y="-15.4" font-family="sans-serif" font-size="14.00" fill="#000000"> &#160;Module</text>
<polygon fill="#80b1d3" stroke="transparent" points="1813,-10 1813,-30 1833,-30 1833,-10 1813,-10"/>
<text text-anchor="start" x="1836.7812" y="-15.4" font-family="sans-serif" font-size="14.00" fill="#000000"> &#160;Bootstrap</text>
<polygon fill="#fdb462" stroke="transparent" points="1910,-10 1910,-30 1930,-30 1930,-10 1910,-10"/>
<text text-anchor="start" x="1933.6732" y="-15.4" font-family="sans-serif" font-size="14.00" fill="#000000"> &#160;Providers</text>
<polygon fill="#fb8072" stroke="transparent" points="2006,-10 2006,-30 2026,-30 2026,-10 2006,-10"/>
<text text-anchor="start" x="2029.7258" y="-15.4" font-family="sans-serif" font-size="14.00" fill="#000000"> &#160;Exports</text>
<g id="clust1" class="cluster">
<title>cluster_TerminusUIModule</title>
<polygon fill="none" stroke="#000000" stroke-dasharray="1,5" points="8,-70 8,-268 3688,-268 3688,-70 8,-70"/>
</g>
<g id="clust2" class="cluster">
<title>cluster_TerminusUIModule_declarations</title>
<polygon fill="none" stroke="#000000" points="3462,-78 3462,-130 3680,-130 3680,-78 3462,-78"/>
</g>
<g id="clust4" class="cluster">
<title>cluster_TerminusUIModule_imports</title>
<polygon fill="none" stroke="#000000" points="602,-78 602,-130 3454,-130 3454,-78 602,-78"/>
</g>
<g id="clust5" class="cluster">
<title>cluster_TerminusUIModule_exports</title>
<polygon fill="none" stroke="#000000" points="419,-208 419,-260 3341,-260 3341,-208 419,-208"/>
</g>
<g id="clust7" class="cluster">
<title>cluster_TerminusUIModule_providers</title>
<polygon fill="none" stroke="#000000" points="16,-78 16,-130 594,-130 594,-78 16,-78"/>
</g>
<!-- TsReactiveFormBaseComponent -->
<g id="node1" class="node">
<title>TsReactiveFormBaseComponent</title>
<polygon fill="#ffffb3" stroke="#000000" points="3671.8501,-122 3470.1499,-122 3470.1499,-86 3671.8501,-86 3671.8501,-122"/>
<text text-anchor="middle" x="3571" y="-99.8" font-family="Times,serif" font-size="14.00" fill="#000000">TsReactiveFormBaseComponent</text>
</g>
<!-- TerminusUIModule -->
<g id="node2" class="node">
<title>TerminusUIModule</title>
<polygon fill="#8dd3c7" stroke="#000000" points="1992.9706,-187 1989.9706,-191 1968.9706,-191 1965.9706,-187 1865.0294,-187 1865.0294,-151 1992.9706,-151 1992.9706,-187"/>
<text text-anchor="middle" x="1929" y="-164.8" font-family="Times,serif" font-size="14.00" fill="#000000">TerminusUIModule</text>
</g>
<!-- TsReactiveFormBaseComponent&#45;&gt;TerminusUIModule -->
<g id="edge1" class="edge">
<title>TsReactiveFormBaseComponent&#45;&gt;TerminusUIModule</title>
<path fill="none" stroke="#000000" d="M3571,-122.0348C3571,-141.5762 3571,-170 3571,-170 3571,-170 2003.1161,-170 2003.1161,-170"/>
<polygon fill="#000000" stroke="#000000" points="2003.1162,-166.5001 1993.1161,-170 2003.1161,-173.5001 2003.1162,-166.5001"/>
</g>
<!-- TsButtonModule  -->
<g id="node23" class="node">
<title>TsButtonModule </title>
<polygon fill="#fb8072" stroke="#000000" points="3332.6649,-252 3217.3351,-252 3217.3351,-216 3332.6649,-216 3332.6649,-252"/>
<text text-anchor="middle" x="3275" y="-229.8" font-family="Times,serif" font-size="14.00" fill="#000000">TsButtonModule </text>
</g>
<!-- TerminusUIModule&#45;&gt;TsButtonModule  -->
<g id="edge22" class="edge">
<title>TerminusUIModule&#45;&gt;TsButtonModule </title>
<path fill="none" stroke="#000000" stroke-dasharray="5,2" d="M1993.1834,-172C2257.8225,-172 3250.4614,-172 3250.4614,-172 3250.4614,-172 3250.4614,-205.7333 3250.4614,-205.7333"/>
<polygon fill="#000000" stroke="#000000" points="3246.9615,-205.7333 3250.4614,-215.7333 3253.9615,-205.7333 3246.9615,-205.7333"/>
</g>
<!-- TsInputModule  -->
<g id="node24" class="node">
<title>TsInputModule </title>
<polygon fill="#fb8072" stroke="#000000" points="3199.099,-252 3092.901,-252 3092.901,-216 3199.099,-216 3199.099,-252"/>
<text text-anchor="middle" x="3146" y="-229.8" font-family="Times,serif" font-size="14.00" fill="#000000">TsInputModule </text>
</g>
<!-- TerminusUIModule&#45;&gt;TsInputModule  -->
<g id="edge23" class="edge">
<title>TerminusUIModule&#45;&gt;TsInputModule </title>
<path fill="none" stroke="#000000" stroke-dasharray="5,2" d="M1993.045,-174C2243.6604,-174 3144.1173,-174 3144.1173,-174 3144.1173,-174 3144.1173,-205.998 3144.1173,-205.998"/>
<polygon fill="#000000" stroke="#000000" points="3140.6174,-205.998 3144.1173,-215.998 3147.6174,-205.9981 3140.6174,-205.998"/>
</g>
<!-- TsValidationMessagesModule  -->
<g id="node25" class="node">
<title>TsValidationMessagesModule </title>
<polygon fill="#fb8072" stroke="#000000" points="3074.0679,-252 2883.9321,-252 2883.9321,-216 3074.0679,-216 3074.0679,-252"/>
<text text-anchor="middle" x="2979" y="-229.8" font-family="Times,serif" font-size="14.00" fill="#000000">TsValidationMessagesModule </text>
</g>
<!-- TerminusUIModule&#45;&gt;TsValidationMessagesModule  -->
<g id="edge24" class="edge">
<title>TerminusUIModule&#45;&gt;TsValidationMessagesModule </title>
<path fill="none" stroke="#000000" stroke-dasharray="5,2" d="M1993.2132,-175C2212.6583,-175 2919.299,-175 2919.299,-175 2919.299,-175 2919.299,-205.9775 2919.299,-205.9775"/>
<polygon fill="#000000" stroke="#000000" points="2915.7991,-205.9774 2919.299,-215.9775 2922.7991,-205.9775 2915.7991,-205.9774"/>
</g>
<!-- TsMenuModule  -->
<g id="node26" class="node">
<title>TsMenuModule </title>
<polygon fill="#fb8072" stroke="#000000" points="2865.7066,-252 2756.2934,-252 2756.2934,-216 2865.7066,-216 2865.7066,-252"/>
<text text-anchor="middle" x="2811" y="-229.8" font-family="Times,serif" font-size="14.00" fill="#000000">TsMenuModule </text>
</g>
<!-- TerminusUIModule&#45;&gt;TsMenuModule  -->
<g id="edge25" class="edge">
<title>TerminusUIModule&#45;&gt;TsMenuModule </title>
<path fill="none" stroke="#000000" stroke-dasharray="5,2" d="M1993.0713,-177C2198.8999,-177 2829.943,-177 2829.943,-177 2829.943,-177 2829.943,-205.9648 2829.943,-205.9648"/>
<polygon fill="#000000" stroke="#000000" points="2826.4431,-205.9648 2829.943,-215.9648 2833.4431,-205.9649 2826.4431,-205.9648"/>
</g>
<!-- TsSelectModule  -->
<g id="node27" class="node">
<title>TsSelectModule </title>
<polygon fill="#fb8072" stroke="#000000" points="2738.7549,-252 2627.2451,-252 2627.2451,-216 2738.7549,-216 2738.7549,-252"/>
<text text-anchor="middle" x="2683" y="-229.8" font-family="Times,serif" font-size="14.00" fill="#000000">TsSelectModule </text>
</g>
<!-- TerminusUIModule&#45;&gt;TsSelectModule  -->
<g id="edge26" class="edge">
<title>TerminusUIModule&#45;&gt;TsSelectModule </title>
<path fill="none" stroke="#000000" stroke-dasharray="5,2" d="M1993.208,-179C2178.5926,-179 2701.5507,-179 2701.5507,-179 2701.5507,-179 2701.5507,-205.9909 2701.5507,-205.9909"/>
<polygon fill="#000000" stroke="#000000" points="2698.0508,-205.9909 2701.5507,-215.9909 2705.0508,-205.991 2698.0508,-205.9909"/>
</g>
<!-- TsToggleModule  -->
<g id="node28" class="node">
<title>TsToggleModule </title>
<polygon fill="#fb8072" stroke="#000000" points="2609.2052,-252 2492.7948,-252 2492.7948,-216 2609.2052,-216 2609.2052,-252"/>
<text text-anchor="middle" x="2551" y="-229.8" font-family="Times,serif" font-size="14.00" fill="#000000">TsToggleModule </text>
</g>
<!-- TerminusUIModule&#45;&gt;TsToggleModule  -->
<g id="edge27" class="edge">
<title>TerminusUIModule&#45;&gt;TsToggleModule </title>
<path fill="none" stroke="#000000" stroke-dasharray="5,2" d="M1993.0335,-181C2155.7477,-181 2572.2959,-181 2572.2959,-181 2572.2959,-181 2572.2959,-205.7604 2572.2959,-205.7604"/>
<polygon fill="#000000" stroke="#000000" points="2568.796,-205.7604 2572.2959,-215.7604 2575.796,-205.7604 2568.796,-205.7604"/>
</g>
<!-- TsSearchModule  -->
<g id="node29" class="node">
<title>TsSearchModule </title>
<polygon fill="#fb8072" stroke="#000000" points="2474.6341,-252 2359.3659,-252 2359.3659,-216 2474.6341,-216 2474.6341,-252"/>
<text text-anchor="middle" x="2417" y="-229.8" font-family="Times,serif" font-size="14.00" fill="#000000">TsSearchModule </text>
</g>
<!-- TerminusUIModule&#45;&gt;TsSearchModule  -->
<g id="edge28" class="edge">
<title>TerminusUIModule&#45;&gt;TsSearchModule </title>
<path fill="none" stroke="#000000" stroke-dasharray="5,2" d="M1993.0482,-182C2125.4442,-182 2417,-182 2417,-182 2417,-182 2417,-205.8129 2417,-205.8129"/>
<polygon fill="#000000" stroke="#000000" points="2413.5001,-205.8129 2417,-215.8129 2420.5001,-205.813 2413.5001,-205.8129"/>
</g>
<!-- TsPaginationModule  -->
<g id="node30" class="node">
<title>TsPaginationModule </title>
<polygon fill="#fb8072" stroke="#000000" points="2341.4306,-252 2204.5694,-252 2204.5694,-216 2341.4306,-216 2341.4306,-252"/>
<text text-anchor="middle" x="2273" y="-229.8" font-family="Times,serif" font-size="14.00" fill="#000000">TsPaginationModule </text>
</g>
<!-- TerminusUIModule&#45;&gt;TsPaginationModule  -->
<g id="edge29" class="edge">
<title>TerminusUIModule&#45;&gt;TsPaginationModule </title>
<path fill="none" stroke="#000000" stroke-dasharray="5,2" d="M1993.2338,-184C2077.6215,-184 2215.222,-184 2215.222,-184 2215.222,-184 2215.222,-205.9489 2215.222,-205.9489"/>
<polygon fill="#000000" stroke="#000000" points="2211.722,-205.9488 2215.222,-215.9489 2218.722,-205.9489 2211.722,-205.9488"/>
</g>
<!-- TsCopyModule  -->
<g id="node31" class="node">
<title>TsCopyModule </title>
<polygon fill="#fb8072" stroke="#000000" points="2186.8843,-252 2079.1157,-252 2079.1157,-216 2186.8843,-216 2186.8843,-252"/>
<text text-anchor="middle" x="2133" y="-229.8" font-family="Times,serif" font-size="14.00" fill="#000000">TsCopyModule </text>
</g>
<!-- TerminusUIModule&#45;&gt;TsCopyModule  -->
<g id="edge30" class="edge">
<title>TerminusUIModule&#45;&gt;TsCopyModule </title>
<path fill="none" stroke="#000000" stroke-dasharray="5,2" d="M1993.0902,-186C2036.2991,-186 2085.4613,-186 2085.4613,-186 2085.4613,-186 2085.4613,-205.8533 2085.4613,-205.8533"/>
<polygon fill="#000000" stroke="#000000" points="2081.9613,-205.8532 2085.4613,-215.8533 2088.9613,-205.8533 2081.9613,-205.8532"/>
</g>
<!-- TsTooltipModule  -->
<g id="node32" class="node">
<title>TsTooltipModule </title>
<polygon fill="#fb8072" stroke="#000000" points="2061.2717,-252 1942.7283,-252 1942.7283,-216 2061.2717,-216 2061.2717,-252"/>
<text text-anchor="middle" x="2002" y="-229.8" font-family="Times,serif" font-size="14.00" fill="#000000">TsTooltipModule </text>
</g>
<!-- TerminusUIModule&#45;&gt;TsTooltipModule  -->
<g id="edge31" class="edge">
<title>TerminusUIModule&#45;&gt;TsTooltipModule </title>
<path fill="none" stroke="#000000" stroke-dasharray="5,2" d="M1967.9248,-187.1061C1967.9248,-187.1061 1967.9248,-205.991 1967.9248,-205.991"/>
<polygon fill="#000000" stroke="#000000" points="1964.4249,-205.9909 1967.9248,-215.991 1971.4249,-205.991 1964.4249,-205.9909"/>
</g>
<!-- TsDatepickerModule  -->
<g id="node33" class="node">
<title>TsDatepickerModule </title>
<polygon fill="#fb8072" stroke="#000000" points="1925.4545,-252 1786.5455,-252 1786.5455,-216 1925.4545,-216 1925.4545,-252"/>
<text text-anchor="middle" x="1856" y="-229.8" font-family="Times,serif" font-size="14.00" fill="#000000">TsDatepickerModule </text>
</g>
<!-- TerminusUIModule&#45;&gt;TsDatepickerModule  -->
<g id="edge32" class="edge">
<title>TerminusUIModule&#45;&gt;TsDatepickerModule </title>
<path fill="none" stroke="#000000" stroke-dasharray="5,2" d="M1895.1208,-187.1061C1895.1208,-187.1061 1895.1208,-205.991 1895.1208,-205.991"/>
<polygon fill="#000000" stroke="#000000" points="1891.6209,-205.9909 1895.1208,-215.991 1898.6209,-205.991 1891.6209,-205.9909"/>
</g>
<!-- TsDateRangeModule  -->
<g id="node34" class="node">
<title>TsDateRangeModule </title>
<polygon fill="#fb8072" stroke="#000000" points="1768.7394,-252 1629.2606,-252 1629.2606,-216 1768.7394,-216 1768.7394,-252"/>
<text text-anchor="middle" x="1699" y="-229.8" font-family="Times,serif" font-size="14.00" fill="#000000">TsDateRangeModule </text>
</g>
<!-- TerminusUIModule&#45;&gt;TsDateRangeModule  -->
<g id="edge33" class="edge">
<title>TerminusUIModule&#45;&gt;TsDateRangeModule </title>
<path fill="none" stroke="#000000" stroke-dasharray="5,2" d="M1864.793,-186C1793.467,-186 1688.2251,-186 1688.2251,-186 1688.2251,-186 1688.2251,-205.8533 1688.2251,-205.8533"/>
<polygon fill="#000000" stroke="#000000" points="1684.7252,-205.8532 1688.2251,-215.8533 1691.7252,-205.8533 1684.7252,-205.8532"/>
</g>
<!-- TsSpacingModule  -->
<g id="node35" class="node">
<title>TsSpacingModule </title>
<polygon fill="#fb8072" stroke="#000000" points="1611.1495,-252 1488.8505,-252 1488.8505,-216 1611.1495,-216 1611.1495,-252"/>
<text text-anchor="middle" x="1550" y="-229.8" font-family="Times,serif" font-size="14.00" fill="#000000">TsSpacingModule </text>
</g>
<!-- TerminusUIModule&#45;&gt;TsSpacingModule  -->
<g id="edge34" class="edge">
<title>TerminusUIModule&#45;&gt;TsSpacingModule </title>
<path fill="none" stroke="#000000" stroke-dasharray="5,2" d="M1864.872,-184C1758.2141,-184 1555.9592,-184 1555.9592,-184 1555.9592,-184 1555.9592,-205.9489 1555.9592,-205.9489"/>
<polygon fill="#000000" stroke="#000000" points="1552.4592,-205.9488 1555.9592,-215.9489 1559.4592,-205.9489 1552.4592,-205.9488"/>
</g>
<!-- TsCheckboxModule  -->
<g id="node36" class="node">
<title>TsCheckboxModule </title>
<polygon fill="#fb8072" stroke="#000000" points="1470.8129,-252 1337.1871,-252 1337.1871,-216 1470.8129,-216 1470.8129,-252"/>
<text text-anchor="middle" x="1404" y="-229.8" font-family="Times,serif" font-size="14.00" fill="#000000">TsCheckboxModule </text>
</g>
<!-- TerminusUIModule&#45;&gt;TsCheckboxModule  -->
<g id="edge35" class="edge">
<title>TerminusUIModule&#45;&gt;TsCheckboxModule </title>
<path fill="none" stroke="#000000" stroke-dasharray="5,2" d="M1864.8692,-182C1725.6435,-182 1408.1222,-182 1408.1222,-182 1408.1222,-182 1408.1222,-205.8129 1408.1222,-205.8129"/>
<polygon fill="#000000" stroke="#000000" points="1404.6223,-205.8129 1408.1222,-215.8129 1411.6223,-205.813 1404.6223,-205.8129"/>
</g>
<!-- TsLoginFormModule  -->
<g id="node37" class="node">
<title>TsLoginFormModule </title>
<polygon fill="#fb8072" stroke="#000000" points="1319.3241,-252 1178.6759,-252 1178.6759,-216 1319.3241,-216 1319.3241,-252"/>
<text text-anchor="middle" x="1249" y="-229.8" font-family="Times,serif" font-size="14.00" fill="#000000">TsLoginFormModule </text>
</g>
<!-- TerminusUIModule&#45;&gt;TsLoginFormModule  -->
<g id="edge36" class="edge">
<title>TerminusUIModule&#45;&gt;TsLoginFormModule </title>
<path fill="none" stroke="#000000" stroke-dasharray="5,2" d="M1864.9259,-181C1699.9117,-181 1273.2085,-181 1273.2085,-181 1273.2085,-181 1273.2085,-205.7604 1273.2085,-205.7604"/>
<polygon fill="#000000" stroke="#000000" points="1269.7085,-205.7604 1273.2085,-215.7604 1276.7085,-205.7604 1269.7085,-205.7604"/>
</g>
<!-- TsLinkModule  -->
<g id="node38" class="node">
<title>TsLinkModule </title>
<polygon fill="#fb8072" stroke="#000000" points="1160.9914,-252 1057.0086,-252 1057.0086,-216 1160.9914,-216 1160.9914,-252"/>
<text text-anchor="middle" x="1109" y="-229.8" font-family="Times,serif" font-size="14.00" fill="#000000">TsLinkModule </text>
</g>
<!-- TerminusUIModule&#45;&gt;TsLinkModule  -->
<g id="edge37" class="edge">
<title>TerminusUIModule&#45;&gt;TsLinkModule </title>
<path fill="none" stroke="#000000" stroke-dasharray="5,2" d="M1864.9395,-179C1673.185,-179 1116.9339,-179 1116.9339,-179 1116.9339,-179 1116.9339,-205.9909 1116.9339,-205.9909"/>
<polygon fill="#000000" stroke="#000000" points="1113.434,-205.9909 1116.9339,-215.9909 1120.434,-205.991 1113.434,-205.9909"/>
</g>
<!-- TsNavigationModule  -->
<g id="node39" class="node">
<title>TsNavigationModule </title>
<polygon fill="#fb8072" stroke="#000000" points="1039.7548,-252 900.2452,-252 900.2452,-216 1039.7548,-216 1039.7548,-252"/>
<text text-anchor="middle" x="970" y="-229.8" font-family="Times,serif" font-size="14.00" fill="#000000">TsNavigationModule </text>
</g>
<!-- TerminusUIModule&#45;&gt;TsNavigationModule  -->
<g id="edge38" class="edge">
<title>TerminusUIModule&#45;&gt;TsNavigationModule </title>
<path fill="none" stroke="#000000" stroke-dasharray="5,2" d="M1864.9619,-177C1650.3571,-177 970,-177 970,-177 970,-177 970,-205.9648 970,-205.9648"/>
<polygon fill="#000000" stroke="#000000" points="966.5001,-205.9648 970,-215.9648 973.5001,-205.9649 966.5001,-205.9648"/>
</g>
<!-- TsLoadingOverlayModule  -->
<g id="node40" class="node">
<title>TsLoadingOverlayModule </title>
<polygon fill="#fb8072" stroke="#000000" points="882.2919,-252 713.7081,-252 713.7081,-216 882.2919,-216 882.2919,-252"/>
<text text-anchor="middle" x="798" y="-229.8" font-family="Times,serif" font-size="14.00" fill="#000000">TsLoadingOverlayModule </text>
</g>
<!-- TerminusUIModule&#45;&gt;TsLoadingOverlayModule  -->
<g id="edge39" class="edge">
<title>TerminusUIModule&#45;&gt;TsLoadingOverlayModule </title>
<path fill="none" stroke="#000000" stroke-dasharray="5,2" d="M1864.7694,-175C1636.3403,-175 876.8877,-175 876.8877,-175 876.8877,-175 876.8877,-205.9775 876.8877,-205.9775"/>
<polygon fill="#000000" stroke="#000000" points="873.3877,-205.9774 876.8877,-215.9775 880.3877,-205.9775 873.3877,-205.9774"/>
</g>
<!-- TsCardModule  -->
<g id="node41" class="node">
<title>TsCardModule </title>
<polygon fill="#fb8072" stroke="#000000" points="695.2591,-252 590.7409,-252 590.7409,-216 695.2591,-216 695.2591,-252"/>
<text text-anchor="middle" x="643" y="-229.8" font-family="Times,serif" font-size="14.00" fill="#000000">TsCardModule </text>
</g>
<!-- TerminusUIModule&#45;&gt;TsCardModule  -->
<g id="edge40" class="edge">
<title>TerminusUIModule&#45;&gt;TsCardModule </title>
<path fill="none" stroke="#000000" stroke-dasharray="5,2" d="M1864.8171,-174C1605.9395,-174 652.3757,-174 652.3757,-174 652.3757,-174 652.3757,-205.998 652.3757,-205.998"/>
<polygon fill="#000000" stroke="#000000" points="648.8758,-205.998 652.3757,-215.998 655.8758,-205.9981 648.8758,-205.998"/>
</g>
<!-- TsRadioGroupModule  -->
<g id="node42" class="node">
<title>TsRadioGroupModule </title>
<polygon fill="#fb8072" stroke="#000000" points="573.2562,-252 426.7438,-252 426.7438,-216 573.2562,-216 573.2562,-252"/>
<text text-anchor="middle" x="500" y="-229.8" font-family="Times,serif" font-size="14.00" fill="#000000">TsRadioGroupModule </text>
</g>
<!-- TerminusUIModule&#45;&gt;TsRadioGroupModule  -->
<g id="edge41" class="edge">
<title>TerminusUIModule&#45;&gt;TsRadioGroupModule </title>
<path fill="none" stroke="#000000" stroke-dasharray="5,2" d="M1864.8227,-172C1586.764,-172 500,-172 500,-172 500,-172 500,-205.7333 500,-205.7333"/>
<polygon fill="#000000" stroke="#000000" points="496.5001,-205.7333 500,-215.7333 503.5001,-205.7333 496.5001,-205.7333"/>
</g>
<!-- TsButtonModule -->
<g id="node3" class="node">
<title>TsButtonModule</title>
<polygon fill="#8dd3c7" stroke="#000000" points="3445.6653,-122 3442.6653,-126 3421.6653,-126 3418.6653,-122 3334.3347,-122 3334.3347,-86 3445.6653,-86 3445.6653,-122"/>
<text text-anchor="middle" x="3390" y="-99.8" font-family="Times,serif" font-size="14.00" fill="#000000">TsButtonModule</text>
</g>
<!-- TsButtonModule&#45;&gt;TerminusUIModule -->
<g id="edge2" class="edge">
<title>TsButtonModule&#45;&gt;TerminusUIModule</title>
<path fill="none" stroke="#000000" d="M3390,-122.1061C3390,-141.3391 3390,-169 3390,-169 3390,-169 2003.1889,-169 2003.1889,-169"/>
<polygon fill="#000000" stroke="#000000" points="2003.1889,-165.5001 1993.1889,-169 2003.1888,-172.5001 2003.1889,-165.5001"/>
</g>
<!-- TsInputModule -->
<g id="node4" class="node">
<title>TsInputModule</title>
<polygon fill="#8dd3c7" stroke="#000000" points="3316.5982,-122 3313.5982,-126 3292.5982,-126 3289.5982,-122 3213.4018,-122 3213.4018,-86 3316.5982,-86 3316.5982,-122"/>
<text text-anchor="middle" x="3265" y="-99.8" font-family="Times,serif" font-size="14.00" fill="#000000">TsInputModule</text>
</g>
<!-- TsInputModule&#45;&gt;TerminusUIModule -->
<g id="edge3" class="edge">
<title>TsInputModule&#45;&gt;TerminusUIModule</title>
<path fill="none" stroke="#000000" d="M3283.5053,-122.2222C3283.5053,-140.8285 3283.5053,-167 3283.5053,-167 3283.5053,-167 2003.4194,-167 2003.4194,-167"/>
<polygon fill="#000000" stroke="#000000" points="2003.4194,-163.5001 1993.4194,-167 2003.4193,-170.5001 2003.4194,-163.5001"/>
</g>
<!-- TsValidationMessagesModule -->
<g id="node5" class="node">
<title>TsValidationMessagesModule</title>
<polygon fill="#8dd3c7" stroke="#000000" points="3195.5674,-122 3192.5674,-126 3171.5674,-126 3168.5674,-122 3008.4326,-122 3008.4326,-86 3195.5674,-86 3195.5674,-122"/>
<text text-anchor="middle" x="3102" y="-99.8" font-family="Times,serif" font-size="14.00" fill="#000000">TsValidationMessagesModule</text>
</g>
<!-- TsValidationMessagesModule&#45;&gt;TerminusUIModule -->
<g id="edge4" class="edge">
<title>TsValidationMessagesModule&#45;&gt;TerminusUIModule</title>
<path fill="none" stroke="#000000" d="M3041.375,-122.302C3041.375,-140.2699 3041.375,-165 3041.375,-165 3041.375,-165 2003.2072,-165 2003.2072,-165"/>
<polygon fill="#000000" stroke="#000000" points="2003.2072,-161.5001 1993.2072,-165 2003.2071,-168.5001 2003.2072,-161.5001"/>
</g>
<!-- TsMenuModule -->
<g id="node6" class="node">
<title>TsMenuModule</title>
<polygon fill="#8dd3c7" stroke="#000000" points="2990.2064,-122 2987.2064,-126 2966.2064,-126 2963.2064,-122 2883.7936,-122 2883.7936,-86 2990.2064,-86 2990.2064,-122"/>
<text text-anchor="middle" x="2937" y="-99.8" font-family="Times,serif" font-size="14.00" fill="#000000">TsMenuModule</text>
</g>
<!-- TsMenuModule&#45;&gt;TerminusUIModule -->
<g id="edge5" class="edge">
<title>TsMenuModule&#45;&gt;TerminusUIModule</title>
<path fill="none" stroke="#000000" d="M2954.701,-122.0225C2954.701,-139.3734 2954.701,-163 2954.701,-163 2954.701,-163 2003.1622,-163 2003.1622,-163"/>
<polygon fill="#000000" stroke="#000000" points="2003.1622,-159.5001 1993.1622,-163 2003.1622,-166.5001 2003.1622,-159.5001"/>
</g>
<!-- TsSelectModule -->
<g id="node7" class="node">
<title>TsSelectModule</title>
<polygon fill="#8dd3c7" stroke="#000000" points="2865.7549,-122 2862.7549,-126 2841.7549,-126 2838.7549,-122 2758.2451,-122 2758.2451,-86 2865.7549,-86 2865.7549,-122"/>
<text text-anchor="middle" x="2812" y="-99.8" font-family="Times,serif" font-size="14.00" fill="#000000">TsSelectModule</text>
</g>
<!-- TsSelectModule&#45;&gt;TerminusUIModule -->
<g id="edge6" class="edge">
<title>TsSelectModule&#45;&gt;TerminusUIModule</title>
<path fill="none" stroke="#000000" d="M2794.0328,-122.0336C2794.0328,-139.0597 2794.0328,-162 2794.0328,-162 2794.0328,-162 2003.3113,-162 2003.3113,-162"/>
<polygon fill="#000000" stroke="#000000" points="2003.3114,-158.5001 1993.3113,-162 2003.3113,-165.5001 2003.3114,-158.5001"/>
</g>
<!-- TsToggleModule -->
<g id="node8" class="node">
<title>TsToggleModule</title>
<polygon fill="#8dd3c7" stroke="#000000" points="2740.705,-122 2737.705,-126 2716.705,-126 2713.705,-122 2627.295,-122 2627.295,-86 2740.705,-86 2740.705,-122"/>
<text text-anchor="middle" x="2684" y="-99.8" font-family="Times,serif" font-size="14.00" fill="#000000">TsToggleModule</text>
</g>
<!-- TsToggleModule&#45;&gt;TerminusUIModule -->
<g id="edge7" class="edge">
<title>TsToggleModule&#45;&gt;TerminusUIModule</title>
<path fill="none" stroke="#000000" d="M2664.4742,-122.027C2664.4742,-138.3976 2664.4742,-160 2664.4742,-160 2664.4742,-160 2002.9819,-160 2002.9819,-160"/>
<polygon fill="#000000" stroke="#000000" points="2002.9819,-156.5001 1992.9819,-160 2002.9819,-163.5001 2002.9819,-156.5001"/>
</g>
<!-- TsSearchModule -->
<g id="node9" class="node">
<title>TsSearchModule</title>
<polygon fill="#8dd3c7" stroke="#000000" points="2609.6346,-122 2606.6346,-126 2585.6346,-126 2582.6346,-122 2498.3654,-122 2498.3654,-86 2609.6346,-86 2609.6346,-122"/>
<text text-anchor="middle" x="2554" y="-99.8" font-family="Times,serif" font-size="14.00" fill="#000000">TsSearchModule</text>
</g>
<!-- TsSearchModule&#45;&gt;TerminusUIModule -->
<g id="edge8" class="edge">
<title>TsSearchModule&#45;&gt;TerminusUIModule</title>
<path fill="none" stroke="#000000" d="M2535.2395,-122.2819C2535.2395,-137.9478 2535.2395,-158 2535.2395,-158 2535.2395,-158 2003.0181,-158 2003.0181,-158"/>
<polygon fill="#000000" stroke="#000000" points="2003.0181,-154.5001 1993.0181,-158 2003.0181,-161.5001 2003.0181,-154.5001"/>
</g>
<!-- TsPaginationModule -->
<g id="node10" class="node">
<title>TsPaginationModule</title>
<polygon fill="#8dd3c7" stroke="#000000" points="2479.9313,-122 2476.9313,-126 2455.9313,-126 2452.9313,-122 2346.0687,-122 2346.0687,-86 2479.9313,-86 2479.9313,-122"/>
<text text-anchor="middle" x="2413" y="-99.8" font-family="Times,serif" font-size="14.00" fill="#000000">TsPaginationModule</text>
</g>
<!-- TsPaginationModule&#45;&gt;TerminusUIModule -->
<g id="edge9" class="edge">
<title>TsPaginationModule&#45;&gt;TerminusUIModule</title>
<path fill="none" stroke="#000000" d="M2352.8589,-122.2396C2352.8589,-137.5706 2352.8589,-157 2352.8589,-157 2352.8589,-157 2003.375,-157 2003.375,-157"/>
<polygon fill="#000000" stroke="#000000" points="2003.3751,-153.5001 1993.375,-157 2003.375,-160.5001 2003.3751,-153.5001"/>
</g>
<!-- TsCopyModule -->
<g id="node11" class="node">
<title>TsCopyModule</title>
<polygon fill="#8dd3c7" stroke="#000000" points="2327.8837,-122 2324.8837,-126 2303.8837,-126 2300.8837,-122 2224.1163,-122 2224.1163,-86 2327.8837,-86 2327.8837,-122"/>
<text text-anchor="middle" x="2276" y="-99.8" font-family="Times,serif" font-size="14.00" fill="#000000">TsCopyModule</text>
</g>
<!-- TsCopyModule&#45;&gt;TerminusUIModule -->
<g id="edge10" class="edge">
<title>TsCopyModule&#45;&gt;TerminusUIModule</title>
<path fill="none" stroke="#000000" d="M2276,-122.1243C2276,-136.7832 2276,-155 2276,-155 2276,-155 2003.0495,-155 2003.0495,-155"/>
<polygon fill="#000000" stroke="#000000" points="2003.0496,-151.5001 1993.0495,-155 2003.0495,-158.5001 2003.0496,-151.5001"/>
</g>
<!-- TsTooltipModule -->
<g id="node12" class="node">
<title>TsTooltipModule</title>
<polygon fill="#8dd3c7" stroke="#000000" points="2206.2716,-122 2203.2716,-126 2182.2716,-126 2179.2716,-122 2091.7284,-122 2091.7284,-86 2206.2716,-86 2206.2716,-122"/>
<text text-anchor="middle" x="2149" y="-99.8" font-family="Times,serif" font-size="14.00" fill="#000000">TsTooltipModule</text>
</g>
<!-- TsTooltipModule&#45;&gt;TerminusUIModule -->
<g id="edge11" class="edge">
<title>TsTooltipModule&#45;&gt;TerminusUIModule</title>
<path fill="none" stroke="#000000" d="M2139.1531,-122.2458C2139.1531,-136.1772 2139.1531,-153 2139.1531,-153 2139.1531,-153 2003.1947,-153 2003.1947,-153"/>
<polygon fill="#000000" stroke="#000000" points="2003.1948,-149.5001 1993.1947,-153 2003.1947,-156.5001 2003.1948,-149.5001"/>
</g>
<!-- TsDatepickerModule -->
<g id="node13" class="node">
<title>TsDatepickerModule</title>
<polygon fill="#8dd3c7" stroke="#000000" points="2073.4538,-122 2070.4538,-126 2049.4538,-126 2046.4538,-122 1938.5462,-122 1938.5462,-86 2073.4538,-86 2073.4538,-122"/>
<text text-anchor="middle" x="2006" y="-99.8" font-family="Times,serif" font-size="14.00" fill="#000000">TsDatepickerModule</text>
</g>
<!-- TsDatepickerModule&#45;&gt;TerminusUIModule -->
<g id="edge12" class="edge">
<title>TsDatepickerModule&#45;&gt;TerminusUIModule</title>
<path fill="none" stroke="#000000" d="M1965.7542,-122.1061C1965.7542,-122.1061 1965.7542,-140.991 1965.7542,-140.991"/>
<polygon fill="#000000" stroke="#000000" points="1962.2543,-140.9909 1965.7542,-150.991 1969.2543,-140.991 1962.2543,-140.9909"/>
</g>
<!-- TsDateRangeModule -->
<g id="node14" class="node">
<title>TsDateRangeModule</title>
<polygon fill="#8dd3c7" stroke="#000000" points="1920.7395,-122 1917.7395,-126 1896.7395,-126 1893.7395,-122 1785.2605,-122 1785.2605,-86 1920.7395,-86 1920.7395,-122"/>
<text text-anchor="middle" x="1853" y="-99.8" font-family="Times,serif" font-size="14.00" fill="#000000">TsDateRangeModule</text>
</g>
<!-- TsDateRangeModule&#45;&gt;TerminusUIModule -->
<g id="edge13" class="edge">
<title>TsDateRangeModule&#45;&gt;TerminusUIModule</title>
<path fill="none" stroke="#000000" d="M1892.9422,-122.1061C1892.9422,-122.1061 1892.9422,-140.991 1892.9422,-140.991"/>
<polygon fill="#000000" stroke="#000000" points="1889.4422,-140.9909 1892.9422,-150.991 1896.4422,-140.991 1889.4422,-140.9909"/>
</g>
<!-- TsSpacingModule -->
<g id="node15" class="node">
<title>TsSpacingModule</title>
<polygon fill="#8dd3c7" stroke="#000000" points="1767.1499,-122 1764.1499,-126 1743.1499,-126 1740.1499,-122 1648.8501,-122 1648.8501,-86 1767.1499,-86 1767.1499,-122"/>
<text text-anchor="middle" x="1708" y="-99.8" font-family="Times,serif" font-size="14.00" fill="#000000">TsSpacingModule</text>
</g>
<!-- TsSpacingModule&#45;&gt;TerminusUIModule -->
<g id="edge14" class="edge">
<title>TsSpacingModule&#45;&gt;TerminusUIModule</title>
<path fill="none" stroke="#000000" d="M1727.7749,-122.2458C1727.7749,-136.1772 1727.7749,-153 1727.7749,-153 1727.7749,-153 1854.7779,-153 1854.7779,-153"/>
<polygon fill="#000000" stroke="#000000" points="1854.7779,-156.5001 1864.7779,-153 1854.7778,-149.5001 1854.7779,-156.5001"/>
</g>
<!-- TsCheckboxModule -->
<g id="node16" class="node">
<title>TsCheckboxModule</title>
<polygon fill="#8dd3c7" stroke="#000000" points="1631.3132,-122 1628.3132,-126 1607.3132,-126 1604.3132,-122 1500.6868,-122 1500.6868,-86 1631.3132,-86 1631.3132,-122"/>
<text text-anchor="middle" x="1566" y="-99.8" font-family="Times,serif" font-size="14.00" fill="#000000">TsCheckboxModule</text>
</g>
<!-- TsCheckboxModule&#45;&gt;TerminusUIModule -->
<g id="edge15" class="edge">
<title>TsCheckboxModule&#45;&gt;TerminusUIModule</title>
<path fill="none" stroke="#000000" d="M1620.2276,-122.1243C1620.2276,-136.7832 1620.2276,-155 1620.2276,-155 1620.2276,-155 1855.0221,-155 1855.0221,-155"/>
<polygon fill="#000000" stroke="#000000" points="1855.0222,-158.5001 1865.0221,-155 1855.0221,-151.5001 1855.0222,-158.5001"/>
</g>
<!-- TsLoginFormModule -->
<g id="node17" class="node">
<title>TsLoginFormModule</title>
<polygon fill="#8dd3c7" stroke="#000000" points="1482.8244,-122 1479.8244,-126 1458.8244,-126 1455.8244,-122 1345.1756,-122 1345.1756,-86 1482.8244,-86 1482.8244,-122"/>
<text text-anchor="middle" x="1414" y="-99.8" font-family="Times,serif" font-size="14.00" fill="#000000">TsLoginFormModule</text>
</g>
<!-- TsLoginFormModule&#45;&gt;TerminusUIModule -->
<g id="edge16" class="edge">
<title>TsLoginFormModule&#45;&gt;TerminusUIModule</title>
<path fill="none" stroke="#000000" d="M1476.7842,-122.2396C1476.7842,-137.5706 1476.7842,-157 1476.7842,-157 1476.7842,-157 1854.6888,-157 1854.6888,-157"/>
<polygon fill="#000000" stroke="#000000" points="1854.6888,-160.5001 1864.6888,-157 1854.6887,-153.5001 1854.6888,-160.5001"/>
</g>
<!-- TsLinkModule -->
<g id="node18" class="node">
<title>TsLinkModule</title>
<polygon fill="#8dd3c7" stroke="#000000" points="1326.9902,-122 1323.9902,-126 1302.9902,-126 1299.9902,-122 1227.0098,-122 1227.0098,-86 1326.9902,-86 1326.9902,-122"/>
<text text-anchor="middle" x="1277" y="-99.8" font-family="Times,serif" font-size="14.00" fill="#000000">TsLinkModule</text>
</g>
<!-- TsLinkModule&#45;&gt;TerminusUIModule -->
<g id="edge17" class="edge">
<title>TsLinkModule&#45;&gt;TerminusUIModule</title>
<path fill="none" stroke="#000000" d="M1323.2036,-122.2819C1323.2036,-137.9478 1323.2036,-158 1323.2036,-158 1323.2036,-158 1855.0287,-158 1855.0287,-158"/>
<polygon fill="#000000" stroke="#000000" points="1855.0287,-161.5001 1865.0287,-158 1855.0286,-154.5001 1855.0287,-161.5001"/>
</g>
<!-- TsNavigationModule -->
<g id="node19" class="node">
<title>TsNavigationModule</title>
<polygon fill="#8dd3c7" stroke="#000000" points="1208.7548,-122 1205.7548,-126 1184.7548,-126 1181.7548,-122 1073.2452,-122 1073.2452,-86 1208.7548,-86 1208.7548,-122"/>
<text text-anchor="middle" x="1141" y="-99.8" font-family="Times,serif" font-size="14.00" fill="#000000">TsNavigationModule</text>
</g>
<!-- TsNavigationModule&#45;&gt;TerminusUIModule -->
<g id="edge18" class="edge">
<title>TsNavigationModule&#45;&gt;TerminusUIModule</title>
<path fill="none" stroke="#000000" d="M1193.7327,-122.027C1193.7327,-138.3976 1193.7327,-160 1193.7327,-160 1193.7327,-160 1854.7155,-160 1854.7155,-160"/>
<polygon fill="#000000" stroke="#000000" points="1854.7156,-163.5001 1864.7155,-160 1854.7155,-156.5001 1854.7156,-163.5001"/>
</g>
<!-- TsLoadingOverlayModule -->
<g id="node20" class="node">
<title>TsLoadingOverlayModule</title>
<polygon fill="#8dd3c7" stroke="#000000" points="1054.7921,-122 1051.7921,-126 1030.7921,-126 1027.7921,-122 889.2079,-122 889.2079,-86 1054.7921,-86 1054.7921,-122"/>
<text text-anchor="middle" x="972" y="-99.8" font-family="Times,serif" font-size="14.00" fill="#000000">TsLoadingOverlayModule</text>
</g>
<!-- TsLoadingOverlayModule&#45;&gt;TerminusUIModule -->
<g id="edge19" class="edge">
<title>TsLoadingOverlayModule&#45;&gt;TerminusUIModule</title>
<path fill="none" stroke="#000000" d="M1047.1366,-122.0336C1047.1366,-139.0597 1047.1366,-162 1047.1366,-162 1047.1366,-162 1854.8682,-162 1854.8682,-162"/>
<polygon fill="#000000" stroke="#000000" points="1854.8682,-165.5001 1864.8682,-162 1854.8682,-158.5001 1854.8682,-165.5001"/>
</g>
<!-- TsCardModule -->
<g id="node21" class="node">
<title>TsCardModule</title>
<polygon fill="#8dd3c7" stroke="#000000" points="871.2591,-122 868.2591,-126 847.2591,-126 844.2591,-122 770.7409,-122 770.7409,-86 871.2591,-86 871.2591,-122"/>
<text text-anchor="middle" x="821" y="-99.8" font-family="Times,serif" font-size="14.00" fill="#000000">TsCardModule</text>
</g>
<!-- TsCardModule&#45;&gt;TerminusUIModule -->
<g id="edge20" class="edge">
<title>TsCardModule&#45;&gt;TerminusUIModule</title>
<path fill="none" stroke="#000000" d="M821,-122.0225C821,-139.3734 821,-163 821,-163 821,-163 1854.6401,-163 1854.6401,-163"/>
<polygon fill="#000000" stroke="#000000" points="1854.6401,-166.5001 1864.6401,-163 1854.64,-159.5001 1854.6401,-166.5001"/>
</g>
<!-- TsRadioGroupModule -->
<g id="node22" class="node">
<title>TsRadioGroupModule</title>
<polygon fill="#8dd3c7" stroke="#000000" points="752.2562,-122 749.2562,-126 728.2562,-126 725.2562,-122 609.7438,-122 609.7438,-86 752.2562,-86 752.2562,-122"/>
<text text-anchor="middle" x="681" y="-99.8" font-family="Times,serif" font-size="14.00" fill="#000000">TsRadioGroupModule</text>
</g>
<!-- TsRadioGroupModule&#45;&gt;TerminusUIModule -->
<g id="edge21" class="edge">
<title>TsRadioGroupModule&#45;&gt;TerminusUIModule</title>
<path fill="none" stroke="#000000" d="M732.9911,-122.302C732.9911,-140.2699 732.9911,-165 732.9911,-165 732.9911,-165 1854.6974,-165 1854.6974,-165"/>
<polygon fill="#000000" stroke="#000000" points="1854.6974,-168.5001 1864.6974,-165 1854.6973,-161.5001 1854.6974,-168.5001"/>
</g>
<!-- TsWindowService -->
<g id="node43" class="node">
<title>TsWindowService</title>
<ellipse fill="#fdb462" stroke="#000000" cx="503" cy="-104" rx="82.8052" ry="18"/>
<text text-anchor="middle" x="503" y="-99.8" font-family="Times,serif" font-size="14.00" fill="#000000">TsWindowService</text>
</g>
<!-- TsWindowService&#45;&gt;TerminusUIModule -->
<g id="edge42" class="edge">
<title>TsWindowService&#45;&gt;TerminusUIModule</title>
<path fill="none" stroke="#000000" d="M579.5153,-111.2269C579.5153,-127.775 579.5153,-167 579.5153,-167 579.5153,-167 1854.8194,-167 1854.8194,-167"/>
<polygon fill="#000000" stroke="#000000" points="1854.8194,-170.5001 1864.8194,-167 1854.8194,-163.5001 1854.8194,-170.5001"/>
</g>
<!-- TsDocumentService -->
<g id="node44" class="node">
<title>TsDocumentService</title>
<ellipse fill="#fdb462" stroke="#000000" cx="312" cy="-104" rx="89.746" ry="18"/>
<text text-anchor="middle" x="312" y="-99.8" font-family="Times,serif" font-size="14.00" fill="#000000">TsDocumentService</text>
</g>
<!-- TsDocumentService&#45;&gt;TerminusUIModule -->
<g id="edge43" class="edge">
<title>TsDocumentService&#45;&gt;TerminusUIModule</title>
<path fill="none" stroke="#000000" d="M312,-122.1061C312,-141.3391 312,-169 312,-169 312,-169 1854.6138,-169 1854.6138,-169"/>
<polygon fill="#000000" stroke="#000000" points="1854.6139,-172.5001 1864.6138,-169 1854.6138,-165.5001 1854.6139,-172.5001"/>
</g>
<!-- TsValidatorsService -->
<g id="node45" class="node">
<title>TsValidatorsService</title>
<ellipse fill="#fdb462" stroke="#000000" cx="114" cy="-104" rx="89.7402" ry="18"/>
<text text-anchor="middle" x="114" y="-99.8" font-family="Times,serif" font-size="14.00" fill="#000000">TsValidatorsService</text>
</g>
<!-- TsValidatorsService&#45;&gt;TerminusUIModule -->
<g id="edge44" class="edge">
<title>TsValidatorsService&#45;&gt;TerminusUIModule</title>
<path fill="none" stroke="#000000" d="M114,-122.0348C114,-141.5762 114,-170 114,-170 114,-170 1854.9363,-170 1854.9363,-170"/>
<polygon fill="#000000" stroke="#000000" points="1854.9363,-173.5001 1864.9363,-170 1854.9363,-166.5001 1854.9363,-173.5001"/>
</g>
</g>
</svg>
