<?xml version="1.0" encoding="UTF-8" standalone="no"?>
<!DOCTYPE svg PUBLIC "-//W3C//DTD SVG 1.1//EN"
 "http://www.w3.org/Graphics/SVG/1.1/DTD/svg11.dtd">
<!-- Generated by graphviz version 2.40.1 (20161225.0304)
 -->
<!-- Title: dependencies Pages: 1 -->
<svg width="536pt" height="284pt"
 viewBox="0.00 0.00 536.00 284.00" xmlns="http://www.w3.org/2000/svg" xmlns:xlink="http://www.w3.org/1999/xlink">
<g id="graph0" class="graph" transform="scale(1 1) rotate(0) translate(4 280)">
<title>dependencies</title>
<polygon fill="#ffffff" stroke="transparent" points="-4,4 -4,-280 532,-280 532,4 -4,4"/>
<text text-anchor="start" x="243.0091" y="-42.4" font-family="sans-serif" font-weight="bold" font-size="14.00" fill="#000000">Legend</text>
<polygon fill="#ffffb3" stroke="transparent" points="30,-10 30,-30 50,-30 50,-10 30,-10"/>
<text text-anchor="start" x="53.629" y="-15.4" font-family="sans-serif" font-size="14.00" fill="#000000"> &#160;Declarations</text>
<polygon fill="#8dd3c7" stroke="transparent" points="143,-10 143,-30 163,-30 163,-10 143,-10"/>
<text text-anchor="start" x="166.7251" y="-15.4" font-family="sans-serif" font-size="14.00" fill="#000000"> &#160;Module</text>
<polygon fill="#80b1d3" stroke="transparent" points="229,-10 229,-30 249,-30 249,-10 229,-10"/>
<text text-anchor="start" x="252.7812" y="-15.4" font-family="sans-serif" font-size="14.00" fill="#000000"> &#160;Bootstrap</text>
<polygon fill="#fdb462" stroke="transparent" points="326,-10 326,-30 346,-30 346,-10 326,-10"/>
<text text-anchor="start" x="349.6732" y="-15.4" font-family="sans-serif" font-size="14.00" fill="#000000"> &#160;Providers</text>
<polygon fill="#fb8072" stroke="transparent" points="422,-10 422,-30 442,-30 442,-10 422,-10"/>
<text text-anchor="start" x="445.7258" y="-15.4" font-family="sans-serif" font-size="14.00" fill="#000000"> &#160;Exports</text>
<g id="clust1" class="cluster">
<title>cluster_TsValidationMessagesModule</title>
<polygon fill="none" stroke="#000000" stroke-dasharray="1,5" points="8,-70 8,-268 520,-268 520,-70 8,-70"/>
</g>
<g id="clust2" class="cluster">
<title>cluster_TsValidationMessagesModule_declarations</title>
<polygon fill="none" stroke="#000000" points="288,-78 288,-130 512,-130 512,-78 288,-78"/>
</g>
<g id="clust5" class="cluster">
<title>cluster_TsValidationMessagesModule_exports</title>
<polygon fill="none" stroke="#000000" points="159,-208 159,-260 387,-260 387,-208 159,-208"/>
</g>
<g id="clust7" class="cluster">
<title>cluster_TsValidationMessagesModule_providers</title>
<polygon fill="none" stroke="#000000" points="16,-78 16,-130 280,-130 280,-78 16,-78"/>
</g>
<!-- TsValidationMessagesComponent -->
<g id="node1" class="node">
<title>TsValidationMessagesComponent</title>
<polygon fill="#ffffb3" stroke="#000000" points="504.3501,-122 295.6499,-122 295.6499,-86 504.3501,-86 504.3501,-122"/>
<text text-anchor="middle" x="400" y="-99.8" font-family="Times,serif" font-size="14.00" fill="#000000">TsValidationMessagesComponent</text>
</g>
<!-- TsValidationMessagesModule -->
<g id="node2" class="node">
<title>TsValidationMessagesModule</title>
<polygon fill="#8dd3c7" stroke="#000000" points="366.5674,-187 363.5674,-191 342.5674,-191 339.5674,-187 179.4326,-187 179.4326,-151 366.5674,-151 366.5674,-187"/>
<text text-anchor="middle" x="273" y="-164.8" font-family="Times,serif" font-size="14.00" fill="#000000">TsValidationMessagesModule</text>
</g>
<!-- TsValidationMessagesComponent&#45;&gt;TsValidationMessagesModule -->
<g id="edge1" class="edge">
<title>TsValidationMessagesComponent&#45;&gt;TsValidationMessagesModule</title>
<path fill="none" stroke="#000000" d="M331.0544,-122.1061C331.0544,-122.1061 331.0544,-140.991 331.0544,-140.991"/>
<polygon fill="#000000" stroke="#000000" points="327.5544,-140.9909 331.0544,-150.991 334.5544,-140.991 327.5544,-140.9909"/>
</g>
<!-- TsValidationMessagesComponent  -->
<g id="node3" class="node">
<title>TsValidationMessagesComponent </title>
<polygon fill="#fb8072" stroke="#000000" points="379.3503,-252 166.6497,-252 166.6497,-216 379.3503,-216 379.3503,-252"/>
<text text-anchor="middle" x="273" y="-229.8" font-family="Times,serif" font-size="14.00" fill="#000000">TsValidationMessagesComponent </text>
</g>
<!-- TsValidationMessagesModule&#45;&gt;TsValidationMessagesComponent  -->
<g id="edge2" class="edge">
<title>TsValidationMessagesModule&#45;&gt;TsValidationMessagesComponent </title>
<path fill="none" stroke="#000000" stroke-dasharray="5,2" d="M273,-187.1061C273,-187.1061 273,-205.991 273,-205.991"/>
<polygon fill="#000000" stroke="#000000" points="269.5001,-205.9909 273,-215.991 276.5001,-205.991 269.5001,-205.9909"/>
</g>
<!-- TsValidationMessageService -->
<g id="node4" class="node">
<title>TsValidationMessageService</title>
<ellipse fill="#fdb462" stroke="#000000" cx="148" cy="-104" rx="124.3915" ry="18"/>
<text text-anchor="middle" x="148" y="-99.8" font-family="Times,serif" font-size="14.00" fill="#000000">TsValidationMessageService</text>
</g>
<!-- TsValidationMessageService&#45;&gt;TsValidationMessagesModule -->
<g id="edge3" class="edge">
<title>TsValidationMessageService&#45;&gt;TsValidationMessagesModule</title>
<path fill="none" stroke="#000000" d="M225.831,-118.104C225.831,-118.104 225.831,-140.7209 225.831,-140.7209"/>
<polygon fill="#000000" stroke="#000000" points="222.3311,-140.7209 225.831,-150.7209 229.3311,-140.7209 222.3311,-140.7209"/>
</g>
</g>
</svg>
