<?xml version="1.0" encoding="UTF-8" standalone="no"?>
<!DOCTYPE svg PUBLIC "-//W3C//DTD SVG 1.1//EN"
 "http://www.w3.org/Graphics/SVG/1.1/DTD/svg11.dtd">
<!-- Generated by graphviz version 2.40.1 (20161225.0304)
 -->
<!-- Title: dependencies Pages: 1 -->
<svg width="876pt" height="284pt"
 viewBox="0.00 0.00 876.00 284.00" xmlns="http://www.w3.org/2000/svg" xmlns:xlink="http://www.w3.org/1999/xlink">
<g id="graph0" class="graph" transform="scale(1 1) rotate(0) translate(4 280)">
<title>dependencies</title>
<polygon fill="#ffffff" stroke="transparent" points="-4,4 -4,-280 872,-280 872,4 -4,4"/>
<text text-anchor="start" x="413.0091" y="-42.4" font-family="sans-serif" font-weight="bold" font-size="14.00" fill="#000000">Legend</text>
<polygon fill="#ffffb3" stroke="transparent" points="200,-10 200,-30 220,-30 220,-10 200,-10"/>
<text text-anchor="start" x="223.629" y="-15.4" font-family="sans-serif" font-size="14.00" fill="#000000"> &#160;Declarations</text>
<polygon fill="#8dd3c7" stroke="transparent" points="313,-10 313,-30 333,-30 333,-10 313,-10"/>
<text text-anchor="start" x="336.7251" y="-15.4" font-family="sans-serif" font-size="14.00" fill="#000000"> &#160;Module</text>
<polygon fill="#80b1d3" stroke="transparent" points="399,-10 399,-30 419,-30 419,-10 399,-10"/>
<text text-anchor="start" x="422.7812" y="-15.4" font-family="sans-serif" font-size="14.00" fill="#000000"> &#160;Bootstrap</text>
<polygon fill="#fdb462" stroke="transparent" points="496,-10 496,-30 516,-30 516,-10 496,-10"/>
<text text-anchor="start" x="519.6732" y="-15.4" font-family="sans-serif" font-size="14.00" fill="#000000"> &#160;Providers</text>
<polygon fill="#fb8072" stroke="transparent" points="592,-10 592,-30 612,-30 612,-10 592,-10"/>
<text text-anchor="start" x="615.7258" y="-15.4" font-family="sans-serif" font-size="14.00" fill="#000000"> &#160;Exports</text>
<g id="clust1" class="cluster">
<title>cluster_TsLoginFormModule</title>
<polygon fill="none" stroke="#000000" stroke-dasharray="1,5" points="8,-70 8,-268 860,-268 860,-70 8,-70"/>
</g>
<g id="clust2" class="cluster">
<title>cluster_TsLoginFormModule_declarations</title>
<polygon fill="none" stroke="#000000" points="676,-78 676,-130 852,-130 852,-78 676,-78"/>
</g>
<g id="clust4" class="cluster">
<title>cluster_TsLoginFormModule_imports</title>
<polygon fill="none" stroke="#000000" points="16,-78 16,-130 668,-130 668,-78 16,-78"/>
</g>
<g id="clust5" class="cluster">
<title>cluster_TsLoginFormModule_exports</title>
<polygon fill="none" stroke="#000000" points="313,-208 313,-260 491,-260 491,-208 313,-208"/>
</g>
<!-- TsLoginFormComponent -->
<g id="node1" class="node">
<title>TsLoginFormComponent</title>
<polygon fill="#ffffb3" stroke="#000000" points="843.6066,-122 684.3934,-122 684.3934,-86 843.6066,-86 843.6066,-122"/>
<text text-anchor="middle" x="764" y="-99.8" font-family="Times,serif" font-size="14.00" fill="#000000">TsLoginFormComponent</text>
</g>
<!-- TsLoginFormModule -->
<g id="node2" class="node">
<title>TsLoginFormModule</title>
<polygon fill="#8dd3c7" stroke="#000000" points="470.8244,-187 467.8244,-191 446.8244,-191 443.8244,-187 333.1756,-187 333.1756,-151 470.8244,-151 470.8244,-187"/>
<text text-anchor="middle" x="402" y="-164.8" font-family="Times,serif" font-size="14.00" fill="#000000">TsLoginFormModule</text>
</g>
<!-- TsLoginFormComponent&#45;&gt;TsLoginFormModule -->
<g id="edge1" class="edge">
<title>TsLoginFormComponent&#45;&gt;TsLoginFormModule</title>
<path fill="none" stroke="#000000" d="M764,-122.2843C764,-143.3211 764,-175 764,-175 764,-175 480.9415,-175 480.9415,-175"/>
<polygon fill="#000000" stroke="#000000" points="480.9415,-171.5001 470.9415,-175 480.9415,-178.5001 480.9415,-171.5001"/>
</g>
<!-- TsLoginFormComponent  -->
<g id="node8" class="node">
<title>TsLoginFormComponent </title>
<polygon fill="#fb8072" stroke="#000000" points="483.1071,-252 320.8929,-252 320.8929,-216 483.1071,-216 483.1071,-252"/>
<text text-anchor="middle" x="402" y="-229.8" font-family="Times,serif" font-size="14.00" fill="#000000">TsLoginFormComponent </text>
</g>
<!-- TsLoginFormModule&#45;&gt;TsLoginFormComponent  -->
<g id="edge7" class="edge">
<title>TsLoginFormModule&#45;&gt;TsLoginFormComponent </title>
<path fill="none" stroke="#000000" stroke-dasharray="5,2" d="M402,-187.1061C402,-187.1061 402,-205.991 402,-205.991"/>
<polygon fill="#000000" stroke="#000000" points="398.5001,-205.9909 402,-215.991 405.5001,-205.991 398.5001,-205.9909"/>
</g>
<!-- TsInputModule -->
<g id="node3" class="node">
<title>TsInputModule</title>
<polygon fill="#8dd3c7" stroke="#000000" points="659.5982,-122 656.5982,-126 635.5982,-126 632.5982,-122 556.4018,-122 556.4018,-86 659.5982,-86 659.5982,-122"/>
<text text-anchor="middle" x="608" y="-99.8" font-family="Times,serif" font-size="14.00" fill="#000000">TsInputModule</text>
</g>
<!-- TsInputModule&#45;&gt;TsLoginFormModule -->
<g id="edge2" class="edge">
<title>TsInputModule&#45;&gt;TsLoginFormModule</title>
<path fill="none" stroke="#000000" d="M608,-122.0225C608,-139.3734 608,-163 608,-163 608,-163 480.8814,-163 480.8814,-163"/>
<polygon fill="#000000" stroke="#000000" points="480.8815,-159.5001 470.8814,-163 480.8814,-166.5001 480.8815,-159.5001"/>
</g>
<!-- TsCheckboxModule -->
<g id="node4" class="node">
<title>TsCheckboxModule</title>
<polygon fill="#8dd3c7" stroke="#000000" points="538.3132,-122 535.3132,-126 514.3132,-126 511.3132,-122 407.6868,-122 407.6868,-86 538.3132,-86 538.3132,-122"/>
<text text-anchor="middle" x="473" y="-99.8" font-family="Times,serif" font-size="14.00" fill="#000000">TsCheckboxModule</text>
</g>
<!-- TsCheckboxModule&#45;&gt;TsLoginFormModule -->
<g id="edge3" class="edge">
<title>TsCheckboxModule&#45;&gt;TsLoginFormModule</title>
<path fill="none" stroke="#000000" d="M439.2528,-122.1061C439.2528,-122.1061 439.2528,-140.991 439.2528,-140.991"/>
<polygon fill="#000000" stroke="#000000" points="435.7529,-140.9909 439.2528,-150.991 442.7529,-140.991 435.7529,-140.9909"/>
</g>
<!-- TsSpacingModule -->
<g id="node5" class="node">
<title>TsSpacingModule</title>
<polygon fill="#8dd3c7" stroke="#000000" points="390.1499,-122 387.1499,-126 366.1499,-126 363.1499,-122 271.8501,-122 271.8501,-86 390.1499,-86 390.1499,-122"/>
<text text-anchor="middle" x="331" y="-99.8" font-family="Times,serif" font-size="14.00" fill="#000000">TsSpacingModule</text>
</g>
<!-- TsSpacingModule&#45;&gt;TsLoginFormModule -->
<g id="edge4" class="edge">
<title>TsSpacingModule&#45;&gt;TsLoginFormModule</title>
<path fill="none" stroke="#000000" d="M361.8314,-122.1061C361.8314,-122.1061 361.8314,-140.991 361.8314,-140.991"/>
<polygon fill="#000000" stroke="#000000" points="358.3314,-140.9909 361.8314,-150.991 365.3314,-140.991 358.3314,-140.9909"/>
</g>
<!-- TsButtonModule -->
<g id="node6" class="node">
<title>TsButtonModule</title>
<polygon fill="#8dd3c7" stroke="#000000" points="253.6653,-122 250.6653,-126 229.6653,-126 226.6653,-122 142.3347,-122 142.3347,-86 253.6653,-86 253.6653,-122"/>
<text text-anchor="middle" x="198" y="-99.8" font-family="Times,serif" font-size="14.00" fill="#000000">TsButtonModule</text>
</g>
<!-- TsButtonModule&#45;&gt;TsLoginFormModule -->
<g id="edge5" class="edge">
<title>TsButtonModule&#45;&gt;TsLoginFormModule</title>
<path fill="none" stroke="#000000" d="M198,-122.0225C198,-139.3734 198,-163 198,-163 198,-163 323.2193,-163 323.2193,-163"/>
<polygon fill="#000000" stroke="#000000" points="323.2193,-166.5001 333.2193,-163 323.2193,-159.5001 323.2193,-166.5001"/>
</g>
<!-- TsLinkModule -->
<g id="node7" class="node">
<title>TsLinkModule</title>
<polygon fill="#8dd3c7" stroke="#000000" points="123.9902,-122 120.9902,-126 99.9902,-126 96.9902,-122 24.0098,-122 24.0098,-86 123.9902,-86 123.9902,-122"/>
<text text-anchor="middle" x="74" y="-99.8" font-family="Times,serif" font-size="14.00" fill="#000000">TsLinkModule</text>
</g>
<!-- TsLinkModule&#45;&gt;TsLoginFormModule -->
<g id="edge6" class="edge">
<title>TsLinkModule&#45;&gt;TsLoginFormModule</title>
<path fill="none" stroke="#000000" d="M74,-122.2843C74,-143.3211 74,-175 74,-175 74,-175 323.2405,-175 323.2405,-175"/>
<polygon fill="#000000" stroke="#000000" points="323.2405,-178.5001 333.2405,-175 323.2404,-171.5001 323.2405,-178.5001"/>
</g>
</g>
</svg>
